{"title":"怪獣の花唄","artist":"Vaundy","bpm":150,"ticksPerBeat":480,"sourceShiftBeats":4.0,"durationBeats":557.0,"description":"フルMIDIの非ドラムを伴奏にし、ドラム専用MIDIを練習ノーツとして表示します。ドラム音はPAD入力時だけ鳴ります。","practice":{"easy4":[{"beat":8.0,"padIndex":0,"midi":36,"velocity":88},{"beat":8.0,"padIndex":12,"midi":57,"velocity":55},{"beat":8.0,"padIndex":12,"midi":49,"velocity":55},{"beat":8.5,"padIndex":2,"midi":42,"velocity":70},{"beat":9.0,"padIndex":0,"midi":36,"velocity":86},{"beat":9.5,"padIndex":2,"midi":42,"velocity":74},{"beat":10.0,"padIndex":0,"midi":36,"velocity":89},{"beat":10.5,"padIndex":2,"midi":42,"velocity":76},{"beat":11.0,"padIndex":0,"midi":36,"velocity":86},{"beat":11.5,"padIndex":2,"midi":42,"velocity":76},{"beat":12.0,"padIndex":0,"midi":36,"velocity":90},{"beat":12.5,"padIndex":2,"midi":42,"velocity":74},{"beat":13.0,"padIndex":0,"midi":36,"velocity":88},{"beat":13.5,"padIndex":2,"midi":42,"velocity":70},{"beat":14.0,"padIndex":0,"midi":36,"velocity":87},{"beat":14.5,"padIndex":2,"midi":42,"velocity":73},{"beat":15.0,"padIndex":0,"midi":36,"velocity":89},{"beat":15.5,"padIndex":2,"midi":42,"velocity":74},{"beat":16.0,"padIndex":0,"midi":36,"velocity":88},{"beat":16.5,"padIndex":2,"midi":42,"velocity":73},{"beat":17.0,"padIndex":0,"midi":36,"velocity":86},{"beat":17.5,"padIndex":2,"midi":42,"velocity":76},{"beat":18.0,"padIndex":0,"midi":36,"velocity":90},{"beat":18.5,"padIndex":2,"midi":42,"velocity":70},{"beat":19.0,"padIndex":0,"midi":36,"velocity":90},{"beat":19.5,"padIndex":2,"midi":42,"velocity":74},{"beat":20.0,"padIndex":0,"midi":36,"velocity":86},{"beat":20.5,"padIndex":3,"midi":46,"velocity":62},{"beat":21.0,"padIndex":0,"midi":36,"velocity":91},{"beat":21.0,"padIndex":2,"midi":42,"velocity":69},{"beat":21.5,"padIndex":2,"midi":42,"velocity":69},{"beat":22.0,"padIndex":0,"midi":36,"velocity":89},{"beat":22.0,"padIndex":2,"midi":42,"velocity":62},{"beat":22.5,"padIndex":3,"midi":46,"velocity":62},{"beat":23.0,"padIndex":0,"midi":36,"velocity":90},{"beat":23.0,"padIndex":2,"midi":42,"velocity":73},{"beat":23.5,"padIndex":3,"midi":46,"velocity":62},{"beat":24.0,"padIndex":0,"midi":36,"velocity":87},{"beat":24.0,"padIndex":2,"midi":42,"velocity":70},{"beat":24.5,"padIndex":2,"midi":42,"velocity":69},{"beat":25.0,"padIndex":0,"midi":36,"velocity":89},{"beat":25.5,"padIndex":2,"midi":42,"velocity":74},{"beat":26.0,"padIndex":0,"midi":36,"velocity":91},{"beat":26.5,"padIndex":2,"midi":42,"velocity":71},{"beat":27.0,"padIndex":0,"midi":36,"velocity":86},{"beat":27.5,"padIndex":2,"midi":42,"velocity":73},{"beat":28.0,"padIndex":0,"midi":36,"velocity":89},{"beat":28.5,"padIndex":2,"midi":42,"velocity":69},{"beat":29.0,"padIndex":0,"midi":36,"velocity":87},{"beat":29.5,"padIndex":2,"midi":42,"velocity":71},{"beat":30.0,"padIndex":0,"midi":36,"velocity":86},{"beat":30.5,"padIndex":3,"midi":46,"velocity":62},{"beat":31.0,"padIndex":0,"midi":36,"velocity":86},{"beat":31.0,"padIndex":2,"midi":42,"velocity":61},{"beat":31.5,"padIndex":3,"midi":46,"velocity":64},{"beat":32.0,"padIndex":0,"midi":36,"velocity":91},{"beat":32.0,"padIndex":2,"midi":42,"velocity":62},{"beat":32.5,"padIndex":2,"midi":42,"velocity":72},{"beat":33.0,"padIndex":0,"midi":36,"velocity":92},{"beat":33.5,"padIndex":2,"midi":42,"velocity":70},{"beat":34.0,"padIndex":0,"midi":36,"velocity":88},{"beat":34.5,"padIndex":2,"midi":42,"velocity":73},{"beat":35.0,"padIndex":0,"midi":36,"velocity":89},{"beat":35.5,"padIndex":3,"midi":46,"velocity":62},{"beat":36.0,"padIndex":0,"midi":36,"velocity":91},{"beat":36.0,"padIndex":2,"midi":42,"velocity":49},{"beat":36.5,"padIndex":2,"midi":42,"velocity":75},{"beat":37.0,"padIndex":0,"midi":36,"velocity":87},{"beat":37.5,"padIndex":2,"midi":42,"velocity":74},{"beat":38.0,"padIndex":0,"midi":36,"velocity":89},{"beat":38.5,"padIndex":2,"midi":42,"velocity":70},{"beat":39.0,"padIndex":0,"midi":36,"velocity":91},{"beat":39.5,"padIndex":2,"midi":42,"velocity":73},{"beat":40.0,"padIndex":0,"midi":36,"velocity":91},{"beat":40.0,"padIndex":12,"midi":49,"velocity":55},{"beat":40.0,"padIndex":12,"midi":57,"velocity":59},{"beat":41.0,"padIndex":1,"midi":34,"velocity":73},{"beat":42.0,"padIndex":2,"midi":42,"velocity":69},{"beat":42.5,"padIndex":0,"midi":36,"velocity":90},{"beat":43.0,"padIndex":1,"midi":34,"velocity":75},{"beat":43.0,"padIndex":2,"midi":42,"velocity":70},{"beat":43.5,"padIndex":2,"midi":42,"velocity":62},{"beat":44.0,"padIndex":0,"midi":36,"velocity":92},{"beat":44.0,"padIndex":2,"midi":42,"velocity":70},{"beat":45.0,"padIndex":1,"midi":34,"velocity":73},{"beat":45.0,"padIndex":2,"midi":42,"velocity":76},{"beat":46.0,"padIndex":2,"midi":42,"velocity":83},{"beat":46.5,"padIndex":0,"midi":36,"velocity":92},{"beat":47.0,"padIndex":1,"midi":34,"velocity":75},{"beat":47.0,"padIndex":2,"midi":42,"velocity":70},{"beat":48.0,"padIndex":0,"midi":36,"velocity":91},{"beat":48.0,"padIndex":2,"midi":42,"velocity":75},{"beat":49.0,"padIndex":1,"midi":34,"velocity":73},{"beat":49.0,"padIndex":2,"midi":42,"velocity":71},{"beat":50.0,"padIndex":2,"midi":42,"velocity":82},{"beat":50.5,"padIndex":0,"midi":36,"velocity":87},{"beat":51.0,"padIndex":1,"midi":34,"velocity":75},{"beat":51.0,"padIndex":2,"midi":42,"velocity":71},{"beat":52.0,"padIndex":0,"midi":36,"velocity":87},{"beat":52.0,"padIndex":2,"midi":42,"velocity":82},{"beat":53.0,"padIndex":1,"midi":34,"velocity":73},{"beat":53.0,"padIndex":2,"midi":42,"velocity":76},{"beat":54.0,"padIndex":2,"midi":42,"velocity":82},{"beat":54.5,"padIndex":0,"midi":36,"velocity":91},{"beat":55.0,"padIndex":1,"midi":34,"velocity":75},{"beat":55.0,"padIndex":2,"midi":42,"velocity":75},{"beat":55.5,"padIndex":0,"midi":36,"velocity":87},{"beat":56.0,"padIndex":0,"midi":36,"velocity":91},{"beat":56.0,"padIndex":2,"midi":42,"velocity":76},{"beat":57.0,"padIndex":1,"midi":34,"velocity":73},{"beat":57.0,"padIndex":2,"midi":42,"velocity":71},{"beat":58.0,"padIndex":2,"midi":42,"velocity":74},{"beat":58.5,"padIndex":0,"midi":36,"velocity":87},{"beat":59.0,"padIndex":1,"midi":34,"velocity":75},{"beat":59.0,"padIndex":2,"midi":42,"velocity":74},{"beat":59.5,"padIndex":2,"midi":42,"velocity":66},{"beat":60.0,"padIndex":0,"midi":36,"velocity":89},{"beat":60.0,"padIndex":2,"midi":42,"velocity":75},{"beat":61.0,"padIndex":1,"midi":34,"velocity":73},{"beat":61.0,"padIndex":2,"midi":42,"velocity":69},{"beat":62.0,"padIndex":2,"midi":42,"velocity":79},{"beat":62.5,"padIndex":0,"midi":36,"velocity":90},{"beat":63.0,"padIndex":1,"midi":34,"velocity":75},{"beat":63.0,"padIndex":2,"midi":42,"velocity":76},{"beat":64.0,"padIndex":0,"midi":36,"velocity":86},{"beat":64.0,"padIndex":2,"midi":42,"velocity":76},{"beat":65.0,"padIndex":1,"midi":34,"velocity":73},{"beat":65.0,"padIndex":2,"midi":42,"velocity":75},{"beat":66.0,"padIndex":2,"midi":42,"velocity":82},{"beat":66.5,"padIndex":0,"midi":36,"velocity":87},{"beat":67.0,"padIndex":1,"midi":34,"velocity":75},{"beat":67.0,"padIndex":2,"midi":42,"velocity":76},{"beat":68.0,"padIndex":0,"midi":36,"velocity":92},{"beat":68.0,"padIndex":2,"midi":42,"velocity":76},{"beat":69.0,"padIndex":1,"midi":34,"velocity":73},{"beat":69.0,"padIndex":2,"midi":42,"velocity":71},{"beat":70.0,"padIndex":2,"midi":42,"velocity":82},{"beat":71.0,"padIndex":1,"midi":34,"velocity":50},{"beat":71.0,"padIndex":2,"midi":42,"velocity":74},{"beat":71.04167,"padIndex":1,"midi":34,"velocity":75},{"beat":71.5,"padIndex":0,"midi":36,"velocity":87},{"beat":72.0,"padIndex":0,"midi":36,"velocity":92},{"beat":72.0,"padIndex":12,"midi":57,"velocity":55},{"beat":72.0,"padIndex":12,"midi":49,"velocity":55},{"beat":73.0,"padIndex":1,"midi":34,"velocity":73},{"beat":73.0,"padIndex":2,"midi":42,"velocity":71},{"beat":73.75,"padIndex":1,"midi":34,"velocity":35},{"beat":74.0,"padIndex":2,"midi":42,"velocity":82},{"beat":74.25,"padIndex":1,"midi":34,"velocity":55},{"beat":74.5,"padIndex":0,"midi":36,"velocity":91},{"beat":75.0,"padIndex":1,"midi":34,"velocity":75},{"beat":75.0,"padIndex":2,"midi":42,"velocity":76},{"beat":76.0,"padIndex":0,"midi":36,"velocity":88},{"beat":76.0,"padIndex":2,"midi":42,"velocity":76},{"beat":77.0,"padIndex":1,"midi":34,"velocity":73},{"beat":77.0,"padIndex":2,"midi":42,"velocity":72},{"beat":77.75,"padIndex":1,"midi":34,"velocity":45},{"beat":78.0,"padIndex":2,"midi":42,"velocity":82},{"beat":78.25,"padIndex":1,"midi":34,"velocity":55},{"beat":78.5,"padIndex":0,"midi":36,"velocity":86},{"beat":78.5,"padIndex":3,"midi":46,"velocity":71},{"beat":79.0,"padIndex":1,"midi":34,"velocity":75},{"beat":79.0,"padIndex":2,"midi":42,"velocity":70},{"beat":79.5,"padIndex":0,"midi":36,"velocity":86},{"beat":79.5,"padIndex":2,"midi":42,"velocity":62},{"beat":80.0,"padIndex":0,"midi":36,"velocity":90},{"beat":80.0,"padIndex":2,"midi":42,"velocity":76},{"beat":81.0,"padIndex":1,"midi":34,"velocity":73},{"beat":81.0,"padIndex":2,"midi":42,"velocity":74},{"beat":81.75,"padIndex":1,"midi":34,"velocity":55},{"beat":82.0,"padIndex":2,"midi":42,"velocity":82},{"beat":82.25,"padIndex":1,"midi":34,"velocity":55},{"beat":82.5,"padIndex":0,"midi":36,"velocity":91},{"beat":83.0,"padIndex":1,"midi":34,"velocity":75},{"beat":83.0,"padIndex":2,"midi":42,"velocity":69},{"beat":83.5,"padIndex":0,"midi":36,"velocity":90},{"beat":83.5,"padIndex":2,"midi":42,"velocity":69},{"beat":84.0,"padIndex":0,"midi":36,"velocity":88},{"beat":84.0,"padIndex":2,"midi":42,"velocity":73},{"beat":84.5,"padIndex":2,"midi":42,"velocity":69},{"beat":85.0,"padIndex":1,"midi":34,"velocity":73},{"beat":85.0,"padIndex":2,"midi":42,"velocity":72},{"beat":85.75,"padIndex":1,"midi":34,"velocity":55},{"beat":86.0,"padIndex":2,"midi":42,"velocity":71},{"beat":86.25,"padIndex":1,"midi":34,"velocity":55},{"beat":86.5,"padIndex":0,"midi":36,"velocity":90},{"beat":86.5,"padIndex":3,"midi":46,"velocity":73},{"beat":87.0,"padIndex":1,"midi":34,"velocity":75},{"beat":87.5,"padIndex":0,"midi":36,"velocity":86},{"beat":88.0,"padIndex":0,"midi":36,"velocity":88},{"beat":88.0,"padIndex":12,"midi":57,"velocity":55},{"beat":88.0,"padIndex":12,"midi":49,"velocity":55},{"beat":89.0,"padIndex":1,"midi":34,"velocity":73},{"beat":89.0,"padIndex":2,"midi":42,"velocity":71},{"beat":89.75,"padIndex":1,"midi":34,"velocity":40},{"beat":90.0,"padIndex":2,"midi":42,"velocity":71},{"beat":90.25,"padIndex":1,"midi":34,"velocity":55},{"beat":90.5,"padIndex":0,"midi":36,"velocity":91},{"beat":91.0,"padIndex":1,"midi":34,"velocity":75},{"beat":91.0,"padIndex":3,"midi":46,"velocity":62},{"beat":91.5,"padIndex":0,"midi":36,"velocity":90},{"beat":92.0,"padIndex":0,"midi":36,"velocity":87},{"beat":92.0,"padIndex":2,"midi":42,"velocity":69},{"beat":93.0,"padIndex":1,"midi":34,"velocity":73},{"beat":93.0,"padIndex":2,"midi":42,"velocity":73},{"beat":93.75,"padIndex":1,"midi":34,"velocity":40},{"beat":94.0,"padIndex":2,"midi":42,"velocity":72},{"beat":94.25,"padIndex":1,"midi":34,"velocity":55},{"beat":94.5,"padIndex":0,"midi":36,"velocity":91},{"beat":94.5,"padIndex":3,"midi":46,"velocity":75},{"beat":95.0,"padIndex":1,"midi":34,"velocity":75},{"beat":95.0,"padIndex":2,"midi":42,"velocity":70},{"beat":95.5,"padIndex":0,"midi":36,"velocity":92},{"beat":96.0,"padIndex":0,"midi":36,"velocity":90},{"beat":96.0,"padIndex":2,"midi":42,"velocity":75},{"beat":97.0,"padIndex":1,"midi":34,"velocity":73},{"beat":97.0,"padIndex":3,"midi":46,"velocity":66},{"beat":97.75,"padIndex":1,"midi":34,"velocity":69},{"beat":98.0,"padIndex":0,"midi":36,"velocity":88},{"beat":98.0,"padIndex":3,"midi":46,"velocity":70},{"beat":98.5,"padIndex":1,"midi":34,"velocity":71},{"beat":98.75,"padIndex":1,"midi":34,"velocity":59},{"beat":99.0,"padIndex":1,"midi":34,"velocity":75},{"beat":99.25,"padIndex":1,"midi":34,"velocity":68},{"beat":99.5,"padIndex":1,"midi":34,"velocity":75},{"beat":99.75,"padIndex":1,"midi":34,"velocity":75},{"beat":102.0,"padIndex":2,"midi":44,"velocity":55},{"beat":102.5,"padIndex":0,"midi":36,"velocity":91},{"beat":102.75,"padIndex":0,"midi":36,"velocity":88},{"beat":103.0,"padIndex":1,"midi":34,"velocity":67},{"beat":103.0,"padIndex":2,"midi":44,"velocity":55},{"beat":104.0,"padIndex":0,"midi":36,"velocity":86},{"beat":104.0,"padIndex":12,"midi":49,"velocity":55},{"beat":104.0,"padIndex":12,"midi":57,"velocity":59},{"beat":105.0,"padIndex":1,"midi":34,"velocity":73},{"beat":105.0,"padIndex":3,"midi":46,"velocity":69},{"beat":105.75,"padIndex":1,"midi":34,"velocity":45},{"beat":106.0,"padIndex":0,"midi":36,"velocity":89},{"beat":106.0,"padIndex":3,"midi":46,"velocity":71},{"beat":106.5,"padIndex":0,"midi":36,"velocity":90},{"beat":107.0,"padIndex":1,"midi":34,"velocity":75},{"beat":107.0,"padIndex":3,"midi":46,"velocity":70},{"beat":107.75,"padIndex":1,"midi":34,"velocity":45},{"beat":108.0,"padIndex":0,"midi":36,"velocity":87},{"beat":108.0,"padIndex":3,"midi":46,"velocity":72},{"beat":109.0,"padIndex":1,"midi":34,"velocity":73},{"beat":109.0,"padIndex":3,"midi":46,"velocity":71},{"beat":109.75,"padIndex":1,"midi":34,"velocity":45},{"beat":110.0,"padIndex":0,"midi":36,"velocity":87},{"beat":110.0,"padIndex":3,"midi":46,"velocity":69},{"beat":110.5,"padIndex":0,"midi":36,"velocity":87},{"beat":111.0,"padIndex":1,"midi":34,"velocity":75},{"beat":111.0,"padIndex":3,"midi":46,"velocity":69},{"beat":111.75,"padIndex":1,"midi":34,"velocity":45},{"beat":112.0,"padIndex":0,"midi":36,"velocity":91},{"beat":112.0,"padIndex":3,"midi":46,"velocity":70},{"beat":113.0,"padIndex":1,"midi":34,"velocity":73},{"beat":113.0,"padIndex":3,"midi":46,"velocity":71},{"beat":113.75,"padIndex":1,"midi":34,"velocity":45},{"beat":114.0,"padIndex":0,"midi":36,"velocity":87},{"beat":114.0,"padIndex":3,"midi":46,"velocity":70},{"beat":114.5,"padIndex":0,"midi":36,"velocity":86},{"beat":115.0,"padIndex":1,"midi":34,"velocity":75},{"beat":115.0,"padIndex":3,"midi":46,"velocity":72},{"beat":116.0,"padIndex":0,"midi":36,"velocity":92},{"beat":116.0,"padIndex":3,"midi":46,"velocity":73},{"beat":117.0,"padIndex":1,"midi":34,"velocity":73},{"beat":117.0,"padIndex":3,"midi":46,"velocity":69},{"beat":117.75,"padIndex":1,"midi":34,"velocity":45},{"beat":118.0,"padIndex":0,"midi":36,"velocity":91},{"beat":118.0,"padIndex":3,"midi":46,"velocity":69},{"beat":118.5,"padIndex":0,"midi":36,"velocity":92},{"beat":119.0,"padIndex":1,"midi":34,"velocity":75},{"beat":119.0,"padIndex":3,"midi":46,"velocity":71},{"beat":119.5,"padIndex":0,"midi":36,"velocity":89},{"beat":119.5,"padIndex":1,"midi":34,"velocity":45},{"beat":119.75,"padIndex":1,"midi":34,"velocity":55},{"beat":120.0,"padIndex":0,"midi":36,"velocity":87},{"beat":120.0,"padIndex":12,"midi":57,"velocity":59},{"beat":120.0,"padIndex":12,"midi":49,"velocity":45},{"beat":121.0,"padIndex":1,"midi":34,"velocity":73},{"beat":121.0,"padIndex":3,"midi":46,"velocity":70},{"beat":121.75,"padIndex":1,"midi":34,"velocity":55},{"beat":122.0,"padIndex":0,"midi":36,"velocity":90},{"beat":122.0,"padIndex":3,"midi":46,"velocity":72},{"beat":122.25,"padIndex":1,"midi":34,"velocity":45},{"beat":122.5,"padIndex":0,"midi":36,"velocity":87},{"beat":123.0,"padIndex":1,"midi":34,"velocity":75},{"beat":123.0,"padIndex":3,"midi":46,"velocity":73},{"beat":123.5,"padIndex":1,"midi":34,"velocity":40},{"beat":123.75,"padIndex":1,"midi":34,"velocity":45},{"beat":124.0,"padIndex":0,"midi":36,"velocity":91},{"beat":124.0,"padIndex":3,"midi":46,"velocity":72},{"beat":125.0,"padIndex":1,"midi":34,"velocity":73},{"beat":125.0,"padIndex":3,"midi":46,"velocity":73},{"beat":125.75,"padIndex":1,"midi":34,"velocity":45},{"beat":126.0,"padIndex":0,"midi":36,"velocity":92},{"beat":126.0,"padIndex":3,"midi":46,"velocity":69},{"beat":126.5,"padIndex":0,"midi":36,"velocity":88},{"beat":127.0,"padIndex":1,"midi":34,"velocity":75},{"beat":127.0,"padIndex":3,"midi":46,"velocity":74},{"beat":127.5,"padIndex":1,"midi":34,"velocity":55},{"beat":127.75,"padIndex":1,"midi":34,"velocity":50},{"beat":128.0,"padIndex":0,"midi":36,"velocity":92},{"beat":128.0,"padIndex":1,"midi":34,"velocity":55},{"beat":128.0,"padIndex":3,"midi":46,"velocity":70},{"beat":128.0,"padIndex":12,"midi":49,"velocity":45},{"beat":129.0,"padIndex":1,"midi":34,"velocity":73},{"beat":129.0,"padIndex":3,"midi":46,"velocity":69},{"beat":129.75,"padIndex":1,"midi":34,"velocity":70},{"beat":130.0,"padIndex":0,"midi":36,"velocity":86},{"beat":130.0,"padIndex":3,"midi":46,"velocity":73},{"beat":130.25,"padIndex":1,"midi":34,"velocity":45},{"beat":130.5,"padIndex":0,"midi":36,"velocity":87},{"beat":131.0,"padIndex":1,"midi":34,"velocity":75},{"beat":131.0,"padIndex":3,"midi":46,"velocity":69},{"beat":131.75,"padIndex":1,"midi":34,"velocity":70},{"beat":132.0,"padIndex":0,"midi":36,"velocity":87},{"beat":132.0,"padIndex":3,"midi":46,"velocity":69},{"beat":132.5,"padIndex":0,"midi":36,"velocity":92},{"beat":133.0,"padIndex":1,"midi":34,"velocity":73},{"beat":133.0,"padIndex":3,"midi":46,"velocity":69},{"beat":133.75,"padIndex":1,"midi":34,"velocity":70},{"beat":134.0,"padIndex":0,"midi":36,"velocity":90},{"beat":134.0,"padIndex":3,"midi":46,"velocity":74},{"beat":134.5,"padIndex":1,"midi":34,"velocity":75},{"beat":134.75,"padIndex":1,"midi":34,"velocity":69},{"beat":135.0,"padIndex":0,"midi":36,"velocity":87},{"beat":135.0,"padIndex":1,"midi":34,"velocity":75},{"beat":135.25,"padIndex":1,"midi":34,"velocity":70},{"beat":136.0,"padIndex":0,"midi":36,"velocity":90},{"beat":136.0,"padIndex":12,"midi":49,"velocity":55},{"beat":136.0,"padIndex":12,"midi":57,"velocity":59},{"beat":137.0,"padIndex":1,"midi":34,"velocity":73},{"beat":137.0,"padIndex":3,"midi":46,"velocity":69},{"beat":137.75,"padIndex":1,"midi":34,"velocity":55},{"beat":138.0,"padIndex":0,"midi":36,"velocity":91},{"beat":138.0,"padIndex":3,"midi":46,"velocity":73},{"beat":138.25,"padIndex":1,"midi":34,"velocity":45},{"beat":138.5,"padIndex":0,"midi":36,"velocity":91},{"beat":139.0,"padIndex":1,"midi":34,"velocity":75},{"beat":139.0,"padIndex":3,"midi":46,"velocity":69},{"beat":139.75,"padIndex":1,"midi":34,"velocity":45},{"beat":140.0,"padIndex":0,"midi":36,"velocity":87},{"beat":140.0,"padIndex":3,"midi":46,"velocity":69},{"beat":141.0,"padIndex":1,"midi":34,"velocity":73},{"beat":141.0,"padIndex":3,"midi":46,"velocity":73},{"beat":141.75,"padIndex":1,"midi":34,"velocity":55},{"beat":142.0,"padIndex":0,"midi":36,"velocity":92},{"beat":142.0,"padIndex":3,"midi":46,"velocity":70},{"beat":142.5,"padIndex":0,"midi":36,"velocity":89},{"beat":143.0,"padIndex":1,"midi":34,"velocity":75},{"beat":143.0,"padIndex":3,"midi":46,"velocity":72},{"beat":143.75,"padIndex":1,"midi":34,"velocity":55},{"beat":144.0,"padIndex":0,"midi":36,"velocity":88},{"beat":144.0,"padIndex":3,"midi":46,"velocity":69},{"beat":144.0,"padIndex":12,"midi":49,"velocity":45},{"beat":145.0,"padIndex":1,"midi":34,"velocity":73},{"beat":145.0,"padIndex":3,"midi":46,"velocity":71},{"beat":145.75,"padIndex":1,"midi":34,"velocity":55},{"beat":146.0,"padIndex":0,"midi":36,"velocity":92},{"beat":146.0,"padIndex":3,"midi":46,"velocity":71},{"beat":146.5,"padIndex":0,"midi":36,"velocity":91},{"beat":147.0,"padIndex":1,"midi":34,"velocity":75},{"beat":147.0,"padIndex":3,"midi":46,"velocity":69},{"beat":147.75,"padIndex":1,"midi":34,"velocity":45},{"beat":148.0,"padIndex":0,"midi":36,"velocity":91},{"beat":148.0,"padIndex":3,"midi":46,"velocity":69},{"beat":149.0,"padIndex":1,"midi":34,"velocity":73},{"beat":149.0,"padIndex":3,"midi":46,"velocity":71},{"beat":149.75,"padIndex":1,"midi":34,"velocity":48},{"beat":150.0,"padIndex":0,"midi":36,"velocity":90},{"beat":150.0,"padIndex":3,"midi":46,"velocity":74},{"beat":150.5,"padIndex":0,"midi":36,"velocity":87},{"beat":151.0,"padIndex":1,"midi":34,"velocity":75},{"beat":151.0,"padIndex":3,"midi":46,"velocity":70},{"beat":151.25,"padIndex":1,"midi":34,"velocity":45},{"beat":151.5,"padIndex":0,"midi":36,"velocity":86},{"beat":151.5,"padIndex":1,"midi":34,"velocity":45},{"beat":151.75,"padIndex":1,"midi":34,"velocity":45},{"beat":152.0,"padIndex":0,"midi":36,"velocity":92},{"beat":152.0,"padIndex":12,"midi":49,"velocity":55},{"beat":152.0,"padIndex":12,"midi":57,"velocity":65},{"beat":153.0,"padIndex":1,"midi":34,"velocity":73},{"beat":153.0,"padIndex":3,"midi":46,"velocity":69},{"beat":153.75,"padIndex":1,"midi":34,"velocity":55},{"beat":154.0,"padIndex":0,"midi":36,"velocity":92},{"beat":154.0,"padIndex":3,"midi":46,"velocity":69},{"beat":154.25,"padIndex":1,"midi":34,"velocity":45},{"beat":154.5,"padIndex":0,"midi":36,"velocity":91},{"beat":155.0,"padIndex":1,"midi":34,"velocity":75},{"beat":155.0,"padIndex":3,"midi":46,"velocity":73},{"beat":156.0,"padIndex":0,"midi":36,"velocity":88},{"beat":156.0,"padIndex":3,"midi":46,"velocity":73},{"beat":157.0,"padIndex":1,"midi":34,"velocity":73},{"beat":157.0,"padIndex":3,"midi":46,"velocity":72},{"beat":157.5,"padIndex":12,"midi":57,"velocity":45},{"beat":157.75,"padIndex":1,"midi":34,"velocity":65},{"beat":158.0,"padIndex":0,"midi":36,"velocity":92},{"beat":158.0,"padIndex":3,"midi":46,"velocity":71},{"beat":158.25,"padIndex":1,"midi":34,"velocity":45},{"beat":158.5,"padIndex":0,"midi":36,"velocity":88},{"beat":159.0,"padIndex":1,"midi":34,"velocity":75},{"beat":159.0,"padIndex":3,"midi":46,"velocity":73},{"beat":159.5,"padIndex":0,"midi":36,"velocity":87},{"beat":159.75,"padIndex":1,"midi":34,"velocity":45},{"beat":160.0,"padIndex":0,"midi":36,"velocity":86},{"beat":160.0,"padIndex":12,"midi":49,"velocity":55},{"beat":160.0,"padIndex":12,"midi":57,"velocity":65},{"beat":161.0,"padIndex":1,"midi":34,"velocity":73},{"beat":161.0,"padIndex":3,"midi":46,"velocity":69},{"beat":161.75,"padIndex":1,"midi":34,"velocity":65},{"beat":162.0,"padIndex":0,"midi":36,"velocity":92},{"beat":162.0,"padIndex":3,"midi":46,"velocity":71},{"beat":162.25,"padIndex":1,"midi":34,"velocity":55},{"beat":162.5,"padIndex":0,"midi":36,"velocity":90},{"beat":163.0,"padIndex":1,"midi":34,"velocity":75},{"beat":163.0,"padIndex":3,"midi":46,"velocity":72},{"beat":163.75,"padIndex":1,"midi":34,"velocity":70},{"beat":164.0,"padIndex":0,"midi":36,"velocity":91},{"beat":164.0,"padIndex":3,"midi":46,"velocity":77},{"beat":164.0,"padIndex":12,"midi":49,"velocity":50},{"beat":164.5,"padIndex":1,"midi":34,"velocity":75},{"beat":164.75,"padIndex":1,"midi":34,"velocity":69},{"beat":165.0,"padIndex":0,"midi":36,"velocity":92},{"beat":165.0,"padIndex":1,"midi":34,"velocity":75},{"beat":165.25,"padIndex":1,"midi":34,"velocity":70},{"beat":165.75,"padIndex":1,"midi":34,"velocity":67},{"beat":166.0,"padIndex":0,"midi":36,"velocity":88},{"beat":166.0,"padIndex":1,"midi":34,"velocity":69},{"beat":166.25,"padIndex":1,"midi":34,"velocity":77},{"beat":167.0,"padIndex":0,"midi":36,"velocity":89},{"beat":168.0,"padIndex":0,"midi":36,"velocity":91},{"beat":168.0,"padIndex":12,"midi":57,"velocity":65},{"beat":168.0,"padIndex":12,"midi":49,"velocity":45},{"beat":169.0,"padIndex":1,"midi":34,"velocity":73},{"beat":169.0,"padIndex":2,"midi":42,"velocity":72},{"beat":170.0,"padIndex":2,"midi":42,"velocity":82},{"beat":170.5,"padIndex":0,"midi":36,"velocity":91},{"beat":171.0,"padIndex":1,"midi":34,"velocity":75},{"beat":171.0,"padIndex":2,"midi":42,"velocity":71},{"beat":171.5,"padIndex":0,"midi":36,"velocity":87},{"beat":172.0,"padIndex":0,"midi":36,"velocity":90},{"beat":172.0,"padIndex":2,"midi":42,"velocity":72},{"beat":173.0,"padIndex":1,"midi":34,"velocity":73},{"beat":173.0,"padIndex":2,"midi":42,"velocity":71},{"beat":174.0,"padIndex":2,"midi":42,"velocity":82},{"beat":174.5,"padIndex":0,"midi":36,"velocity":90},{"beat":174.5,"padIndex":2,"midi":42,"velocity":52},{"beat":175.0,"padIndex":1,"midi":34,"velocity":75},{"beat":175.0,"padIndex":2,"midi":42,"velocity":73},{"beat":175.5,"padIndex":0,"midi":36,"velocity":86},{"beat":176.0,"padIndex":0,"midi":36,"velocity":91},{"beat":176.0,"padIndex":2,"midi":42,"velocity":70},{"beat":177.0,"padIndex":1,"midi":34,"velocity":73},{"beat":177.0,"padIndex":2,"midi":42,"velocity":73},{"beat":178.0,"padIndex":2,"midi":42,"velocity":82},{"beat":178.5,"padIndex":0,"midi":36,"velocity":89},{"beat":179.0,"padIndex":1,"midi":34,"velocity":75},{"beat":179.0,"padIndex":2,"midi":42,"velocity":72},{"beat":179.5,"padIndex":0,"midi":36,"velocity":90},{"beat":180.0,"padIndex":0,"midi":36,"velocity":87},{"beat":180.0,"padIndex":2,"midi":42,"velocity":75},{"beat":181.0,"padIndex":1,"midi":34,"velocity":73},{"beat":181.0,"padIndex":2,"midi":42,"velocity":73},{"beat":181.75,"padIndex":1,"midi":34,"velocity":45},{"beat":182.0,"padIndex":2,"midi":42,"velocity":82},{"beat":182.5,"padIndex":0,"midi":36,"velocity":87},{"beat":182.5,"padIndex":3,"midi":46,"velocity":75},{"beat":183.0,"padIndex":1,"midi":34,"velocity":75},{"beat":183.0,"padIndex":2,"midi":42,"velocity":74},{"beat":183.5,"padIndex":0,"midi":36,"velocity":87},{"beat":183.5,"padIndex":2,"midi":42,"velocity":62},{"beat":184.0,"padIndex":0,"midi":36,"velocity":90},{"beat":184.0,"padIndex":12,"midi":49,"velocity":59},{"beat":184.0,"padIndex":12,"midi":57,"velocity":55},{"beat":185.0,"padIndex":1,"midi":34,"velocity":73},{"beat":185.0,"padIndex":2,"midi":42,"velocity":75},{"beat":186.0,"padIndex":2,"midi":42,"velocity":75},{"beat":186.5,"padIndex":0,"midi":36,"velocity":88},{"beat":187.0,"padIndex":1,"midi":34,"velocity":75},{"beat":187.0,"padIndex":2,"midi":42,"velocity":69},{"beat":187.5,"padIndex":0,"midi":36,"velocity":90},{"beat":188.0,"padIndex":0,"midi":36,"velocity":88},{"beat":188.0,"padIndex":2,"midi":42,"velocity":70},{"beat":189.0,"padIndex":1,"midi":34,"velocity":73},{"beat":189.0,"padIndex":2,"midi":42,"velocity":69},{"beat":190.0,"padIndex":2,"midi":42,"velocity":82},{"beat":190.5,"padIndex":0,"midi":36,"velocity":88},{"beat":191.0,"padIndex":1,"midi":34,"velocity":75},{"beat":191.0,"padIndex":2,"midi":42,"velocity":72},{"beat":191.5,"padIndex":0,"midi":36,"velocity":90},{"beat":192.0,"padIndex":0,"midi":36,"velocity":91},{"beat":192.0,"padIndex":2,"midi":42,"velocity":70},{"beat":193.0,"padIndex":1,"midi":34,"velocity":73},{"beat":193.0,"padIndex":2,"midi":42,"velocity":69},{"beat":194.0,"padIndex":2,"midi":42,"velocity":82},{"beat":194.5,"padIndex":0,"midi":36,"velocity":87},{"beat":195.0,"padIndex":1,"midi":34,"velocity":75},{"beat":195.0,"padIndex":2,"midi":42,"velocity":73},{"beat":195.5,"padIndex":0,"midi":36,"velocity":90},{"beat":196.0,"padIndex":0,"midi":36,"velocity":91},{"beat":196.0,"padIndex":2,"midi":42,"velocity":77},{"beat":196.5,"padIndex":1,"midi":34,"velocity":73},{"beat":197.0,"padIndex":0,"midi":36,"velocity":87},{"beat":197.0,"padIndex":2,"midi":42,"velocity":69},{"beat":197.5,"padIndex":0,"midi":36,"velocity":88},{"beat":198.0,"padIndex":1,"midi":34,"velocity":73},{"beat":198.0,"padIndex":2,"midi":42,"velocity":70},{"beat":198.5,"padIndex":0,"midi":36,"velocity":89},{"beat":199.0,"padIndex":0,"midi":36,"velocity":88},{"beat":199.0,"padIndex":1,"midi":34,"velocity":75},{"beat":199.0,"padIndex":3,"midi":46,"velocity":75},{"beat":199.5,"padIndex":1,"midi":34,"velocity":68},{"beat":199.75,"padIndex":1,"midi":34,"velocity":75},{"beat":200.0,"padIndex":0,"midi":36,"velocity":87},{"beat":200.0,"padIndex":12,"midi":57,"velocity":59},{"beat":200.0,"padIndex":12,"midi":49,"velocity":59},{"beat":201.0,"padIndex":1,"midi":34,"velocity":73},{"beat":201.0,"padIndex":2,"midi":42,"velocity":73},{"beat":202.0,"padIndex":2,"midi":42,"velocity":82},{"beat":202.25,"padIndex":1,"midi":34,"velocity":55},{"beat":202.5,"padIndex":0,"midi":36,"velocity":91},{"beat":203.0,"padIndex":1,"midi":34,"velocity":75},{"beat":203.0,"padIndex":2,"midi":42,"velocity":69},{"beat":203.5,"padIndex":0,"midi":36,"velocity":90},{"beat":204.0,"padIndex":0,"midi":36,"velocity":91},{"beat":204.0,"padIndex":2,"midi":42,"velocity":69},{"beat":205.0,"padIndex":1,"midi":34,"velocity":73},{"beat":205.0,"padIndex":2,"midi":42,"velocity":72},{"beat":206.0,"padIndex":2,"midi":42,"velocity":82},{"beat":206.25,"padIndex":1,"midi":34,"velocity":55},{"beat":206.5,"padIndex":0,"midi":36,"velocity":87},{"beat":206.5,"padIndex":3,"midi":46,"velocity":62},{"beat":207.0,"padIndex":1,"midi":34,"velocity":75},{"beat":207.0,"padIndex":2,"midi":42,"velocity":75},{"beat":207.5,"padIndex":0,"midi":36,"velocity":87},{"beat":208.0,"padIndex":0,"midi":36,"velocity":88},{"beat":208.0,"padIndex":2,"midi":42,"velocity":71},{"beat":208.25,"padIndex":1,"midi":34,"velocity":45},{"beat":209.0,"padIndex":1,"midi":34,"velocity":73},{"beat":209.0,"padIndex":2,"midi":42,"velocity":70},{"beat":210.0,"padIndex":2,"midi":42,"velocity":73},{"beat":210.25,"padIndex":1,"midi":34,"velocity":55},{"beat":210.5,"padIndex":0,"midi":36,"velocity":92},{"beat":211.0,"padIndex":1,"midi":34,"velocity":75},{"beat":211.0,"padIndex":2,"midi":42,"velocity":75},{"beat":211.5,"padIndex":0,"midi":36,"velocity":87},{"beat":211.75,"padIndex":1,"midi":34,"velocity":45},{"beat":212.0,"padIndex":0,"midi":36,"velocity":89},{"beat":212.0,"padIndex":2,"midi":42,"velocity":72},{"beat":213.0,"padIndex":1,"midi":34,"velocity":73},{"beat":213.0,"padIndex":2,"midi":42,"velocity":75},{"beat":213.5,"padIndex":0,"midi":36,"velocity":89},{"beat":213.5,"padIndex":3,"midi":46,"velocity":70},{"beat":214.0,"padIndex":2,"midi":42,"velocity":73},{"beat":214.25,"padIndex":1,"midi":34,"velocity":55},{"beat":214.5,"padIndex":0,"midi":36,"velocity":92},{"beat":215.0,"padIndex":1,"midi":34,"velocity":75},{"beat":215.0,"padIndex":2,"midi":42,"velocity":74},{"beat":215.5,"padIndex":0,"midi":36,"velocity":92},{"beat":216.0,"padIndex":0,"midi":36,"velocity":87},{"beat":216.0,"padIndex":12,"midi":57,"velocity":59},{"beat":216.0,"padIndex":12,"midi":49,"velocity":59},{"beat":217.0,"padIndex":1,"midi":34,"velocity":73},{"beat":217.0,"padIndex":2,"midi":42,"velocity":70},{"beat":218.0,"padIndex":2,"midi":42,"velocity":82},{"beat":218.25,"padIndex":1,"midi":34,"velocity":55},{"beat":218.5,"padIndex":0,"midi":36,"velocity":91},{"beat":219.0,"padIndex":1,"midi":34,"velocity":75},{"beat":219.0,"padIndex":2,"midi":42,"velocity":70},{"beat":219.5,"padIndex":0,"midi":36,"velocity":92},{"beat":220.0,"padIndex":0,"midi":36,"velocity":90},{"beat":220.0,"padIndex":2,"midi":42,"velocity":70},{"beat":221.0,"padIndex":1,"midi":34,"velocity":73},{"beat":221.0,"padIndex":2,"midi":42,"velocity":74},{"beat":222.0,"padIndex":2,"midi":42,"velocity":82},{"beat":222.25,"padIndex":1,"midi":34,"velocity":55},{"beat":222.5,"padIndex":0,"midi":36,"velocity":90},{"beat":223.0,"padIndex":1,"midi":34,"velocity":75},{"beat":223.0,"padIndex":2,"midi":42,"velocity":74},{"beat":223.5,"padIndex":0,"midi":36,"velocity":90},{"beat":223.75,"padIndex":1,"midi":34,"velocity":55},{"beat":224.0,"padIndex":0,"midi":36,"velocity":87},{"beat":224.0,"padIndex":2,"midi":42,"velocity":72},{"beat":224.25,"padIndex":1,"midi":34,"velocity":55},{"beat":224.5,"padIndex":0,"midi":36,"velocity":90},{"beat":225.0,"padIndex":1,"midi":34,"velocity":73},{"beat":225.0,"padIndex":3,"midi":46,"velocity":71},{"beat":225.75,"padIndex":1,"midi":34,"velocity":69},{"beat":226.0,"padIndex":0,"midi":36,"velocity":89},{"beat":226.0,"padIndex":1,"midi":34,"velocity":69},{"beat":226.0,"padIndex":3,"midi":46,"velocity":77},{"beat":226.25,"padIndex":1,"midi":34,"velocity":75},{"beat":226.5,"padIndex":1,"midi":34,"velocity":68},{"beat":226.75,"padIndex":1,"midi":34,"velocity":68},{"beat":227.0,"padIndex":0,"midi":36,"velocity":89},{"beat":227.0,"padIndex":1,"midi":34,"velocity":75},{"beat":227.25,"padIndex":1,"midi":34,"velocity":68},{"beat":227.5,"padIndex":1,"midi":34,"velocity":75},{"beat":227.75,"padIndex":1,"midi":34,"velocity":75},{"beat":230.0,"padIndex":2,"midi":44,"velocity":62},{"beat":230.5,"padIndex":0,"midi":36,"velocity":92},{"beat":230.75,"padIndex":0,"midi":36,"velocity":86},{"beat":231.0,"padIndex":1,"midi":34,"velocity":67},{"beat":231.0,"padIndex":12,"midi":57,"velocity":45},{"beat":231.0,"padIndex":12,"midi":49,"velocity":45},{"beat":232.0,"padIndex":0,"midi":36,"velocity":86},{"beat":232.0,"padIndex":12,"midi":57,"velocity":59},{"beat":232.0,"padIndex":12,"midi":49,"velocity":59},{"beat":233.0,"padIndex":1,"midi":34,"velocity":73},{"beat":233.0,"padIndex":3,"midi":46,"velocity":69},{"beat":233.75,"padIndex":1,"midi":34,"velocity":50},{"beat":234.0,"padIndex":0,"midi":36,"velocity":86},{"beat":234.0,"padIndex":3,"midi":46,"velocity":71},{"beat":234.25,"padIndex":1,"midi":34,"velocity":50},{"beat":234.5,"padIndex":0,"midi":36,"velocity":92},{"beat":235.0,"padIndex":1,"midi":34,"velocity":75},{"beat":235.0,"padIndex":3,"midi":46,"velocity":70},{"beat":235.75,"padIndex":1,"midi":34,"velocity":45},{"beat":236.0,"padIndex":0,"midi":36,"velocity":90},{"beat":236.0,"padIndex":3,"midi":46,"velocity":72},{"beat":237.0,"padIndex":1,"midi":34,"velocity":73},{"beat":237.0,"padIndex":3,"midi":46,"velocity":71},{"beat":238.0,"padIndex":0,"midi":36,"velocity":89},{"beat":238.0,"padIndex":3,"midi":46,"velocity":69},{"beat":238.5,"padIndex":0,"midi":36,"velocity":90},{"beat":239.0,"padIndex":1,"midi":34,"velocity":75},{"beat":239.0,"padIndex":3,"midi":46,"velocity":69},{"beat":240.0,"padIndex":0,"midi":36,"velocity":88},{"beat":240.0,"padIndex":3,"midi":46,"velocity":70},{"beat":241.0,"padIndex":1,"midi":34,"velocity":73},{"beat":241.0,"padIndex":3,"midi":46,"velocity":71},{"beat":241.75,"padIndex":1,"midi":34,"velocity":45},{"beat":242.0,"padIndex":0,"midi":36,"velocity":89},{"beat":242.0,"padIndex":3,"midi":46,"velocity":70},{"beat":242.5,"padIndex":0,"midi":36,"velocity":91},{"beat":243.0,"padIndex":1,"midi":34,"velocity":75},{"beat":243.0,"padIndex":3,"midi":46,"velocity":72},{"beat":243.75,"padIndex":1,"midi":34,"velocity":50},{"beat":244.0,"padIndex":0,"midi":36,"velocity":88},{"beat":244.0,"padIndex":3,"midi":46,"velocity":73},{"beat":245.0,"padIndex":1,"midi":34,"velocity":73},{"beat":245.0,"padIndex":3,"midi":46,"velocity":69},{"beat":245.75,"padIndex":1,"midi":34,"velocity":45},{"beat":246.0,"padIndex":0,"midi":36,"velocity":92},{"beat":246.0,"padIndex":3,"midi":46,"velocity":69},{"beat":246.5,"padIndex":0,"midi":36,"velocity":89},{"beat":247.0,"padIndex":1,"midi":34,"velocity":75},{"beat":247.0,"padIndex":3,"midi":46,"velocity":71},{"beat":247.5,"padIndex":0,"midi":36,"velocity":90},{"beat":248.0,"padIndex":0,"midi":36,"velocity":91},{"beat":248.0,"padIndex":12,"midi":57,"velocity":59},{"beat":248.0,"padIndex":12,"midi":49,"velocity":55},{"beat":249.0,"padIndex":1,"midi":34,"velocity":73},{"beat":249.0,"padIndex":3,"midi":46,"velocity":70},{"beat":249.75,"padIndex":1,"midi":34,"velocity":50},{"beat":250.0,"padIndex":0,"midi":36,"velocity":92},{"beat":250.0,"padIndex":3,"midi":46,"velocity":72},{"beat":250.5,"padIndex":0,"midi":36,"velocity":89},{"beat":251.0,"padIndex":1,"midi":34,"velocity":75},{"beat":251.0,"padIndex":3,"midi":46,"velocity":73},{"beat":251.75,"padIndex":1,"midi":34,"velocity":45},{"beat":252.0,"padIndex":0,"midi":36,"velocity":91},{"beat":252.0,"padIndex":3,"midi":46,"velocity":72},{"beat":253.0,"padIndex":1,"midi":34,"velocity":73},{"beat":253.0,"padIndex":3,"midi":46,"velocity":73},{"beat":253.75,"padIndex":1,"midi":34,"velocity":55},{"beat":254.0,"padIndex":0,"midi":36,"velocity":86},{"beat":254.0,"padIndex":3,"midi":46,"velocity":69},{"beat":254.5,"padIndex":0,"midi":36,"velocity":90},{"beat":255.0,"padIndex":1,"midi":34,"velocity":75},{"beat":255.0,"padIndex":3,"midi":46,"velocity":74},{"beat":255.75,"padIndex":1,"midi":34,"velocity":50},{"beat":256.0,"padIndex":0,"midi":36,"velocity":90},{"beat":256.0,"padIndex":3,"midi":46,"velocity":70},{"beat":257.0,"padIndex":1,"midi":34,"velocity":73},{"beat":257.0,"padIndex":3,"midi":46,"velocity":69},{"beat":257.75,"padIndex":1,"midi":34,"velocity":59},{"beat":258.0,"padIndex":0,"midi":36,"velocity":86},{"beat":258.0,"padIndex":3,"midi":46,"velocity":73},{"beat":258.25,"padIndex":1,"midi":34,"velocity":55},{"beat":258.5,"padIndex":0,"midi":36,"velocity":91},{"beat":259.0,"padIndex":1,"midi":34,"velocity":75},{"beat":259.0,"padIndex":3,"midi":46,"velocity":69},{"beat":259.75,"padIndex":1,"midi":34,"velocity":60},{"beat":260.0,"padIndex":0,"midi":36,"velocity":92},{"beat":260.0,"padIndex":3,"midi":46,"velocity":69},{"beat":260.5,"padIndex":0,"midi":36,"velocity":89},{"beat":261.0,"padIndex":1,"midi":34,"velocity":73},{"beat":261.0,"padIndex":3,"midi":46,"velocity":69},{"beat":261.75,"padIndex":1,"midi":34,"velocity":70},{"beat":262.0,"padIndex":0,"midi":36,"velocity":88},{"beat":262.0,"padIndex":1,"midi":34,"velocity":75},{"beat":262.0,"padIndex":3,"midi":46,"velocity":74},{"beat":262.25,"padIndex":1,"midi":34,"velocity":70},{"beat":262.5,"padIndex":1,"midi":34,"velocity":75},{"beat":262.75,"padIndex":1,"midi":34,"velocity":69},{"beat":263.0,"padIndex":0,"midi":36,"velocity":89},{"beat":263.0,"padIndex":1,"midi":34,"velocity":75},{"beat":263.25,"padIndex":1,"midi":34,"velocity":70},{"beat":263.5,"padIndex":1,"midi":34,"velocity":75},{"beat":263.75,"padIndex":1,"midi":34,"velocity":70},{"beat":264.0,"padIndex":0,"midi":36,"velocity":92},{"beat":264.0,"padIndex":12,"midi":57,"velocity":59},{"beat":264.0,"padIndex":12,"midi":49,"velocity":59},{"beat":265.0,"padIndex":1,"midi":34,"velocity":73},{"beat":265.0,"padIndex":3,"midi":46,"velocity":69},{"beat":265.75,"padIndex":1,"midi":34,"velocity":55},{"beat":266.0,"padIndex":0,"midi":36,"velocity":87},{"beat":266.0,"padIndex":3,"midi":46,"velocity":73},{"beat":266.25,"padIndex":1,"midi":34,"velocity":45},{"beat":266.5,"padIndex":0,"midi":36,"velocity":87},{"beat":267.0,"padIndex":1,"midi":34,"velocity":75},{"beat":267.0,"padIndex":3,"midi":46,"velocity":69},{"beat":267.75,"padIndex":1,"midi":34,"velocity":45},{"beat":268.0,"padIndex":0,"midi":36,"velocity":90},{"beat":268.0,"padIndex":3,"midi":46,"velocity":69},{"beat":269.0,"padIndex":1,"midi":34,"velocity":73},{"beat":269.0,"padIndex":3,"midi":46,"velocity":73},{"beat":269.75,"padIndex":1,"midi":34,"velocity":55},{"beat":270.0,"padIndex":0,"midi":36,"velocity":88},{"beat":270.0,"padIndex":3,"midi":46,"velocity":70},{"beat":270.5,"padIndex":0,"midi":36,"velocity":92},{"beat":271.0,"padIndex":1,"midi":34,"velocity":75},{"beat":271.0,"padIndex":3,"midi":46,"velocity":72},{"beat":271.75,"padIndex":1,"midi":34,"velocity":55},{"beat":272.0,"padIndex":0,"midi":36,"velocity":88},{"beat":272.0,"padIndex":3,"midi":46,"velocity":69},{"beat":273.0,"padIndex":1,"midi":34,"velocity":73},{"beat":273.0,"padIndex":3,"midi":46,"velocity":71},{"beat":273.75,"padIndex":1,"midi":34,"velocity":55},{"beat":274.0,"padIndex":0,"midi":36,"velocity":87},{"beat":274.0,"padIndex":3,"midi":46,"velocity":71},{"beat":274.5,"padIndex":0,"midi":36,"velocity":87},{"beat":275.0,"padIndex":1,"midi":34,"velocity":75},{"beat":275.0,"padIndex":3,"midi":46,"velocity":69},{"beat":276.0,"padIndex":0,"midi":36,"velocity":92},{"beat":276.0,"padIndex":3,"midi":46,"velocity":69},{"beat":277.0,"padIndex":1,"midi":34,"velocity":73},{"beat":277.0,"padIndex":3,"midi":46,"velocity":71},{"beat":277.75,"padIndex":1,"midi":34,"velocity":45},{"beat":278.0,"padIndex":0,"midi":36,"velocity":88},{"beat":278.0,"padIndex":3,"midi":46,"velocity":74},{"beat":278.5,"padIndex":0,"midi":36,"velocity":87},{"beat":279.0,"padIndex":1,"midi":34,"velocity":75},{"beat":279.0,"padIndex":3,"midi":46,"velocity":70},{"beat":280.0,"padIndex":0,"midi":36,"velocity":89},{"beat":280.0,"padIndex":12,"midi":49,"velocity":59},{"beat":280.0,"padIndex":12,"midi":57,"velocity":55},{"beat":281.0,"padIndex":1,"midi":34,"velocity":73},{"beat":281.0,"padIndex":3,"midi":46,"velocity":69},{"beat":281.5,"padIndex":1,"midi":34,"velocity":45},{"beat":281.75,"padIndex":1,"midi":34,"velocity":50},{"beat":282.0,"padIndex":0,"midi":36,"velocity":92},{"beat":282.0,"padIndex":3,"midi":46,"velocity":69},{"beat":282.5,"padIndex":0,"midi":36,"velocity":87},{"beat":283.0,"padIndex":1,"midi":34,"velocity":75},{"beat":283.0,"padIndex":3,"midi":46,"velocity":73},{"beat":284.0,"padIndex":0,"midi":36,"velocity":88},{"beat":284.0,"padIndex":3,"midi":46,"velocity":73},{"beat":284.0,"padIndex":12,"midi":57,"velocity":53},{"beat":285.0,"padIndex":1,"midi":34,"velocity":73},{"beat":285.0,"padIndex":3,"midi":46,"velocity":72},{"beat":285.75,"padIndex":1,"midi":34,"velocity":65},{"beat":286.0,"padIndex":0,"midi":36,"velocity":89},{"beat":286.0,"padIndex":3,"midi":46,"velocity":71},{"beat":286.5,"padIndex":0,"midi":36,"velocity":88},{"beat":287.0,"padIndex":1,"midi":34,"velocity":75},{"beat":287.0,"padIndex":3,"midi":46,"velocity":73},{"beat":287.75,"padIndex":1,"midi":34,"velocity":45},{"beat":288.0,"padIndex":0,"midi":36,"velocity":88},{"beat":288.0,"padIndex":12,"midi":57,"velocity":59},{"beat":288.0,"padIndex":12,"midi":49,"velocity":59},{"beat":289.0,"padIndex":1,"midi":34,"velocity":73},{"beat":289.0,"padIndex":3,"midi":46,"velocity":69},{"beat":289.75,"padIndex":1,"midi":34,"velocity":63},{"beat":290.0,"padIndex":0,"midi":36,"velocity":90},{"beat":290.0,"padIndex":3,"midi":46,"velocity":71},{"beat":290.5,"padIndex":0,"midi":36,"velocity":88},{"beat":291.0,"padIndex":1,"midi":34,"velocity":75},{"beat":291.0,"padIndex":3,"midi":46,"velocity":72},{"beat":291.75,"padIndex":1,"midi":34,"velocity":60},{"beat":292.0,"padIndex":0,"midi":36,"velocity":88},{"beat":292.0,"padIndex":3,"midi":46,"velocity":72},{"beat":292.0,"padIndex":12,"midi":49,"velocity":50},{"beat":292.75,"padIndex":1,"midi":34,"velocity":69},{"beat":293.0,"padIndex":0,"midi":36,"velocity":89},{"beat":293.0,"padIndex":1,"midi":34,"velocity":75},{"beat":293.25,"padIndex":1,"midi":34,"velocity":70},{"beat":294.0,"padIndex":0,"midi":36,"velocity":90},{"beat":295.0,"padIndex":0,"midi":36,"velocity":89},{"beat":296.0,"padIndex":0,"midi":36,"velocity":90},{"beat":296.0,"padIndex":12,"midi":57,"velocity":59},{"beat":296.0,"padIndex":12,"midi":49,"velocity":45},{"beat":296.5,"padIndex":2,"midi":42,"velocity":74},{"beat":297.0,"padIndex":0,"midi":36,"velocity":88},{"beat":297.0,"padIndex":2,"midi":42,"velocity":71},{"beat":297.5,"padIndex":2,"midi":42,"velocity":69},{"beat":298.0,"padIndex":0,"midi":36,"velocity":86},{"beat":298.0,"padIndex":2,"midi":42,"velocity":69},{"beat":298.5,"padIndex":3,"midi":46,"velocity":62},{"beat":299.0,"padIndex":0,"midi":36,"velocity":89},{"beat":299.0,"padIndex":2,"midi":42,"velocity":75},{"beat":299.5,"padIndex":2,"midi":42,"velocity":82},{"beat":300.0,"padIndex":0,"midi":36,"velocity":91},{"beat":300.0,"padIndex":2,"midi":42,"velocity":73},{"beat":300.5,"padIndex":2,"midi":42,"velocity":71},{"beat":301.0,"padIndex":0,"midi":36,"velocity":90},{"beat":301.0,"padIndex":2,"midi":42,"velocity":75},{"beat":301.5,"padIndex":2,"midi":42,"velocity":75},{"beat":302.0,"padIndex":0,"midi":36,"velocity":86},{"beat":302.0,"padIndex":2,"midi":42,"velocity":75},{"beat":302.5,"padIndex":3,"midi":46,"velocity":72},{"beat":303.0,"padIndex":0,"midi":36,"velocity":92},{"beat":303.0,"padIndex":2,"midi":42,"velocity":75},{"beat":303.5,"padIndex":2,"midi":42,"velocity":69},{"beat":304.0,"padIndex":0,"midi":36,"velocity":90},{"beat":304.0,"padIndex":2,"midi":42,"velocity":70},{"beat":304.5,"padIndex":2,"midi":42,"velocity":69},{"beat":305.0,"padIndex":0,"midi":36,"velocity":89},{"beat":305.0,"padIndex":2,"midi":42,"velocity":71},{"beat":305.5,"padIndex":2,"midi":42,"velocity":70},{"beat":306.0,"padIndex":0,"midi":36,"velocity":89},{"beat":306.0,"padIndex":2,"midi":42,"velocity":70},{"beat":306.5,"padIndex":3,"midi":46,"velocity":75},{"beat":307.0,"padIndex":0,"midi":36,"velocity":88},{"beat":307.0,"padIndex":2,"midi":42,"velocity":75},{"beat":307.5,"padIndex":2,"midi":42,"velocity":74},{"beat":308.0,"padIndex":0,"midi":36,"velocity":86},{"beat":308.0,"padIndex":2,"midi":42,"velocity":73},{"beat":308.5,"padIndex":2,"midi":42,"velocity":71},{"beat":309.0,"padIndex":0,"midi":36,"velocity":89},{"beat":309.0,"padIndex":2,"midi":42,"velocity":75},{"beat":309.5,"padIndex":2,"midi":42,"velocity":69},{"beat":310.0,"padIndex":0,"midi":36,"velocity":91},{"beat":310.0,"padIndex":2,"midi":42,"velocity":69},{"beat":310.5,"padIndex":3,"midi":46,"velocity":71},{"beat":311.0,"padIndex":0,"midi":36,"velocity":88},{"beat":311.0,"padIndex":2,"midi":42,"velocity":73},{"beat":311.5,"padIndex":2,"midi":42,"velocity":69},{"beat":312.0,"padIndex":0,"midi":36,"velocity":87},{"beat":312.0,"padIndex":2,"midi":42,"velocity":70},{"beat":312.5,"padIndex":2,"midi":42,"velocity":75},{"beat":313.0,"padIndex":0,"midi":36,"velocity":91},{"beat":313.0,"padIndex":2,"midi":42,"velocity":74},{"beat":313.5,"padIndex":2,"midi":42,"velocity":71},{"beat":314.0,"padIndex":0,"midi":36,"velocity":88},{"beat":314.0,"padIndex":2,"midi":42,"velocity":71},{"beat":314.5,"padIndex":3,"midi":46,"velocity":70},{"beat":315.0,"padIndex":0,"midi":36,"velocity":92},{"beat":315.0,"padIndex":2,"midi":42,"velocity":75},{"beat":315.5,"padIndex":2,"midi":42,"velocity":74},{"beat":316.0,"padIndex":0,"midi":36,"velocity":86},{"beat":316.0,"padIndex":2,"midi":42,"velocity":72},{"beat":316.5,"padIndex":2,"midi":42,"velocity":71},{"beat":317.0,"padIndex":0,"midi":36,"velocity":89},{"beat":317.0,"padIndex":2,"midi":42,"velocity":74},{"beat":317.5,"padIndex":2,"midi":42,"velocity":69},{"beat":318.0,"padIndex":0,"midi":36,"velocity":86},{"beat":318.0,"padIndex":2,"midi":42,"velocity":72},{"beat":318.5,"padIndex":3,"midi":46,"velocity":75},{"beat":319.0,"padIndex":0,"midi":36,"velocity":87},{"beat":319.0,"padIndex":2,"midi":42,"velocity":72},{"beat":319.5,"padIndex":2,"midi":42,"velocity":69},{"beat":320.0,"padIndex":0,"midi":36,"velocity":91},{"beat":320.0,"padIndex":2,"midi":42,"velocity":73},{"beat":320.5,"padIndex":2,"midi":42,"velocity":69},{"beat":321.0,"padIndex":0,"midi":36,"velocity":87},{"beat":321.0,"padIndex":2,"midi":42,"velocity":74},{"beat":321.5,"padIndex":2,"midi":42,"velocity":69},{"beat":322.0,"padIndex":0,"midi":36,"velocity":90},{"beat":322.0,"padIndex":2,"midi":42,"velocity":72},{"beat":322.5,"padIndex":3,"midi":46,"velocity":74},{"beat":323.0,"padIndex":0,"midi":36,"velocity":86},{"beat":323.0,"padIndex":2,"midi":42,"velocity":70},{"beat":323.5,"padIndex":2,"midi":42,"velocity":74},{"beat":324.0,"padIndex":0,"midi":36,"velocity":88},{"beat":324.0,"padIndex":2,"midi":42,"velocity":74},{"beat":324.5,"padIndex":2,"midi":42,"velocity":73},{"beat":325.0,"padIndex":0,"midi":36,"velocity":90},{"beat":325.0,"padIndex":2,"midi":42,"velocity":69},{"beat":325.5,"padIndex":2,"midi":42,"velocity":74},{"beat":326.0,"padIndex":0,"midi":36,"velocity":86},{"beat":326.0,"padIndex":2,"midi":42,"velocity":74},{"beat":326.5,"padIndex":0,"midi":36,"velocity":90},{"beat":326.5,"padIndex":3,"midi":46,"velocity":73},{"beat":327.0,"padIndex":1,"midi":34,"velocity":50},{"beat":327.0,"padIndex":2,"midi":42,"velocity":69},{"beat":327.04167,"padIndex":1,"midi":34,"velocity":75},{"beat":327.5,"padIndex":0,"midi":36,"velocity":89},{"beat":327.5,"padIndex":2,"midi":42,"velocity":73},{"beat":328.0,"padIndex":0,"midi":36,"velocity":91},{"beat":328.0,"padIndex":12,"midi":57,"velocity":59},{"beat":328.0,"padIndex":12,"midi":49,"velocity":59},{"beat":328.5,"padIndex":2,"midi":42,"velocity":56},{"beat":329.0,"padIndex":1,"midi":34,"velocity":73},{"beat":329.0,"padIndex":2,"midi":42,"velocity":71},{"beat":329.5,"padIndex":2,"midi":42,"velocity":55},{"beat":330.0,"padIndex":2,"midi":42,"velocity":82},{"beat":330.5,"padIndex":0,"midi":36,"velocity":86},{"beat":330.5,"padIndex":2,"midi":42,"velocity":60},{"beat":331.0,"padIndex":1,"midi":34,"velocity":75},{"beat":331.0,"padIndex":2,"midi":42,"velocity":73},{"beat":331.5,"padIndex":0,"midi":36,"velocity":86},{"beat":331.5,"padIndex":2,"midi":42,"velocity":58},{"beat":332.0,"padIndex":0,"midi":36,"velocity":86},{"beat":332.0,"padIndex":2,"midi":42,"velocity":82},{"beat":332.5,"padIndex":2,"midi":42,"velocity":59},{"beat":333.0,"padIndex":1,"midi":34,"velocity":73},{"beat":333.0,"padIndex":2,"midi":42,"velocity":69},{"beat":333.5,"padIndex":2,"midi":42,"velocity":55},{"beat":334.0,"padIndex":2,"midi":42,"velocity":82},{"beat":334.5,"padIndex":0,"midi":36,"velocity":92},{"beat":334.5,"padIndex":3,"midi":46,"velocity":57},{"beat":335.0,"padIndex":1,"midi":34,"velocity":75},{"beat":335.0,"padIndex":2,"midi":42,"velocity":71},{"beat":335.5,"padIndex":0,"midi":36,"velocity":88},{"beat":335.5,"padIndex":2,"midi":42,"velocity":58},{"beat":336.0,"padIndex":0,"midi":36,"velocity":88},{"beat":336.0,"padIndex":2,"midi":42,"velocity":82},{"beat":336.5,"padIndex":2,"midi":42,"velocity":58},{"beat":337.0,"padIndex":1,"midi":34,"velocity":73},{"beat":337.0,"padIndex":2,"midi":42,"velocity":73},{"beat":337.5,"padIndex":2,"midi":42,"velocity":57},{"beat":338.0,"padIndex":2,"midi":42,"velocity":82},{"beat":338.5,"padIndex":0,"midi":36,"velocity":86},{"beat":338.5,"padIndex":2,"midi":42,"velocity":55},{"beat":339.0,"padIndex":1,"midi":34,"velocity":75},{"beat":339.0,"padIndex":2,"midi":42,"velocity":75},{"beat":339.5,"padIndex":0,"midi":36,"velocity":91},{"beat":339.5,"padIndex":2,"midi":42,"velocity":59},{"beat":340.0,"padIndex":0,"midi":36,"velocity":92},{"beat":340.0,"padIndex":2,"midi":42,"velocity":82},{"beat":340.5,"padIndex":2,"midi":42,"velocity":57},{"beat":341.0,"padIndex":1,"midi":34,"velocity":73},{"beat":341.0,"padIndex":2,"midi":42,"velocity":72},{"beat":341.5,"padIndex":2,"midi":42,"velocity":59},{"beat":341.75,"padIndex":1,"midi":34,"velocity":45},{"beat":342.0,"padIndex":2,"midi":42,"velocity":82},{"beat":342.25,"padIndex":1,"midi":34,"velocity":45},{"beat":342.5,"padIndex":0,"midi":36,"velocity":87},{"beat":342.5,"padIndex":2,"midi":42,"velocity":60},{"beat":343.0,"padIndex":1,"midi":34,"velocity":75},{"beat":343.0,"padIndex":3,"midi":46,"velocity":73},{"beat":343.5,"padIndex":0,"midi":36,"velocity":88},{"beat":343.75,"padIndex":1,"midi":34,"velocity":45},{"beat":344.0,"padIndex":0,"midi":36,"velocity":90},{"beat":344.0,"padIndex":12,"midi":57,"velocity":59},{"beat":344.0,"padIndex":12,"midi":49,"velocity":59},{"beat":344.5,"padIndex":2,"midi":42,"velocity":58},{"beat":345.0,"padIndex":1,"midi":34,"velocity":73},{"beat":345.0,"padIndex":2,"midi":42,"velocity":69},{"beat":345.5,"padIndex":2,"midi":42,"velocity":54},{"beat":345.75,"padIndex":1,"midi":34,"velocity":45},{"beat":346.0,"padIndex":3,"midi":46,"velocity":74},{"beat":346.25,"padIndex":1,"midi":34,"velocity":45},{"beat":346.5,"padIndex":0,"midi":36,"velocity":91},{"beat":346.5,"padIndex":2,"midi":42,"velocity":56},{"beat":347.0,"padIndex":1,"midi":34,"velocity":75},{"beat":347.0,"padIndex":2,"midi":42,"velocity":70},{"beat":347.5,"padIndex":0,"midi":36,"velocity":87},{"beat":347.5,"padIndex":2,"midi":42,"velocity":54},{"beat":347.75,"padIndex":1,"midi":34,"velocity":45},{"beat":348.0,"padIndex":0,"midi":36,"velocity":89},{"beat":348.0,"padIndex":3,"midi":46,"velocity":74},{"beat":348.25,"padIndex":1,"midi":34,"velocity":45},{"beat":349.0,"padIndex":1,"midi":34,"velocity":73},{"beat":349.0,"padIndex":3,"midi":46,"velocity":73},{"beat":349.75,"padIndex":1,"midi":34,"velocity":45},{"beat":350.0,"padIndex":3,"midi":46,"velocity":70},{"beat":350.25,"padIndex":1,"midi":34,"velocity":45},{"beat":350.5,"padIndex":0,"midi":36,"velocity":92},{"beat":351.0,"padIndex":1,"midi":34,"velocity":75},{"beat":351.0,"padIndex":3,"midi":46,"velocity":71},{"beat":351.5,"padIndex":0,"midi":36,"velocity":91},{"beat":352.0,"padIndex":0,"midi":36,"velocity":91},{"beat":352.0,"padIndex":12,"midi":57,"velocity":59},{"beat":352.0,"padIndex":12,"midi":49,"velocity":59},{"beat":352.5,"padIndex":0,"midi":36,"velocity":91},{"beat":353.0,"padIndex":0,"midi":36,"velocity":91},{"beat":353.0,"padIndex":1,"midi":34,"velocity":55},{"beat":353.0,"padIndex":3,"midi":46,"velocity":62},{"beat":353.5,"padIndex":0,"midi":36,"velocity":91},{"beat":353.5,"padIndex":1,"midi":34,"velocity":63},{"beat":353.5,"padIndex":3,"midi":46,"velocity":67},{"beat":354.0,"padIndex":0,"midi":36,"velocity":86},{"beat":354.0,"padIndex":1,"midi":34,"velocity":62},{"beat":354.0,"padIndex":3,"midi":46,"velocity":74},{"beat":354.5,"padIndex":0,"midi":36,"velocity":90},{"beat":354.5,"padIndex":1,"midi":34,"velocity":65},{"beat":354.5,"padIndex":3,"midi":46,"velocity":69},{"beat":355.0,"padIndex":0,"midi":36,"velocity":88},{"beat":355.0,"padIndex":1,"midi":34,"velocity":70},{"beat":355.0,"padIndex":3,"midi":46,"velocity":77},{"beat":355.5,"padIndex":0,"midi":36,"velocity":89},{"beat":355.5,"padIndex":1,"midi":34,"velocity":75},{"beat":355.5,"padIndex":3,"midi":46,"velocity":82},{"beat":356.0,"padIndex":2,"midi":42,"velocity":72},{"beat":358.5,"padIndex":1,"midi":34,"velocity":75},{"beat":359.0,"padIndex":1,"midi":34,"velocity":75},{"beat":359.25,"padIndex":1,"midi":34,"velocity":65},{"beat":359.5,"padIndex":1,"midi":34,"velocity":75},{"beat":359.75,"padIndex":1,"midi":34,"velocity":76},{"beat":360.0,"padIndex":0,"midi":36,"velocity":87},{"beat":360.0,"padIndex":12,"midi":57,"velocity":59},{"beat":360.0,"padIndex":12,"midi":49,"velocity":59},{"beat":361.0,"padIndex":1,"midi":34,"velocity":73},{"beat":361.0,"padIndex":3,"midi":46,"velocity":69},{"beat":361.75,"padIndex":1,"midi":34,"velocity":50},{"beat":362.0,"padIndex":0,"midi":36,"velocity":89},{"beat":362.0,"padIndex":3,"midi":46,"velocity":71},{"beat":362.25,"padIndex":1,"midi":34,"velocity":50},{"beat":362.5,"padIndex":0,"midi":36,"velocity":92},{"beat":363.0,"padIndex":1,"midi":34,"velocity":75},{"beat":363.0,"padIndex":3,"midi":46,"velocity":70},{"beat":363.75,"padIndex":1,"midi":34,"velocity":50},{"beat":364.0,"padIndex":0,"midi":36,"velocity":88},{"beat":364.0,"padIndex":3,"midi":46,"velocity":72},{"beat":365.0,"padIndex":1,"midi":34,"velocity":73},{"beat":365.0,"padIndex":3,"midi":46,"velocity":71},{"beat":365.75,"padIndex":1,"midi":34,"velocity":50},{"beat":366.0,"padIndex":0,"midi":36,"velocity":88},{"beat":366.0,"padIndex":3,"midi":46,"velocity":69},{"beat":366.5,"padIndex":0,"midi":36,"velocity":92},{"beat":367.0,"padIndex":1,"midi":34,"velocity":75},{"beat":367.0,"padIndex":3,"midi":46,"velocity":69},{"beat":367.75,"padIndex":1,"midi":34,"velocity":50},{"beat":368.0,"padIndex":0,"midi":36,"velocity":91},{"beat":368.0,"padIndex":3,"midi":46,"velocity":70},{"beat":369.0,"padIndex":1,"midi":34,"velocity":73},{"beat":369.0,"padIndex":3,"midi":46,"velocity":71},{"beat":369.75,"padIndex":1,"midi":34,"velocity":50},{"beat":370.0,"padIndex":0,"midi":36,"velocity":87},{"beat":370.0,"padIndex":3,"midi":46,"velocity":70},{"beat":370.5,"padIndex":0,"midi":36,"velocity":89},{"beat":371.0,"padIndex":1,"midi":34,"velocity":70},{"beat":371.0,"padIndex":3,"midi":46,"velocity":72},{"beat":372.0,"padIndex":0,"midi":36,"velocity":86},{"beat":372.0,"padIndex":3,"midi":46,"velocity":73},{"beat":373.0,"padIndex":1,"midi":34,"velocity":73},{"beat":373.0,"padIndex":3,"midi":46,"velocity":69},{"beat":373.75,"padIndex":1,"midi":34,"velocity":45},{"beat":374.0,"padIndex":0,"midi":36,"velocity":89},{"beat":374.0,"padIndex":3,"midi":46,"velocity":69},{"beat":374.5,"padIndex":0,"midi":36,"velocity":86},{"beat":375.0,"padIndex":1,"midi":34,"velocity":75},{"beat":375.0,"padIndex":3,"midi":46,"velocity":71},{"beat":375.5,"padIndex":0,"midi":36,"velocity":91},{"beat":376.0,"padIndex":0,"midi":36,"velocity":90},{"beat":376.0,"padIndex":12,"midi":57,"velocity":55},{"beat":376.0,"padIndex":12,"midi":49,"velocity":55},{"beat":377.0,"padIndex":1,"midi":34,"velocity":73},{"beat":377.0,"padIndex":3,"midi":46,"velocity":70},{"beat":377.75,"padIndex":1,"midi":34,"velocity":55},{"beat":378.0,"padIndex":0,"midi":36,"velocity":89},{"beat":378.0,"padIndex":3,"midi":46,"velocity":72},{"beat":378.25,"padIndex":1,"midi":34,"velocity":50},{"beat":378.5,"padIndex":0,"midi":36,"velocity":92},{"beat":379.0,"padIndex":1,"midi":34,"velocity":75},{"beat":379.0,"padIndex":3,"midi":46,"velocity":73},{"beat":379.75,"padIndex":1,"midi":34,"velocity":50},{"beat":380.0,"padIndex":0,"midi":36,"velocity":87},{"beat":380.0,"padIndex":3,"midi":46,"velocity":72},{"beat":381.0,"padIndex":1,"midi":34,"velocity":73},{"beat":381.0,"padIndex":3,"midi":46,"velocity":73},{"beat":381.75,"padIndex":1,"midi":34,"velocity":55},{"beat":382.0,"padIndex":0,"midi":36,"velocity":90},{"beat":382.0,"padIndex":3,"midi":46,"velocity":69},{"beat":382.25,"padIndex":1,"midi":34,"velocity":55},{"beat":382.5,"padIndex":0,"midi":36,"velocity":86},{"beat":383.0,"padIndex":1,"midi":34,"velocity":75},{"beat":383.0,"padIndex":3,"midi":46,"velocity":74},{"beat":384.0,"padIndex":0,"midi":36,"velocity":87},{"beat":384.0,"padIndex":12,"midi":57,"velocity":45},{"beat":384.0,"padIndex":12,"midi":49,"velocity":55},{"beat":385.0,"padIndex":1,"midi":34,"velocity":73},{"beat":385.0,"padIndex":3,"midi":46,"velocity":69},{"beat":385.75,"padIndex":1,"midi":34,"velocity":59},{"beat":386.0,"padIndex":0,"midi":36,"velocity":90},{"beat":386.0,"padIndex":3,"midi":46,"velocity":73},{"beat":386.5,"padIndex":0,"midi":36,"velocity":92},{"beat":387.0,"padIndex":1,"midi":34,"velocity":75},{"beat":387.0,"padIndex":3,"midi":46,"velocity":69},{"beat":387.75,"padIndex":1,"midi":34,"velocity":60},{"beat":388.0,"padIndex":0,"midi":36,"velocity":86},{"beat":388.0,"padIndex":3,"midi":46,"velocity":69},{"beat":389.0,"padIndex":0,"midi":36,"velocity":86},{"beat":389.0,"padIndex":1,"midi":34,"velocity":73},{"beat":389.0,"padIndex":3,"midi":46,"velocity":69},{"beat":389.25,"padIndex":1,"midi":34,"velocity":67},{"beat":389.5,"padIndex":1,"midi":34,"velocity":65},{"beat":389.75,"padIndex":1,"midi":34,"velocity":75},{"beat":390.0,"padIndex":0,"midi":36,"velocity":86},{"beat":390.0,"padIndex":1,"midi":34,"velocity":65},{"beat":390.0,"padIndex":3,"midi":46,"velocity":74},{"beat":390.25,"padIndex":1,"midi":34,"velocity":63},{"beat":390.5,"padIndex":1,"midi":34,"velocity":75},{"beat":391.0,"padIndex":0,"midi":36,"velocity":88},{"beat":391.0,"padIndex":1,"midi":34,"velocity":50},{"beat":391.25,"padIndex":1,"midi":34,"velocity":55},{"beat":391.5,"padIndex":1,"midi":34,"velocity":75},{"beat":391.75,"padIndex":1,"midi":34,"velocity":70},{"beat":392.0,"padIndex":0,"midi":36,"velocity":88},{"beat":392.0,"padIndex":12,"midi":57,"velocity":59},{"beat":392.0,"padIndex":12,"midi":49,"velocity":59},{"beat":393.0,"padIndex":1,"midi":34,"velocity":73},{"beat":393.0,"padIndex":3,"midi":46,"velocity":69},{"beat":393.75,"padIndex":1,"midi":34,"velocity":55},{"beat":394.0,"padIndex":0,"midi":36,"velocity":92},{"beat":394.0,"padIndex":3,"midi":46,"velocity":73},{"beat":394.25,"padIndex":1,"midi":34,"velocity":45},{"beat":394.5,"padIndex":0,"midi":36,"velocity":89},{"beat":395.0,"padIndex":1,"midi":34,"velocity":75},{"beat":395.0,"padIndex":3,"midi":46,"velocity":69},{"beat":395.75,"padIndex":1,"midi":34,"velocity":45},{"beat":396.0,"padIndex":0,"midi":36,"velocity":92},{"beat":396.0,"padIndex":3,"midi":46,"velocity":69},{"beat":397.0,"padIndex":1,"midi":34,"velocity":73},{"beat":397.0,"padIndex":3,"midi":46,"velocity":73},{"beat":397.75,"padIndex":1,"midi":34,"velocity":55},{"beat":398.0,"padIndex":0,"midi":36,"velocity":86},{"beat":398.0,"padIndex":3,"midi":46,"velocity":70},{"beat":398.5,"padIndex":0,"midi":36,"velocity":88},{"beat":399.0,"padIndex":1,"midi":34,"velocity":75},{"beat":399.0,"padIndex":3,"midi":46,"velocity":72},{"beat":399.75,"padIndex":1,"midi":34,"velocity":55},{"beat":400.0,"padIndex":0,"midi":36,"velocity":90},{"beat":400.0,"padIndex":12,"midi":57,"velocity":59},{"beat":400.0,"padIndex":12,"midi":49,"velocity":45},{"beat":401.0,"padIndex":1,"midi":34,"velocity":73},{"beat":401.0,"padIndex":3,"midi":46,"velocity":71},{"beat":401.75,"padIndex":1,"midi":34,"velocity":55},{"beat":402.0,"padIndex":0,"midi":36,"velocity":92},{"beat":402.0,"padIndex":3,"midi":46,"velocity":71},{"beat":402.5,"padIndex":0,"midi":36,"velocity":88},{"beat":403.0,"padIndex":1,"midi":34,"velocity":75},{"beat":403.0,"padIndex":3,"midi":46,"velocity":69},{"beat":403.75,"padIndex":1,"midi":34,"velocity":55},{"beat":404.0,"padIndex":0,"midi":36,"velocity":89},{"beat":404.0,"padIndex":3,"midi":46,"velocity":69},{"beat":405.0,"padIndex":1,"midi":34,"velocity":73},{"beat":405.0,"padIndex":3,"midi":46,"velocity":71},{"beat":405.75,"padIndex":1,"midi":34,"velocity":45},{"beat":406.0,"padIndex":0,"midi":36,"velocity":89},{"beat":406.0,"padIndex":3,"midi":46,"velocity":74},{"beat":406.5,"padIndex":0,"midi":36,"velocity":92},{"beat":407.0,"padIndex":1,"midi":34,"velocity":75},{"beat":407.0,"padIndex":3,"midi":46,"velocity":70},{"beat":407.5,"padIndex":0,"midi":36,"velocity":91},{"beat":407.75,"padIndex":1,"midi":34,"velocity":45},{"beat":408.0,"padIndex":0,"midi":36,"velocity":89},{"beat":408.0,"padIndex":12,"midi":57,"velocity":59},{"beat":408.0,"padIndex":12,"midi":49,"velocity":59},{"beat":409.0,"padIndex":1,"midi":34,"velocity":73},{"beat":409.0,"padIndex":3,"midi":46,"velocity":69},{"beat":409.5,"padIndex":1,"midi":34,"velocity":45},{"beat":409.75,"padIndex":1,"midi":34,"velocity":50},{"beat":410.0,"padIndex":0,"midi":36,"velocity":86},{"beat":410.0,"padIndex":3,"midi":46,"velocity":69},{"beat":410.5,"padIndex":0,"midi":36,"velocity":91},{"beat":411.0,"padIndex":1,"midi":34,"velocity":55},{"beat":411.0,"padIndex":3,"midi":46,"velocity":73},{"beat":411.5,"padIndex":0,"midi":36,"velocity":88},{"beat":412.0,"padIndex":0,"midi":36,"velocity":88},{"beat":412.0,"padIndex":12,"midi":57,"velocity":59},{"beat":412.0,"padIndex":12,"midi":49,"velocity":45},{"beat":413.0,"padIndex":1,"midi":34,"velocity":73},{"beat":413.0,"padIndex":3,"midi":46,"velocity":72},{"beat":413.75,"padIndex":1,"midi":34,"velocity":55},{"beat":414.0,"padIndex":0,"midi":36,"velocity":89},{"beat":414.0,"padIndex":3,"midi":46,"velocity":71},{"beat":414.25,"padIndex":1,"midi":34,"velocity":45},{"beat":414.5,"padIndex":0,"midi":36,"velocity":86},{"beat":415.0,"padIndex":1,"midi":34,"velocity":75},{"beat":415.0,"padIndex":3,"midi":46,"velocity":73},{"beat":415.5,"padIndex":0,"midi":36,"velocity":90},{"beat":416.0,"padIndex":0,"midi":36,"velocity":89},{"beat":416.0,"padIndex":3,"midi":46,"velocity":72},{"beat":416.0,"padIndex":12,"midi":49,"velocity":46},{"beat":416.5,"padIndex":3,"midi":46,"velocity":62},{"beat":417.0,"padIndex":1,"midi":34,"velocity":73},{"beat":417.0,"padIndex":3,"midi":46,"velocity":69},{"beat":417.75,"padIndex":1,"midi":34,"velocity":63},{"beat":418.0,"padIndex":0,"midi":36,"velocity":89},{"beat":418.0,"padIndex":3,"midi":46,"velocity":71},{"beat":418.5,"padIndex":1,"midi":34,"velocity":75},{"beat":418.5,"padIndex":3,"midi":46,"velocity":59},{"beat":419.0,"padIndex":0,"midi":36,"velocity":91},{"beat":419.0,"padIndex":1,"midi":34,"velocity":70},{"beat":419.0,"padIndex":3,"midi":46,"velocity":72},{"beat":419.25,"padIndex":1,"midi":34,"velocity":70},{"beat":419.5,"padIndex":1,"midi":34,"velocity":70},{"beat":419.75,"padIndex":1,"midi":34,"velocity":70},{"beat":420.0,"padIndex":0,"midi":36,"velocity":87},{"beat":420.0,"padIndex":3,"midi":46,"velocity":59},{"beat":420.5,"padIndex":1,"midi":34,"velocity":69},{"beat":420.75,"padIndex":1,"midi":34,"velocity":69},{"beat":421.0,"padIndex":0,"midi":36,"velocity":86},{"beat":421.0,"padIndex":1,"midi":34,"velocity":45},{"beat":421.25,"padIndex":1,"midi":34,"velocity":67},{"beat":422.0,"padIndex":0,"midi":36,"velocity":89},{"beat":423.0,"padIndex":0,"midi":36,"velocity":88},{"beat":423.0,"padIndex":1,"midi":34,"velocity":45},{"beat":424.0,"padIndex":0,"midi":36,"velocity":89},{"beat":424.0,"padIndex":12,"midi":57,"velocity":59},{"beat":424.0,"padIndex":12,"midi":49,"velocity":59},{"beat":425.0,"padIndex":1,"midi":34,"velocity":73},{"beat":425.0,"padIndex":3,"midi":46,"velocity":69},{"beat":425.75,"padIndex":1,"midi":34,"velocity":55},{"beat":426.0,"padIndex":0,"midi":36,"velocity":90},{"beat":426.0,"padIndex":3,"midi":46,"velocity":71},{"beat":426.25,"padIndex":1,"midi":34,"velocity":50},{"beat":426.5,"padIndex":0,"midi":36,"velocity":91},{"beat":427.0,"padIndex":1,"midi":34,"velocity":75},{"beat":427.0,"padIndex":3,"midi":46,"velocity":70},{"beat":427.5,"padIndex":0,"midi":36,"velocity":90},{"beat":427.75,"padIndex":1,"midi":34,"velocity":50},{"beat":428.0,"padIndex":0,"midi":36,"velocity":87},{"beat":428.0,"padIndex":12,"midi":57,"velocity":55},{"beat":428.0,"padIndex":12,"midi":49,"velocity":45},{"beat":429.0,"padIndex":1,"midi":34,"velocity":73},{"beat":429.0,"padIndex":3,"midi":46,"velocity":71},{"beat":429.75,"padIndex":1,"midi":34,"velocity":50},{"beat":430.0,"padIndex":3,"midi":46,"velocity":77},{"beat":430.25,"padIndex":1,"midi":34,"velocity":50},{"beat":430.5,"padIndex":0,"midi":36,"velocity":92},{"beat":431.0,"padIndex":1,"midi":34,"velocity":65},{"beat":431.0,"padIndex":3,"midi":46,"velocity":69},{"beat":431.75,"padIndex":1,"midi":34,"velocity":55},{"beat":432.0,"padIndex":0,"midi":36,"velocity":92},{"beat":432.0,"padIndex":12,"midi":57,"velocity":59},{"beat":432.0,"padIndex":12,"midi":49,"velocity":59},{"beat":433.0,"padIndex":1,"midi":34,"velocity":73},{"beat":433.0,"padIndex":3,"midi":46,"velocity":71},{"beat":433.75,"padIndex":1,"midi":34,"velocity":55},{"beat":434.0,"padIndex":0,"midi":36,"velocity":91},{"beat":434.0,"padIndex":3,"midi":46,"velocity":77},{"beat":434.25,"padIndex":1,"midi":34,"velocity":50},{"beat":434.5,"padIndex":0,"midi":36,"velocity":89},{"beat":435.0,"padIndex":1,"midi":34,"velocity":55},{"beat":435.0,"padIndex":3,"midi":46,"velocity":72},{"beat":435.5,"padIndex":0,"midi":36,"velocity":91},{"beat":436.0,"padIndex":0,"midi":36,"velocity":88},{"beat":436.0,"padIndex":12,"midi":49,"velocity":59},{"beat":436.0,"padIndex":12,"midi":57,"velocity":45},{"beat":437.0,"padIndex":1,"midi":34,"velocity":73},{"beat":437.0,"padIndex":3,"midi":46,"velocity":69},{"beat":437.75,"padIndex":1,"midi":34,"velocity":65},{"beat":438.0,"padIndex":0,"midi":36,"velocity":92},{"beat":438.0,"padIndex":1,"midi":34,"velocity":50},{"beat":438.0,"padIndex":3,"midi":46,"velocity":69},{"beat":438.25,"padIndex":1,"midi":34,"velocity":45},{"beat":438.5,"padIndex":1,"midi":34,"velocity":70},{"beat":438.75,"padIndex":1,"midi":34,"velocity":75},{"beat":439.0,"padIndex":0,"midi":36,"velocity":89},{"beat":439.0,"padIndex":1,"midi":34,"velocity":75},{"beat":439.0,"padIndex":3,"midi":46,"velocity":71},{"beat":439.25,"padIndex":1,"midi":34,"velocity":65},{"beat":440.0,"padIndex":0,"midi":36,"velocity":88},{"beat":440.0,"padIndex":3,"midi":46,"velocity":62},{"beat":440.0,"padIndex":12,"midi":49,"velocity":55},{"beat":441.0,"padIndex":1,"midi":34,"velocity":73},{"beat":441.0,"padIndex":3,"midi":46,"velocity":70},{"beat":441.75,"padIndex":1,"midi":34,"velocity":55},{"beat":442.0,"padIndex":0,"midi":36,"velocity":86},{"beat":442.0,"padIndex":3,"midi":46,"velocity":72},{"beat":442.25,"padIndex":1,"midi":34,"velocity":50},{"beat":442.5,"padIndex":0,"midi":36,"velocity":87},{"beat":443.0,"padIndex":1,"midi":34,"velocity":75},{"beat":443.0,"padIndex":3,"midi":46,"velocity":73},{"beat":443.5,"padIndex":0,"midi":36,"velocity":90},{"beat":444.0,"padIndex":1,"midi":34,"velocity":55},{"beat":444.0,"padIndex":3,"midi":46,"velocity":77},{"beat":444.5,"padIndex":0,"midi":36,"velocity":92},{"beat":445.0,"padIndex":1,"midi":34,"velocity":73},{"beat":445.0,"padIndex":3,"midi":46,"velocity":73},{"beat":445.75,"padIndex":1,"midi":34,"velocity":65},{"beat":446.0,"padIndex":0,"midi":36,"velocity":89},{"beat":446.0,"padIndex":3,"midi":46,"velocity":69},{"beat":446.5,"padIndex":1,"midi":34,"velocity":55},{"beat":447.0,"padIndex":0,"midi":36,"velocity":89},{"beat":447.0,"padIndex":1,"midi":34,"velocity":75},{"beat":447.0,"padIndex":3,"midi":46,"velocity":74},{"beat":447.25,"padIndex":1,"midi":34,"velocity":70},{"beat":447.5,"padIndex":1,"midi":34,"velocity":75},{"beat":447.75,"padIndex":1,"midi":34,"velocity":77},{"beat":448.0,"padIndex":0,"midi":36,"velocity":89},{"beat":448.0,"padIndex":3,"midi":46,"velocity":77},{"beat":448.0,"padIndex":12,"midi":57,"velocity":45},{"beat":448.5,"padIndex":0,"midi":36,"velocity":86},{"beat":449.0,"padIndex":1,"midi":34,"velocity":73},{"beat":449.0,"padIndex":3,"midi":46,"velocity":69},{"beat":449.75,"padIndex":1,"midi":34,"velocity":65},{"beat":450.0,"padIndex":0,"midi":36,"velocity":86},{"beat":450.0,"padIndex":3,"midi":46,"velocity":73},{"beat":450.75,"padIndex":1,"midi":34,"velocity":45},{"beat":451.0,"padIndex":0,"midi":36,"velocity":89},{"beat":451.0,"padIndex":1,"midi":34,"velocity":70},{"beat":451.0,"padIndex":3,"midi":46,"velocity":69},{"beat":451.25,"padIndex":1,"midi":34,"velocity":75},{"beat":451.5,"padIndex":1,"midi":34,"velocity":75},{"beat":451.75,"padIndex":1,"midi":34,"velocity":77},{"beat":452.0,"padIndex":0,"midi":36,"velocity":87},{"beat":452.5,"padIndex":1,"midi":34,"velocity":60},{"beat":452.75,"padIndex":1,"midi":34,"velocity":73},{"beat":453.0,"padIndex":0,"midi":36,"velocity":91},{"beat":453.0,"padIndex":1,"midi":34,"velocity":55},{"beat":453.25,"padIndex":1,"midi":34,"velocity":73},{"beat":454.0,"padIndex":0,"midi":36,"velocity":89},{"beat":455.0,"padIndex":0,"midi":36,"velocity":90},{"beat":456.0,"padIndex":0,"midi":36,"velocity":86},{"beat":456.0,"padIndex":12,"midi":57,"velocity":65},{"beat":456.0,"padIndex":12,"midi":49,"velocity":55},{"beat":457.0,"padIndex":1,"midi":34,"velocity":73},{"beat":457.0,"padIndex":3,"midi":46,"velocity":69},{"beat":457.5,"padIndex":1,"midi":34,"velocity":50},{"beat":458.0,"padIndex":3,"midi":46,"velocity":73},{"beat":458.25,"padIndex":1,"midi":34,"velocity":50},{"beat":458.5,"padIndex":0,"midi":36,"velocity":91},{"beat":458.5,"padIndex":3,"midi":46,"velocity":47},{"beat":459.0,"padIndex":1,"midi":34,"velocity":75},{"beat":459.0,"padIndex":3,"midi":46,"velocity":69},{"beat":459.5,"padIndex":0,"midi":36,"velocity":90},{"beat":460.0,"padIndex":1,"midi":34,"velocity":45},{"beat":460.0,"padIndex":3,"midi":46,"velocity":69},{"beat":460.0,"padIndex":12,"midi":57,"velocity":45},{"beat":460.5,"padIndex":0,"midi":36,"velocity":90},{"beat":461.0,"padIndex":1,"midi":34,"velocity":73},{"beat":461.0,"padIndex":3,"midi":46,"velocity":73},{"beat":461.5,"padIndex":1,"midi":34,"velocity":55},{"beat":461.75,"padIndex":1,"midi":34,"velocity":65},{"beat":462.0,"padIndex":0,"midi":36,"velocity":87},{"beat":462.0,"padIndex":3,"midi":46,"velocity":70},{"beat":462.0,"padIndex":12,"midi":57,"velocity":38},{"beat":462.5,"padIndex":1,"midi":34,"velocity":60},{"beat":463.0,"padIndex":1,"midi":34,"velocity":55},{"beat":463.5,"padIndex":0,"midi":36,"velocity":91},{"beat":463.5,"padIndex":1,"midi":34,"velocity":55},{"beat":463.75,"padIndex":1,"midi":34,"velocity":63},{"beat":464.0,"padIndex":0,"midi":36,"velocity":89},{"beat":464.0,"padIndex":12,"midi":49,"velocity":65},{"beat":464.0,"padIndex":12,"midi":57,"velocity":38},{"beat":464.5,"padIndex":0,"midi":36,"velocity":89},{"beat":465.0,"padIndex":1,"midi":34,"velocity":73},{"beat":465.0,"padIndex":3,"midi":46,"velocity":71},{"beat":465.0,"padIndex":12,"midi":49,"velocity":40},{"beat":466.0,"padIndex":0,"midi":36,"velocity":91},{"beat":466.0,"padIndex":1,"midi":34,"velocity":56},{"beat":466.0,"padIndex":3,"midi":46,"velocity":76},{"beat":466.0,"padIndex":12,"midi":57,"velocity":35},{"beat":466.5,"padIndex":1,"midi":34,"velocity":59},{"beat":467.0,"padIndex":0,"midi":36,"velocity":86},{"beat":467.0,"padIndex":3,"midi":46,"velocity":69},{"beat":467.0,"padIndex":12,"midi":57,"velocity":35},{"beat":467.5,"padIndex":1,"midi":34,"velocity":70},{"beat":467.5,"padIndex":12,"midi":57,"velocity":35},{"beat":468.0,"padIndex":12,"midi":49,"velocity":46},{"beat":468.0,"padIndex":12,"midi":57,"velocity":56},{"beat":468.5,"padIndex":0,"midi":36,"velocity":87},{"beat":469.0,"padIndex":1,"midi":34,"velocity":73},{"beat":469.0,"padIndex":3,"midi":46,"velocity":71},{"beat":469.75,"padIndex":1,"midi":34,"velocity":55},{"beat":470.0,"padIndex":0,"midi":36,"velocity":89},{"beat":470.0,"padIndex":3,"midi":46,"velocity":74},{"beat":470.0,"padIndex":12,"midi":49,"velocity":45},{"beat":470.5,"padIndex":1,"midi":34,"velocity":61},{"beat":471.0,"padIndex":0,"midi":36,"velocity":90},{"beat":471.0,"padIndex":1,"midi":34,"velocity":65},{"beat":471.25,"padIndex":1,"midi":34,"velocity":75},{"beat":471.5,"padIndex":1,"midi":34,"velocity":65},{"beat":471.75,"padIndex":1,"midi":34,"velocity":75},{"beat":472.0,"padIndex":0,"midi":36,"velocity":89},{"beat":472.0,"padIndex":12,"midi":49,"velocity":45},{"beat":472.0,"padIndex":12,"midi":57,"velocity":45},{"beat":473.0,"padIndex":1,"midi":34,"velocity":73},{"beat":473.0,"padIndex":3,"midi":46,"velocity":69},{"beat":473.75,"padIndex":1,"midi":34,"velocity":55},{"beat":474.0,"padIndex":0,"midi":36,"velocity":92},{"beat":474.0,"padIndex":3,"midi":46,"velocity":69},{"beat":474.25,"padIndex":1,"midi":34,"velocity":45},{"beat":474.5,"padIndex":0,"midi":36,"velocity":92},{"beat":475.0,"padIndex":1,"midi":34,"velocity":55},{"beat":475.0,"padIndex":3,"midi":46,"velocity":73},{"beat":475.5,"padIndex":0,"midi":36,"velocity":87},{"beat":476.0,"padIndex":0,"midi":36,"velocity":90},{"beat":476.0,"padIndex":3,"midi":46,"velocity":73},{"beat":476.0,"padIndex":12,"midi":57,"velocity":38},{"beat":477.0,"padIndex":1,"midi":34,"velocity":73},{"beat":477.0,"padIndex":3,"midi":46,"velocity":72},{"beat":477.75,"padIndex":1,"midi":34,"velocity":55},{"beat":478.0,"padIndex":0,"midi":36,"velocity":86},{"beat":478.0,"padIndex":3,"midi":46,"velocity":71},{"beat":478.5,"padIndex":0,"midi":36,"velocity":87},{"beat":479.0,"padIndex":1,"midi":34,"velocity":75},{"beat":479.0,"padIndex":3,"midi":46,"velocity":73},{"beat":479.75,"padIndex":1,"midi":34,"velocity":65},{"beat":480.0,"padIndex":0,"midi":36,"velocity":89},{"beat":480.0,"padIndex":12,"midi":49,"velocity":50},{"beat":480.0,"padIndex":12,"midi":57,"velocity":38},{"beat":480.5,"padIndex":0,"midi":36,"velocity":88},{"beat":481.0,"padIndex":1,"midi":34,"velocity":73},{"beat":481.0,"padIndex":3,"midi":46,"velocity":69},{"beat":481.0,"padIndex":12,"midi":49,"velocity":46},{"beat":481.75,"padIndex":1,"midi":34,"velocity":65},{"beat":482.0,"padIndex":0,"midi":36,"velocity":87},{"beat":482.0,"padIndex":3,"midi":46,"velocity":71},{"beat":482.25,"padIndex":1,"midi":34,"velocity":45},{"beat":482.5,"padIndex":0,"midi":36,"velocity":90},{"beat":483.0,"padIndex":1,"midi":34,"velocity":75},{"beat":483.0,"padIndex":3,"midi":46,"velocity":72},{"beat":483.75,"padIndex":1,"midi":34,"velocity":55},{"beat":484.0,"padIndex":0,"midi":36,"velocity":88},{"beat":484.0,"padIndex":1,"midi":34,"velocity":55},{"beat":484.25,"padIndex":1,"midi":34,"velocity":63},{"beat":484.5,"padIndex":1,"midi":34,"velocity":64},{"beat":484.75,"padIndex":1,"midi":34,"velocity":65},{"beat":485.0,"padIndex":0,"midi":36,"velocity":82},{"beat":485.0,"padIndex":1,"midi":34,"velocity":64},{"beat":485.25,"padIndex":1,"midi":34,"velocity":45},{"beat":485.5,"padIndex":1,"midi":34,"velocity":65},{"beat":485.75,"padIndex":1,"midi":34,"velocity":45},{"beat":486.0,"padIndex":0,"midi":36,"velocity":87},{"beat":486.0,"padIndex":1,"midi":34,"velocity":60},{"beat":486.25,"padIndex":1,"midi":34,"velocity":63},{"beat":486.5,"padIndex":1,"midi":34,"velocity":64},{"beat":486.75,"padIndex":1,"midi":34,"velocity":65},{"beat":487.0,"padIndex":0,"midi":36,"velocity":82},{"beat":487.0,"padIndex":1,"midi":34,"velocity":70},{"beat":487.25,"padIndex":1,"midi":34,"velocity":55},{"beat":487.5,"padIndex":1,"midi":34,"velocity":65},{"beat":487.75,"padIndex":1,"midi":34,"velocity":64},{"beat":488.0,"padIndex":0,"midi":36,"velocity":90},{"beat":488.0,"padIndex":12,"midi":57,"velocity":55},{"beat":488.0,"padIndex":12,"midi":49,"velocity":55},{"beat":489.0,"padIndex":1,"midi":34,"velocity":73},{"beat":489.0,"padIndex":3,"midi":46,"velocity":69},{"beat":489.0,"padIndex":12,"midi":57,"velocity":38},{"beat":489.75,"padIndex":1,"midi":34,"velocity":55},{"beat":490.0,"padIndex":0,"midi":36,"velocity":86},{"beat":490.0,"padIndex":3,"midi":46,"velocity":71},{"beat":490.0,"padIndex":12,"midi":57,"velocity":38},{"beat":490.25,"padIndex":1,"midi":34,"velocity":50},{"beat":490.5,"padIndex":0,"midi":36,"velocity":82},{"beat":491.0,"padIndex":1,"midi":34,"velocity":75},{"beat":491.0,"padIndex":3,"midi":46,"velocity":70},{"beat":491.0,"padIndex":12,"midi":57,"velocity":39},{"beat":492.0,"padIndex":0,"midi":36,"velocity":87},{"beat":492.0,"padIndex":3,"midi":46,"velocity":72},{"beat":492.0,"padIndex":12,"midi":57,"velocity":38},{"beat":493.0,"padIndex":1,"midi":34,"velocity":73},{"beat":493.0,"padIndex":3,"midi":46,"velocity":71},{"beat":493.0,"padIndex":12,"midi":57,"velocity":38},{"beat":493.75,"padIndex":1,"midi":34,"velocity":65},{"beat":494.0,"padIndex":0,"midi":36,"velocity":89},{"beat":494.0,"padIndex":3,"midi":46,"velocity":69},{"beat":494.0,"padIndex":12,"midi":57,"velocity":39},{"beat":494.5,"padIndex":0,"midi":36,"velocity":88},{"beat":495.0,"padIndex":1,"midi":34,"velocity":65},{"beat":495.0,"padIndex":3,"midi":46,"velocity":69},{"beat":495.0,"padIndex":12,"midi":57,"velocity":39},{"beat":495.5,"padIndex":0,"midi":36,"velocity":92},{"beat":496.0,"padIndex":0,"midi":36,"velocity":86},{"beat":496.0,"padIndex":12,"midi":49,"velocity":55},{"beat":496.0,"padIndex":12,"midi":57,"velocity":45},{"beat":497.0,"padIndex":1,"midi":34,"velocity":73},{"beat":497.0,"padIndex":3,"midi":46,"velocity":71},{"beat":497.0,"padIndex":12,"midi":57,"velocity":38},{"beat":497.75,"padIndex":1,"midi":34,"velocity":55},{"beat":498.0,"padIndex":0,"midi":36,"velocity":89},{"beat":498.0,"padIndex":3,"midi":46,"velocity":70},{"beat":498.0,"padIndex":12,"midi":57,"velocity":38},{"beat":498.5,"padIndex":0,"midi":36,"velocity":88},{"beat":499.0,"padIndex":1,"midi":34,"velocity":55},{"beat":499.0,"padIndex":3,"midi":46,"velocity":72},{"beat":499.0,"padIndex":12,"midi":57,"velocity":39},{"beat":499.5,"padIndex":0,"midi":36,"velocity":87},{"beat":500.0,"padIndex":3,"midi":46,"velocity":73},{"beat":500.0,"padIndex":12,"midi":57,"velocity":39},{"beat":500.25,"padIndex":1,"midi":34,"velocity":55},{"beat":500.5,"padIndex":0,"midi":36,"velocity":87},{"beat":501.0,"padIndex":1,"midi":34,"velocity":73},{"beat":501.0,"padIndex":3,"midi":46,"velocity":69},{"beat":501.0,"padIndex":12,"midi":57,"velocity":35},{"beat":501.5,"padIndex":0,"midi":36,"velocity":87},{"beat":502.0,"padIndex":1,"midi":34,"velocity":60},{"beat":502.0,"padIndex":3,"midi":46,"velocity":69},{"beat":502.0,"padIndex":12,"midi":57,"velocity":38},{"beat":502.5,"padIndex":0,"midi":36,"velocity":90},{"beat":503.0,"padIndex":1,"midi":34,"velocity":67},{"beat":503.0,"padIndex":3,"midi":46,"velocity":71},{"beat":503.5,"padIndex":0,"midi":36,"velocity":88},{"beat":504.0,"padIndex":0,"midi":36,"velocity":89},{"beat":504.0,"padIndex":12,"midi":49,"velocity":55},{"beat":504.0,"padIndex":12,"midi":57,"velocity":45},{"beat":505.0,"padIndex":1,"midi":34,"velocity":73},{"beat":505.0,"padIndex":3,"midi":46,"velocity":70},{"beat":505.0,"padIndex":12,"midi":57,"velocity":39},{"beat":505.75,"padIndex":1,"midi":34,"velocity":55},{"beat":506.0,"padIndex":0,"midi":36,"velocity":87},{"beat":506.0,"padIndex":3,"midi":46,"velocity":72},{"beat":506.0,"padIndex":12,"midi":57,"velocity":39},{"beat":506.25,"padIndex":1,"midi":34,"velocity":50},{"beat":506.5,"padIndex":0,"midi":36,"velocity":90},{"beat":507.0,"padIndex":1,"midi":34,"velocity":75},{"beat":507.0,"padIndex":3,"midi":46,"velocity":73},{"beat":507.0,"padIndex":12,"midi":57,"velocity":35},{"beat":507.75,"padIndex":1,"midi":34,"velocity":50},{"beat":508.0,"padIndex":0,"midi":36,"velocity":90},{"beat":508.0,"padIndex":3,"midi":46,"velocity":72},{"beat":508.0,"padIndex":12,"midi":57,"velocity":38},{"beat":509.0,"padIndex":1,"midi":34,"velocity":73},{"beat":509.0,"padIndex":3,"midi":46,"velocity":73},{"beat":509.0,"padIndex":12,"midi":57,"velocity":39},{"beat":509.75,"padIndex":1,"midi":34,"velocity":65},{"beat":510.0,"padIndex":0,"midi":36,"velocity":91},{"beat":510.0,"padIndex":3,"midi":46,"velocity":69},{"beat":510.0,"padIndex":12,"midi":57,"velocity":39},{"beat":510.5,"padIndex":0,"midi":36,"velocity":88},{"beat":511.0,"padIndex":1,"midi":34,"velocity":75},{"beat":511.0,"padIndex":3,"midi":46,"velocity":74},{"beat":511.0,"padIndex":12,"midi":57,"velocity":35},{"beat":511.5,"padIndex":0,"midi":36,"velocity":88},{"beat":512.0,"padIndex":0,"midi":36,"velocity":89},{"beat":512.0,"padIndex":12,"midi":57,"velocity":38},{"beat":512.0,"padIndex":12,"midi":49,"velocity":45},{"beat":513.0,"padIndex":1,"midi":34,"velocity":73},{"beat":513.0,"padIndex":3,"midi":46,"velocity":69},{"beat":513.0,"padIndex":12,"midi":57,"velocity":39},{"beat":513.75,"padIndex":1,"midi":34,"velocity":65},{"beat":514.0,"padIndex":0,"midi":36,"velocity":88},{"beat":514.0,"padIndex":3,"midi":46,"velocity":73},{"beat":514.0,"padIndex":12,"midi":57,"velocity":39},{"beat":514.25,"padIndex":1,"midi":34,"velocity":55},{"beat":514.5,"padIndex":0,"midi":36,"velocity":91},{"beat":515.0,"padIndex":1,"midi":34,"velocity":75},{"beat":515.0,"padIndex":3,"midi":46,"velocity":69},{"beat":515.0,"padIndex":12,"midi":57,"velocity":35},{"beat":515.75,"padIndex":1,"midi":34,"velocity":77},{"beat":516.0,"padIndex":0,"midi":36,"velocity":92},{"beat":516.0,"padIndex":3,"midi":46,"velocity":69},{"beat":516.75,"padIndex":1,"midi":34,"velocity":60},{"beat":517.0,"padIndex":0,"midi":36,"velocity":92},{"beat":517.0,"padIndex":1,"midi":34,"velocity":75},{"beat":517.25,"padIndex":1,"midi":34,"velocity":73},{"beat":518.0,"padIndex":0,"midi":36,"velocity":89},{"beat":519.0,"padIndex":0,"midi":36,"velocity":90},{"beat":520.0,"padIndex":0,"midi":36,"velocity":90},{"beat":520.0,"padIndex":12,"midi":49,"velocity":55},{"beat":520.0,"padIndex":12,"midi":57,"velocity":65},{"beat":521.0,"padIndex":1,"midi":34,"velocity":73},{"beat":521.0,"padIndex":3,"midi":46,"velocity":69},{"beat":521.0,"padIndex":12,"midi":57,"velocity":39},{"beat":521.75,"padIndex":1,"midi":34,"velocity":55},{"beat":522.0,"padIndex":0,"midi":36,"velocity":88},{"beat":522.0,"padIndex":3,"midi":46,"velocity":73},{"beat":522.0,"padIndex":12,"midi":57,"velocity":39},{"beat":522.25,"padIndex":1,"midi":34,"velocity":50},{"beat":522.5,"padIndex":0,"midi":36,"velocity":92},{"beat":523.0,"padIndex":1,"midi":34,"velocity":75},{"beat":523.0,"padIndex":3,"midi":46,"velocity":69},{"beat":523.0,"padIndex":12,"midi":57,"velocity":35},{"beat":523.5,"padIndex":0,"midi":36,"velocity":90},{"beat":523.5,"padIndex":12,"midi":49,"velocity":47},{"beat":524.0,"padIndex":3,"midi":46,"velocity":69},{"beat":524.0,"padIndex":12,"midi":57,"velocity":39},{"beat":524.25,"padIndex":1,"midi":34,"velocity":50},{"beat":524.5,"padIndex":0,"midi":36,"velocity":92},{"beat":525.0,"padIndex":1,"midi":34,"velocity":73},{"beat":525.0,"padIndex":3,"midi":46,"velocity":73},{"beat":525.0,"padIndex":12,"midi":57,"velocity":39},{"beat":525.5,"padIndex":0,"midi":36,"velocity":87},{"beat":525.5,"padIndex":12,"midi":57,"velocity":35},{"beat":526.0,"padIndex":3,"midi":46,"velocity":70},{"beat":526.25,"padIndex":1,"midi":34,"velocity":55},{"beat":526.5,"padIndex":0,"midi":36,"velocity":92},{"beat":527.0,"padIndex":1,"midi":34,"velocity":75},{"beat":527.0,"padIndex":3,"midi":46,"velocity":72},{"beat":527.0,"padIndex":12,"midi":57,"velocity":35},{"beat":528.0,"padIndex":0,"midi":36,"velocity":89},{"beat":528.0,"padIndex":12,"midi":57,"velocity":55},{"beat":528.0,"padIndex":12,"midi":49,"velocity":55},{"beat":529.0,"padIndex":1,"midi":34,"velocity":73},{"beat":529.0,"padIndex":3,"midi":46,"velocity":71},{"beat":529.0,"padIndex":12,"midi":57,"velocity":40},{"beat":529.75,"padIndex":1,"midi":34,"velocity":55},{"beat":530.0,"padIndex":0,"midi":36,"velocity":91},{"beat":530.0,"padIndex":3,"midi":46,"velocity":71},{"beat":530.0,"padIndex":12,"midi":57,"velocity":35},{"beat":530.25,"padIndex":1,"midi":34,"velocity":50},{"beat":531.0,"padIndex":1,"midi":34,"velocity":73},{"beat":531.0,"padIndex":3,"midi":46,"velocity":69},{"beat":531.0,"padIndex":12,"midi":57,"velocity":38},{"beat":531.5,"padIndex":0,"midi":36,"velocity":92},{"beat":531.5,"padIndex":12,"midi":49,"velocity":55},{"beat":532.0,"padIndex":3,"midi":46,"velocity":69},{"beat":532.25,"padIndex":1,"midi":34,"velocity":45},{"beat":532.5,"padIndex":0,"midi":36,"velocity":90},{"beat":532.5,"padIndex":1,"midi":34,"velocity":55},{"beat":533.0,"padIndex":1,"midi":34,"velocity":65},{"beat":533.0,"padIndex":3,"midi":46,"velocity":71},{"beat":533.0,"padIndex":12,"midi":57,"velocity":35},{"beat":533.5,"padIndex":0,"midi":36,"velocity":91},{"beat":533.5,"padIndex":1,"midi":34,"velocity":70},{"beat":533.5,"padIndex":12,"midi":57,"velocity":38},{"beat":533.75,"padIndex":1,"midi":34,"velocity":45},{"beat":534.0,"padIndex":3,"midi":46,"velocity":74},{"beat":534.0,"padIndex":12,"midi":49,"velocity":45},{"beat":534.0,"padIndex":12,"midi":57,"velocity":38},{"beat":534.5,"padIndex":1,"midi":34,"velocity":55},{"beat":534.75,"padIndex":1,"midi":34,"velocity":61},{"beat":535.0,"padIndex":1,"midi":34,"velocity":73},{"beat":535.0,"padIndex":3,"midi":46,"velocity":70},{"beat":535.0,"padIndex":12,"midi":57,"velocity":38},{"beat":535.25,"padIndex":1,"midi":34,"velocity":60},{"beat":535.5,"padIndex":1,"midi":34,"velocity":65},{"beat":535.75,"padIndex":1,"midi":34,"velocity":68},{"beat":536.0,"padIndex":0,"midi":36,"velocity":88},{"beat":536.0,"padIndex":12,"midi":57,"velocity":55},{"beat":536.0,"padIndex":12,"midi":49,"velocity":55},{"beat":537.0,"padIndex":1,"midi":34,"velocity":73},{"beat":537.0,"padIndex":3,"midi":46,"velocity":69},{"beat":537.0,"padIndex":12,"midi":57,"velocity":38},{"beat":537.5,"padIndex":1,"midi":34,"velocity":55},{"beat":537.75,"padIndex":1,"midi":34,"velocity":65},{"beat":538.0,"padIndex":0,"midi":36,"velocity":89},{"beat":538.0,"padIndex":3,"midi":46,"velocity":69},{"beat":538.0,"padIndex":12,"midi":57,"velocity":38},{"beat":538.5,"padIndex":0,"midi":36,"velocity":88},{"beat":539.0,"padIndex":1,"midi":34,"velocity":55},{"beat":539.0,"padIndex":3,"midi":46,"velocity":73},{"beat":539.0,"padIndex":12,"midi":57,"velocity":38},{"beat":539.75,"padIndex":1,"midi":34,"velocity":55},{"beat":540.0,"padIndex":0,"midi":36,"velocity":90},{"beat":540.0,"padIndex":3,"midi":46,"velocity":73},{"beat":540.0,"padIndex":12,"midi":57,"velocity":38},{"beat":540.25,"padIndex":1,"midi":34,"velocity":55},{"beat":541.0,"padIndex":1,"midi":34,"velocity":73},{"beat":541.0,"padIndex":3,"midi":46,"velocity":72},{"beat":541.0,"padIndex":12,"midi":57,"velocity":38},{"beat":541.75,"padIndex":1,"midi":34,"velocity":65},{"beat":542.0,"padIndex":0,"midi":36,"velocity":90},{"beat":542.0,"padIndex":3,"midi":46,"velocity":71},{"beat":542.0,"padIndex":12,"midi":57,"velocity":38},{"beat":542.25,"padIndex":1,"midi":34,"velocity":65},{"beat":542.5,"padIndex":0,"midi":36,"velocity":92},{"beat":543.0,"padIndex":1,"midi":34,"velocity":75},{"beat":543.0,"padIndex":3,"midi":46,"velocity":73},{"beat":543.0,"padIndex":12,"midi":57,"velocity":38},{"beat":543.75,"padIndex":1,"midi":34,"velocity":55},{"beat":544.0,"padIndex":0,"midi":36,"velocity":86},{"beat":544.0,"padIndex":12,"midi":49,"velocity":55},{"beat":544.0,"padIndex":12,"midi":57,"velocity":45},{"beat":545.0,"padIndex":1,"midi":34,"velocity":73},{"beat":545.0,"padIndex":3,"midi":46,"velocity":69},{"beat":545.0,"padIndex":12,"midi":57,"velocity":38},{"beat":545.75,"padIndex":1,"midi":34,"velocity":60},{"beat":546.0,"padIndex":0,"midi":36,"velocity":91},{"beat":546.0,"padIndex":3,"midi":46,"velocity":71},{"beat":546.5,"padIndex":0,"midi":36,"velocity":91},{"beat":547.0,"padIndex":1,"midi":34,"velocity":75},{"beat":547.0,"padIndex":3,"midi":46,"velocity":72},{"beat":547.5,"padIndex":0,"midi":36,"velocity":91},{"beat":548.0,"padIndex":0,"midi":36,"velocity":89},{"beat":548.0,"padIndex":1,"midi":34,"velocity":55},{"beat":548.0,"padIndex":12,"midi":57,"velocity":45},{"beat":548.0,"padIndex":12,"midi":49,"velocity":65},{"beat":549.0,"padIndex":0,"midi":36,"velocity":86},{"beat":549.0,"padIndex":1,"midi":34,"velocity":60},{"beat":549.5,"padIndex":0,"midi":36,"velocity":86},{"beat":549.5,"padIndex":1,"midi":34,"velocity":65},{"beat":550.0,"padIndex":0,"midi":36,"velocity":89},{"beat":550.0,"padIndex":1,"midi":34,"velocity":65},{"beat":550.5,"padIndex":0,"midi":36,"velocity":89},{"beat":550.5,"padIndex":1,"midi":34,"velocity":75},{"beat":551.0,"padIndex":1,"midi":34,"velocity":75},{"beat":551.5,"padIndex":1,"midi":34,"velocity":75},{"beat":551.5,"padIndex":3,"midi":46,"velocity":72},{"beat":552.0,"padIndex":2,"midi":42,"velocity":52}],"full":[{"beat":8.0,"padIndex":0,"midi":36,"velocity":88},{"beat":8.0,"padIndex":12,"midi":57,"velocity":55},{"beat":8.0,"padIndex":12,"midi":49,"velocity":55},{"beat":8.5,"padIndex":2,"midi":42,"velocity":70},{"beat":9.0,"padIndex":0,"midi":36,"velocity":86},{"beat":9.5,"padIndex":2,"midi":42,"velocity":74},{"beat":10.0,"padIndex":0,"midi":36,"velocity":89},{"beat":10.5,"padIndex":2,"midi":42,"velocity":76},{"beat":11.0,"padIndex":0,"midi":36,"velocity":86},{"beat":11.5,"padIndex":2,"midi":42,"velocity":76},{"beat":12.0,"padIndex":0,"midi":36,"velocity":90},{"beat":12.5,"padIndex":2,"midi":42,"velocity":74},{"beat":13.0,"padIndex":0,"midi":36,"velocity":88},{"beat":13.5,"padIndex":2,"midi":42,"velocity":70},{"beat":14.0,"padIndex":0,"midi":36,"velocity":87},{"beat":14.5,"padIndex":2,"midi":42,"velocity":73},{"beat":15.0,"padIndex":0,"midi":36,"velocity":89},{"beat":15.5,"padIndex":2,"midi":42,"velocity":74},{"beat":16.0,"padIndex":0,"midi":36,"velocity":88},{"beat":16.5,"padIndex":2,"midi":42,"velocity":73},{"beat":17.0,"padIndex":0,"midi":36,"velocity":86},{"beat":17.5,"padIndex":2,"midi":42,"velocity":76},{"beat":18.0,"padIndex":0,"midi":36,"velocity":90},{"beat":18.5,"padIndex":2,"midi":42,"velocity":70},{"beat":19.0,"padIndex":0,"midi":36,"velocity":90},{"beat":19.5,"padIndex":2,"midi":42,"velocity":74},{"beat":20.0,"padIndex":0,"midi":36,"velocity":86},{"beat":20.5,"padIndex":3,"midi":46,"velocity":62},{"beat":21.0,"padIndex":0,"midi":36,"velocity":91},{"beat":21.0,"padIndex":2,"midi":42,"velocity":69},{"beat":21.5,"padIndex":2,"midi":42,"velocity":69},{"beat":22.0,"padIndex":0,"midi":36,"velocity":89},{"beat":22.0,"padIndex":2,"midi":42,"velocity":62},{"beat":22.5,"padIndex":3,"midi":46,"velocity":62},{"beat":23.0,"padIndex":0,"midi":36,"velocity":90},{"beat":23.0,"padIndex":2,"midi":42,"velocity":73},{"beat":23.5,"padIndex":3,"midi":46,"velocity":62},{"beat":24.0,"padIndex":0,"midi":36,"velocity":87},{"beat":24.0,"padIndex":2,"midi":42,"velocity":70},{"beat":24.5,"padIndex":2,"midi":42,"velocity":69},{"beat":25.0,"padIndex":0,"midi":36,"velocity":89},{"beat":25.5,"padIndex":2,"midi":42,"velocity":74},{"beat":26.0,"padIndex":0,"midi":36,"velocity":91},{"beat":26.5,"padIndex":2,"midi":42,"velocity":71},{"beat":27.0,"padIndex":0,"midi":36,"velocity":86},{"beat":27.5,"padIndex":2,"midi":42,"velocity":73},{"beat":28.0,"padIndex":0,"midi":36,"velocity":89},{"beat":28.5,"padIndex":2,"midi":42,"velocity":69},{"beat":29.0,"padIndex":0,"midi":36,"velocity":87},{"beat":29.5,"padIndex":2,"midi":42,"velocity":71},{"beat":30.0,"padIndex":0,"midi":36,"velocity":86},{"beat":30.5,"padIndex":3,"midi":46,"velocity":62},{"beat":31.0,"padIndex":0,"midi":36,"velocity":86},{"beat":31.0,"padIndex":2,"midi":42,"velocity":61},{"beat":31.5,"padIndex":3,"midi":46,"velocity":64},{"beat":32.0,"padIndex":0,"midi":36,"velocity":91},{"beat":32.0,"padIndex":2,"midi":42,"velocity":62},{"beat":32.5,"padIndex":2,"midi":42,"velocity":72},{"beat":33.0,"padIndex":0,"midi":36,"velocity":92},{"beat":33.5,"padIndex":2,"midi":42,"velocity":70},{"beat":34.0,"padIndex":0,"midi":36,"velocity":88},{"beat":34.5,"padIndex":2,"midi":42,"velocity":73},{"beat":35.0,"padIndex":0,"midi":36,"velocity":89},{"beat":35.5,"padIndex":3,"midi":46,"velocity":62},{"beat":36.0,"padIndex":0,"midi":36,"velocity":91},{"beat":36.0,"padIndex":2,"midi":42,"velocity":49},{"beat":36.5,"padIndex":2,"midi":42,"velocity":75},{"beat":37.0,"padIndex":0,"midi":36,"velocity":87},{"beat":37.5,"padIndex":2,"midi":42,"velocity":74},{"beat":38.0,"padIndex":0,"midi":36,"velocity":89},{"beat":38.5,"padIndex":2,"midi":42,"velocity":70},{"beat":39.0,"padIndex":0,"midi":36,"velocity":91},{"beat":39.5,"padIndex":2,"midi":42,"velocity":73},{"beat":40.0,"padIndex":0,"midi":36,"velocity":91},{"beat":40.0,"padIndex":12,"midi":49,"velocity":55},{"beat":40.0,"padIndex":12,"midi":57,"velocity":59},{"beat":41.0,"padIndex":1,"midi":34,"velocity":73},{"beat":42.0,"padIndex":2,"midi":42,"velocity":69},{"beat":42.5,"padIndex":0,"midi":36,"velocity":90},{"beat":43.0,"padIndex":1,"midi":34,"velocity":75},{"beat":43.0,"padIndex":2,"midi":42,"velocity":70},{"beat":43.5,"padIndex":2,"midi":42,"velocity":62},{"beat":44.0,"padIndex":0,"midi":36,"velocity":92},{"beat":44.0,"padIndex":2,"midi":42,"velocity":70},{"beat":45.0,"padIndex":1,"midi":34,"velocity":73},{"beat":45.0,"padIndex":2,"midi":42,"velocity":76},{"beat":46.0,"padIndex":2,"midi":42,"velocity":83},{"beat":46.5,"padIndex":0,"midi":36,"velocity":92},{"beat":47.0,"padIndex":1,"midi":34,"velocity":75},{"beat":47.0,"padIndex":2,"midi":42,"velocity":70},{"beat":48.0,"padIndex":0,"midi":36,"velocity":91},{"beat":48.0,"padIndex":2,"midi":42,"velocity":75},{"beat":49.0,"padIndex":1,"midi":34,"velocity":73},{"beat":49.0,"padIndex":2,"midi":42,"velocity":71},{"beat":50.0,"padIndex":2,"midi":42,"velocity":82},{"beat":50.5,"padIndex":0,"midi":36,"velocity":87},{"beat":51.0,"padIndex":1,"midi":34,"velocity":75},{"beat":51.0,"padIndex":2,"midi":42,"velocity":71},{"beat":52.0,"padIndex":0,"midi":36,"velocity":87},{"beat":52.0,"padIndex":2,"midi":42,"velocity":82},{"beat":53.0,"padIndex":1,"midi":34,"velocity":73},{"beat":53.0,"padIndex":2,"midi":42,"velocity":76},{"beat":54.0,"padIndex":2,"midi":42,"velocity":82},{"beat":54.5,"padIndex":0,"midi":36,"velocity":91},{"beat":55.0,"padIndex":1,"midi":34,"velocity":75},{"beat":55.0,"padIndex":2,"midi":42,"velocity":75},{"beat":55.5,"padIndex":0,"midi":36,"velocity":87},{"beat":56.0,"padIndex":0,"midi":36,"velocity":91},{"beat":56.0,"padIndex":2,"midi":42,"velocity":76},{"beat":57.0,"padIndex":1,"midi":34,"velocity":73},{"beat":57.0,"padIndex":2,"midi":42,"velocity":71},{"beat":58.0,"padIndex":2,"midi":42,"velocity":74},{"beat":58.5,"padIndex":0,"midi":36,"velocity":87},{"beat":59.0,"padIndex":1,"midi":34,"velocity":75},{"beat":59.0,"padIndex":2,"midi":42,"velocity":74},{"beat":59.5,"padIndex":2,"midi":42,"velocity":66},{"beat":59.75,"padIndex":2,"midi":42,"velocity":62},{"beat":60.0,"padIndex":0,"midi":36,"velocity":89},{"beat":60.0,"padIndex":2,"midi":42,"velocity":75},{"beat":61.0,"padIndex":1,"midi":34,"velocity":73},{"beat":61.0,"padIndex":2,"midi":42,"velocity":69},{"beat":62.0,"padIndex":2,"midi":42,"velocity":79},{"beat":62.5,"padIndex":0,"midi":36,"velocity":90},{"beat":63.0,"padIndex":1,"midi":34,"velocity":75},{"beat":63.0,"padIndex":2,"midi":42,"velocity":76},{"beat":64.0,"padIndex":0,"midi":36,"velocity":86},{"beat":64.0,"padIndex":2,"midi":42,"velocity":76},{"beat":65.0,"padIndex":1,"midi":34,"velocity":73},{"beat":65.0,"padIndex":2,"midi":42,"velocity":75},{"beat":66.0,"padIndex":2,"midi":42,"velocity":82},{"beat":66.5,"padIndex":0,"midi":36,"velocity":87},{"beat":67.0,"padIndex":1,"midi":34,"velocity":75},{"beat":67.0,"padIndex":2,"midi":42,"velocity":76},{"beat":68.0,"padIndex":0,"midi":36,"velocity":92},{"beat":68.0,"padIndex":2,"midi":42,"velocity":76},{"beat":69.0,"padIndex":1,"midi":34,"velocity":73},{"beat":69.0,"padIndex":2,"midi":42,"velocity":71},{"beat":70.0,"padIndex":2,"midi":42,"velocity":82},{"beat":70.5,"padIndex":6,"midi":45,"velocity":70},{"beat":71.0,"padIndex":1,"midi":34,"velocity":50},{"beat":71.0,"padIndex":2,"midi":42,"velocity":74},{"beat":71.04167,"padIndex":1,"midi":34,"velocity":75},{"beat":71.5,"padIndex":0,"midi":36,"velocity":87},{"beat":72.0,"padIndex":0,"midi":36,"velocity":92},{"beat":72.0,"padIndex":12,"midi":57,"velocity":55},{"beat":72.0,"padIndex":12,"midi":49,"velocity":55},{"beat":73.0,"padIndex":1,"midi":34,"velocity":73},{"beat":73.0,"padIndex":2,"midi":42,"velocity":71},{"beat":73.75,"padIndex":1,"midi":34,"velocity":35},{"beat":74.0,"padIndex":2,"midi":42,"velocity":82},{"beat":74.25,"padIndex":1,"midi":34,"velocity":55},{"beat":74.5,"padIndex":0,"midi":36,"velocity":91},{"beat":75.0,"padIndex":1,"midi":34,"velocity":75},{"beat":75.0,"padIndex":2,"midi":42,"velocity":76},{"beat":76.0,"padIndex":0,"midi":36,"velocity":88},{"beat":76.0,"padIndex":2,"midi":42,"velocity":76},{"beat":77.0,"padIndex":1,"midi":34,"velocity":73},{"beat":77.0,"padIndex":2,"midi":42,"velocity":72},{"beat":77.75,"padIndex":1,"midi":34,"velocity":45},{"beat":78.0,"padIndex":2,"midi":42,"velocity":82},{"beat":78.25,"padIndex":1,"midi":34,"velocity":55},{"beat":78.5,"padIndex":0,"midi":36,"velocity":86},{"beat":78.5,"padIndex":3,"midi":46,"velocity":71},{"beat":79.0,"padIndex":1,"midi":34,"velocity":75},{"beat":79.0,"padIndex":2,"midi":42,"velocity":70},{"beat":79.5,"padIndex":0,"midi":36,"velocity":86},{"beat":79.5,"padIndex":2,"midi":42,"velocity":62},{"beat":80.0,"padIndex":0,"midi":36,"velocity":90},{"beat":80.0,"padIndex":2,"midi":42,"velocity":76},{"beat":81.0,"padIndex":1,"midi":34,"velocity":73},{"beat":81.0,"padIndex":2,"midi":42,"velocity":74},{"beat":81.75,"padIndex":1,"midi":34,"velocity":55},{"beat":82.0,"padIndex":2,"midi":42,"velocity":82},{"beat":82.25,"padIndex":1,"midi":34,"velocity":55},{"beat":82.5,"padIndex":0,"midi":36,"velocity":91},{"beat":83.0,"padIndex":1,"midi":34,"velocity":75},{"beat":83.0,"padIndex":2,"midi":42,"velocity":69},{"beat":83.5,"padIndex":0,"midi":36,"velocity":90},{"beat":83.5,"padIndex":2,"midi":42,"velocity":69},{"beat":83.75,"padIndex":2,"midi":42,"velocity":62},{"beat":84.0,"padIndex":0,"midi":36,"velocity":88},{"beat":84.0,"padIndex":2,"midi":42,"velocity":73},{"beat":84.5,"padIndex":2,"midi":42,"velocity":69},{"beat":85.0,"padIndex":1,"midi":34,"velocity":73},{"beat":85.0,"padIndex":2,"midi":42,"velocity":72},{"beat":85.75,"padIndex":1,"midi":34,"velocity":55},{"beat":86.0,"padIndex":2,"midi":42,"velocity":71},{"beat":86.25,"padIndex":1,"midi":34,"velocity":55},{"beat":86.5,"padIndex":0,"midi":36,"velocity":90},{"beat":86.5,"padIndex":3,"midi":46,"velocity":73},{"beat":87.0,"padIndex":1,"midi":34,"velocity":75},{"beat":87.5,"padIndex":0,"midi":36,"velocity":86},{"beat":88.0,"padIndex":0,"midi":36,"velocity":88},{"beat":88.0,"padIndex":12,"midi":57,"velocity":55},{"beat":88.0,"padIndex":12,"midi":49,"velocity":55},{"beat":89.0,"padIndex":1,"midi":34,"velocity":73},{"beat":89.0,"padIndex":2,"midi":42,"velocity":71},{"beat":89.75,"padIndex":1,"midi":34,"velocity":40},{"beat":90.0,"padIndex":2,"midi":42,"velocity":71},{"beat":90.25,"padIndex":1,"midi":34,"velocity":55},{"beat":90.5,"padIndex":0,"midi":36,"velocity":91},{"beat":91.0,"padIndex":1,"midi":34,"velocity":75},{"beat":91.0,"padIndex":3,"midi":46,"velocity":62},{"beat":91.5,"padIndex":0,"midi":36,"velocity":90},{"beat":92.0,"padIndex":0,"midi":36,"velocity":87},{"beat":92.0,"padIndex":2,"midi":42,"velocity":69},{"beat":93.0,"padIndex":1,"midi":34,"velocity":73},{"beat":93.0,"padIndex":2,"midi":42,"velocity":73},{"beat":93.75,"padIndex":1,"midi":34,"velocity":40},{"beat":94.0,"padIndex":2,"midi":42,"velocity":72},{"beat":94.25,"padIndex":1,"midi":34,"velocity":55},{"beat":94.5,"padIndex":0,"midi":36,"velocity":91},{"beat":94.5,"padIndex":3,"midi":46,"velocity":75},{"beat":95.0,"padIndex":1,"midi":34,"velocity":75},{"beat":95.0,"padIndex":2,"midi":42,"velocity":70},{"beat":95.5,"padIndex":0,"midi":36,"velocity":92},{"beat":96.0,"padIndex":0,"midi":36,"velocity":90},{"beat":96.0,"padIndex":2,"midi":42,"velocity":75},{"beat":97.0,"padIndex":1,"midi":34,"velocity":73},{"beat":97.0,"padIndex":3,"midi":46,"velocity":66},{"beat":97.75,"padIndex":1,"midi":34,"velocity":69},{"beat":98.0,"padIndex":0,"midi":36,"velocity":88},{"beat":98.0,"padIndex":3,"midi":46,"velocity":70},{"beat":98.5,"padIndex":1,"midi":34,"velocity":71},{"beat":98.75,"padIndex":1,"midi":34,"velocity":59},{"beat":99.0,"padIndex":1,"midi":34,"velocity":75},{"beat":99.25,"padIndex":1,"midi":34,"velocity":68},{"beat":99.5,"padIndex":1,"midi":34,"velocity":75},{"beat":99.75,"padIndex":1,"midi":34,"velocity":75},{"beat":102.0,"padIndex":2,"midi":44,"velocity":55},{"beat":102.5,"padIndex":0,"midi":36,"velocity":91},{"beat":102.75,"padIndex":0,"midi":36,"velocity":88},{"beat":103.0,"padIndex":1,"midi":34,"velocity":67},{"beat":103.0,"padIndex":2,"midi":44,"velocity":55},{"beat":103.0,"padIndex":6,"midi":41,"velocity":75},{"beat":104.0,"padIndex":0,"midi":36,"velocity":86},{"beat":104.0,"padIndex":12,"midi":49,"velocity":55},{"beat":104.0,"padIndex":12,"midi":57,"velocity":59},{"beat":104.02083,"padIndex":11,"midi":54,"velocity":75},{"beat":104.27083,"padIndex":11,"midi":54,"velocity":36},{"beat":104.52083,"padIndex":11,"midi":54,"velocity":52},{"beat":104.77083,"padIndex":11,"midi":54,"velocity":32},{"beat":105.0,"padIndex":1,"midi":34,"velocity":73},{"beat":105.0,"padIndex":3,"midi":46,"velocity":69},{"beat":105.02083,"padIndex":11,"midi":54,"velocity":85},{"beat":105.27083,"padIndex":11,"midi":54,"velocity":45},{"beat":105.52083,"padIndex":11,"midi":54,"velocity":59},{"beat":105.75,"padIndex":1,"midi":34,"velocity":45},{"beat":105.77083,"padIndex":11,"midi":54,"velocity":44},{"beat":106.0,"padIndex":0,"midi":36,"velocity":89},{"beat":106.0,"padIndex":3,"midi":46,"velocity":71},{"beat":106.02083,"padIndex":11,"midi":54,"velocity":75},{"beat":106.27083,"padIndex":11,"midi":54,"velocity":36},{"beat":106.5,"padIndex":0,"midi":36,"velocity":90},{"beat":106.52083,"padIndex":11,"midi":54,"velocity":52},{"beat":106.77083,"padIndex":11,"midi":54,"velocity":32},{"beat":107.0,"padIndex":1,"midi":34,"velocity":75},{"beat":107.0,"padIndex":3,"midi":46,"velocity":70},{"beat":107.02083,"padIndex":11,"midi":54,"velocity":85},{"beat":107.27083,"padIndex":11,"midi":54,"velocity":45},{"beat":107.52083,"padIndex":11,"midi":54,"velocity":59},{"beat":107.75,"padIndex":1,"midi":34,"velocity":45},{"beat":107.77083,"padIndex":11,"midi":54,"velocity":44},{"beat":108.0,"padIndex":0,"midi":36,"velocity":87},{"beat":108.0,"padIndex":3,"midi":46,"velocity":72},{"beat":108.02083,"padIndex":11,"midi":54,"velocity":75},{"beat":108.27083,"padIndex":11,"midi":54,"velocity":36},{"beat":108.52083,"padIndex":11,"midi":54,"velocity":52},{"beat":108.77083,"padIndex":11,"midi":54,"velocity":32},{"beat":109.0,"padIndex":1,"midi":34,"velocity":73},{"beat":109.0,"padIndex":3,"midi":46,"velocity":71},{"beat":109.02083,"padIndex":11,"midi":54,"velocity":85},{"beat":109.27083,"padIndex":11,"midi":54,"velocity":45},{"beat":109.52083,"padIndex":11,"midi":54,"velocity":59},{"beat":109.75,"padIndex":1,"midi":34,"velocity":45},{"beat":109.77083,"padIndex":11,"midi":54,"velocity":44},{"beat":110.0,"padIndex":0,"midi":36,"velocity":87},{"beat":110.0,"padIndex":3,"midi":46,"velocity":69},{"beat":110.02083,"padIndex":11,"midi":54,"velocity":75},{"beat":110.27083,"padIndex":11,"midi":54,"velocity":36},{"beat":110.5,"padIndex":0,"midi":36,"velocity":87},{"beat":110.52083,"padIndex":11,"midi":54,"velocity":52},{"beat":110.77083,"padIndex":11,"midi":54,"velocity":32},{"beat":111.0,"padIndex":1,"midi":34,"velocity":75},{"beat":111.0,"padIndex":3,"midi":46,"velocity":69},{"beat":111.02083,"padIndex":11,"midi":54,"velocity":85},{"beat":111.27083,"padIndex":11,"midi":54,"velocity":45},{"beat":111.52083,"padIndex":11,"midi":54,"velocity":59},{"beat":111.75,"padIndex":1,"midi":34,"velocity":45},{"beat":111.77083,"padIndex":11,"midi":54,"velocity":44},{"beat":112.0,"padIndex":0,"midi":36,"velocity":91},{"beat":112.0,"padIndex":3,"midi":46,"velocity":70},{"beat":112.02083,"padIndex":11,"midi":54,"velocity":75},{"beat":112.27083,"padIndex":11,"midi":54,"velocity":36},{"beat":112.52083,"padIndex":11,"midi":54,"velocity":52},{"beat":112.77083,"padIndex":11,"midi":54,"velocity":32},{"beat":113.0,"padIndex":1,"midi":34,"velocity":73},{"beat":113.0,"padIndex":3,"midi":46,"velocity":71},{"beat":113.02083,"padIndex":11,"midi":54,"velocity":85},{"beat":113.27083,"padIndex":11,"midi":54,"velocity":45},{"beat":113.52083,"padIndex":11,"midi":54,"velocity":59},{"beat":113.75,"padIndex":1,"midi":34,"velocity":45},{"beat":113.77083,"padIndex":11,"midi":54,"velocity":44},{"beat":114.0,"padIndex":0,"midi":36,"velocity":87},{"beat":114.0,"padIndex":3,"midi":46,"velocity":70},{"beat":114.02083,"padIndex":11,"midi":54,"velocity":75},{"beat":114.27083,"padIndex":11,"midi":54,"velocity":36},{"beat":114.5,"padIndex":0,"midi":36,"velocity":86},{"beat":114.52083,"padIndex":11,"midi":54,"velocity":52},{"beat":114.77083,"padIndex":11,"midi":54,"velocity":32},{"beat":115.0,"padIndex":1,"midi":34,"velocity":75},{"beat":115.0,"padIndex":3,"midi":46,"velocity":72},{"beat":115.0,"padIndex":6,"midi":43,"velocity":62},{"beat":115.02083,"padIndex":11,"midi":54,"velocity":85},{"beat":115.27083,"padIndex":11,"midi":54,"velocity":45},{"beat":115.52083,"padIndex":11,"midi":54,"velocity":59},{"beat":115.77083,"padIndex":11,"midi":54,"velocity":44},{"beat":116.0,"padIndex":0,"midi":36,"velocity":92},{"beat":116.0,"padIndex":3,"midi":46,"velocity":73},{"beat":116.02083,"padIndex":11,"midi":54,"velocity":75},{"beat":116.27083,"padIndex":11,"midi":54,"velocity":36},{"beat":116.52083,"padIndex":11,"midi":54,"velocity":52},{"beat":116.77083,"padIndex":11,"midi":54,"velocity":32},{"beat":117.0,"padIndex":1,"midi":34,"velocity":73},{"beat":117.0,"padIndex":3,"midi":46,"velocity":69},{"beat":117.02083,"padIndex":11,"midi":54,"velocity":85},{"beat":117.27083,"padIndex":11,"midi":54,"velocity":45},{"beat":117.52083,"padIndex":11,"midi":54,"velocity":59},{"beat":117.75,"padIndex":1,"midi":34,"velocity":45},{"beat":117.77083,"padIndex":11,"midi":54,"velocity":44},{"beat":118.0,"padIndex":0,"midi":36,"velocity":91},{"beat":118.0,"padIndex":3,"midi":46,"velocity":69},{"beat":118.02083,"padIndex":11,"midi":54,"velocity":75},{"beat":118.27083,"padIndex":11,"midi":54,"velocity":36},{"beat":118.5,"padIndex":0,"midi":36,"velocity":92},{"beat":118.52083,"padIndex":11,"midi":54,"velocity":52},{"beat":118.77083,"padIndex":11,"midi":54,"velocity":32},{"beat":119.0,"padIndex":1,"midi":34,"velocity":75},{"beat":119.0,"padIndex":3,"midi":46,"velocity":71},{"beat":119.02083,"padIndex":11,"midi":54,"velocity":85},{"beat":119.27083,"padIndex":11,"midi":54,"velocity":45},{"beat":119.5,"padIndex":0,"midi":36,"velocity":89},{"beat":119.5,"padIndex":1,"midi":34,"velocity":45},{"beat":119.52083,"padIndex":11,"midi":54,"velocity":59},{"beat":119.75,"padIndex":1,"midi":34,"velocity":55},{"beat":119.77083,"padIndex":11,"midi":54,"velocity":44},{"beat":120.0,"padIndex":0,"midi":36,"velocity":87},{"beat":120.0,"padIndex":12,"midi":57,"velocity":59},{"beat":120.0,"padIndex":12,"midi":49,"velocity":45},{"beat":120.02083,"padIndex":11,"midi":54,"velocity":75},{"beat":120.27083,"padIndex":11,"midi":54,"velocity":36},{"beat":120.52083,"padIndex":11,"midi":54,"velocity":52},{"beat":120.77083,"padIndex":11,"midi":54,"velocity":32},{"beat":121.0,"padIndex":1,"midi":34,"velocity":73},{"beat":121.0,"padIndex":3,"midi":46,"velocity":70},{"beat":121.02083,"padIndex":11,"midi":54,"velocity":85},{"beat":121.27083,"padIndex":11,"midi":54,"velocity":45},{"beat":121.52083,"padIndex":11,"midi":54,"velocity":59},{"beat":121.75,"padIndex":1,"midi":34,"velocity":55},{"beat":121.77083,"padIndex":11,"midi":54,"velocity":44},{"beat":122.0,"padIndex":0,"midi":36,"velocity":90},{"beat":122.0,"padIndex":3,"midi":46,"velocity":72},{"beat":122.02083,"padIndex":11,"midi":54,"velocity":75},{"beat":122.25,"padIndex":1,"midi":34,"velocity":45},{"beat":122.27083,"padIndex":11,"midi":54,"velocity":36},{"beat":122.5,"padIndex":0,"midi":36,"velocity":87},{"beat":122.52083,"padIndex":11,"midi":54,"velocity":52},{"beat":122.77083,"padIndex":11,"midi":54,"velocity":32},{"beat":123.0,"padIndex":1,"midi":34,"velocity":75},{"beat":123.0,"padIndex":3,"midi":46,"velocity":73},{"beat":123.02083,"padIndex":11,"midi":54,"velocity":85},{"beat":123.27083,"padIndex":11,"midi":54,"velocity":45},{"beat":123.5,"padIndex":1,"midi":34,"velocity":40},{"beat":123.52083,"padIndex":11,"midi":54,"velocity":59},{"beat":123.75,"padIndex":1,"midi":34,"velocity":45},{"beat":123.77083,"padIndex":11,"midi":54,"velocity":44},{"beat":124.0,"padIndex":0,"midi":36,"velocity":91},{"beat":124.0,"padIndex":3,"midi":46,"velocity":72},{"beat":124.02083,"padIndex":11,"midi":54,"velocity":75},{"beat":124.27083,"padIndex":11,"midi":54,"velocity":36},{"beat":124.52083,"padIndex":11,"midi":54,"velocity":52},{"beat":124.77083,"padIndex":11,"midi":54,"velocity":32},{"beat":125.0,"padIndex":1,"midi":34,"velocity":73},{"beat":125.0,"padIndex":3,"midi":46,"velocity":73},{"beat":125.02083,"padIndex":11,"midi":54,"velocity":85},{"beat":125.27083,"padIndex":11,"midi":54,"velocity":45},{"beat":125.52083,"padIndex":11,"midi":54,"velocity":59},{"beat":125.75,"padIndex":1,"midi":34,"velocity":45},{"beat":125.77083,"padIndex":11,"midi":54,"velocity":44},{"beat":126.0,"padIndex":0,"midi":36,"velocity":92},{"beat":126.0,"padIndex":3,"midi":46,"velocity":69},{"beat":126.02083,"padIndex":11,"midi":54,"velocity":75},{"beat":126.27083,"padIndex":11,"midi":54,"velocity":36},{"beat":126.5,"padIndex":0,"midi":36,"velocity":88},{"beat":126.52083,"padIndex":11,"midi":54,"velocity":52},{"beat":126.77083,"padIndex":11,"midi":54,"velocity":32},{"beat":127.0,"padIndex":1,"midi":34,"velocity":75},{"beat":127.0,"padIndex":3,"midi":46,"velocity":74},{"beat":127.02083,"padIndex":11,"midi":54,"velocity":85},{"beat":127.27083,"padIndex":11,"midi":54,"velocity":45},{"beat":127.5,"padIndex":1,"midi":34,"velocity":55},{"beat":127.52083,"padIndex":11,"midi":54,"velocity":59},{"beat":127.75,"padIndex":1,"midi":34,"velocity":50},{"beat":127.77083,"padIndex":11,"midi":54,"velocity":44},{"beat":128.0,"padIndex":0,"midi":36,"velocity":92},{"beat":128.0,"padIndex":1,"midi":34,"velocity":55},{"beat":128.0,"padIndex":3,"midi":46,"velocity":70},{"beat":128.0,"padIndex":12,"midi":49,"velocity":45},{"beat":128.02083,"padIndex":11,"midi":54,"velocity":75},{"beat":128.27083,"padIndex":11,"midi":54,"velocity":36},{"beat":128.52083,"padIndex":11,"midi":54,"velocity":52},{"beat":128.77083,"padIndex":11,"midi":54,"velocity":32},{"beat":129.0,"padIndex":1,"midi":34,"velocity":73},{"beat":129.0,"padIndex":3,"midi":46,"velocity":69},{"beat":129.02083,"padIndex":11,"midi":54,"velocity":85},{"beat":129.27083,"padIndex":11,"midi":54,"velocity":45},{"beat":129.52083,"padIndex":11,"midi":54,"velocity":59},{"beat":129.75,"padIndex":1,"midi":34,"velocity":70},{"beat":129.77083,"padIndex":11,"midi":54,"velocity":44},{"beat":130.0,"padIndex":0,"midi":36,"velocity":86},{"beat":130.0,"padIndex":3,"midi":46,"velocity":73},{"beat":130.02083,"padIndex":11,"midi":54,"velocity":75},{"beat":130.25,"padIndex":1,"midi":34,"velocity":45},{"beat":130.27083,"padIndex":11,"midi":54,"velocity":36},{"beat":130.5,"padIndex":0,"midi":36,"velocity":87},{"beat":130.52083,"padIndex":11,"midi":54,"velocity":52},{"beat":130.77083,"padIndex":11,"midi":54,"velocity":32},{"beat":131.0,"padIndex":1,"midi":34,"velocity":75},{"beat":131.0,"padIndex":3,"midi":46,"velocity":69},{"beat":131.02083,"padIndex":11,"midi":54,"velocity":85},{"beat":131.27083,"padIndex":11,"midi":54,"velocity":45},{"beat":131.52083,"padIndex":11,"midi":54,"velocity":59},{"beat":131.75,"padIndex":1,"midi":34,"velocity":70},{"beat":131.77083,"padIndex":11,"midi":54,"velocity":44},{"beat":132.0,"padIndex":0,"midi":36,"velocity":87},{"beat":132.0,"padIndex":3,"midi":46,"velocity":69},{"beat":132.02083,"padIndex":11,"midi":54,"velocity":75},{"beat":132.27083,"padIndex":11,"midi":54,"velocity":36},{"beat":132.5,"padIndex":0,"midi":36,"velocity":92},{"beat":132.52083,"padIndex":11,"midi":54,"velocity":52},{"beat":132.77083,"padIndex":11,"midi":54,"velocity":32},{"beat":133.0,"padIndex":1,"midi":34,"velocity":73},{"beat":133.0,"padIndex":3,"midi":46,"velocity":69},{"beat":133.02083,"padIndex":11,"midi":54,"velocity":85},{"beat":133.27083,"padIndex":11,"midi":54,"velocity":45},{"beat":133.52083,"padIndex":11,"midi":54,"velocity":59},{"beat":133.75,"padIndex":1,"midi":34,"velocity":70},{"beat":133.77083,"padIndex":11,"midi":54,"velocity":44},{"beat":134.0,"padIndex":0,"midi":36,"velocity":90},{"beat":134.0,"padIndex":3,"midi":46,"velocity":74},{"beat":134.02083,"padIndex":11,"midi":54,"velocity":75},{"beat":134.27083,"padIndex":11,"midi":54,"velocity":36},{"beat":134.5,"padIndex":1,"midi":34,"velocity":75},{"beat":134.52083,"padIndex":11,"midi":54,"velocity":52},{"beat":134.75,"padIndex":1,"midi":34,"velocity":69},{"beat":134.77083,"padIndex":11,"midi":54,"velocity":32},{"beat":135.0,"padIndex":0,"midi":36,"velocity":87},{"beat":135.0,"padIndex":1,"midi":34,"velocity":75},{"beat":135.02083,"padIndex":11,"midi":54,"velocity":85},{"beat":135.25,"padIndex":1,"midi":34,"velocity":70},{"beat":135.27083,"padIndex":11,"midi":54,"velocity":45},{"beat":135.5,"padIndex":6,"midi":45,"velocity":75},{"beat":135.52083,"padIndex":11,"midi":54,"velocity":59},{"beat":135.75,"padIndex":6,"midi":45,"velocity":65},{"beat":135.77083,"padIndex":11,"midi":54,"velocity":44},{"beat":136.0,"padIndex":0,"midi":36,"velocity":90},{"beat":136.0,"padIndex":12,"midi":49,"velocity":55},{"beat":136.0,"padIndex":12,"midi":57,"velocity":59},{"beat":136.02083,"padIndex":11,"midi":54,"velocity":75},{"beat":136.27083,"padIndex":11,"midi":54,"velocity":36},{"beat":136.52083,"padIndex":11,"midi":54,"velocity":52},{"beat":136.77083,"padIndex":11,"midi":54,"velocity":32},{"beat":137.0,"padIndex":1,"midi":34,"velocity":73},{"beat":137.0,"padIndex":3,"midi":46,"velocity":69},{"beat":137.02083,"padIndex":11,"midi":54,"velocity":85},{"beat":137.27083,"padIndex":11,"midi":54,"velocity":45},{"beat":137.52083,"padIndex":11,"midi":54,"velocity":59},{"beat":137.75,"padIndex":1,"midi":34,"velocity":55},{"beat":137.77083,"padIndex":11,"midi":54,"velocity":44},{"beat":138.0,"padIndex":0,"midi":36,"velocity":91},{"beat":138.0,"padIndex":3,"midi":46,"velocity":73},{"beat":138.02083,"padIndex":11,"midi":54,"velocity":75},{"beat":138.25,"padIndex":1,"midi":34,"velocity":45},{"beat":138.27083,"padIndex":11,"midi":54,"velocity":36},{"beat":138.5,"padIndex":0,"midi":36,"velocity":91},{"beat":138.52083,"padIndex":11,"midi":54,"velocity":52},{"beat":138.77083,"padIndex":11,"midi":54,"velocity":32},{"beat":139.0,"padIndex":1,"midi":34,"velocity":75},{"beat":139.0,"padIndex":3,"midi":46,"velocity":69},{"beat":139.02083,"padIndex":11,"midi":54,"velocity":85},{"beat":139.27083,"padIndex":11,"midi":54,"velocity":45},{"beat":139.52083,"padIndex":11,"midi":54,"velocity":59},{"beat":139.75,"padIndex":1,"midi":34,"velocity":45},{"beat":139.77083,"padIndex":11,"midi":54,"velocity":44},{"beat":140.0,"padIndex":0,"midi":36,"velocity":87},{"beat":140.0,"padIndex":3,"midi":46,"velocity":69},{"beat":140.02083,"padIndex":11,"midi":54,"velocity":75},{"beat":140.27083,"padIndex":11,"midi":54,"velocity":36},{"beat":140.52083,"padIndex":11,"midi":54,"velocity":52},{"beat":140.77083,"padIndex":11,"midi":54,"velocity":32},{"beat":141.0,"padIndex":1,"midi":34,"velocity":73},{"beat":141.0,"padIndex":3,"midi":46,"velocity":73},{"beat":141.02083,"padIndex":11,"midi":54,"velocity":85},{"beat":141.27083,"padIndex":11,"midi":54,"velocity":45},{"beat":141.52083,"padIndex":11,"midi":54,"velocity":59},{"beat":141.75,"padIndex":1,"midi":34,"velocity":55},{"beat":141.77083,"padIndex":11,"midi":54,"velocity":44},{"beat":142.0,"padIndex":0,"midi":36,"velocity":92},{"beat":142.0,"padIndex":3,"midi":46,"velocity":70},{"beat":142.02083,"padIndex":11,"midi":54,"velocity":75},{"beat":142.27083,"padIndex":11,"midi":54,"velocity":36},{"beat":142.5,"padIndex":0,"midi":36,"velocity":89},{"beat":142.52083,"padIndex":11,"midi":54,"velocity":52},{"beat":142.77083,"padIndex":11,"midi":54,"velocity":32},{"beat":143.0,"padIndex":1,"midi":34,"velocity":75},{"beat":143.0,"padIndex":3,"midi":46,"velocity":72},{"beat":143.02083,"padIndex":11,"midi":54,"velocity":85},{"beat":143.27083,"padIndex":11,"midi":54,"velocity":45},{"beat":143.52083,"padIndex":11,"midi":54,"velocity":59},{"beat":143.75,"padIndex":1,"midi":34,"velocity":55},{"beat":143.77083,"padIndex":11,"midi":54,"velocity":44},{"beat":144.0,"padIndex":0,"midi":36,"velocity":88},{"beat":144.0,"padIndex":3,"midi":46,"velocity":69},{"beat":144.0,"padIndex":12,"midi":49,"velocity":45},{"beat":144.02083,"padIndex":11,"midi":54,"velocity":75},{"beat":144.27083,"padIndex":11,"midi":54,"velocity":36},{"beat":144.52083,"padIndex":11,"midi":54,"velocity":52},{"beat":144.77083,"padIndex":11,"midi":54,"velocity":32},{"beat":145.0,"padIndex":1,"midi":34,"velocity":73},{"beat":145.0,"padIndex":3,"midi":46,"velocity":71},{"beat":145.02083,"padIndex":11,"midi":54,"velocity":85},{"beat":145.27083,"padIndex":11,"midi":54,"velocity":45},{"beat":145.52083,"padIndex":11,"midi":54,"velocity":59},{"beat":145.75,"padIndex":1,"midi":34,"velocity":55},{"beat":145.77083,"padIndex":11,"midi":54,"velocity":44},{"beat":146.0,"padIndex":0,"midi":36,"velocity":92},{"beat":146.0,"padIndex":3,"midi":46,"velocity":71},{"beat":146.02083,"padIndex":11,"midi":54,"velocity":75},{"beat":146.27083,"padIndex":11,"midi":54,"velocity":36},{"beat":146.5,"padIndex":0,"midi":36,"velocity":91},{"beat":146.52083,"padIndex":11,"midi":54,"velocity":52},{"beat":146.77083,"padIndex":11,"midi":54,"velocity":32},{"beat":147.0,"padIndex":1,"midi":34,"velocity":75},{"beat":147.0,"padIndex":3,"midi":46,"velocity":69},{"beat":147.02083,"padIndex":11,"midi":54,"velocity":85},{"beat":147.27083,"padIndex":11,"midi":54,"velocity":45},{"beat":147.52083,"padIndex":11,"midi":54,"velocity":59},{"beat":147.75,"padIndex":1,"midi":34,"velocity":45},{"beat":147.77083,"padIndex":11,"midi":54,"velocity":44},{"beat":148.0,"padIndex":0,"midi":36,"velocity":91},{"beat":148.0,"padIndex":3,"midi":46,"velocity":69},{"beat":148.02083,"padIndex":11,"midi":54,"velocity":75},{"beat":148.27083,"padIndex":11,"midi":54,"velocity":36},{"beat":148.52083,"padIndex":11,"midi":54,"velocity":52},{"beat":148.77083,"padIndex":11,"midi":54,"velocity":32},{"beat":149.0,"padIndex":1,"midi":34,"velocity":73},{"beat":149.0,"padIndex":3,"midi":46,"velocity":71},{"beat":149.02083,"padIndex":11,"midi":54,"velocity":85},{"beat":149.27083,"padIndex":11,"midi":54,"velocity":45},{"beat":149.52083,"padIndex":11,"midi":54,"velocity":59},{"beat":149.75,"padIndex":1,"midi":34,"velocity":48},{"beat":149.77083,"padIndex":11,"midi":54,"velocity":44},{"beat":150.0,"padIndex":0,"midi":36,"velocity":90},{"beat":150.0,"padIndex":3,"midi":46,"velocity":74},{"beat":150.02083,"padIndex":11,"midi":54,"velocity":75},{"beat":150.27083,"padIndex":11,"midi":54,"velocity":36},{"beat":150.5,"padIndex":0,"midi":36,"velocity":87},{"beat":150.52083,"padIndex":11,"midi":54,"velocity":52},{"beat":150.77083,"padIndex":11,"midi":54,"velocity":32},{"beat":151.0,"padIndex":1,"midi":34,"velocity":75},{"beat":151.0,"padIndex":3,"midi":46,"velocity":70},{"beat":151.02083,"padIndex":11,"midi":54,"velocity":85},{"beat":151.25,"padIndex":1,"midi":34,"velocity":45},{"beat":151.27083,"padIndex":11,"midi":54,"velocity":45},{"beat":151.5,"padIndex":0,"midi":36,"velocity":86},{"beat":151.5,"padIndex":1,"midi":34,"velocity":45},{"beat":151.52083,"padIndex":11,"midi":54,"velocity":59},{"beat":151.75,"padIndex":1,"midi":34,"velocity":45},{"beat":151.77083,"padIndex":11,"midi":54,"velocity":44},{"beat":152.0,"padIndex":0,"midi":36,"velocity":92},{"beat":152.0,"padIndex":12,"midi":49,"velocity":55},{"beat":152.0,"padIndex":12,"midi":57,"velocity":65},{"beat":152.02083,"padIndex":11,"midi":54,"velocity":75},{"beat":152.27083,"padIndex":11,"midi":54,"velocity":36},{"beat":152.52083,"padIndex":11,"midi":54,"velocity":52},{"beat":152.77083,"padIndex":11,"midi":54,"velocity":32},{"beat":153.0,"padIndex":1,"midi":34,"velocity":73},{"beat":153.0,"padIndex":3,"midi":46,"velocity":69},{"beat":153.02083,"padIndex":11,"midi":54,"velocity":85},{"beat":153.27083,"padIndex":11,"midi":54,"velocity":45},{"beat":153.52083,"padIndex":11,"midi":54,"velocity":59},{"beat":153.75,"padIndex":1,"midi":34,"velocity":55},{"beat":153.77083,"padIndex":11,"midi":54,"velocity":44},{"beat":154.0,"padIndex":0,"midi":36,"velocity":92},{"beat":154.0,"padIndex":3,"midi":46,"velocity":69},{"beat":154.02083,"padIndex":11,"midi":54,"velocity":75},{"beat":154.25,"padIndex":1,"midi":34,"velocity":45},{"beat":154.27083,"padIndex":11,"midi":54,"velocity":36},{"beat":154.5,"padIndex":0,"midi":36,"velocity":91},{"beat":154.52083,"padIndex":11,"midi":54,"velocity":52},{"beat":154.77083,"padIndex":11,"midi":54,"velocity":32},{"beat":155.0,"padIndex":1,"midi":34,"velocity":75},{"beat":155.0,"padIndex":3,"midi":46,"velocity":73},{"beat":155.02083,"padIndex":11,"midi":54,"velocity":85},{"beat":155.27083,"padIndex":11,"midi":54,"velocity":45},{"beat":155.52083,"padIndex":11,"midi":54,"velocity":59},{"beat":155.77083,"padIndex":11,"midi":54,"velocity":44},{"beat":156.0,"padIndex":0,"midi":36,"velocity":88},{"beat":156.0,"padIndex":3,"midi":46,"velocity":73},{"beat":156.02083,"padIndex":11,"midi":54,"velocity":75},{"beat":156.27083,"padIndex":11,"midi":54,"velocity":36},{"beat":156.52083,"padIndex":11,"midi":54,"velocity":52},{"beat":156.77083,"padIndex":11,"midi":54,"velocity":32},{"beat":157.0,"padIndex":1,"midi":34,"velocity":73},{"beat":157.0,"padIndex":3,"midi":46,"velocity":72},{"beat":157.02083,"padIndex":11,"midi":54,"velocity":85},{"beat":157.27083,"padIndex":11,"midi":54,"velocity":45},{"beat":157.5,"padIndex":12,"midi":57,"velocity":45},{"beat":157.52083,"padIndex":11,"midi":54,"velocity":59},{"beat":157.75,"padIndex":1,"midi":34,"velocity":65},{"beat":157.77083,"padIndex":11,"midi":54,"velocity":44},{"beat":158.0,"padIndex":0,"midi":36,"velocity":92},{"beat":158.0,"padIndex":3,"midi":46,"velocity":71},{"beat":158.02083,"padIndex":11,"midi":54,"velocity":75},{"beat":158.25,"padIndex":1,"midi":34,"velocity":45},{"beat":158.27083,"padIndex":11,"midi":54,"velocity":36},{"beat":158.5,"padIndex":0,"midi":36,"velocity":88},{"beat":158.52083,"padIndex":11,"midi":54,"velocity":52},{"beat":158.77083,"padIndex":11,"midi":54,"velocity":32},{"beat":159.0,"padIndex":1,"midi":34,"velocity":75},{"beat":159.0,"padIndex":3,"midi":46,"velocity":73},{"beat":159.02083,"padIndex":11,"midi":54,"velocity":85},{"beat":159.27083,"padIndex":11,"midi":54,"velocity":45},{"beat":159.5,"padIndex":0,"midi":36,"velocity":87},{"beat":159.52083,"padIndex":11,"midi":54,"velocity":59},{"beat":159.75,"padIndex":1,"midi":34,"velocity":45},{"beat":159.77083,"padIndex":11,"midi":54,"velocity":44},{"beat":160.0,"padIndex":0,"midi":36,"velocity":86},{"beat":160.0,"padIndex":12,"midi":49,"velocity":55},{"beat":160.0,"padIndex":12,"midi":57,"velocity":65},{"beat":160.02083,"padIndex":11,"midi":54,"velocity":75},{"beat":160.27083,"padIndex":11,"midi":54,"velocity":36},{"beat":160.52083,"padIndex":11,"midi":54,"velocity":52},{"beat":160.77083,"padIndex":11,"midi":54,"velocity":32},{"beat":161.0,"padIndex":1,"midi":34,"velocity":73},{"beat":161.0,"padIndex":3,"midi":46,"velocity":69},{"beat":161.02083,"padIndex":11,"midi":54,"velocity":85},{"beat":161.27083,"padIndex":11,"midi":54,"velocity":45},{"beat":161.52083,"padIndex":11,"midi":54,"velocity":59},{"beat":161.75,"padIndex":1,"midi":34,"velocity":65},{"beat":161.77083,"padIndex":11,"midi":54,"velocity":44},{"beat":162.0,"padIndex":0,"midi":36,"velocity":92},{"beat":162.0,"padIndex":3,"midi":46,"velocity":71},{"beat":162.02083,"padIndex":11,"midi":54,"velocity":75},{"beat":162.25,"padIndex":1,"midi":34,"velocity":55},{"beat":162.27083,"padIndex":11,"midi":54,"velocity":36},{"beat":162.5,"padIndex":0,"midi":36,"velocity":90},{"beat":162.52083,"padIndex":11,"midi":54,"velocity":52},{"beat":162.77083,"padIndex":11,"midi":54,"velocity":32},{"beat":163.0,"padIndex":1,"midi":34,"velocity":75},{"beat":163.0,"padIndex":3,"midi":46,"velocity":72},{"beat":163.02083,"padIndex":11,"midi":54,"velocity":85},{"beat":163.27083,"padIndex":11,"midi":54,"velocity":45},{"beat":163.52083,"padIndex":11,"midi":54,"velocity":59},{"beat":163.75,"padIndex":1,"midi":34,"velocity":70},{"beat":163.77083,"padIndex":11,"midi":54,"velocity":44},{"beat":164.0,"padIndex":0,"midi":36,"velocity":91},{"beat":164.0,"padIndex":3,"midi":46,"velocity":77},{"beat":164.0,"padIndex":12,"midi":49,"velocity":50},{"beat":164.02083,"padIndex":11,"midi":54,"velocity":75},{"beat":164.27083,"padIndex":11,"midi":54,"velocity":36},{"beat":164.5,"padIndex":1,"midi":34,"velocity":75},{"beat":164.52083,"padIndex":11,"midi":54,"velocity":52},{"beat":164.75,"padIndex":1,"midi":34,"velocity":69},{"beat":164.77083,"padIndex":11,"midi":54,"velocity":32},{"beat":165.0,"padIndex":0,"midi":36,"velocity":92},{"beat":165.0,"padIndex":1,"midi":34,"velocity":75},{"beat":165.02083,"padIndex":11,"midi":54,"velocity":85},{"beat":165.25,"padIndex":1,"midi":34,"velocity":70},{"beat":165.27083,"padIndex":11,"midi":54,"velocity":45},{"beat":165.5,"padIndex":6,"midi":45,"velocity":70},{"beat":165.52083,"padIndex":11,"midi":54,"velocity":59},{"beat":165.75,"padIndex":1,"midi":34,"velocity":67},{"beat":165.77083,"padIndex":11,"midi":54,"velocity":44},{"beat":166.0,"padIndex":0,"midi":36,"velocity":88},{"beat":166.0,"padIndex":1,"midi":34,"velocity":69},{"beat":166.02083,"padIndex":11,"midi":54,"velocity":75},{"beat":166.25,"padIndex":1,"midi":34,"velocity":77},{"beat":166.27083,"padIndex":11,"midi":54,"velocity":36},{"beat":166.5,"padIndex":6,"midi":45,"velocity":75},{"beat":166.52083,"padIndex":11,"midi":54,"velocity":52},{"beat":166.75,"padIndex":6,"midi":45,"velocity":75},{"beat":166.77083,"padIndex":11,"midi":54,"velocity":32},{"beat":167.0,"padIndex":0,"midi":36,"velocity":89},{"beat":167.0,"padIndex":6,"midi":45,"velocity":70},{"beat":167.02083,"padIndex":11,"midi":54,"velocity":85},{"beat":167.25,"padIndex":6,"midi":43,"velocity":60},{"beat":167.27083,"padIndex":11,"midi":54,"velocity":45},{"beat":167.5,"padIndex":6,"midi":41,"velocity":81},{"beat":167.52083,"padIndex":11,"midi":54,"velocity":59},{"beat":167.75,"padIndex":6,"midi":41,"velocity":70},{"beat":167.77083,"padIndex":11,"midi":54,"velocity":44},{"beat":168.0,"padIndex":0,"midi":36,"velocity":91},{"beat":168.0,"padIndex":12,"midi":57,"velocity":65},{"beat":168.0,"padIndex":12,"midi":49,"velocity":45},{"beat":169.0,"padIndex":1,"midi":34,"velocity":73},{"beat":169.0,"padIndex":2,"midi":42,"velocity":72},{"beat":170.0,"padIndex":2,"midi":42,"velocity":82},{"beat":170.5,"padIndex":0,"midi":36,"velocity":91},{"beat":171.0,"padIndex":1,"midi":34,"velocity":75},{"beat":171.0,"padIndex":2,"midi":42,"velocity":71},{"beat":171.5,"padIndex":0,"midi":36,"velocity":87},{"beat":172.0,"padIndex":0,"midi":36,"velocity":90},{"beat":172.0,"padIndex":2,"midi":42,"velocity":72},{"beat":173.0,"padIndex":1,"midi":34,"velocity":73},{"beat":173.0,"padIndex":2,"midi":42,"velocity":71},{"beat":174.0,"padIndex":2,"midi":42,"velocity":82},{"beat":174.5,"padIndex":0,"midi":36,"velocity":90},{"beat":174.5,"padIndex":2,"midi":42,"velocity":52},{"beat":175.0,"padIndex":1,"midi":34,"velocity":75},{"beat":175.0,"padIndex":2,"midi":42,"velocity":73},{"beat":175.5,"padIndex":0,"midi":36,"velocity":86},{"beat":176.0,"padIndex":0,"midi":36,"velocity":91},{"beat":176.0,"padIndex":2,"midi":42,"velocity":70},{"beat":177.0,"padIndex":1,"midi":34,"velocity":73},{"beat":177.0,"padIndex":2,"midi":42,"velocity":73},{"beat":178.0,"padIndex":2,"midi":42,"velocity":82},{"beat":178.5,"padIndex":0,"midi":36,"velocity":89},{"beat":179.0,"padIndex":1,"midi":34,"velocity":75},{"beat":179.0,"padIndex":2,"midi":42,"velocity":72},{"beat":179.5,"padIndex":0,"midi":36,"velocity":90},{"beat":180.0,"padIndex":0,"midi":36,"velocity":87},{"beat":180.0,"padIndex":2,"midi":42,"velocity":75},{"beat":181.0,"padIndex":1,"midi":34,"velocity":73},{"beat":181.0,"padIndex":2,"midi":42,"velocity":73},{"beat":181.75,"padIndex":1,"midi":34,"velocity":45},{"beat":182.0,"padIndex":2,"midi":42,"velocity":82},{"beat":182.5,"padIndex":0,"midi":36,"velocity":87},{"beat":182.5,"padIndex":3,"midi":46,"velocity":75},{"beat":183.0,"padIndex":1,"midi":34,"velocity":75},{"beat":183.0,"padIndex":2,"midi":42,"velocity":74},{"beat":183.5,"padIndex":0,"midi":36,"velocity":87},{"beat":183.5,"padIndex":2,"midi":42,"velocity":62},{"beat":184.0,"padIndex":0,"midi":36,"velocity":90},{"beat":184.0,"padIndex":12,"midi":49,"velocity":59},{"beat":184.0,"padIndex":12,"midi":57,"velocity":55},{"beat":185.0,"padIndex":1,"midi":34,"velocity":73},{"beat":185.0,"padIndex":2,"midi":42,"velocity":75},{"beat":186.0,"padIndex":2,"midi":42,"velocity":75},{"beat":186.5,"padIndex":0,"midi":36,"velocity":88},{"beat":187.0,"padIndex":1,"midi":34,"velocity":75},{"beat":187.0,"padIndex":2,"midi":42,"velocity":69},{"beat":187.5,"padIndex":0,"midi":36,"velocity":90},{"beat":188.0,"padIndex":0,"midi":36,"velocity":88},{"beat":188.0,"padIndex":2,"midi":42,"velocity":70},{"beat":189.0,"padIndex":1,"midi":34,"velocity":73},{"beat":189.0,"padIndex":2,"midi":42,"velocity":69},{"beat":190.0,"padIndex":2,"midi":42,"velocity":82},{"beat":190.5,"padIndex":0,"midi":36,"velocity":88},{"beat":191.0,"padIndex":1,"midi":34,"velocity":75},{"beat":191.0,"padIndex":2,"midi":42,"velocity":72},{"beat":191.5,"padIndex":0,"midi":36,"velocity":90},{"beat":192.0,"padIndex":0,"midi":36,"velocity":91},{"beat":192.0,"padIndex":2,"midi":42,"velocity":70},{"beat":193.0,"padIndex":1,"midi":34,"velocity":73},{"beat":193.0,"padIndex":2,"midi":42,"velocity":69},{"beat":194.0,"padIndex":2,"midi":42,"velocity":82},{"beat":194.5,"padIndex":0,"midi":36,"velocity":87},{"beat":195.0,"padIndex":1,"midi":34,"velocity":75},{"beat":195.0,"padIndex":2,"midi":42,"velocity":73},{"beat":195.5,"padIndex":0,"midi":36,"velocity":90},{"beat":196.0,"padIndex":0,"midi":36,"velocity":91},{"beat":196.0,"padIndex":2,"midi":42,"velocity":77},{"beat":196.5,"padIndex":1,"midi":34,"velocity":73},{"beat":197.0,"padIndex":0,"midi":36,"velocity":87},{"beat":197.0,"padIndex":2,"midi":42,"velocity":69},{"beat":197.5,"padIndex":0,"midi":36,"velocity":88},{"beat":198.0,"padIndex":1,"midi":34,"velocity":73},{"beat":198.0,"padIndex":2,"midi":42,"velocity":70},{"beat":198.5,"padIndex":0,"midi":36,"velocity":89},{"beat":199.0,"padIndex":0,"midi":36,"velocity":88},{"beat":199.0,"padIndex":1,"midi":34,"velocity":75},{"beat":199.0,"padIndex":3,"midi":46,"velocity":75},{"beat":199.5,"padIndex":1,"midi":34,"velocity":68},{"beat":199.75,"padIndex":1,"midi":34,"velocity":75},{"beat":200.0,"padIndex":0,"midi":36,"velocity":87},{"beat":200.0,"padIndex":12,"midi":57,"velocity":59},{"beat":200.0,"padIndex":12,"midi":49,"velocity":59},{"beat":201.0,"padIndex":1,"midi":34,"velocity":73},{"beat":201.0,"padIndex":2,"midi":42,"velocity":73},{"beat":202.0,"padIndex":2,"midi":42,"velocity":82},{"beat":202.25,"padIndex":1,"midi":34,"velocity":55},{"beat":202.5,"padIndex":0,"midi":36,"velocity":91},{"beat":203.0,"padIndex":1,"midi":34,"velocity":75},{"beat":203.0,"padIndex":2,"midi":42,"velocity":69},{"beat":203.5,"padIndex":0,"midi":36,"velocity":90},{"beat":204.0,"padIndex":0,"midi":36,"velocity":91},{"beat":204.0,"padIndex":2,"midi":42,"velocity":69},{"beat":205.0,"padIndex":1,"midi":34,"velocity":73},{"beat":205.0,"padIndex":2,"midi":42,"velocity":72},{"beat":206.0,"padIndex":2,"midi":42,"velocity":82},{"beat":206.25,"padIndex":1,"midi":34,"velocity":55},{"beat":206.5,"padIndex":0,"midi":36,"velocity":87},{"beat":206.5,"padIndex":3,"midi":46,"velocity":62},{"beat":207.0,"padIndex":1,"midi":34,"velocity":75},{"beat":207.0,"padIndex":2,"midi":42,"velocity":75},{"beat":207.5,"padIndex":0,"midi":36,"velocity":87},{"beat":208.0,"padIndex":0,"midi":36,"velocity":88},{"beat":208.0,"padIndex":2,"midi":42,"velocity":71},{"beat":208.25,"padIndex":1,"midi":34,"velocity":45},{"beat":209.0,"padIndex":1,"midi":34,"velocity":73},{"beat":209.0,"padIndex":2,"midi":42,"velocity":70},{"beat":210.0,"padIndex":2,"midi":42,"velocity":73},{"beat":210.25,"padIndex":1,"midi":34,"velocity":55},{"beat":210.5,"padIndex":0,"midi":36,"velocity":92},{"beat":211.0,"padIndex":1,"midi":34,"velocity":75},{"beat":211.0,"padIndex":2,"midi":42,"velocity":75},{"beat":211.5,"padIndex":0,"midi":36,"velocity":87},{"beat":211.75,"padIndex":1,"midi":34,"velocity":45},{"beat":212.0,"padIndex":0,"midi":36,"velocity":89},{"beat":212.0,"padIndex":2,"midi":42,"velocity":72},{"beat":213.0,"padIndex":1,"midi":34,"velocity":73},{"beat":213.0,"padIndex":2,"midi":42,"velocity":75},{"beat":213.5,"padIndex":0,"midi":36,"velocity":89},{"beat":213.5,"padIndex":3,"midi":46,"velocity":70},{"beat":214.0,"padIndex":2,"midi":42,"velocity":73},{"beat":214.25,"padIndex":1,"midi":34,"velocity":55},{"beat":214.5,"padIndex":0,"midi":36,"velocity":92},{"beat":215.0,"padIndex":1,"midi":34,"velocity":75},{"beat":215.0,"padIndex":2,"midi":42,"velocity":74},{"beat":215.5,"padIndex":0,"midi":36,"velocity":92},{"beat":216.0,"padIndex":0,"midi":36,"velocity":87},{"beat":216.0,"padIndex":12,"midi":57,"velocity":59},{"beat":216.0,"padIndex":12,"midi":49,"velocity":59},{"beat":217.0,"padIndex":1,"midi":34,"velocity":73},{"beat":217.0,"padIndex":2,"midi":42,"velocity":70},{"beat":218.0,"padIndex":2,"midi":42,"velocity":82},{"beat":218.25,"padIndex":1,"midi":34,"velocity":55},{"beat":218.5,"padIndex":0,"midi":36,"velocity":91},{"beat":219.0,"padIndex":1,"midi":34,"velocity":75},{"beat":219.0,"padIndex":2,"midi":42,"velocity":70},{"beat":219.5,"padIndex":0,"midi":36,"velocity":92},{"beat":220.0,"padIndex":0,"midi":36,"velocity":90},{"beat":220.0,"padIndex":2,"midi":42,"velocity":70},{"beat":221.0,"padIndex":1,"midi":34,"velocity":73},{"beat":221.0,"padIndex":2,"midi":42,"velocity":74},{"beat":222.0,"padIndex":2,"midi":42,"velocity":82},{"beat":222.25,"padIndex":1,"midi":34,"velocity":55},{"beat":222.5,"padIndex":0,"midi":36,"velocity":90},{"beat":223.0,"padIndex":1,"midi":34,"velocity":75},{"beat":223.0,"padIndex":2,"midi":42,"velocity":74},{"beat":223.5,"padIndex":0,"midi":36,"velocity":90},{"beat":223.75,"padIndex":1,"midi":34,"velocity":55},{"beat":224.0,"padIndex":0,"midi":36,"velocity":87},{"beat":224.0,"padIndex":2,"midi":42,"velocity":72},{"beat":224.25,"padIndex":1,"midi":34,"velocity":55},{"beat":224.5,"padIndex":0,"midi":36,"velocity":90},{"beat":225.0,"padIndex":1,"midi":34,"velocity":73},{"beat":225.0,"padIndex":3,"midi":46,"velocity":71},{"beat":225.75,"padIndex":1,"midi":34,"velocity":69},{"beat":226.0,"padIndex":0,"midi":36,"velocity":89},{"beat":226.0,"padIndex":1,"midi":34,"velocity":69},{"beat":226.0,"padIndex":3,"midi":46,"velocity":77},{"beat":226.25,"padIndex":1,"midi":34,"velocity":75},{"beat":226.5,"padIndex":1,"midi":34,"velocity":68},{"beat":226.75,"padIndex":1,"midi":34,"velocity":68},{"beat":227.0,"padIndex":0,"midi":36,"velocity":89},{"beat":227.0,"padIndex":1,"midi":34,"velocity":75},{"beat":227.25,"padIndex":1,"midi":34,"velocity":68},{"beat":227.5,"padIndex":1,"midi":34,"velocity":75},{"beat":227.75,"padIndex":1,"midi":34,"velocity":75},{"beat":230.0,"padIndex":2,"midi":44,"velocity":62},{"beat":230.5,"padIndex":0,"midi":36,"velocity":92},{"beat":230.75,"padIndex":0,"midi":36,"velocity":86},{"beat":231.0,"padIndex":1,"midi":34,"velocity":67},{"beat":231.0,"padIndex":6,"midi":43,"velocity":56},{"beat":231.0,"padIndex":12,"midi":57,"velocity":45},{"beat":231.0,"padIndex":12,"midi":49,"velocity":45},{"beat":232.0,"padIndex":0,"midi":36,"velocity":86},{"beat":232.0,"padIndex":12,"midi":57,"velocity":59},{"beat":232.0,"padIndex":12,"midi":49,"velocity":59},{"beat":232.02083,"padIndex":11,"midi":54,"velocity":75},{"beat":232.27083,"padIndex":11,"midi":54,"velocity":36},{"beat":232.52083,"padIndex":11,"midi":54,"velocity":52},{"beat":232.77083,"padIndex":11,"midi":54,"velocity":32},{"beat":233.0,"padIndex":1,"midi":34,"velocity":73},{"beat":233.0,"padIndex":3,"midi":46,"velocity":69},{"beat":233.02083,"padIndex":11,"midi":54,"velocity":85},{"beat":233.27083,"padIndex":11,"midi":54,"velocity":45},{"beat":233.52083,"padIndex":11,"midi":54,"velocity":59},{"beat":233.75,"padIndex":1,"midi":34,"velocity":50},{"beat":233.77083,"padIndex":11,"midi":54,"velocity":44},{"beat":234.0,"padIndex":0,"midi":36,"velocity":86},{"beat":234.0,"padIndex":3,"midi":46,"velocity":71},{"beat":234.02083,"padIndex":11,"midi":54,"velocity":75},{"beat":234.25,"padIndex":1,"midi":34,"velocity":50},{"beat":234.27083,"padIndex":11,"midi":54,"velocity":36},{"beat":234.5,"padIndex":0,"midi":36,"velocity":92},{"beat":234.52083,"padIndex":11,"midi":54,"velocity":52},{"beat":234.77083,"padIndex":11,"midi":54,"velocity":32},{"beat":235.0,"padIndex":1,"midi":34,"velocity":75},{"beat":235.0,"padIndex":3,"midi":46,"velocity":70},{"beat":235.02083,"padIndex":11,"midi":54,"velocity":85},{"beat":235.27083,"padIndex":11,"midi":54,"velocity":45},{"beat":235.52083,"padIndex":11,"midi":54,"velocity":59},{"beat":235.75,"padIndex":1,"midi":34,"velocity":45},{"beat":235.77083,"padIndex":11,"midi":54,"velocity":44},{"beat":236.0,"padIndex":0,"midi":36,"velocity":90},{"beat":236.0,"padIndex":3,"midi":46,"velocity":72},{"beat":236.02083,"padIndex":11,"midi":54,"velocity":75},{"beat":236.27083,"padIndex":11,"midi":54,"velocity":36},{"beat":236.52083,"padIndex":11,"midi":54,"velocity":52},{"beat":236.77083,"padIndex":11,"midi":54,"velocity":32},{"beat":237.0,"padIndex":1,"midi":34,"velocity":73},{"beat":237.0,"padIndex":3,"midi":46,"velocity":71},{"beat":237.02083,"padIndex":11,"midi":54,"velocity":85},{"beat":237.27083,"padIndex":11,"midi":54,"velocity":45},{"beat":237.52083,"padIndex":11,"midi":54,"velocity":59},{"beat":237.77083,"padIndex":11,"midi":54,"velocity":44},{"beat":238.0,"padIndex":0,"midi":36,"velocity":89},{"beat":238.0,"padIndex":3,"midi":46,"velocity":69},{"beat":238.02083,"padIndex":11,"midi":54,"velocity":75},{"beat":238.27083,"padIndex":11,"midi":54,"velocity":36},{"beat":238.5,"padIndex":0,"midi":36,"velocity":90},{"beat":238.52083,"padIndex":11,"midi":54,"velocity":52},{"beat":238.77083,"padIndex":11,"midi":54,"velocity":32},{"beat":239.0,"padIndex":1,"midi":34,"velocity":75},{"beat":239.0,"padIndex":3,"midi":46,"velocity":69},{"beat":239.02083,"padIndex":11,"midi":54,"velocity":85},{"beat":239.27083,"padIndex":11,"midi":54,"velocity":45},{"beat":239.52083,"padIndex":11,"midi":54,"velocity":59},{"beat":239.77083,"padIndex":11,"midi":54,"velocity":44},{"beat":240.0,"padIndex":0,"midi":36,"velocity":88},{"beat":240.0,"padIndex":3,"midi":46,"velocity":70},{"beat":240.02083,"padIndex":11,"midi":54,"velocity":75},{"beat":240.27083,"padIndex":11,"midi":54,"velocity":36},{"beat":240.52083,"padIndex":11,"midi":54,"velocity":52},{"beat":240.77083,"padIndex":11,"midi":54,"velocity":32},{"beat":241.0,"padIndex":1,"midi":34,"velocity":73},{"beat":241.0,"padIndex":3,"midi":46,"velocity":71},{"beat":241.02083,"padIndex":11,"midi":54,"velocity":85},{"beat":241.27083,"padIndex":11,"midi":54,"velocity":45},{"beat":241.52083,"padIndex":11,"midi":54,"velocity":59},{"beat":241.75,"padIndex":1,"midi":34,"velocity":45},{"beat":241.77083,"padIndex":11,"midi":54,"velocity":44},{"beat":242.0,"padIndex":0,"midi":36,"velocity":89},{"beat":242.0,"padIndex":3,"midi":46,"velocity":70},{"beat":242.02083,"padIndex":11,"midi":54,"velocity":75},{"beat":242.27083,"padIndex":11,"midi":54,"velocity":36},{"beat":242.5,"padIndex":0,"midi":36,"velocity":91},{"beat":242.52083,"padIndex":11,"midi":54,"velocity":52},{"beat":242.77083,"padIndex":11,"midi":54,"velocity":32},{"beat":243.0,"padIndex":1,"midi":34,"velocity":75},{"beat":243.0,"padIndex":3,"midi":46,"velocity":72},{"beat":243.02083,"padIndex":11,"midi":54,"velocity":85},{"beat":243.27083,"padIndex":11,"midi":54,"velocity":45},{"beat":243.52083,"padIndex":11,"midi":54,"velocity":59},{"beat":243.75,"padIndex":1,"midi":34,"velocity":50},{"beat":243.77083,"padIndex":11,"midi":54,"velocity":44},{"beat":244.0,"padIndex":0,"midi":36,"velocity":88},{"beat":244.0,"padIndex":3,"midi":46,"velocity":73},{"beat":244.02083,"padIndex":11,"midi":54,"velocity":75},{"beat":244.27083,"padIndex":11,"midi":54,"velocity":36},{"beat":244.52083,"padIndex":11,"midi":54,"velocity":52},{"beat":244.77083,"padIndex":11,"midi":54,"velocity":32},{"beat":245.0,"padIndex":1,"midi":34,"velocity":73},{"beat":245.0,"padIndex":3,"midi":46,"velocity":69},{"beat":245.02083,"padIndex":11,"midi":54,"velocity":85},{"beat":245.27083,"padIndex":11,"midi":54,"velocity":45},{"beat":245.52083,"padIndex":11,"midi":54,"velocity":59},{"beat":245.75,"padIndex":1,"midi":34,"velocity":45},{"beat":245.77083,"padIndex":11,"midi":54,"velocity":44},{"beat":246.0,"padIndex":0,"midi":36,"velocity":92},{"beat":246.0,"padIndex":3,"midi":46,"velocity":69},{"beat":246.02083,"padIndex":11,"midi":54,"velocity":75},{"beat":246.27083,"padIndex":11,"midi":54,"velocity":36},{"beat":246.5,"padIndex":0,"midi":36,"velocity":89},{"beat":246.52083,"padIndex":11,"midi":54,"velocity":52},{"beat":246.77083,"padIndex":11,"midi":54,"velocity":32},{"beat":247.0,"padIndex":1,"midi":34,"velocity":75},{"beat":247.0,"padIndex":3,"midi":46,"velocity":71},{"beat":247.02083,"padIndex":11,"midi":54,"velocity":85},{"beat":247.27083,"padIndex":11,"midi":54,"velocity":45},{"beat":247.5,"padIndex":0,"midi":36,"velocity":90},{"beat":247.52083,"padIndex":11,"midi":54,"velocity":59},{"beat":247.77083,"padIndex":11,"midi":54,"velocity":44},{"beat":248.0,"padIndex":0,"midi":36,"velocity":91},{"beat":248.0,"padIndex":12,"midi":57,"velocity":59},{"beat":248.0,"padIndex":12,"midi":49,"velocity":55},{"beat":248.02083,"padIndex":11,"midi":54,"velocity":75},{"beat":248.27083,"padIndex":11,"midi":54,"velocity":36},{"beat":248.52083,"padIndex":11,"midi":54,"velocity":52},{"beat":248.77083,"padIndex":11,"midi":54,"velocity":32},{"beat":249.0,"padIndex":1,"midi":34,"velocity":73},{"beat":249.0,"padIndex":3,"midi":46,"velocity":70},{"beat":249.02083,"padIndex":11,"midi":54,"velocity":85},{"beat":249.27083,"padIndex":11,"midi":54,"velocity":45},{"beat":249.52083,"padIndex":11,"midi":54,"velocity":59},{"beat":249.75,"padIndex":1,"midi":34,"velocity":50},{"beat":249.77083,"padIndex":11,"midi":54,"velocity":44},{"beat":250.0,"padIndex":0,"midi":36,"velocity":92},{"beat":250.0,"padIndex":3,"midi":46,"velocity":72},{"beat":250.02083,"padIndex":11,"midi":54,"velocity":75},{"beat":250.27083,"padIndex":11,"midi":54,"velocity":36},{"beat":250.5,"padIndex":0,"midi":36,"velocity":89},{"beat":250.52083,"padIndex":11,"midi":54,"velocity":52},{"beat":250.77083,"padIndex":11,"midi":54,"velocity":32},{"beat":251.0,"padIndex":1,"midi":34,"velocity":75},{"beat":251.0,"padIndex":3,"midi":46,"velocity":73},{"beat":251.02083,"padIndex":11,"midi":54,"velocity":85},{"beat":251.27083,"padIndex":11,"midi":54,"velocity":45},{"beat":251.52083,"padIndex":11,"midi":54,"velocity":59},{"beat":251.75,"padIndex":1,"midi":34,"velocity":45},{"beat":251.77083,"padIndex":11,"midi":54,"velocity":44},{"beat":252.0,"padIndex":0,"midi":36,"velocity":91},{"beat":252.0,"padIndex":3,"midi":46,"velocity":72},{"beat":252.02083,"padIndex":11,"midi":54,"velocity":75},{"beat":252.27083,"padIndex":11,"midi":54,"velocity":36},{"beat":252.52083,"padIndex":11,"midi":54,"velocity":52},{"beat":252.77083,"padIndex":11,"midi":54,"velocity":32},{"beat":253.0,"padIndex":1,"midi":34,"velocity":73},{"beat":253.0,"padIndex":3,"midi":46,"velocity":73},{"beat":253.02083,"padIndex":11,"midi":54,"velocity":85},{"beat":253.27083,"padIndex":11,"midi":54,"velocity":45},{"beat":253.52083,"padIndex":11,"midi":54,"velocity":59},{"beat":253.75,"padIndex":1,"midi":34,"velocity":55},{"beat":253.77083,"padIndex":11,"midi":54,"velocity":44},{"beat":254.0,"padIndex":0,"midi":36,"velocity":86},{"beat":254.0,"padIndex":3,"midi":46,"velocity":69},{"beat":254.02083,"padIndex":11,"midi":54,"velocity":75},{"beat":254.27083,"padIndex":11,"midi":54,"velocity":36},{"beat":254.5,"padIndex":0,"midi":36,"velocity":90},{"beat":254.52083,"padIndex":11,"midi":54,"velocity":52},{"beat":254.77083,"padIndex":11,"midi":54,"velocity":32},{"beat":255.0,"padIndex":1,"midi":34,"velocity":75},{"beat":255.0,"padIndex":3,"midi":46,"velocity":74},{"beat":255.02083,"padIndex":11,"midi":54,"velocity":85},{"beat":255.27083,"padIndex":11,"midi":54,"velocity":45},{"beat":255.52083,"padIndex":11,"midi":54,"velocity":59},{"beat":255.75,"padIndex":1,"midi":34,"velocity":50},{"beat":255.77083,"padIndex":11,"midi":54,"velocity":44},{"beat":256.0,"padIndex":0,"midi":36,"velocity":90},{"beat":256.0,"padIndex":3,"midi":46,"velocity":70},{"beat":256.02083,"padIndex":11,"midi":54,"velocity":75},{"beat":256.27083,"padIndex":11,"midi":54,"velocity":36},{"beat":256.52083,"padIndex":11,"midi":54,"velocity":52},{"beat":256.77083,"padIndex":11,"midi":54,"velocity":32},{"beat":257.0,"padIndex":1,"midi":34,"velocity":73},{"beat":257.0,"padIndex":3,"midi":46,"velocity":69},{"beat":257.02083,"padIndex":11,"midi":54,"velocity":85},{"beat":257.27083,"padIndex":11,"midi":54,"velocity":45},{"beat":257.52083,"padIndex":11,"midi":54,"velocity":59},{"beat":257.75,"padIndex":1,"midi":34,"velocity":59},{"beat":257.77083,"padIndex":11,"midi":54,"velocity":44},{"beat":258.0,"padIndex":0,"midi":36,"velocity":86},{"beat":258.0,"padIndex":3,"midi":46,"velocity":73},{"beat":258.02083,"padIndex":11,"midi":54,"velocity":75},{"beat":258.25,"padIndex":1,"midi":34,"velocity":55},{"beat":258.27083,"padIndex":11,"midi":54,"velocity":36},{"beat":258.5,"padIndex":0,"midi":36,"velocity":91},{"beat":258.52083,"padIndex":11,"midi":54,"velocity":52},{"beat":258.77083,"padIndex":11,"midi":54,"velocity":32},{"beat":259.0,"padIndex":1,"midi":34,"velocity":75},{"beat":259.0,"padIndex":3,"midi":46,"velocity":69},{"beat":259.02083,"padIndex":11,"midi":54,"velocity":85},{"beat":259.27083,"padIndex":11,"midi":54,"velocity":45},{"beat":259.52083,"padIndex":11,"midi":54,"velocity":59},{"beat":259.75,"padIndex":1,"midi":34,"velocity":60},{"beat":259.77083,"padIndex":11,"midi":54,"velocity":44},{"beat":260.0,"padIndex":0,"midi":36,"velocity":92},{"beat":260.0,"padIndex":3,"midi":46,"velocity":69},{"beat":260.02083,"padIndex":11,"midi":54,"velocity":75},{"beat":260.27083,"padIndex":11,"midi":54,"velocity":36},{"beat":260.5,"padIndex":0,"midi":36,"velocity":89},{"beat":260.52083,"padIndex":11,"midi":54,"velocity":52},{"beat":260.77083,"padIndex":11,"midi":54,"velocity":32},{"beat":261.0,"padIndex":1,"midi":34,"velocity":73},{"beat":261.0,"padIndex":3,"midi":46,"velocity":69},{"beat":261.02083,"padIndex":11,"midi":54,"velocity":85},{"beat":261.27083,"padIndex":11,"midi":54,"velocity":45},{"beat":261.52083,"padIndex":11,"midi":54,"velocity":59},{"beat":261.75,"padIndex":1,"midi":34,"velocity":70},{"beat":261.77083,"padIndex":11,"midi":54,"velocity":44},{"beat":262.0,"padIndex":0,"midi":36,"velocity":88},{"beat":262.0,"padIndex":1,"midi":34,"velocity":75},{"beat":262.0,"padIndex":3,"midi":46,"velocity":74},{"beat":262.02083,"padIndex":11,"midi":54,"velocity":75},{"beat":262.25,"padIndex":1,"midi":34,"velocity":70},{"beat":262.27083,"padIndex":11,"midi":54,"velocity":36},{"beat":262.5,"padIndex":1,"midi":34,"velocity":75},{"beat":262.52083,"padIndex":11,"midi":54,"velocity":52},{"beat":262.75,"padIndex":1,"midi":34,"velocity":69},{"beat":262.77083,"padIndex":11,"midi":54,"velocity":32},{"beat":263.0,"padIndex":0,"midi":36,"velocity":89},{"beat":263.0,"padIndex":1,"midi":34,"velocity":75},{"beat":263.02083,"padIndex":11,"midi":54,"velocity":85},{"beat":263.25,"padIndex":1,"midi":34,"velocity":70},{"beat":263.27083,"padIndex":11,"midi":54,"velocity":45},{"beat":263.5,"padIndex":1,"midi":34,"velocity":75},{"beat":263.52083,"padIndex":11,"midi":54,"velocity":59},{"beat":263.75,"padIndex":1,"midi":34,"velocity":70},{"beat":263.77083,"padIndex":11,"midi":54,"velocity":44},{"beat":264.0,"padIndex":0,"midi":36,"velocity":92},{"beat":264.0,"padIndex":12,"midi":57,"velocity":59},{"beat":264.0,"padIndex":12,"midi":49,"velocity":59},{"beat":264.02083,"padIndex":11,"midi":54,"velocity":75},{"beat":264.27083,"padIndex":11,"midi":54,"velocity":36},{"beat":264.52083,"padIndex":11,"midi":54,"velocity":52},{"beat":264.77083,"padIndex":11,"midi":54,"velocity":32},{"beat":265.0,"padIndex":1,"midi":34,"velocity":73},{"beat":265.0,"padIndex":3,"midi":46,"velocity":69},{"beat":265.02083,"padIndex":11,"midi":54,"velocity":85},{"beat":265.27083,"padIndex":11,"midi":54,"velocity":45},{"beat":265.52083,"padIndex":11,"midi":54,"velocity":59},{"beat":265.75,"padIndex":1,"midi":34,"velocity":55},{"beat":265.77083,"padIndex":11,"midi":54,"velocity":44},{"beat":266.0,"padIndex":0,"midi":36,"velocity":87},{"beat":266.0,"padIndex":3,"midi":46,"velocity":73},{"beat":266.02083,"padIndex":11,"midi":54,"velocity":75},{"beat":266.25,"padIndex":1,"midi":34,"velocity":45},{"beat":266.27083,"padIndex":11,"midi":54,"velocity":36},{"beat":266.5,"padIndex":0,"midi":36,"velocity":87},{"beat":266.52083,"padIndex":11,"midi":54,"velocity":52},{"beat":266.77083,"padIndex":11,"midi":54,"velocity":32},{"beat":267.0,"padIndex":1,"midi":34,"velocity":75},{"beat":267.0,"padIndex":3,"midi":46,"velocity":69},{"beat":267.02083,"padIndex":11,"midi":54,"velocity":85},{"beat":267.27083,"padIndex":11,"midi":54,"velocity":45},{"beat":267.52083,"padIndex":11,"midi":54,"velocity":59},{"beat":267.75,"padIndex":1,"midi":34,"velocity":45},{"beat":267.77083,"padIndex":11,"midi":54,"velocity":44},{"beat":268.0,"padIndex":0,"midi":36,"velocity":90},{"beat":268.0,"padIndex":3,"midi":46,"velocity":69},{"beat":268.02083,"padIndex":11,"midi":54,"velocity":75},{"beat":268.27083,"padIndex":11,"midi":54,"velocity":36},{"beat":268.52083,"padIndex":11,"midi":54,"velocity":52},{"beat":268.77083,"padIndex":11,"midi":54,"velocity":32},{"beat":269.0,"padIndex":1,"midi":34,"velocity":73},{"beat":269.0,"padIndex":3,"midi":46,"velocity":73},{"beat":269.02083,"padIndex":11,"midi":54,"velocity":85},{"beat":269.27083,"padIndex":11,"midi":54,"velocity":45},{"beat":269.52083,"padIndex":11,"midi":54,"velocity":59},{"beat":269.75,"padIndex":1,"midi":34,"velocity":55},{"beat":269.77083,"padIndex":11,"midi":54,"velocity":44},{"beat":270.0,"padIndex":0,"midi":36,"velocity":88},{"beat":270.0,"padIndex":3,"midi":46,"velocity":70},{"beat":270.02083,"padIndex":11,"midi":54,"velocity":75},{"beat":270.27083,"padIndex":11,"midi":54,"velocity":36},{"beat":270.5,"padIndex":0,"midi":36,"velocity":92},{"beat":270.52083,"padIndex":11,"midi":54,"velocity":52},{"beat":270.77083,"padIndex":11,"midi":54,"velocity":32},{"beat":271.0,"padIndex":1,"midi":34,"velocity":75},{"beat":271.0,"padIndex":3,"midi":46,"velocity":72},{"beat":271.02083,"padIndex":11,"midi":54,"velocity":85},{"beat":271.27083,"padIndex":11,"midi":54,"velocity":45},{"beat":271.52083,"padIndex":11,"midi":54,"velocity":59},{"beat":271.75,"padIndex":1,"midi":34,"velocity":55},{"beat":271.77083,"padIndex":11,"midi":54,"velocity":44},{"beat":272.0,"padIndex":0,"midi":36,"velocity":88},{"beat":272.0,"padIndex":3,"midi":46,"velocity":69},{"beat":272.02083,"padIndex":11,"midi":54,"velocity":75},{"beat":272.27083,"padIndex":11,"midi":54,"velocity":36},{"beat":272.52083,"padIndex":11,"midi":54,"velocity":52},{"beat":272.77083,"padIndex":11,"midi":54,"velocity":32},{"beat":273.0,"padIndex":1,"midi":34,"velocity":73},{"beat":273.0,"padIndex":3,"midi":46,"velocity":71},{"beat":273.02083,"padIndex":11,"midi":54,"velocity":85},{"beat":273.27083,"padIndex":11,"midi":54,"velocity":45},{"beat":273.52083,"padIndex":11,"midi":54,"velocity":59},{"beat":273.75,"padIndex":1,"midi":34,"velocity":55},{"beat":273.77083,"padIndex":11,"midi":54,"velocity":44},{"beat":274.0,"padIndex":0,"midi":36,"velocity":87},{"beat":274.0,"padIndex":3,"midi":46,"velocity":71},{"beat":274.02083,"padIndex":11,"midi":54,"velocity":75},{"beat":274.27083,"padIndex":11,"midi":54,"velocity":36},{"beat":274.5,"padIndex":0,"midi":36,"velocity":87},{"beat":274.52083,"padIndex":11,"midi":54,"velocity":52},{"beat":274.77083,"padIndex":11,"midi":54,"velocity":32},{"beat":275.0,"padIndex":1,"midi":34,"velocity":75},{"beat":275.0,"padIndex":3,"midi":46,"velocity":69},{"beat":275.02083,"padIndex":11,"midi":54,"velocity":85},{"beat":275.27083,"padIndex":11,"midi":54,"velocity":45},{"beat":275.52083,"padIndex":11,"midi":54,"velocity":59},{"beat":275.77083,"padIndex":11,"midi":54,"velocity":44},{"beat":276.0,"padIndex":0,"midi":36,"velocity":92},{"beat":276.0,"padIndex":3,"midi":46,"velocity":69},{"beat":276.02083,"padIndex":11,"midi":54,"velocity":75},{"beat":276.27083,"padIndex":11,"midi":54,"velocity":36},{"beat":276.52083,"padIndex":11,"midi":54,"velocity":52},{"beat":276.77083,"padIndex":11,"midi":54,"velocity":32},{"beat":277.0,"padIndex":1,"midi":34,"velocity":73},{"beat":277.0,"padIndex":3,"midi":46,"velocity":71},{"beat":277.02083,"padIndex":11,"midi":54,"velocity":85},{"beat":277.27083,"padIndex":11,"midi":54,"velocity":45},{"beat":277.52083,"padIndex":11,"midi":54,"velocity":59},{"beat":277.75,"padIndex":1,"midi":34,"velocity":45},{"beat":277.77083,"padIndex":11,"midi":54,"velocity":44},{"beat":278.0,"padIndex":0,"midi":36,"velocity":88},{"beat":278.0,"padIndex":3,"midi":46,"velocity":74},{"beat":278.02083,"padIndex":11,"midi":54,"velocity":75},{"beat":278.27083,"padIndex":11,"midi":54,"velocity":36},{"beat":278.5,"padIndex":0,"midi":36,"velocity":87},{"beat":278.52083,"padIndex":11,"midi":54,"velocity":52},{"beat":278.77083,"padIndex":11,"midi":54,"velocity":32},{"beat":279.0,"padIndex":1,"midi":34,"velocity":75},{"beat":279.0,"padIndex":3,"midi":46,"velocity":70},{"beat":279.02083,"padIndex":11,"midi":54,"velocity":85},{"beat":279.27083,"padIndex":11,"midi":54,"velocity":45},{"beat":279.5,"padIndex":6,"midi":45,"velocity":77},{"beat":279.52083,"padIndex":11,"midi":54,"velocity":59},{"beat":279.75,"padIndex":6,"midi":45,"velocity":65},{"beat":279.77083,"padIndex":11,"midi":54,"velocity":44},{"beat":280.0,"padIndex":0,"midi":36,"velocity":89},{"beat":280.0,"padIndex":12,"midi":49,"velocity":59},{"beat":280.0,"padIndex":12,"midi":57,"velocity":55},{"beat":280.02083,"padIndex":11,"midi":54,"velocity":75},{"beat":280.27083,"padIndex":11,"midi":54,"velocity":36},{"beat":280.52083,"padIndex":11,"midi":54,"velocity":52},{"beat":280.77083,"padIndex":11,"midi":54,"velocity":32},{"beat":281.0,"padIndex":1,"midi":34,"velocity":73},{"beat":281.0,"padIndex":3,"midi":46,"velocity":69},{"beat":281.02083,"padIndex":11,"midi":54,"velocity":85},{"beat":281.27083,"padIndex":11,"midi":54,"velocity":45},{"beat":281.5,"padIndex":1,"midi":34,"velocity":45},{"beat":281.52083,"padIndex":11,"midi":54,"velocity":59},{"beat":281.75,"padIndex":1,"midi":34,"velocity":50},{"beat":281.77083,"padIndex":11,"midi":54,"velocity":44},{"beat":282.0,"padIndex":0,"midi":36,"velocity":92},{"beat":282.0,"padIndex":3,"midi":46,"velocity":69},{"beat":282.02083,"padIndex":11,"midi":54,"velocity":75},{"beat":282.27083,"padIndex":11,"midi":54,"velocity":36},{"beat":282.5,"padIndex":0,"midi":36,"velocity":87},{"beat":282.52083,"padIndex":11,"midi":54,"velocity":52},{"beat":282.77083,"padIndex":11,"midi":54,"velocity":32},{"beat":283.0,"padIndex":1,"midi":34,"velocity":75},{"beat":283.0,"padIndex":3,"midi":46,"velocity":73},{"beat":283.02083,"padIndex":11,"midi":54,"velocity":85},{"beat":283.27083,"padIndex":11,"midi":54,"velocity":45},{"beat":283.52083,"padIndex":11,"midi":54,"velocity":59},{"beat":283.77083,"padIndex":11,"midi":54,"velocity":44},{"beat":284.0,"padIndex":0,"midi":36,"velocity":88},{"beat":284.0,"padIndex":3,"midi":46,"velocity":73},{"beat":284.0,"padIndex":12,"midi":57,"velocity":53},{"beat":284.02083,"padIndex":11,"midi":54,"velocity":75},{"beat":284.27083,"padIndex":11,"midi":54,"velocity":36},{"beat":284.52083,"padIndex":11,"midi":54,"velocity":52},{"beat":284.77083,"padIndex":11,"midi":54,"velocity":32},{"beat":285.0,"padIndex":1,"midi":34,"velocity":73},{"beat":285.0,"padIndex":3,"midi":46,"velocity":72},{"beat":285.02083,"padIndex":11,"midi":54,"velocity":85},{"beat":285.27083,"padIndex":11,"midi":54,"velocity":45},{"beat":285.52083,"padIndex":11,"midi":54,"velocity":59},{"beat":285.75,"padIndex":1,"midi":34,"velocity":65},{"beat":285.77083,"padIndex":11,"midi":54,"velocity":44},{"beat":286.0,"padIndex":0,"midi":36,"velocity":89},{"beat":286.0,"padIndex":3,"midi":46,"velocity":71},{"beat":286.02083,"padIndex":11,"midi":54,"velocity":75},{"beat":286.27083,"padIndex":11,"midi":54,"velocity":36},{"beat":286.5,"padIndex":0,"midi":36,"velocity":88},{"beat":286.52083,"padIndex":11,"midi":54,"velocity":52},{"beat":286.77083,"padIndex":11,"midi":54,"velocity":32},{"beat":287.0,"padIndex":1,"midi":34,"velocity":75},{"beat":287.0,"padIndex":3,"midi":46,"velocity":73},{"beat":287.02083,"padIndex":11,"midi":54,"velocity":85},{"beat":287.27083,"padIndex":11,"midi":54,"velocity":45},{"beat":287.52083,"padIndex":11,"midi":54,"velocity":59},{"beat":287.75,"padIndex":1,"midi":34,"velocity":45},{"beat":287.77083,"padIndex":11,"midi":54,"velocity":44},{"beat":288.0,"padIndex":0,"midi":36,"velocity":88},{"beat":288.0,"padIndex":12,"midi":57,"velocity":59},{"beat":288.0,"padIndex":12,"midi":49,"velocity":59},{"beat":288.02083,"padIndex":11,"midi":54,"velocity":75},{"beat":288.27083,"padIndex":11,"midi":54,"velocity":36},{"beat":288.52083,"padIndex":11,"midi":54,"velocity":52},{"beat":288.77083,"padIndex":11,"midi":54,"velocity":32},{"beat":289.0,"padIndex":1,"midi":34,"velocity":73},{"beat":289.0,"padIndex":3,"midi":46,"velocity":69},{"beat":289.02083,"padIndex":11,"midi":54,"velocity":85},{"beat":289.27083,"padIndex":11,"midi":54,"velocity":45},{"beat":289.52083,"padIndex":11,"midi":54,"velocity":59},{"beat":289.75,"padIndex":1,"midi":34,"velocity":63},{"beat":289.77083,"padIndex":11,"midi":54,"velocity":44},{"beat":290.0,"padIndex":0,"midi":36,"velocity":90},{"beat":290.0,"padIndex":3,"midi":46,"velocity":71},{"beat":290.02083,"padIndex":11,"midi":54,"velocity":75},{"beat":290.27083,"padIndex":11,"midi":54,"velocity":36},{"beat":290.5,"padIndex":0,"midi":36,"velocity":88},{"beat":290.52083,"padIndex":11,"midi":54,"velocity":52},{"beat":290.77083,"padIndex":11,"midi":54,"velocity":32},{"beat":291.0,"padIndex":1,"midi":34,"velocity":75},{"beat":291.0,"padIndex":3,"midi":46,"velocity":72},{"beat":291.02083,"padIndex":11,"midi":54,"velocity":85},{"beat":291.27083,"padIndex":11,"midi":54,"velocity":45},{"beat":291.52083,"padIndex":11,"midi":54,"velocity":59},{"beat":291.75,"padIndex":1,"midi":34,"velocity":60},{"beat":291.77083,"padIndex":11,"midi":54,"velocity":44},{"beat":292.0,"padIndex":0,"midi":36,"velocity":88},{"beat":292.0,"padIndex":3,"midi":46,"velocity":72},{"beat":292.0,"padIndex":12,"midi":49,"velocity":50},{"beat":292.02083,"padIndex":11,"midi":54,"velocity":75},{"beat":292.27083,"padIndex":11,"midi":54,"velocity":36},{"beat":292.52083,"padIndex":11,"midi":54,"velocity":52},{"beat":292.75,"padIndex":1,"midi":34,"velocity":69},{"beat":292.77083,"padIndex":11,"midi":54,"velocity":32},{"beat":293.0,"padIndex":0,"midi":36,"velocity":89},{"beat":293.0,"padIndex":1,"midi":34,"velocity":75},{"beat":293.02083,"padIndex":11,"midi":54,"velocity":85},{"beat":293.25,"padIndex":1,"midi":34,"velocity":70},{"beat":293.27083,"padIndex":11,"midi":54,"velocity":45},{"beat":293.5,"padIndex":6,"midi":45,"velocity":70},{"beat":293.52083,"padIndex":11,"midi":54,"velocity":59},{"beat":293.75,"padIndex":6,"midi":45,"velocity":62},{"beat":293.77083,"padIndex":11,"midi":54,"velocity":44},{"beat":294.0,"padIndex":0,"midi":36,"velocity":90},{"beat":294.0,"padIndex":7,"midi":47,"velocity":75},{"beat":294.02083,"padIndex":11,"midi":54,"velocity":75},{"beat":294.25,"padIndex":7,"midi":47,"velocity":72},{"beat":294.27083,"padIndex":11,"midi":54,"velocity":36},{"beat":294.5,"padIndex":6,"midi":43,"velocity":75},{"beat":294.52083,"padIndex":11,"midi":54,"velocity":52},{"beat":294.75,"padIndex":6,"midi":43,"velocity":75},{"beat":294.77083,"padIndex":11,"midi":54,"velocity":32},{"beat":295.0,"padIndex":0,"midi":36,"velocity":89},{"beat":295.0,"padIndex":6,"midi":41,"velocity":70},{"beat":295.02083,"padIndex":11,"midi":54,"velocity":85},{"beat":295.27083,"padIndex":11,"midi":54,"velocity":45},{"beat":295.5,"padIndex":6,"midi":41,"velocity":81},{"beat":295.52083,"padIndex":11,"midi":54,"velocity":59},{"beat":295.75,"padIndex":6,"midi":41,"velocity":65},{"beat":295.77083,"padIndex":11,"midi":54,"velocity":44},{"beat":296.0,"padIndex":0,"midi":36,"velocity":90},{"beat":296.0,"padIndex":12,"midi":57,"velocity":59},{"beat":296.0,"padIndex":12,"midi":49,"velocity":45},{"beat":296.5,"padIndex":2,"midi":42,"velocity":74},{"beat":297.0,"padIndex":0,"midi":36,"velocity":88},{"beat":297.0,"padIndex":2,"midi":42,"velocity":71},{"beat":297.5,"padIndex":2,"midi":42,"velocity":69},{"beat":298.0,"padIndex":0,"midi":36,"velocity":86},{"beat":298.0,"padIndex":2,"midi":42,"velocity":69},{"beat":298.5,"padIndex":3,"midi":46,"velocity":62},{"beat":299.0,"padIndex":0,"midi":36,"velocity":89},{"beat":299.0,"padIndex":2,"midi":42,"velocity":75},{"beat":299.5,"padIndex":2,"midi":42,"velocity":82},{"beat":300.0,"padIndex":0,"midi":36,"velocity":91},{"beat":300.0,"padIndex":2,"midi":42,"velocity":73},{"beat":300.5,"padIndex":2,"midi":42,"velocity":71},{"beat":301.0,"padIndex":0,"midi":36,"velocity":90},{"beat":301.0,"padIndex":2,"midi":42,"velocity":75},{"beat":301.5,"padIndex":2,"midi":42,"velocity":75},{"beat":302.0,"padIndex":0,"midi":36,"velocity":86},{"beat":302.0,"padIndex":2,"midi":42,"velocity":75},{"beat":302.5,"padIndex":3,"midi":46,"velocity":72},{"beat":303.0,"padIndex":0,"midi":36,"velocity":92},{"beat":303.0,"padIndex":2,"midi":42,"velocity":75},{"beat":303.5,"padIndex":2,"midi":42,"velocity":69},{"beat":304.0,"padIndex":0,"midi":36,"velocity":90},{"beat":304.0,"padIndex":2,"midi":42,"velocity":70},{"beat":304.5,"padIndex":2,"midi":42,"velocity":69},{"beat":305.0,"padIndex":0,"midi":36,"velocity":89},{"beat":305.0,"padIndex":2,"midi":42,"velocity":71},{"beat":305.5,"padIndex":2,"midi":42,"velocity":70},{"beat":306.0,"padIndex":0,"midi":36,"velocity":89},{"beat":306.0,"padIndex":2,"midi":42,"velocity":70},{"beat":306.5,"padIndex":3,"midi":46,"velocity":75},{"beat":307.0,"padIndex":0,"midi":36,"velocity":88},{"beat":307.0,"padIndex":2,"midi":42,"velocity":75},{"beat":307.5,"padIndex":2,"midi":42,"velocity":74},{"beat":308.0,"padIndex":0,"midi":36,"velocity":86},{"beat":308.0,"padIndex":2,"midi":42,"velocity":73},{"beat":308.5,"padIndex":2,"midi":42,"velocity":71},{"beat":309.0,"padIndex":0,"midi":36,"velocity":89},{"beat":309.0,"padIndex":2,"midi":42,"velocity":75},{"beat":309.5,"padIndex":2,"midi":42,"velocity":69},{"beat":310.0,"padIndex":0,"midi":36,"velocity":91},{"beat":310.0,"padIndex":2,"midi":42,"velocity":69},{"beat":310.5,"padIndex":3,"midi":46,"velocity":71},{"beat":311.0,"padIndex":0,"midi":36,"velocity":88},{"beat":311.0,"padIndex":2,"midi":42,"velocity":73},{"beat":311.5,"padIndex":2,"midi":42,"velocity":69},{"beat":312.0,"padIndex":0,"midi":36,"velocity":87},{"beat":312.0,"padIndex":2,"midi":42,"velocity":70},{"beat":312.5,"padIndex":2,"midi":42,"velocity":75},{"beat":313.0,"padIndex":0,"midi":36,"velocity":91},{"beat":313.0,"padIndex":2,"midi":42,"velocity":74},{"beat":313.5,"padIndex":2,"midi":42,"velocity":71},{"beat":314.0,"padIndex":0,"midi":36,"velocity":88},{"beat":314.0,"padIndex":2,"midi":42,"velocity":71},{"beat":314.5,"padIndex":3,"midi":46,"velocity":70},{"beat":315.0,"padIndex":0,"midi":36,"velocity":92},{"beat":315.0,"padIndex":2,"midi":42,"velocity":75},{"beat":315.5,"padIndex":2,"midi":42,"velocity":74},{"beat":316.0,"padIndex":0,"midi":36,"velocity":86},{"beat":316.0,"padIndex":2,"midi":42,"velocity":72},{"beat":316.5,"padIndex":2,"midi":42,"velocity":71},{"beat":317.0,"padIndex":0,"midi":36,"velocity":89},{"beat":317.0,"padIndex":2,"midi":42,"velocity":74},{"beat":317.5,"padIndex":2,"midi":42,"velocity":69},{"beat":318.0,"padIndex":0,"midi":36,"velocity":86},{"beat":318.0,"padIndex":2,"midi":42,"velocity":72},{"beat":318.5,"padIndex":3,"midi":46,"velocity":75},{"beat":319.0,"padIndex":0,"midi":36,"velocity":87},{"beat":319.0,"padIndex":2,"midi":42,"velocity":72},{"beat":319.5,"padIndex":2,"midi":42,"velocity":69},{"beat":320.0,"padIndex":0,"midi":36,"velocity":91},{"beat":320.0,"padIndex":2,"midi":42,"velocity":73},{"beat":320.5,"padIndex":2,"midi":42,"velocity":69},{"beat":321.0,"padIndex":0,"midi":36,"velocity":87},{"beat":321.0,"padIndex":2,"midi":42,"velocity":74},{"beat":321.5,"padIndex":2,"midi":42,"velocity":69},{"beat":322.0,"padIndex":0,"midi":36,"velocity":90},{"beat":322.0,"padIndex":2,"midi":42,"velocity":72},{"beat":322.5,"padIndex":3,"midi":46,"velocity":74},{"beat":323.0,"padIndex":0,"midi":36,"velocity":86},{"beat":323.0,"padIndex":2,"midi":42,"velocity":70},{"beat":323.5,"padIndex":2,"midi":42,"velocity":74},{"beat":324.0,"padIndex":0,"midi":36,"velocity":88},{"beat":324.0,"padIndex":2,"midi":42,"velocity":74},{"beat":324.5,"padIndex":2,"midi":42,"velocity":73},{"beat":325.0,"padIndex":0,"midi":36,"velocity":90},{"beat":325.0,"padIndex":2,"midi":42,"velocity":69},{"beat":325.5,"padIndex":2,"midi":42,"velocity":74},{"beat":326.0,"padIndex":0,"midi":36,"velocity":86},{"beat":326.0,"padIndex":2,"midi":42,"velocity":74},{"beat":326.5,"padIndex":0,"midi":36,"velocity":90},{"beat":326.5,"padIndex":3,"midi":46,"velocity":73},{"beat":327.0,"padIndex":1,"midi":34,"velocity":50},{"beat":327.0,"padIndex":2,"midi":42,"velocity":69},{"beat":327.04167,"padIndex":1,"midi":34,"velocity":75},{"beat":327.5,"padIndex":0,"midi":36,"velocity":89},{"beat":327.5,"padIndex":2,"midi":42,"velocity":73},{"beat":328.0,"padIndex":0,"midi":36,"velocity":91},{"beat":328.0,"padIndex":12,"midi":57,"velocity":59},{"beat":328.0,"padIndex":12,"midi":49,"velocity":59},{"beat":328.5,"padIndex":2,"midi":42,"velocity":56},{"beat":329.0,"padIndex":1,"midi":34,"velocity":73},{"beat":329.0,"padIndex":2,"midi":42,"velocity":71},{"beat":329.5,"padIndex":2,"midi":42,"velocity":55},{"beat":330.0,"padIndex":2,"midi":42,"velocity":82},{"beat":330.5,"padIndex":0,"midi":36,"velocity":86},{"beat":330.5,"padIndex":2,"midi":42,"velocity":60},{"beat":331.0,"padIndex":1,"midi":34,"velocity":75},{"beat":331.0,"padIndex":2,"midi":42,"velocity":73},{"beat":331.5,"padIndex":0,"midi":36,"velocity":86},{"beat":331.5,"padIndex":2,"midi":42,"velocity":58},{"beat":332.0,"padIndex":0,"midi":36,"velocity":86},{"beat":332.0,"padIndex":2,"midi":42,"velocity":82},{"beat":332.5,"padIndex":2,"midi":42,"velocity":59},{"beat":333.0,"padIndex":1,"midi":34,"velocity":73},{"beat":333.0,"padIndex":2,"midi":42,"velocity":69},{"beat":333.5,"padIndex":2,"midi":42,"velocity":55},{"beat":334.0,"padIndex":2,"midi":42,"velocity":82},{"beat":334.5,"padIndex":0,"midi":36,"velocity":92},{"beat":334.5,"padIndex":3,"midi":46,"velocity":57},{"beat":335.0,"padIndex":1,"midi":34,"velocity":75},{"beat":335.0,"padIndex":2,"midi":42,"velocity":71},{"beat":335.5,"padIndex":0,"midi":36,"velocity":88},{"beat":335.5,"padIndex":2,"midi":42,"velocity":58},{"beat":336.0,"padIndex":0,"midi":36,"velocity":88},{"beat":336.0,"padIndex":2,"midi":42,"velocity":82},{"beat":336.5,"padIndex":2,"midi":42,"velocity":58},{"beat":337.0,"padIndex":1,"midi":34,"velocity":73},{"beat":337.0,"padIndex":2,"midi":42,"velocity":73},{"beat":337.5,"padIndex":2,"midi":42,"velocity":57},{"beat":338.0,"padIndex":2,"midi":42,"velocity":82},{"beat":338.5,"padIndex":0,"midi":36,"velocity":86},{"beat":338.5,"padIndex":2,"midi":42,"velocity":55},{"beat":339.0,"padIndex":1,"midi":34,"velocity":75},{"beat":339.0,"padIndex":2,"midi":42,"velocity":75},{"beat":339.5,"padIndex":0,"midi":36,"velocity":91},{"beat":339.5,"padIndex":2,"midi":42,"velocity":59},{"beat":339.75,"padIndex":2,"midi":42,"velocity":59},{"beat":340.0,"padIndex":0,"midi":36,"velocity":92},{"beat":340.0,"padIndex":2,"midi":42,"velocity":82},{"beat":340.5,"padIndex":2,"midi":42,"velocity":57},{"beat":341.0,"padIndex":1,"midi":34,"velocity":73},{"beat":341.0,"padIndex":2,"midi":42,"velocity":72},{"beat":341.5,"padIndex":2,"midi":42,"velocity":59},{"beat":341.75,"padIndex":1,"midi":34,"velocity":45},{"beat":342.0,"padIndex":2,"midi":42,"velocity":82},{"beat":342.25,"padIndex":1,"midi":34,"velocity":45},{"beat":342.5,"padIndex":0,"midi":36,"velocity":87},{"beat":342.5,"padIndex":2,"midi":42,"velocity":60},{"beat":343.0,"padIndex":1,"midi":34,"velocity":75},{"beat":343.0,"padIndex":3,"midi":46,"velocity":73},{"beat":343.5,"padIndex":0,"midi":36,"velocity":88},{"beat":343.75,"padIndex":1,"midi":34,"velocity":45},{"beat":344.0,"padIndex":0,"midi":36,"velocity":90},{"beat":344.0,"padIndex":12,"midi":57,"velocity":59},{"beat":344.0,"padIndex":12,"midi":49,"velocity":59},{"beat":344.5,"padIndex":2,"midi":42,"velocity":58},{"beat":345.0,"padIndex":1,"midi":34,"velocity":73},{"beat":345.0,"padIndex":2,"midi":42,"velocity":69},{"beat":345.5,"padIndex":2,"midi":42,"velocity":54},{"beat":345.75,"padIndex":1,"midi":34,"velocity":45},{"beat":346.0,"padIndex":3,"midi":46,"velocity":74},{"beat":346.25,"padIndex":1,"midi":34,"velocity":45},{"beat":346.5,"padIndex":0,"midi":36,"velocity":91},{"beat":346.5,"padIndex":2,"midi":42,"velocity":56},{"beat":347.0,"padIndex":1,"midi":34,"velocity":75},{"beat":347.0,"padIndex":2,"midi":42,"velocity":70},{"beat":347.5,"padIndex":0,"midi":36,"velocity":87},{"beat":347.5,"padIndex":2,"midi":42,"velocity":54},{"beat":347.75,"padIndex":1,"midi":34,"velocity":45},{"beat":348.0,"padIndex":0,"midi":36,"velocity":89},{"beat":348.0,"padIndex":3,"midi":46,"velocity":74},{"beat":348.25,"padIndex":1,"midi":34,"velocity":45},{"beat":349.0,"padIndex":1,"midi":34,"velocity":73},{"beat":349.0,"padIndex":3,"midi":46,"velocity":73},{"beat":349.75,"padIndex":1,"midi":34,"velocity":45},{"beat":350.0,"padIndex":3,"midi":46,"velocity":70},{"beat":350.25,"padIndex":1,"midi":34,"velocity":45},{"beat":350.5,"padIndex":0,"midi":36,"velocity":92},{"beat":351.0,"padIndex":1,"midi":34,"velocity":75},{"beat":351.0,"padIndex":3,"midi":46,"velocity":71},{"beat":351.5,"padIndex":0,"midi":36,"velocity":91},{"beat":352.0,"padIndex":0,"midi":36,"velocity":91},{"beat":352.0,"padIndex":12,"midi":57,"velocity":59},{"beat":352.0,"padIndex":12,"midi":49,"velocity":59},{"beat":352.5,"padIndex":0,"midi":36,"velocity":91},{"beat":353.0,"padIndex":0,"midi":36,"velocity":91},{"beat":353.0,"padIndex":1,"midi":34,"velocity":55},{"beat":353.0,"padIndex":3,"midi":46,"velocity":62},{"beat":353.5,"padIndex":0,"midi":36,"velocity":91},{"beat":353.5,"padIndex":1,"midi":34,"velocity":63},{"beat":353.5,"padIndex":3,"midi":46,"velocity":67},{"beat":354.0,"padIndex":0,"midi":36,"velocity":86},{"beat":354.0,"padIndex":1,"midi":34,"velocity":62},{"beat":354.0,"padIndex":3,"midi":46,"velocity":74},{"beat":354.5,"padIndex":0,"midi":36,"velocity":90},{"beat":354.5,"padIndex":1,"midi":34,"velocity":65},{"beat":354.5,"padIndex":3,"midi":46,"velocity":69},{"beat":355.0,"padIndex":0,"midi":36,"velocity":88},{"beat":355.0,"padIndex":1,"midi":34,"velocity":70},{"beat":355.0,"padIndex":3,"midi":46,"velocity":77},{"beat":355.5,"padIndex":0,"midi":36,"velocity":89},{"beat":355.5,"padIndex":1,"midi":34,"velocity":75},{"beat":355.5,"padIndex":3,"midi":46,"velocity":82},{"beat":356.0,"padIndex":2,"midi":42,"velocity":72},{"beat":358.5,"padIndex":1,"midi":34,"velocity":75},{"beat":359.0,"padIndex":1,"midi":34,"velocity":75},{"beat":359.25,"padIndex":1,"midi":34,"velocity":65},{"beat":359.5,"padIndex":1,"midi":34,"velocity":75},{"beat":359.75,"padIndex":1,"midi":34,"velocity":76},{"beat":360.0,"padIndex":0,"midi":36,"velocity":87},{"beat":360.0,"padIndex":12,"midi":57,"velocity":59},{"beat":360.0,"padIndex":12,"midi":49,"velocity":59},{"beat":360.02083,"padIndex":11,"midi":54,"velocity":75},{"beat":360.27083,"padIndex":11,"midi":54,"velocity":36},{"beat":360.52083,"padIndex":11,"midi":54,"velocity":52},{"beat":360.77083,"padIndex":11,"midi":54,"velocity":32},{"beat":361.0,"padIndex":1,"midi":34,"velocity":73},{"beat":361.0,"padIndex":3,"midi":46,"velocity":69},{"beat":361.02083,"padIndex":11,"midi":54,"velocity":85},{"beat":361.27083,"padIndex":11,"midi":54,"velocity":45},{"beat":361.52083,"padIndex":11,"midi":54,"velocity":59},{"beat":361.75,"padIndex":1,"midi":34,"velocity":50},{"beat":361.77083,"padIndex":11,"midi":54,"velocity":44},{"beat":362.0,"padIndex":0,"midi":36,"velocity":89},{"beat":362.0,"padIndex":3,"midi":46,"velocity":71},{"beat":362.02083,"padIndex":11,"midi":54,"velocity":75},{"beat":362.25,"padIndex":1,"midi":34,"velocity":50},{"beat":362.27083,"padIndex":11,"midi":54,"velocity":36},{"beat":362.5,"padIndex":0,"midi":36,"velocity":92},{"beat":362.52083,"padIndex":11,"midi":54,"velocity":52},{"beat":362.77083,"padIndex":11,"midi":54,"velocity":32},{"beat":363.0,"padIndex":1,"midi":34,"velocity":75},{"beat":363.0,"padIndex":3,"midi":46,"velocity":70},{"beat":363.02083,"padIndex":11,"midi":54,"velocity":85},{"beat":363.27083,"padIndex":11,"midi":54,"velocity":45},{"beat":363.52083,"padIndex":11,"midi":54,"velocity":59},{"beat":363.75,"padIndex":1,"midi":34,"velocity":50},{"beat":363.77083,"padIndex":11,"midi":54,"velocity":44},{"beat":364.0,"padIndex":0,"midi":36,"velocity":88},{"beat":364.0,"padIndex":3,"midi":46,"velocity":72},{"beat":364.02083,"padIndex":11,"midi":54,"velocity":75},{"beat":364.27083,"padIndex":11,"midi":54,"velocity":36},{"beat":364.52083,"padIndex":11,"midi":54,"velocity":52},{"beat":364.77083,"padIndex":11,"midi":54,"velocity":32},{"beat":365.0,"padIndex":1,"midi":34,"velocity":73},{"beat":365.0,"padIndex":3,"midi":46,"velocity":71},{"beat":365.02083,"padIndex":11,"midi":54,"velocity":85},{"beat":365.27083,"padIndex":11,"midi":54,"velocity":45},{"beat":365.52083,"padIndex":11,"midi":54,"velocity":59},{"beat":365.75,"padIndex":1,"midi":34,"velocity":50},{"beat":365.77083,"padIndex":11,"midi":54,"velocity":44},{"beat":366.0,"padIndex":0,"midi":36,"velocity":88},{"beat":366.0,"padIndex":3,"midi":46,"velocity":69},{"beat":366.02083,"padIndex":11,"midi":54,"velocity":75},{"beat":366.27083,"padIndex":11,"midi":54,"velocity":36},{"beat":366.5,"padIndex":0,"midi":36,"velocity":92},{"beat":366.52083,"padIndex":11,"midi":54,"velocity":52},{"beat":366.77083,"padIndex":11,"midi":54,"velocity":32},{"beat":367.0,"padIndex":1,"midi":34,"velocity":75},{"beat":367.0,"padIndex":3,"midi":46,"velocity":69},{"beat":367.02083,"padIndex":11,"midi":54,"velocity":85},{"beat":367.27083,"padIndex":11,"midi":54,"velocity":45},{"beat":367.52083,"padIndex":11,"midi":54,"velocity":59},{"beat":367.75,"padIndex":1,"midi":34,"velocity":50},{"beat":367.77083,"padIndex":11,"midi":54,"velocity":44},{"beat":368.0,"padIndex":0,"midi":36,"velocity":91},{"beat":368.0,"padIndex":3,"midi":46,"velocity":70},{"beat":368.02083,"padIndex":11,"midi":54,"velocity":75},{"beat":368.27083,"padIndex":11,"midi":54,"velocity":36},{"beat":368.52083,"padIndex":11,"midi":54,"velocity":52},{"beat":368.77083,"padIndex":11,"midi":54,"velocity":32},{"beat":369.0,"padIndex":1,"midi":34,"velocity":73},{"beat":369.0,"padIndex":3,"midi":46,"velocity":71},{"beat":369.02083,"padIndex":11,"midi":54,"velocity":85},{"beat":369.27083,"padIndex":11,"midi":54,"velocity":45},{"beat":369.52083,"padIndex":11,"midi":54,"velocity":59},{"beat":369.75,"padIndex":1,"midi":34,"velocity":50},{"beat":369.77083,"padIndex":11,"midi":54,"velocity":44},{"beat":370.0,"padIndex":0,"midi":36,"velocity":87},{"beat":370.0,"padIndex":3,"midi":46,"velocity":70},{"beat":370.02083,"padIndex":11,"midi":54,"velocity":75},{"beat":370.27083,"padIndex":11,"midi":54,"velocity":36},{"beat":370.5,"padIndex":0,"midi":36,"velocity":89},{"beat":370.52083,"padIndex":11,"midi":54,"velocity":52},{"beat":370.77083,"padIndex":11,"midi":54,"velocity":32},{"beat":371.0,"padIndex":1,"midi":34,"velocity":70},{"beat":371.0,"padIndex":3,"midi":46,"velocity":72},{"beat":371.02083,"padIndex":11,"midi":54,"velocity":85},{"beat":371.27083,"padIndex":11,"midi":54,"velocity":45},{"beat":371.52083,"padIndex":11,"midi":54,"velocity":59},{"beat":371.77083,"padIndex":11,"midi":54,"velocity":44},{"beat":372.0,"padIndex":0,"midi":36,"velocity":86},{"beat":372.0,"padIndex":3,"midi":46,"velocity":73},{"beat":372.02083,"padIndex":11,"midi":54,"velocity":75},{"beat":372.27083,"padIndex":11,"midi":54,"velocity":36},{"beat":372.52083,"padIndex":11,"midi":54,"velocity":52},{"beat":372.77083,"padIndex":11,"midi":54,"velocity":32},{"beat":373.0,"padIndex":1,"midi":34,"velocity":73},{"beat":373.0,"padIndex":3,"midi":46,"velocity":69},{"beat":373.02083,"padIndex":11,"midi":54,"velocity":85},{"beat":373.27083,"padIndex":11,"midi":54,"velocity":45},{"beat":373.52083,"padIndex":11,"midi":54,"velocity":59},{"beat":373.75,"padIndex":1,"midi":34,"velocity":45},{"beat":373.77083,"padIndex":11,"midi":54,"velocity":44},{"beat":374.0,"padIndex":0,"midi":36,"velocity":89},{"beat":374.0,"padIndex":3,"midi":46,"velocity":69},{"beat":374.02083,"padIndex":11,"midi":54,"velocity":75},{"beat":374.27083,"padIndex":11,"midi":54,"velocity":36},{"beat":374.5,"padIndex":0,"midi":36,"velocity":86},{"beat":374.52083,"padIndex":11,"midi":54,"velocity":52},{"beat":374.77083,"padIndex":11,"midi":54,"velocity":32},{"beat":375.0,"padIndex":1,"midi":34,"velocity":75},{"beat":375.0,"padIndex":3,"midi":46,"velocity":71},{"beat":375.02083,"padIndex":11,"midi":54,"velocity":85},{"beat":375.27083,"padIndex":11,"midi":54,"velocity":45},{"beat":375.5,"padIndex":0,"midi":36,"velocity":91},{"beat":375.52083,"padIndex":11,"midi":54,"velocity":59},{"beat":375.77083,"padIndex":11,"midi":54,"velocity":44},{"beat":376.0,"padIndex":0,"midi":36,"velocity":90},{"beat":376.0,"padIndex":12,"midi":57,"velocity":55},{"beat":376.0,"padIndex":12,"midi":49,"velocity":55},{"beat":376.02083,"padIndex":11,"midi":54,"velocity":75},{"beat":376.27083,"padIndex":11,"midi":54,"velocity":36},{"beat":376.52083,"padIndex":11,"midi":54,"velocity":52},{"beat":376.77083,"padIndex":11,"midi":54,"velocity":32},{"beat":377.0,"padIndex":1,"midi":34,"velocity":73},{"beat":377.0,"padIndex":3,"midi":46,"velocity":70},{"beat":377.02083,"padIndex":11,"midi":54,"velocity":85},{"beat":377.27083,"padIndex":11,"midi":54,"velocity":45},{"beat":377.52083,"padIndex":11,"midi":54,"velocity":59},{"beat":377.75,"padIndex":1,"midi":34,"velocity":55},{"beat":377.77083,"padIndex":11,"midi":54,"velocity":44},{"beat":378.0,"padIndex":0,"midi":36,"velocity":89},{"beat":378.0,"padIndex":3,"midi":46,"velocity":72},{"beat":378.02083,"padIndex":11,"midi":54,"velocity":75},{"beat":378.25,"padIndex":1,"midi":34,"velocity":50},{"beat":378.27083,"padIndex":11,"midi":54,"velocity":36},{"beat":378.5,"padIndex":0,"midi":36,"velocity":92},{"beat":378.52083,"padIndex":11,"midi":54,"velocity":52},{"beat":378.77083,"padIndex":11,"midi":54,"velocity":32},{"beat":379.0,"padIndex":1,"midi":34,"velocity":75},{"beat":379.0,"padIndex":3,"midi":46,"velocity":73},{"beat":379.02083,"padIndex":11,"midi":54,"velocity":85},{"beat":379.27083,"padIndex":11,"midi":54,"velocity":45},{"beat":379.52083,"padIndex":11,"midi":54,"velocity":59},{"beat":379.75,"padIndex":1,"midi":34,"velocity":50},{"beat":379.77083,"padIndex":11,"midi":54,"velocity":44},{"beat":380.0,"padIndex":0,"midi":36,"velocity":87},{"beat":380.0,"padIndex":3,"midi":46,"velocity":72},{"beat":380.02083,"padIndex":11,"midi":54,"velocity":75},{"beat":380.27083,"padIndex":11,"midi":54,"velocity":36},{"beat":380.52083,"padIndex":11,"midi":54,"velocity":52},{"beat":380.77083,"padIndex":11,"midi":54,"velocity":32},{"beat":381.0,"padIndex":1,"midi":34,"velocity":73},{"beat":381.0,"padIndex":3,"midi":46,"velocity":73},{"beat":381.02083,"padIndex":11,"midi":54,"velocity":85},{"beat":381.27083,"padIndex":11,"midi":54,"velocity":45},{"beat":381.52083,"padIndex":11,"midi":54,"velocity":59},{"beat":381.75,"padIndex":1,"midi":34,"velocity":55},{"beat":381.77083,"padIndex":11,"midi":54,"velocity":44},{"beat":382.0,"padIndex":0,"midi":36,"velocity":90},{"beat":382.0,"padIndex":3,"midi":46,"velocity":69},{"beat":382.02083,"padIndex":11,"midi":54,"velocity":75},{"beat":382.25,"padIndex":1,"midi":34,"velocity":55},{"beat":382.27083,"padIndex":11,"midi":54,"velocity":36},{"beat":382.5,"padIndex":0,"midi":36,"velocity":86},{"beat":382.52083,"padIndex":11,"midi":54,"velocity":52},{"beat":382.77083,"padIndex":11,"midi":54,"velocity":32},{"beat":383.0,"padIndex":1,"midi":34,"velocity":75},{"beat":383.0,"padIndex":3,"midi":46,"velocity":74},{"beat":383.02083,"padIndex":11,"midi":54,"velocity":85},{"beat":383.27083,"padIndex":11,"midi":54,"velocity":45},{"beat":383.52083,"padIndex":11,"midi":54,"velocity":59},{"beat":383.77083,"padIndex":11,"midi":54,"velocity":44},{"beat":384.0,"padIndex":0,"midi":36,"velocity":87},{"beat":384.0,"padIndex":12,"midi":57,"velocity":45},{"beat":384.0,"padIndex":12,"midi":49,"velocity":55},{"beat":384.02083,"padIndex":11,"midi":54,"velocity":75},{"beat":384.27083,"padIndex":11,"midi":54,"velocity":36},{"beat":384.52083,"padIndex":11,"midi":54,"velocity":52},{"beat":384.77083,"padIndex":11,"midi":54,"velocity":32},{"beat":385.0,"padIndex":1,"midi":34,"velocity":73},{"beat":385.0,"padIndex":3,"midi":46,"velocity":69},{"beat":385.02083,"padIndex":11,"midi":54,"velocity":85},{"beat":385.27083,"padIndex":11,"midi":54,"velocity":45},{"beat":385.52083,"padIndex":11,"midi":54,"velocity":59},{"beat":385.75,"padIndex":1,"midi":34,"velocity":59},{"beat":385.77083,"padIndex":11,"midi":54,"velocity":44},{"beat":386.0,"padIndex":0,"midi":36,"velocity":90},{"beat":386.0,"padIndex":3,"midi":46,"velocity":73},{"beat":386.02083,"padIndex":11,"midi":54,"velocity":75},{"beat":386.27083,"padIndex":11,"midi":54,"velocity":36},{"beat":386.5,"padIndex":0,"midi":36,"velocity":92},{"beat":386.52083,"padIndex":11,"midi":54,"velocity":52},{"beat":386.77083,"padIndex":11,"midi":54,"velocity":32},{"beat":387.0,"padIndex":1,"midi":34,"velocity":75},{"beat":387.0,"padIndex":3,"midi":46,"velocity":69},{"beat":387.02083,"padIndex":11,"midi":54,"velocity":85},{"beat":387.27083,"padIndex":11,"midi":54,"velocity":45},{"beat":387.52083,"padIndex":11,"midi":54,"velocity":59},{"beat":387.75,"padIndex":1,"midi":34,"velocity":60},{"beat":387.77083,"padIndex":11,"midi":54,"velocity":44},{"beat":388.0,"padIndex":0,"midi":36,"velocity":86},{"beat":388.0,"padIndex":3,"midi":46,"velocity":69},{"beat":388.02083,"padIndex":11,"midi":54,"velocity":75},{"beat":388.27083,"padIndex":11,"midi":54,"velocity":36},{"beat":388.52083,"padIndex":11,"midi":54,"velocity":52},{"beat":388.77083,"padIndex":11,"midi":54,"velocity":32},{"beat":389.0,"padIndex":0,"midi":36,"velocity":86},{"beat":389.0,"padIndex":1,"midi":34,"velocity":73},{"beat":389.0,"padIndex":3,"midi":46,"velocity":69},{"beat":389.02083,"padIndex":11,"midi":54,"velocity":85},{"beat":389.25,"padIndex":1,"midi":34,"velocity":67},{"beat":389.27083,"padIndex":11,"midi":54,"velocity":45},{"beat":389.5,"padIndex":1,"midi":34,"velocity":65},{"beat":389.52083,"padIndex":11,"midi":54,"velocity":59},{"beat":389.75,"padIndex":1,"midi":34,"velocity":75},{"beat":389.77083,"padIndex":11,"midi":54,"velocity":44},{"beat":390.0,"padIndex":0,"midi":36,"velocity":86},{"beat":390.0,"padIndex":1,"midi":34,"velocity":65},{"beat":390.0,"padIndex":3,"midi":46,"velocity":74},{"beat":390.02083,"padIndex":11,"midi":54,"velocity":75},{"beat":390.25,"padIndex":1,"midi":34,"velocity":63},{"beat":390.27083,"padIndex":11,"midi":54,"velocity":36},{"beat":390.5,"padIndex":1,"midi":34,"velocity":75},{"beat":390.52083,"padIndex":11,"midi":54,"velocity":52},{"beat":390.77083,"padIndex":11,"midi":54,"velocity":32},{"beat":391.0,"padIndex":0,"midi":36,"velocity":88},{"beat":391.0,"padIndex":1,"midi":34,"velocity":50},{"beat":391.02083,"padIndex":11,"midi":54,"velocity":85},{"beat":391.25,"padIndex":1,"midi":34,"velocity":55},{"beat":391.27083,"padIndex":11,"midi":54,"velocity":45},{"beat":391.5,"padIndex":1,"midi":34,"velocity":75},{"beat":391.52083,"padIndex":11,"midi":54,"velocity":59},{"beat":391.75,"padIndex":1,"midi":34,"velocity":70},{"beat":391.77083,"padIndex":11,"midi":54,"velocity":44},{"beat":392.0,"padIndex":0,"midi":36,"velocity":88},{"beat":392.0,"padIndex":12,"midi":57,"velocity":59},{"beat":392.0,"padIndex":12,"midi":49,"velocity":59},{"beat":392.02083,"padIndex":11,"midi":54,"velocity":75},{"beat":392.27083,"padIndex":11,"midi":54,"velocity":36},{"beat":392.52083,"padIndex":11,"midi":54,"velocity":52},{"beat":392.77083,"padIndex":11,"midi":54,"velocity":32},{"beat":393.0,"padIndex":1,"midi":34,"velocity":73},{"beat":393.0,"padIndex":3,"midi":46,"velocity":69},{"beat":393.02083,"padIndex":11,"midi":54,"velocity":85},{"beat":393.27083,"padIndex":11,"midi":54,"velocity":45},{"beat":393.52083,"padIndex":11,"midi":54,"velocity":59},{"beat":393.75,"padIndex":1,"midi":34,"velocity":55},{"beat":393.77083,"padIndex":11,"midi":54,"velocity":44},{"beat":394.0,"padIndex":0,"midi":36,"velocity":92},{"beat":394.0,"padIndex":3,"midi":46,"velocity":73},{"beat":394.02083,"padIndex":11,"midi":54,"velocity":75},{"beat":394.25,"padIndex":1,"midi":34,"velocity":45},{"beat":394.27083,"padIndex":11,"midi":54,"velocity":36},{"beat":394.5,"padIndex":0,"midi":36,"velocity":89},{"beat":394.52083,"padIndex":11,"midi":54,"velocity":52},{"beat":394.77083,"padIndex":11,"midi":54,"velocity":32},{"beat":395.0,"padIndex":1,"midi":34,"velocity":75},{"beat":395.0,"padIndex":3,"midi":46,"velocity":69},{"beat":395.02083,"padIndex":11,"midi":54,"velocity":85},{"beat":395.27083,"padIndex":11,"midi":54,"velocity":45},{"beat":395.52083,"padIndex":11,"midi":54,"velocity":59},{"beat":395.75,"padIndex":1,"midi":34,"velocity":45},{"beat":395.77083,"padIndex":11,"midi":54,"velocity":44},{"beat":396.0,"padIndex":0,"midi":36,"velocity":92},{"beat":396.0,"padIndex":3,"midi":46,"velocity":69},{"beat":396.02083,"padIndex":11,"midi":54,"velocity":75},{"beat":396.27083,"padIndex":11,"midi":54,"velocity":36},{"beat":396.52083,"padIndex":11,"midi":54,"velocity":52},{"beat":396.77083,"padIndex":11,"midi":54,"velocity":32},{"beat":397.0,"padIndex":1,"midi":34,"velocity":73},{"beat":397.0,"padIndex":3,"midi":46,"velocity":73},{"beat":397.02083,"padIndex":11,"midi":54,"velocity":85},{"beat":397.27083,"padIndex":11,"midi":54,"velocity":45},{"beat":397.52083,"padIndex":11,"midi":54,"velocity":59},{"beat":397.75,"padIndex":1,"midi":34,"velocity":55},{"beat":397.77083,"padIndex":11,"midi":54,"velocity":44},{"beat":398.0,"padIndex":0,"midi":36,"velocity":86},{"beat":398.0,"padIndex":3,"midi":46,"velocity":70},{"beat":398.02083,"padIndex":11,"midi":54,"velocity":75},{"beat":398.27083,"padIndex":11,"midi":54,"velocity":36},{"beat":398.5,"padIndex":0,"midi":36,"velocity":88},{"beat":398.52083,"padIndex":11,"midi":54,"velocity":52},{"beat":398.77083,"padIndex":11,"midi":54,"velocity":32},{"beat":399.0,"padIndex":1,"midi":34,"velocity":75},{"beat":399.0,"padIndex":3,"midi":46,"velocity":72},{"beat":399.02083,"padIndex":11,"midi":54,"velocity":85},{"beat":399.27083,"padIndex":11,"midi":54,"velocity":45},{"beat":399.52083,"padIndex":11,"midi":54,"velocity":59},{"beat":399.75,"padIndex":1,"midi":34,"velocity":55},{"beat":399.77083,"padIndex":11,"midi":54,"velocity":44},{"beat":400.0,"padIndex":0,"midi":36,"velocity":90},{"beat":400.0,"padIndex":12,"midi":57,"velocity":59},{"beat":400.0,"padIndex":12,"midi":49,"velocity":45},{"beat":400.02083,"padIndex":11,"midi":54,"velocity":75},{"beat":400.27083,"padIndex":11,"midi":54,"velocity":36},{"beat":400.52083,"padIndex":11,"midi":54,"velocity":52},{"beat":400.77083,"padIndex":11,"midi":54,"velocity":32},{"beat":401.0,"padIndex":1,"midi":34,"velocity":73},{"beat":401.0,"padIndex":3,"midi":46,"velocity":71},{"beat":401.02083,"padIndex":11,"midi":54,"velocity":85},{"beat":401.27083,"padIndex":11,"midi":54,"velocity":45},{"beat":401.52083,"padIndex":11,"midi":54,"velocity":59},{"beat":401.75,"padIndex":1,"midi":34,"velocity":55},{"beat":401.77083,"padIndex":11,"midi":54,"velocity":44},{"beat":402.0,"padIndex":0,"midi":36,"velocity":92},{"beat":402.0,"padIndex":3,"midi":46,"velocity":71},{"beat":402.02083,"padIndex":11,"midi":54,"velocity":75},{"beat":402.27083,"padIndex":11,"midi":54,"velocity":36},{"beat":402.5,"padIndex":0,"midi":36,"velocity":88},{"beat":402.52083,"padIndex":11,"midi":54,"velocity":52},{"beat":402.77083,"padIndex":11,"midi":54,"velocity":32},{"beat":403.0,"padIndex":1,"midi":34,"velocity":75},{"beat":403.0,"padIndex":3,"midi":46,"velocity":69},{"beat":403.02083,"padIndex":11,"midi":54,"velocity":85},{"beat":403.27083,"padIndex":11,"midi":54,"velocity":45},{"beat":403.52083,"padIndex":11,"midi":54,"velocity":59},{"beat":403.75,"padIndex":1,"midi":34,"velocity":55},{"beat":403.77083,"padIndex":11,"midi":54,"velocity":44},{"beat":404.0,"padIndex":0,"midi":36,"velocity":89},{"beat":404.0,"padIndex":3,"midi":46,"velocity":69},{"beat":404.02083,"padIndex":11,"midi":54,"velocity":75},{"beat":404.27083,"padIndex":11,"midi":54,"velocity":36},{"beat":404.52083,"padIndex":11,"midi":54,"velocity":52},{"beat":404.77083,"padIndex":11,"midi":54,"velocity":32},{"beat":405.0,"padIndex":1,"midi":34,"velocity":73},{"beat":405.0,"padIndex":3,"midi":46,"velocity":71},{"beat":405.02083,"padIndex":11,"midi":54,"velocity":85},{"beat":405.27083,"padIndex":11,"midi":54,"velocity":45},{"beat":405.52083,"padIndex":11,"midi":54,"velocity":59},{"beat":405.75,"padIndex":1,"midi":34,"velocity":45},{"beat":405.77083,"padIndex":11,"midi":54,"velocity":44},{"beat":406.0,"padIndex":0,"midi":36,"velocity":89},{"beat":406.0,"padIndex":3,"midi":46,"velocity":74},{"beat":406.02083,"padIndex":11,"midi":54,"velocity":75},{"beat":406.27083,"padIndex":11,"midi":54,"velocity":36},{"beat":406.5,"padIndex":0,"midi":36,"velocity":92},{"beat":406.52083,"padIndex":11,"midi":54,"velocity":52},{"beat":406.77083,"padIndex":11,"midi":54,"velocity":32},{"beat":407.0,"padIndex":1,"midi":34,"velocity":75},{"beat":407.0,"padIndex":3,"midi":46,"velocity":70},{"beat":407.02083,"padIndex":11,"midi":54,"velocity":85},{"beat":407.27083,"padIndex":11,"midi":54,"velocity":45},{"beat":407.5,"padIndex":0,"midi":36,"velocity":91},{"beat":407.52083,"padIndex":11,"midi":54,"velocity":59},{"beat":407.75,"padIndex":1,"midi":34,"velocity":45},{"beat":407.77083,"padIndex":11,"midi":54,"velocity":44},{"beat":408.0,"padIndex":0,"midi":36,"velocity":89},{"beat":408.0,"padIndex":12,"midi":57,"velocity":59},{"beat":408.0,"padIndex":12,"midi":49,"velocity":59},{"beat":408.02083,"padIndex":11,"midi":54,"velocity":75},{"beat":408.27083,"padIndex":11,"midi":54,"velocity":36},{"beat":408.52083,"padIndex":11,"midi":54,"velocity":52},{"beat":408.77083,"padIndex":11,"midi":54,"velocity":32},{"beat":409.0,"padIndex":1,"midi":34,"velocity":73},{"beat":409.0,"padIndex":3,"midi":46,"velocity":69},{"beat":409.02083,"padIndex":11,"midi":54,"velocity":85},{"beat":409.27083,"padIndex":11,"midi":54,"velocity":45},{"beat":409.5,"padIndex":1,"midi":34,"velocity":45},{"beat":409.52083,"padIndex":11,"midi":54,"velocity":59},{"beat":409.75,"padIndex":1,"midi":34,"velocity":50},{"beat":409.77083,"padIndex":11,"midi":54,"velocity":44},{"beat":410.0,"padIndex":0,"midi":36,"velocity":86},{"beat":410.0,"padIndex":3,"midi":46,"velocity":69},{"beat":410.02083,"padIndex":11,"midi":54,"velocity":75},{"beat":410.27083,"padIndex":11,"midi":54,"velocity":36},{"beat":410.5,"padIndex":0,"midi":36,"velocity":91},{"beat":410.52083,"padIndex":11,"midi":54,"velocity":52},{"beat":410.77083,"padIndex":11,"midi":54,"velocity":32},{"beat":411.0,"padIndex":1,"midi":34,"velocity":55},{"beat":411.0,"padIndex":3,"midi":46,"velocity":73},{"beat":411.02083,"padIndex":11,"midi":54,"velocity":85},{"beat":411.27083,"padIndex":11,"midi":54,"velocity":45},{"beat":411.5,"padIndex":0,"midi":36,"velocity":88},{"beat":411.52083,"padIndex":11,"midi":54,"velocity":59},{"beat":411.77083,"padIndex":11,"midi":54,"velocity":44},{"beat":412.0,"padIndex":0,"midi":36,"velocity":88},{"beat":412.0,"padIndex":12,"midi":57,"velocity":59},{"beat":412.0,"padIndex":12,"midi":49,"velocity":45},{"beat":412.02083,"padIndex":11,"midi":54,"velocity":75},{"beat":412.27083,"padIndex":11,"midi":54,"velocity":36},{"beat":412.52083,"padIndex":11,"midi":54,"velocity":52},{"beat":412.77083,"padIndex":11,"midi":54,"velocity":32},{"beat":413.0,"padIndex":1,"midi":34,"velocity":73},{"beat":413.0,"padIndex":3,"midi":46,"velocity":72},{"beat":413.02083,"padIndex":11,"midi":54,"velocity":85},{"beat":413.27083,"padIndex":11,"midi":54,"velocity":45},{"beat":413.52083,"padIndex":11,"midi":54,"velocity":59},{"beat":413.75,"padIndex":1,"midi":34,"velocity":55},{"beat":413.77083,"padIndex":11,"midi":54,"velocity":44},{"beat":414.0,"padIndex":0,"midi":36,"velocity":89},{"beat":414.0,"padIndex":3,"midi":46,"velocity":71},{"beat":414.02083,"padIndex":11,"midi":54,"velocity":75},{"beat":414.25,"padIndex":1,"midi":34,"velocity":45},{"beat":414.27083,"padIndex":11,"midi":54,"velocity":36},{"beat":414.5,"padIndex":0,"midi":36,"velocity":86},{"beat":414.52083,"padIndex":11,"midi":54,"velocity":52},{"beat":414.77083,"padIndex":11,"midi":54,"velocity":32},{"beat":415.0,"padIndex":1,"midi":34,"velocity":75},{"beat":415.0,"padIndex":3,"midi":46,"velocity":73},{"beat":415.02083,"padIndex":11,"midi":54,"velocity":85},{"beat":415.27083,"padIndex":11,"midi":54,"velocity":45},{"beat":415.5,"padIndex":0,"midi":36,"velocity":90},{"beat":415.52083,"padIndex":11,"midi":54,"velocity":59},{"beat":415.77083,"padIndex":11,"midi":54,"velocity":44},{"beat":416.0,"padIndex":0,"midi":36,"velocity":89},{"beat":416.0,"padIndex":3,"midi":46,"velocity":72},{"beat":416.0,"padIndex":12,"midi":49,"velocity":46},{"beat":416.02083,"padIndex":11,"midi":54,"velocity":75},{"beat":416.27083,"padIndex":11,"midi":54,"velocity":36},{"beat":416.5,"padIndex":3,"midi":46,"velocity":62},{"beat":416.52083,"padIndex":11,"midi":54,"velocity":52},{"beat":416.77083,"padIndex":11,"midi":54,"velocity":32},{"beat":417.0,"padIndex":1,"midi":34,"velocity":73},{"beat":417.0,"padIndex":3,"midi":46,"velocity":69},{"beat":417.02083,"padIndex":11,"midi":54,"velocity":85},{"beat":417.27083,"padIndex":11,"midi":54,"velocity":45},{"beat":417.52083,"padIndex":11,"midi":54,"velocity":59},{"beat":417.75,"padIndex":1,"midi":34,"velocity":63},{"beat":417.77083,"padIndex":11,"midi":54,"velocity":44},{"beat":418.0,"padIndex":0,"midi":36,"velocity":89},{"beat":418.0,"padIndex":3,"midi":46,"velocity":71},{"beat":418.02083,"padIndex":11,"midi":54,"velocity":75},{"beat":418.27083,"padIndex":11,"midi":54,"velocity":36},{"beat":418.5,"padIndex":1,"midi":34,"velocity":75},{"beat":418.5,"padIndex":3,"midi":46,"velocity":59},{"beat":418.52083,"padIndex":11,"midi":54,"velocity":52},{"beat":418.77083,"padIndex":11,"midi":54,"velocity":32},{"beat":419.0,"padIndex":0,"midi":36,"velocity":91},{"beat":419.0,"padIndex":1,"midi":34,"velocity":70},{"beat":419.0,"padIndex":3,"midi":46,"velocity":72},{"beat":419.02083,"padIndex":11,"midi":54,"velocity":85},{"beat":419.25,"padIndex":1,"midi":34,"velocity":70},{"beat":419.27083,"padIndex":11,"midi":54,"velocity":45},{"beat":419.5,"padIndex":1,"midi":34,"velocity":70},{"beat":419.52083,"padIndex":11,"midi":54,"velocity":59},{"beat":419.75,"padIndex":1,"midi":34,"velocity":70},{"beat":419.77083,"padIndex":11,"midi":54,"velocity":44},{"beat":420.0,"padIndex":0,"midi":36,"velocity":87},{"beat":420.0,"padIndex":3,"midi":46,"velocity":59},{"beat":420.02083,"padIndex":11,"midi":54,"velocity":75},{"beat":420.27083,"padIndex":11,"midi":54,"velocity":36},{"beat":420.5,"padIndex":1,"midi":34,"velocity":69},{"beat":420.52083,"padIndex":11,"midi":54,"velocity":52},{"beat":420.75,"padIndex":1,"midi":34,"velocity":69},{"beat":420.77083,"padIndex":11,"midi":54,"velocity":32},{"beat":421.0,"padIndex":0,"midi":36,"velocity":86},{"beat":421.0,"padIndex":1,"midi":34,"velocity":45},{"beat":421.02083,"padIndex":11,"midi":54,"velocity":85},{"beat":421.25,"padIndex":1,"midi":34,"velocity":67},{"beat":421.27083,"padIndex":11,"midi":54,"velocity":45},{"beat":421.5,"padIndex":6,"midi":45,"velocity":70},{"beat":421.52083,"padIndex":11,"midi":54,"velocity":59},{"beat":421.75,"padIndex":6,"midi":45,"velocity":70},{"beat":421.77083,"padIndex":11,"midi":54,"velocity":44},{"beat":422.0,"padIndex":0,"midi":36,"velocity":89},{"beat":422.0,"padIndex":6,"midi":45,"velocity":75},{"beat":422.02083,"padIndex":11,"midi":54,"velocity":75},{"beat":422.25,"padIndex":6,"midi":45,"velocity":72},{"beat":422.27083,"padIndex":11,"midi":54,"velocity":36},{"beat":422.5,"padIndex":6,"midi":41,"velocity":75},{"beat":422.52083,"padIndex":11,"midi":54,"velocity":52},{"beat":422.75,"padIndex":6,"midi":41,"velocity":50},{"beat":422.77083,"padIndex":11,"midi":54,"velocity":32},{"beat":423.0,"padIndex":0,"midi":36,"velocity":88},{"beat":423.0,"padIndex":1,"midi":34,"velocity":45},{"beat":423.0,"padIndex":6,"midi":41,"velocity":70},{"beat":423.02083,"padIndex":11,"midi":54,"velocity":85},{"beat":423.27083,"padIndex":11,"midi":54,"velocity":45},{"beat":423.5,"padIndex":6,"midi":41,"velocity":70},{"beat":423.52083,"padIndex":11,"midi":54,"velocity":59},{"beat":423.75,"padIndex":6,"midi":41,"velocity":65},{"beat":423.77083,"padIndex":11,"midi":54,"velocity":44},{"beat":424.0,"padIndex":0,"midi":36,"velocity":89},{"beat":424.0,"padIndex":12,"midi":57,"velocity":59},{"beat":424.0,"padIndex":12,"midi":49,"velocity":59},{"beat":424.02083,"padIndex":11,"midi":54,"velocity":75},{"beat":424.27083,"padIndex":11,"midi":54,"velocity":36},{"beat":424.52083,"padIndex":11,"midi":54,"velocity":52},{"beat":424.77083,"padIndex":11,"midi":54,"velocity":32},{"beat":425.0,"padIndex":1,"midi":34,"velocity":73},{"beat":425.0,"padIndex":3,"midi":46,"velocity":69},{"beat":425.02083,"padIndex":11,"midi":54,"velocity":85},{"beat":425.27083,"padIndex":11,"midi":54,"velocity":45},{"beat":425.52083,"padIndex":11,"midi":54,"velocity":59},{"beat":425.75,"padIndex":1,"midi":34,"velocity":55},{"beat":425.77083,"padIndex":11,"midi":54,"velocity":44},{"beat":426.0,"padIndex":0,"midi":36,"velocity":90},{"beat":426.0,"padIndex":3,"midi":46,"velocity":71},{"beat":426.02083,"padIndex":11,"midi":54,"velocity":75},{"beat":426.25,"padIndex":1,"midi":34,"velocity":50},{"beat":426.27083,"padIndex":11,"midi":54,"velocity":36},{"beat":426.5,"padIndex":0,"midi":36,"velocity":91},{"beat":426.52083,"padIndex":11,"midi":54,"velocity":52},{"beat":426.77083,"padIndex":11,"midi":54,"velocity":32},{"beat":427.0,"padIndex":1,"midi":34,"velocity":75},{"beat":427.0,"padIndex":3,"midi":46,"velocity":70},{"beat":427.02083,"padIndex":11,"midi":54,"velocity":85},{"beat":427.27083,"padIndex":11,"midi":54,"velocity":45},{"beat":427.5,"padIndex":0,"midi":36,"velocity":90},{"beat":427.52083,"padIndex":11,"midi":54,"velocity":59},{"beat":427.75,"padIndex":1,"midi":34,"velocity":50},{"beat":427.77083,"padIndex":11,"midi":54,"velocity":44},{"beat":428.0,"padIndex":0,"midi":36,"velocity":87},{"beat":428.0,"padIndex":12,"midi":57,"velocity":55},{"beat":428.0,"padIndex":12,"midi":49,"velocity":45},{"beat":428.02083,"padIndex":11,"midi":54,"velocity":75},{"beat":428.27083,"padIndex":11,"midi":54,"velocity":36},{"beat":428.52083,"padIndex":11,"midi":54,"velocity":52},{"beat":428.77083,"padIndex":11,"midi":54,"velocity":32},{"beat":429.0,"padIndex":1,"midi":34,"velocity":73},{"beat":429.0,"padIndex":3,"midi":46,"velocity":71},{"beat":429.02083,"padIndex":11,"midi":54,"velocity":85},{"beat":429.27083,"padIndex":11,"midi":54,"velocity":45},{"beat":429.52083,"padIndex":11,"midi":54,"velocity":59},{"beat":429.75,"padIndex":1,"midi":34,"velocity":50},{"beat":429.77083,"padIndex":11,"midi":54,"velocity":44},{"beat":430.0,"padIndex":3,"midi":46,"velocity":77},{"beat":430.02083,"padIndex":11,"midi":54,"velocity":75},{"beat":430.25,"padIndex":1,"midi":34,"velocity":50},{"beat":430.27083,"padIndex":11,"midi":54,"velocity":36},{"beat":430.5,"padIndex":0,"midi":36,"velocity":92},{"beat":430.52083,"padIndex":11,"midi":54,"velocity":52},{"beat":430.77083,"padIndex":11,"midi":54,"velocity":32},{"beat":431.0,"padIndex":1,"midi":34,"velocity":65},{"beat":431.0,"padIndex":3,"midi":46,"velocity":69},{"beat":431.02083,"padIndex":11,"midi":54,"velocity":85},{"beat":431.27083,"padIndex":11,"midi":54,"velocity":45},{"beat":431.52083,"padIndex":11,"midi":54,"velocity":59},{"beat":431.75,"padIndex":1,"midi":34,"velocity":55},{"beat":431.77083,"padIndex":11,"midi":54,"velocity":44},{"beat":432.0,"padIndex":0,"midi":36,"velocity":92},{"beat":432.0,"padIndex":12,"midi":57,"velocity":59},{"beat":432.0,"padIndex":12,"midi":49,"velocity":59},{"beat":432.02083,"padIndex":11,"midi":54,"velocity":75},{"beat":432.27083,"padIndex":11,"midi":54,"velocity":36},{"beat":432.52083,"padIndex":11,"midi":54,"velocity":52},{"beat":432.77083,"padIndex":11,"midi":54,"velocity":32},{"beat":433.0,"padIndex":1,"midi":34,"velocity":73},{"beat":433.0,"padIndex":3,"midi":46,"velocity":71},{"beat":433.02083,"padIndex":11,"midi":54,"velocity":85},{"beat":433.27083,"padIndex":11,"midi":54,"velocity":45},{"beat":433.52083,"padIndex":11,"midi":54,"velocity":59},{"beat":433.75,"padIndex":1,"midi":34,"velocity":55},{"beat":433.77083,"padIndex":11,"midi":54,"velocity":44},{"beat":434.0,"padIndex":0,"midi":36,"velocity":91},{"beat":434.0,"padIndex":3,"midi":46,"velocity":77},{"beat":434.02083,"padIndex":11,"midi":54,"velocity":75},{"beat":434.25,"padIndex":1,"midi":34,"velocity":50},{"beat":434.27083,"padIndex":11,"midi":54,"velocity":36},{"beat":434.5,"padIndex":0,"midi":36,"velocity":89},{"beat":434.52083,"padIndex":11,"midi":54,"velocity":52},{"beat":434.77083,"padIndex":11,"midi":54,"velocity":32},{"beat":435.0,"padIndex":1,"midi":34,"velocity":55},{"beat":435.0,"padIndex":3,"midi":46,"velocity":72},{"beat":435.02083,"padIndex":11,"midi":54,"velocity":85},{"beat":435.27083,"padIndex":11,"midi":54,"velocity":45},{"beat":435.5,"padIndex":0,"midi":36,"velocity":91},{"beat":435.52083,"padIndex":11,"midi":54,"velocity":59},{"beat":435.77083,"padIndex":11,"midi":54,"velocity":44},{"beat":436.0,"padIndex":0,"midi":36,"velocity":88},{"beat":436.0,"padIndex":12,"midi":49,"velocity":59},{"beat":436.0,"padIndex":12,"midi":57,"velocity":45},{"beat":436.02083,"padIndex":11,"midi":54,"velocity":75},{"beat":436.27083,"padIndex":11,"midi":54,"velocity":36},{"beat":436.52083,"padIndex":11,"midi":54,"velocity":52},{"beat":436.77083,"padIndex":11,"midi":54,"velocity":32},{"beat":437.0,"padIndex":1,"midi":34,"velocity":73},{"beat":437.0,"padIndex":3,"midi":46,"velocity":69},{"beat":437.02083,"padIndex":11,"midi":54,"velocity":85},{"beat":437.27083,"padIndex":11,"midi":54,"velocity":45},{"beat":437.52083,"padIndex":11,"midi":54,"velocity":59},{"beat":437.75,"padIndex":1,"midi":34,"velocity":65},{"beat":437.77083,"padIndex":11,"midi":54,"velocity":44},{"beat":438.0,"padIndex":0,"midi":36,"velocity":92},{"beat":438.0,"padIndex":1,"midi":34,"velocity":50},{"beat":438.0,"padIndex":3,"midi":46,"velocity":69},{"beat":438.02083,"padIndex":11,"midi":54,"velocity":75},{"beat":438.25,"padIndex":1,"midi":34,"velocity":45},{"beat":438.27083,"padIndex":11,"midi":54,"velocity":36},{"beat":438.5,"padIndex":1,"midi":34,"velocity":70},{"beat":438.52083,"padIndex":11,"midi":54,"velocity":52},{"beat":438.75,"padIndex":1,"midi":34,"velocity":75},{"beat":438.77083,"padIndex":11,"midi":54,"velocity":32},{"beat":439.0,"padIndex":0,"midi":36,"velocity":89},{"beat":439.0,"padIndex":1,"midi":34,"velocity":75},{"beat":439.0,"padIndex":3,"midi":46,"velocity":71},{"beat":439.02083,"padIndex":11,"midi":54,"velocity":85},{"beat":439.25,"padIndex":1,"midi":34,"velocity":65},{"beat":439.27083,"padIndex":11,"midi":54,"velocity":45},{"beat":439.5,"padIndex":6,"midi":45,"velocity":77},{"beat":439.52083,"padIndex":11,"midi":54,"velocity":59},{"beat":439.75,"padIndex":6,"midi":45,"velocity":68},{"beat":439.77083,"padIndex":11,"midi":54,"velocity":44},{"beat":440.0,"padIndex":0,"midi":36,"velocity":88},{"beat":440.0,"padIndex":3,"midi":46,"velocity":62},{"beat":440.0,"padIndex":12,"midi":49,"velocity":55},{"beat":440.02083,"padIndex":11,"midi":54,"velocity":75},{"beat":440.27083,"padIndex":11,"midi":54,"velocity":36},{"beat":440.52083,"padIndex":11,"midi":54,"velocity":52},{"beat":440.77083,"padIndex":11,"midi":54,"velocity":32},{"beat":441.0,"padIndex":1,"midi":34,"velocity":73},{"beat":441.0,"padIndex":3,"midi":46,"velocity":70},{"beat":441.02083,"padIndex":11,"midi":54,"velocity":85},{"beat":441.27083,"padIndex":11,"midi":54,"velocity":45},{"beat":441.52083,"padIndex":11,"midi":54,"velocity":59},{"beat":441.75,"padIndex":1,"midi":34,"velocity":55},{"beat":441.77083,"padIndex":11,"midi":54,"velocity":44},{"beat":442.0,"padIndex":0,"midi":36,"velocity":86},{"beat":442.0,"padIndex":3,"midi":46,"velocity":72},{"beat":442.02083,"padIndex":11,"midi":54,"velocity":75},{"beat":442.25,"padIndex":1,"midi":34,"velocity":50},{"beat":442.27083,"padIndex":11,"midi":54,"velocity":36},{"beat":442.5,"padIndex":0,"midi":36,"velocity":87},{"beat":442.52083,"padIndex":11,"midi":54,"velocity":52},{"beat":442.77083,"padIndex":11,"midi":54,"velocity":32},{"beat":443.0,"padIndex":1,"midi":34,"velocity":75},{"beat":443.0,"padIndex":3,"midi":46,"velocity":73},{"beat":443.02083,"padIndex":11,"midi":54,"velocity":85},{"beat":443.27083,"padIndex":11,"midi":54,"velocity":45},{"beat":443.5,"padIndex":0,"midi":36,"velocity":90},{"beat":443.52083,"padIndex":11,"midi":54,"velocity":59},{"beat":443.77083,"padIndex":11,"midi":54,"velocity":44},{"beat":444.0,"padIndex":1,"midi":34,"velocity":55},{"beat":444.0,"padIndex":3,"midi":46,"velocity":77},{"beat":444.02083,"padIndex":11,"midi":54,"velocity":75},{"beat":444.27083,"padIndex":11,"midi":54,"velocity":36},{"beat":444.5,"padIndex":0,"midi":36,"velocity":92},{"beat":444.52083,"padIndex":11,"midi":54,"velocity":52},{"beat":444.77083,"padIndex":11,"midi":54,"velocity":32},{"beat":445.0,"padIndex":1,"midi":34,"velocity":73},{"beat":445.0,"padIndex":3,"midi":46,"velocity":73},{"beat":445.02083,"padIndex":11,"midi":54,"velocity":85},{"beat":445.27083,"padIndex":11,"midi":54,"velocity":45},{"beat":445.52083,"padIndex":11,"midi":54,"velocity":59},{"beat":445.75,"padIndex":1,"midi":34,"velocity":65},{"beat":445.77083,"padIndex":11,"midi":54,"velocity":44},{"beat":446.0,"padIndex":0,"midi":36,"velocity":89},{"beat":446.0,"padIndex":3,"midi":46,"velocity":69},{"beat":446.02083,"padIndex":11,"midi":54,"velocity":75},{"beat":446.27083,"padIndex":11,"midi":54,"velocity":36},{"beat":446.5,"padIndex":1,"midi":34,"velocity":55},{"beat":446.52083,"padIndex":11,"midi":54,"velocity":52},{"beat":446.77083,"padIndex":11,"midi":54,"velocity":32},{"beat":447.0,"padIndex":0,"midi":36,"velocity":89},{"beat":447.0,"padIndex":1,"midi":34,"velocity":75},{"beat":447.0,"padIndex":3,"midi":46,"velocity":74},{"beat":447.02083,"padIndex":11,"midi":54,"velocity":85},{"beat":447.25,"padIndex":1,"midi":34,"velocity":70},{"beat":447.27083,"padIndex":11,"midi":54,"velocity":45},{"beat":447.5,"padIndex":1,"midi":34,"velocity":75},{"beat":447.52083,"padIndex":11,"midi":54,"velocity":59},{"beat":447.75,"padIndex":1,"midi":34,"velocity":77},{"beat":447.77083,"padIndex":11,"midi":54,"velocity":44},{"beat":448.0,"padIndex":0,"midi":36,"velocity":89},{"beat":448.0,"padIndex":3,"midi":46,"velocity":77},{"beat":448.0,"padIndex":12,"midi":57,"velocity":45},{"beat":448.02083,"padIndex":11,"midi":54,"velocity":75},{"beat":448.27083,"padIndex":11,"midi":54,"velocity":36},{"beat":448.5,"padIndex":0,"midi":36,"velocity":86},{"beat":448.52083,"padIndex":11,"midi":54,"velocity":52},{"beat":448.77083,"padIndex":11,"midi":54,"velocity":32},{"beat":449.0,"padIndex":1,"midi":34,"velocity":73},{"beat":449.0,"padIndex":3,"midi":46,"velocity":69},{"beat":449.02083,"padIndex":11,"midi":54,"velocity":85},{"beat":449.27083,"padIndex":11,"midi":54,"velocity":45},{"beat":449.52083,"padIndex":11,"midi":54,"velocity":59},{"beat":449.75,"padIndex":1,"midi":34,"velocity":65},{"beat":449.77083,"padIndex":11,"midi":54,"velocity":44},{"beat":450.0,"padIndex":0,"midi":36,"velocity":86},{"beat":450.0,"padIndex":3,"midi":46,"velocity":73},{"beat":450.02083,"padIndex":11,"midi":54,"velocity":75},{"beat":450.27083,"padIndex":11,"midi":54,"velocity":36},{"beat":450.5,"padIndex":6,"midi":45,"velocity":83},{"beat":450.52083,"padIndex":11,"midi":54,"velocity":52},{"beat":450.75,"padIndex":1,"midi":34,"velocity":45},{"beat":450.77083,"padIndex":11,"midi":54,"velocity":32},{"beat":451.0,"padIndex":0,"midi":36,"velocity":89},{"beat":451.0,"padIndex":1,"midi":34,"velocity":70},{"beat":451.0,"padIndex":3,"midi":46,"velocity":69},{"beat":451.02083,"padIndex":11,"midi":54,"velocity":85},{"beat":451.25,"padIndex":1,"midi":34,"velocity":75},{"beat":451.27083,"padIndex":11,"midi":54,"velocity":45},{"beat":451.5,"padIndex":1,"midi":34,"velocity":75},{"beat":451.52083,"padIndex":11,"midi":54,"velocity":59},{"beat":451.75,"padIndex":1,"midi":34,"velocity":77},{"beat":451.77083,"padIndex":11,"midi":54,"velocity":44},{"beat":452.0,"padIndex":0,"midi":36,"velocity":87},{"beat":452.0,"padIndex":6,"midi":45,"velocity":83},{"beat":452.02083,"padIndex":11,"midi":54,"velocity":75},{"beat":452.27083,"padIndex":11,"midi":54,"velocity":36},{"beat":452.5,"padIndex":1,"midi":34,"velocity":60},{"beat":452.52083,"padIndex":11,"midi":54,"velocity":52},{"beat":452.75,"padIndex":1,"midi":34,"velocity":73},{"beat":452.77083,"padIndex":11,"midi":54,"velocity":32},{"beat":453.0,"padIndex":0,"midi":36,"velocity":91},{"beat":453.0,"padIndex":1,"midi":34,"velocity":55},{"beat":453.02083,"padIndex":11,"midi":54,"velocity":85},{"beat":453.25,"padIndex":1,"midi":34,"velocity":73},{"beat":453.27083,"padIndex":11,"midi":54,"velocity":45},{"beat":453.5,"padIndex":6,"midi":45,"velocity":70},{"beat":453.52083,"padIndex":11,"midi":54,"velocity":59},{"beat":453.75,"padIndex":6,"midi":45,"velocity":70},{"beat":453.77083,"padIndex":11,"midi":54,"velocity":44},{"beat":454.0,"padIndex":0,"midi":36,"velocity":89},{"beat":454.0,"padIndex":6,"midi":45,"velocity":70},{"beat":454.02083,"padIndex":11,"midi":54,"velocity":75},{"beat":454.25,"padIndex":6,"midi":45,"velocity":70},{"beat":454.27083,"padIndex":11,"midi":54,"velocity":36},{"beat":454.5,"padIndex":6,"midi":41,"velocity":70},{"beat":454.52083,"padIndex":11,"midi":54,"velocity":52},{"beat":454.77083,"padIndex":11,"midi":54,"velocity":32},{"beat":455.0,"padIndex":0,"midi":36,"velocity":90},{"beat":455.0,"padIndex":6,"midi":41,"velocity":70},{"beat":455.02083,"padIndex":11,"midi":54,"velocity":85},{"beat":455.27083,"padIndex":11,"midi":54,"velocity":45},{"beat":455.5,"padIndex":6,"midi":41,"velocity":65},{"beat":455.52083,"padIndex":11,"midi":54,"velocity":59},{"beat":455.75,"padIndex":6,"midi":41,"velocity":65},{"beat":455.77083,"padIndex":11,"midi":54,"velocity":44},{"beat":456.0,"padIndex":0,"midi":36,"velocity":86},{"beat":456.0,"padIndex":12,"midi":57,"velocity":65},{"beat":456.0,"padIndex":12,"midi":49,"velocity":55},{"beat":456.02083,"padIndex":11,"midi":54,"velocity":75},{"beat":456.27083,"padIndex":11,"midi":54,"velocity":36},{"beat":456.52083,"padIndex":11,"midi":54,"velocity":52},{"beat":456.77083,"padIndex":11,"midi":54,"velocity":32},{"beat":457.0,"padIndex":1,"midi":34,"velocity":73},{"beat":457.0,"padIndex":3,"midi":46,"velocity":69},{"beat":457.02083,"padIndex":11,"midi":54,"velocity":85},{"beat":457.27083,"padIndex":11,"midi":54,"velocity":45},{"beat":457.5,"padIndex":1,"midi":34,"velocity":50},{"beat":457.52083,"padIndex":11,"midi":54,"velocity":59},{"beat":457.77083,"padIndex":11,"midi":54,"velocity":44},{"beat":458.0,"padIndex":3,"midi":46,"velocity":73},{"beat":458.02083,"padIndex":11,"midi":54,"velocity":75},{"beat":458.25,"padIndex":1,"midi":34,"velocity":50},{"beat":458.27083,"padIndex":11,"midi":54,"velocity":36},{"beat":458.5,"padIndex":0,"midi":36,"velocity":91},{"beat":458.5,"padIndex":3,"midi":46,"velocity":47},{"beat":458.52083,"padIndex":11,"midi":54,"velocity":52},{"beat":458.77083,"padIndex":11,"midi":54,"velocity":32},{"beat":459.0,"padIndex":1,"midi":34,"velocity":75},{"beat":459.0,"padIndex":3,"midi":46,"velocity":69},{"beat":459.02083,"padIndex":11,"midi":54,"velocity":85},{"beat":459.27083,"padIndex":11,"midi":54,"velocity":45},{"beat":459.5,"padIndex":0,"midi":36,"velocity":90},{"beat":459.52083,"padIndex":11,"midi":54,"velocity":59},{"beat":459.77083,"padIndex":11,"midi":54,"velocity":44},{"beat":460.0,"padIndex":1,"midi":34,"velocity":45},{"beat":460.0,"padIndex":3,"midi":46,"velocity":69},{"beat":460.0,"padIndex":12,"midi":57,"velocity":45},{"beat":460.02083,"padIndex":11,"midi":54,"velocity":75},{"beat":460.27083,"padIndex":11,"midi":54,"velocity":36},{"beat":460.5,"padIndex":0,"midi":36,"velocity":90},{"beat":460.52083,"padIndex":11,"midi":54,"velocity":52},{"beat":460.77083,"padIndex":11,"midi":54,"velocity":32},{"beat":461.0,"padIndex":1,"midi":34,"velocity":73},{"beat":461.0,"padIndex":3,"midi":46,"velocity":73},{"beat":461.02083,"padIndex":11,"midi":54,"velocity":85},{"beat":461.27083,"padIndex":11,"midi":54,"velocity":45},{"beat":461.5,"padIndex":1,"midi":34,"velocity":55},{"beat":461.52083,"padIndex":11,"midi":54,"velocity":59},{"beat":461.75,"padIndex":1,"midi":34,"velocity":65},{"beat":461.77083,"padIndex":11,"midi":54,"velocity":44},{"beat":462.0,"padIndex":0,"midi":36,"velocity":87},{"beat":462.0,"padIndex":3,"midi":46,"velocity":70},{"beat":462.0,"padIndex":12,"midi":57,"velocity":38},{"beat":462.02083,"padIndex":11,"midi":54,"velocity":75},{"beat":462.27083,"padIndex":11,"midi":54,"velocity":36},{"beat":462.5,"padIndex":1,"midi":34,"velocity":60},{"beat":462.5,"padIndex":6,"midi":45,"velocity":70},{"beat":462.52083,"padIndex":11,"midi":54,"velocity":52},{"beat":462.77083,"padIndex":11,"midi":54,"velocity":32},{"beat":463.0,"padIndex":1,"midi":34,"velocity":55},{"beat":463.0,"padIndex":6,"midi":45,"velocity":75},{"beat":463.02083,"padIndex":11,"midi":54,"velocity":85},{"beat":463.27083,"padIndex":11,"midi":54,"velocity":45},{"beat":463.5,"padIndex":0,"midi":36,"velocity":91},{"beat":463.5,"padIndex":1,"midi":34,"velocity":55},{"beat":463.5,"padIndex":6,"midi":41,"velocity":46},{"beat":463.52083,"padIndex":11,"midi":54,"velocity":59},{"beat":463.75,"padIndex":1,"midi":34,"velocity":63},{"beat":463.77083,"padIndex":11,"midi":54,"velocity":44},{"beat":464.0,"padIndex":0,"midi":36,"velocity":89},{"beat":464.0,"padIndex":12,"midi":49,"velocity":65},{"beat":464.0,"padIndex":12,"midi":57,"velocity":38},{"beat":464.02083,"padIndex":11,"midi":54,"velocity":75},{"beat":464.27083,"padIndex":11,"midi":54,"velocity":36},{"beat":464.5,"padIndex":0,"midi":36,"velocity":89},{"beat":464.52083,"padIndex":11,"midi":54,"velocity":52},{"beat":464.77083,"padIndex":11,"midi":54,"velocity":32},{"beat":465.0,"padIndex":1,"midi":34,"velocity":73},{"beat":465.0,"padIndex":3,"midi":46,"velocity":71},{"beat":465.0,"padIndex":12,"midi":49,"velocity":40},{"beat":465.02083,"padIndex":11,"midi":54,"velocity":85},{"beat":465.27083,"padIndex":11,"midi":54,"velocity":45},{"beat":465.5,"padIndex":6,"midi":41,"velocity":70},{"beat":465.52083,"padIndex":11,"midi":54,"velocity":59},{"beat":465.75,"padIndex":6,"midi":41,"velocity":60},{"beat":465.77083,"padIndex":11,"midi":54,"velocity":44},{"beat":466.0,"padIndex":0,"midi":36,"velocity":91},{"beat":466.0,"padIndex":1,"midi":34,"velocity":56},{"beat":466.0,"padIndex":3,"midi":46,"velocity":76},{"beat":466.0,"padIndex":6,"midi":41,"velocity":50},{"beat":466.0,"padIndex":12,"midi":57,"velocity":35},{"beat":466.02083,"padIndex":11,"midi":54,"velocity":75},{"beat":466.27083,"padIndex":11,"midi":54,"velocity":36},{"beat":466.5,"padIndex":1,"midi":34,"velocity":59},{"beat":466.52083,"padIndex":11,"midi":54,"velocity":52},{"beat":466.77083,"padIndex":11,"midi":54,"velocity":32},{"beat":467.0,"padIndex":0,"midi":36,"velocity":86},{"beat":467.0,"padIndex":3,"midi":46,"velocity":69},{"beat":467.0,"padIndex":12,"midi":57,"velocity":35},{"beat":467.02083,"padIndex":11,"midi":54,"velocity":85},{"beat":467.27083,"padIndex":11,"midi":54,"velocity":45},{"beat":467.5,"padIndex":1,"midi":34,"velocity":70},{"beat":467.5,"padIndex":12,"midi":57,"velocity":35},{"beat":467.52083,"padIndex":11,"midi":54,"velocity":59},{"beat":467.77083,"padIndex":11,"midi":54,"velocity":44},{"beat":468.0,"padIndex":12,"midi":49,"velocity":46},{"beat":468.0,"padIndex":12,"midi":57,"velocity":56},{"beat":468.02083,"padIndex":11,"midi":54,"velocity":75},{"beat":468.27083,"padIndex":11,"midi":54,"velocity":36},{"beat":468.5,"padIndex":0,"midi":36,"velocity":87},{"beat":468.52083,"padIndex":11,"midi":54,"velocity":52},{"beat":468.77083,"padIndex":11,"midi":54,"velocity":32},{"beat":469.0,"padIndex":1,"midi":34,"velocity":73},{"beat":469.0,"padIndex":3,"midi":46,"velocity":71},{"beat":469.02083,"padIndex":11,"midi":54,"velocity":85},{"beat":469.27083,"padIndex":11,"midi":54,"velocity":45},{"beat":469.52083,"padIndex":11,"midi":54,"velocity":59},{"beat":469.75,"padIndex":1,"midi":34,"velocity":55},{"beat":469.77083,"padIndex":11,"midi":54,"velocity":44},{"beat":470.0,"padIndex":0,"midi":36,"velocity":89},{"beat":470.0,"padIndex":3,"midi":46,"velocity":74},{"beat":470.0,"padIndex":12,"midi":49,"velocity":45},{"beat":470.02083,"padIndex":11,"midi":54,"velocity":75},{"beat":470.27083,"padIndex":11,"midi":54,"velocity":36},{"beat":470.5,"padIndex":1,"midi":34,"velocity":61},{"beat":470.52083,"padIndex":11,"midi":54,"velocity":52},{"beat":470.77083,"padIndex":11,"midi":54,"velocity":32},{"beat":471.0,"padIndex":0,"midi":36,"velocity":90},{"beat":471.0,"padIndex":1,"midi":34,"velocity":65},{"beat":471.02083,"padIndex":11,"midi":54,"velocity":85},{"beat":471.25,"padIndex":1,"midi":34,"velocity":75},{"beat":471.27083,"padIndex":11,"midi":54,"velocity":45},{"beat":471.5,"padIndex":1,"midi":34,"velocity":65},{"beat":471.52083,"padIndex":11,"midi":54,"velocity":59},{"beat":471.75,"padIndex":1,"midi":34,"velocity":75},{"beat":471.77083,"padIndex":11,"midi":54,"velocity":44},{"beat":472.0,"padIndex":0,"midi":36,"velocity":89},{"beat":472.0,"padIndex":12,"midi":49,"velocity":45},{"beat":472.0,"padIndex":12,"midi":57,"velocity":45},{"beat":472.02083,"padIndex":11,"midi":54,"velocity":75},{"beat":472.27083,"padIndex":11,"midi":54,"velocity":36},{"beat":472.52083,"padIndex":11,"midi":54,"velocity":52},{"beat":472.77083,"padIndex":11,"midi":54,"velocity":32},{"beat":473.0,"padIndex":1,"midi":34,"velocity":73},{"beat":473.0,"padIndex":3,"midi":46,"velocity":69},{"beat":473.02083,"padIndex":11,"midi":54,"velocity":85},{"beat":473.27083,"padIndex":11,"midi":54,"velocity":45},{"beat":473.52083,"padIndex":11,"midi":54,"velocity":59},{"beat":473.75,"padIndex":1,"midi":34,"velocity":55},{"beat":473.77083,"padIndex":11,"midi":54,"velocity":44},{"beat":474.0,"padIndex":0,"midi":36,"velocity":92},{"beat":474.0,"padIndex":3,"midi":46,"velocity":69},{"beat":474.02083,"padIndex":11,"midi":54,"velocity":75},{"beat":474.25,"padIndex":1,"midi":34,"velocity":45},{"beat":474.27083,"padIndex":11,"midi":54,"velocity":36},{"beat":474.5,"padIndex":0,"midi":36,"velocity":92},{"beat":474.52083,"padIndex":11,"midi":54,"velocity":52},{"beat":474.77083,"padIndex":11,"midi":54,"velocity":32},{"beat":475.0,"padIndex":1,"midi":34,"velocity":55},{"beat":475.0,"padIndex":3,"midi":46,"velocity":73},{"beat":475.02083,"padIndex":11,"midi":54,"velocity":85},{"beat":475.27083,"padIndex":11,"midi":54,"velocity":45},{"beat":475.5,"padIndex":0,"midi":36,"velocity":87},{"beat":475.52083,"padIndex":11,"midi":54,"velocity":59},{"beat":475.77083,"padIndex":11,"midi":54,"velocity":44},{"beat":476.0,"padIndex":0,"midi":36,"velocity":90},{"beat":476.0,"padIndex":3,"midi":46,"velocity":73},{"beat":476.0,"padIndex":12,"midi":57,"velocity":38},{"beat":476.02083,"padIndex":11,"midi":54,"velocity":75},{"beat":476.27083,"padIndex":11,"midi":54,"velocity":36},{"beat":476.52083,"padIndex":11,"midi":54,"velocity":52},{"beat":476.77083,"padIndex":11,"midi":54,"velocity":32},{"beat":477.0,"padIndex":1,"midi":34,"velocity":73},{"beat":477.0,"padIndex":3,"midi":46,"velocity":72},{"beat":477.02083,"padIndex":11,"midi":54,"velocity":85},{"beat":477.27083,"padIndex":11,"midi":54,"velocity":45},{"beat":477.52083,"padIndex":11,"midi":54,"velocity":59},{"beat":477.75,"padIndex":1,"midi":34,"velocity":55},{"beat":477.77083,"padIndex":11,"midi":54,"velocity":44},{"beat":478.0,"padIndex":0,"midi":36,"velocity":86},{"beat":478.0,"padIndex":3,"midi":46,"velocity":71},{"beat":478.02083,"padIndex":11,"midi":54,"velocity":75},{"beat":478.27083,"padIndex":11,"midi":54,"velocity":36},{"beat":478.5,"padIndex":0,"midi":36,"velocity":87},{"beat":478.52083,"padIndex":11,"midi":54,"velocity":52},{"beat":478.77083,"padIndex":11,"midi":54,"velocity":32},{"beat":479.0,"padIndex":1,"midi":34,"velocity":75},{"beat":479.0,"padIndex":3,"midi":46,"velocity":73},{"beat":479.02083,"padIndex":11,"midi":54,"velocity":85},{"beat":479.27083,"padIndex":11,"midi":54,"velocity":45},{"beat":479.52083,"padIndex":11,"midi":54,"velocity":59},{"beat":479.75,"padIndex":1,"midi":34,"velocity":65},{"beat":479.77083,"padIndex":11,"midi":54,"velocity":44},{"beat":480.0,"padIndex":0,"midi":36,"velocity":89},{"beat":480.0,"padIndex":12,"midi":49,"velocity":50},{"beat":480.0,"padIndex":12,"midi":57,"velocity":38},{"beat":480.02083,"padIndex":11,"midi":54,"velocity":75},{"beat":480.27083,"padIndex":11,"midi":54,"velocity":36},{"beat":480.5,"padIndex":0,"midi":36,"velocity":88},{"beat":480.52083,"padIndex":11,"midi":54,"velocity":52},{"beat":480.77083,"padIndex":11,"midi":54,"velocity":32},{"beat":481.0,"padIndex":1,"midi":34,"velocity":73},{"beat":481.0,"padIndex":3,"midi":46,"velocity":69},{"beat":481.0,"padIndex":12,"midi":49,"velocity":46},{"beat":481.02083,"padIndex":11,"midi":54,"velocity":85},{"beat":481.27083,"padIndex":11,"midi":54,"velocity":45},{"beat":481.52083,"padIndex":11,"midi":54,"velocity":59},{"beat":481.75,"padIndex":1,"midi":34,"velocity":65},{"beat":481.77083,"padIndex":11,"midi":54,"velocity":44},{"beat":482.0,"padIndex":0,"midi":36,"velocity":87},{"beat":482.0,"padIndex":3,"midi":46,"velocity":71},{"beat":482.02083,"padIndex":11,"midi":54,"velocity":75},{"beat":482.25,"padIndex":1,"midi":34,"velocity":45},{"beat":482.27083,"padIndex":11,"midi":54,"velocity":36},{"beat":482.5,"padIndex":0,"midi":36,"velocity":90},{"beat":482.52083,"padIndex":11,"midi":54,"velocity":52},{"beat":482.77083,"padIndex":11,"midi":54,"velocity":32},{"beat":483.0,"padIndex":1,"midi":34,"velocity":75},{"beat":483.0,"padIndex":3,"midi":46,"velocity":72},{"beat":483.02083,"padIndex":11,"midi":54,"velocity":85},{"beat":483.27083,"padIndex":11,"midi":54,"velocity":45},{"beat":483.52083,"padIndex":11,"midi":54,"velocity":59},{"beat":483.75,"padIndex":1,"midi":34,"velocity":55},{"beat":483.77083,"padIndex":11,"midi":54,"velocity":44},{"beat":484.0,"padIndex":0,"midi":36,"velocity":88},{"beat":484.0,"padIndex":1,"midi":34,"velocity":55},{"beat":484.02083,"padIndex":11,"midi":54,"velocity":75},{"beat":484.25,"padIndex":1,"midi":34,"velocity":63},{"beat":484.27083,"padIndex":11,"midi":54,"velocity":36},{"beat":484.5,"padIndex":1,"midi":34,"velocity":64},{"beat":484.52083,"padIndex":11,"midi":54,"velocity":52},{"beat":484.75,"padIndex":1,"midi":34,"velocity":65},{"beat":484.77083,"padIndex":11,"midi":54,"velocity":32},{"beat":485.0,"padIndex":0,"midi":36,"velocity":82},{"beat":485.0,"padIndex":1,"midi":34,"velocity":64},{"beat":485.02083,"padIndex":11,"midi":54,"velocity":85},{"beat":485.25,"padIndex":1,"midi":34,"velocity":45},{"beat":485.27083,"padIndex":11,"midi":54,"velocity":45},{"beat":485.5,"padIndex":1,"midi":34,"velocity":65},{"beat":485.52083,"padIndex":11,"midi":54,"velocity":59},{"beat":485.75,"padIndex":1,"midi":34,"velocity":45},{"beat":485.77083,"padIndex":11,"midi":54,"velocity":44},{"beat":486.0,"padIndex":0,"midi":36,"velocity":87},{"beat":486.0,"padIndex":1,"midi":34,"velocity":60},{"beat":486.02083,"padIndex":11,"midi":54,"velocity":75},{"beat":486.25,"padIndex":1,"midi":34,"velocity":63},{"beat":486.27083,"padIndex":11,"midi":54,"velocity":36},{"beat":486.5,"padIndex":1,"midi":34,"velocity":64},{"beat":486.52083,"padIndex":11,"midi":54,"velocity":52},{"beat":486.75,"padIndex":1,"midi":34,"velocity":65},{"beat":486.77083,"padIndex":11,"midi":54,"velocity":32},{"beat":487.0,"padIndex":0,"midi":36,"velocity":82},{"beat":487.0,"padIndex":1,"midi":34,"velocity":70},{"beat":487.02083,"padIndex":11,"midi":54,"velocity":85},{"beat":487.25,"padIndex":1,"midi":34,"velocity":55},{"beat":487.27083,"padIndex":11,"midi":54,"velocity":45},{"beat":487.5,"padIndex":1,"midi":34,"velocity":65},{"beat":487.52083,"padIndex":11,"midi":54,"velocity":59},{"beat":487.75,"padIndex":1,"midi":34,"velocity":64},{"beat":487.77083,"padIndex":11,"midi":54,"velocity":44},{"beat":488.0,"padIndex":0,"midi":36,"velocity":90},{"beat":488.0,"padIndex":12,"midi":57,"velocity":55},{"beat":488.0,"padIndex":12,"midi":49,"velocity":55},{"beat":488.02083,"padIndex":11,"midi":54,"velocity":75},{"beat":488.27083,"padIndex":11,"midi":54,"velocity":36},{"beat":488.52083,"padIndex":11,"midi":54,"velocity":52},{"beat":488.77083,"padIndex":11,"midi":54,"velocity":32},{"beat":489.0,"padIndex":1,"midi":34,"velocity":73},{"beat":489.0,"padIndex":3,"midi":46,"velocity":69},{"beat":489.0,"padIndex":12,"midi":57,"velocity":38},{"beat":489.02083,"padIndex":11,"midi":54,"velocity":85},{"beat":489.27083,"padIndex":11,"midi":54,"velocity":45},{"beat":489.52083,"padIndex":11,"midi":54,"velocity":59},{"beat":489.75,"padIndex":1,"midi":34,"velocity":55},{"beat":489.77083,"padIndex":11,"midi":54,"velocity":44},{"beat":490.0,"padIndex":0,"midi":36,"velocity":86},{"beat":490.0,"padIndex":3,"midi":46,"velocity":71},{"beat":490.0,"padIndex":12,"midi":57,"velocity":38},{"beat":490.02083,"padIndex":11,"midi":54,"velocity":75},{"beat":490.25,"padIndex":1,"midi":34,"velocity":50},{"beat":490.27083,"padIndex":11,"midi":54,"velocity":36},{"beat":490.5,"padIndex":0,"midi":36,"velocity":82},{"beat":490.52083,"padIndex":11,"midi":54,"velocity":52},{"beat":490.77083,"padIndex":11,"midi":54,"velocity":32},{"beat":491.0,"padIndex":1,"midi":34,"velocity":75},{"beat":491.0,"padIndex":3,"midi":46,"velocity":70},{"beat":491.0,"padIndex":12,"midi":57,"velocity":39},{"beat":491.02083,"padIndex":11,"midi":54,"velocity":85},{"beat":491.27083,"padIndex":11,"midi":54,"velocity":45},{"beat":491.52083,"padIndex":11,"midi":54,"velocity":59},{"beat":491.77083,"padIndex":11,"midi":54,"velocity":44},{"beat":492.0,"padIndex":0,"midi":36,"velocity":87},{"beat":492.0,"padIndex":3,"midi":46,"velocity":72},{"beat":492.0,"padIndex":12,"midi":57,"velocity":38},{"beat":492.02083,"padIndex":11,"midi":54,"velocity":75},{"beat":492.27083,"padIndex":11,"midi":54,"velocity":36},{"beat":492.52083,"padIndex":11,"midi":54,"velocity":52},{"beat":492.77083,"padIndex":11,"midi":54,"velocity":32},{"beat":493.0,"padIndex":1,"midi":34,"velocity":73},{"beat":493.0,"padIndex":3,"midi":46,"velocity":71},{"beat":493.0,"padIndex":12,"midi":57,"velocity":38},{"beat":493.02083,"padIndex":11,"midi":54,"velocity":85},{"beat":493.27083,"padIndex":11,"midi":54,"velocity":45},{"beat":493.52083,"padIndex":11,"midi":54,"velocity":59},{"beat":493.75,"padIndex":1,"midi":34,"velocity":65},{"beat":493.77083,"padIndex":11,"midi":54,"velocity":44},{"beat":494.0,"padIndex":0,"midi":36,"velocity":89},{"beat":494.0,"padIndex":3,"midi":46,"velocity":69},{"beat":494.0,"padIndex":12,"midi":57,"velocity":39},{"beat":494.02083,"padIndex":11,"midi":54,"velocity":75},{"beat":494.27083,"padIndex":11,"midi":54,"velocity":36},{"beat":494.5,"padIndex":0,"midi":36,"velocity":88},{"beat":494.52083,"padIndex":11,"midi":54,"velocity":52},{"beat":494.77083,"padIndex":11,"midi":54,"velocity":32},{"beat":495.0,"padIndex":1,"midi":34,"velocity":65},{"beat":495.0,"padIndex":3,"midi":46,"velocity":69},{"beat":495.0,"padIndex":12,"midi":57,"velocity":39},{"beat":495.02083,"padIndex":11,"midi":54,"velocity":85},{"beat":495.27083,"padIndex":11,"midi":54,"velocity":45},{"beat":495.5,"padIndex":0,"midi":36,"velocity":92},{"beat":495.52083,"padIndex":11,"midi":54,"velocity":59},{"beat":495.77083,"padIndex":11,"midi":54,"velocity":44},{"beat":496.0,"padIndex":0,"midi":36,"velocity":86},{"beat":496.0,"padIndex":12,"midi":49,"velocity":55},{"beat":496.0,"padIndex":12,"midi":57,"velocity":45},{"beat":496.02083,"padIndex":11,"midi":54,"velocity":75},{"beat":496.27083,"padIndex":11,"midi":54,"velocity":36},{"beat":496.52083,"padIndex":11,"midi":54,"velocity":52},{"beat":496.77083,"padIndex":11,"midi":54,"velocity":32},{"beat":497.0,"padIndex":1,"midi":34,"velocity":73},{"beat":497.0,"padIndex":3,"midi":46,"velocity":71},{"beat":497.0,"padIndex":12,"midi":57,"velocity":38},{"beat":497.02083,"padIndex":11,"midi":54,"velocity":85},{"beat":497.27083,"padIndex":11,"midi":54,"velocity":45},{"beat":497.52083,"padIndex":11,"midi":54,"velocity":59},{"beat":497.75,"padIndex":1,"midi":34,"velocity":55},{"beat":497.77083,"padIndex":11,"midi":54,"velocity":44},{"beat":498.0,"padIndex":0,"midi":36,"velocity":89},{"beat":498.0,"padIndex":3,"midi":46,"velocity":70},{"beat":498.0,"padIndex":12,"midi":57,"velocity":38},{"beat":498.02083,"padIndex":11,"midi":54,"velocity":75},{"beat":498.27083,"padIndex":11,"midi":54,"velocity":36},{"beat":498.5,"padIndex":0,"midi":36,"velocity":88},{"beat":498.52083,"padIndex":11,"midi":54,"velocity":52},{"beat":498.77083,"padIndex":11,"midi":54,"velocity":32},{"beat":499.0,"padIndex":1,"midi":34,"velocity":55},{"beat":499.0,"padIndex":3,"midi":46,"velocity":72},{"beat":499.0,"padIndex":12,"midi":57,"velocity":39},{"beat":499.02083,"padIndex":11,"midi":54,"velocity":85},{"beat":499.27083,"padIndex":11,"midi":54,"velocity":45},{"beat":499.5,"padIndex":0,"midi":36,"velocity":87},{"beat":499.52083,"padIndex":11,"midi":54,"velocity":59},{"beat":499.77083,"padIndex":11,"midi":54,"velocity":44},{"beat":500.0,"padIndex":3,"midi":46,"velocity":73},{"beat":500.0,"padIndex":12,"midi":57,"velocity":39},{"beat":500.02083,"padIndex":11,"midi":54,"velocity":75},{"beat":500.25,"padIndex":1,"midi":34,"velocity":55},{"beat":500.27083,"padIndex":11,"midi":54,"velocity":36},{"beat":500.5,"padIndex":0,"midi":36,"velocity":87},{"beat":500.52083,"padIndex":11,"midi":54,"velocity":52},{"beat":500.77083,"padIndex":11,"midi":54,"velocity":32},{"beat":501.0,"padIndex":1,"midi":34,"velocity":73},{"beat":501.0,"padIndex":3,"midi":46,"velocity":69},{"beat":501.0,"padIndex":12,"midi":57,"velocity":35},{"beat":501.02083,"padIndex":11,"midi":54,"velocity":85},{"beat":501.27083,"padIndex":11,"midi":54,"velocity":45},{"beat":501.5,"padIndex":0,"midi":36,"velocity":87},{"beat":501.52083,"padIndex":11,"midi":54,"velocity":59},{"beat":501.75,"padIndex":3,"midi":46,"velocity":69},{"beat":501.77083,"padIndex":11,"midi":54,"velocity":44},{"beat":502.0,"padIndex":1,"midi":34,"velocity":60},{"beat":502.0,"padIndex":3,"midi":46,"velocity":69},{"beat":502.0,"padIndex":12,"midi":57,"velocity":38},{"beat":502.02083,"padIndex":11,"midi":54,"velocity":75},{"beat":502.27083,"padIndex":11,"midi":54,"velocity":36},{"beat":502.5,"padIndex":0,"midi":36,"velocity":90},{"beat":502.52083,"padIndex":11,"midi":54,"velocity":52},{"beat":502.77083,"padIndex":11,"midi":54,"velocity":32},{"beat":503.0,"padIndex":1,"midi":34,"velocity":67},{"beat":503.0,"padIndex":3,"midi":46,"velocity":71},{"beat":503.02083,"padIndex":11,"midi":54,"velocity":85},{"beat":503.27083,"padIndex":11,"midi":54,"velocity":45},{"beat":503.5,"padIndex":0,"midi":36,"velocity":88},{"beat":503.52083,"padIndex":11,"midi":54,"velocity":59},{"beat":503.77083,"padIndex":11,"midi":54,"velocity":44},{"beat":504.0,"padIndex":0,"midi":36,"velocity":89},{"beat":504.0,"padIndex":12,"midi":49,"velocity":55},{"beat":504.0,"padIndex":12,"midi":57,"velocity":45},{"beat":504.02083,"padIndex":11,"midi":54,"velocity":75},{"beat":504.27083,"padIndex":11,"midi":54,"velocity":36},{"beat":504.52083,"padIndex":11,"midi":54,"velocity":52},{"beat":504.77083,"padIndex":11,"midi":54,"velocity":32},{"beat":505.0,"padIndex":1,"midi":34,"velocity":73},{"beat":505.0,"padIndex":3,"midi":46,"velocity":70},{"beat":505.0,"padIndex":12,"midi":57,"velocity":39},{"beat":505.02083,"padIndex":11,"midi":54,"velocity":85},{"beat":505.27083,"padIndex":11,"midi":54,"velocity":45},{"beat":505.52083,"padIndex":11,"midi":54,"velocity":59},{"beat":505.75,"padIndex":1,"midi":34,"velocity":55},{"beat":505.77083,"padIndex":11,"midi":54,"velocity":44},{"beat":506.0,"padIndex":0,"midi":36,"velocity":87},{"beat":506.0,"padIndex":3,"midi":46,"velocity":72},{"beat":506.0,"padIndex":12,"midi":57,"velocity":39},{"beat":506.02083,"padIndex":11,"midi":54,"velocity":75},{"beat":506.25,"padIndex":1,"midi":34,"velocity":50},{"beat":506.27083,"padIndex":11,"midi":54,"velocity":36},{"beat":506.5,"padIndex":0,"midi":36,"velocity":90},{"beat":506.52083,"padIndex":11,"midi":54,"velocity":52},{"beat":506.77083,"padIndex":11,"midi":54,"velocity":32},{"beat":507.0,"padIndex":1,"midi":34,"velocity":75},{"beat":507.0,"padIndex":3,"midi":46,"velocity":73},{"beat":507.0,"padIndex":12,"midi":57,"velocity":35},{"beat":507.02083,"padIndex":11,"midi":54,"velocity":85},{"beat":507.27083,"padIndex":11,"midi":54,"velocity":45},{"beat":507.52083,"padIndex":11,"midi":54,"velocity":59},{"beat":507.75,"padIndex":1,"midi":34,"velocity":50},{"beat":507.77083,"padIndex":11,"midi":54,"velocity":44},{"beat":508.0,"padIndex":0,"midi":36,"velocity":90},{"beat":508.0,"padIndex":3,"midi":46,"velocity":72},{"beat":508.0,"padIndex":12,"midi":57,"velocity":38},{"beat":508.02083,"padIndex":11,"midi":54,"velocity":75},{"beat":508.27083,"padIndex":11,"midi":54,"velocity":36},{"beat":508.52083,"padIndex":11,"midi":54,"velocity":52},{"beat":508.77083,"padIndex":11,"midi":54,"velocity":32},{"beat":509.0,"padIndex":1,"midi":34,"velocity":73},{"beat":509.0,"padIndex":3,"midi":46,"velocity":73},{"beat":509.0,"padIndex":12,"midi":57,"velocity":39},{"beat":509.02083,"padIndex":11,"midi":54,"velocity":85},{"beat":509.27083,"padIndex":11,"midi":54,"velocity":45},{"beat":509.52083,"padIndex":11,"midi":54,"velocity":59},{"beat":509.75,"padIndex":1,"midi":34,"velocity":65},{"beat":509.77083,"padIndex":11,"midi":54,"velocity":44},{"beat":510.0,"padIndex":0,"midi":36,"velocity":91},{"beat":510.0,"padIndex":3,"midi":46,"velocity":69},{"beat":510.0,"padIndex":12,"midi":57,"velocity":39},{"beat":510.02083,"padIndex":11,"midi":54,"velocity":75},{"beat":510.27083,"padIndex":11,"midi":54,"velocity":36},{"beat":510.5,"padIndex":0,"midi":36,"velocity":88},{"beat":510.52083,"padIndex":11,"midi":54,"velocity":52},{"beat":510.77083,"padIndex":11,"midi":54,"velocity":32},{"beat":511.0,"padIndex":1,"midi":34,"velocity":75},{"beat":511.0,"padIndex":3,"midi":46,"velocity":74},{"beat":511.0,"padIndex":12,"midi":57,"velocity":35},{"beat":511.02083,"padIndex":11,"midi":54,"velocity":85},{"beat":511.27083,"padIndex":11,"midi":54,"velocity":45},{"beat":511.5,"padIndex":0,"midi":36,"velocity":88},{"beat":511.52083,"padIndex":11,"midi":54,"velocity":59},{"beat":511.77083,"padIndex":11,"midi":54,"velocity":44},{"beat":512.0,"padIndex":0,"midi":36,"velocity":89},{"beat":512.0,"padIndex":12,"midi":57,"velocity":38},{"beat":512.0,"padIndex":12,"midi":49,"velocity":45},{"beat":512.02083,"padIndex":11,"midi":54,"velocity":75},{"beat":512.27083,"padIndex":11,"midi":54,"velocity":36},{"beat":512.52083,"padIndex":11,"midi":54,"velocity":52},{"beat":512.77083,"padIndex":11,"midi":54,"velocity":32},{"beat":513.0,"padIndex":1,"midi":34,"velocity":73},{"beat":513.0,"padIndex":3,"midi":46,"velocity":69},{"beat":513.0,"padIndex":12,"midi":57,"velocity":39},{"beat":513.02083,"padIndex":11,"midi":54,"velocity":85},{"beat":513.27083,"padIndex":11,"midi":54,"velocity":45},{"beat":513.52083,"padIndex":11,"midi":54,"velocity":59},{"beat":513.75,"padIndex":1,"midi":34,"velocity":65},{"beat":513.77083,"padIndex":11,"midi":54,"velocity":44},{"beat":514.0,"padIndex":0,"midi":36,"velocity":88},{"beat":514.0,"padIndex":3,"midi":46,"velocity":73},{"beat":514.0,"padIndex":12,"midi":57,"velocity":39},{"beat":514.02083,"padIndex":11,"midi":54,"velocity":75},{"beat":514.25,"padIndex":1,"midi":34,"velocity":55},{"beat":514.27083,"padIndex":11,"midi":54,"velocity":36},{"beat":514.5,"padIndex":0,"midi":36,"velocity":91},{"beat":514.52083,"padIndex":11,"midi":54,"velocity":52},{"beat":514.77083,"padIndex":11,"midi":54,"velocity":32},{"beat":515.0,"padIndex":1,"midi":34,"velocity":75},{"beat":515.0,"padIndex":3,"midi":46,"velocity":69},{"beat":515.0,"padIndex":12,"midi":57,"velocity":35},{"beat":515.02083,"padIndex":11,"midi":54,"velocity":85},{"beat":515.27083,"padIndex":11,"midi":54,"velocity":45},{"beat":515.52083,"padIndex":11,"midi":54,"velocity":59},{"beat":515.75,"padIndex":1,"midi":34,"velocity":77},{"beat":515.77083,"padIndex":11,"midi":54,"velocity":44},{"beat":516.0,"padIndex":0,"midi":36,"velocity":92},{"beat":516.0,"padIndex":3,"midi":46,"velocity":69},{"beat":516.02083,"padIndex":11,"midi":54,"velocity":75},{"beat":516.27083,"padIndex":11,"midi":54,"velocity":36},{"beat":516.52083,"padIndex":11,"midi":54,"velocity":52},{"beat":516.75,"padIndex":1,"midi":34,"velocity":60},{"beat":516.77083,"padIndex":11,"midi":54,"velocity":32},{"beat":517.0,"padIndex":0,"midi":36,"velocity":92},{"beat":517.0,"padIndex":1,"midi":34,"velocity":75},{"beat":517.02083,"padIndex":11,"midi":54,"velocity":85},{"beat":517.25,"padIndex":1,"midi":34,"velocity":73},{"beat":517.27083,"padIndex":11,"midi":54,"velocity":45},{"beat":517.5,"padIndex":6,"midi":45,"velocity":70},{"beat":517.52083,"padIndex":11,"midi":54,"velocity":59},{"beat":517.75,"padIndex":6,"midi":45,"velocity":70},{"beat":517.77083,"padIndex":11,"midi":54,"velocity":44},{"beat":518.0,"padIndex":0,"midi":36,"velocity":89},{"beat":518.0,"padIndex":6,"midi":45,"velocity":75},{"beat":518.02083,"padIndex":11,"midi":54,"velocity":75},{"beat":518.25,"padIndex":6,"midi":45,"velocity":70},{"beat":518.27083,"padIndex":11,"midi":54,"velocity":36},{"beat":518.5,"padIndex":6,"midi":41,"velocity":70},{"beat":518.52083,"padIndex":11,"midi":54,"velocity":52},{"beat":518.75,"padIndex":6,"midi":41,"velocity":70},{"beat":518.77083,"padIndex":11,"midi":54,"velocity":32},{"beat":519.0,"padIndex":0,"midi":36,"velocity":90},{"beat":519.0,"padIndex":6,"midi":41,"velocity":70},{"beat":519.02083,"padIndex":11,"midi":54,"velocity":85},{"beat":519.25,"padIndex":6,"midi":43,"velocity":70},{"beat":519.27083,"padIndex":11,"midi":54,"velocity":45},{"beat":519.5,"padIndex":6,"midi":41,"velocity":65},{"beat":519.52083,"padIndex":11,"midi":54,"velocity":59},{"beat":519.75,"padIndex":6,"midi":41,"velocity":65},{"beat":519.77083,"padIndex":11,"midi":54,"velocity":44},{"beat":520.0,"padIndex":0,"midi":36,"velocity":90},{"beat":520.0,"padIndex":12,"midi":49,"velocity":55},{"beat":520.0,"padIndex":12,"midi":57,"velocity":65},{"beat":520.02083,"padIndex":11,"midi":54,"velocity":75},{"beat":520.27083,"padIndex":11,"midi":54,"velocity":36},{"beat":520.52083,"padIndex":11,"midi":54,"velocity":52},{"beat":520.77083,"padIndex":11,"midi":54,"velocity":32},{"beat":521.0,"padIndex":1,"midi":34,"velocity":73},{"beat":521.0,"padIndex":3,"midi":46,"velocity":69},{"beat":521.0,"padIndex":12,"midi":57,"velocity":39},{"beat":521.02083,"padIndex":11,"midi":54,"velocity":85},{"beat":521.27083,"padIndex":11,"midi":54,"velocity":45},{"beat":521.52083,"padIndex":11,"midi":54,"velocity":59},{"beat":521.75,"padIndex":1,"midi":34,"velocity":55},{"beat":521.77083,"padIndex":11,"midi":54,"velocity":44},{"beat":522.0,"padIndex":0,"midi":36,"velocity":88},{"beat":522.0,"padIndex":3,"midi":46,"velocity":73},{"beat":522.0,"padIndex":12,"midi":57,"velocity":39},{"beat":522.02083,"padIndex":11,"midi":54,"velocity":75},{"beat":522.25,"padIndex":1,"midi":34,"velocity":50},{"beat":522.27083,"padIndex":11,"midi":54,"velocity":36},{"beat":522.5,"padIndex":0,"midi":36,"velocity":92},{"beat":522.52083,"padIndex":11,"midi":54,"velocity":52},{"beat":522.77083,"padIndex":11,"midi":54,"velocity":32},{"beat":523.0,"padIndex":1,"midi":34,"velocity":75},{"beat":523.0,"padIndex":3,"midi":46,"velocity":69},{"beat":523.0,"padIndex":12,"midi":57,"velocity":35},{"beat":523.02083,"padIndex":11,"midi":54,"velocity":85},{"beat":523.27083,"padIndex":11,"midi":54,"velocity":45},{"beat":523.5,"padIndex":0,"midi":36,"velocity":90},{"beat":523.5,"padIndex":12,"midi":49,"velocity":47},{"beat":523.52083,"padIndex":11,"midi":54,"velocity":59},{"beat":523.77083,"padIndex":11,"midi":54,"velocity":44},{"beat":524.0,"padIndex":3,"midi":46,"velocity":69},{"beat":524.0,"padIndex":12,"midi":57,"velocity":39},{"beat":524.02083,"padIndex":11,"midi":54,"velocity":75},{"beat":524.25,"padIndex":1,"midi":34,"velocity":50},{"beat":524.27083,"padIndex":11,"midi":54,"velocity":36},{"beat":524.5,"padIndex":0,"midi":36,"velocity":92},{"beat":524.52083,"padIndex":11,"midi":54,"velocity":52},{"beat":524.77083,"padIndex":11,"midi":54,"velocity":32},{"beat":525.0,"padIndex":1,"midi":34,"velocity":73},{"beat":525.0,"padIndex":3,"midi":46,"velocity":73},{"beat":525.0,"padIndex":12,"midi":57,"velocity":39},{"beat":525.02083,"padIndex":11,"midi":54,"velocity":85},{"beat":525.27083,"padIndex":11,"midi":54,"velocity":45},{"beat":525.5,"padIndex":0,"midi":36,"velocity":87},{"beat":525.5,"padIndex":12,"midi":57,"velocity":35},{"beat":525.52083,"padIndex":11,"midi":54,"velocity":59},{"beat":525.77083,"padIndex":11,"midi":54,"velocity":44},{"beat":526.0,"padIndex":3,"midi":46,"velocity":70},{"beat":526.02083,"padIndex":11,"midi":54,"velocity":75},{"beat":526.25,"padIndex":1,"midi":34,"velocity":55},{"beat":526.27083,"padIndex":11,"midi":54,"velocity":36},{"beat":526.5,"padIndex":0,"midi":36,"velocity":92},{"beat":526.52083,"padIndex":11,"midi":54,"velocity":52},{"beat":526.77083,"padIndex":11,"midi":54,"velocity":32},{"beat":527.0,"padIndex":1,"midi":34,"velocity":75},{"beat":527.0,"padIndex":3,"midi":46,"velocity":72},{"beat":527.0,"padIndex":12,"midi":57,"velocity":35},{"beat":527.02083,"padIndex":11,"midi":54,"velocity":85},{"beat":527.27083,"padIndex":11,"midi":54,"velocity":45},{"beat":527.5,"padIndex":6,"midi":41,"velocity":65},{"beat":527.52083,"padIndex":11,"midi":54,"velocity":59},{"beat":527.75,"padIndex":6,"midi":41,"velocity":60},{"beat":527.77083,"padIndex":11,"midi":54,"velocity":44},{"beat":528.0,"padIndex":0,"midi":36,"velocity":89},{"beat":528.0,"padIndex":12,"midi":57,"velocity":55},{"beat":528.0,"padIndex":12,"midi":49,"velocity":55},{"beat":528.02083,"padIndex":11,"midi":54,"velocity":75},{"beat":528.27083,"padIndex":11,"midi":54,"velocity":36},{"beat":528.52083,"padIndex":11,"midi":54,"velocity":52},{"beat":528.77083,"padIndex":11,"midi":54,"velocity":32},{"beat":529.0,"padIndex":1,"midi":34,"velocity":73},{"beat":529.0,"padIndex":3,"midi":46,"velocity":71},{"beat":529.0,"padIndex":12,"midi":57,"velocity":40},{"beat":529.02083,"padIndex":11,"midi":54,"velocity":85},{"beat":529.27083,"padIndex":11,"midi":54,"velocity":45},{"beat":529.52083,"padIndex":11,"midi":54,"velocity":59},{"beat":529.75,"padIndex":1,"midi":34,"velocity":55},{"beat":529.77083,"padIndex":11,"midi":54,"velocity":44},{"beat":530.0,"padIndex":0,"midi":36,"velocity":91},{"beat":530.0,"padIndex":3,"midi":46,"velocity":71},{"beat":530.0,"padIndex":12,"midi":57,"velocity":35},{"beat":530.02083,"padIndex":11,"midi":54,"velocity":75},{"beat":530.25,"padIndex":1,"midi":34,"velocity":50},{"beat":530.27083,"padIndex":11,"midi":54,"velocity":36},{"beat":530.5,"padIndex":6,"midi":45,"velocity":81},{"beat":530.52083,"padIndex":11,"midi":54,"velocity":52},{"beat":530.77083,"padIndex":11,"midi":54,"velocity":32},{"beat":531.0,"padIndex":1,"midi":34,"velocity":73},{"beat":531.0,"padIndex":3,"midi":46,"velocity":69},{"beat":531.0,"padIndex":6,"midi":45,"velocity":70},{"beat":531.0,"padIndex":12,"midi":57,"velocity":38},{"beat":531.02083,"padIndex":11,"midi":54,"velocity":85},{"beat":531.27083,"padIndex":11,"midi":54,"velocity":45},{"beat":531.5,"padIndex":0,"midi":36,"velocity":92},{"beat":531.5,"padIndex":12,"midi":49,"velocity":55},{"beat":531.52083,"padIndex":11,"midi":54,"velocity":59},{"beat":531.77083,"padIndex":11,"midi":54,"velocity":44},{"beat":532.0,"padIndex":3,"midi":46,"velocity":69},{"beat":532.02083,"padIndex":11,"midi":54,"velocity":75},{"beat":532.25,"padIndex":1,"midi":34,"velocity":45},{"beat":532.27083,"padIndex":11,"midi":54,"velocity":36},{"beat":532.5,"padIndex":0,"midi":36,"velocity":90},{"beat":532.5,"padIndex":1,"midi":34,"velocity":55},{"beat":532.52083,"padIndex":11,"midi":54,"velocity":52},{"beat":532.77083,"padIndex":11,"midi":54,"velocity":32},{"beat":533.0,"padIndex":1,"midi":34,"velocity":65},{"beat":533.0,"padIndex":3,"midi":46,"velocity":71},{"beat":533.0,"padIndex":12,"midi":57,"velocity":35},{"beat":533.02083,"padIndex":11,"midi":54,"velocity":85},{"beat":533.27083,"padIndex":11,"midi":54,"velocity":45},{"beat":533.5,"padIndex":0,"midi":36,"velocity":91},{"beat":533.5,"padIndex":1,"midi":34,"velocity":70},{"beat":533.5,"padIndex":12,"midi":57,"velocity":38},{"beat":533.52083,"padIndex":11,"midi":54,"velocity":59},{"beat":533.75,"padIndex":1,"midi":34,"velocity":45},{"beat":533.77083,"padIndex":11,"midi":54,"velocity":44},{"beat":534.0,"padIndex":3,"midi":46,"velocity":74},{"beat":534.0,"padIndex":12,"midi":49,"velocity":45},{"beat":534.0,"padIndex":12,"midi":57,"velocity":38},{"beat":534.02083,"padIndex":11,"midi":54,"velocity":75},{"beat":534.27083,"padIndex":11,"midi":54,"velocity":36},{"beat":534.5,"padIndex":1,"midi":34,"velocity":55},{"beat":534.52083,"padIndex":11,"midi":54,"velocity":52},{"beat":534.75,"padIndex":1,"midi":34,"velocity":61},{"beat":534.77083,"padIndex":11,"midi":54,"velocity":32},{"beat":535.0,"padIndex":1,"midi":34,"velocity":73},{"beat":535.0,"padIndex":3,"midi":46,"velocity":70},{"beat":535.0,"padIndex":12,"midi":57,"velocity":38},{"beat":535.02083,"padIndex":11,"midi":54,"velocity":85},{"beat":535.25,"padIndex":1,"midi":34,"velocity":60},{"beat":535.27083,"padIndex":11,"midi":54,"velocity":45},{"beat":535.5,"padIndex":1,"midi":34,"velocity":65},{"beat":535.52083,"padIndex":11,"midi":54,"velocity":59},{"beat":535.75,"padIndex":1,"midi":34,"velocity":68},{"beat":535.77083,"padIndex":11,"midi":54,"velocity":44},{"beat":536.0,"padIndex":0,"midi":36,"velocity":88},{"beat":536.0,"padIndex":12,"midi":57,"velocity":55},{"beat":536.0,"padIndex":12,"midi":49,"velocity":55},{"beat":536.02083,"padIndex":11,"midi":54,"velocity":75},{"beat":536.27083,"padIndex":11,"midi":54,"velocity":36},{"beat":536.52083,"padIndex":11,"midi":54,"velocity":52},{"beat":536.77083,"padIndex":11,"midi":54,"velocity":32},{"beat":537.0,"padIndex":1,"midi":34,"velocity":73},{"beat":537.0,"padIndex":3,"midi":46,"velocity":69},{"beat":537.0,"padIndex":12,"midi":57,"velocity":38},{"beat":537.02083,"padIndex":11,"midi":54,"velocity":85},{"beat":537.27083,"padIndex":11,"midi":54,"velocity":45},{"beat":537.5,"padIndex":1,"midi":34,"velocity":55},{"beat":537.52083,"padIndex":11,"midi":54,"velocity":59},{"beat":537.75,"padIndex":1,"midi":34,"velocity":65},{"beat":537.77083,"padIndex":11,"midi":54,"velocity":44},{"beat":538.0,"padIndex":0,"midi":36,"velocity":89},{"beat":538.0,"padIndex":3,"midi":46,"velocity":69},{"beat":538.0,"padIndex":12,"midi":57,"velocity":38},{"beat":538.02083,"padIndex":11,"midi":54,"velocity":75},{"beat":538.27083,"padIndex":11,"midi":54,"velocity":36},{"beat":538.5,"padIndex":0,"midi":36,"velocity":88},{"beat":538.52083,"padIndex":11,"midi":54,"velocity":52},{"beat":538.77083,"padIndex":11,"midi":54,"velocity":32},{"beat":539.0,"padIndex":1,"midi":34,"velocity":55},{"beat":539.0,"padIndex":3,"midi":46,"velocity":73},{"beat":539.0,"padIndex":12,"midi":57,"velocity":38},{"beat":539.02083,"padIndex":11,"midi":54,"velocity":85},{"beat":539.27083,"padIndex":11,"midi":54,"velocity":45},{"beat":539.52083,"padIndex":11,"midi":54,"velocity":59},{"beat":539.75,"padIndex":1,"midi":34,"velocity":55},{"beat":539.77083,"padIndex":11,"midi":54,"velocity":44},{"beat":540.0,"padIndex":0,"midi":36,"velocity":90},{"beat":540.0,"padIndex":3,"midi":46,"velocity":73},{"beat":540.0,"padIndex":12,"midi":57,"velocity":38},{"beat":540.02083,"padIndex":11,"midi":54,"velocity":75},{"beat":540.25,"padIndex":1,"midi":34,"velocity":55},{"beat":540.27083,"padIndex":11,"midi":54,"velocity":36},{"beat":540.52083,"padIndex":11,"midi":54,"velocity":52},{"beat":540.77083,"padIndex":11,"midi":54,"velocity":32},{"beat":541.0,"padIndex":1,"midi":34,"velocity":73},{"beat":541.0,"padIndex":3,"midi":46,"velocity":72},{"beat":541.0,"padIndex":12,"midi":57,"velocity":38},{"beat":541.02083,"padIndex":11,"midi":54,"velocity":85},{"beat":541.27083,"padIndex":11,"midi":54,"velocity":45},{"beat":541.52083,"padIndex":11,"midi":54,"velocity":59},{"beat":541.75,"padIndex":1,"midi":34,"velocity":65},{"beat":541.77083,"padIndex":11,"midi":54,"velocity":44},{"beat":542.0,"padIndex":0,"midi":36,"velocity":90},{"beat":542.0,"padIndex":3,"midi":46,"velocity":71},{"beat":542.0,"padIndex":12,"midi":57,"velocity":38},{"beat":542.02083,"padIndex":11,"midi":54,"velocity":75},{"beat":542.25,"padIndex":1,"midi":34,"velocity":65},{"beat":542.27083,"padIndex":11,"midi":54,"velocity":36},{"beat":542.5,"padIndex":0,"midi":36,"velocity":92},{"beat":542.52083,"padIndex":11,"midi":54,"velocity":52},{"beat":542.77083,"padIndex":11,"midi":54,"velocity":32},{"beat":543.0,"padIndex":1,"midi":34,"velocity":75},{"beat":543.0,"padIndex":3,"midi":46,"velocity":73},{"beat":543.0,"padIndex":12,"midi":57,"velocity":38},{"beat":543.02083,"padIndex":11,"midi":54,"velocity":85},{"beat":543.27083,"padIndex":11,"midi":54,"velocity":45},{"beat":543.52083,"padIndex":11,"midi":54,"velocity":59},{"beat":543.75,"padIndex":1,"midi":34,"velocity":55},{"beat":543.77083,"padIndex":11,"midi":54,"velocity":44},{"beat":544.0,"padIndex":0,"midi":36,"velocity":86},{"beat":544.0,"padIndex":12,"midi":49,"velocity":55},{"beat":544.0,"padIndex":12,"midi":57,"velocity":45},{"beat":544.02083,"padIndex":11,"midi":54,"velocity":75},{"beat":544.27083,"padIndex":11,"midi":54,"velocity":36},{"beat":544.52083,"padIndex":11,"midi":54,"velocity":52},{"beat":544.77083,"padIndex":11,"midi":54,"velocity":32},{"beat":545.0,"padIndex":1,"midi":34,"velocity":73},{"beat":545.0,"padIndex":3,"midi":46,"velocity":69},{"beat":545.0,"padIndex":12,"midi":57,"velocity":38},{"beat":545.02083,"padIndex":11,"midi":54,"velocity":85},{"beat":545.27083,"padIndex":11,"midi":54,"velocity":45},{"beat":545.52083,"padIndex":11,"midi":54,"velocity":59},{"beat":545.75,"padIndex":1,"midi":34,"velocity":60},{"beat":545.77083,"padIndex":11,"midi":54,"velocity":44},{"beat":546.0,"padIndex":0,"midi":36,"velocity":91},{"beat":546.0,"padIndex":3,"midi":46,"velocity":71},{"beat":546.02083,"padIndex":11,"midi":54,"velocity":75},{"beat":546.27083,"padIndex":11,"midi":54,"velocity":36},{"beat":546.5,"padIndex":0,"midi":36,"velocity":91},{"beat":546.52083,"padIndex":11,"midi":54,"velocity":52},{"beat":546.77083,"padIndex":11,"midi":54,"velocity":32},{"beat":547.0,"padIndex":1,"midi":34,"velocity":75},{"beat":547.0,"padIndex":3,"midi":46,"velocity":72},{"beat":547.02083,"padIndex":11,"midi":54,"velocity":85},{"beat":547.27083,"padIndex":11,"midi":54,"velocity":45},{"beat":547.5,"padIndex":0,"midi":36,"velocity":91},{"beat":547.52083,"padIndex":11,"midi":54,"velocity":59},{"beat":547.77083,"padIndex":11,"midi":54,"velocity":44},{"beat":548.0,"padIndex":0,"midi":36,"velocity":89},{"beat":548.0,"padIndex":1,"midi":34,"velocity":55},{"beat":548.0,"padIndex":12,"midi":57,"velocity":45},{"beat":548.0,"padIndex":12,"midi":49,"velocity":65},{"beat":548.02083,"padIndex":11,"midi":54,"velocity":75},{"beat":548.27083,"padIndex":11,"midi":54,"velocity":36},{"beat":548.52083,"padIndex":11,"midi":54,"velocity":52},{"beat":548.77083,"padIndex":11,"midi":54,"velocity":32},{"beat":549.0,"padIndex":0,"midi":36,"velocity":86},{"beat":549.0,"padIndex":1,"midi":34,"velocity":60},{"beat":549.0,"padIndex":6,"midi":41,"velocity":69},{"beat":549.02083,"padIndex":11,"midi":54,"velocity":85},{"beat":549.27083,"padIndex":11,"midi":54,"velocity":45},{"beat":549.5,"padIndex":0,"midi":36,"velocity":86},{"beat":549.5,"padIndex":1,"midi":34,"velocity":65},{"beat":549.5,"padIndex":6,"midi":41,"velocity":64},{"beat":549.52083,"padIndex":11,"midi":54,"velocity":59},{"beat":549.77083,"padIndex":11,"midi":54,"velocity":44},{"beat":550.0,"padIndex":0,"midi":36,"velocity":89},{"beat":550.0,"padIndex":1,"midi":34,"velocity":65},{"beat":550.0,"padIndex":6,"midi":41,"velocity":67},{"beat":550.02083,"padIndex":11,"midi":54,"velocity":75},{"beat":550.27083,"padIndex":11,"midi":54,"velocity":36},{"beat":550.5,"padIndex":0,"midi":36,"velocity":89},{"beat":550.5,"padIndex":1,"midi":34,"velocity":75},{"beat":550.5,"padIndex":6,"midi":41,"velocity":61},{"beat":550.52083,"padIndex":11,"midi":54,"velocity":52},{"beat":550.77083,"padIndex":11,"midi":54,"velocity":32},{"beat":551.0,"padIndex":1,"midi":34,"velocity":75},{"beat":551.0,"padIndex":6,"midi":41,"velocity":70},{"beat":551.02083,"padIndex":11,"midi":54,"velocity":85},{"beat":551.27083,"padIndex":11,"midi":54,"velocity":45},{"beat":551.5,"padIndex":1,"midi":34,"velocity":75},{"beat":551.5,"padIndex":3,"midi":46,"velocity":72},{"beat":551.52083,"padIndex":11,"midi":54,"velocity":59},{"beat":551.77083,"padIndex":11,"midi":54,"velocity":44},{"beat":552.0,"padIndex":2,"midi":42,"velocity":52}]},"backing":[{"beat":0.0,"duration":4.0,"midi":55,"velocity":70,"channel":13,"program":0},{"beat":0.0,"duration":4.0,"midi":67,"velocity":80,"channel":13,"program":0},{"beat":0.0,"duration":4.0,"midi":69,"velocity":70,"channel":13,"program":0},{"beat":0.0,"duration":4.0,"midi":71,"velocity":80,"channel":13,"program":0},{"beat":0.0,"duration":4.0,"midi":74,"velocity":90,"channel":13,"program":0},{"beat":6.5,"duration":0.39583,"midi":74,"velocity":102,"channel":0,"program":22},{"beat":7.0,"duration":0.47917,"midi":74,"velocity":100,"channel":0,"program":22},{"beat":7.5,"duration":0.47917,"midi":71,"velocity":102,"channel":0,"program":22},{"beat":8.0,"duration":3.97917,"midi":43,"velocity":84,"channel":3,"program":27},{"beat":8.0,"duration":3.97917,"midi":43,"velocity":70,"channel":6,"program":29},{"beat":8.0,"duration":3.47917,"midi":43,"velocity":97,"channel":12,"program":25},{"beat":8.0,"duration":3.97917,"midi":43,"velocity":86,"channel":14,"program":26},{"beat":8.0,"duration":0.47917,"midi":50,"velocity":67,"channel":6,"program":29},{"beat":8.0,"duration":0.47917,"midi":55,"velocity":70,"channel":3,"program":27},{"beat":8.0,"duration":6.0,"midi":57,"velocity":54,"channel":11,"program":80},{"beat":8.0,"duration":0.89583,"midi":74,"velocity":102,"channel":0,"program":22},{"beat":8.02083,"duration":3.45833,"midi":50,"velocity":93,"channel":12,"program":25},{"beat":8.02083,"duration":0.47917,"midi":55,"velocity":67,"channel":6,"program":29},{"beat":8.04167,"duration":3.4375,"midi":55,"velocity":97,"channel":12,"program":25},{"beat":8.5,"duration":1.47917,"midi":50,"velocity":87,"channel":3,"program":27},{"beat":8.5,"duration":1.47917,"midi":50,"velocity":69,"channel":6,"program":29},{"beat":8.5,"duration":0.97917,"midi":57,"velocity":67,"channel":6,"program":29},{"beat":9.0,"duration":1.47917,"midi":62,"velocity":90,"channel":3,"program":27},{"beat":9.0,"duration":1.47917,"midi":62,"velocity":69,"channel":6,"program":29},{"beat":9.5,"duration":1.97917,"midi":57,"velocity":85,"channel":3,"program":27},{"beat":9.5,"duration":1.97917,"midi":57,"velocity":64,"channel":6,"program":29},{"beat":9.5,"duration":0.47917,"midi":71,"velocity":101,"channel":0,"program":22},{"beat":10.0,"duration":1.97917,"midi":50,"velocity":70,"channel":3,"program":27},{"beat":10.0,"duration":2.47917,"midi":50,"velocity":67,"channel":6,"program":29},{"beat":10.0,"duration":0.8125,"midi":74,"velocity":99,"channel":0,"program":22},{"beat":10.5,"duration":0.47917,"midi":64,"velocity":84,"channel":3,"program":27},{"beat":10.5,"duration":0.47917,"midi":64,"velocity":66,"channel":6,"program":29},{"beat":11.0,"duration":0.97917,"midi":62,"velocity":87,"channel":3,"program":27},{"beat":11.0,"duration":0.97917,"midi":62,"velocity":69,"channel":6,"program":29},{"beat":11.5,"duration":0.22917,"midi":43,"velocity":98,"channel":12,"program":25},{"beat":11.5,"duration":1.97917,"midi":57,"velocity":90,"channel":3,"program":27},{"beat":11.5,"duration":1.97917,"midi":57,"velocity":65,"channel":6,"program":29},{"beat":11.5,"duration":0.47917,"midi":71,"velocity":101,"channel":0,"program":22},{"beat":11.52083,"duration":0.20833,"midi":50,"velocity":98,"channel":12,"program":25},{"beat":11.54167,"duration":0.1875,"midi":55,"velocity":98,"channel":12,"program":25},{"beat":11.75,"duration":0.22917,"midi":43,"velocity":97,"channel":12,"program":25},{"beat":11.77083,"duration":0.20833,"midi":50,"velocity":95,"channel":12,"program":25},{"beat":11.79167,"duration":0.1875,"midi":55,"velocity":98,"channel":12,"program":25},{"beat":12.0,"duration":3.97917,"midi":43,"velocity":80,"channel":3,"program":27},{"beat":12.0,"duration":3.97917,"midi":43,"velocity":65,"channel":6,"program":29},{"beat":12.0,"duration":2.47917,"midi":43,"velocity":94,"channel":12,"program":25},{"beat":12.0,"duration":3.97917,"midi":43,"velocity":70,"channel":14,"program":26},{"beat":12.0,"duration":0.47917,"midi":74,"velocity":101,"channel":0,"program":22},{"beat":12.02083,"duration":2.45833,"midi":50,"velocity":94,"channel":12,"program":25},{"beat":12.04167,"duration":2.4375,"midi":55,"velocity":99,"channel":12,"program":25},{"beat":12.5,"duration":1.47917,"midi":50,"velocity":90,"channel":3,"program":27},{"beat":12.5,"duration":1.47917,"midi":50,"velocity":69,"channel":6,"program":29},{"beat":12.5,"duration":0.47917,"midi":74,"velocity":101,"channel":0,"program":22},{"beat":13.0,"duration":1.47917,"midi":62,"velocity":87,"channel":3,"program":27},{"beat":13.0,"duration":1.47917,"midi":62,"velocity":66,"channel":6,"program":29},{"beat":13.0,"duration":0.35417,"midi":74,"velocity":99,"channel":0,"program":22},{"beat":13.5,"duration":1.97917,"midi":57,"velocity":89,"channel":3,"program":27},{"beat":13.5,"duration":1.97917,"midi":57,"velocity":66,"channel":6,"program":29},{"beat":13.5,"duration":0.52083,"midi":67,"velocity":98,"channel":0,"program":22},{"beat":14.0,"duration":1.97917,"midi":50,"velocity":81,"channel":3,"program":27},{"beat":14.0,"duration":2.47917,"midi":50,"velocity":70,"channel":6,"program":29},{"beat":14.5,"duration":1.47917,"midi":43,"velocity":86,"channel":12,"program":25},{"beat":14.5,"duration":0.47917,"midi":64,"velocity":90,"channel":3,"program":27},{"beat":14.5,"duration":0.47917,"midi":64,"velocity":65,"channel":6,"program":29},{"beat":14.5,"duration":1.47917,"midi":64,"velocity":83,"channel":12,"program":25},{"beat":14.5,"duration":0.89583,"midi":74,"velocity":101,"channel":0,"program":22},{"beat":14.52083,"duration":1.45833,"midi":50,"velocity":88,"channel":12,"program":25},{"beat":14.54167,"duration":1.4375,"midi":55,"velocity":85,"channel":12,"program":25},{"beat":15.0,"duration":0.97917,"midi":62,"velocity":84,"channel":3,"program":27},{"beat":15.0,"duration":0.97917,"midi":62,"velocity":70,"channel":6,"program":29},{"beat":15.5,"duration":1.97917,"midi":57,"velocity":89,"channel":3,"program":27},{"beat":15.5,"duration":1.97917,"midi":57,"velocity":66,"channel":6,"program":29},{"beat":15.5,"duration":0.47917,"midi":71,"velocity":102,"channel":0,"program":22},{"beat":16.0,"duration":3.97917,"midi":42,"velocity":88,"channel":3,"program":27},{"beat":16.0,"duration":3.97917,"midi":42,"velocity":70,"channel":6,"program":29},{"beat":16.0,"duration":3.97917,"midi":42,"velocity":84,"channel":14,"program":26},{"beat":16.0,"duration":0.22917,"midi":50,"velocity":94,"channel":12,"program":25},{"beat":16.0,"duration":6.0,"midi":57,"velocity":58,"channel":11,"program":80},{"beat":16.0,"duration":0.97917,"midi":74,"velocity":100,"channel":0,"program":22},{"beat":16.02083,"duration":0.20833,"midi":54,"velocity":98,"channel":12,"program":25},{"beat":16.04167,"duration":0.1875,"midi":57,"velocity":94,"channel":12,"program":25},{"beat":16.25,"duration":0.22917,"midi":50,"velocity":85,"channel":12,"program":25},{"beat":16.27083,"duration":0.20833,"midi":54,"velocity":84,"channel":12,"program":25},{"beat":16.29167,"duration":0.1875,"midi":57,"velocity":86,"channel":12,"program":25},{"beat":16.5,"duration":1.47917,"midi":50,"velocity":81,"channel":3,"program":27},{"beat":16.5,"duration":1.47917,"midi":50,"velocity":68,"channel":6,"program":29},{"beat":16.5,"duration":2.97917,"midi":50,"velocity":94,"channel":12,"program":25},{"beat":16.52083,"duration":2.95833,"midi":54,"velocity":96,"channel":12,"program":25},{"beat":16.54167,"duration":2.9375,"midi":57,"velocity":97,"channel":12,"program":25},{"beat":17.0,"duration":1.47917,"midi":62,"velocity":85,"channel":3,"program":27},{"beat":17.0,"duration":1.47917,"midi":62,"velocity":70,"channel":6,"program":29},{"beat":17.5,"duration":1.97917,"midi":57,"velocity":87,"channel":3,"program":27},{"beat":17.5,"duration":1.97917,"midi":57,"velocity":64,"channel":6,"program":29},{"beat":17.5,"duration":0.47917,"midi":71,"velocity":102,"channel":0,"program":22},{"beat":18.0,"duration":1.97917,"midi":50,"velocity":82,"channel":3,"program":27},{"beat":18.0,"duration":2.47917,"midi":50,"velocity":67,"channel":6,"program":29},{"beat":18.0,"duration":0.97917,"midi":74,"velocity":101,"channel":0,"program":22},{"beat":18.5,"duration":0.47917,"midi":64,"velocity":89,"channel":3,"program":27},{"beat":18.5,"duration":0.47917,"midi":64,"velocity":67,"channel":6,"program":29},{"beat":19.0,"duration":0.97917,"midi":62,"velocity":90,"channel":3,"program":27},{"beat":19.0,"duration":0.97917,"midi":62,"velocity":64,"channel":6,"program":29},{"beat":19.5,"duration":0.22917,"midi":50,"velocity":96,"channel":12,"program":25},{"beat":19.5,"duration":1.97917,"midi":57,"velocity":85,"channel":3,"program":27},{"beat":19.5,"duration":1.97917,"midi":57,"velocity":66,"channel":6,"program":29},{"beat":19.5,"duration":0.47917,"midi":71,"velocity":102,"channel":0,"program":22},{"beat":19.52083,"duration":0.20833,"midi":54,"velocity":93,"channel":12,"program":25},{"beat":19.54167,"duration":0.1875,"midi":57,"velocity":94,"channel":12,"program":25},{"beat":19.75,"duration":0.22917,"midi":50,"velocity":86,"channel":12,"program":25},{"beat":19.77083,"duration":0.20833,"midi":54,"velocity":87,"channel":12,"program":25},{"beat":19.79167,"duration":0.1875,"midi":57,"velocity":91,"channel":12,"program":25},{"beat":20.0,"duration":3.97917,"midi":42,"velocity":86,"channel":3,"program":27},{"beat":20.0,"duration":3.97917,"midi":42,"velocity":70,"channel":6,"program":29},{"beat":20.0,"duration":3.97917,"midi":42,"velocity":70,"channel":14,"program":26},{"beat":20.0,"duration":2.47917,"midi":50,"velocity":94,"channel":12,"program":25},{"beat":20.0,"duration":0.39583,"midi":74,"velocity":102,"channel":0,"program":22},{"beat":20.02083,"duration":2.45833,"midi":54,"velocity":94,"channel":12,"program":25},{"beat":20.04167,"duration":2.4375,"midi":57,"velocity":97,"channel":12,"program":25},{"beat":20.5,"duration":1.47917,"midi":50,"velocity":79,"channel":3,"program":27},{"beat":20.5,"duration":1.47917,"midi":50,"velocity":65,"channel":6,"program":29},{"beat":20.5,"duration":0.89583,"midi":74,"velocity":101,"channel":0,"program":22},{"beat":21.0,"duration":1.47917,"midi":62,"velocity":86,"channel":3,"program":27},{"beat":21.0,"duration":1.47917,"midi":62,"velocity":69,"channel":6,"program":29},{"beat":21.5,"duration":1.97917,"midi":57,"velocity":87,"channel":3,"program":27},{"beat":21.5,"duration":1.97917,"midi":57,"velocity":64,"channel":6,"program":29},{"beat":21.5,"duration":0.47917,"midi":66,"velocity":101,"channel":0,"program":22},{"beat":22.0,"duration":1.97917,"midi":50,"velocity":77,"channel":3,"program":27},{"beat":22.0,"duration":1.97917,"midi":50,"velocity":67,"channel":6,"program":29},{"beat":22.5,"duration":1.47917,"midi":50,"velocity":90,"channel":12,"program":25},{"beat":22.5,"duration":0.47917,"midi":64,"velocity":87,"channel":3,"program":27},{"beat":22.5,"duration":0.47917,"midi":64,"velocity":66,"channel":6,"program":29},{"beat":22.5,"duration":1.47917,"midi":64,"velocity":90,"channel":12,"program":25},{"beat":22.5,"duration":0.47917,"midi":74,"velocity":101,"channel":0,"program":22},{"beat":22.52083,"duration":1.45833,"midi":54,"velocity":86,"channel":12,"program":25},{"beat":22.54167,"duration":1.4375,"midi":57,"velocity":83,"channel":12,"program":25},{"beat":23.0,"duration":0.97917,"midi":62,"velocity":89,"channel":3,"program":27},{"beat":23.0,"duration":0.97917,"midi":62,"velocity":65,"channel":6,"program":29},{"beat":23.0,"duration":0.47917,"midi":74,"velocity":102,"channel":0,"program":22},{"beat":23.5,"duration":0.39583,"midi":57,"velocity":85,"channel":3,"program":27},{"beat":23.5,"duration":0.39583,"midi":57,"velocity":67,"channel":6,"program":29},{"beat":23.5,"duration":0.47917,"midi":74,"velocity":101,"channel":0,"program":22},{"beat":24.0,"duration":3.97917,"midi":41,"velocity":84,"channel":3,"program":27},{"beat":24.0,"duration":3.97917,"midi":41,"velocity":65,"channel":6,"program":29},{"beat":24.0,"duration":3.97917,"midi":41,"velocity":85,"channel":14,"program":26},{"beat":24.0,"duration":6.0,"midi":53,"velocity":54,"channel":11,"program":80},{"beat":24.0,"duration":3.47917,"midi":53,"velocity":95,"channel":12,"program":25},{"beat":24.0,"duration":0.72917,"midi":76,"velocity":102,"channel":0,"program":22},{"beat":24.02083,"duration":3.45833,"midi":57,"velocity":77,"channel":12,"program":25},{"beat":24.04167,"duration":3.4375,"midi":62,"velocity":96,"channel":12,"program":25},{"beat":24.5,"duration":1.47917,"midi":53,"velocity":82,"channel":3,"program":27},{"beat":24.5,"duration":1.47917,"midi":53,"velocity":68,"channel":6,"program":29},{"beat":25.0,"duration":1.47917,"midi":62,"velocity":90,"channel":3,"program":27},{"beat":25.0,"duration":1.47917,"midi":62,"velocity":68,"channel":6,"program":29},{"beat":25.0,"duration":0.35417,"midi":77,"velocity":99,"channel":0,"program":22},{"beat":25.5,"duration":1.97917,"midi":57,"velocity":77,"channel":3,"program":27},{"beat":25.5,"duration":1.97917,"midi":57,"velocity":65,"channel":6,"program":29},{"beat":25.5,"duration":0.47917,"midi":76,"velocity":99,"channel":0,"program":22},{"beat":26.0,"duration":1.97917,"midi":53,"velocity":78,"channel":3,"program":27},{"beat":26.0,"duration":1.97917,"midi":53,"velocity":66,"channel":6,"program":29},{"beat":26.5,"duration":1.47917,"midi":64,"velocity":88,"channel":3,"program":27},{"beat":26.5,"duration":2.47917,"midi":64,"velocity":70,"channel":6,"program":29},{"beat":26.5,"duration":0.47917,"midi":74,"velocity":101,"channel":0,"program":22},{"beat":27.0,"duration":1.97917,"midi":62,"velocity":85,"channel":3,"program":27},{"beat":27.0,"duration":1.97917,"midi":62,"velocity":66,"channel":6,"program":29},{"beat":27.0,"duration":0.97917,"midi":74,"velocity":98,"channel":0,"program":22},{"beat":27.5,"duration":0.22917,"midi":53,"velocity":92,"channel":12,"program":25},{"beat":27.5,"duration":1.47917,"midi":57,"velocity":81,"channel":3,"program":27},{"beat":27.5,"duration":1.97917,"midi":57,"velocity":69,"channel":6,"program":29},{"beat":27.52083,"duration":0.20833,"midi":57,"velocity":93,"channel":12,"program":25},{"beat":27.54167,"duration":0.1875,"midi":62,"velocity":92,"channel":12,"program":25},{"beat":27.75,"duration":0.22917,"midi":53,"velocity":96,"channel":12,"program":25},{"beat":27.77083,"duration":0.20833,"midi":57,"velocity":91,"channel":12,"program":25},{"beat":27.79167,"duration":0.1875,"midi":62,"velocity":99,"channel":12,"program":25},{"beat":28.0,"duration":3.97917,"midi":41,"velocity":87,"channel":3,"program":27},{"beat":28.0,"duration":3.97917,"midi":41,"velocity":64,"channel":6,"program":29},{"beat":28.0,"duration":3.97917,"midi":41,"velocity":80,"channel":14,"program":26},{"beat":28.0,"duration":2.47917,"midi":53,"velocity":97,"channel":12,"program":25},{"beat":28.02083,"duration":2.45833,"midi":57,"velocity":79,"channel":12,"program":25},{"beat":28.04167,"duration":2.4375,"midi":62,"velocity":90,"channel":12,"program":25},{"beat":28.5,"duration":1.47917,"midi":53,"velocity":76,"channel":3,"program":27},{"beat":28.5,"duration":1.47917,"midi":53,"velocity":64,"channel":6,"program":29},{"beat":29.0,"duration":1.47917,"midi":62,"velocity":87,"channel":3,"program":27},{"beat":29.0,"duration":1.47917,"midi":62,"velocity":69,"channel":6,"program":29},{"beat":29.5,"duration":1.97917,"midi":57,"velocity":77,"channel":3,"program":27},{"beat":29.5,"duration":1.97917,"midi":57,"velocity":66,"channel":6,"program":29},{"beat":30.0,"duration":1.97917,"midi":53,"velocity":77,"channel":3,"program":27},{"beat":30.0,"duration":1.97917,"midi":53,"velocity":64,"channel":6,"program":29},{"beat":30.5,"duration":1.47917,"midi":53,"velocity":88,"channel":12,"program":25},{"beat":30.5,"duration":1.47917,"midi":64,"velocity":86,"channel":3,"program":27},{"beat":30.5,"duration":2.47917,"midi":64,"velocity":68,"channel":6,"program":29},{"beat":30.5,"duration":0.39583,"midi":74,"velocity":99,"channel":0,"program":22},{"beat":30.52083,"duration":1.45833,"midi":57,"velocity":88,"channel":12,"program":25},{"beat":30.54167,"duration":1.4375,"midi":64,"velocity":98,"channel":12,"program":25},{"beat":31.0,"duration":1.97917,"midi":62,"velocity":90,"channel":3,"program":27},{"beat":31.0,"duration":1.97917,"midi":62,"velocity":64,"channel":6,"program":29},{"beat":31.0,"duration":0.47917,"midi":74,"velocity":102,"channel":0,"program":22},{"beat":31.5,"duration":1.47917,"midi":57,"velocity":80,"channel":3,"program":27},{"beat":31.5,"duration":1.47917,"midi":57,"velocity":64,"channel":6,"program":29},{"beat":31.5,"duration":0.47917,"midi":74,"velocity":100,"channel":0,"program":22},{"beat":32.0,"duration":3.97917,"midi":42,"velocity":85,"channel":3,"program":27},{"beat":32.0,"duration":3.97917,"midi":42,"velocity":68,"channel":6,"program":29},{"beat":32.0,"duration":3.97917,"midi":42,"velocity":85,"channel":14,"program":26},{"beat":32.0,"duration":3.47917,"midi":50,"velocity":96,"channel":12,"program":25},{"beat":32.0,"duration":6.0,"midi":57,"velocity":56,"channel":11,"program":80},{"beat":32.0,"duration":0.47917,"midi":81,"velocity":101,"channel":0,"program":22},{"beat":32.02083,"duration":3.45833,"midi":54,"velocity":94,"channel":12,"program":25},{"beat":32.04167,"duration":3.4375,"midi":57,"velocity":98,"channel":12,"program":25},{"beat":32.5,"duration":1.47917,"midi":50,"velocity":82,"channel":3,"program":27},{"beat":32.5,"duration":1.47917,"midi":50,"velocity":66,"channel":6,"program":29},{"beat":32.5,"duration":0.47917,"midi":78,"velocity":99,"channel":0,"program":22},{"beat":33.0,"duration":1.47917,"midi":62,"velocity":88,"channel":3,"program":27},{"beat":33.0,"duration":1.47917,"midi":62,"velocity":65,"channel":6,"program":29},{"beat":33.0,"duration":0.27083,"midi":79,"velocity":100,"channel":0,"program":22},{"beat":33.5,"duration":1.97917,"midi":57,"velocity":80,"channel":3,"program":27},{"beat":33.5,"duration":1.97917,"midi":57,"velocity":66,"channel":6,"program":29},{"beat":33.5,"duration":0.97917,"midi":78,"velocity":101,"channel":0,"program":22},{"beat":34.0,"duration":1.97917,"midi":50,"velocity":76,"channel":3,"program":27},{"beat":34.0,"duration":1.97917,"midi":50,"velocity":66,"channel":6,"program":29},{"beat":34.5,"duration":0.47917,"midi":64,"velocity":85,"channel":3,"program":27},{"beat":34.5,"duration":1.47917,"midi":64,"velocity":65,"channel":6,"program":29},{"beat":34.5,"duration":0.47917,"midi":79,"velocity":102,"channel":0,"program":22},{"beat":35.0,"duration":1.47917,"midi":62,"velocity":86,"channel":3,"program":27},{"beat":35.0,"duration":1.47917,"midi":62,"velocity":66,"channel":6,"program":29},{"beat":35.0,"duration":1.375,"midi":78,"velocity":102,"channel":0,"program":22},{"beat":35.5,"duration":0.22917,"midi":50,"velocity":98,"channel":12,"program":25},{"beat":35.5,"duration":2.72917,"midi":57,"velocity":78,"channel":3,"program":27},{"beat":35.5,"duration":2.72917,"midi":57,"velocity":69,"channel":6,"program":29},{"beat":35.52083,"duration":0.20833,"midi":54,"velocity":97,"channel":12,"program":25},{"beat":35.54167,"duration":0.1875,"midi":57,"velocity":93,"channel":12,"program":25},{"beat":35.75,"duration":0.22917,"midi":50,"velocity":98,"channel":12,"program":25},{"beat":35.77083,"duration":0.20833,"midi":54,"velocity":93,"channel":12,"program":25},{"beat":35.79167,"duration":0.1875,"midi":57,"velocity":93,"channel":12,"program":25},{"beat":36.0,"duration":3.97917,"midi":42,"velocity":86,"channel":3,"program":27},{"beat":36.0,"duration":3.97917,"midi":42,"velocity":70,"channel":6,"program":29},{"beat":36.0,"duration":3.97917,"midi":42,"velocity":70,"channel":14,"program":26},{"beat":36.0,"duration":2.47917,"midi":50,"velocity":92,"channel":12,"program":25},{"beat":36.02083,"duration":2.45833,"midi":54,"velocity":95,"channel":12,"program":25},{"beat":36.04167,"duration":2.4375,"midi":57,"velocity":90,"channel":12,"program":25},{"beat":36.5,"duration":2.47917,"midi":50,"velocity":77,"channel":3,"program":27},{"beat":36.5,"duration":1.97917,"midi":50,"velocity":68,"channel":6,"program":29},{"beat":36.5,"duration":0.97917,"midi":64,"velocity":87,"channel":3,"program":27},{"beat":36.5,"duration":2.72917,"midi":64,"velocity":66,"channel":6,"program":29},{"beat":37.5,"duration":2.47917,"midi":62,"velocity":90,"channel":3,"program":27},{"beat":37.5,"duration":2.47917,"midi":62,"velocity":65,"channel":6,"program":29},{"beat":38.5,"duration":0.47917,"midi":50,"velocity":69,"channel":6,"program":29},{"beat":38.5,"duration":0.22917,"midi":50,"velocity":97,"channel":12,"program":25},{"beat":38.5,"duration":1.47917,"midi":57,"velocity":80,"channel":3,"program":27},{"beat":38.5,"duration":1.47917,"midi":57,"velocity":70,"channel":6,"program":29},{"beat":38.5,"duration":1.47917,"midi":57,"velocity":54,"channel":11,"program":80},{"beat":38.5,"duration":0.35417,"midi":74,"velocity":100,"channel":0,"program":22},{"beat":38.52083,"duration":0.20833,"midi":54,"velocity":93,"channel":12,"program":25},{"beat":38.54167,"duration":0.1875,"midi":57,"velocity":94,"channel":12,"program":25},{"beat":38.75,"duration":0.22917,"midi":50,"velocity":91,"channel":12,"program":25},{"beat":38.77083,"duration":0.20833,"midi":54,"velocity":90,"channel":12,"program":25},{"beat":38.79167,"duration":0.1875,"midi":57,"velocity":85,"channel":12,"program":25},{"beat":39.0,"duration":0.97917,"midi":50,"velocity":80,"channel":3,"program":27},{"beat":39.0,"duration":0.97917,"midi":50,"velocity":70,"channel":6,"program":29},{"beat":39.0,"duration":0.97917,"midi":50,"velocity":89,"channel":12,"program":25},{"beat":39.0,"duration":0.47917,"midi":74,"velocity":102,"channel":0,"program":22},{"beat":39.02083,"duration":0.95833,"midi":54,"velocity":85,"channel":12,"program":25},{"beat":39.04167,"duration":0.9375,"midi":57,"velocity":89,"channel":12,"program":25},{"beat":39.5,"duration":0.47917,"midi":71,"velocity":100,"channel":0,"program":22},{"beat":40.0,"duration":3.97917,"midi":43,"velocity":85,"channel":3,"program":27},{"beat":40.0,"duration":3.97917,"midi":43,"velocity":70,"channel":6,"program":29},{"beat":40.0,"duration":3.47917,"midi":43,"velocity":96,"channel":12,"program":25},{"beat":40.0,"duration":3.97917,"midi":43,"velocity":88,"channel":14,"program":26},{"beat":40.0,"duration":1.47917,"midi":57,"velocity":65,"channel":6,"program":29},{"beat":40.0,"duration":6.0,"midi":57,"velocity":59,"channel":11,"program":80},{"beat":40.0,"duration":0.89583,"midi":74,"velocity":100,"channel":0,"program":22},{"beat":40.02083,"duration":3.45833,"midi":50,"velocity":94,"channel":12,"program":25},{"beat":40.04167,"duration":3.4375,"midi":55,"velocity":98,"channel":12,"program":25},{"beat":40.5,"duration":1.47917,"midi":50,"velocity":81,"channel":3,"program":27},{"beat":40.5,"duration":1.47917,"midi":50,"velocity":65,"channel":6,"program":29},{"beat":41.0,"duration":1.47917,"midi":62,"velocity":84,"channel":3,"program":27},{"beat":41.0,"duration":1.47917,"midi":62,"velocity":67,"channel":6,"program":29},{"beat":41.5,"duration":1.97917,"midi":57,"velocity":85,"channel":3,"program":27},{"beat":41.5,"duration":1.97917,"midi":57,"velocity":66,"channel":6,"program":29},{"beat":41.5,"duration":0.47917,"midi":71,"velocity":102,"channel":0,"program":22},{"beat":42.0,"duration":1.47917,"midi":50,"velocity":79,"channel":3,"program":27},{"beat":42.0,"duration":1.47917,"midi":50,"velocity":66,"channel":6,"program":29},{"beat":42.0,"duration":0.8125,"midi":74,"velocity":102,"channel":0,"program":22},{"beat":42.5,"duration":0.47917,"midi":64,"velocity":84,"channel":3,"program":27},{"beat":42.5,"duration":1.47917,"midi":64,"velocity":67,"channel":6,"program":29},{"beat":43.0,"duration":1.47917,"midi":62,"velocity":88,"channel":3,"program":27},{"beat":43.0,"duration":1.97917,"midi":62,"velocity":67,"channel":6,"program":29},{"beat":43.5,"duration":0.22917,"midi":43,"velocity":93,"channel":12,"program":25},{"beat":43.5,"duration":0.97917,"midi":50,"velocity":78,"channel":3,"program":27},{"beat":43.5,"duration":0.97917,"midi":50,"velocity":65,"channel":6,"program":29},{"beat":43.5,"duration":1.97917,"midi":57,"velocity":89,"channel":3,"program":27},{"beat":43.5,"duration":1.97917,"midi":57,"velocity":68,"channel":6,"program":29},{"beat":43.5,"duration":0.47917,"midi":71,"velocity":102,"channel":0,"program":22},{"beat":43.52083,"duration":0.20833,"midi":50,"velocity":94,"channel":12,"program":25},{"beat":43.54167,"duration":0.1875,"midi":55,"velocity":97,"channel":12,"program":25},{"beat":43.75,"duration":0.22917,"midi":43,"velocity":92,"channel":12,"program":25},{"beat":43.77083,"duration":0.20833,"midi":50,"velocity":96,"channel":12,"program":25},{"beat":43.79167,"duration":0.1875,"midi":55,"velocity":98,"channel":12,"program":25},{"beat":44.0,"duration":3.97917,"midi":43,"velocity":89,"channel":3,"program":27},{"beat":44.0,"duration":3.97917,"midi":43,"velocity":64,"channel":6,"program":29},{"beat":44.0,"duration":2.47917,"midi":43,"velocity":99,"channel":12,"program":25},{"beat":44.0,"duration":3.97917,"midi":43,"velocity":70,"channel":14,"program":26},{"beat":44.0,"duration":0.47917,"midi":74,"velocity":101,"channel":0,"program":22},{"beat":44.02083,"duration":2.45833,"midi":50,"velocity":94,"channel":12,"program":25},{"beat":44.04167,"duration":2.4375,"midi":55,"velocity":95,"channel":12,"program":25},{"beat":44.5,"duration":1.47917,"midi":50,"velocity":77,"channel":3,"program":27},{"beat":44.5,"duration":1.47917,"midi":50,"velocity":70,"channel":6,"program":29},{"beat":44.5,"duration":0.47917,"midi":74,"velocity":102,"channel":0,"program":22},{"beat":45.0,"duration":1.47917,"midi":62,"velocity":90,"channel":3,"program":27},{"beat":45.0,"duration":1.47917,"midi":62,"velocity":68,"channel":6,"program":29},{"beat":45.0,"duration":0.35417,"midi":74,"velocity":101,"channel":0,"program":22},{"beat":45.5,"duration":1.97917,"midi":57,"velocity":87,"channel":3,"program":27},{"beat":45.5,"duration":1.97917,"midi":57,"velocity":69,"channel":6,"program":29},{"beat":45.5,"duration":0.52083,"midi":67,"velocity":100,"channel":0,"program":22},{"beat":46.0,"duration":1.97917,"midi":50,"velocity":78,"channel":3,"program":27},{"beat":46.0,"duration":1.97917,"midi":50,"velocity":67,"channel":6,"program":29},{"beat":46.5,"duration":0.22917,"midi":50,"velocity":92,"channel":12,"program":25},{"beat":46.5,"duration":0.47917,"midi":64,"velocity":85,"channel":3,"program":27},{"beat":46.5,"duration":1.47917,"midi":64,"velocity":67,"channel":6,"program":29},{"beat":46.5,"duration":0.35417,"midi":74,"velocity":99,"channel":0,"program":22},{"beat":46.52083,"duration":0.20833,"midi":57,"velocity":94,"channel":12,"program":25},{"beat":46.54167,"duration":1.4375,"midi":64,"velocity":88,"channel":12,"program":25},{"beat":46.75,"duration":0.22917,"midi":50,"velocity":86,"channel":12,"program":25},{"beat":46.77083,"duration":0.20833,"midi":57,"velocity":88,"channel":12,"program":25},{"beat":47.0,"duration":0.97917,"midi":50,"velocity":98,"channel":12,"program":25},{"beat":47.0,"duration":1.47917,"midi":62,"velocity":86,"channel":3,"program":27},{"beat":47.0,"duration":1.97917,"midi":62,"velocity":67,"channel":6,"program":29},{"beat":47.0,"duration":0.47917,"midi":74,"velocity":102,"channel":0,"program":22},{"beat":47.02083,"duration":0.95833,"midi":57,"velocity":95,"channel":12,"program":25},{"beat":47.5,"duration":1.97917,"midi":57,"velocity":85,"channel":3,"program":27},{"beat":47.5,"duration":1.97917,"midi":57,"velocity":66,"channel":6,"program":29},{"beat":47.5,"duration":0.47917,"midi":71,"velocity":101,"channel":0,"program":22},{"beat":48.0,"duration":3.97917,"midi":42,"velocity":86,"channel":3,"program":27},{"beat":48.0,"duration":3.97917,"midi":42,"velocity":70,"channel":6,"program":29},{"beat":48.0,"duration":3.97917,"midi":42,"velocity":88,"channel":14,"program":26},{"beat":48.0,"duration":3.47917,"midi":50,"velocity":96,"channel":12,"program":25},{"beat":48.0,"duration":6.0,"midi":57,"velocity":56,"channel":11,"program":80},{"beat":48.0,"duration":0.89583,"midi":74,"velocity":101,"channel":0,"program":22},{"beat":48.02083,"duration":3.45833,"midi":54,"velocity":93,"channel":12,"program":25},{"beat":48.04167,"duration":3.4375,"midi":57,"velocity":93,"channel":12,"program":25},{"beat":48.5,"duration":1.47917,"midi":50,"velocity":77,"channel":3,"program":27},{"beat":48.5,"duration":1.47917,"midi":50,"velocity":67,"channel":6,"program":29},{"beat":49.0,"duration":1.47917,"midi":62,"velocity":84,"channel":3,"program":27},{"beat":49.0,"duration":1.47917,"midi":62,"velocity":67,"channel":6,"program":29},{"beat":49.5,"duration":1.97917,"midi":57,"velocity":85,"channel":3,"program":27},{"beat":49.5,"duration":1.97917,"midi":57,"velocity":66,"channel":6,"program":29},{"beat":49.5,"duration":0.47917,"midi":71,"velocity":102,"channel":0,"program":22},{"beat":50.0,"duration":1.47917,"midi":50,"velocity":81,"channel":3,"program":27},{"beat":50.0,"duration":1.47917,"midi":50,"velocity":67,"channel":6,"program":29},{"beat":50.0,"duration":0.47917,"midi":74,"velocity":102,"channel":0,"program":22},{"beat":50.5,"duration":0.47917,"midi":64,"velocity":89,"channel":3,"program":27},{"beat":50.5,"duration":1.47917,"midi":64,"velocity":65,"channel":6,"program":29},{"beat":50.5,"duration":0.5625,"midi":67,"velocity":100,"channel":0,"program":22},{"beat":51.0,"duration":1.72917,"midi":62,"velocity":85,"channel":3,"program":27},{"beat":51.0,"duration":1.97917,"midi":62,"velocity":70,"channel":6,"program":29},{"beat":51.5,"duration":0.47917,"midi":50,"velocity":81,"channel":3,"program":27},{"beat":51.5,"duration":0.47917,"midi":50,"velocity":67,"channel":6,"program":29},{"beat":51.5,"duration":0.22917,"midi":50,"velocity":92,"channel":12,"program":25},{"beat":51.5,"duration":1.97917,"midi":57,"velocity":89,"channel":3,"program":27},{"beat":51.5,"duration":1.97917,"midi":57,"velocity":66,"channel":6,"program":29},{"beat":51.5,"duration":0.5625,"midi":74,"velocity":100,"channel":0,"program":22},{"beat":51.52083,"duration":0.20833,"midi":54,"velocity":95,"channel":12,"program":25},{"beat":51.54167,"duration":0.1875,"midi":57,"velocity":97,"channel":12,"program":25},{"beat":51.75,"duration":0.22917,"midi":50,"velocity":96,"channel":12,"program":25},{"beat":51.77083,"duration":0.20833,"midi":54,"velocity":92,"channel":12,"program":25},{"beat":51.79167,"duration":0.1875,"midi":57,"velocity":96,"channel":12,"program":25},{"beat":52.0,"duration":3.97917,"midi":42,"velocity":85,"channel":3,"program":27},{"beat":52.0,"duration":3.97917,"midi":42,"velocity":66,"channel":6,"program":29},{"beat":52.0,"duration":3.97917,"midi":42,"velocity":70,"channel":14,"program":26},{"beat":52.0,"duration":2.47917,"midi":50,"velocity":94,"channel":12,"program":25},{"beat":52.02083,"duration":2.45833,"midi":54,"velocity":98,"channel":12,"program":25},{"beat":52.04167,"duration":2.4375,"midi":57,"velocity":93,"channel":12,"program":25},{"beat":52.5,"duration":1.47917,"midi":50,"velocity":76,"channel":3,"program":27},{"beat":52.5,"duration":1.47917,"midi":50,"velocity":67,"channel":6,"program":29},{"beat":52.5,"duration":0.8125,"midi":74,"velocity":100,"channel":0,"program":22},{"beat":53.0,"duration":1.47917,"midi":62,"velocity":86,"channel":3,"program":27},{"beat":53.0,"duration":1.47917,"midi":62,"velocity":68,"channel":6,"program":29},{"beat":53.5,"duration":1.97917,"midi":57,"velocity":88,"channel":3,"program":27},{"beat":53.5,"duration":1.97917,"midi":57,"velocity":69,"channel":6,"program":29},{"beat":53.5,"duration":0.52083,"midi":67,"velocity":100,"channel":0,"program":22},{"beat":54.0,"duration":1.97917,"midi":50,"velocity":81,"channel":3,"program":27},{"beat":54.0,"duration":1.97917,"midi":50,"velocity":68,"channel":6,"program":29},{"beat":54.5,"duration":0.22917,"midi":50,"velocity":95,"channel":12,"program":25},{"beat":54.5,"duration":0.47917,"midi":64,"velocity":84,"channel":3,"program":27},{"beat":54.5,"duration":1.47917,"midi":64,"velocity":64,"channel":6,"program":29},{"beat":54.5,"duration":1.47917,"midi":64,"velocity":88,"channel":12,"program":25},{"beat":54.5,"duration":0.35417,"midi":74,"velocity":101,"channel":0,"program":22},{"beat":54.52083,"duration":0.20833,"midi":54,"velocity":96,"channel":12,"program":25},{"beat":54.54167,"duration":0.1875,"midi":57,"velocity":94,"channel":12,"program":25},{"beat":54.75,"duration":0.22917,"midi":50,"velocity":95,"channel":12,"program":25},{"beat":54.77083,"duration":0.20833,"midi":54,"velocity":95,"channel":12,"program":25},{"beat":54.79167,"duration":0.1875,"midi":57,"velocity":96,"channel":12,"program":25},{"beat":55.0,"duration":0.97917,"midi":50,"velocity":92,"channel":12,"program":25},{"beat":55.0,"duration":1.72917,"midi":62,"velocity":89,"channel":3,"program":27},{"beat":55.0,"duration":1.72917,"midi":62,"velocity":67,"channel":6,"program":29},{"beat":55.0,"duration":0.47917,"midi":74,"velocity":102,"channel":0,"program":22},{"beat":55.02083,"duration":0.95833,"midi":54,"velocity":94,"channel":12,"program":25},{"beat":55.04167,"duration":0.9375,"midi":57,"velocity":97,"channel":12,"program":25},{"beat":55.5,"duration":0.47917,"midi":57,"velocity":80,"channel":3,"program":27},{"beat":55.5,"duration":0.47917,"midi":57,"velocity":64,"channel":6,"program":29},{"beat":55.5,"duration":0.47917,"midi":74,"velocity":99,"channel":0,"program":22},{"beat":56.0,"duration":3.97917,"midi":41,"velocity":90,"channel":3,"program":27},{"beat":56.0,"duration":3.97917,"midi":41,"velocity":70,"channel":6,"program":29},{"beat":56.0,"duration":3.97917,"midi":41,"velocity":87,"channel":14,"program":26},{"beat":56.0,"duration":0.47917,"midi":53,"velocity":64,"channel":6,"program":29},{"beat":56.0,"duration":6.0,"midi":53,"velocity":58,"channel":11,"program":80},{"beat":56.0,"duration":3.47917,"midi":53,"velocity":95,"channel":12,"program":25},{"beat":56.0,"duration":0.97917,"midi":76,"velocity":100,"channel":0,"program":22},{"beat":56.02083,"duration":3.45833,"midi":57,"velocity":95,"channel":12,"program":25},{"beat":56.04167,"duration":3.4375,"midi":60,"velocity":78,"channel":12,"program":25},{"beat":56.5,"duration":1.47917,"midi":53,"velocity":82,"channel":3,"program":27},{"beat":56.5,"duration":1.47917,"midi":53,"velocity":64,"channel":6,"program":29},{"beat":57.0,"duration":1.47917,"midi":62,"velocity":87,"channel":3,"program":27},{"beat":57.0,"duration":1.47917,"midi":62,"velocity":65,"channel":6,"program":29},{"beat":57.0,"duration":0.47917,"midi":77,"velocity":100,"channel":0,"program":22},{"beat":57.5,"duration":1.97917,"midi":57,"velocity":87,"channel":3,"program":27},{"beat":57.5,"duration":1.97917,"midi":57,"velocity":64,"channel":6,"program":29},{"beat":57.5,"duration":0.47917,"midi":76,"velocity":102,"channel":0,"program":22},{"beat":58.0,"duration":1.97917,"midi":53,"velocity":77,"channel":3,"program":27},{"beat":58.0,"duration":1.97917,"midi":53,"velocity":66,"channel":6,"program":29},{"beat":58.0,"duration":0.27083,"midi":74,"velocity":102,"channel":0,"program":22},{"beat":58.5,"duration":1.47917,"midi":64,"velocity":89,"channel":3,"program":27},{"beat":58.5,"duration":2.47917,"midi":64,"velocity":67,"channel":6,"program":29},{"beat":58.5,"duration":0.47917,"midi":74,"velocity":100,"channel":0,"program":22},{"beat":59.0,"duration":1.72917,"midi":62,"velocity":90,"channel":3,"program":27},{"beat":59.0,"duration":1.72917,"midi":62,"velocity":66,"channel":6,"program":29},{"beat":59.0,"duration":0.97917,"midi":74,"velocity":101,"channel":0,"program":22},{"beat":59.5,"duration":0.22917,"midi":53,"velocity":94,"channel":12,"program":25},{"beat":59.5,"duration":1.47917,"midi":57,"velocity":90,"channel":3,"program":27},{"beat":59.5,"duration":1.97917,"midi":57,"velocity":64,"channel":6,"program":29},{"beat":59.52083,"duration":0.20833,"midi":57,"velocity":94,"channel":12,"program":25},{"beat":59.54167,"duration":0.1875,"midi":62,"velocity":99,"channel":12,"program":25},{"beat":59.75,"duration":0.22917,"midi":53,"velocity":92,"channel":12,"program":25},{"beat":59.77083,"duration":0.20833,"midi":57,"velocity":95,"channel":12,"program":25},{"beat":59.79167,"duration":0.1875,"midi":62,"velocity":79,"channel":12,"program":25},{"beat":60.0,"duration":3.97917,"midi":41,"velocity":89,"channel":3,"program":27},{"beat":60.0,"duration":3.97917,"midi":41,"velocity":68,"channel":6,"program":29},{"beat":60.0,"duration":3.97917,"midi":41,"velocity":70,"channel":14,"program":26},{"beat":60.0,"duration":2.47917,"midi":53,"velocity":92,"channel":12,"program":25},{"beat":60.02083,"duration":2.45833,"midi":57,"velocity":97,"channel":12,"program":25},{"beat":60.04167,"duration":2.4375,"midi":62,"velocity":87,"channel":12,"program":25},{"beat":60.5,"duration":1.47917,"midi":53,"velocity":76,"channel":3,"program":27},{"beat":60.5,"duration":1.47917,"midi":53,"velocity":67,"channel":6,"program":29},{"beat":61.0,"duration":1.47917,"midi":62,"velocity":87,"channel":3,"program":27},{"beat":61.0,"duration":1.47917,"midi":62,"velocity":66,"channel":6,"program":29},{"beat":61.5,"duration":1.97917,"midi":57,"velocity":87,"channel":3,"program":27},{"beat":61.5,"duration":1.97917,"midi":57,"velocity":67,"channel":6,"program":29},{"beat":62.0,"duration":1.97917,"midi":53,"velocity":77,"channel":3,"program":27},{"beat":62.0,"duration":1.97917,"midi":53,"velocity":68,"channel":6,"program":29},{"beat":62.5,"duration":1.47917,"midi":50,"velocity":89,"channel":12,"program":25},{"beat":62.5,"duration":1.47917,"midi":55,"velocity":70,"channel":3,"program":27},{"beat":62.5,"duration":1.47917,"midi":55,"velocity":68,"channel":6,"program":29},{"beat":62.5,"duration":1.47917,"midi":64,"velocity":86,"channel":3,"program":27},{"beat":62.5,"duration":1.47917,"midi":64,"velocity":65,"channel":6,"program":29},{"beat":62.5,"duration":0.47917,"midi":74,"velocity":102,"channel":0,"program":22},{"beat":62.52083,"duration":1.45833,"midi":55,"velocity":96,"channel":12,"program":25},{"beat":62.54167,"duration":1.4375,"midi":64,"velocity":85,"channel":12,"program":25},{"beat":63.0,"duration":1.97917,"midi":62,"velocity":85,"channel":3,"program":27},{"beat":63.0,"duration":1.97917,"midi":62,"velocity":66,"channel":6,"program":29},{"beat":63.5,"duration":1.47917,"midi":57,"velocity":84,"channel":3,"program":27},{"beat":63.5,"duration":1.97917,"midi":57,"velocity":65,"channel":6,"program":29},{"beat":63.5,"duration":0.47917,"midi":74,"velocity":102,"channel":0,"program":22},{"beat":64.0,"duration":3.97917,"midi":42,"velocity":89,"channel":3,"program":27},{"beat":64.0,"duration":3.97917,"midi":42,"velocity":68,"channel":6,"program":29},{"beat":64.0,"duration":6.0,"midi":42,"velocity":90,"channel":14,"program":26},{"beat":64.0,"duration":3.47917,"midi":50,"velocity":98,"channel":12,"program":25},{"beat":64.0,"duration":6.0,"midi":57,"velocity":60,"channel":11,"program":80},{"beat":64.0,"duration":0.47917,"midi":66,"velocity":95,"channel":12,"program":25},{"beat":64.0,"duration":0.47917,"midi":81,"velocity":101,"channel":0,"program":22},{"beat":64.02083,"duration":3.45833,"midi":54,"velocity":98,"channel":12,"program":25},{"beat":64.04167,"duration":3.4375,"midi":57,"velocity":97,"channel":12,"program":25},{"beat":64.5,"duration":1.47917,"midi":50,"velocity":76,"channel":3,"program":27},{"beat":64.5,"duration":1.47917,"midi":50,"velocity":67,"channel":6,"program":29},{"beat":64.5,"duration":0.47917,"midi":64,"velocity":87,"channel":12,"program":25},{"beat":64.5,"duration":0.47917,"midi":79,"velocity":100,"channel":0,"program":22},{"beat":65.0,"duration":1.47917,"midi":62,"velocity":88,"channel":3,"program":27},{"beat":65.0,"duration":1.47917,"midi":62,"velocity":67,"channel":6,"program":29},{"beat":65.0,"duration":1.47917,"midi":62,"velocity":86,"channel":12,"program":25},{"beat":65.0,"duration":0.3125,"midi":79,"velocity":100,"channel":0,"program":22},{"beat":65.5,"duration":1.97917,"midi":57,"velocity":90,"channel":3,"program":27},{"beat":65.5,"duration":1.97917,"midi":57,"velocity":67,"channel":6,"program":29},{"beat":65.5,"duration":0.97917,"midi":78,"velocity":102,"channel":0,"program":22},{"beat":66.0,"duration":1.97917,"midi":50,"velocity":81,"channel":3,"program":27},{"beat":66.0,"duration":1.97917,"midi":50,"velocity":69,"channel":6,"program":29},{"beat":66.5,"duration":0.47917,"midi":64,"velocity":88,"channel":3,"program":27},{"beat":66.5,"duration":1.47917,"midi":64,"velocity":66,"channel":6,"program":29},{"beat":66.5,"duration":1.47917,"midi":64,"velocity":84,"channel":12,"program":25},{"beat":66.5,"duration":0.47917,"midi":79,"velocity":101,"channel":0,"program":22},{"beat":67.0,"duration":1.47917,"midi":62,"velocity":85,"channel":3,"program":27},{"beat":67.0,"duration":1.47917,"midi":62,"velocity":64,"channel":6,"program":29},{"beat":67.0,"duration":1.72917,"midi":78,"velocity":99,"channel":0,"program":22},{"beat":67.5,"duration":0.22917,"midi":50,"velocity":94,"channel":12,"program":25},{"beat":67.5,"duration":0.97917,"midi":57,"velocity":87,"channel":3,"program":27},{"beat":67.5,"duration":0.97917,"midi":57,"velocity":68,"channel":6,"program":29},{"beat":67.52083,"duration":0.20833,"midi":54,"velocity":93,"channel":12,"program":25},{"beat":67.54167,"duration":0.1875,"midi":57,"velocity":97,"channel":12,"program":25},{"beat":67.75,"duration":0.22917,"midi":50,"velocity":96,"channel":12,"program":25},{"beat":67.77083,"duration":0.20833,"midi":54,"velocity":96,"channel":12,"program":25},{"beat":67.79167,"duration":0.1875,"midi":57,"velocity":97,"channel":12,"program":25},{"beat":68.0,"duration":3.97917,"midi":42,"velocity":85,"channel":3,"program":27},{"beat":68.0,"duration":3.97917,"midi":42,"velocity":65,"channel":6,"program":29},{"beat":68.0,"duration":2.47917,"midi":50,"velocity":94,"channel":12,"program":25},{"beat":68.02083,"duration":2.45833,"midi":54,"velocity":94,"channel":12,"program":25},{"beat":68.04167,"duration":2.4375,"midi":57,"velocity":99,"channel":12,"program":25},{"beat":68.5,"duration":0.97917,"midi":50,"velocity":80,"channel":3,"program":27},{"beat":68.5,"duration":0.97917,"midi":50,"velocity":70,"channel":6,"program":29},{"beat":68.5,"duration":0.97917,"midi":57,"velocity":88,"channel":3,"program":27},{"beat":68.5,"duration":0.97917,"midi":57,"velocity":68,"channel":6,"program":29},{"beat":68.5,"duration":1.97917,"midi":62,"velocity":89,"channel":3,"program":27},{"beat":68.5,"duration":0.97917,"midi":62,"velocity":66,"channel":6,"program":29},{"beat":69.5,"duration":0.47917,"midi":50,"velocity":78,"channel":3,"program":27},{"beat":69.5,"duration":0.47917,"midi":50,"velocity":67,"channel":6,"program":29},{"beat":69.5,"duration":2.47917,"midi":57,"velocity":85,"channel":3,"program":27},{"beat":69.5,"duration":0.47917,"midi":57,"velocity":69,"channel":6,"program":29},{"beat":69.5,"duration":0.47917,"midi":62,"velocity":66,"channel":6,"program":29},{"beat":70.0,"duration":1.97917,"midi":57,"velocity":64,"channel":6,"program":29},{"beat":70.0,"duration":0.47917,"midi":64,"velocity":57,"channel":3,"program":27},{"beat":70.0,"duration":0.47917,"midi":64,"velocity":67,"channel":6,"program":29},{"beat":70.5,"duration":1.47917,"midi":50,"velocity":81,"channel":3,"program":27},{"beat":70.5,"duration":1.47917,"midi":50,"velocity":66,"channel":6,"program":29},{"beat":70.5,"duration":0.22917,"midi":50,"velocity":99,"channel":12,"program":25},{"beat":70.5,"duration":0.47917,"midi":55,"velocity":70,"channel":3,"program":27},{"beat":70.5,"duration":0.5,"midi":55,"velocity":68,"channel":6,"program":29},{"beat":70.5,"duration":1.47917,"midi":62,"velocity":89,"channel":3,"program":27},{"beat":70.5,"duration":1.47917,"midi":62,"velocity":70,"channel":6,"program":29},{"beat":70.52083,"duration":0.20833,"midi":54,"velocity":97,"channel":12,"program":25},{"beat":70.54167,"duration":0.1875,"midi":57,"velocity":90,"channel":12,"program":25},{"beat":70.75,"duration":0.22917,"midi":50,"velocity":88,"channel":12,"program":25},{"beat":70.77083,"duration":0.20833,"midi":54,"velocity":88,"channel":12,"program":25},{"beat":70.79167,"duration":0.1875,"midi":57,"velocity":85,"channel":12,"program":25},{"beat":71.0,"duration":0.97917,"midi":50,"velocity":85,"channel":12,"program":25},{"beat":71.0,"duration":0.47917,"midi":54,"velocity":87,"channel":1,"program":52},{"beat":71.0,"duration":0.47917,"midi":54,"velocity":80,"channel":3,"program":27},{"beat":71.0,"duration":0.47917,"midi":54,"velocity":69,"channel":6,"program":29},{"beat":71.0,"duration":0.47917,"midi":78,"velocity":102,"channel":0,"program":22},{"beat":71.02083,"duration":0.95833,"midi":54,"velocity":88,"channel":12,"program":25},{"beat":71.04167,"duration":0.9375,"midi":57,"velocity":85,"channel":12,"program":25},{"beat":71.5,"duration":0.47917,"midi":52,"velocity":87,"channel":1,"program":52},{"beat":71.5,"duration":0.47917,"midi":55,"velocity":81,"channel":3,"program":27},{"beat":71.5,"duration":0.47917,"midi":55,"velocity":67,"channel":6,"program":29},{"beat":71.5,"duration":0.47917,"midi":76,"velocity":101,"channel":0,"program":22},{"beat":72.0,"duration":6.0,"midi":40,"velocity":80,"channel":3,"program":27},{"beat":72.0,"duration":6.0,"midi":40,"velocity":65,"channel":6,"program":29},{"beat":72.0,"duration":3.97917,"midi":40,"velocity":84,"channel":14,"program":26},{"beat":72.0,"duration":3.47917,"midi":50,"velocity":85,"channel":3,"program":27},{"beat":72.0,"duration":3.47917,"midi":50,"velocity":64,"channel":6,"program":29},{"beat":72.0,"duration":0.22917,"midi":52,"velocity":73,"channel":4,"program":28},{"beat":72.0,"duration":6.0,"midi":52,"velocity":80,"channel":6,"program":29},{"beat":72.0,"duration":6.0,"midi":52,"velocity":76,"channel":11,"program":80},{"beat":72.0,"duration":6.0,"midi":52,"velocity":95,"channel":12,"program":25},{"beat":72.0,"duration":1.35417,"midi":54,"velocity":89,"channel":1,"program":52},{"beat":72.0,"duration":2.47917,"midi":55,"velocity":80,"channel":3,"program":27},{"beat":72.0,"duration":6.0,"midi":55,"velocity":80,"channel":11,"program":80},{"beat":72.0,"duration":0.14583,"midi":59,"velocity":87,"channel":13,"program":81},{"beat":72.0,"duration":2.47917,"midi":62,"velocity":84,"channel":7,"program":51},{"beat":72.0,"duration":0.14583,"midi":64,"velocity":87,"channel":13,"program":81},{"beat":72.0,"duration":1.35417,"midi":78,"velocity":102,"channel":0,"program":22},{"beat":72.02083,"duration":0.20833,"midi":55,"velocity":75,"channel":4,"program":28},{"beat":72.02083,"duration":6.0,"midi":55,"velocity":70,"channel":6,"program":29},{"beat":72.02083,"duration":6.0,"midi":55,"velocity":95,"channel":12,"program":25},{"beat":72.02083,"duration":1.95833,"midi":57,"velocity":60,"channel":3,"program":27},{"beat":72.04167,"duration":1.9375,"midi":57,"velocity":65,"channel":6,"program":29},{"beat":72.04167,"duration":6.0,"midi":57,"velocity":79,"channel":12,"program":25},{"beat":72.04167,"duration":0.1875,"midi":59,"velocity":64,"channel":4,"program":28},{"beat":72.04167,"duration":5.20833,"midi":62,"velocity":80,"channel":3,"program":27},{"beat":72.5,"duration":0.22917,"midi":52,"velocity":58,"channel":4,"program":28},{"beat":72.5,"duration":0.14583,"midi":59,"velocity":74,"channel":13,"program":81},{"beat":72.5,"duration":0.14583,"midi":64,"velocity":74,"channel":13,"program":81},{"beat":72.52083,"duration":0.20833,"midi":55,"velocity":63,"channel":4,"program":28},{"beat":72.54167,"duration":0.1875,"midi":59,"velocity":53,"channel":4,"program":28},{"beat":72.75,"duration":0.14583,"midi":64,"velocity":76,"channel":13,"program":81},{"beat":73.0,"duration":0.22917,"midi":52,"velocity":75,"channel":4,"program":28},{"beat":73.0,"duration":0.14583,"midi":59,"velocity":89,"channel":13,"program":81},{"beat":73.0,"duration":0.14583,"midi":64,"velocity":89,"channel":13,"program":81},{"beat":73.02083,"duration":0.20833,"midi":55,"velocity":82,"channel":4,"program":28},{"beat":73.04167,"duration":0.1875,"midi":59,"velocity":69,"channel":4,"program":28},{"beat":73.5,"duration":0.3125,"midi":52,"velocity":89,"channel":1,"program":52},{"beat":73.5,"duration":0.22917,"midi":52,"velocity":59,"channel":4,"program":28},{"beat":73.5,"duration":0.14583,"midi":59,"velocity":76,"channel":13,"program":81},{"beat":73.5,"duration":0.14583,"midi":64,"velocity":76,"channel":13,"program":81},{"beat":73.5,"duration":0.3125,"midi":76,"velocity":101,"channel":0,"program":22},{"beat":73.52083,"duration":0.20833,"midi":55,"velocity":67,"channel":4,"program":28},{"beat":73.54167,"duration":0.1875,"midi":59,"velocity":55,"channel":4,"program":28},{"beat":73.75,"duration":0.14583,"midi":64,"velocity":87,"channel":13,"program":81},{"beat":74.0,"duration":0.22917,"midi":52,"velocity":66,"channel":4,"program":28},{"beat":74.0,"duration":1.47917,"midi":54,"velocity":88,"channel":1,"program":52},{"beat":74.0,"duration":2.72917,"midi":57,"velocity":68,"channel":3,"program":27},{"beat":74.0,"duration":1.97917,"midi":57,"velocity":70,"channel":6,"program":29},{"beat":74.0,"duration":0.14583,"midi":59,"velocity":81,"channel":13,"program":81},{"beat":74.0,"duration":0.14583,"midi":64,"velocity":81,"channel":13,"program":81},{"beat":74.0,"duration":1.47917,"midi":78,"velocity":100,"channel":0,"program":22},{"beat":74.02083,"duration":0.20833,"midi":55,"velocity":69,"channel":4,"program":28},{"beat":74.02083,"duration":1.95833,"midi":62,"velocity":60,"channel":6,"program":29},{"beat":74.04167,"duration":0.1875,"midi":59,"velocity":62,"channel":4,"program":28},{"beat":74.5,"duration":0.22917,"midi":52,"velocity":61,"channel":4,"program":28},{"beat":74.5,"duration":1.97917,"midi":55,"velocity":61,"channel":3,"program":27},{"beat":74.5,"duration":0.14583,"midi":59,"velocity":76,"channel":13,"program":81},{"beat":74.5,"duration":0.97917,"midi":64,"velocity":89,"channel":7,"program":51},{"beat":74.5,"duration":0.14583,"midi":64,"velocity":76,"channel":13,"program":81},{"beat":74.52083,"duration":0.20833,"midi":55,"velocity":68,"channel":4,"program":28},{"beat":74.54167,"duration":0.1875,"midi":59,"velocity":57,"channel":4,"program":28},{"beat":74.75,"duration":0.14583,"midi":64,"velocity":70,"channel":13,"program":81},{"beat":75.0,"duration":0.22917,"midi":52,"velocity":71,"channel":4,"program":28},{"beat":75.0,"duration":0.14583,"midi":59,"velocity":85,"channel":13,"program":81},{"beat":75.0,"duration":0.14583,"midi":64,"velocity":85,"channel":13,"program":81},{"beat":75.02083,"duration":0.20833,"midi":55,"velocity":78,"channel":4,"program":28},{"beat":75.04167,"duration":0.1875,"midi":59,"velocity":66,"channel":4,"program":28},{"beat":75.5,"duration":0.3125,"midi":50,"velocity":90,"channel":1,"program":52},{"beat":75.5,"duration":4.47917,"midi":50,"velocity":90,"channel":3,"program":27},{"beat":75.5,"duration":4.47917,"midi":50,"velocity":68,"channel":6,"program":29},{"beat":75.5,"duration":0.22917,"midi":52,"velocity":62,"channel":4,"program":28},{"beat":75.5,"duration":0.14583,"midi":59,"velocity":76,"channel":13,"program":81},{"beat":75.5,"duration":1.47917,"midi":62,"velocity":84,"channel":7,"program":51},{"beat":75.5,"duration":0.14583,"midi":62,"velocity":76,"channel":13,"program":81},{"beat":75.5,"duration":0.3125,"midi":74,"velocity":102,"channel":0,"program":22},{"beat":75.52083,"duration":0.20833,"midi":55,"velocity":67,"channel":4,"program":28},{"beat":75.54167,"duration":0.1875,"midi":59,"velocity":56,"channel":4,"program":28},{"beat":75.75,"duration":0.14583,"midi":62,"velocity":76,"channel":13,"program":81},{"beat":76.0,"duration":3.97917,"midi":40,"velocity":80,"channel":14,"program":26},{"beat":76.0,"duration":0.22917,"midi":52,"velocity":72,"channel":4,"program":28},{"beat":76.0,"duration":0.97917,"midi":57,"velocity":89,"channel":1,"program":52},{"beat":76.0,"duration":0.14583,"midi":62,"velocity":70,"channel":13,"program":81},{"beat":76.0,"duration":0.14583,"midi":67,"velocity":70,"channel":13,"program":81},{"beat":76.0,"duration":0.97917,"midi":81,"velocity":101,"channel":0,"program":22},{"beat":76.02083,"duration":0.20833,"midi":55,"velocity":74,"channel":4,"program":28},{"beat":76.04167,"duration":0.1875,"midi":59,"velocity":70,"channel":4,"program":28},{"beat":76.5,"duration":0.22917,"midi":52,"velocity":62,"channel":4,"program":28},{"beat":76.5,"duration":1.97917,"midi":55,"velocity":90,"channel":3,"program":27},{"beat":76.5,"duration":0.14583,"midi":62,"velocity":75,"channel":13,"program":81},{"beat":76.5,"duration":0.14583,"midi":67,"velocity":75,"channel":13,"program":81},{"beat":76.52083,"duration":0.20833,"midi":55,"velocity":68,"channel":4,"program":28},{"beat":76.54167,"duration":0.1875,"midi":59,"velocity":56,"channel":4,"program":28},{"beat":76.75,"duration":0.14583,"midi":62,"velocity":76,"channel":13,"program":81},{"beat":76.75,"duration":0.14583,"midi":67,"velocity":76,"channel":13,"program":81},{"beat":77.0,"duration":0.22917,"midi":52,"velocity":73,"channel":4,"program":28},{"beat":77.0,"duration":0.47917,"midi":59,"velocity":86,"channel":1,"program":52},{"beat":77.0,"duration":0.14583,"midi":62,"velocity":88,"channel":13,"program":81},{"beat":77.0,"duration":0.14583,"midi":67,"velocity":88,"channel":13,"program":81},{"beat":77.0,"duration":0.47917,"midi":83,"velocity":99,"channel":0,"program":22},{"beat":77.02083,"duration":0.20833,"midi":55,"velocity":80,"channel":4,"program":28},{"beat":77.04167,"duration":0.1875,"midi":59,"velocity":67,"channel":4,"program":28},{"beat":77.5,"duration":0.22917,"midi":52,"velocity":63,"channel":4,"program":28},{"beat":77.5,"duration":0.47917,"midi":57,"velocity":89,"channel":1,"program":52},{"beat":77.5,"duration":1.97917,"midi":62,"velocity":85,"channel":3,"program":27},{"beat":77.5,"duration":0.97917,"midi":62,"velocity":64,"channel":6,"program":29},{"beat":77.5,"duration":0.97917,"midi":62,"velocity":70,"channel":7,"program":51},{"beat":77.5,"duration":0.14583,"midi":62,"velocity":78,"channel":13,"program":81},{"beat":77.5,"duration":0.14583,"midi":67,"velocity":78,"channel":13,"program":81},{"beat":77.5,"duration":0.47917,"midi":81,"velocity":101,"channel":0,"program":22},{"beat":77.52083,"duration":0.20833,"midi":55,"velocity":69,"channel":4,"program":28},{"beat":77.54167,"duration":0.1875,"midi":59,"velocity":58,"channel":4,"program":28},{"beat":77.75,"duration":0.14583,"midi":62,"velocity":86,"channel":13,"program":81},{"beat":77.75,"duration":0.14583,"midi":67,"velocity":86,"channel":13,"program":81},{"beat":78.0,"duration":0.22917,"midi":52,"velocity":70,"channel":4,"program":28},{"beat":78.0,"duration":0.14583,"midi":62,"velocity":83,"channel":13,"program":81},{"beat":78.0,"duration":0.14583,"midi":67,"velocity":83,"channel":13,"program":81},{"beat":78.02083,"duration":0.20833,"midi":55,"velocity":74,"channel":4,"program":28},{"beat":78.04167,"duration":0.1875,"midi":59,"velocity":63,"channel":4,"program":28},{"beat":78.5,"duration":0.47917,"midi":40,"velocity":86,"channel":3,"program":27},{"beat":78.5,"duration":0.22917,"midi":52,"velocity":65,"channel":4,"program":28},{"beat":78.5,"duration":0.97917,"midi":52,"velocity":70,"channel":6,"program":29},{"beat":78.5,"duration":1.47917,"midi":52,"velocity":93,"channel":12,"program":25},{"beat":78.5,"duration":0.47917,"midi":54,"velocity":88,"channel":1,"program":52},{"beat":78.5,"duration":0.47917,"midi":55,"velocity":90,"channel":3,"program":27},{"beat":78.5,"duration":0.14583,"midi":62,"velocity":82,"channel":13,"program":81},{"beat":78.5,"duration":1.47917,"midi":64,"velocity":72,"channel":3,"program":27},{"beat":78.5,"duration":0.97917,"midi":64,"velocity":64,"channel":6,"program":29},{"beat":78.5,"duration":1.47917,"midi":64,"velocity":90,"channel":7,"program":51},{"beat":78.5,"duration":0.14583,"midi":67,"velocity":82,"channel":13,"program":81},{"beat":78.5,"duration":0.47917,"midi":78,"velocity":102,"channel":0,"program":22},{"beat":78.52083,"duration":0.20833,"midi":55,"velocity":70,"channel":4,"program":28},{"beat":78.52083,"duration":0.95833,"midi":55,"velocity":68,"channel":6,"program":29},{"beat":78.52083,"duration":1.45833,"midi":55,"velocity":94,"channel":12,"program":25},{"beat":78.54167,"duration":0.1875,"midi":59,"velocity":63,"channel":4,"program":28},{"beat":78.54167,"duration":0.4375,"midi":59,"velocity":96,"channel":12,"program":25},{"beat":78.75,"duration":0.14583,"midi":62,"velocity":91,"channel":13,"program":81},{"beat":78.75,"duration":0.14583,"midi":67,"velocity":91,"channel":13,"program":81},{"beat":79.0,"duration":0.47917,"midi":40,"velocity":89,"channel":3,"program":27},{"beat":79.0,"duration":0.22917,"midi":52,"velocity":77,"channel":4,"program":28},{"beat":79.0,"duration":0.47917,"midi":55,"velocity":88,"channel":3,"program":27},{"beat":79.0,"duration":0.97917,"midi":57,"velocity":99,"channel":12,"program":25},{"beat":79.0,"duration":0.14583,"midi":62,"velocity":91,"channel":13,"program":81},{"beat":79.0,"duration":0.14583,"midi":67,"velocity":91,"channel":13,"program":81},{"beat":79.02083,"duration":0.20833,"midi":55,"velocity":81,"channel":4,"program":28},{"beat":79.04167,"duration":0.1875,"midi":59,"velocity":69,"channel":4,"program":28},{"beat":79.5,"duration":0.47917,"midi":42,"velocity":88,"channel":3,"program":27},{"beat":79.5,"duration":0.47917,"midi":52,"velocity":88,"channel":1,"program":52},{"beat":79.5,"duration":0.22917,"midi":52,"velocity":67,"channel":4,"program":28},{"beat":79.5,"duration":0.47917,"midi":54,"velocity":67,"channel":6,"program":29},{"beat":79.5,"duration":0.47917,"midi":57,"velocity":80,"channel":3,"program":27},{"beat":79.5,"duration":0.47917,"midi":62,"velocity":88,"channel":3,"program":27},{"beat":79.5,"duration":0.47917,"midi":62,"velocity":68,"channel":6,"program":29},{"beat":79.5,"duration":0.14583,"midi":62,"velocity":80,"channel":13,"program":81},{"beat":79.5,"duration":0.14583,"midi":67,"velocity":80,"channel":13,"program":81},{"beat":79.5,"duration":0.47917,"midi":76,"velocity":100,"channel":0,"program":22},{"beat":79.52083,"duration":0.20833,"midi":55,"velocity":71,"channel":4,"program":28},{"beat":79.52083,"duration":0.45833,"midi":57,"velocity":68,"channel":6,"program":29},{"beat":79.54167,"duration":0.1875,"midi":59,"velocity":59,"channel":4,"program":28},{"beat":79.75,"duration":0.14583,"midi":62,"velocity":79,"channel":13,"program":81},{"beat":79.75,"duration":0.14583,"midi":67,"velocity":79,"channel":13,"program":81},{"beat":80.0,"duration":6.0,"midi":42,"velocity":86,"channel":3,"program":27},{"beat":80.0,"duration":6.0,"midi":42,"velocity":69,"channel":6,"program":29},{"beat":80.0,"duration":6.0,"midi":42,"velocity":89,"channel":14,"program":26},{"beat":80.0,"duration":6.0,"midi":50,"velocity":89,"channel":3,"program":27},{"beat":80.0,"duration":0.22917,"midi":50,"velocity":69,"channel":4,"program":28},{"beat":80.0,"duration":6.0,"midi":50,"velocity":65,"channel":6,"program":29},{"beat":80.0,"duration":0.97917,"midi":50,"velocity":97,"channel":12,"program":25},{"beat":80.0,"duration":1.22917,"midi":54,"velocity":90,"channel":1,"program":52},{"beat":80.0,"duration":6.0,"midi":54,"velocity":79,"channel":11,"program":80},{"beat":80.0,"duration":3.97917,"midi":57,"velocity":84,"channel":3,"program":27},{"beat":80.0,"duration":6.0,"midi":57,"velocity":78,"channel":11,"program":80},{"beat":80.0,"duration":6.0,"midi":62,"velocity":70,"channel":11,"program":80},{"beat":80.0,"duration":0.14583,"midi":62,"velocity":87,"channel":13,"program":81},{"beat":80.0,"duration":3.47917,"midi":66,"velocity":80,"channel":7,"program":51},{"beat":80.0,"duration":0.14583,"midi":66,"velocity":87,"channel":13,"program":81},{"beat":80.0,"duration":1.22917,"midi":78,"velocity":100,"channel":0,"program":22},{"beat":80.02083,"duration":0.20833,"midi":54,"velocity":75,"channel":4,"program":28},{"beat":80.02083,"duration":0.95833,"midi":54,"velocity":93,"channel":12,"program":25},{"beat":80.02083,"duration":3.95833,"midi":57,"velocity":64,"channel":6,"program":29},{"beat":80.02083,"duration":4.45833,"midi":62,"velocity":86,"channel":3,"program":27},{"beat":80.02083,"duration":0.95833,"midi":62,"velocity":93,"channel":12,"program":25},{"beat":80.04167,"duration":0.1875,"midi":57,"velocity":67,"channel":4,"program":28},{"beat":80.04167,"duration":0.9375,"midi":57,"velocity":95,"channel":12,"program":25},{"beat":80.04167,"duration":0.9375,"midi":62,"velocity":69,"channel":6,"program":29},{"beat":80.04167,"duration":3.95833,"midi":64,"velocity":70,"channel":3,"program":27},{"beat":80.5,"duration":0.22917,"midi":50,"velocity":71,"channel":4,"program":28},{"beat":80.5,"duration":0.14583,"midi":62,"velocity":74,"channel":13,"program":81},{"beat":80.5,"duration":0.14583,"midi":66,"velocity":74,"channel":13,"program":81},{"beat":80.52083,"duration":0.20833,"midi":54,"velocity":79,"channel":4,"program":28},{"beat":80.54167,"duration":0.1875,"midi":57,"velocity":73,"channel":4,"program":28},{"beat":80.75,"duration":0.14583,"midi":62,"velocity":76,"channel":13,"program":81},{"beat":80.75,"duration":0.14583,"midi":66,"velocity":76,"channel":13,"program":81},{"beat":81.0,"duration":0.47917,"midi":50,"velocity":103,"channel":12,"program":25},{"beat":81.0,"duration":5.97917,"midi":54,"velocity":65,"channel":6,"program":29},{"beat":81.0,"duration":3.47917,"midi":62,"velocity":64,"channel":6,"program":29},{"beat":81.0,"duration":0.14583,"midi":62,"velocity":89,"channel":13,"program":81},{"beat":81.0,"duration":0.14583,"midi":66,"velocity":89,"channel":13,"program":81},{"beat":81.02083,"duration":0.20833,"midi":52,"velocity":72,"channel":4,"program":28},{"beat":81.02083,"duration":0.20833,"midi":54,"velocity":76,"channel":4,"program":28},{"beat":81.02083,"duration":0.45833,"midi":54,"velocity":103,"channel":12,"program":25},{"beat":81.02083,"duration":0.45833,"midi":62,"velocity":102,"channel":12,"program":25},{"beat":81.04167,"duration":0.1875,"midi":57,"velocity":70,"channel":4,"program":28},{"beat":81.04167,"duration":0.4375,"midi":57,"velocity":100,"channel":12,"program":25},{"beat":81.5,"duration":0.97917,"midi":50,"velocity":89,"channel":12,"program":25},{"beat":81.5,"duration":0.47917,"midi":52,"velocity":90,"channel":1,"program":52},{"beat":81.5,"duration":0.14583,"midi":62,"velocity":76,"channel":13,"program":81},{"beat":81.5,"duration":0.14583,"midi":66,"velocity":76,"channel":13,"program":81},{"beat":81.5,"duration":0.47917,"midi":76,"velocity":101,"channel":0,"program":22},{"beat":81.52083,"duration":0.20833,"midi":52,"velocity":67,"channel":4,"program":28},{"beat":81.52083,"duration":0.20833,"midi":54,"velocity":77,"channel":4,"program":28},{"beat":81.52083,"duration":0.95833,"midi":54,"velocity":90,"channel":12,"program":25},{"beat":81.54167,"duration":0.1875,"midi":57,"velocity":70,"channel":4,"program":28},{"beat":81.54167,"duration":0.9375,"midi":57,"velocity":87,"channel":12,"program":25},{"beat":81.75,"duration":0.14583,"midi":62,"velocity":87,"channel":13,"program":81},{"beat":81.75,"duration":0.14583,"midi":66,"velocity":87,"channel":13,"program":81},{"beat":82.0,"duration":0.22917,"midi":50,"velocity":72,"channel":4,"program":28},{"beat":82.0,"duration":0.47917,"midi":54,"velocity":88,"channel":1,"program":52},{"beat":82.0,"duration":0.14583,"midi":62,"velocity":81,"channel":13,"program":81},{"beat":82.0,"duration":0.14583,"midi":66,"velocity":81,"channel":13,"program":81},{"beat":82.0,"duration":0.47917,"midi":78,"velocity":101,"channel":0,"program":22},{"beat":82.02083,"duration":0.20833,"midi":54,"velocity":80,"channel":4,"program":28},{"beat":82.04167,"duration":0.1875,"midi":57,"velocity":68,"channel":4,"program":28},{"beat":82.5,"duration":0.22917,"midi":50,"velocity":67,"channel":4,"program":28},{"beat":82.5,"duration":0.97917,"midi":50,"velocity":89,"channel":12,"program":25},{"beat":82.5,"duration":0.47917,"midi":52,"velocity":90,"channel":1,"program":52},{"beat":82.5,"duration":0.14583,"midi":62,"velocity":76,"channel":13,"program":81},{"beat":82.5,"duration":0.14583,"midi":66,"velocity":76,"channel":13,"program":81},{"beat":82.5,"duration":0.47917,"midi":76,"velocity":102,"channel":0,"program":22},{"beat":82.52083,"duration":0.20833,"midi":54,"velocity":79,"channel":4,"program":28},{"beat":82.52083,"duration":0.95833,"midi":54,"velocity":89,"channel":12,"program":25},{"beat":82.52083,"duration":0.95833,"midi":62,"velocity":76,"channel":12,"program":25},{"beat":82.54167,"duration":0.1875,"midi":57,"velocity":69,"channel":4,"program":28},{"beat":82.54167,"duration":0.9375,"midi":57,"velocity":90,"channel":12,"program":25},{"beat":82.75,"duration":0.14583,"midi":62,"velocity":70,"channel":13,"program":81},{"beat":82.75,"duration":0.14583,"midi":66,"velocity":70,"channel":13,"program":81},{"beat":83.0,"duration":0.22917,"midi":50,"velocity":67,"channel":4,"program":28},{"beat":83.0,"duration":0.14583,"midi":62,"velocity":85,"channel":13,"program":81},{"beat":83.0,"duration":0.14583,"midi":66,"velocity":85,"channel":13,"program":81},{"beat":83.02083,"duration":0.20833,"midi":54,"velocity":77,"channel":4,"program":28},{"beat":83.04167,"duration":0.1875,"midi":57,"velocity":73,"channel":4,"program":28},{"beat":83.5,"duration":0.22917,"midi":50,"velocity":71,"channel":4,"program":28},{"beat":83.5,"duration":0.47917,"midi":50,"velocity":90,"channel":12,"program":25},{"beat":83.5,"duration":0.39583,"midi":52,"velocity":89,"channel":1,"program":52},{"beat":83.5,"duration":0.14583,"midi":62,"velocity":76,"channel":13,"program":81},{"beat":83.5,"duration":0.97917,"midi":66,"velocity":100,"channel":7,"program":51},{"beat":83.5,"duration":0.14583,"midi":66,"velocity":76,"channel":13,"program":81},{"beat":83.5,"duration":0.39583,"midi":71,"velocity":101,"channel":0,"program":22},{"beat":83.52083,"duration":0.20833,"midi":54,"velocity":78,"channel":4,"program":28},{"beat":83.52083,"duration":0.45833,"midi":54,"velocity":88,"channel":12,"program":25},{"beat":83.54167,"duration":0.1875,"midi":57,"velocity":69,"channel":4,"program":28},{"beat":83.54167,"duration":0.4375,"midi":57,"velocity":91,"channel":12,"program":25},{"beat":83.75,"duration":0.14583,"midi":62,"velocity":76,"channel":13,"program":81},{"beat":83.75,"duration":0.14583,"midi":66,"velocity":76,"channel":13,"program":81},{"beat":84.0,"duration":0.22917,"midi":50,"velocity":72,"channel":4,"program":28},{"beat":84.0,"duration":0.47917,"midi":50,"velocity":84,"channel":12,"program":25},{"beat":84.0,"duration":0.47917,"midi":55,"velocity":89,"channel":3,"program":27},{"beat":84.0,"duration":0.47917,"midi":55,"velocity":67,"channel":6,"program":29},{"beat":84.0,"duration":0.47917,"midi":57,"velocity":87,"channel":1,"program":52},{"beat":84.0,"duration":0.14583,"midi":62,"velocity":70,"channel":13,"program":81},{"beat":84.0,"duration":0.14583,"midi":66,"velocity":70,"channel":13,"program":81},{"beat":84.0,"duration":0.47917,"midi":81,"velocity":101,"channel":0,"program":22},{"beat":84.02083,"duration":0.20833,"midi":54,"velocity":80,"channel":4,"program":28},{"beat":84.02083,"duration":0.45833,"midi":54,"velocity":82,"channel":12,"program":25},{"beat":84.04167,"duration":0.1875,"midi":57,"velocity":73,"channel":4,"program":28},{"beat":84.04167,"duration":0.4375,"midi":57,"velocity":84,"channel":12,"program":25},{"beat":84.5,"duration":0.22917,"midi":50,"velocity":71,"channel":4,"program":28},{"beat":84.5,"duration":0.47917,"midi":57,"velocity":89,"channel":1,"program":52},{"beat":84.5,"duration":1.47917,"midi":57,"velocity":90,"channel":3,"program":27},{"beat":84.5,"duration":1.47917,"midi":57,"velocity":66,"channel":6,"program":29},{"beat":84.5,"duration":0.97917,"midi":62,"velocity":80,"channel":3,"program":27},{"beat":84.5,"duration":0.97917,"midi":62,"velocity":86,"channel":7,"program":51},{"beat":84.5,"duration":0.14583,"midi":62,"velocity":75,"channel":13,"program":81},{"beat":84.5,"duration":0.14583,"midi":66,"velocity":75,"channel":13,"program":81},{"beat":84.5,"duration":0.47917,"midi":81,"velocity":101,"channel":0,"program":22},{"beat":84.52083,"duration":0.20833,"midi":54,"velocity":76,"channel":4,"program":28},{"beat":84.52083,"duration":0.95833,"midi":62,"velocity":70,"channel":6,"program":29},{"beat":84.54167,"duration":0.1875,"midi":57,"velocity":68,"channel":4,"program":28},{"beat":84.75,"duration":0.14583,"midi":62,"velocity":76,"channel":13,"program":81},{"beat":84.75,"duration":0.14583,"midi":66,"velocity":76,"channel":13,"program":81},{"beat":85.0,"duration":0.22917,"midi":50,"velocity":70,"channel":4,"program":28},{"beat":85.0,"duration":0.47917,"midi":50,"velocity":101,"channel":12,"program":25},{"beat":85.0,"duration":0.47917,"midi":59,"velocity":90,"channel":1,"program":52},{"beat":85.0,"duration":0.14583,"midi":62,"velocity":88,"channel":13,"program":81},{"beat":85.0,"duration":0.14583,"midi":66,"velocity":88,"channel":13,"program":81},{"beat":85.0,"duration":0.47917,"midi":83,"velocity":101,"channel":0,"program":22},{"beat":85.02083,"duration":0.20833,"midi":54,"velocity":74,"channel":4,"program":28},{"beat":85.02083,"duration":0.45833,"midi":54,"velocity":101,"channel":12,"program":25},{"beat":85.04167,"duration":0.1875,"midi":57,"velocity":72,"channel":4,"program":28},{"beat":85.04167,"duration":0.4375,"midi":57,"velocity":102,"channel":12,"program":25},{"beat":85.5,"duration":0.22917,"midi":50,"velocity":67,"channel":4,"program":28},{"beat":85.5,"duration":0.47917,"midi":50,"velocity":92,"channel":12,"program":25},{"beat":85.5,"duration":0.47917,"midi":57,"velocity":90,"channel":1,"program":52},{"beat":85.5,"duration":0.97917,"midi":57,"velocity":84,"channel":7,"program":51},{"beat":85.5,"duration":0.14583,"midi":62,"velocity":78,"channel":13,"program":81},{"beat":85.5,"duration":0.97917,"midi":64,"velocity":89,"channel":3,"program":27},{"beat":85.5,"duration":0.14583,"midi":66,"velocity":78,"channel":13,"program":81},{"beat":85.5,"duration":0.47917,"midi":81,"velocity":100,"channel":0,"program":22},{"beat":85.52083,"duration":0.20833,"midi":54,"velocity":76,"channel":4,"program":28},{"beat":85.52083,"duration":0.45833,"midi":54,"velocity":89,"channel":12,"program":25},{"beat":85.52083,"duration":0.95833,"midi":64,"velocity":69,"channel":6,"program":29},{"beat":85.54167,"duration":0.1875,"midi":57,"velocity":73,"channel":4,"program":28},{"beat":85.54167,"duration":0.4375,"midi":57,"velocity":90,"channel":12,"program":25},{"beat":85.75,"duration":0.14583,"midi":62,"velocity":86,"channel":13,"program":81},{"beat":85.75,"duration":0.14583,"midi":66,"velocity":86,"channel":13,"program":81},{"beat":86.0,"duration":0.22917,"midi":50,"velocity":72,"channel":4,"program":28},{"beat":86.0,"duration":0.47917,"midi":50,"velocity":98,"channel":12,"program":25},{"beat":86.0,"duration":0.47917,"midi":57,"velocity":84,"channel":3,"program":27},{"beat":86.0,"duration":0.47917,"midi":57,"velocity":70,"channel":6,"program":29},{"beat":86.0,"duration":0.14583,"midi":62,"velocity":83,"channel":13,"program":81},{"beat":86.0,"duration":0.14583,"midi":66,"velocity":83,"channel":13,"program":81},{"beat":86.02083,"duration":0.20833,"midi":54,"velocity":76,"channel":4,"program":28},{"beat":86.02083,"duration":0.45833,"midi":54,"velocity":94,"channel":12,"program":25},{"beat":86.04167,"duration":0.1875,"midi":57,"velocity":71,"channel":4,"program":28},{"beat":86.04167,"duration":0.4375,"midi":57,"velocity":96,"channel":12,"program":25},{"beat":86.5,"duration":0.22917,"midi":50,"velocity":71,"channel":4,"program":28},{"beat":86.5,"duration":0.97917,"midi":50,"velocity":95,"channel":12,"program":25},{"beat":86.5,"duration":0.47917,"midi":54,"velocity":87,"channel":1,"program":52},{"beat":86.5,"duration":1.47917,"midi":55,"velocity":87,"channel":3,"program":27},{"beat":86.5,"duration":0.47917,"midi":57,"velocity":70,"channel":6,"program":29},{"beat":86.5,"duration":1.47917,"midi":62,"velocity":84,"channel":3,"program":27},{"beat":86.5,"duration":1.47917,"midi":62,"velocity":90,"channel":7,"program":51},{"beat":86.5,"duration":0.14583,"midi":62,"velocity":82,"channel":13,"program":81},{"beat":86.5,"duration":0.14583,"midi":66,"velocity":82,"channel":13,"program":81},{"beat":86.5,"duration":0.47917,"midi":78,"velocity":101,"channel":0,"program":22},{"beat":86.52083,"duration":0.20833,"midi":54,"velocity":74,"channel":4,"program":28},{"beat":86.52083,"duration":0.95833,"midi":54,"velocity":99,"channel":12,"program":25},{"beat":86.52083,"duration":0.95833,"midi":62,"velocity":70,"channel":6,"program":29},{"beat":86.54167,"duration":0.1875,"midi":57,"velocity":70,"channel":4,"program":28},{"beat":86.54167,"duration":0.9375,"midi":57,"velocity":95,"channel":12,"program":25},{"beat":86.75,"duration":0.14583,"midi":62,"velocity":91,"channel":13,"program":81},{"beat":86.75,"duration":0.14583,"midi":66,"velocity":91,"channel":13,"program":81},{"beat":87.0,"duration":0.22917,"midi":50,"velocity":69,"channel":4,"program":28},{"beat":87.0,"duration":0.47917,"midi":54,"velocity":90,"channel":1,"program":52},{"beat":87.0,"duration":0.97917,"midi":54,"velocity":68,"channel":6,"program":29},{"beat":87.0,"duration":0.97917,"midi":57,"velocity":69,"channel":6,"program":29},{"beat":87.0,"duration":0.14583,"midi":62,"velocity":91,"channel":13,"program":81},{"beat":87.0,"duration":0.14583,"midi":66,"velocity":91,"channel":13,"program":81},{"beat":87.0,"duration":0.47917,"midi":78,"velocity":102,"channel":0,"program":22},{"beat":87.02083,"duration":0.20833,"midi":54,"velocity":74,"channel":4,"program":28},{"beat":87.04167,"duration":0.1875,"midi":57,"velocity":72,"channel":4,"program":28},{"beat":87.5,"duration":0.22917,"midi":50,"velocity":60,"channel":4,"program":28},{"beat":87.5,"duration":0.47917,"midi":50,"velocity":92,"channel":12,"program":25},{"beat":87.5,"duration":0.47917,"midi":52,"velocity":88,"channel":1,"program":52},{"beat":87.5,"duration":0.47917,"midi":59,"velocity":80,"channel":3,"program":27},{"beat":87.5,"duration":0.47917,"midi":59,"velocity":70,"channel":6,"program":29},{"beat":87.5,"duration":0.14583,"midi":62,"velocity":80,"channel":13,"program":81},{"beat":87.5,"duration":0.14583,"midi":66,"velocity":80,"channel":13,"program":81},{"beat":87.5,"duration":0.47917,"midi":76,"velocity":102,"channel":0,"program":22},{"beat":87.52083,"duration":0.20833,"midi":54,"velocity":72,"channel":4,"program":28},{"beat":87.52083,"duration":0.45833,"midi":54,"velocity":93,"channel":12,"program":25},{"beat":87.54167,"duration":0.1875,"midi":57,"velocity":64,"channel":4,"program":28},{"beat":87.75,"duration":0.14583,"midi":62,"velocity":79,"channel":13,"program":81},{"beat":87.75,"duration":0.14583,"midi":66,"velocity":79,"channel":13,"program":81},{"beat":88.0,"duration":6.0,"midi":43,"velocity":88,"channel":3,"program":27},{"beat":88.0,"duration":6.0,"midi":43,"velocity":66,"channel":6,"program":29},{"beat":88.0,"duration":6.0,"midi":43,"velocity":75,"channel":14,"program":26},{"beat":88.0,"duration":0.22917,"midi":50,"velocity":71,"channel":4,"program":28},{"beat":88.0,"duration":6.0,"midi":50,"velocity":78,"channel":11,"program":80},{"beat":88.0,"duration":0.47917,"midi":50,"velocity":95,"channel":12,"program":25},{"beat":88.0,"duration":0.97917,"midi":54,"velocity":88,"channel":1,"program":52},{"beat":88.0,"duration":3.97917,"midi":55,"velocity":80,"channel":3,"program":27},{"beat":88.0,"duration":6.0,"midi":55,"velocity":78,"channel":11,"program":80},{"beat":88.0,"duration":2.47917,"midi":62,"velocity":70,"channel":7,"program":51},{"beat":88.0,"duration":0.14583,"midi":62,"velocity":87,"channel":13,"program":81},{"beat":88.0,"duration":0.14583,"midi":67,"velocity":87,"channel":13,"program":81},{"beat":88.0,"duration":0.97917,"midi":78,"velocity":100,"channel":0,"program":22},{"beat":88.02083,"duration":0.20833,"midi":55,"velocity":78,"channel":4,"program":28},{"beat":88.02083,"duration":3.45833,"midi":55,"velocity":70,"channel":6,"program":29},{"beat":88.02083,"duration":0.45833,"midi":55,"velocity":98,"channel":12,"program":25},{"beat":88.04167,"duration":3.95833,"midi":57,"velocity":88,"channel":3,"program":27},{"beat":88.04167,"duration":1.9375,"midi":57,"velocity":64,"channel":6,"program":29},{"beat":88.04167,"duration":0.1875,"midi":59,"velocity":68,"channel":4,"program":28},{"beat":88.5,"duration":3.47917,"midi":50,"velocity":70,"channel":3,"program":27},{"beat":88.5,"duration":0.22917,"midi":50,"velocity":59,"channel":4,"program":28},{"beat":88.5,"duration":0.14583,"midi":62,"velocity":74,"channel":13,"program":81},{"beat":88.5,"duration":0.14583,"midi":67,"velocity":74,"channel":13,"program":81},{"beat":88.52083,"duration":0.20833,"midi":55,"velocity":63,"channel":4,"program":28},{"beat":88.54167,"duration":0.1875,"midi":59,"velocity":54,"channel":4,"program":28},{"beat":88.75,"duration":0.14583,"midi":62,"velocity":76,"channel":13,"program":81},{"beat":88.75,"duration":0.14583,"midi":67,"velocity":76,"channel":13,"program":81},{"beat":89.0,"duration":0.22917,"midi":50,"velocity":73,"channel":4,"program":28},{"beat":89.0,"duration":1.47917,"midi":50,"velocity":64,"channel":6,"program":29},{"beat":89.0,"duration":2.47917,"midi":50,"velocity":95,"channel":12,"program":25},{"beat":89.0,"duration":0.14583,"midi":62,"velocity":89,"channel":13,"program":81},{"beat":89.0,"duration":0.14583,"midi":67,"velocity":89,"channel":13,"program":81},{"beat":89.02083,"duration":0.20833,"midi":55,"velocity":81,"channel":4,"program":28},{"beat":89.02083,"duration":2.45833,"midi":55,"velocity":92,"channel":12,"program":25},{"beat":89.04167,"duration":2.4375,"midi":57,"velocity":91,"channel":12,"program":25},{"beat":89.04167,"duration":0.1875,"midi":59,"velocity":68,"channel":4,"program":28},{"beat":89.5,"duration":0.22917,"midi":50,"velocity":62,"channel":4,"program":28},{"beat":89.5,"duration":0.39583,"midi":52,"velocity":90,"channel":1,"program":52},{"beat":89.5,"duration":0.14583,"midi":62,"velocity":76,"channel":13,"program":81},{"beat":89.5,"duration":0.14583,"midi":67,"velocity":76,"channel":13,"program":81},{"beat":89.5,"duration":0.39583,"midi":76,"velocity":101,"channel":0,"program":22},{"beat":89.52083,"duration":0.20833,"midi":55,"velocity":67,"channel":4,"program":28},{"beat":89.54167,"duration":0.1875,"midi":59,"velocity":58,"channel":4,"program":28},{"beat":89.75,"duration":0.14583,"midi":62,"velocity":87,"channel":13,"program":81},{"beat":89.75,"duration":0.14583,"midi":67,"velocity":87,"channel":13,"program":81},{"beat":90.0,"duration":0.22917,"midi":50,"velocity":66,"channel":4,"program":28},{"beat":90.0,"duration":0.97917,"midi":54,"velocity":88,"channel":1,"program":52},{"beat":90.0,"duration":1.22917,"midi":57,"velocity":68,"channel":6,"program":29},{"beat":90.0,"duration":1.97917,"midi":62,"velocity":60,"channel":3,"program":27},{"beat":90.0,"duration":0.47917,"midi":62,"velocity":65,"channel":6,"program":29},{"beat":90.0,"duration":0.14583,"midi":62,"velocity":81,"channel":13,"program":81},{"beat":90.0,"duration":0.14583,"midi":67,"velocity":81,"channel":13,"program":81},{"beat":90.0,"duration":0.97917,"midi":78,"velocity":101,"channel":0,"program":22},{"beat":90.02083,"duration":0.20833,"midi":55,"velocity":71,"channel":4,"program":28},{"beat":90.04167,"duration":0.1875,"midi":59,"velocity":61,"channel":4,"program":28},{"beat":90.5,"duration":0.22917,"midi":50,"velocity":64,"channel":4,"program":28},{"beat":90.5,"duration":0.97917,"midi":50,"velocity":65,"channel":6,"program":29},{"beat":90.5,"duration":0.14583,"midi":62,"velocity":76,"channel":13,"program":81},{"beat":90.5,"duration":0.97917,"midi":69,"velocity":86,"channel":7,"program":51},{"beat":90.5,"duration":0.14583,"midi":69,"velocity":76,"channel":13,"program":81},{"beat":90.52083,"duration":0.20833,"midi":55,"velocity":64,"channel":4,"program":28},{"beat":90.54167,"duration":0.1875,"midi":59,"velocity":57,"channel":4,"program":28},{"beat":90.75,"duration":0.14583,"midi":62,"velocity":70,"channel":13,"program":81},{"beat":90.75,"duration":0.14583,"midi":69,"velocity":70,"channel":13,"program":81},{"beat":91.0,"duration":0.22917,"midi":50,"velocity":72,"channel":4,"program":28},{"beat":91.0,"duration":0.14583,"midi":62,"velocity":85,"channel":13,"program":81},{"beat":91.0,"duration":0.14583,"midi":69,"velocity":85,"channel":13,"program":81},{"beat":91.02083,"duration":0.20833,"midi":55,"velocity":73,"channel":4,"program":28},{"beat":91.04167,"duration":0.1875,"midi":59,"velocity":64,"channel":4,"program":28},{"beat":91.5,"duration":0.27083,"midi":50,"velocity":88,"channel":1,"program":52},{"beat":91.5,"duration":0.22917,"midi":50,"velocity":59,"channel":4,"program":28},{"beat":91.5,"duration":0.47917,"midi":50,"velocity":68,"channel":6,"program":29},{"beat":91.5,"duration":0.47917,"midi":50,"velocity":86,"channel":12,"program":25},{"beat":91.5,"duration":1.97917,"midi":55,"velocity":66,"channel":6,"program":29},{"beat":91.5,"duration":1.97917,"midi":59,"velocity":70,"channel":6,"program":29},{"beat":91.5,"duration":0.14583,"midi":62,"velocity":76,"channel":13,"program":81},{"beat":91.5,"duration":4.47917,"midi":67,"velocity":87,"channel":7,"program":51},{"beat":91.5,"duration":0.14583,"midi":67,"velocity":76,"channel":13,"program":81},{"beat":91.5,"duration":0.27083,"midi":74,"velocity":102,"channel":0,"program":22},{"beat":91.52083,"duration":0.20833,"midi":55,"velocity":68,"channel":4,"program":28},{"beat":91.52083,"duration":0.45833,"midi":55,"velocity":83,"channel":12,"program":25},{"beat":91.52083,"duration":0.45833,"midi":67,"velocity":87,"channel":12,"program":25},{"beat":91.54167,"duration":0.1875,"midi":59,"velocity":58,"channel":4,"program":28},{"beat":91.54167,"duration":0.4375,"midi":59,"velocity":87,"channel":12,"program":25},{"beat":91.75,"duration":0.14583,"midi":62,"velocity":76,"channel":13,"program":81},{"beat":91.75,"duration":0.14583,"midi":67,"velocity":76,"channel":13,"program":81},{"beat":92.0,"duration":0.22917,"midi":50,"velocity":70,"channel":4,"program":28},{"beat":92.0,"duration":0.47917,"midi":50,"velocity":90,"channel":12,"program":25},{"beat":92.0,"duration":1.47917,"midi":55,"velocity":89,"channel":3,"program":27},{"beat":92.0,"duration":0.64583,"midi":62,"velocity":90,"channel":1,"program":52},{"beat":92.0,"duration":0.14583,"midi":62,"velocity":70,"channel":13,"program":81},{"beat":92.0,"duration":0.14583,"midi":67,"velocity":70,"channel":13,"program":81},{"beat":92.0,"duration":0.64583,"midi":86,"velocity":102,"channel":0,"program":22},{"beat":92.02083,"duration":0.20833,"midi":55,"velocity":79,"channel":4,"program":28},{"beat":92.02083,"duration":0.45833,"midi":55,"velocity":91,"channel":12,"program":25},{"beat":92.02083,"duration":0.95833,"midi":67,"velocity":88,"channel":12,"program":25},{"beat":92.04167,"duration":0.1875,"midi":59,"velocity":70,"channel":4,"program":28},{"beat":92.04167,"duration":0.4375,"midi":59,"velocity":97,"channel":12,"program":25},{"beat":92.5,"duration":1.97917,"midi":50,"velocity":85,"channel":3,"program":27},{"beat":92.5,"duration":0.22917,"midi":50,"velocity":63,"channel":4,"program":28},{"beat":92.5,"duration":1.97917,"midi":50,"velocity":70,"channel":6,"program":29},{"beat":92.5,"duration":0.97917,"midi":50,"velocity":85,"channel":12,"program":25},{"beat":92.5,"duration":0.47917,"midi":59,"velocity":72,"channel":11,"program":80},{"beat":92.5,"duration":0.14583,"midi":62,"velocity":75,"channel":13,"program":81},{"beat":92.5,"duration":0.14583,"midi":67,"velocity":75,"channel":13,"program":81},{"beat":92.52083,"duration":0.20833,"midi":55,"velocity":65,"channel":4,"program":28},{"beat":92.52083,"duration":0.95833,"midi":55,"velocity":84,"channel":12,"program":25},{"beat":92.54167,"duration":0.1875,"midi":59,"velocity":56,"channel":4,"program":28},{"beat":92.54167,"duration":0.9375,"midi":59,"velocity":87,"channel":12,"program":25},{"beat":92.75,"duration":0.14583,"midi":62,"velocity":76,"channel":13,"program":81},{"beat":92.75,"duration":0.14583,"midi":67,"velocity":76,"channel":13,"program":81},{"beat":93.0,"duration":0.22917,"midi":50,"velocity":71,"channel":4,"program":28},{"beat":93.0,"duration":0.60417,"midi":61,"velocity":90,"channel":1,"program":52},{"beat":93.0,"duration":0.14583,"midi":62,"velocity":88,"channel":13,"program":81},{"beat":93.0,"duration":0.14583,"midi":67,"velocity":88,"channel":13,"program":81},{"beat":93.0,"duration":0.60417,"midi":85,"velocity":101,"channel":0,"program":22},{"beat":93.02083,"duration":0.20833,"midi":55,"velocity":79,"channel":4,"program":28},{"beat":93.04167,"duration":0.1875,"midi":59,"velocity":67,"channel":4,"program":28},{"beat":93.5,"duration":0.22917,"midi":50,"velocity":64,"channel":4,"program":28},{"beat":93.5,"duration":0.97917,"midi":50,"velocity":89,"channel":12,"program":25},{"beat":93.5,"duration":1.47917,"midi":57,"velocity":70,"channel":3,"program":27},{"beat":93.5,"duration":0.97917,"midi":57,"velocity":67,"channel":6,"program":29},{"beat":93.5,"duration":2.47917,"midi":59,"velocity":68,"channel":11,"program":80},{"beat":93.5,"duration":0.14583,"midi":62,"velocity":78,"channel":13,"program":81},{"beat":93.5,"duration":0.14583,"midi":67,"velocity":78,"channel":13,"program":81},{"beat":93.52083,"duration":0.20833,"midi":55,"velocity":71,"channel":4,"program":28},{"beat":93.52083,"duration":0.95833,"midi":55,"velocity":87,"channel":12,"program":25},{"beat":93.52083,"duration":2.45833,"midi":59,"velocity":90,"channel":3,"program":27},{"beat":93.52083,"duration":2.45833,"midi":59,"velocity":70,"channel":6,"program":29},{"beat":93.54167,"duration":0.1875,"midi":59,"velocity":58,"channel":4,"program":28},{"beat":93.54167,"duration":0.9375,"midi":59,"velocity":87,"channel":12,"program":25},{"beat":93.75,"duration":0.14583,"midi":62,"velocity":86,"channel":13,"program":81},{"beat":93.75,"duration":0.14583,"midi":67,"velocity":86,"channel":13,"program":81},{"beat":94.0,"duration":0.22917,"midi":50,"velocity":68,"channel":4,"program":28},{"beat":94.0,"duration":0.97917,"midi":57,"velocity":86,"channel":1,"program":52},{"beat":94.0,"duration":0.14583,"midi":62,"velocity":83,"channel":13,"program":81},{"beat":94.0,"duration":0.14583,"midi":67,"velocity":83,"channel":13,"program":81},{"beat":94.0,"duration":0.97917,"midi":81,"velocity":102,"channel":0,"program":22},{"beat":94.02083,"duration":0.20833,"midi":55,"velocity":72,"channel":4,"program":28},{"beat":94.04167,"duration":0.1875,"midi":59,"velocity":65,"channel":4,"program":28},{"beat":94.5,"duration":0.47917,"midi":50,"velocity":90,"channel":3,"program":27},{"beat":94.5,"duration":0.22917,"midi":50,"velocity":65,"channel":4,"program":28},{"beat":94.5,"duration":0.47917,"midi":50,"velocity":70,"channel":6,"program":29},{"beat":94.5,"duration":0.47917,"midi":50,"velocity":92,"channel":12,"program":25},{"beat":94.5,"duration":0.47917,"midi":55,"velocity":80,"channel":3,"program":27},{"beat":94.5,"duration":0.47917,"midi":57,"velocity":70,"channel":6,"program":29},{"beat":94.5,"duration":0.14583,"midi":62,"velocity":82,"channel":13,"program":81},{"beat":94.5,"duration":0.14583,"midi":67,"velocity":82,"channel":13,"program":81},{"beat":94.5,"duration":1.47917,"midi":74,"velocity":70,"channel":7,"program":51},{"beat":94.52083,"duration":0.20833,"midi":55,"velocity":75,"channel":4,"program":28},{"beat":94.52083,"duration":0.45833,"midi":55,"velocity":89,"channel":12,"program":25},{"beat":94.54167,"duration":0.1875,"midi":59,"velocity":65,"channel":4,"program":28},{"beat":94.54167,"duration":0.4375,"midi":59,"velocity":88,"channel":12,"program":25},{"beat":94.75,"duration":0.14583,"midi":62,"velocity":91,"channel":13,"program":81},{"beat":94.75,"duration":0.14583,"midi":67,"velocity":91,"channel":13,"program":81},{"beat":95.0,"duration":0.97917,"midi":50,"velocity":89,"channel":3,"program":27},{"beat":95.0,"duration":0.22917,"midi":50,"velocity":78,"channel":4,"program":28},{"beat":95.0,"duration":0.97917,"midi":50,"velocity":64,"channel":6,"program":29},{"beat":95.0,"duration":0.97917,"midi":50,"velocity":89,"channel":12,"program":25},{"beat":95.0,"duration":0.47917,"midi":54,"velocity":90,"channel":1,"program":52},{"beat":95.0,"duration":0.97917,"midi":55,"velocity":84,"channel":3,"program":27},{"beat":95.0,"duration":0.97917,"midi":57,"velocity":66,"channel":6,"program":29},{"beat":95.0,"duration":0.14583,"midi":62,"velocity":91,"channel":13,"program":81},{"beat":95.0,"duration":0.14583,"midi":67,"velocity":91,"channel":13,"program":81},{"beat":95.0,"duration":0.47917,"midi":78,"velocity":102,"channel":0,"program":22},{"beat":95.02083,"duration":0.20833,"midi":55,"velocity":82,"channel":4,"program":28},{"beat":95.02083,"duration":0.95833,"midi":55,"velocity":94,"channel":12,"program":25},{"beat":95.04167,"duration":0.1875,"midi":59,"velocity":69,"channel":4,"program":28},{"beat":95.04167,"duration":0.9375,"midi":59,"velocity":91,"channel":12,"program":25},{"beat":95.5,"duration":0.22917,"midi":50,"velocity":63,"channel":4,"program":28},{"beat":95.5,"duration":1.47917,"midi":52,"velocity":87,"channel":1,"program":52},{"beat":95.5,"duration":0.14583,"midi":62,"velocity":80,"channel":13,"program":81},{"beat":95.5,"duration":0.14583,"midi":67,"velocity":80,"channel":13,"program":81},{"beat":95.5,"duration":1.47917,"midi":76,"velocity":102,"channel":0,"program":22},{"beat":95.52083,"duration":0.20833,"midi":55,"velocity":68,"channel":4,"program":28},{"beat":95.54167,"duration":0.1875,"midi":59,"velocity":62,"channel":4,"program":28},{"beat":95.75,"duration":0.14583,"midi":62,"velocity":79,"channel":13,"program":81},{"beat":95.75,"duration":0.14583,"midi":67,"velocity":79,"channel":13,"program":81},{"beat":96.0,"duration":0.97917,"midi":45,"velocity":82,"channel":3,"program":27},{"beat":96.0,"duration":0.97917,"midi":45,"velocity":68,"channel":6,"program":29},{"beat":96.0,"duration":3.97917,"midi":45,"velocity":70,"channel":14,"program":26},{"beat":96.0,"duration":1.47917,"midi":52,"velocity":78,"channel":3,"program":27},{"beat":96.0,"duration":0.22917,"midi":52,"velocity":74,"channel":4,"program":28},{"beat":96.0,"duration":3.97917,"midi":52,"velocity":69,"channel":6,"program":29},{"beat":96.0,"duration":3.97917,"midi":52,"velocity":77,"channel":11,"program":80},{"beat":96.0,"duration":2.47917,"midi":52,"velocity":97,"channel":12,"program":25},{"beat":96.0,"duration":3.97917,"midi":57,"velocity":90,"channel":11,"program":80},{"beat":96.0,"duration":3.47917,"midi":64,"velocity":80,"channel":7,"program":51},{"beat":96.0,"duration":0.14583,"midi":64,"velocity":87,"channel":13,"program":81},{"beat":96.0,"duration":3.97917,"midi":69,"velocity":70,"channel":11,"program":80},{"beat":96.0,"duration":0.14583,"midi":69,"velocity":87,"channel":13,"program":81},{"beat":96.0,"duration":3.47917,"midi":76,"velocity":100,"channel":7,"program":51},{"beat":96.02083,"duration":1.45833,"midi":57,"velocity":88,"channel":3,"program":27},{"beat":96.02083,"duration":0.20833,"midi":57,"velocity":79,"channel":4,"program":28},{"beat":96.02083,"duration":0.95833,"midi":57,"velocity":66,"channel":6,"program":29},{"beat":96.02083,"duration":2.45833,"midi":57,"velocity":97,"channel":12,"program":25},{"beat":96.02083,"duration":1.95833,"midi":64,"velocity":93,"channel":12,"program":25},{"beat":96.04167,"duration":0.9375,"midi":59,"velocity":70,"channel":6,"program":29},{"beat":96.04167,"duration":0.1875,"midi":61,"velocity":69,"channel":4,"program":28},{"beat":96.04167,"duration":2.4375,"midi":61,"velocity":99,"channel":12,"program":25},{"beat":96.5,"duration":0.22917,"midi":52,"velocity":65,"channel":4,"program":28},{"beat":96.5,"duration":0.14583,"midi":64,"velocity":74,"channel":13,"program":81},{"beat":96.5,"duration":0.14583,"midi":69,"velocity":74,"channel":13,"program":81},{"beat":96.52083,"duration":0.20833,"midi":57,"velocity":65,"channel":4,"program":28},{"beat":96.54167,"duration":0.1875,"midi":61,"velocity":53,"channel":4,"program":28},{"beat":97.0,"duration":2.97917,"midi":45,"velocity":77,"channel":3,"program":27},{"beat":97.0,"duration":0.47917,"midi":45,"velocity":68,"channel":6,"program":29},{"beat":97.0,"duration":0.22917,"midi":52,"velocity":77,"channel":4,"program":28},{"beat":97.0,"duration":0.47917,"midi":61,"velocity":87,"channel":3,"program":27},{"beat":97.0,"duration":0.14583,"midi":64,"velocity":89,"channel":13,"program":81},{"beat":97.0,"duration":0.14583,"midi":69,"velocity":89,"channel":13,"program":81},{"beat":97.02083,"duration":0.20833,"midi":57,"velocity":79,"channel":4,"program":28},{"beat":97.02083,"duration":0.45833,"midi":57,"velocity":65,"channel":6,"program":29},{"beat":97.04167,"duration":0.1875,"midi":61,"velocity":68,"channel":4,"program":28},{"beat":97.04167,"duration":0.4375,"midi":61,"velocity":64,"channel":6,"program":29},{"beat":97.5,"duration":1.97917,"midi":52,"velocity":80,"channel":3,"program":27},{"beat":97.5,"duration":0.22917,"midi":52,"velocity":68,"channel":4,"program":28},{"beat":97.5,"duration":1.47917,"midi":57,"velocity":89,"channel":3,"program":27},{"beat":97.5,"duration":1.47917,"midi":59,"velocity":86,"channel":3,"program":27},{"beat":97.5,"duration":0.14583,"midi":64,"velocity":76,"channel":13,"program":81},{"beat":97.5,"duration":0.14583,"midi":69,"velocity":76,"channel":13,"program":81},{"beat":97.5,"duration":0.35417,"midi":74,"velocity":100,"channel":0,"program":22},{"beat":97.52083,"duration":0.20833,"midi":57,"velocity":66,"channel":4,"program":28},{"beat":97.52083,"duration":0.45833,"midi":57,"velocity":64,"channel":6,"program":29},{"beat":97.52083,"duration":2.45833,"midi":64,"velocity":70,"channel":3,"program":27},{"beat":97.54167,"duration":0.9375,"midi":59,"velocity":64,"channel":6,"program":29},{"beat":97.54167,"duration":0.1875,"midi":61,"velocity":56,"channel":4,"program":28},{"beat":97.75,"duration":0.14583,"midi":64,"velocity":87,"channel":13,"program":81},{"beat":97.75,"duration":0.14583,"midi":69,"velocity":87,"channel":13,"program":81},{"beat":98.0,"duration":1.47917,"midi":45,"velocity":50,"channel":2,"program":33},{"beat":98.0,"duration":0.47917,"midi":45,"velocity":69,"channel":6,"program":29},{"beat":98.0,"duration":0.22917,"midi":52,"velocity":72,"channel":4,"program":28},{"beat":98.0,"duration":0.14583,"midi":69,"velocity":81,"channel":13,"program":81},{"beat":98.0,"duration":0.14583,"midi":73,"velocity":81,"channel":13,"program":81},{"beat":98.0,"duration":0.39583,"midi":76,"velocity":99,"channel":0,"program":22},{"beat":98.02083,"duration":0.20833,"midi":57,"velocity":71,"channel":4,"program":28},{"beat":98.02083,"duration":0.45833,"midi":57,"velocity":64,"channel":6,"program":29},{"beat":98.04167,"duration":0.1875,"midi":61,"velocity":63,"channel":4,"program":28},{"beat":98.5,"duration":1.47917,"midi":45,"velocity":68,"channel":6,"program":29},{"beat":98.5,"duration":0.22917,"midi":52,"velocity":66,"channel":4,"program":28},{"beat":98.5,"duration":0.47917,"midi":52,"velocity":87,"channel":12,"program":25},{"beat":98.5,"duration":1.47917,"midi":61,"velocity":84,"channel":3,"program":27},{"beat":98.5,"duration":0.14583,"midi":69,"velocity":76,"channel":13,"program":81},{"beat":98.5,"duration":0.14583,"midi":73,"velocity":76,"channel":13,"program":81},{"beat":98.5,"duration":0.8125,"midi":78,"velocity":102,"channel":0,"program":22},{"beat":98.52083,"duration":0.20833,"midi":57,"velocity":67,"channel":4,"program":28},{"beat":98.52083,"duration":0.95833,"midi":57,"velocity":65,"channel":6,"program":29},{"beat":98.52083,"duration":0.45833,"midi":57,"velocity":91,"channel":12,"program":25},{"beat":98.54167,"duration":0.1875,"midi":61,"velocity":55,"channel":4,"program":28},{"beat":98.54167,"duration":0.9375,"midi":61,"velocity":65,"channel":6,"program":29},{"beat":98.54167,"duration":0.4375,"midi":61,"velocity":91,"channel":12,"program":25},{"beat":99.0,"duration":0.22917,"midi":52,"velocity":76,"channel":4,"program":28},{"beat":99.0,"duration":0.47917,"midi":52,"velocity":96,"channel":12,"program":25},{"beat":99.0,"duration":0.97917,"midi":57,"velocity":84,"channel":3,"program":27},{"beat":99.0,"duration":0.14583,"midi":69,"velocity":85,"channel":13,"program":81},{"beat":99.0,"duration":0.14583,"midi":73,"velocity":85,"channel":13,"program":81},{"beat":99.02083,"duration":0.20833,"midi":57,"velocity":73,"channel":4,"program":28},{"beat":99.02083,"duration":0.45833,"midi":57,"velocity":93,"channel":12,"program":25},{"beat":99.04167,"duration":0.1875,"midi":61,"velocity":63,"channel":4,"program":28},{"beat":99.04167,"duration":0.4375,"midi":61,"velocity":95,"channel":12,"program":25},{"beat":99.5,"duration":2.47917,"midi":45,"velocity":90,"channel":2,"program":33},{"beat":99.5,"duration":0.47917,"midi":52,"velocity":82,"channel":3,"program":27},{"beat":99.5,"duration":0.22917,"midi":52,"velocity":65,"channel":4,"program":28},{"beat":99.5,"duration":0.47917,"midi":52,"velocity":96,"channel":12,"program":25},{"beat":99.5,"duration":0.47917,"midi":59,"velocity":85,"channel":3,"program":27},{"beat":99.5,"duration":0.22917,"midi":64,"velocity":85,"channel":7,"program":51},{"beat":99.5,"duration":0.14583,"midi":69,"velocity":76,"channel":13,"program":81},{"beat":99.5,"duration":0.14583,"midi":73,"velocity":76,"channel":13,"program":81},{"beat":99.5,"duration":1.22917,"midi":76,"velocity":101,"channel":0,"program":22},{"beat":99.5,"duration":0.22917,"midi":76,"velocity":84,"channel":7,"program":51},{"beat":99.52083,"duration":0.20833,"midi":57,"velocity":64,"channel":4,"program":28},{"beat":99.52083,"duration":0.45833,"midi":57,"velocity":68,"channel":6,"program":29},{"beat":99.52083,"duration":0.45833,"midi":57,"velocity":97,"channel":12,"program":25},{"beat":99.52083,"duration":0.45833,"midi":64,"velocity":94,"channel":12,"program":25},{"beat":99.54167,"duration":0.1875,"midi":61,"velocity":58,"channel":4,"program":28},{"beat":99.54167,"duration":0.4375,"midi":61,"velocity":68,"channel":6,"program":29},{"beat":99.54167,"duration":0.4375,"midi":61,"velocity":98,"channel":12,"program":25},{"beat":99.75,"duration":0.47917,"midi":64,"velocity":90,"channel":7,"program":51},{"beat":99.75,"duration":0.14583,"midi":69,"velocity":76,"channel":13,"program":81},{"beat":99.75,"duration":0.14583,"midi":73,"velocity":76,"channel":13,"program":81},{"beat":99.75,"duration":0.47917,"midi":76,"velocity":84,"channel":7,"program":51},{"beat":100.0,"duration":2.0,"midi":45,"velocity":80,"channel":15,"program":41},{"beat":100.0,"duration":2.0,"midi":52,"velocity":90,"channel":15,"program":41},{"beat":100.0,"duration":2.0,"midi":57,"velocity":90,"channel":15,"program":41},{"beat":100.0,"duration":2.0,"midi":61,"velocity":80,"channel":15,"program":41},{"beat":100.0,"duration":2.0,"midi":64,"velocity":70,"channel":15,"program":41},{"beat":102.0,"duration":0.08,"midi":66,"velocity":79,"channel":12,"program":25},{"beat":102.0,"duration":0.52083,"midi":78,"velocity":101,"channel":0,"program":22},{"beat":102.5,"duration":0.39583,"midi":42,"velocity":80,"channel":2,"program":33},{"beat":102.5,"duration":0.97917,"midi":50,"velocity":53,"channel":3,"program":27},{"beat":102.5,"duration":0.22917,"midi":54,"velocity":90,"channel":4,"program":29},{"beat":102.5,"duration":1.47917,"midi":69,"velocity":89,"channel":7,"program":51},{"beat":102.5,"duration":1.47917,"midi":81,"velocity":100,"channel":7,"program":51},{"beat":102.52083,"duration":0.45833,"midi":54,"velocity":80,"channel":3,"program":27},{"beat":102.75,"duration":0.27083,"midi":57,"velocity":85,"channel":4,"program":29},{"beat":103.0,"duration":0.97917,"midi":38,"velocity":90,"channel":2,"program":33},{"beat":103.0,"duration":0.97917,"midi":50,"velocity":70,"channel":4,"program":29},{"beat":103.0,"duration":0.3125,"midi":50,"velocity":89,"channel":6,"program":29},{"beat":103.0,"duration":0.47917,"midi":54,"velocity":87,"channel":3,"program":27},{"beat":103.0,"duration":0.52083,"midi":54,"velocity":86,"channel":4,"program":29},{"beat":103.0,"duration":0.08,"midi":66,"velocity":78,"channel":12,"program":25},{"beat":103.0,"duration":0.97917,"midi":78,"velocity":102,"channel":0,"program":22},{"beat":103.02083,"duration":0.25,"midi":54,"velocity":86,"channel":6,"program":29},{"beat":103.5,"duration":0.47917,"midi":50,"velocity":90,"channel":6,"program":29},{"beat":103.5,"duration":0.47917,"midi":52,"velocity":44,"channel":3,"program":27},{"beat":103.5,"duration":0.47917,"midi":55,"velocity":89,"channel":4,"program":29},{"beat":103.52083,"duration":0.45833,"midi":55,"velocity":89,"channel":3,"program":27},{"beat":103.52083,"duration":0.45833,"midi":55,"velocity":88,"channel":6,"program":29},{"beat":103.52083,"duration":0.45833,"midi":59,"velocity":70,"channel":4,"program":29},{"beat":103.54167,"duration":0.4375,"midi":59,"velocity":56,"channel":3,"program":27},{"beat":104.0,"duration":0.97917,"midi":31,"velocity":95,"channel":2,"program":33},{"beat":104.0,"duration":0.97917,"midi":43,"velocity":79,"channel":4,"program":29},{"beat":104.0,"duration":0.97917,"midi":43,"velocity":87,"channel":5,"program":30},{"beat":104.0,"duration":0.97917,"midi":50,"velocity":88,"channel":1,"program":52},{"beat":104.0,"duration":0.97917,"midi":50,"velocity":84,"channel":3,"program":27},{"beat":104.0,"duration":0.97917,"midi":50,"velocity":88,"channel":6,"program":29},{"beat":104.0,"duration":0.97917,"midi":62,"velocity":88,"channel":1,"program":52},{"beat":104.0,"duration":0.22917,"midi":69,"velocity":82,"channel":13,"program":81},{"beat":104.0,"duration":0.97917,"midi":74,"velocity":99,"channel":0,"program":22},{"beat":104.0,"duration":3.97917,"midi":74,"velocity":86,"channel":7,"program":51},{"beat":104.0,"duration":3.97917,"midi":86,"velocity":79,"channel":7,"program":51},{"beat":104.02083,"duration":0.95833,"midi":50,"velocity":84,"channel":4,"program":29},{"beat":104.02083,"duration":0.95833,"midi":50,"velocity":85,"channel":5,"program":30},{"beat":104.02083,"duration":0.95833,"midi":55,"velocity":92,"channel":12,"program":25},{"beat":104.02083,"duration":0.45833,"midi":57,"velocity":69,"channel":3,"program":27},{"beat":104.04167,"duration":0.9375,"midi":55,"velocity":86,"channel":4,"program":29},{"beat":104.04167,"duration":0.9375,"midi":55,"velocity":87,"channel":5,"program":30},{"beat":104.04167,"duration":0.9375,"midi":59,"velocity":94,"channel":12,"program":25},{"beat":104.5,"duration":0.47917,"midi":55,"velocity":75,"channel":3,"program":27},{"beat":104.5,"duration":0.47917,"midi":55,"velocity":79,"channel":6,"program":29},{"beat":104.5,"duration":0.22917,"midi":69,"velocity":69,"channel":13,"program":81},{"beat":105.0,"duration":0.47917,"midi":31,"velocity":95,"channel":2,"program":33},{"beat":105.0,"duration":0.97917,"midi":43,"velocity":83,"channel":4,"program":29},{"beat":105.0,"duration":0.47917,"midi":43,"velocity":87,"channel":5,"program":30},{"beat":105.0,"duration":1.47917,"midi":50,"velocity":89,"channel":3,"program":27},{"beat":105.0,"duration":0.47917,"midi":50,"velocity":85,"channel":6,"program":29},{"beat":105.0,"duration":0.60417,"midi":52,"velocity":87,"channel":1,"program":52},{"beat":105.0,"duration":0.47917,"midi":57,"velocity":90,"channel":6,"program":29},{"beat":105.0,"duration":0.60417,"midi":62,"velocity":90,"channel":1,"program":52},{"beat":105.0,"duration":0.22917,"midi":69,"velocity":84,"channel":13,"program":81},{"beat":105.0,"duration":0.60417,"midi":76,"velocity":102,"channel":0,"program":22},{"beat":105.02083,"duration":0.45833,"midi":50,"velocity":89,"channel":4,"program":29},{"beat":105.02083,"duration":0.45833,"midi":50,"velocity":85,"channel":5,"program":30},{"beat":105.02083,"duration":1.45833,"midi":55,"velocity":87,"channel":3,"program":27},{"beat":105.02083,"duration":0.45833,"midi":55,"velocity":100,"channel":12,"program":25},{"beat":105.02083,"duration":0.45833,"midi":62,"velocity":84,"channel":3,"program":27},{"beat":105.02083,"duration":0.45833,"midi":62,"velocity":89,"channel":6,"program":29},{"beat":105.04167,"duration":0.4375,"midi":55,"velocity":84,"channel":5,"program":30},{"beat":105.04167,"duration":0.47917,"midi":57,"velocity":85,"channel":4,"program":29},{"beat":105.04167,"duration":0.4375,"midi":62,"velocity":95,"channel":12,"program":25},{"beat":105.5,"duration":0.47917,"midi":31,"velocity":81,"channel":2,"program":33},{"beat":105.5,"duration":0.97917,"midi":43,"velocity":85,"channel":5,"program":30},{"beat":105.5,"duration":0.97917,"midi":50,"velocity":75,"channel":6,"program":29},{"beat":105.5,"duration":0.97917,"midi":55,"velocity":88,"channel":6,"program":29},{"beat":105.5,"duration":0.97917,"midi":59,"velocity":90,"channel":3,"program":27},{"beat":105.5,"duration":0.22917,"midi":69,"velocity":71,"channel":13,"program":81},{"beat":105.52083,"duration":0.45833,"midi":50,"velocity":82,"channel":4,"program":29},{"beat":105.52083,"duration":0.95833,"midi":50,"velocity":90,"channel":5,"program":30},{"beat":105.52083,"duration":0.45833,"midi":55,"velocity":84,"channel":12,"program":25},{"beat":105.52083,"duration":0.95833,"midi":59,"velocity":84,"channel":6,"program":29},{"beat":105.54167,"duration":0.4375,"midi":55,"velocity":81,"channel":4,"program":29},{"beat":105.54167,"duration":0.9375,"midi":55,"velocity":88,"channel":5,"program":30},{"beat":105.54167,"duration":0.4375,"midi":59,"velocity":83,"channel":12,"program":25},{"beat":106.0,"duration":0.47917,"midi":31,"velocity":87,"channel":2,"program":33},{"beat":106.0,"duration":0.97917,"midi":43,"velocity":82,"channel":4,"program":29},{"beat":106.0,"duration":0.97917,"midi":54,"velocity":88,"channel":1,"program":52},{"beat":106.0,"duration":0.97917,"midi":62,"velocity":90,"channel":1,"program":52},{"beat":106.0,"duration":0.22917,"midi":69,"velocity":76,"channel":13,"program":81},{"beat":106.0,"duration":0.97917,"midi":78,"velocity":99,"channel":0,"program":22},{"beat":106.02083,"duration":0.45833,"midi":50,"velocity":89,"channel":4,"program":29},{"beat":106.02083,"duration":0.45833,"midi":55,"velocity":86,"channel":12,"program":25},{"beat":106.04167,"duration":0.4375,"midi":57,"velocity":84,"channel":4,"program":29},{"beat":106.04167,"duration":0.4375,"midi":59,"velocity":90,"channel":12,"program":25},{"beat":106.5,"duration":0.47917,"midi":31,"velocity":86,"channel":2,"program":33},{"beat":106.5,"duration":0.47917,"midi":43,"velocity":86,"channel":5,"program":30},{"beat":106.5,"duration":1.47917,"midi":50,"velocity":80,"channel":3,"program":27},{"beat":106.5,"duration":0.97917,"midi":50,"velocity":78,"channel":6,"program":29},{"beat":106.5,"duration":0.22917,"midi":69,"velocity":71,"channel":13,"program":81},{"beat":106.52083,"duration":0.95833,"midi":50,"velocity":87,"channel":4,"program":29},{"beat":106.52083,"duration":0.45833,"midi":50,"velocity":90,"channel":5,"program":30},{"beat":106.52083,"duration":1.45833,"midi":55,"velocity":77,"channel":3,"program":27},{"beat":106.52083,"duration":1.45833,"midi":55,"velocity":86,"channel":6,"program":29},{"beat":106.52083,"duration":0.95833,"midi":55,"velocity":82,"channel":12,"program":25},{"beat":106.54167,"duration":0.4375,"midi":55,"velocity":85,"channel":5,"program":30},{"beat":106.54167,"duration":0.9375,"midi":57,"velocity":89,"channel":4,"program":29},{"beat":106.54167,"duration":1.4375,"midi":62,"velocity":86,"channel":3,"program":27},{"beat":106.54167,"duration":0.45833,"midi":62,"velocity":87,"channel":6,"program":29},{"beat":106.54167,"duration":0.4375,"midi":62,"velocity":84,"channel":12,"program":25},{"beat":107.0,"duration":0.97917,"midi":31,"velocity":95,"channel":2,"program":33},{"beat":107.0,"duration":0.97917,"midi":43,"velocity":77,"channel":4,"program":29},{"beat":107.0,"duration":0.97917,"midi":43,"velocity":88,"channel":5,"program":30},{"beat":107.0,"duration":0.97917,"midi":55,"velocity":89,"channel":1,"program":52},{"beat":107.0,"duration":0.47917,"midi":57,"velocity":90,"channel":6,"program":29},{"beat":107.0,"duration":0.97917,"midi":62,"velocity":89,"channel":1,"program":52},{"beat":107.0,"duration":0.22917,"midi":69,"velocity":80,"channel":13,"program":81},{"beat":107.0,"duration":0.97917,"midi":79,"velocity":100,"channel":0,"program":22},{"beat":107.02083,"duration":0.45833,"midi":50,"velocity":86,"channel":5,"program":30},{"beat":107.02083,"duration":0.45833,"midi":57,"velocity":94,"channel":12,"program":25},{"beat":107.04167,"duration":0.4375,"midi":55,"velocity":87,"channel":5,"program":30},{"beat":107.5,"duration":0.22917,"midi":50,"velocity":79,"channel":4,"program":29},{"beat":107.5,"duration":0.22917,"midi":50,"velocity":84,"channel":6,"program":29},{"beat":107.5,"duration":0.22917,"midi":59,"velocity":90,"channel":6,"program":29},{"beat":107.5,"duration":0.22917,"midi":69,"velocity":71,"channel":13,"program":81},{"beat":107.52083,"duration":0.45833,"midi":52,"velocity":85,"channel":5,"program":30},{"beat":107.52083,"duration":0.20833,"midi":55,"velocity":82,"channel":12,"program":25},{"beat":107.54167,"duration":0.1875,"midi":57,"velocity":77,"channel":4,"program":29},{"beat":107.54167,"duration":0.4375,"midi":57,"velocity":88,"channel":5,"program":30},{"beat":107.54167,"duration":0.1875,"midi":59,"velocity":86,"channel":12,"program":25},{"beat":107.75,"duration":0.22917,"midi":50,"velocity":83,"channel":4,"program":29},{"beat":107.75,"duration":0.22917,"midi":50,"velocity":76,"channel":6,"program":29},{"beat":107.75,"duration":0.22917,"midi":59,"velocity":79,"channel":6,"program":29},{"beat":107.77083,"duration":0.20833,"midi":55,"velocity":82,"channel":12,"program":25},{"beat":107.79167,"duration":0.1875,"midi":57,"velocity":82,"channel":4,"program":29},{"beat":107.79167,"duration":0.1875,"midi":59,"velocity":85,"channel":12,"program":25},{"beat":108.0,"duration":0.47917,"midi":33,"velocity":100,"channel":2,"program":33},{"beat":108.0,"duration":0.97917,"midi":45,"velocity":86,"channel":3,"program":27},{"beat":108.0,"duration":0.97917,"midi":45,"velocity":79,"channel":4,"program":29},{"beat":108.0,"duration":0.97917,"midi":45,"velocity":86,"channel":5,"program":30},{"beat":108.0,"duration":0.97917,"midi":52,"velocity":85,"channel":6,"program":29},{"beat":108.0,"duration":0.97917,"midi":52,"velocity":92,"channel":12,"program":25},{"beat":108.0,"duration":0.89583,"midi":57,"velocity":87,"channel":1,"program":52},{"beat":108.0,"duration":0.89583,"midi":61,"velocity":90,"channel":1,"program":52},{"beat":108.0,"duration":0.22917,"midi":69,"velocity":65,"channel":13,"program":81},{"beat":108.0,"duration":3.97917,"midi":73,"velocity":85,"channel":7,"program":51},{"beat":108.0,"duration":0.89583,"midi":81,"velocity":99,"channel":0,"program":22},{"beat":108.0,"duration":3.97917,"midi":85,"velocity":79,"channel":7,"program":51},{"beat":108.02083,"duration":0.95833,"midi":52,"velocity":84,"channel":3,"program":27},{"beat":108.02083,"duration":0.95833,"midi":52,"velocity":85,"channel":4,"program":29},{"beat":108.02083,"duration":0.95833,"midi":52,"velocity":87,"channel":5,"program":30},{"beat":108.02083,"duration":0.95833,"midi":57,"velocity":84,"channel":6,"program":29},{"beat":108.02083,"duration":0.95833,"midi":57,"velocity":95,"channel":12,"program":25},{"beat":108.04167,"duration":0.9375,"midi":57,"velocity":89,"channel":3,"program":27},{"beat":108.04167,"duration":0.9375,"midi":57,"velocity":86,"channel":4,"program":29},{"beat":108.04167,"duration":0.9375,"midi":57,"velocity":85,"channel":5,"program":30},{"beat":108.5,"duration":0.47917,"midi":33,"velocity":85,"channel":2,"program":33},{"beat":108.5,"duration":0.22917,"midi":69,"velocity":70,"channel":13,"program":81},{"beat":109.0,"duration":0.47917,"midi":33,"velocity":94,"channel":2,"program":33},{"beat":109.0,"duration":1.47917,"midi":45,"velocity":82,"channel":3,"program":27},{"beat":109.0,"duration":0.97917,"midi":45,"velocity":78,"channel":4,"program":29},{"beat":109.0,"duration":0.47917,"midi":45,"velocity":86,"channel":5,"program":30},{"beat":109.0,"duration":0.97917,"midi":50,"velocity":90,"channel":1,"program":52},{"beat":109.0,"duration":0.47917,"midi":52,"velocity":90,"channel":6,"program":29},{"beat":109.0,"duration":0.47917,"midi":52,"velocity":97,"channel":12,"program":25},{"beat":109.0,"duration":0.97917,"midi":57,"velocity":89,"channel":1,"program":52},{"beat":109.0,"duration":0.22917,"midi":69,"velocity":83,"channel":13,"program":81},{"beat":109.0,"duration":0.97917,"midi":74,"velocity":100,"channel":0,"program":22},{"beat":109.02083,"duration":1.45833,"midi":52,"velocity":78,"channel":3,"program":27},{"beat":109.02083,"duration":0.45833,"midi":52,"velocity":86,"channel":4,"program":29},{"beat":109.02083,"duration":0.45833,"midi":52,"velocity":88,"channel":5,"program":30},{"beat":109.02083,"duration":0.45833,"midi":57,"velocity":95,"channel":12,"program":25},{"beat":109.02083,"duration":0.45833,"midi":61,"velocity":90,"channel":6,"program":29},{"beat":109.04167,"duration":0.4375,"midi":57,"velocity":90,"channel":4,"program":29},{"beat":109.04167,"duration":0.4375,"midi":57,"velocity":89,"channel":5,"program":30},{"beat":109.04167,"duration":0.4375,"midi":61,"velocity":84,"channel":3,"program":27},{"beat":109.04167,"duration":0.4375,"midi":61,"velocity":96,"channel":12,"program":25},{"beat":109.5,"duration":0.47917,"midi":33,"velocity":87,"channel":2,"program":33},{"beat":109.5,"duration":0.97917,"midi":45,"velocity":88,"channel":5,"program":30},{"beat":109.5,"duration":0.97917,"midi":52,"velocity":90,"channel":6,"program":29},{"beat":109.5,"duration":0.22917,"midi":52,"velocity":83,"channel":12,"program":25},{"beat":109.5,"duration":0.97917,"midi":57,"velocity":85,"channel":3,"program":27},{"beat":109.5,"duration":0.22917,"midi":69,"velocity":73,"channel":13,"program":81},{"beat":109.52083,"duration":0.45833,"midi":52,"velocity":83,"channel":4,"program":29},{"beat":109.52083,"duration":0.95833,"midi":52,"velocity":90,"channel":5,"program":30},{"beat":109.52083,"duration":0.95833,"midi":57,"velocity":89,"channel":6,"program":29},{"beat":109.52083,"duration":0.20833,"midi":57,"velocity":86,"channel":12,"program":25},{"beat":109.54167,"duration":0.4375,"midi":57,"velocity":81,"channel":4,"program":29},{"beat":109.54167,"duration":0.9375,"midi":57,"velocity":87,"channel":5,"program":30},{"beat":109.75,"duration":0.22917,"midi":52,"velocity":95,"channel":12,"program":25},{"beat":109.77083,"duration":0.20833,"midi":57,"velocity":94,"channel":12,"program":25},{"beat":110.0,"duration":0.47917,"midi":33,"velocity":91,"channel":2,"program":33},{"beat":110.0,"duration":0.47917,"midi":45,"velocity":77,"channel":4,"program":29},{"beat":110.0,"duration":0.47917,"midi":52,"velocity":89,"channel":12,"program":25},{"beat":110.0,"duration":1.22917,"midi":61,"velocity":88,"channel":1,"program":52},{"beat":110.0,"duration":1.22917,"midi":64,"velocity":90,"channel":1,"program":52},{"beat":110.0,"duration":0.22917,"midi":69,"velocity":78,"channel":13,"program":81},{"beat":110.0,"duration":1.22917,"midi":85,"velocity":101,"channel":0,"program":22},{"beat":110.02083,"duration":0.45833,"midi":52,"velocity":87,"channel":4,"program":29},{"beat":110.02083,"duration":0.45833,"midi":57,"velocity":94,"channel":12,"program":25},{"beat":110.04167,"duration":0.4375,"midi":57,"velocity":87,"channel":4,"program":29},{"beat":110.5,"duration":0.47917,"midi":33,"velocity":92,"channel":2,"program":33},{"beat":110.5,"duration":0.97917,"midi":45,"velocity":84,"channel":3,"program":27},{"beat":110.5,"duration":0.97917,"midi":45,"velocity":77,"channel":4,"program":29},{"beat":110.5,"duration":0.97917,"midi":45,"velocity":87,"channel":5,"program":30},{"beat":110.5,"duration":0.47917,"midi":52,"velocity":86,"channel":6,"program":29},{"beat":110.5,"duration":0.47917,"midi":52,"velocity":93,"channel":12,"program":25},{"beat":110.5,"duration":0.22917,"midi":69,"velocity":77,"channel":13,"program":81},{"beat":110.52083,"duration":0.95833,"midi":52,"velocity":85,"channel":3,"program":27},{"beat":110.52083,"duration":0.95833,"midi":52,"velocity":84,"channel":4,"program":29},{"beat":110.52083,"duration":0.95833,"midi":52,"velocity":85,"channel":5,"program":30},{"beat":110.52083,"duration":0.45833,"midi":57,"velocity":90,"channel":12,"program":25},{"beat":110.52083,"duration":0.45833,"midi":61,"velocity":90,"channel":6,"program":29},{"beat":110.54167,"duration":0.9375,"midi":57,"velocity":90,"channel":4,"program":29},{"beat":110.54167,"duration":0.9375,"midi":57,"velocity":90,"channel":5,"program":30},{"beat":110.54167,"duration":0.9375,"midi":61,"velocity":85,"channel":3,"program":27},{"beat":110.54167,"duration":0.4375,"midi":61,"velocity":93,"channel":12,"program":25},{"beat":111.0,"duration":0.47917,"midi":33,"velocity":97,"channel":2,"program":33},{"beat":111.0,"duration":0.47917,"midi":52,"velocity":90,"channel":6,"program":29},{"beat":111.0,"duration":0.47917,"midi":52,"velocity":103,"channel":12,"program":25},{"beat":111.0,"duration":0.22917,"midi":69,"velocity":86,"channel":13,"program":81},{"beat":111.02083,"duration":0.45833,"midi":57,"velocity":89,"channel":6,"program":29},{"beat":111.02083,"duration":0.45833,"midi":57,"velocity":101,"channel":12,"program":25},{"beat":111.5,"duration":0.47917,"midi":33,"velocity":94,"channel":2,"program":33},{"beat":111.5,"duration":0.47917,"midi":45,"velocity":83,"channel":4,"program":29},{"beat":111.5,"duration":0.47917,"midi":47,"velocity":82,"channel":3,"program":27},{"beat":111.5,"duration":0.22917,"midi":47,"velocity":88,"channel":5,"program":30},{"beat":111.5,"duration":0.22917,"midi":54,"velocity":74,"channel":6,"program":29},{"beat":111.5,"duration":0.22917,"midi":54,"velocity":90,"channel":12,"program":25},{"beat":111.5,"duration":2.22917,"midi":62,"velocity":90,"channel":1,"program":52},{"beat":111.5,"duration":2.22917,"midi":66,"velocity":88,"channel":1,"program":52},{"beat":111.5,"duration":0.22917,"midi":69,"velocity":75,"channel":13,"program":81},{"beat":111.5,"duration":2.22917,"midi":86,"velocity":101,"channel":0,"program":22},{"beat":111.52083,"duration":0.20833,"midi":52,"velocity":78,"channel":4,"program":29},{"beat":111.52083,"duration":0.45833,"midi":54,"velocity":76,"channel":3,"program":27},{"beat":111.52083,"duration":0.20833,"midi":54,"velocity":90,"channel":5,"program":30},{"beat":111.52083,"duration":0.45833,"midi":59,"velocity":78,"channel":6,"program":29},{"beat":111.54167,"duration":0.1875,"midi":57,"velocity":81,"channel":4,"program":29},{"beat":111.54167,"duration":0.1875,"midi":59,"velocity":88,"channel":5,"program":30},{"beat":111.54167,"duration":0.1875,"midi":59,"velocity":91,"channel":12,"program":25},{"beat":111.54167,"duration":0.4375,"midi":62,"velocity":79,"channel":3,"program":27},{"beat":111.75,"duration":0.22917,"midi":47,"velocity":88,"channel":5,"program":30},{"beat":111.75,"duration":0.22917,"midi":54,"velocity":78,"channel":6,"program":29},{"beat":111.75,"duration":0.22917,"midi":54,"velocity":89,"channel":12,"program":25},{"beat":111.77083,"duration":0.20833,"midi":52,"velocity":83,"channel":4,"program":29},{"beat":111.77083,"duration":0.20833,"midi":54,"velocity":90,"channel":5,"program":30},{"beat":111.79167,"duration":0.1875,"midi":57,"velocity":78,"channel":4,"program":29},{"beat":111.79167,"duration":0.1875,"midi":59,"velocity":88,"channel":5,"program":30},{"beat":111.79167,"duration":0.1875,"midi":59,"velocity":87,"channel":12,"program":25},{"beat":112.0,"duration":0.97917,"midi":35,"velocity":97,"channel":2,"program":33},{"beat":112.0,"duration":0.97917,"midi":47,"velocity":87,"channel":3,"program":27},{"beat":112.0,"duration":0.97917,"midi":47,"velocity":84,"channel":4,"program":29},{"beat":112.0,"duration":0.97917,"midi":47,"velocity":85,"channel":5,"program":30},{"beat":112.0,"duration":0.97917,"midi":54,"velocity":88,"channel":6,"program":29},{"beat":112.0,"duration":0.22917,"midi":69,"velocity":82,"channel":13,"program":81},{"beat":112.0,"duration":3.97917,"midi":74,"velocity":84,"channel":7,"program":51},{"beat":112.0,"duration":3.97917,"midi":86,"velocity":78,"channel":7,"program":51},{"beat":112.02083,"duration":0.95833,"midi":54,"velocity":90,"channel":3,"program":27},{"beat":112.02083,"duration":0.95833,"midi":54,"velocity":87,"channel":4,"program":29},{"beat":112.02083,"duration":0.95833,"midi":54,"velocity":89,"channel":5,"program":30},{"beat":112.02083,"duration":0.95833,"midi":57,"velocity":93,"channel":12,"program":25},{"beat":112.02083,"duration":0.95833,"midi":59,"velocity":89,"channel":6,"program":29},{"beat":112.04167,"duration":0.9375,"midi":57,"velocity":87,"channel":3,"program":27},{"beat":112.04167,"duration":0.9375,"midi":57,"velocity":90,"channel":5,"program":30},{"beat":112.04167,"duration":0.9375,"midi":62,"velocity":97,"channel":12,"program":25},{"beat":112.5,"duration":0.22917,"midi":69,"velocity":69,"channel":13,"program":81},{"beat":113.0,"duration":0.47917,"midi":35,"velocity":98,"channel":2,"program":33},{"beat":113.0,"duration":0.47917,"midi":47,"velocity":89,"channel":3,"program":27},{"beat":113.0,"duration":0.47917,"midi":47,"velocity":86,"channel":4,"program":29},{"beat":113.0,"duration":0.47917,"midi":47,"velocity":87,"channel":5,"program":30},{"beat":113.0,"duration":0.47917,"midi":54,"velocity":86,"channel":3,"program":27},{"beat":113.0,"duration":0.47917,"midi":54,"velocity":76,"channel":6,"program":29},{"beat":113.0,"duration":0.22917,"midi":69,"velocity":84,"channel":13,"program":81},{"beat":113.02083,"duration":0.45833,"midi":54,"velocity":88,"channel":4,"program":29},{"beat":113.02083,"duration":0.45833,"midi":54,"velocity":88,"channel":5,"program":30},{"beat":113.02083,"duration":0.45833,"midi":57,"velocity":88,"channel":3,"program":27},{"beat":113.02083,"duration":0.45833,"midi":57,"velocity":98,"channel":12,"program":25},{"beat":113.02083,"duration":0.45833,"midi":59,"velocity":89,"channel":6,"program":29},{"beat":113.04167,"duration":0.4375,"midi":57,"velocity":52,"channel":4,"program":29},{"beat":113.04167,"duration":0.4375,"midi":57,"velocity":87,"channel":5,"program":30},{"beat":113.04167,"duration":0.4375,"midi":62,"velocity":68,"channel":3,"program":27},{"beat":113.04167,"duration":0.4375,"midi":62,"velocity":96,"channel":12,"program":25},{"beat":113.5,"duration":0.47917,"midi":35,"velocity":81,"channel":2,"program":33},{"beat":113.5,"duration":0.47917,"midi":47,"velocity":77,"channel":3,"program":27},{"beat":113.5,"duration":0.97917,"midi":47,"velocity":86,"channel":4,"program":29},{"beat":113.5,"duration":0.97917,"midi":47,"velocity":86,"channel":5,"program":30},{"beat":113.5,"duration":0.47917,"midi":54,"velocity":80,"channel":6,"program":29},{"beat":113.5,"duration":0.22917,"midi":69,"velocity":71,"channel":13,"program":81},{"beat":113.52083,"duration":0.45833,"midi":54,"velocity":81,"channel":3,"program":27},{"beat":113.52083,"duration":0.95833,"midi":54,"velocity":85,"channel":4,"program":29},{"beat":113.52083,"duration":0.95833,"midi":54,"velocity":87,"channel":5,"program":30},{"beat":113.52083,"duration":0.45833,"midi":57,"velocity":86,"channel":6,"program":29},{"beat":113.52083,"duration":0.45833,"midi":57,"velocity":86,"channel":12,"program":25},{"beat":113.54167,"duration":0.9375,"midi":57,"velocity":57,"channel":4,"program":29},{"beat":113.54167,"duration":0.9375,"midi":57,"velocity":84,"channel":5,"program":30},{"beat":113.54167,"duration":0.9375,"midi":59,"velocity":77,"channel":3,"program":27},{"beat":113.54167,"duration":0.4375,"midi":62,"velocity":84,"channel":12,"program":25},{"beat":114.0,"duration":0.47917,"midi":35,"velocity":91,"channel":2,"program":33},{"beat":114.0,"duration":0.47917,"midi":47,"velocity":88,"channel":3,"program":27},{"beat":114.0,"duration":0.47917,"midi":54,"velocity":80,"channel":6,"program":29},{"beat":114.0,"duration":0.22917,"midi":69,"velocity":76,"channel":13,"program":81},{"beat":114.02083,"duration":0.45833,"midi":54,"velocity":88,"channel":3,"program":27},{"beat":114.02083,"duration":0.45833,"midi":57,"velocity":91,"channel":12,"program":25},{"beat":114.02083,"duration":0.45833,"midi":59,"velocity":89,"channel":6,"program":29},{"beat":114.04167,"duration":0.4375,"midi":62,"velocity":90,"channel":12,"program":25},{"beat":114.5,"duration":0.47917,"midi":35,"velocity":84,"channel":2,"program":33},{"beat":114.5,"duration":0.97917,"midi":47,"velocity":87,"channel":3,"program":27},{"beat":114.5,"duration":0.97917,"midi":47,"velocity":89,"channel":4,"program":29},{"beat":114.5,"duration":0.97917,"midi":47,"velocity":84,"channel":5,"program":30},{"beat":114.5,"duration":0.47917,"midi":54,"velocity":74,"channel":6,"program":29},{"beat":114.5,"duration":0.22917,"midi":69,"velocity":71,"channel":13,"program":81},{"beat":114.52083,"duration":0.95833,"midi":54,"velocity":88,"channel":3,"program":27},{"beat":114.52083,"duration":0.95833,"midi":54,"velocity":86,"channel":4,"program":29},{"beat":114.52083,"duration":0.95833,"midi":54,"velocity":88,"channel":5,"program":30},{"beat":114.52083,"duration":0.95833,"midi":57,"velocity":86,"channel":6,"program":29},{"beat":114.52083,"duration":0.95833,"midi":57,"velocity":83,"channel":12,"program":25},{"beat":114.54167,"duration":0.9375,"midi":57,"velocity":60,"channel":4,"program":29},{"beat":114.54167,"duration":0.9375,"midi":57,"velocity":89,"channel":5,"program":30},{"beat":114.54167,"duration":0.9375,"midi":62,"velocity":68,"channel":3,"program":27},{"beat":114.54167,"duration":0.9375,"midi":62,"velocity":85,"channel":12,"program":25},{"beat":115.0,"duration":0.47917,"midi":28,"velocity":95,"channel":2,"program":33},{"beat":115.0,"duration":0.97917,"midi":54,"velocity":77,"channel":6,"program":29},{"beat":115.0,"duration":0.47917,"midi":59,"velocity":87,"channel":1,"program":52},{"beat":115.0,"duration":0.22917,"midi":69,"velocity":80,"channel":13,"program":81},{"beat":115.0,"duration":0.47917,"midi":83,"velocity":101,"channel":0,"program":22},{"beat":115.5,"duration":0.47917,"midi":29,"velocity":82,"channel":2,"program":33},{"beat":115.5,"duration":0.47917,"midi":47,"velocity":79,"channel":3,"program":27},{"beat":115.5,"duration":0.22917,"midi":47,"velocity":81,"channel":4,"program":29},{"beat":115.5,"duration":0.22917,"midi":47,"velocity":90,"channel":5,"program":30},{"beat":115.5,"duration":1.22917,"midi":57,"velocity":88,"channel":1,"program":52},{"beat":115.5,"duration":0.22917,"midi":59,"velocity":88,"channel":6,"program":29},{"beat":115.5,"duration":0.22917,"midi":69,"velocity":71,"channel":13,"program":81},{"beat":115.5,"duration":1.22917,"midi":81,"velocity":102,"channel":0,"program":22},{"beat":115.52083,"duration":0.45833,"midi":54,"velocity":79,"channel":3,"program":27},{"beat":115.52083,"duration":0.20833,"midi":54,"velocity":83,"channel":4,"program":29},{"beat":115.52083,"duration":0.20833,"midi":54,"velocity":87,"channel":5,"program":30},{"beat":115.52083,"duration":0.20833,"midi":57,"velocity":83,"channel":12,"program":25},{"beat":115.54167,"duration":0.1875,"midi":57,"velocity":87,"channel":5,"program":30},{"beat":115.54167,"duration":0.4375,"midi":59,"velocity":82,"channel":3,"program":27},{"beat":115.54167,"duration":0.1875,"midi":62,"velocity":86,"channel":12,"program":25},{"beat":115.75,"duration":0.22917,"midi":47,"velocity":83,"channel":4,"program":29},{"beat":115.75,"duration":0.22917,"midi":47,"velocity":85,"channel":5,"program":30},{"beat":115.75,"duration":0.22917,"midi":59,"velocity":87,"channel":6,"program":29},{"beat":115.77083,"duration":0.20833,"midi":54,"velocity":78,"channel":4,"program":29},{"beat":115.77083,"duration":0.20833,"midi":54,"velocity":89,"channel":5,"program":30},{"beat":115.77083,"duration":0.20833,"midi":57,"velocity":85,"channel":12,"program":25},{"beat":115.79167,"duration":0.1875,"midi":57,"velocity":88,"channel":5,"program":30},{"beat":115.79167,"duration":0.1875,"midi":62,"velocity":85,"channel":12,"program":25},{"beat":116.0,"duration":0.47917,"midi":30,"velocity":97,"channel":2,"program":33},{"beat":116.0,"duration":0.97917,"midi":45,"velocity":86,"channel":4,"program":29},{"beat":116.0,"duration":0.97917,"midi":50,"velocity":90,"channel":3,"program":27},{"beat":116.0,"duration":0.97917,"midi":50,"velocity":88,"channel":5,"program":30},{"beat":116.0,"duration":0.97917,"midi":52,"velocity":88,"channel":6,"program":29},{"beat":116.0,"duration":0.22917,"midi":69,"velocity":65,"channel":13,"program":81},{"beat":116.0,"duration":1.97917,"midi":76,"velocity":90,"channel":7,"program":51},{"beat":116.0,"duration":1.97917,"midi":88,"velocity":85,"channel":7,"program":51},{"beat":116.02083,"duration":0.95833,"midi":50,"velocity":90,"channel":4,"program":29},{"beat":116.02083,"duration":0.95833,"midi":54,"velocity":89,"channel":3,"program":27},{"beat":116.02083,"duration":0.95833,"midi":54,"velocity":85,"channel":5,"program":30},{"beat":116.02083,"duration":0.95833,"midi":57,"velocity":89,"channel":6,"program":29},{"beat":116.02083,"duration":0.95833,"midi":57,"velocity":97,"channel":12,"program":25},{"beat":116.04167,"duration":0.9375,"midi":54,"velocity":90,"channel":4,"program":29},{"beat":116.04167,"duration":0.9375,"midi":57,"velocity":87,"channel":3,"program":27},{"beat":116.04167,"duration":0.9375,"midi":57,"velocity":89,"channel":5,"program":30},{"beat":116.04167,"duration":0.9375,"midi":64,"velocity":96,"channel":12,"program":25},{"beat":116.5,"duration":0.47917,"midi":30,"velocity":82,"channel":2,"program":33},{"beat":116.5,"duration":1.47917,"midi":64,"velocity":65,"channel":3,"program":27},{"beat":116.5,"duration":0.22917,"midi":69,"velocity":70,"channel":13,"program":81},{"beat":117.0,"duration":0.47917,"midi":30,"velocity":96,"channel":2,"program":33},{"beat":117.0,"duration":0.47917,"midi":45,"velocity":86,"channel":4,"program":29},{"beat":117.0,"duration":0.47917,"midi":50,"velocity":85,"channel":3,"program":27},{"beat":117.0,"duration":0.47917,"midi":50,"velocity":90,"channel":5,"program":30},{"beat":117.0,"duration":0.47917,"midi":54,"velocity":88,"channel":1,"program":52},{"beat":117.0,"duration":0.47917,"midi":54,"velocity":87,"channel":6,"program":29},{"beat":117.0,"duration":0.22917,"midi":69,"velocity":83,"channel":13,"program":81},{"beat":117.0,"duration":1.22917,"midi":76,"velocity":80,"channel":14,"program":29},{"beat":117.0,"duration":0.47917,"midi":78,"velocity":102,"channel":0,"program":22},{"beat":117.02083,"duration":0.45833,"midi":50,"velocity":84,"channel":4,"program":29},{"beat":117.02083,"duration":0.45833,"midi":54,"velocity":84,"channel":3,"program":27},{"beat":117.02083,"duration":0.45833,"midi":54,"velocity":87,"channel":5,"program":30},{"beat":117.02083,"duration":0.95833,"midi":57,"velocity":98,"channel":12,"program":25},{"beat":117.02083,"duration":0.45833,"midi":62,"velocity":90,"channel":6,"program":29},{"beat":117.04167,"duration":0.47917,"midi":54,"velocity":89,"channel":4,"program":29},{"beat":117.04167,"duration":0.4375,"midi":57,"velocity":88,"channel":3,"program":27},{"beat":117.04167,"duration":0.4375,"midi":57,"velocity":86,"channel":5,"program":30},{"beat":117.04167,"duration":0.9375,"midi":64,"velocity":99,"channel":12,"program":25},{"beat":117.5,"duration":0.47917,"midi":30,"velocity":87,"channel":2,"program":33},{"beat":117.5,"duration":0.47917,"midi":45,"velocity":81,"channel":4,"program":29},{"beat":117.5,"duration":0.47917,"midi":50,"velocity":80,"channel":3,"program":27},{"beat":117.5,"duration":0.97917,"midi":50,"velocity":84,"channel":5,"program":30},{"beat":117.5,"duration":1.22917,"midi":52,"velocity":90,"channel":1,"program":52},{"beat":117.5,"duration":0.47917,"midi":52,"velocity":87,"channel":6,"program":29},{"beat":117.5,"duration":0.22917,"midi":69,"velocity":73,"channel":13,"program":81},{"beat":117.5,"duration":1.22917,"midi":76,"velocity":102,"channel":0,"program":22},{"beat":117.52083,"duration":0.45833,"midi":50,"velocity":79,"channel":4,"program":29},{"beat":117.52083,"duration":0.45833,"midi":54,"velocity":80,"channel":3,"program":27},{"beat":117.52083,"duration":0.95833,"midi":54,"velocity":90,"channel":5,"program":30},{"beat":117.52083,"duration":0.95833,"midi":57,"velocity":85,"channel":6,"program":29},{"beat":117.54167,"duration":0.4375,"midi":52,"velocity":83,"channel":4,"program":29},{"beat":117.54167,"duration":0.4375,"midi":57,"velocity":80,"channel":3,"program":27},{"beat":117.54167,"duration":0.9375,"midi":57,"velocity":85,"channel":5,"program":30},{"beat":118.0,"duration":0.47917,"midi":30,"velocity":91,"channel":2,"program":33},{"beat":118.0,"duration":0.47917,"midi":45,"velocity":81,"channel":4,"program":29},{"beat":118.0,"duration":0.47917,"midi":50,"velocity":89,"channel":3,"program":27},{"beat":118.0,"duration":0.22917,"midi":69,"velocity":78,"channel":13,"program":81},{"beat":118.0,"duration":1.97917,"midi":78,"velocity":85,"channel":7,"program":51},{"beat":118.0,"duration":1.97917,"midi":90,"velocity":85,"channel":7,"program":51},{"beat":118.02083,"duration":0.45833,"midi":50,"velocity":81,"channel":4,"program":29},{"beat":118.02083,"duration":0.45833,"midi":54,"velocity":85,"channel":3,"program":27},{"beat":118.02083,"duration":0.45833,"midi":62,"velocity":91,"channel":12,"program":25},{"beat":118.04167,"duration":0.47917,"midi":52,"velocity":79,"channel":4,"program":29},{"beat":118.04167,"duration":0.4375,"midi":57,"velocity":85,"channel":3,"program":27},{"beat":118.04167,"duration":0.4375,"midi":66,"velocity":91,"channel":12,"program":25},{"beat":118.5,"duration":0.97917,"midi":30,"velocity":92,"channel":2,"program":33},{"beat":118.5,"duration":0.47917,"midi":45,"velocity":80,"channel":4,"program":29},{"beat":118.5,"duration":0.97917,"midi":50,"velocity":88,"channel":3,"program":27},{"beat":118.5,"duration":0.47917,"midi":50,"velocity":85,"channel":5,"program":30},{"beat":118.5,"duration":0.47917,"midi":54,"velocity":89,"channel":6,"program":29},{"beat":118.5,"duration":0.22917,"midi":69,"velocity":77,"channel":13,"program":81},{"beat":118.5,"duration":0.47917,"midi":78,"velocity":70,"channel":14,"program":29},{"beat":118.52083,"duration":0.45833,"midi":50,"velocity":78,"channel":4,"program":29},{"beat":118.52083,"duration":0.95833,"midi":54,"velocity":87,"channel":3,"program":27},{"beat":118.52083,"duration":0.45833,"midi":54,"velocity":86,"channel":5,"program":30},{"beat":118.52083,"duration":0.45833,"midi":62,"velocity":87,"channel":6,"program":29},{"beat":118.52083,"duration":0.45833,"midi":62,"velocity":89,"channel":12,"program":25},{"beat":118.54167,"duration":0.4375,"midi":54,"velocity":83,"channel":4,"program":29},{"beat":118.54167,"duration":0.9375,"midi":57,"velocity":86,"channel":3,"program":27},{"beat":118.54167,"duration":0.4375,"midi":57,"velocity":88,"channel":5,"program":30},{"beat":118.54167,"duration":0.4375,"midi":66,"velocity":92,"channel":12,"program":25},{"beat":119.0,"duration":0.97917,"midi":45,"velocity":90,"channel":4,"program":29},{"beat":119.0,"duration":0.97917,"midi":50,"velocity":90,"channel":1,"program":52},{"beat":119.0,"duration":0.97917,"midi":50,"velocity":84,"channel":5,"program":30},{"beat":119.0,"duration":0.97917,"midi":54,"velocity":90,"channel":6,"program":29},{"beat":119.0,"duration":0.22917,"midi":69,"velocity":86,"channel":13,"program":81},{"beat":119.0,"duration":0.97917,"midi":74,"velocity":102,"channel":0,"program":22},{"beat":119.0,"duration":0.97917,"midi":78,"velocity":80,"channel":14,"program":29},{"beat":119.02083,"duration":0.95833,"midi":50,"velocity":90,"channel":4,"program":29},{"beat":119.02083,"duration":0.95833,"midi":54,"velocity":90,"channel":5,"program":30},{"beat":119.02083,"duration":0.95833,"midi":57,"velocity":90,"channel":6,"program":29},{"beat":119.02083,"duration":0.95833,"midi":62,"velocity":101,"channel":12,"program":25},{"beat":119.04167,"duration":0.9375,"midi":54,"velocity":84,"channel":4,"program":29},{"beat":119.04167,"duration":0.9375,"midi":57,"velocity":89,"channel":5,"program":30},{"beat":119.04167,"duration":0.9375,"midi":66,"velocity":101,"channel":12,"program":25},{"beat":119.5,"duration":0.47917,"midi":30,"velocity":85,"channel":2,"program":33},{"beat":119.5,"duration":0.22917,"midi":69,"velocity":75,"channel":13,"program":81},{"beat":119.52083,"duration":0.45833,"midi":54,"velocity":82,"channel":3,"program":27},{"beat":119.54167,"duration":0.4375,"midi":59,"velocity":79,"channel":3,"program":27},{"beat":120.0,"duration":0.97917,"midi":31,"velocity":96,"channel":2,"program":33},{"beat":120.0,"duration":0.97917,"midi":43,"velocity":89,"channel":3,"program":27},{"beat":120.0,"duration":0.97917,"midi":43,"velocity":90,"channel":4,"program":29},{"beat":120.0,"duration":0.97917,"midi":43,"velocity":89,"channel":5,"program":30},{"beat":120.0,"duration":0.72917,"midi":50,"velocity":89,"channel":1,"program":52},{"beat":120.0,"duration":1.47917,"midi":50,"velocity":86,"channel":6,"program":29},{"beat":120.0,"duration":0.22917,"midi":69,"velocity":82,"channel":13,"program":81},{"beat":120.0,"duration":0.72917,"midi":74,"velocity":100,"channel":0,"program":22},{"beat":120.0,"duration":3.97917,"midi":74,"velocity":86,"channel":7,"program":51},{"beat":120.0,"duration":3.97917,"midi":86,"velocity":78,"channel":7,"program":51},{"beat":120.02083,"duration":0.95833,"midi":50,"velocity":86,"channel":3,"program":27},{"beat":120.02083,"duration":0.95833,"midi":50,"velocity":89,"channel":4,"program":29},{"beat":120.02083,"duration":0.95833,"midi":50,"velocity":89,"channel":5,"program":30},{"beat":120.02083,"duration":0.95833,"midi":55,"velocity":89,"channel":6,"program":29},{"beat":120.02083,"duration":0.95833,"midi":57,"velocity":97,"channel":12,"program":25},{"beat":120.04167,"duration":0.9375,"midi":55,"velocity":84,"channel":3,"program":27},{"beat":120.04167,"duration":0.9375,"midi":55,"velocity":84,"channel":4,"program":29},{"beat":120.04167,"duration":0.9375,"midi":55,"velocity":89,"channel":5,"program":30},{"beat":120.04167,"duration":0.9375,"midi":62,"velocity":95,"channel":12,"program":25},{"beat":120.5,"duration":0.22917,"midi":69,"velocity":69,"channel":13,"program":81},{"beat":121.0,"duration":0.47917,"midi":31,"velocity":98,"channel":2,"program":33},{"beat":121.0,"duration":0.47917,"midi":43,"velocity":87,"channel":3,"program":27},{"beat":121.0,"duration":1.47917,"midi":43,"velocity":90,"channel":4,"program":29},{"beat":121.0,"duration":0.47917,"midi":43,"velocity":87,"channel":5,"program":30},{"beat":121.0,"duration":0.97917,"midi":52,"velocity":90,"channel":1,"program":52},{"beat":121.0,"duration":0.47917,"midi":57,"velocity":88,"channel":6,"program":29},{"beat":121.0,"duration":0.47917,"midi":62,"velocity":88,"channel":3,"program":27},{"beat":121.0,"duration":0.22917,"midi":69,"velocity":84,"channel":13,"program":81},{"beat":121.0,"duration":0.97917,"midi":76,"velocity":99,"channel":0,"program":22},{"beat":121.02083,"duration":0.45833,"midi":50,"velocity":85,"channel":3,"program":27},{"beat":121.02083,"duration":1.45833,"midi":50,"velocity":87,"channel":4,"program":29},{"beat":121.02083,"duration":0.45833,"midi":50,"velocity":88,"channel":5,"program":30},{"beat":121.02083,"duration":0.45833,"midi":57,"velocity":98,"channel":12,"program":25},{"beat":121.04167,"duration":0.4375,"midi":55,"velocity":88,"channel":3,"program":27},{"beat":121.04167,"duration":1.4375,"midi":55,"velocity":80,"channel":4,"program":29},{"beat":121.04167,"duration":0.4375,"midi":55,"velocity":90,"channel":5,"program":30},{"beat":121.04167,"duration":0.4375,"midi":62,"velocity":97,"channel":12,"program":25},{"beat":121.5,"duration":0.47917,"midi":31,"velocity":84,"channel":2,"program":33},{"beat":121.5,"duration":0.47917,"midi":43,"velocity":77,"channel":3,"program":27},{"beat":121.5,"duration":0.97917,"midi":43,"velocity":84,"channel":5,"program":30},{"beat":121.5,"duration":0.97917,"midi":50,"velocity":84,"channel":6,"program":29},{"beat":121.5,"duration":0.22917,"midi":69,"velocity":71,"channel":13,"program":81},{"beat":121.52083,"duration":0.45833,"midi":50,"velocity":82,"channel":3,"program":27},{"beat":121.52083,"duration":0.95833,"midi":50,"velocity":84,"channel":5,"program":30},{"beat":121.52083,"duration":0.95833,"midi":55,"velocity":87,"channel":6,"program":29},{"beat":121.52083,"duration":0.45833,"midi":57,"velocity":83,"channel":12,"program":25},{"beat":121.54167,"duration":0.9375,"midi":55,"velocity":78,"channel":3,"program":27},{"beat":121.54167,"duration":0.9375,"midi":55,"velocity":88,"channel":5,"program":30},{"beat":121.54167,"duration":0.4375,"midi":62,"velocity":81,"channel":12,"program":25},{"beat":122.0,"duration":0.47917,"midi":31,"velocity":91,"channel":2,"program":33},{"beat":122.0,"duration":0.47917,"midi":43,"velocity":81,"channel":3,"program":27},{"beat":122.0,"duration":0.97917,"midi":54,"velocity":89,"channel":1,"program":52},{"beat":122.0,"duration":0.22917,"midi":69,"velocity":76,"channel":13,"program":81},{"beat":122.0,"duration":0.97917,"midi":78,"velocity":102,"channel":0,"program":22},{"beat":122.02083,"duration":0.45833,"midi":50,"velocity":80,"channel":3,"program":27},{"beat":122.02083,"duration":0.45833,"midi":57,"velocity":92,"channel":12,"program":25},{"beat":122.04167,"duration":0.4375,"midi":62,"velocity":85,"channel":12,"program":25},{"beat":122.5,"duration":0.47917,"midi":31,"velocity":83,"channel":2,"program":33},{"beat":122.5,"duration":0.97917,"midi":43,"velocity":86,"channel":3,"program":27},{"beat":122.5,"duration":0.47917,"midi":43,"velocity":87,"channel":4,"program":29},{"beat":122.5,"duration":0.47917,"midi":43,"velocity":87,"channel":5,"program":30},{"beat":122.5,"duration":0.47917,"midi":50,"velocity":88,"channel":6,"program":29},{"beat":122.5,"duration":0.22917,"midi":69,"velocity":71,"channel":13,"program":81},{"beat":122.52083,"duration":0.95833,"midi":50,"velocity":89,"channel":3,"program":27},{"beat":122.52083,"duration":0.45833,"midi":50,"velocity":82,"channel":4,"program":29},{"beat":122.52083,"duration":0.45833,"midi":50,"velocity":86,"channel":5,"program":30},{"beat":122.52083,"duration":0.45833,"midi":57,"velocity":88,"channel":6,"program":29},{"beat":122.52083,"duration":0.95833,"midi":57,"velocity":83,"channel":12,"program":25},{"beat":122.54167,"duration":0.9375,"midi":55,"velocity":87,"channel":3,"program":27},{"beat":122.54167,"duration":0.4375,"midi":55,"velocity":82,"channel":4,"program":29},{"beat":122.54167,"duration":0.4375,"midi":57,"velocity":88,"channel":5,"program":30},{"beat":122.54167,"duration":0.9375,"midi":62,"velocity":85,"channel":12,"program":25},{"beat":123.0,"duration":0.72917,"midi":43,"velocity":90,"channel":4,"program":29},{"beat":123.0,"duration":0.97917,"midi":43,"velocity":84,"channel":5,"program":30},{"beat":123.0,"duration":0.97917,"midi":50,"velocity":85,"channel":6,"program":29},{"beat":123.0,"duration":0.8125,"midi":55,"velocity":90,"channel":1,"program":52},{"beat":123.0,"duration":0.22917,"midi":69,"velocity":80,"channel":13,"program":81},{"beat":123.0,"duration":0.8125,"midi":79,"velocity":102,"channel":0,"program":22},{"beat":123.02083,"duration":0.70833,"midi":50,"velocity":89,"channel":4,"program":29},{"beat":123.02083,"duration":0.95833,"midi":50,"velocity":90,"channel":5,"program":30},{"beat":123.02083,"duration":0.45833,"midi":57,"velocity":88,"channel":6,"program":29},{"beat":123.04167,"duration":0.9375,"midi":55,"velocity":84,"channel":4,"program":29},{"beat":123.04167,"duration":0.9375,"midi":57,"velocity":86,"channel":5,"program":30},{"beat":123.5,"duration":0.47917,"midi":31,"velocity":100,"channel":2,"program":33},{"beat":123.5,"duration":0.22917,"midi":45,"velocity":77,"channel":3,"program":27},{"beat":123.5,"duration":0.22917,"midi":57,"velocity":90,"channel":6,"program":29},{"beat":123.5,"duration":0.22917,"midi":69,"velocity":71,"channel":13,"program":81},{"beat":123.52083,"duration":0.20833,"midi":52,"velocity":80,"channel":3,"program":27},{"beat":123.52083,"duration":0.20833,"midi":57,"velocity":84,"channel":12,"program":25},{"beat":123.54167,"duration":0.1875,"midi":57,"velocity":77,"channel":3,"program":27},{"beat":123.54167,"duration":0.1875,"midi":62,"velocity":82,"channel":12,"program":25},{"beat":123.75,"duration":0.22917,"midi":43,"velocity":81,"channel":4,"program":29},{"beat":123.75,"duration":0.22917,"midi":45,"velocity":78,"channel":3,"program":27},{"beat":123.75,"duration":0.22917,"midi":52,"velocity":85,"channel":5,"program":30},{"beat":123.75,"duration":0.22917,"midi":57,"velocity":87,"channel":6,"program":29},{"beat":123.77083,"duration":0.20833,"midi":50,"velocity":78,"channel":4,"program":29},{"beat":123.77083,"duration":0.20833,"midi":52,"velocity":82,"channel":3,"program":27},{"beat":123.77083,"duration":0.20833,"midi":57,"velocity":83,"channel":12,"program":25},{"beat":123.79167,"duration":0.1875,"midi":57,"velocity":79,"channel":3,"program":27},{"beat":123.79167,"duration":0.1875,"midi":62,"velocity":81,"channel":12,"program":25},{"beat":124.0,"duration":0.47917,"midi":33,"velocity":94,"channel":2,"program":33},{"beat":124.0,"duration":0.97917,"midi":45,"velocity":90,"channel":3,"program":27},{"beat":124.0,"duration":0.97917,"midi":45,"velocity":85,"channel":4,"program":29},{"beat":124.0,"duration":0.97917,"midi":45,"velocity":90,"channel":5,"program":30},{"beat":124.0,"duration":1.47917,"midi":52,"velocity":88,"channel":6,"program":29},{"beat":124.0,"duration":0.5625,"midi":57,"velocity":87,"channel":1,"program":52},{"beat":124.0,"duration":0.22917,"midi":69,"velocity":65,"channel":13,"program":81},{"beat":124.0,"duration":3.97917,"midi":73,"velocity":84,"channel":7,"program":51},{"beat":124.0,"duration":0.5625,"midi":81,"velocity":98,"channel":0,"program":22},{"beat":124.0,"duration":3.97917,"midi":85,"velocity":74,"channel":7,"program":51},{"beat":124.02083,"duration":0.95833,"midi":52,"velocity":86,"channel":3,"program":27},{"beat":124.02083,"duration":0.95833,"midi":52,"velocity":86,"channel":4,"program":29},{"beat":124.02083,"duration":0.95833,"midi":52,"velocity":86,"channel":5,"program":30},{"beat":124.02083,"duration":0.95833,"midi":57,"velocity":90,"channel":6,"program":29},{"beat":124.02083,"duration":0.95833,"midi":57,"velocity":96,"channel":12,"program":25},{"beat":124.04167,"duration":0.9375,"midi":57,"velocity":84,"channel":3,"program":27},{"beat":124.04167,"duration":0.9375,"midi":57,"velocity":84,"channel":4,"program":29},{"beat":124.04167,"duration":0.9375,"midi":57,"velocity":89,"channel":5,"program":30},{"beat":124.04167,"duration":0.9375,"midi":61,"velocity":90,"channel":12,"program":25},{"beat":124.5,"duration":0.47917,"midi":33,"velocity":82,"channel":2,"program":33},{"beat":124.5,"duration":0.22917,"midi":69,"velocity":70,"channel":13,"program":81},{"beat":125.0,"duration":0.47917,"midi":33,"velocity":94,"channel":2,"program":33},{"beat":125.0,"duration":0.47917,"midi":45,"velocity":84,"channel":3,"program":27},{"beat":125.0,"duration":0.47917,"midi":45,"velocity":88,"channel":4,"program":29},{"beat":125.0,"duration":0.47917,"midi":45,"velocity":84,"channel":5,"program":30},{"beat":125.0,"duration":0.89583,"midi":50,"velocity":87,"channel":1,"program":52},{"beat":125.0,"duration":0.47917,"midi":61,"velocity":86,"channel":3,"program":27},{"beat":125.0,"duration":0.22917,"midi":69,"velocity":83,"channel":13,"program":81},{"beat":125.0,"duration":0.97917,"midi":73,"velocity":80,"channel":6,"program":29},{"beat":125.0,"duration":0.89583,"midi":74,"velocity":99,"channel":0,"program":22},{"beat":125.02083,"duration":0.45833,"midi":52,"velocity":90,"channel":3,"program":27},{"beat":125.02083,"duration":0.45833,"midi":52,"velocity":86,"channel":4,"program":29},{"beat":125.02083,"duration":0.45833,"midi":52,"velocity":88,"channel":5,"program":30},{"beat":125.02083,"duration":0.45833,"midi":57,"velocity":98,"channel":12,"program":25},{"beat":125.02083,"duration":0.45833,"midi":61,"velocity":88,"channel":6,"program":29},{"beat":125.04167,"duration":0.4375,"midi":57,"velocity":86,"channel":3,"program":27},{"beat":125.04167,"duration":0.4375,"midi":57,"velocity":77,"channel":4,"program":29},{"beat":125.04167,"duration":0.4375,"midi":57,"velocity":88,"channel":5,"program":30},{"beat":125.04167,"duration":0.4375,"midi":61,"velocity":98,"channel":12,"program":25},{"beat":125.5,"duration":0.47917,"midi":33,"velocity":85,"channel":2,"program":33},{"beat":125.5,"duration":0.97917,"midi":45,"velocity":81,"channel":3,"program":27},{"beat":125.5,"duration":0.97917,"midi":45,"velocity":90,"channel":4,"program":29},{"beat":125.5,"duration":0.97917,"midi":45,"velocity":88,"channel":5,"program":30},{"beat":125.5,"duration":1.97917,"midi":52,"velocity":85,"channel":6,"program":29},{"beat":125.5,"duration":0.22917,"midi":69,"velocity":73,"channel":13,"program":81},{"beat":125.52083,"duration":0.95833,"midi":52,"velocity":80,"channel":3,"program":27},{"beat":125.52083,"duration":0.95833,"midi":52,"velocity":87,"channel":4,"program":29},{"beat":125.52083,"duration":0.95833,"midi":52,"velocity":86,"channel":5,"program":30},{"beat":125.52083,"duration":0.95833,"midi":57,"velocity":84,"channel":6,"program":29},{"beat":125.52083,"duration":0.45833,"midi":57,"velocity":87,"channel":12,"program":25},{"beat":125.54167,"duration":0.9375,"midi":57,"velocity":78,"channel":3,"program":27},{"beat":125.54167,"duration":0.9375,"midi":57,"velocity":80,"channel":4,"program":29},{"beat":125.54167,"duration":0.9375,"midi":57,"velocity":85,"channel":5,"program":30},{"beat":125.54167,"duration":0.4375,"midi":61,"velocity":85,"channel":12,"program":25},{"beat":126.0,"duration":0.47917,"midi":33,"velocity":93,"channel":2,"program":33},{"beat":126.0,"duration":0.89583,"midi":54,"velocity":89,"channel":1,"program":52},{"beat":126.0,"duration":0.22917,"midi":69,"velocity":78,"channel":13,"program":81},{"beat":126.0,"duration":0.89583,"midi":78,"velocity":101,"channel":0,"program":22},{"beat":126.02083,"duration":0.45833,"midi":57,"velocity":91,"channel":12,"program":25},{"beat":126.04167,"duration":0.4375,"midi":61,"velocity":90,"channel":12,"program":25},{"beat":126.5,"duration":0.47917,"midi":33,"velocity":92,"channel":2,"program":33},{"beat":126.5,"duration":0.97917,"midi":45,"velocity":85,"channel":3,"program":27},{"beat":126.5,"duration":0.97917,"midi":45,"velocity":89,"channel":4,"program":29},{"beat":126.5,"duration":0.47917,"midi":45,"velocity":90,"channel":5,"program":30},{"beat":126.5,"duration":0.22917,"midi":69,"velocity":77,"channel":13,"program":81},{"beat":126.5,"duration":0.72917,"midi":73,"velocity":80,"channel":6,"program":29},{"beat":126.52083,"duration":0.95833,"midi":52,"velocity":85,"channel":3,"program":27},{"beat":126.52083,"duration":0.95833,"midi":52,"velocity":87,"channel":4,"program":29},{"beat":126.52083,"duration":0.45833,"midi":52,"velocity":84,"channel":5,"program":30},{"beat":126.52083,"duration":0.95833,"midi":57,"velocity":90,"channel":12,"program":25},{"beat":126.52083,"duration":0.45833,"midi":61,"velocity":84,"channel":6,"program":29},{"beat":126.54167,"duration":0.9375,"midi":57,"velocity":89,"channel":3,"program":27},{"beat":126.54167,"duration":0.9375,"midi":57,"velocity":80,"channel":4,"program":29},{"beat":126.54167,"duration":0.4375,"midi":57,"velocity":85,"channel":5,"program":30},{"beat":126.54167,"duration":0.9375,"midi":61,"velocity":89,"channel":12,"program":25},{"beat":127.0,"duration":0.47917,"midi":33,"velocity":101,"channel":2,"program":33},{"beat":127.0,"duration":0.47917,"midi":45,"velocity":90,"channel":5,"program":30},{"beat":127.0,"duration":1.47917,"midi":54,"velocity":89,"channel":1,"program":52},{"beat":127.0,"duration":0.22917,"midi":69,"velocity":86,"channel":13,"program":81},{"beat":127.0,"duration":1.47917,"midi":78,"velocity":101,"channel":0,"program":22},{"beat":127.02083,"duration":0.45833,"midi":52,"velocity":89,"channel":5,"program":30},{"beat":127.02083,"duration":0.45833,"midi":57,"velocity":90,"channel":6,"program":29},{"beat":127.04167,"duration":0.4375,"midi":57,"velocity":88,"channel":5,"program":30},{"beat":127.5,"duration":0.47917,"midi":33,"velocity":90,"channel":2,"program":33},{"beat":127.5,"duration":0.22917,"midi":45,"velocity":78,"channel":3,"program":27},{"beat":127.5,"duration":0.22917,"midi":45,"velocity":80,"channel":4,"program":29},{"beat":127.5,"duration":0.22917,"midi":45,"velocity":90,"channel":5,"program":30},{"beat":127.5,"duration":0.22917,"midi":52,"velocity":88,"channel":6,"program":29},{"beat":127.5,"duration":0.22917,"midi":69,"velocity":75,"channel":13,"program":81},{"beat":127.52083,"duration":0.20833,"midi":52,"velocity":82,"channel":3,"program":27},{"beat":127.52083,"duration":0.20833,"midi":52,"velocity":79,"channel":4,"program":29},{"beat":127.52083,"duration":0.20833,"midi":52,"velocity":88,"channel":5,"program":30},{"beat":127.52083,"duration":0.20833,"midi":57,"velocity":85,"channel":6,"program":29},{"beat":127.52083,"duration":0.20833,"midi":57,"velocity":89,"channel":12,"program":25},{"beat":127.54167,"duration":0.1875,"midi":57,"velocity":81,"channel":3,"program":27},{"beat":127.54167,"duration":0.4375,"midi":57,"velocity":81,"channel":4,"program":29},{"beat":127.54167,"duration":0.1875,"midi":57,"velocity":90,"channel":5,"program":30},{"beat":127.54167,"duration":0.1875,"midi":61,"velocity":87,"channel":12,"program":25},{"beat":127.75,"duration":0.22917,"midi":45,"velocity":80,"channel":3,"program":27},{"beat":127.75,"duration":0.22917,"midi":45,"velocity":77,"channel":4,"program":29},{"beat":127.75,"duration":0.22917,"midi":45,"velocity":87,"channel":5,"program":30},{"beat":127.75,"duration":0.22917,"midi":52,"velocity":79,"channel":6,"program":29},{"beat":127.77083,"duration":0.20833,"midi":52,"velocity":81,"channel":3,"program":27},{"beat":127.77083,"duration":0.20833,"midi":52,"velocity":78,"channel":4,"program":29},{"beat":127.77083,"duration":0.20833,"midi":52,"velocity":84,"channel":5,"program":30},{"beat":127.77083,"duration":0.20833,"midi":57,"velocity":75,"channel":6,"program":29},{"beat":127.77083,"duration":0.20833,"midi":57,"velocity":86,"channel":12,"program":25},{"beat":127.79167,"duration":0.1875,"midi":57,"velocity":79,"channel":3,"program":27},{"beat":127.79167,"duration":0.1875,"midi":57,"velocity":89,"channel":5,"program":30},{"beat":127.79167,"duration":0.1875,"midi":61,"velocity":87,"channel":12,"program":25},{"beat":128.0,"duration":0.47917,"midi":35,"velocity":98,"channel":2,"program":33},{"beat":128.0,"duration":0.97917,"midi":47,"velocity":88,"channel":3,"program":27},{"beat":128.0,"duration":0.97917,"midi":47,"velocity":85,"channel":4,"program":29},{"beat":128.0,"duration":0.97917,"midi":47,"velocity":87,"channel":5,"program":30},{"beat":128.0,"duration":0.97917,"midi":54,"velocity":85,"channel":6,"program":29},{"beat":128.0,"duration":0.47917,"midi":62,"velocity":87,"channel":3,"program":27},{"beat":128.0,"duration":0.47917,"midi":66,"velocity":89,"channel":14,"program":29},{"beat":128.0,"duration":0.22917,"midi":69,"velocity":82,"channel":13,"program":81},{"beat":128.0,"duration":3.97917,"midi":74,"velocity":90,"channel":7,"program":51},{"beat":128.0,"duration":3.97917,"midi":86,"velocity":76,"channel":7,"program":51},{"beat":128.02083,"duration":0.95833,"midi":54,"velocity":85,"channel":3,"program":27},{"beat":128.02083,"duration":0.95833,"midi":54,"velocity":85,"channel":4,"program":29},{"beat":128.02083,"duration":0.95833,"midi":54,"velocity":90,"channel":5,"program":30},{"beat":128.02083,"duration":0.45833,"midi":57,"velocity":88,"channel":6,"program":29},{"beat":128.02083,"duration":0.45833,"midi":57,"velocity":98,"channel":12,"program":25},{"beat":128.04167,"duration":0.9375,"midi":57,"velocity":85,"channel":3,"program":27},{"beat":128.04167,"duration":0.9375,"midi":57,"velocity":64,"channel":4,"program":29},{"beat":128.04167,"duration":0.9375,"midi":57,"velocity":87,"channel":5,"program":30},{"beat":128.04167,"duration":0.9375,"midi":62,"velocity":97,"channel":12,"program":25},{"beat":128.5,"duration":0.47917,"midi":35,"velocity":95,"channel":2,"program":33},{"beat":128.5,"duration":0.47917,"midi":52,"velocity":86,"channel":1,"program":52},{"beat":128.5,"duration":0.47917,"midi":59,"velocity":85,"channel":3,"program":27},{"beat":128.5,"duration":0.22917,"midi":69,"velocity":69,"channel":13,"program":81},{"beat":128.5,"duration":0.47917,"midi":71,"velocity":80,"channel":14,"program":29},{"beat":128.5,"duration":0.47917,"midi":76,"velocity":101,"channel":0,"program":22},{"beat":128.52083,"duration":0.45833,"midi":59,"velocity":84,"channel":6,"program":29},{"beat":128.52083,"duration":0.45833,"midi":59,"velocity":83,"channel":12,"program":25},{"beat":129.0,"duration":0.47917,"midi":35,"velocity":98,"channel":2,"program":33},{"beat":129.0,"duration":0.47917,"midi":47,"velocity":76,"channel":3,"program":27},{"beat":129.0,"duration":0.47917,"midi":47,"velocity":88,"channel":4,"program":29},{"beat":129.0,"duration":0.47917,"midi":47,"velocity":90,"channel":5,"program":30},{"beat":129.0,"duration":2.22917,"midi":50,"velocity":90,"channel":1,"program":52},{"beat":129.0,"duration":0.47917,"midi":54,"velocity":88,"channel":6,"program":29},{"beat":129.0,"duration":0.22917,"midi":69,"velocity":84,"channel":13,"program":81},{"beat":129.0,"duration":0.47917,"midi":71,"velocity":87,"channel":3,"program":27},{"beat":129.0,"duration":0.47917,"midi":71,"velocity":90,"channel":14,"program":29},{"beat":129.0,"duration":2.22917,"midi":74,"velocity":102,"channel":0,"program":22},{"beat":129.02083,"duration":0.45833,"midi":54,"velocity":76,"channel":3,"program":27},{"beat":129.02083,"duration":0.45833,"midi":54,"velocity":79,"channel":4,"program":29},{"beat":129.02083,"duration":0.45833,"midi":54,"velocity":84,"channel":5,"program":30},{"beat":129.02083,"duration":0.20833,"midi":59,"velocity":86,"channel":6,"program":29},{"beat":129.02083,"duration":0.45833,"midi":59,"velocity":95,"channel":12,"program":25},{"beat":129.04167,"duration":0.4375,"midi":57,"velocity":81,"channel":3,"program":27},{"beat":129.04167,"duration":0.4375,"midi":57,"velocity":64,"channel":4,"program":29},{"beat":129.04167,"duration":0.4375,"midi":57,"velocity":84,"channel":5,"program":30},{"beat":129.04167,"duration":0.4375,"midi":62,"velocity":101,"channel":12,"program":25},{"beat":129.5,"duration":0.47917,"midi":38,"velocity":83,"channel":2,"program":33},{"beat":129.5,"duration":0.97917,"midi":47,"velocity":80,"channel":3,"program":27},{"beat":129.5,"duration":0.97917,"midi":47,"velocity":89,"channel":4,"program":29},{"beat":129.5,"duration":0.97917,"midi":47,"velocity":84,"channel":5,"program":30},{"beat":129.5,"duration":0.97917,"midi":54,"velocity":88,"channel":6,"program":29},{"beat":129.5,"duration":0.97917,"midi":62,"velocity":87,"channel":3,"program":27},{"beat":129.5,"duration":0.97917,"midi":62,"velocity":86,"channel":14,"program":29},{"beat":129.5,"duration":0.22917,"midi":69,"velocity":71,"channel":13,"program":81},{"beat":129.52083,"duration":0.95833,"midi":54,"velocity":81,"channel":3,"program":27},{"beat":129.52083,"duration":0.95833,"midi":54,"velocity":90,"channel":4,"program":29},{"beat":129.52083,"duration":0.95833,"midi":54,"velocity":88,"channel":5,"program":30},{"beat":129.52083,"duration":0.95833,"midi":57,"velocity":86,"channel":6,"program":29},{"beat":129.52083,"duration":0.45833,"midi":59,"velocity":81,"channel":12,"program":25},{"beat":129.54167,"duration":0.9375,"midi":57,"velocity":82,"channel":3,"program":27},{"beat":129.54167,"duration":0.9375,"midi":57,"velocity":88,"channel":5,"program":30},{"beat":129.54167,"duration":0.4375,"midi":62,"velocity":84,"channel":12,"program":25},{"beat":130.0,"duration":0.47917,"midi":42,"velocity":95,"channel":2,"program":33},{"beat":130.0,"duration":0.22917,"midi":69,"velocity":76,"channel":13,"program":81},{"beat":130.02083,"duration":0.45833,"midi":59,"velocity":86,"channel":12,"program":25},{"beat":130.04167,"duration":0.4375,"midi":62,"velocity":91,"channel":12,"program":25},{"beat":130.5,"duration":0.47917,"midi":42,"velocity":84,"channel":2,"program":33},{"beat":130.5,"duration":0.97917,"midi":47,"velocity":86,"channel":3,"program":27},{"beat":130.5,"duration":0.47917,"midi":47,"velocity":87,"channel":4,"program":29},{"beat":130.5,"duration":0.97917,"midi":47,"velocity":89,"channel":5,"program":30},{"beat":130.5,"duration":0.47917,"midi":54,"velocity":90,"channel":6,"program":29},{"beat":130.5,"duration":0.47917,"midi":64,"velocity":87,"channel":3,"program":27},{"beat":130.5,"duration":0.97917,"midi":64,"velocity":84,"channel":14,"program":29},{"beat":130.5,"duration":0.22917,"midi":69,"velocity":71,"channel":13,"program":81},{"beat":130.52083,"duration":0.95833,"midi":54,"velocity":84,"channel":3,"program":27},{"beat":130.52083,"duration":0.45833,"midi":54,"velocity":80,"channel":4,"program":29},{"beat":130.52083,"duration":0.95833,"midi":54,"velocity":84,"channel":5,"program":30},{"beat":130.52083,"duration":0.45833,"midi":59,"velocity":88,"channel":6,"program":29},{"beat":130.52083,"duration":0.95833,"midi":59,"velocity":86,"channel":12,"program":25},{"beat":130.54167,"duration":0.9375,"midi":57,"velocity":88,"channel":3,"program":27},{"beat":130.54167,"duration":0.9375,"midi":57,"velocity":89,"channel":5,"program":30},{"beat":130.54167,"duration":0.9375,"midi":62,"velocity":88,"channel":12,"program":25},{"beat":131.0,"duration":0.47917,"midi":42,"velocity":95,"channel":2,"program":33},{"beat":131.0,"duration":0.72917,"midi":47,"velocity":89,"channel":4,"program":29},{"beat":131.0,"duration":0.97917,"midi":54,"velocity":90,"channel":6,"program":29},{"beat":131.0,"duration":0.47917,"midi":61,"velocity":85,"channel":3,"program":27},{"beat":131.0,"duration":0.22917,"midi":69,"velocity":80,"channel":13,"program":81},{"beat":131.02083,"duration":0.70833,"midi":54,"velocity":86,"channel":4,"program":29},{"beat":131.02083,"duration":0.70833,"midi":57,"velocity":90,"channel":6,"program":29},{"beat":131.5,"duration":0.47917,"midi":35,"velocity":86,"channel":2,"program":33},{"beat":131.5,"duration":0.47917,"midi":47,"velocity":81,"channel":3,"program":27},{"beat":131.5,"duration":0.22917,"midi":47,"velocity":86,"channel":5,"program":30},{"beat":131.5,"duration":0.47917,"midi":62,"velocity":90,"channel":3,"program":27},{"beat":131.5,"duration":0.47917,"midi":62,"velocity":88,"channel":14,"program":29},{"beat":131.5,"duration":0.22917,"midi":69,"velocity":71,"channel":13,"program":81},{"beat":131.52083,"duration":0.45833,"midi":54,"velocity":80,"channel":3,"program":27},{"beat":131.52083,"duration":0.20833,"midi":54,"velocity":88,"channel":5,"program":30},{"beat":131.52083,"duration":0.20833,"midi":59,"velocity":87,"channel":12,"program":25},{"beat":131.54167,"duration":0.4375,"midi":57,"velocity":81,"channel":3,"program":27},{"beat":131.54167,"duration":0.1875,"midi":57,"velocity":90,"channel":5,"program":30},{"beat":131.54167,"duration":0.1875,"midi":62,"velocity":84,"channel":12,"program":25},{"beat":131.75,"duration":0.22917,"midi":47,"velocity":83,"channel":4,"program":29},{"beat":131.75,"duration":0.22917,"midi":47,"velocity":84,"channel":5,"program":30},{"beat":131.77083,"duration":0.20833,"midi":54,"velocity":77,"channel":4,"program":29},{"beat":131.77083,"duration":0.20833,"midi":54,"velocity":88,"channel":5,"program":30},{"beat":131.77083,"duration":0.20833,"midi":57,"velocity":85,"channel":6,"program":29},{"beat":131.77083,"duration":0.20833,"midi":59,"velocity":85,"channel":12,"program":25},{"beat":131.79167,"duration":0.1875,"midi":57,"velocity":87,"channel":5,"program":30},{"beat":131.79167,"duration":0.1875,"midi":62,"velocity":81,"channel":12,"program":25},{"beat":132.0,"duration":0.47917,"midi":38,"velocity":94,"channel":2,"program":33},{"beat":132.0,"duration":0.97917,"midi":50,"velocity":86,"channel":3,"program":27},{"beat":132.0,"duration":0.97917,"midi":50,"velocity":86,"channel":4,"program":29},{"beat":132.0,"duration":0.97917,"midi":50,"velocity":88,"channel":5,"program":30},{"beat":132.0,"duration":1.47917,"midi":50,"velocity":90,"channel":6,"program":29},{"beat":132.0,"duration":0.47917,"midi":61,"velocity":90,"channel":14,"program":29},{"beat":132.0,"duration":1.97917,"midi":69,"velocity":88,"channel":7,"program":51},{"beat":132.0,"duration":0.22917,"midi":69,"velocity":65,"channel":13,"program":81},{"beat":132.0,"duration":1.97917,"midi":83,"velocity":84,"channel":7,"program":51},{"beat":132.0,"duration":1.97917,"midi":95,"velocity":78,"channel":7,"program":51},{"beat":132.02083,"duration":0.95833,"midi":54,"velocity":87,"channel":3,"program":27},{"beat":132.02083,"duration":0.95833,"midi":57,"velocity":87,"channel":4,"program":29},{"beat":132.02083,"duration":0.95833,"midi":57,"velocity":85,"channel":5,"program":30},{"beat":132.02083,"duration":0.95833,"midi":57,"velocity":90,"channel":6,"program":29},{"beat":132.02083,"duration":0.95833,"midi":57,"velocity":97,"channel":12,"program":25},{"beat":132.04167,"duration":0.4375,"midi":62,"velocity":85,"channel":3,"program":27},{"beat":132.04167,"duration":0.4375,"midi":62,"velocity":96,"channel":12,"program":25},{"beat":132.5,"duration":0.47917,"midi":38,"velocity":84,"channel":2,"program":33},{"beat":132.5,"duration":0.47917,"midi":54,"velocity":90,"channel":1,"program":52},{"beat":132.5,"duration":0.47917,"midi":61,"velocity":89,"channel":3,"program":27},{"beat":132.5,"duration":0.47917,"midi":61,"velocity":85,"channel":14,"program":29},{"beat":132.5,"duration":0.22917,"midi":69,"velocity":70,"channel":13,"program":81},{"beat":132.5,"duration":0.47917,"midi":78,"velocity":102,"channel":0,"program":22},{"beat":132.54167,"duration":0.4375,"midi":61,"velocity":86,"channel":12,"program":25},{"beat":133.0,"duration":0.47917,"midi":38,"velocity":95,"channel":2,"program":33},{"beat":133.0,"duration":0.47917,"midi":50,"velocity":82,"channel":3,"program":27},{"beat":133.0,"duration":0.47917,"midi":50,"velocity":90,"channel":4,"program":29},{"beat":133.0,"duration":0.47917,"midi":50,"velocity":90,"channel":5,"program":30},{"beat":133.0,"duration":0.47917,"midi":54,"velocity":90,"channel":1,"program":52},{"beat":133.0,"duration":0.39583,"midi":59,"velocity":90,"channel":14,"program":29},{"beat":133.0,"duration":0.22917,"midi":69,"velocity":83,"channel":13,"program":81},{"beat":133.0,"duration":0.47917,"midi":78,"velocity":100,"channel":0,"program":22},{"beat":133.02083,"duration":0.45833,"midi":54,"velocity":82,"channel":3,"program":27},{"beat":133.02083,"duration":0.45833,"midi":57,"velocity":83,"channel":4,"program":29},{"beat":133.02083,"duration":0.45833,"midi":57,"velocity":89,"channel":5,"program":30},{"beat":133.02083,"duration":0.45833,"midi":57,"velocity":86,"channel":6,"program":29},{"beat":133.02083,"duration":0.45833,"midi":57,"velocity":98,"channel":12,"program":25},{"beat":133.04167,"duration":0.3125,"midi":59,"velocity":88,"channel":3,"program":27},{"beat":133.04167,"duration":0.4375,"midi":59,"velocity":94,"channel":12,"program":25},{"beat":133.5,"duration":0.47917,"midi":40,"velocity":86,"channel":2,"program":33},{"beat":133.5,"duration":0.97917,"midi":50,"velocity":78,"channel":3,"program":27},{"beat":133.5,"duration":0.97917,"midi":50,"velocity":86,"channel":4,"program":29},{"beat":133.5,"duration":0.97917,"midi":50,"velocity":86,"channel":5,"program":30},{"beat":133.5,"duration":0.97917,"midi":50,"velocity":85,"channel":6,"program":29},{"beat":133.5,"duration":0.47917,"midi":54,"velocity":90,"channel":1,"program":52},{"beat":133.5,"duration":0.97917,"midi":59,"velocity":89,"channel":14,"program":29},{"beat":133.5,"duration":0.22917,"midi":69,"velocity":73,"channel":13,"program":81},{"beat":133.5,"duration":0.47917,"midi":78,"velocity":102,"channel":0,"program":22},{"beat":133.52083,"duration":0.95833,"midi":54,"velocity":81,"channel":3,"program":27},{"beat":133.52083,"duration":0.95833,"midi":57,"velocity":89,"channel":4,"program":29},{"beat":133.52083,"duration":0.95833,"midi":57,"velocity":90,"channel":5,"program":30},{"beat":133.52083,"duration":0.95833,"midi":57,"velocity":88,"channel":6,"program":29},{"beat":133.52083,"duration":0.45833,"midi":57,"velocity":89,"channel":12,"program":25},{"beat":133.54167,"duration":0.9375,"midi":59,"velocity":90,"channel":3,"program":27},{"beat":133.54167,"duration":0.4375,"midi":59,"velocity":84,"channel":12,"program":25},{"beat":134.0,"duration":0.47917,"midi":45,"velocity":98,"channel":2,"program":33},{"beat":134.0,"duration":0.5625,"midi":54,"velocity":88,"channel":1,"program":52},{"beat":134.0,"duration":1.97917,"midi":69,"velocity":88,"channel":7,"program":51},{"beat":134.0,"duration":0.22917,"midi":69,"velocity":78,"channel":13,"program":81},{"beat":134.0,"duration":0.5625,"midi":78,"velocity":100,"channel":0,"program":22},{"beat":134.0,"duration":1.97917,"midi":81,"velocity":87,"channel":7,"program":51},{"beat":134.0,"duration":1.97917,"midi":93,"velocity":76,"channel":7,"program":51},{"beat":134.02083,"duration":0.45833,"midi":57,"velocity":90,"channel":12,"program":25},{"beat":134.5,"duration":0.47917,"midi":45,"velocity":94,"channel":2,"program":33},{"beat":134.5,"duration":1.47917,"midi":50,"velocity":89,"channel":3,"program":27},{"beat":134.5,"duration":0.47917,"midi":50,"velocity":86,"channel":4,"program":29},{"beat":134.5,"duration":0.47917,"midi":50,"velocity":87,"channel":5,"program":30},{"beat":134.5,"duration":0.47917,"midi":50,"velocity":84,"channel":6,"program":29},{"beat":134.5,"duration":0.97917,"midi":57,"velocity":86,"channel":14,"program":29},{"beat":134.5,"duration":0.22917,"midi":69,"velocity":77,"channel":13,"program":81},{"beat":134.52083,"duration":1.45833,"midi":54,"velocity":80,"channel":3,"program":27},{"beat":134.52083,"duration":0.45833,"midi":57,"velocity":82,"channel":4,"program":29},{"beat":134.52083,"duration":0.45833,"midi":57,"velocity":90,"channel":5,"program":30},{"beat":134.52083,"duration":0.95833,"midi":57,"velocity":91,"channel":12,"program":25},{"beat":134.54167,"duration":0.9375,"midi":57,"velocity":87,"channel":3,"program":27},{"beat":134.54167,"duration":0.4375,"midi":59,"velocity":91,"channel":12,"program":25},{"beat":135.0,"duration":0.97917,"midi":45,"velocity":95,"channel":2,"program":33},{"beat":135.0,"duration":0.97917,"midi":50,"velocity":88,"channel":4,"program":29},{"beat":135.0,"duration":0.97917,"midi":50,"velocity":85,"channel":5,"program":30},{"beat":135.0,"duration":0.97917,"midi":50,"velocity":90,"channel":6,"program":29},{"beat":135.0,"duration":0.47917,"midi":52,"velocity":88,"channel":1,"program":52},{"beat":135.0,"duration":0.22917,"midi":69,"velocity":86,"channel":13,"program":81},{"beat":135.0,"duration":0.47917,"midi":76,"velocity":101,"channel":0,"program":22},{"beat":135.02083,"duration":0.95833,"midi":57,"velocity":79,"channel":4,"program":29},{"beat":135.02083,"duration":0.95833,"midi":57,"velocity":88,"channel":5,"program":30},{"beat":135.5,"duration":0.47917,"midi":50,"velocity":88,"channel":1,"program":52},{"beat":135.5,"duration":0.47917,"midi":57,"velocity":86,"channel":6,"program":29},{"beat":135.5,"duration":0.47917,"midi":59,"velocity":84,"channel":3,"program":27},{"beat":135.5,"duration":0.47917,"midi":59,"velocity":84,"channel":14,"program":29},{"beat":135.5,"duration":0.22917,"midi":69,"velocity":75,"channel":13,"program":81},{"beat":135.5,"duration":0.47917,"midi":74,"velocity":99,"channel":0,"program":22},{"beat":135.52083,"duration":0.45833,"midi":55,"velocity":89,"channel":12,"program":25},{"beat":135.54167,"duration":0.4375,"midi":59,"velocity":88,"channel":12,"program":25},{"beat":136.0,"duration":0.97917,"midi":31,"velocity":97,"channel":2,"program":33},{"beat":136.0,"duration":0.97917,"midi":43,"velocity":84,"channel":3,"program":27},{"beat":136.0,"duration":0.97917,"midi":43,"velocity":73,"channel":4,"program":29},{"beat":136.0,"duration":0.97917,"midi":43,"velocity":88,"channel":5,"program":30},{"beat":136.0,"duration":0.72917,"midi":50,"velocity":88,"channel":1,"program":52},{"beat":136.0,"duration":0.97917,"midi":50,"velocity":90,"channel":6,"program":29},{"beat":136.0,"duration":0.72917,"midi":62,"velocity":90,"channel":1,"program":52},{"beat":136.0,"duration":0.22917,"midi":69,"velocity":82,"channel":13,"program":81},{"beat":136.0,"duration":0.72917,"midi":74,"velocity":102,"channel":0,"program":22},{"beat":136.0,"duration":3.97917,"midi":74,"velocity":90,"channel":7,"program":51},{"beat":136.0,"duration":3.97917,"midi":86,"velocity":75,"channel":7,"program":51},{"beat":136.02083,"duration":0.95833,"midi":50,"velocity":88,"channel":3,"program":27},{"beat":136.02083,"duration":0.95833,"midi":50,"velocity":84,"channel":4,"program":29},{"beat":136.02083,"duration":0.95833,"midi":50,"velocity":87,"channel":5,"program":30},{"beat":136.02083,"duration":0.95833,"midi":55,"velocity":85,"channel":5,"program":30},{"beat":136.02083,"duration":0.95833,"midi":55,"velocity":88,"channel":6,"program":29},{"beat":136.02083,"duration":0.95833,"midi":57,"velocity":94,"channel":12,"program":25},{"beat":136.04167,"duration":0.9375,"midi":55,"velocity":87,"channel":3,"program":27},{"beat":136.04167,"duration":0.9375,"midi":55,"velocity":88,"channel":4,"program":29},{"beat":136.04167,"duration":0.9375,"midi":59,"velocity":89,"channel":5,"program":30},{"beat":136.04167,"duration":0.9375,"midi":62,"velocity":97,"channel":12,"program":25},{"beat":136.5,"duration":0.22917,"midi":69,"velocity":69,"channel":13,"program":81},{"beat":137.0,"duration":0.47917,"midi":31,"velocity":93,"channel":2,"program":33},{"beat":137.0,"duration":0.47917,"midi":43,"velocity":88,"channel":3,"program":27},{"beat":137.0,"duration":0.47917,"midi":43,"velocity":71,"channel":4,"program":29},{"beat":137.0,"duration":0.47917,"midi":43,"velocity":86,"channel":5,"program":30},{"beat":137.0,"duration":0.97917,"midi":52,"velocity":89,"channel":1,"program":52},{"beat":137.0,"duration":0.97917,"midi":62,"velocity":87,"channel":1,"program":52},{"beat":137.0,"duration":0.22917,"midi":69,"velocity":84,"channel":13,"program":81},{"beat":137.0,"duration":0.97917,"midi":76,"velocity":102,"channel":0,"program":22},{"beat":137.02083,"duration":0.45833,"midi":50,"velocity":89,"channel":3,"program":27},{"beat":137.02083,"duration":0.45833,"midi":50,"velocity":85,"channel":4,"program":29},{"beat":137.02083,"duration":0.45833,"midi":50,"velocity":90,"channel":5,"program":30},{"beat":137.02083,"duration":0.45833,"midi":55,"velocity":85,"channel":5,"program":30},{"beat":137.02083,"duration":0.45833,"midi":57,"velocity":96,"channel":12,"program":25},{"beat":137.02083,"duration":0.45833,"midi":62,"velocity":88,"channel":3,"program":27},{"beat":137.02083,"duration":0.45833,"midi":62,"velocity":87,"channel":6,"program":29},{"beat":137.04167,"duration":0.4375,"midi":55,"velocity":89,"channel":3,"program":27},{"beat":137.04167,"duration":0.4375,"midi":55,"velocity":88,"channel":4,"program":29},{"beat":137.04167,"duration":0.4375,"midi":59,"velocity":85,"channel":5,"program":30},{"beat":137.04167,"duration":0.4375,"midi":62,"velocity":93,"channel":12,"program":25},{"beat":137.5,"duration":0.47917,"midi":31,"velocity":90,"channel":2,"program":33},{"beat":137.5,"duration":0.97917,"midi":43,"velocity":79,"channel":3,"program":27},{"beat":137.5,"duration":0.97917,"midi":43,"velocity":64,"channel":4,"program":29},{"beat":137.5,"duration":0.97917,"midi":43,"velocity":86,"channel":5,"program":30},{"beat":137.5,"duration":2.47917,"midi":50,"velocity":86,"channel":6,"program":29},{"beat":137.5,"duration":0.97917,"midi":55,"velocity":88,"channel":6,"program":29},{"beat":137.5,"duration":0.22917,"midi":69,"velocity":71,"channel":13,"program":81},{"beat":137.52083,"duration":0.95833,"midi":50,"velocity":77,"channel":3,"program":27},{"beat":137.52083,"duration":0.45833,"midi":50,"velocity":85,"channel":4,"program":29},{"beat":137.52083,"duration":0.95833,"midi":50,"velocity":90,"channel":5,"program":30},{"beat":137.52083,"duration":0.95833,"midi":55,"velocity":88,"channel":5,"program":30},{"beat":137.52083,"duration":0.45833,"midi":57,"velocity":82,"channel":12,"program":25},{"beat":137.52083,"duration":0.95833,"midi":59,"velocity":89,"channel":6,"program":29},{"beat":137.54167,"duration":0.9375,"midi":55,"velocity":76,"channel":3,"program":27},{"beat":137.54167,"duration":0.4375,"midi":55,"velocity":88,"channel":4,"program":29},{"beat":137.54167,"duration":0.9375,"midi":59,"velocity":86,"channel":5,"program":30},{"beat":137.54167,"duration":0.4375,"midi":62,"velocity":83,"channel":12,"program":25},{"beat":138.0,"duration":0.47917,"midi":31,"velocity":92,"channel":2,"program":33},{"beat":138.0,"duration":0.97917,"midi":54,"velocity":90,"channel":1,"program":52},{"beat":138.0,"duration":0.97917,"midi":62,"velocity":88,"channel":1,"program":52},{"beat":138.0,"duration":0.22917,"midi":69,"velocity":76,"channel":13,"program":81},{"beat":138.0,"duration":0.97917,"midi":78,"velocity":101,"channel":0,"program":22},{"beat":138.02083,"duration":0.45833,"midi":50,"velocity":84,"channel":4,"program":29},{"beat":138.02083,"duration":0.45833,"midi":57,"velocity":88,"channel":12,"program":25},{"beat":138.04167,"duration":0.4375,"midi":55,"velocity":85,"channel":4,"program":29},{"beat":138.04167,"duration":0.4375,"midi":62,"velocity":92,"channel":12,"program":25},{"beat":138.5,"duration":0.47917,"midi":31,"velocity":93,"channel":2,"program":33},{"beat":138.5,"duration":0.97917,"midi":43,"velocity":87,"channel":3,"program":27},{"beat":138.5,"duration":1.47917,"midi":43,"velocity":67,"channel":4,"program":29},{"beat":138.5,"duration":0.47917,"midi":43,"velocity":88,"channel":5,"program":30},{"beat":138.5,"duration":0.47917,"midi":57,"velocity":87,"channel":6,"program":29},{"beat":138.5,"duration":0.22917,"midi":69,"velocity":71,"channel":13,"program":81},{"beat":138.52083,"duration":0.95833,"midi":50,"velocity":86,"channel":3,"program":27},{"beat":138.52083,"duration":0.95833,"midi":50,"velocity":89,"channel":4,"program":29},{"beat":138.52083,"duration":0.45833,"midi":50,"velocity":84,"channel":5,"program":30},{"beat":138.52083,"duration":0.95833,"midi":57,"velocity":87,"channel":12,"program":25},{"beat":138.52083,"duration":0.45833,"midi":62,"velocity":89,"channel":6,"program":29},{"beat":138.54167,"duration":0.9375,"midi":55,"velocity":85,"channel":3,"program":27},{"beat":138.54167,"duration":0.9375,"midi":55,"velocity":88,"channel":4,"program":29},{"beat":138.54167,"duration":0.4375,"midi":57,"velocity":85,"channel":5,"program":30},{"beat":138.54167,"duration":0.9375,"midi":62,"velocity":85,"channel":12,"program":25},{"beat":139.0,"duration":0.47917,"midi":31,"velocity":94,"channel":2,"program":33},{"beat":139.0,"duration":0.72917,"midi":43,"velocity":88,"channel":5,"program":30},{"beat":139.0,"duration":0.8125,"midi":55,"velocity":86,"channel":1,"program":52},{"beat":139.0,"duration":0.8125,"midi":64,"velocity":87,"channel":1,"program":52},{"beat":139.0,"duration":0.22917,"midi":69,"velocity":80,"channel":13,"program":81},{"beat":139.0,"duration":0.8125,"midi":79,"velocity":101,"channel":0,"program":22},{"beat":139.02083,"duration":0.70833,"midi":50,"velocity":88,"channel":5,"program":30},{"beat":139.02083,"duration":0.95833,"midi":57,"velocity":89,"channel":6,"program":29},{"beat":139.04167,"duration":0.9375,"midi":57,"velocity":88,"channel":5,"program":30},{"beat":139.5,"duration":0.47917,"midi":31,"velocity":93,"channel":2,"program":33},{"beat":139.5,"duration":0.22917,"midi":45,"velocity":78,"channel":3,"program":27},{"beat":139.5,"duration":0.22917,"midi":50,"velocity":90,"channel":4,"program":29},{"beat":139.5,"duration":0.22917,"midi":69,"velocity":71,"channel":13,"program":81},{"beat":139.52083,"duration":0.20833,"midi":52,"velocity":82,"channel":3,"program":27},{"beat":139.52083,"duration":0.20833,"midi":57,"velocity":82,"channel":12,"program":25},{"beat":139.54167,"duration":0.1875,"midi":55,"velocity":84,"channel":4,"program":29},{"beat":139.54167,"duration":0.1875,"midi":57,"velocity":77,"channel":3,"program":27},{"beat":139.54167,"duration":0.1875,"midi":62,"velocity":82,"channel":12,"program":25},{"beat":139.75,"duration":0.22917,"midi":43,"velocity":84,"channel":5,"program":30},{"beat":139.75,"duration":0.22917,"midi":45,"velocity":76,"channel":3,"program":27},{"beat":139.75,"duration":0.22917,"midi":50,"velocity":79,"channel":4,"program":29},{"beat":139.77083,"duration":0.20833,"midi":50,"velocity":86,"channel":5,"program":30},{"beat":139.77083,"duration":0.20833,"midi":52,"velocity":80,"channel":3,"program":27},{"beat":139.77083,"duration":0.20833,"midi":57,"velocity":86,"channel":12,"program":25},{"beat":139.79167,"duration":0.1875,"midi":55,"velocity":79,"channel":4,"program":29},{"beat":139.79167,"duration":0.1875,"midi":57,"velocity":76,"channel":3,"program":27},{"beat":139.79167,"duration":0.1875,"midi":62,"velocity":85,"channel":12,"program":25},{"beat":140.0,"duration":0.97917,"midi":33,"velocity":96,"channel":2,"program":33},{"beat":140.0,"duration":0.97917,"midi":45,"velocity":88,"channel":3,"program":27},{"beat":140.0,"duration":0.97917,"midi":45,"velocity":84,"channel":4,"program":29},{"beat":140.0,"duration":0.97917,"midi":45,"velocity":86,"channel":5,"program":30},{"beat":140.0,"duration":0.47917,"midi":52,"velocity":88,"channel":6,"program":29},{"beat":140.0,"duration":0.97917,"midi":57,"velocity":89,"channel":1,"program":52},{"beat":140.0,"duration":0.97917,"midi":64,"velocity":87,"channel":1,"program":52},{"beat":140.0,"duration":0.22917,"midi":69,"velocity":65,"channel":13,"program":81},{"beat":140.0,"duration":3.97917,"midi":73,"velocity":88,"channel":7,"program":51},{"beat":140.0,"duration":0.97917,"midi":81,"velocity":102,"channel":0,"program":22},{"beat":140.0,"duration":3.97917,"midi":85,"velocity":77,"channel":7,"program":51},{"beat":140.02083,"duration":0.95833,"midi":52,"velocity":86,"channel":3,"program":27},{"beat":140.02083,"duration":0.95833,"midi":52,"velocity":88,"channel":4,"program":29},{"beat":140.02083,"duration":0.95833,"midi":52,"velocity":89,"channel":5,"program":30},{"beat":140.02083,"duration":0.95833,"midi":57,"velocity":86,"channel":6,"program":29},{"beat":140.02083,"duration":0.95833,"midi":57,"velocity":93,"channel":12,"program":25},{"beat":140.04167,"duration":0.9375,"midi":57,"velocity":90,"channel":3,"program":27},{"beat":140.04167,"duration":0.9375,"midi":57,"velocity":84,"channel":4,"program":29},{"beat":140.04167,"duration":0.9375,"midi":57,"velocity":89,"channel":5,"program":30},{"beat":140.04167,"duration":0.9375,"midi":61,"velocity":98,"channel":12,"program":25},{"beat":140.5,"duration":0.97917,"midi":52,"velocity":87,"channel":6,"program":29},{"beat":140.5,"duration":0.22917,"midi":69,"velocity":70,"channel":13,"program":81},{"beat":141.0,"duration":0.47917,"midi":33,"velocity":89,"channel":2,"program":33},{"beat":141.0,"duration":0.47917,"midi":45,"velocity":87,"channel":3,"program":27},{"beat":141.0,"duration":0.47917,"midi":45,"velocity":86,"channel":4,"program":29},{"beat":141.0,"duration":0.47917,"midi":45,"velocity":89,"channel":5,"program":30},{"beat":141.0,"duration":0.97917,"midi":50,"velocity":90,"channel":1,"program":52},{"beat":141.0,"duration":0.97917,"midi":57,"velocity":90,"channel":1,"program":52},{"beat":141.0,"duration":0.22917,"midi":69,"velocity":83,"channel":13,"program":81},{"beat":141.0,"duration":0.97917,"midi":74,"velocity":101,"channel":0,"program":22},{"beat":141.02083,"duration":0.45833,"midi":52,"velocity":88,"channel":3,"program":27},{"beat":141.02083,"duration":0.45833,"midi":52,"velocity":89,"channel":4,"program":29},{"beat":141.02083,"duration":0.45833,"midi":52,"velocity":87,"channel":5,"program":30},{"beat":141.02083,"duration":0.45833,"midi":57,"velocity":96,"channel":12,"program":25},{"beat":141.02083,"duration":0.45833,"midi":61,"velocity":87,"channel":3,"program":27},{"beat":141.02083,"duration":0.45833,"midi":61,"velocity":85,"channel":6,"program":29},{"beat":141.04167,"duration":0.4375,"midi":57,"velocity":86,"channel":3,"program":27},{"beat":141.04167,"duration":0.4375,"midi":57,"velocity":88,"channel":4,"program":29},{"beat":141.04167,"duration":0.4375,"midi":57,"velocity":88,"channel":5,"program":30},{"beat":141.04167,"duration":0.4375,"midi":61,"velocity":96,"channel":12,"program":25},{"beat":141.5,"duration":0.47917,"midi":33,"velocity":94,"channel":2,"program":33},{"beat":141.5,"duration":0.47917,"midi":45,"velocity":82,"channel":3,"program":27},{"beat":141.5,"duration":0.47917,"midi":45,"velocity":86,"channel":4,"program":29},{"beat":141.5,"duration":0.97917,"midi":45,"velocity":90,"channel":5,"program":30},{"beat":141.5,"duration":0.47917,"midi":52,"velocity":86,"channel":6,"program":29},{"beat":141.5,"duration":0.22917,"midi":69,"velocity":73,"channel":13,"program":81},{"beat":141.52083,"duration":0.95833,"midi":52,"velocity":82,"channel":3,"program":27},{"beat":141.52083,"duration":0.45833,"midi":52,"velocity":90,"channel":4,"program":29},{"beat":141.52083,"duration":0.95833,"midi":52,"velocity":88,"channel":5,"program":30},{"beat":141.52083,"duration":0.95833,"midi":57,"velocity":84,"channel":6,"program":29},{"beat":141.52083,"duration":0.45833,"midi":57,"velocity":85,"channel":12,"program":25},{"beat":141.54167,"duration":0.9375,"midi":57,"velocity":81,"channel":3,"program":27},{"beat":141.54167,"duration":0.4375,"midi":57,"velocity":87,"channel":4,"program":29},{"beat":141.54167,"duration":0.9375,"midi":57,"velocity":87,"channel":5,"program":30},{"beat":141.54167,"duration":0.4375,"midi":61,"velocity":83,"channel":12,"program":25},{"beat":142.0,"duration":0.47917,"midi":33,"velocity":90,"channel":2,"program":33},{"beat":142.0,"duration":0.47917,"midi":45,"velocity":79,"channel":3,"program":27},{"beat":142.0,"duration":0.47917,"midi":45,"velocity":87,"channel":4,"program":29},{"beat":142.0,"duration":1.47917,"midi":52,"velocity":88,"channel":6,"program":29},{"beat":142.0,"duration":1.22917,"midi":61,"velocity":89,"channel":1,"program":52},{"beat":142.0,"duration":1.22917,"midi":64,"velocity":89,"channel":1,"program":52},{"beat":142.0,"duration":0.22917,"midi":69,"velocity":78,"channel":13,"program":81},{"beat":142.0,"duration":1.22917,"midi":85,"velocity":99,"channel":0,"program":22},{"beat":142.02083,"duration":0.45833,"midi":52,"velocity":85,"channel":4,"program":29},{"beat":142.02083,"duration":0.45833,"midi":57,"velocity":91,"channel":12,"program":25},{"beat":142.04167,"duration":0.4375,"midi":57,"velocity":86,"channel":4,"program":29},{"beat":142.04167,"duration":0.4375,"midi":61,"velocity":93,"channel":12,"program":25},{"beat":142.5,"duration":0.47917,"midi":33,"velocity":91,"channel":2,"program":33},{"beat":142.5,"duration":0.97917,"midi":45,"velocity":86,"channel":3,"program":27},{"beat":142.5,"duration":0.97917,"midi":45,"velocity":85,"channel":4,"program":29},{"beat":142.5,"duration":0.47917,"midi":45,"velocity":89,"channel":5,"program":30},{"beat":142.5,"duration":0.22917,"midi":69,"velocity":77,"channel":13,"program":81},{"beat":142.52083,"duration":0.95833,"midi":52,"velocity":86,"channel":3,"program":27},{"beat":142.52083,"duration":0.95833,"midi":52,"velocity":90,"channel":4,"program":29},{"beat":142.52083,"duration":0.45833,"midi":52,"velocity":88,"channel":5,"program":30},{"beat":142.52083,"duration":0.95833,"midi":57,"velocity":85,"channel":6,"program":29},{"beat":142.52083,"duration":0.95833,"midi":57,"velocity":89,"channel":12,"program":25},{"beat":142.54167,"duration":0.9375,"midi":57,"velocity":86,"channel":3,"program":27},{"beat":142.54167,"duration":0.9375,"midi":57,"velocity":84,"channel":4,"program":29},{"beat":142.54167,"duration":0.4375,"midi":57,"velocity":88,"channel":5,"program":30},{"beat":142.54167,"duration":0.9375,"midi":61,"velocity":91,"channel":12,"program":25},{"beat":143.0,"duration":0.97917,"midi":33,"velocity":91,"channel":2,"program":33},{"beat":143.0,"duration":0.47917,"midi":45,"velocity":89,"channel":5,"program":30},{"beat":143.0,"duration":0.22917,"midi":69,"velocity":86,"channel":13,"program":81},{"beat":143.02083,"duration":0.45833,"midi":52,"velocity":85,"channel":5,"program":30},{"beat":143.04167,"duration":0.4375,"midi":57,"velocity":87,"channel":5,"program":30},{"beat":143.5,"duration":0.22917,"midi":45,"velocity":90,"channel":4,"program":29},{"beat":143.5,"duration":0.22917,"midi":45,"velocity":87,"channel":5,"program":30},{"beat":143.5,"duration":0.47917,"midi":47,"velocity":77,"channel":3,"program":27},{"beat":143.5,"duration":0.22917,"midi":52,"velocity":78,"channel":3,"program":27},{"beat":143.5,"duration":0.47917,"midi":52,"velocity":85,"channel":6,"program":29},{"beat":143.5,"duration":2.22917,"midi":62,"velocity":87,"channel":1,"program":52},{"beat":143.5,"duration":2.22917,"midi":66,"velocity":89,"channel":1,"program":52},{"beat":143.5,"duration":0.22917,"midi":69,"velocity":75,"channel":13,"program":81},{"beat":143.5,"duration":2.22917,"midi":86,"velocity":98,"channel":0,"program":22},{"beat":143.52083,"duration":0.20833,"midi":52,"velocity":86,"channel":4,"program":29},{"beat":143.52083,"duration":0.20833,"midi":52,"velocity":90,"channel":5,"program":30},{"beat":143.52083,"duration":0.20833,"midi":57,"velocity":90,"channel":12,"program":25},{"beat":143.52083,"duration":0.20833,"midi":59,"velocity":84,"channel":6,"program":29},{"beat":143.54167,"duration":0.1875,"midi":57,"velocity":88,"channel":4,"program":29},{"beat":143.54167,"duration":0.1875,"midi":57,"velocity":90,"channel":5,"program":30},{"beat":143.54167,"duration":0.1875,"midi":59,"velocity":78,"channel":3,"program":27},{"beat":143.54167,"duration":0.1875,"midi":61,"velocity":91,"channel":12,"program":25},{"beat":143.75,"duration":0.22917,"midi":45,"velocity":87,"channel":4,"program":29},{"beat":143.75,"duration":0.22917,"midi":45,"velocity":84,"channel":5,"program":30},{"beat":143.75,"duration":0.22917,"midi":52,"velocity":76,"channel":3,"program":27},{"beat":143.77083,"duration":0.20833,"midi":52,"velocity":89,"channel":4,"program":29},{"beat":143.77083,"duration":0.20833,"midi":52,"velocity":85,"channel":5,"program":30},{"beat":143.77083,"duration":0.20833,"midi":57,"velocity":88,"channel":12,"program":25},{"beat":143.77083,"duration":0.20833,"midi":59,"velocity":90,"channel":6,"program":29},{"beat":143.79167,"duration":0.1875,"midi":57,"velocity":90,"channel":4,"program":29},{"beat":143.79167,"duration":0.1875,"midi":57,"velocity":87,"channel":5,"program":30},{"beat":143.79167,"duration":0.1875,"midi":59,"velocity":76,"channel":3,"program":27},{"beat":143.79167,"duration":0.1875,"midi":61,"velocity":90,"channel":12,"program":25},{"beat":144.0,"duration":0.97917,"midi":35,"velocity":96,"channel":2,"program":33},{"beat":144.0,"duration":0.97917,"midi":47,"velocity":90,"channel":3,"program":27},{"beat":144.0,"duration":0.97917,"midi":47,"velocity":86,"channel":4,"program":29},{"beat":144.0,"duration":0.97917,"midi":47,"velocity":87,"channel":5,"program":30},{"beat":144.0,"duration":1.47917,"midi":54,"velocity":86,"channel":6,"program":29},{"beat":144.0,"duration":0.22917,"midi":69,"velocity":82,"channel":13,"program":81},{"beat":144.0,"duration":3.97917,"midi":74,"velocity":89,"channel":7,"program":51},{"beat":144.0,"duration":3.97917,"midi":86,"velocity":79,"channel":7,"program":51},{"beat":144.02083,"duration":0.95833,"midi":54,"velocity":89,"channel":3,"program":27},{"beat":144.02083,"duration":0.95833,"midi":54,"velocity":84,"channel":4,"program":29},{"beat":144.02083,"duration":0.95833,"midi":54,"velocity":85,"channel":5,"program":30},{"beat":144.02083,"duration":0.45833,"midi":57,"velocity":88,"channel":6,"program":29},{"beat":144.02083,"duration":0.95833,"midi":57,"velocity":96,"channel":12,"program":25},{"beat":144.04167,"duration":0.9375,"midi":57,"velocity":85,"channel":3,"program":27},{"beat":144.04167,"duration":0.9375,"midi":57,"velocity":86,"channel":5,"program":30},{"beat":144.04167,"duration":0.9375,"midi":62,"velocity":90,"channel":12,"program":25},{"beat":144.5,"duration":0.97917,"midi":59,"velocity":90,"channel":6,"program":29},{"beat":144.5,"duration":0.22917,"midi":69,"velocity":69,"channel":13,"program":81},{"beat":145.0,"duration":0.47917,"midi":35,"velocity":90,"channel":2,"program":33},{"beat":145.0,"duration":0.47917,"midi":47,"velocity":90,"channel":3,"program":27},{"beat":145.0,"duration":0.47917,"midi":47,"velocity":84,"channel":4,"program":29},{"beat":145.0,"duration":0.47917,"midi":47,"velocity":89,"channel":5,"program":30},{"beat":145.0,"duration":0.97917,"midi":62,"velocity":90,"channel":6,"program":29},{"beat":145.0,"duration":0.47917,"midi":64,"velocity":80,"channel":3,"program":27},{"beat":145.0,"duration":0.22917,"midi":69,"velocity":84,"channel":13,"program":81},{"beat":145.02083,"duration":0.45833,"midi":54,"velocity":84,"channel":3,"program":27},{"beat":145.02083,"duration":0.45833,"midi":54,"velocity":89,"channel":4,"program":29},{"beat":145.02083,"duration":0.45833,"midi":54,"velocity":86,"channel":5,"program":30},{"beat":145.02083,"duration":0.45833,"midi":57,"velocity":98,"channel":12,"program":25},{"beat":145.04167,"duration":0.4375,"midi":57,"velocity":90,"channel":3,"program":27},{"beat":145.04167,"duration":0.4375,"midi":57,"velocity":85,"channel":5,"program":30},{"beat":145.04167,"duration":0.4375,"midi":62,"velocity":95,"channel":12,"program":25},{"beat":145.5,"duration":0.47917,"midi":35,"velocity":89,"channel":2,"program":33},{"beat":145.5,"duration":0.97917,"midi":47,"velocity":80,"channel":3,"program":27},{"beat":145.5,"duration":0.97917,"midi":47,"velocity":89,"channel":4,"program":29},{"beat":145.5,"duration":0.97917,"midi":47,"velocity":86,"channel":5,"program":30},{"beat":145.5,"duration":0.47917,"midi":54,"velocity":89,"channel":6,"program":29},{"beat":145.5,"duration":0.72917,"midi":62,"velocity":89,"channel":3,"program":27},{"beat":145.5,"duration":0.22917,"midi":69,"velocity":71,"channel":13,"program":81},{"beat":145.52083,"duration":0.95833,"midi":54,"velocity":76,"channel":3,"program":27},{"beat":145.52083,"duration":0.95833,"midi":54,"velocity":86,"channel":4,"program":29},{"beat":145.52083,"duration":0.95833,"midi":54,"velocity":86,"channel":5,"program":30},{"beat":145.52083,"duration":0.45833,"midi":57,"velocity":89,"channel":6,"program":29},{"beat":145.52083,"duration":0.45833,"midi":57,"velocity":79,"channel":12,"program":25},{"beat":145.54167,"duration":0.9375,"midi":57,"velocity":81,"channel":3,"program":27},{"beat":145.54167,"duration":0.9375,"midi":57,"velocity":90,"channel":5,"program":30},{"beat":145.54167,"duration":0.4375,"midi":62,"velocity":85,"channel":12,"program":25},{"beat":146.0,"duration":0.47917,"midi":35,"velocity":94,"channel":2,"program":33},{"beat":146.0,"duration":1.47917,"midi":54,"velocity":87,"channel":6,"program":29},{"beat":146.0,"duration":0.22917,"midi":69,"velocity":76,"channel":13,"program":81},{"beat":146.02083,"duration":0.20833,"midi":57,"velocity":87,"channel":12,"program":25},{"beat":146.02083,"duration":0.45833,"midi":59,"velocity":85,"channel":6,"program":29},{"beat":146.04167,"duration":0.1875,"midi":62,"velocity":90,"channel":12,"program":25},{"beat":146.5,"duration":0.47917,"midi":35,"velocity":90,"channel":2,"program":33},{"beat":146.5,"duration":0.97917,"midi":47,"velocity":87,"channel":3,"program":27},{"beat":146.5,"duration":0.47917,"midi":47,"velocity":89,"channel":4,"program":29},{"beat":146.5,"duration":0.97917,"midi":47,"velocity":89,"channel":5,"program":30},{"beat":146.5,"duration":0.47917,"midi":57,"velocity":84,"channel":6,"program":29},{"beat":146.5,"duration":0.97917,"midi":62,"velocity":86,"channel":3,"program":27},{"beat":146.5,"duration":0.22917,"midi":69,"velocity":71,"channel":13,"program":81},{"beat":146.52083,"duration":0.95833,"midi":54,"velocity":86,"channel":3,"program":27},{"beat":146.52083,"duration":0.45833,"midi":54,"velocity":87,"channel":4,"program":29},{"beat":146.52083,"duration":0.95833,"midi":54,"velocity":89,"channel":5,"program":30},{"beat":146.52083,"duration":0.95833,"midi":57,"velocity":86,"channel":12,"program":25},{"beat":146.52083,"duration":1.45833,"midi":62,"velocity":86,"channel":6,"program":29},{"beat":146.54167,"duration":0.9375,"midi":57,"velocity":90,"channel":3,"program":27},{"beat":146.54167,"duration":0.9375,"midi":57,"velocity":86,"channel":5,"program":30},{"beat":146.54167,"duration":0.4375,"midi":62,"velocity":88,"channel":4,"program":29},{"beat":146.54167,"duration":0.9375,"midi":62,"velocity":83,"channel":12,"program":25},{"beat":147.0,"duration":0.47917,"midi":28,"velocity":93,"channel":2,"program":33},{"beat":147.0,"duration":0.97917,"midi":47,"velocity":82,"channel":4,"program":29},{"beat":147.0,"duration":0.47917,"midi":59,"velocity":88,"channel":1,"program":52},{"beat":147.0,"duration":0.47917,"midi":59,"velocity":88,"channel":6,"program":29},{"beat":147.0,"duration":0.22917,"midi":69,"velocity":80,"channel":13,"program":81},{"beat":147.0,"duration":0.47917,"midi":83,"velocity":102,"channel":0,"program":22},{"beat":147.0,"duration":0.47917,"midi":83,"velocity":88,"channel":7,"program":51},{"beat":147.02083,"duration":0.95833,"midi":54,"velocity":79,"channel":4,"program":29},{"beat":147.04167,"duration":0.9375,"midi":59,"velocity":73,"channel":4,"program":29},{"beat":147.5,"duration":0.47917,"midi":29,"velocity":91,"channel":2,"program":33},{"beat":147.5,"duration":0.22917,"midi":47,"velocity":78,"channel":3,"program":27},{"beat":147.5,"duration":0.22917,"midi":47,"velocity":88,"channel":5,"program":30},{"beat":147.5,"duration":0.47917,"midi":54,"velocity":89,"channel":6,"program":29},{"beat":147.5,"duration":1.22917,"midi":57,"velocity":89,"channel":1,"program":52},{"beat":147.5,"duration":0.47917,"midi":57,"velocity":87,"channel":6,"program":29},{"beat":147.5,"duration":0.47917,"midi":62,"velocity":82,"channel":3,"program":27},{"beat":147.5,"duration":0.22917,"midi":69,"velocity":71,"channel":13,"program":81},{"beat":147.5,"duration":1.22917,"midi":81,"velocity":101,"channel":0,"program":22},{"beat":147.5,"duration":1.22917,"midi":81,"velocity":89,"channel":7,"program":51},{"beat":147.52083,"duration":0.20833,"midi":54,"velocity":76,"channel":3,"program":27},{"beat":147.52083,"duration":0.20833,"midi":54,"velocity":88,"channel":5,"program":30},{"beat":147.52083,"duration":0.45833,"midi":57,"velocity":86,"channel":12,"program":25},{"beat":147.54167,"duration":0.1875,"midi":57,"velocity":78,"channel":3,"program":27},{"beat":147.54167,"duration":0.4375,"midi":59,"velocity":88,"channel":5,"program":30},{"beat":147.54167,"duration":0.4375,"midi":62,"velocity":84,"channel":12,"program":25},{"beat":147.75,"duration":0.22917,"midi":47,"velocity":80,"channel":3,"program":27},{"beat":147.75,"duration":0.22917,"midi":47,"velocity":87,"channel":5,"program":30},{"beat":147.77083,"duration":0.20833,"midi":54,"velocity":77,"channel":3,"program":27},{"beat":147.77083,"duration":0.20833,"midi":54,"velocity":86,"channel":5,"program":30},{"beat":147.79167,"duration":0.1875,"midi":57,"velocity":76,"channel":3,"program":27},{"beat":148.0,"duration":0.47917,"midi":30,"velocity":96,"channel":2,"program":33},{"beat":148.0,"duration":0.97917,"midi":42,"velocity":76,"channel":4,"program":29},{"beat":148.0,"duration":0.97917,"midi":42,"velocity":87,"channel":5,"program":30},{"beat":148.0,"duration":0.97917,"midi":50,"velocity":89,"channel":3,"program":27},{"beat":148.0,"duration":0.47917,"midi":50,"velocity":90,"channel":6,"program":29},{"beat":148.0,"duration":1.97917,"midi":64,"velocity":86,"channel":14,"program":29},{"beat":148.0,"duration":0.22917,"midi":69,"velocity":65,"channel":13,"program":81},{"beat":148.0,"duration":1.97917,"midi":76,"velocity":84,"channel":7,"program":51},{"beat":148.0,"duration":1.97917,"midi":88,"velocity":85,"channel":7,"program":51},{"beat":148.02083,"duration":0.95833,"midi":50,"velocity":89,"channel":4,"program":29},{"beat":148.02083,"duration":0.95833,"midi":52,"velocity":90,"channel":5,"program":30},{"beat":148.02083,"duration":0.95833,"midi":54,"velocity":85,"channel":3,"program":27},{"beat":148.02083,"duration":0.95833,"midi":54,"velocity":92,"channel":12,"program":25},{"beat":148.02083,"duration":0.95833,"midi":57,"velocity":89,"channel":6,"program":29},{"beat":148.04167,"duration":0.9375,"midi":57,"velocity":87,"channel":3,"program":27},{"beat":148.04167,"duration":0.9375,"midi":57,"velocity":90,"channel":4,"program":29},{"beat":148.04167,"duration":0.9375,"midi":57,"velocity":86,"channel":5,"program":30},{"beat":148.04167,"duration":0.9375,"midi":57,"velocity":97,"channel":12,"program":25},{"beat":148.5,"duration":0.47917,"midi":30,"velocity":95,"channel":2,"program":33},{"beat":148.5,"duration":0.47917,"midi":49,"velocity":85,"channel":6,"program":29},{"beat":148.5,"duration":0.47917,"midi":61,"velocity":86,"channel":6,"program":29},{"beat":148.5,"duration":0.22917,"midi":69,"velocity":70,"channel":13,"program":81},{"beat":149.0,"duration":0.47917,"midi":30,"velocity":92,"channel":2,"program":33},{"beat":149.0,"duration":0.47917,"midi":42,"velocity":59,"channel":4,"program":29},{"beat":149.0,"duration":0.47917,"midi":42,"velocity":85,"channel":5,"program":30},{"beat":149.0,"duration":0.47917,"midi":50,"velocity":89,"channel":3,"program":27},{"beat":149.0,"duration":0.97917,"midi":50,"velocity":90,"channel":6,"program":29},{"beat":149.0,"duration":0.4375,"midi":54,"velocity":86,"channel":1,"program":52},{"beat":149.0,"duration":1.22917,"midi":57,"velocity":86,"channel":6,"program":29},{"beat":149.0,"duration":0.22917,"midi":69,"velocity":83,"channel":13,"program":81},{"beat":149.0,"duration":0.4375,"midi":78,"velocity":102,"channel":0,"program":22},{"beat":149.02083,"duration":0.45833,"midi":50,"velocity":82,"channel":4,"program":29},{"beat":149.02083,"duration":0.45833,"midi":52,"velocity":87,"channel":5,"program":30},{"beat":149.02083,"duration":1.45833,"midi":54,"velocity":89,"channel":3,"program":27},{"beat":149.02083,"duration":0.45833,"midi":54,"velocity":93,"channel":12,"program":25},{"beat":149.02083,"duration":0.45833,"midi":57,"velocity":88,"channel":3,"program":27},{"beat":149.02083,"duration":0.95833,"midi":61,"velocity":86,"channel":6,"program":29},{"beat":149.04167,"duration":0.4375,"midi":57,"velocity":83,"channel":4,"program":29},{"beat":149.04167,"duration":0.4375,"midi":57,"velocity":85,"channel":5,"program":30},{"beat":149.04167,"duration":0.4375,"midi":57,"velocity":97,"channel":12,"program":25},{"beat":149.04167,"duration":0.4375,"midi":62,"velocity":85,"channel":3,"program":27},{"beat":149.5,"duration":0.47917,"midi":37,"velocity":80,"channel":2,"program":33},{"beat":149.5,"duration":0.97917,"midi":42,"velocity":48,"channel":4,"program":29},{"beat":149.5,"duration":0.97917,"midi":42,"velocity":87,"channel":5,"program":30},{"beat":149.5,"duration":0.97917,"midi":50,"velocity":82,"channel":3,"program":27},{"beat":149.5,"duration":1.22917,"midi":52,"velocity":90,"channel":1,"program":52},{"beat":149.5,"duration":0.22917,"midi":69,"velocity":73,"channel":13,"program":81},{"beat":149.5,"duration":1.22917,"midi":76,"velocity":100,"channel":0,"program":22},{"beat":149.52083,"duration":0.95833,"midi":50,"velocity":88,"channel":4,"program":29},{"beat":149.52083,"duration":0.95833,"midi":52,"velocity":85,"channel":5,"program":30},{"beat":149.52083,"duration":0.45833,"midi":54,"velocity":87,"channel":12,"program":25},{"beat":149.52083,"duration":0.95833,"midi":57,"velocity":81,"channel":3,"program":27},{"beat":149.54167,"duration":0.9375,"midi":57,"velocity":89,"channel":4,"program":29},{"beat":149.54167,"duration":0.9375,"midi":57,"velocity":84,"channel":5,"program":30},{"beat":149.54167,"duration":0.4375,"midi":57,"velocity":88,"channel":12,"program":25},{"beat":150.0,"duration":0.47917,"midi":42,"velocity":99,"channel":2,"program":33},{"beat":150.0,"duration":1.97917,"midi":66,"velocity":90,"channel":14,"program":29},{"beat":150.0,"duration":0.22917,"midi":69,"velocity":78,"channel":13,"program":81},{"beat":150.0,"duration":1.97917,"midi":78,"velocity":84,"channel":7,"program":51},{"beat":150.0,"duration":1.97917,"midi":90,"velocity":85,"channel":7,"program":51},{"beat":150.02083,"duration":0.45833,"midi":54,"velocity":91,"channel":12,"program":25},{"beat":150.04167,"duration":0.4375,"midi":57,"velocity":92,"channel":12,"program":25},{"beat":150.5,"duration":0.47917,"midi":42,"velocity":85,"channel":2,"program":33},{"beat":150.5,"duration":0.47917,"midi":42,"velocity":61,"channel":4,"program":29},{"beat":150.5,"duration":1.47917,"midi":42,"velocity":86,"channel":5,"program":30},{"beat":150.5,"duration":0.97917,"midi":50,"velocity":85,"channel":3,"program":27},{"beat":150.5,"duration":0.47917,"midi":50,"velocity":85,"channel":6,"program":29},{"beat":150.5,"duration":1.47917,"midi":54,"velocity":85,"channel":3,"program":27},{"beat":150.5,"duration":0.22917,"midi":69,"velocity":77,"channel":13,"program":81},{"beat":150.52083,"duration":0.45833,"midi":50,"velocity":83,"channel":4,"program":29},{"beat":150.52083,"duration":0.95833,"midi":50,"velocity":90,"channel":5,"program":30},{"beat":150.52083,"duration":0.95833,"midi":54,"velocity":93,"channel":12,"program":25},{"beat":150.52083,"duration":0.95833,"midi":57,"velocity":87,"channel":3,"program":27},{"beat":150.52083,"duration":0.45833,"midi":57,"velocity":84,"channel":6,"program":29},{"beat":150.54167,"duration":0.4375,"midi":57,"velocity":81,"channel":4,"program":29},{"beat":150.54167,"duration":1.4375,"midi":57,"velocity":90,"channel":5,"program":30},{"beat":150.54167,"duration":0.9375,"midi":57,"velocity":91,"channel":12,"program":25},{"beat":150.54167,"duration":0.9375,"midi":62,"velocity":86,"channel":3,"program":27},{"beat":150.54167,"duration":0.4375,"midi":62,"velocity":87,"channel":6,"program":29},{"beat":151.0,"duration":0.97917,"midi":40,"velocity":80,"channel":2,"program":33},{"beat":151.0,"duration":0.97917,"midi":42,"velocity":59,"channel":4,"program":29},{"beat":151.0,"duration":0.97917,"midi":50,"velocity":90,"channel":1,"program":52},{"beat":151.0,"duration":0.97917,"midi":50,"velocity":85,"channel":6,"program":29},{"beat":151.0,"duration":0.22917,"midi":69,"velocity":86,"channel":13,"program":81},{"beat":151.0,"duration":0.97917,"midi":74,"velocity":102,"channel":0,"program":22},{"beat":151.02083,"duration":0.95833,"midi":50,"velocity":83,"channel":4,"program":29},{"beat":151.02083,"duration":0.95833,"midi":57,"velocity":90,"channel":6,"program":29},{"beat":151.04167,"duration":0.9375,"midi":57,"velocity":77,"channel":4,"program":29},{"beat":151.04167,"duration":0.9375,"midi":62,"velocity":90,"channel":6,"program":29},{"beat":151.5,"duration":0.22917,"midi":50,"velocity":82,"channel":3,"program":27},{"beat":151.5,"duration":0.22917,"midi":50,"velocity":85,"channel":5,"program":30},{"beat":151.5,"duration":0.22917,"midi":69,"velocity":75,"channel":13,"program":81},{"beat":151.52083,"duration":0.20833,"midi":54,"velocity":85,"channel":5,"program":30},{"beat":151.52083,"duration":0.20833,"midi":54,"velocity":90,"channel":12,"program":25},{"beat":151.52083,"duration":0.20833,"midi":57,"velocity":80,"channel":3,"program":27},{"beat":151.54167,"duration":0.1875,"midi":57,"velocity":89,"channel":12,"program":25},{"beat":151.54167,"duration":0.4375,"midi":62,"velocity":82,"channel":3,"program":27},{"beat":151.75,"duration":0.22917,"midi":50,"velocity":79,"channel":3,"program":27},{"beat":151.75,"duration":0.22917,"midi":50,"velocity":89,"channel":5,"program":30},{"beat":151.77083,"duration":0.20833,"midi":54,"velocity":89,"channel":5,"program":30},{"beat":151.77083,"duration":0.20833,"midi":54,"velocity":88,"channel":12,"program":25},{"beat":151.77083,"duration":0.20833,"midi":57,"velocity":77,"channel":3,"program":27},{"beat":151.79167,"duration":0.1875,"midi":57,"velocity":88,"channel":12,"program":25},{"beat":152.0,"duration":0.97917,"midi":31,"velocity":95,"channel":2,"program":33},{"beat":152.0,"duration":0.97917,"midi":43,"velocity":87,"channel":4,"program":29},{"beat":152.0,"duration":0.97917,"midi":43,"velocity":87,"channel":5,"program":30},{"beat":152.0,"duration":0.72917,"midi":50,"velocity":89,"channel":1,"program":52},{"beat":152.0,"duration":0.97917,"midi":50,"velocity":89,"channel":3,"program":27},{"beat":152.0,"duration":0.97917,"midi":50,"velocity":88,"channel":6,"program":29},{"beat":152.0,"duration":0.22917,"midi":69,"velocity":82,"channel":13,"program":81},{"beat":152.0,"duration":0.72917,"midi":74,"velocity":100,"channel":0,"program":22},{"beat":152.0,"duration":3.97917,"midi":74,"velocity":88,"channel":7,"program":51},{"beat":152.0,"duration":3.97917,"midi":86,"velocity":80,"channel":7,"program":51},{"beat":152.02083,"duration":0.95833,"midi":50,"velocity":85,"channel":4,"program":29},{"beat":152.02083,"duration":0.95833,"midi":50,"velocity":84,"channel":5,"program":30},{"beat":152.02083,"duration":0.95833,"midi":55,"velocity":90,"channel":3,"program":27},{"beat":152.02083,"duration":0.95833,"midi":55,"velocity":90,"channel":6,"program":29},{"beat":152.02083,"duration":0.95833,"midi":55,"velocity":96,"channel":12,"program":25},{"beat":152.04167,"duration":0.9375,"midi":55,"velocity":90,"channel":4,"program":29},{"beat":152.04167,"duration":0.9375,"midi":57,"velocity":90,"channel":5,"program":30},{"beat":152.04167,"duration":0.9375,"midi":59,"velocity":87,"channel":3,"program":27},{"beat":152.04167,"duration":0.9375,"midi":59,"velocity":98,"channel":12,"program":25},{"beat":152.04167,"duration":0.9375,"midi":62,"velocity":73,"channel":6,"program":29},{"beat":152.5,"duration":0.22917,"midi":69,"velocity":69,"channel":13,"program":81},{"beat":153.0,"duration":0.47917,"midi":31,"velocity":94,"channel":2,"program":33},{"beat":153.0,"duration":0.47917,"midi":43,"velocity":87,"channel":4,"program":29},{"beat":153.0,"duration":0.47917,"midi":43,"velocity":89,"channel":5,"program":30},{"beat":153.0,"duration":0.47917,"midi":50,"velocity":89,"channel":3,"program":27},{"beat":153.0,"duration":0.47917,"midi":50,"velocity":85,"channel":6,"program":29},{"beat":153.0,"duration":0.97917,"midi":52,"velocity":89,"channel":1,"program":52},{"beat":153.0,"duration":0.97917,"midi":62,"velocity":65,"channel":4,"program":29},{"beat":153.0,"duration":0.22917,"midi":69,"velocity":84,"channel":13,"program":81},{"beat":153.0,"duration":0.97917,"midi":76,"velocity":99,"channel":0,"program":22},{"beat":153.02083,"duration":0.45833,"midi":50,"velocity":89,"channel":4,"program":29},{"beat":153.02083,"duration":0.45833,"midi":50,"velocity":88,"channel":5,"program":30},{"beat":153.02083,"duration":0.45833,"midi":55,"velocity":87,"channel":3,"program":27},{"beat":153.02083,"duration":0.45833,"midi":55,"velocity":98,"channel":12,"program":25},{"beat":153.02083,"duration":0.45833,"midi":57,"velocity":89,"channel":6,"program":29},{"beat":153.04167,"duration":0.4375,"midi":55,"velocity":90,"channel":4,"program":29},{"beat":153.04167,"duration":0.4375,"midi":57,"velocity":84,"channel":5,"program":30},{"beat":153.04167,"duration":0.4375,"midi":57,"velocity":96,"channel":12,"program":25},{"beat":153.04167,"duration":0.4375,"midi":62,"velocity":80,"channel":3,"program":27},{"beat":153.04167,"duration":0.4375,"midi":66,"velocity":89,"channel":6,"program":29},{"beat":153.5,"duration":0.47917,"midi":31,"velocity":89,"channel":2,"program":33},{"beat":153.5,"duration":0.97917,"midi":43,"velocity":90,"channel":4,"program":29},{"beat":153.5,"duration":0.97917,"midi":43,"velocity":90,"channel":5,"program":30},{"beat":153.5,"duration":0.97917,"midi":50,"velocity":78,"channel":3,"program":27},{"beat":153.5,"duration":0.97917,"midi":50,"velocity":89,"channel":6,"program":29},{"beat":153.5,"duration":0.22917,"midi":69,"velocity":71,"channel":13,"program":81},{"beat":153.52083,"duration":0.95833,"midi":50,"velocity":89,"channel":4,"program":29},{"beat":153.52083,"duration":0.95833,"midi":50,"velocity":90,"channel":5,"program":30},{"beat":153.52083,"duration":0.95833,"midi":55,"velocity":79,"channel":3,"program":27},{"beat":153.52083,"duration":0.95833,"midi":55,"velocity":85,"channel":6,"program":29},{"beat":153.52083,"duration":0.95833,"midi":55,"velocity":81,"channel":12,"program":25},{"beat":153.52083,"duration":0.95833,"midi":57,"velocity":81,"channel":3,"program":27},{"beat":153.54167,"duration":0.9375,"midi":55,"velocity":87,"channel":4,"program":29},{"beat":153.54167,"duration":0.9375,"midi":57,"velocity":89,"channel":5,"program":30},{"beat":153.54167,"duration":0.9375,"midi":59,"velocity":83,"channel":12,"program":25},{"beat":153.54167,"duration":0.9375,"midi":67,"velocity":73,"channel":3,"program":27},{"beat":153.54167,"duration":0.9375,"midi":67,"velocity":90,"channel":6,"program":29},{"beat":154.0,"duration":0.27083,"midi":31,"velocity":96,"channel":2,"program":33},{"beat":154.0,"duration":0.97917,"midi":54,"velocity":90,"channel":1,"program":52},{"beat":154.0,"duration":0.22917,"midi":69,"velocity":76,"channel":13,"program":81},{"beat":154.0,"duration":0.97917,"midi":78,"velocity":102,"channel":0,"program":22},{"beat":154.5,"duration":0.47917,"midi":31,"velocity":90,"channel":2,"program":33},{"beat":154.5,"duration":0.47917,"midi":43,"velocity":85,"channel":4,"program":29},{"beat":154.5,"duration":0.97917,"midi":43,"velocity":85,"channel":5,"program":30},{"beat":154.5,"duration":0.97917,"midi":50,"velocity":89,"channel":3,"program":27},{"beat":154.5,"duration":0.47917,"midi":50,"velocity":87,"channel":6,"program":29},{"beat":154.5,"duration":1.47917,"midi":62,"velocity":73,"channel":4,"program":29},{"beat":154.5,"duration":0.22917,"midi":69,"velocity":71,"channel":13,"program":81},{"beat":154.52083,"duration":0.45833,"midi":50,"velocity":86,"channel":4,"program":29},{"beat":154.52083,"duration":0.95833,"midi":50,"velocity":84,"channel":5,"program":30},{"beat":154.52083,"duration":0.95833,"midi":55,"velocity":89,"channel":3,"program":27},{"beat":154.52083,"duration":0.95833,"midi":55,"velocity":83,"channel":12,"program":25},{"beat":154.52083,"duration":0.45833,"midi":57,"velocity":90,"channel":6,"program":29},{"beat":154.52083,"duration":0.95833,"midi":59,"velocity":86,"channel":3,"program":27},{"beat":154.54167,"duration":0.4375,"midi":55,"velocity":85,"channel":4,"program":29},{"beat":154.54167,"duration":1.4375,"midi":57,"velocity":86,"channel":5,"program":30},{"beat":154.54167,"duration":0.9375,"midi":57,"velocity":85,"channel":12,"program":25},{"beat":154.54167,"duration":0.4375,"midi":66,"velocity":72,"channel":3,"program":27},{"beat":154.54167,"duration":0.4375,"midi":66,"velocity":86,"channel":6,"program":29},{"beat":155.0,"duration":0.47917,"midi":31,"velocity":100,"channel":2,"program":33},{"beat":155.0,"duration":0.97917,"midi":43,"velocity":88,"channel":4,"program":29},{"beat":155.0,"duration":0.47917,"midi":50,"velocity":88,"channel":6,"program":29},{"beat":155.0,"duration":0.97917,"midi":55,"velocity":88,"channel":1,"program":52},{"beat":155.0,"duration":0.22917,"midi":69,"velocity":80,"channel":13,"program":81},{"beat":155.0,"duration":0.97917,"midi":79,"velocity":100,"channel":0,"program":22},{"beat":155.02083,"duration":0.45833,"midi":50,"velocity":88,"channel":4,"program":29},{"beat":155.02083,"duration":0.45833,"midi":55,"velocity":88,"channel":6,"program":29},{"beat":155.02083,"duration":0.95833,"midi":62,"velocity":60,"channel":3,"program":27},{"beat":155.04167,"duration":0.4375,"midi":55,"velocity":87,"channel":4,"program":29},{"beat":155.04167,"duration":0.9375,"midi":62,"velocity":90,"channel":6,"program":29},{"beat":155.5,"duration":0.47917,"midi":31,"velocity":87,"channel":2,"program":33},{"beat":155.5,"duration":0.22917,"midi":43,"velocity":90,"channel":5,"program":30},{"beat":155.5,"duration":0.22917,"midi":50,"velocity":79,"channel":3,"program":27},{"beat":155.5,"duration":0.22917,"midi":50,"velocity":77,"channel":4,"program":29},{"beat":155.5,"duration":0.22917,"midi":50,"velocity":85,"channel":6,"program":29},{"beat":155.5,"duration":0.22917,"midi":69,"velocity":71,"channel":13,"program":81},{"beat":155.52083,"duration":0.20833,"midi":50,"velocity":86,"channel":5,"program":30},{"beat":155.52083,"duration":0.20833,"midi":55,"velocity":77,"channel":3,"program":27},{"beat":155.52083,"duration":0.20833,"midi":55,"velocity":82,"channel":4,"program":29},{"beat":155.52083,"duration":0.20833,"midi":55,"velocity":83,"channel":12,"program":25},{"beat":155.52083,"duration":0.45833,"midi":57,"velocity":88,"channel":6,"program":29},{"beat":155.54167,"duration":0.1875,"midi":57,"velocity":83,"channel":12,"program":25},{"beat":155.54167,"duration":0.1875,"midi":59,"velocity":80,"channel":3,"program":27},{"beat":155.75,"duration":0.22917,"midi":43,"velocity":84,"channel":5,"program":30},{"beat":155.75,"duration":0.22917,"midi":50,"velocity":78,"channel":3,"program":27},{"beat":155.75,"duration":0.22917,"midi":50,"velocity":77,"channel":4,"program":29},{"beat":155.75,"duration":0.22917,"midi":50,"velocity":84,"channel":6,"program":29},{"beat":155.77083,"duration":0.20833,"midi":50,"velocity":87,"channel":5,"program":30},{"beat":155.77083,"duration":0.20833,"midi":55,"velocity":80,"channel":3,"program":27},{"beat":155.77083,"duration":0.20833,"midi":55,"velocity":81,"channel":4,"program":29},{"beat":155.77083,"duration":0.20833,"midi":55,"velocity":84,"channel":12,"program":25},{"beat":155.79167,"duration":0.1875,"midi":57,"velocity":81,"channel":12,"program":25},{"beat":155.79167,"duration":0.1875,"midi":59,"velocity":81,"channel":3,"program":27},{"beat":156.0,"duration":0.47917,"midi":33,"velocity":100,"channel":2,"program":33},{"beat":156.0,"duration":0.47917,"midi":45,"velocity":87,"channel":4,"program":29},{"beat":156.0,"duration":0.97917,"midi":45,"velocity":84,"channel":5,"program":30},{"beat":156.0,"duration":0.97917,"midi":52,"velocity":87,"channel":3,"program":27},{"beat":156.0,"duration":0.47917,"midi":52,"velocity":85,"channel":6,"program":29},{"beat":156.0,"duration":0.97917,"midi":54,"velocity":88,"channel":1,"program":52},{"beat":156.0,"duration":0.22917,"midi":69,"velocity":65,"channel":13,"program":81},{"beat":156.0,"duration":3.97917,"midi":73,"velocity":85,"channel":7,"program":51},{"beat":156.0,"duration":0.97917,"midi":78,"velocity":102,"channel":0,"program":22},{"beat":156.0,"duration":3.97917,"midi":85,"velocity":78,"channel":7,"program":51},{"beat":156.02083,"duration":0.45833,"midi":52,"velocity":87,"channel":4,"program":29},{"beat":156.02083,"duration":0.95833,"midi":52,"velocity":88,"channel":5,"program":30},{"beat":156.02083,"duration":0.95833,"midi":57,"velocity":86,"channel":3,"program":27},{"beat":156.02083,"duration":0.95833,"midi":57,"velocity":89,"channel":6,"program":29},{"beat":156.02083,"duration":0.95833,"midi":57,"velocity":98,"channel":12,"program":25},{"beat":156.04167,"duration":0.4375,"midi":57,"velocity":88,"channel":4,"program":29},{"beat":156.04167,"duration":0.9375,"midi":57,"velocity":85,"channel":5,"program":30},{"beat":156.04167,"duration":0.9375,"midi":61,"velocity":85,"channel":3,"program":27},{"beat":156.04167,"duration":0.9375,"midi":61,"velocity":96,"channel":12,"program":25},{"beat":156.5,"duration":0.47917,"midi":33,"velocity":90,"channel":2,"program":33},{"beat":156.5,"duration":0.97917,"midi":45,"velocity":84,"channel":4,"program":29},{"beat":156.5,"duration":1.47917,"midi":52,"velocity":85,"channel":6,"program":29},{"beat":156.5,"duration":0.22917,"midi":69,"velocity":70,"channel":13,"program":81},{"beat":156.52083,"duration":0.95833,"midi":52,"velocity":89,"channel":4,"program":29},{"beat":156.54167,"duration":0.9375,"midi":57,"velocity":79,"channel":4,"program":29},{"beat":157.0,"duration":0.47917,"midi":33,"velocity":103,"channel":2,"program":33},{"beat":157.0,"duration":0.47917,"midi":45,"velocity":85,"channel":5,"program":30},{"beat":157.0,"duration":0.72917,"midi":52,"velocity":90,"channel":1,"program":52},{"beat":157.0,"duration":0.47917,"midi":52,"velocity":85,"channel":3,"program":27},{"beat":157.0,"duration":0.22917,"midi":69,"velocity":83,"channel":13,"program":81},{"beat":157.0,"duration":0.72917,"midi":76,"velocity":100,"channel":0,"program":22},{"beat":157.02083,"duration":0.45833,"midi":52,"velocity":86,"channel":5,"program":30},{"beat":157.02083,"duration":0.45833,"midi":57,"velocity":89,"channel":3,"program":27},{"beat":157.02083,"duration":0.45833,"midi":57,"velocity":99,"channel":12,"program":25},{"beat":157.02083,"duration":0.45833,"midi":59,"velocity":89,"channel":6,"program":29},{"beat":157.04167,"duration":0.4375,"midi":57,"velocity":88,"channel":5,"program":30},{"beat":157.04167,"duration":0.4375,"midi":61,"velocity":88,"channel":3,"program":27},{"beat":157.04167,"duration":0.4375,"midi":61,"velocity":96,"channel":12,"program":25},{"beat":157.5,"duration":0.47917,"midi":33,"velocity":92,"channel":2,"program":33},{"beat":157.5,"duration":0.97917,"midi":45,"velocity":89,"channel":4,"program":29},{"beat":157.5,"duration":0.97917,"midi":45,"velocity":86,"channel":5,"program":30},{"beat":157.5,"duration":0.97917,"midi":52,"velocity":77,"channel":3,"program":27},{"beat":157.5,"duration":0.22917,"midi":69,"velocity":73,"channel":13,"program":81},{"beat":157.52083,"duration":0.95833,"midi":52,"velocity":86,"channel":4,"program":29},{"beat":157.52083,"duration":0.95833,"midi":52,"velocity":84,"channel":5,"program":30},{"beat":157.52083,"duration":0.95833,"midi":57,"velocity":79,"channel":3,"program":27},{"beat":157.52083,"duration":0.95833,"midi":57,"velocity":85,"channel":6,"program":29},{"beat":157.52083,"duration":0.95833,"midi":57,"velocity":83,"channel":12,"program":25},{"beat":157.54167,"duration":0.4375,"midi":57,"velocity":86,"channel":4,"program":29},{"beat":157.54167,"duration":0.9375,"midi":57,"velocity":90,"channel":5,"program":30},{"beat":157.54167,"duration":0.9375,"midi":61,"velocity":86,"channel":12,"program":25},{"beat":158.0,"duration":0.47917,"midi":33,"velocity":95,"channel":2,"program":33},{"beat":158.0,"duration":0.47917,"midi":50,"velocity":89,"channel":1,"program":52},{"beat":158.0,"duration":1.47917,"midi":52,"velocity":89,"channel":6,"program":29},{"beat":158.0,"duration":0.22917,"midi":69,"velocity":78,"channel":13,"program":81},{"beat":158.0,"duration":0.47917,"midi":74,"velocity":100,"channel":0,"program":22},{"beat":158.5,"duration":0.47917,"midi":33,"velocity":94,"channel":2,"program":33},{"beat":158.5,"duration":0.97917,"midi":45,"velocity":88,"channel":5,"program":30},{"beat":158.5,"duration":0.47917,"midi":49,"velocity":89,"channel":1,"program":52},{"beat":158.5,"duration":0.97917,"midi":49,"velocity":70,"channel":4,"program":29},{"beat":158.5,"duration":0.97917,"midi":52,"velocity":87,"channel":3,"program":27},{"beat":158.5,"duration":0.22917,"midi":69,"velocity":77,"channel":13,"program":81},{"beat":158.5,"duration":0.47917,"midi":73,"velocity":100,"channel":0,"program":22},{"beat":158.52083,"duration":0.95833,"midi":52,"velocity":88,"channel":5,"program":30},{"beat":158.52083,"duration":0.95833,"midi":57,"velocity":88,"channel":3,"program":27},{"beat":158.52083,"duration":1.45833,"midi":57,"velocity":68,"channel":4,"program":29},{"beat":158.52083,"duration":0.95833,"midi":57,"velocity":91,"channel":12,"program":25},{"beat":158.52083,"duration":0.70833,"midi":59,"velocity":86,"channel":6,"program":29},{"beat":158.54167,"duration":0.9375,"midi":57,"velocity":84,"channel":5,"program":30},{"beat":158.54167,"duration":0.9375,"midi":59,"velocity":89,"channel":3,"program":27},{"beat":158.54167,"duration":1.4375,"midi":61,"velocity":70,"channel":4,"program":29},{"beat":158.54167,"duration":0.9375,"midi":61,"velocity":92,"channel":12,"program":25},{"beat":159.0,"duration":0.47917,"midi":37,"velocity":99,"channel":2,"program":33},{"beat":159.0,"duration":4.97917,"midi":50,"velocity":90,"channel":1,"program":52},{"beat":159.0,"duration":0.22917,"midi":69,"velocity":86,"channel":13,"program":81},{"beat":159.0,"duration":4.97917,"midi":74,"velocity":102,"channel":0,"program":22},{"beat":159.5,"duration":0.47917,"midi":40,"velocity":93,"channel":2,"program":33},{"beat":159.5,"duration":0.22917,"midi":45,"velocity":84,"channel":5,"program":30},{"beat":159.5,"duration":0.22917,"midi":49,"velocity":70,"channel":4,"program":29},{"beat":159.5,"duration":0.22917,"midi":52,"velocity":81,"channel":3,"program":27},{"beat":159.5,"duration":0.22917,"midi":52,"velocity":84,"channel":6,"program":29},{"beat":159.5,"duration":0.22917,"midi":69,"velocity":75,"channel":13,"program":81},{"beat":159.52083,"duration":0.20833,"midi":52,"velocity":89,"channel":5,"program":30},{"beat":159.52083,"duration":0.20833,"midi":57,"velocity":76,"channel":3,"program":27},{"beat":159.52083,"duration":0.20833,"midi":57,"velocity":87,"channel":12,"program":25},{"beat":159.52083,"duration":0.20833,"midi":59,"velocity":85,"channel":6,"program":29},{"beat":159.54167,"duration":0.1875,"midi":57,"velocity":86,"channel":5,"program":30},{"beat":159.54167,"duration":0.4375,"midi":59,"velocity":79,"channel":3,"program":27},{"beat":159.54167,"duration":0.1875,"midi":61,"velocity":89,"channel":12,"program":25},{"beat":159.75,"duration":0.22917,"midi":45,"velocity":85,"channel":5,"program":30},{"beat":159.75,"duration":0.22917,"midi":49,"velocity":70,"channel":4,"program":29},{"beat":159.75,"duration":0.22917,"midi":52,"velocity":77,"channel":3,"program":27},{"beat":159.75,"duration":0.22917,"midi":52,"velocity":90,"channel":6,"program":29},{"beat":159.77083,"duration":0.20833,"midi":52,"velocity":90,"channel":5,"program":30},{"beat":159.77083,"duration":0.20833,"midi":57,"velocity":76,"channel":3,"program":27},{"beat":159.77083,"duration":0.20833,"midi":57,"velocity":83,"channel":12,"program":25},{"beat":159.77083,"duration":0.20833,"midi":59,"velocity":85,"channel":6,"program":29},{"beat":159.79167,"duration":0.1875,"midi":57,"velocity":84,"channel":5,"program":30},{"beat":159.79167,"duration":0.1875,"midi":61,"velocity":89,"channel":12,"program":25},{"beat":160.0,"duration":0.47917,"midi":38,"velocity":98,"channel":2,"program":33},{"beat":160.0,"duration":0.97917,"midi":50,"velocity":86,"channel":3,"program":27},{"beat":160.0,"duration":0.97917,"midi":50,"velocity":88,"channel":4,"program":29},{"beat":160.0,"duration":0.97917,"midi":50,"velocity":86,"channel":5,"program":30},{"beat":160.0,"duration":0.97917,"midi":50,"velocity":89,"channel":6,"program":29},{"beat":160.0,"duration":0.22917,"midi":69,"velocity":82,"channel":13,"program":81},{"beat":160.0,"duration":3.97917,"midi":74,"velocity":85,"channel":7,"program":51},{"beat":160.0,"duration":3.97917,"midi":86,"velocity":80,"channel":7,"program":51},{"beat":160.02083,"duration":0.45833,"midi":57,"velocity":84,"channel":3,"program":27},{"beat":160.02083,"duration":0.95833,"midi":57,"velocity":87,"channel":4,"program":29},{"beat":160.02083,"duration":0.95833,"midi":57,"velocity":88,"channel":5,"program":30},{"beat":160.02083,"duration":0.45833,"midi":57,"velocity":90,"channel":6,"program":29},{"beat":160.02083,"duration":0.95833,"midi":57,"velocity":92,"channel":12,"program":25},{"beat":160.04167,"duration":0.9375,"midi":62,"velocity":53,"channel":4,"program":29},{"beat":160.04167,"duration":0.9375,"midi":62,"velocity":96,"channel":12,"program":25},{"beat":160.04167,"duration":0.9375,"midi":64,"velocity":86,"channel":5,"program":30},{"beat":160.5,"duration":0.47917,"midi":38,"velocity":90,"channel":2,"program":33},{"beat":160.5,"duration":0.22917,"midi":69,"velocity":69,"channel":13,"program":81},{"beat":160.52083,"duration":0.45833,"midi":57,"velocity":80,"channel":3,"program":27},{"beat":160.52083,"duration":0.45833,"midi":57,"velocity":86,"channel":6,"program":29},{"beat":160.54167,"duration":0.4375,"midi":64,"velocity":64,"channel":6,"program":29},{"beat":161.0,"duration":0.47917,"midi":38,"velocity":96,"channel":2,"program":33},{"beat":161.0,"duration":0.47917,"midi":50,"velocity":88,"channel":3,"program":27},{"beat":161.0,"duration":0.47917,"midi":50,"velocity":85,"channel":4,"program":29},{"beat":161.0,"duration":0.47917,"midi":50,"velocity":89,"channel":5,"program":30},{"beat":161.0,"duration":0.47917,"midi":50,"velocity":88,"channel":6,"program":29},{"beat":161.0,"duration":0.22917,"midi":69,"velocity":84,"channel":13,"program":81},{"beat":161.02083,"duration":0.45833,"midi":57,"velocity":89,"channel":4,"program":29},{"beat":161.02083,"duration":0.45833,"midi":57,"velocity":85,"channel":5,"program":30},{"beat":161.02083,"duration":0.45833,"midi":57,"velocity":99,"channel":12,"program":25},{"beat":161.02083,"duration":0.45833,"midi":59,"velocity":89,"channel":6,"program":29},{"beat":161.02083,"duration":1.45833,"midi":62,"velocity":85,"channel":3,"program":27},{"beat":161.04167,"duration":0.9375,"midi":62,"velocity":57,"channel":4,"program":29},{"beat":161.04167,"duration":0.4375,"midi":62,"velocity":89,"channel":5,"program":30},{"beat":161.04167,"duration":0.4375,"midi":62,"velocity":92,"channel":12,"program":25},{"beat":161.04167,"duration":0.4375,"midi":64,"velocity":87,"channel":6,"program":29},{"beat":161.5,"duration":0.47917,"midi":38,"velocity":93,"channel":2,"program":33},{"beat":161.5,"duration":0.97917,"midi":50,"velocity":85,"channel":3,"program":27},{"beat":161.5,"duration":0.97917,"midi":50,"velocity":84,"channel":4,"program":29},{"beat":161.5,"duration":0.97917,"midi":50,"velocity":85,"channel":5,"program":30},{"beat":161.5,"duration":0.97917,"midi":50,"velocity":84,"channel":6,"program":29},{"beat":161.5,"duration":0.22917,"midi":69,"velocity":71,"channel":13,"program":81},{"beat":161.52083,"duration":0.95833,"midi":57,"velocity":86,"channel":3,"program":27},{"beat":161.52083,"duration":0.95833,"midi":57,"velocity":85,"channel":4,"program":29},{"beat":161.52083,"duration":0.95833,"midi":57,"velocity":89,"channel":5,"program":30},{"beat":161.52083,"duration":0.95833,"midi":57,"velocity":89,"channel":6,"program":29},{"beat":161.52083,"duration":0.95833,"midi":57,"velocity":83,"channel":12,"program":25},{"beat":161.54167,"duration":0.9375,"midi":62,"velocity":84,"channel":12,"program":25},{"beat":161.54167,"duration":0.9375,"midi":64,"velocity":88,"channel":5,"program":30},{"beat":161.54167,"duration":0.9375,"midi":64,"velocity":71,"channel":6,"program":29},{"beat":162.0,"duration":0.47917,"midi":38,"velocity":100,"channel":2,"program":33},{"beat":162.0,"duration":0.22917,"midi":69,"velocity":76,"channel":13,"program":81},{"beat":162.5,"duration":0.47917,"midi":45,"velocity":86,"channel":2,"program":33},{"beat":162.5,"duration":0.97917,"midi":50,"velocity":88,"channel":3,"program":27},{"beat":162.5,"duration":0.47917,"midi":50,"velocity":86,"channel":4,"program":29},{"beat":162.5,"duration":1.47917,"midi":50,"velocity":85,"channel":5,"program":30},{"beat":162.5,"duration":0.47917,"midi":50,"velocity":85,"channel":6,"program":29},{"beat":162.5,"duration":0.22917,"midi":69,"velocity":71,"channel":13,"program":81},{"beat":162.52083,"duration":0.95833,"midi":57,"velocity":90,"channel":3,"program":27},{"beat":162.52083,"duration":0.45833,"midi":57,"velocity":79,"channel":4,"program":29},{"beat":162.52083,"duration":1.45833,"midi":57,"velocity":89,"channel":5,"program":30},{"beat":162.52083,"duration":0.95833,"midi":57,"velocity":86,"channel":12,"program":25},{"beat":162.52083,"duration":0.45833,"midi":59,"velocity":84,"channel":6,"program":29},{"beat":162.54167,"duration":0.9375,"midi":62,"velocity":90,"channel":3,"program":27},{"beat":162.54167,"duration":1.4375,"midi":62,"velocity":89,"channel":5,"program":30},{"beat":162.54167,"duration":1.4375,"midi":62,"velocity":56,"channel":6,"program":29},{"beat":162.54167,"duration":0.9375,"midi":62,"velocity":86,"channel":12,"program":25},{"beat":163.0,"duration":0.97917,"midi":50,"velocity":89,"channel":4,"program":29},{"beat":163.0,"duration":0.47917,"midi":50,"velocity":86,"channel":6,"program":29},{"beat":163.0,"duration":0.47917,"midi":52,"velocity":88,"channel":2,"program":33},{"beat":163.0,"duration":0.22917,"midi":69,"velocity":80,"channel":13,"program":81},{"beat":163.02083,"duration":0.95833,"midi":57,"velocity":84,"channel":4,"program":29},{"beat":163.02083,"duration":0.95833,"midi":57,"velocity":88,"channel":6,"program":29},{"beat":163.5,"duration":0.72917,"midi":50,"velocity":88,"channel":2,"program":33},{"beat":163.5,"duration":0.22917,"midi":50,"velocity":79,"channel":3,"program":27},{"beat":163.5,"duration":0.22917,"midi":50,"velocity":89,"channel":6,"program":29},{"beat":163.5,"duration":0.22917,"midi":69,"velocity":71,"channel":13,"program":81},{"beat":163.52083,"duration":0.20833,"midi":57,"velocity":81,"channel":3,"program":27},{"beat":163.52083,"duration":0.20833,"midi":57,"velocity":85,"channel":12,"program":25},{"beat":163.54167,"duration":0.4375,"midi":62,"velocity":80,"channel":3,"program":27},{"beat":163.75,"duration":0.22917,"midi":50,"velocity":77,"channel":3,"program":27},{"beat":163.75,"duration":0.22917,"midi":50,"velocity":86,"channel":6,"program":29},{"beat":163.77083,"duration":0.20833,"midi":57,"velocity":80,"channel":3,"program":27},{"beat":163.77083,"duration":0.20833,"midi":57,"velocity":84,"channel":12,"program":25},{"beat":164.0,"duration":1.47917,"midi":50,"velocity":84,"channel":3,"program":27},{"beat":164.0,"duration":0.47917,"midi":50,"velocity":86,"channel":4,"program":29},{"beat":164.0,"duration":0.47917,"midi":50,"velocity":87,"channel":5,"program":30},{"beat":164.0,"duration":0.47917,"midi":50,"velocity":87,"channel":6,"program":29},{"beat":164.0,"duration":0.47917,"midi":57,"velocity":98,"channel":12,"program":25},{"beat":164.0,"duration":0.47917,"midi":69,"velocity":88,"channel":7,"program":51},{"beat":164.0,"duration":0.22917,"midi":69,"velocity":65,"channel":13,"program":81},{"beat":164.0,"duration":1.97917,"midi":83,"velocity":87,"channel":7,"program":51},{"beat":164.0,"duration":1.97917,"midi":95,"velocity":78,"channel":7,"program":51},{"beat":164.02083,"duration":0.45833,"midi":57,"velocity":88,"channel":4,"program":29},{"beat":164.02083,"duration":0.45833,"midi":57,"velocity":85,"channel":5,"program":30},{"beat":164.02083,"duration":0.95833,"midi":62,"velocity":87,"channel":3,"program":27},{"beat":164.02083,"duration":0.45833,"midi":62,"velocity":93,"channel":12,"program":25},{"beat":164.02083,"duration":0.45833,"midi":64,"velocity":80,"channel":6,"program":29},{"beat":164.04167,"duration":0.9375,"midi":69,"velocity":76,"channel":6,"program":29},{"beat":164.5,"duration":0.47917,"midi":47,"velocity":90,"channel":2,"program":33},{"beat":164.5,"duration":0.47917,"midi":50,"velocity":90,"channel":4,"program":29},{"beat":164.5,"duration":1.47917,"midi":50,"velocity":87,"channel":5,"program":30},{"beat":164.5,"duration":0.47917,"midi":50,"velocity":86,"channel":6,"program":29},{"beat":164.5,"duration":0.47917,"midi":52,"velocity":80,"channel":3,"program":27},{"beat":164.5,"duration":0.47917,"midi":57,"velocity":88,"channel":12,"program":25},{"beat":164.5,"duration":0.47917,"midi":69,"velocity":87,"channel":7,"program":51},{"beat":164.5,"duration":0.22917,"midi":69,"velocity":70,"channel":13,"program":81},{"beat":164.52083,"duration":0.95833,"midi":57,"velocity":90,"channel":3,"program":27},{"beat":164.52083,"duration":0.45833,"midi":57,"velocity":81,"channel":4,"program":29},{"beat":164.52083,"duration":1.45833,"midi":57,"velocity":86,"channel":5,"program":30},{"beat":164.52083,"duration":0.45833,"midi":57,"velocity":87,"channel":6,"program":29},{"beat":164.52083,"duration":0.45833,"midi":62,"velocity":91,"channel":12,"program":25},{"beat":164.52083,"duration":0.45833,"midi":64,"velocity":80,"channel":6,"program":29},{"beat":164.54167,"duration":0.4375,"midi":69,"velocity":85,"channel":12,"program":25},{"beat":165.0,"duration":0.47917,"midi":45,"velocity":92,"channel":2,"program":33},{"beat":165.0,"duration":0.97917,"midi":50,"velocity":84,"channel":4,"program":29},{"beat":165.0,"duration":0.97917,"midi":50,"velocity":89,"channel":6,"program":29},{"beat":165.0,"duration":0.97917,"midi":52,"velocity":79,"channel":3,"program":27},{"beat":165.0,"duration":0.97917,"midi":57,"velocity":103,"channel":12,"program":25},{"beat":165.0,"duration":0.97917,"midi":69,"velocity":84,"channel":7,"program":51},{"beat":165.0,"duration":0.22917,"midi":69,"velocity":83,"channel":13,"program":81},{"beat":165.02083,"duration":0.95833,"midi":57,"velocity":88,"channel":4,"program":29},{"beat":165.02083,"duration":0.95833,"midi":57,"velocity":89,"channel":6,"program":29},{"beat":165.02083,"duration":0.95833,"midi":62,"velocity":102,"channel":12,"program":25},{"beat":165.04167,"duration":1.1875,"midi":64,"velocity":80,"channel":6,"program":29},{"beat":165.04167,"duration":0.9375,"midi":66,"velocity":102,"channel":12,"program":25},{"beat":165.5,"duration":0.47917,"midi":40,"velocity":85,"channel":2,"program":33},{"beat":165.5,"duration":0.97917,"midi":50,"velocity":76,"channel":3,"program":27},{"beat":165.5,"duration":0.22917,"midi":69,"velocity":73,"channel":13,"program":81},{"beat":165.52083,"duration":1.45833,"midi":62,"velocity":84,"channel":3,"program":27},{"beat":166.0,"duration":0.97917,"midi":38,"velocity":99,"channel":2,"program":33},{"beat":166.0,"duration":0.47917,"midi":50,"velocity":85,"channel":4,"program":29},{"beat":166.0,"duration":0.47917,"midi":50,"velocity":86,"channel":5,"program":30},{"beat":166.0,"duration":0.39583,"midi":50,"velocity":85,"channel":6,"program":29},{"beat":166.0,"duration":1.97917,"midi":54,"velocity":81,"channel":3,"program":27},{"beat":166.0,"duration":0.47917,"midi":54,"velocity":96,"channel":12,"program":25},{"beat":166.0,"duration":0.22917,"midi":69,"velocity":78,"channel":13,"program":81},{"beat":166.0,"duration":1.97917,"midi":81,"velocity":90,"channel":7,"program":51},{"beat":166.0,"duration":1.97917,"midi":93,"velocity":74,"channel":7,"program":51},{"beat":166.02083,"duration":0.45833,"midi":57,"velocity":87,"channel":4,"program":29},{"beat":166.02083,"duration":0.45833,"midi":57,"velocity":89,"channel":5,"program":30},{"beat":166.02083,"duration":0.20833,"midi":57,"velocity":87,"channel":6,"program":29},{"beat":166.02083,"duration":0.45833,"midi":62,"velocity":96,"channel":12,"program":25},{"beat":166.04167,"duration":1.9375,"midi":66,"velocity":96,"channel":12,"program":25},{"beat":166.5,"duration":0.97917,"midi":50,"velocity":78,"channel":3,"program":27},{"beat":166.5,"duration":0.47917,"midi":50,"velocity":88,"channel":4,"program":29},{"beat":166.5,"duration":0.47917,"midi":50,"velocity":85,"channel":5,"program":30},{"beat":166.5,"duration":1.47917,"midi":50,"velocity":87,"channel":6,"program":29},{"beat":166.5,"duration":0.97917,"midi":57,"velocity":85,"channel":12,"program":25},{"beat":166.5,"duration":1.47917,"midi":69,"velocity":87,"channel":7,"program":51},{"beat":166.5,"duration":0.22917,"midi":69,"velocity":77,"channel":13,"program":81},{"beat":166.5,"duration":0.3125,"midi":74,"velocity":101,"channel":0,"program":22},{"beat":166.52083,"duration":1.45833,"midi":57,"velocity":87,"channel":3,"program":27},{"beat":166.52083,"duration":0.45833,"midi":57,"velocity":80,"channel":4,"program":29},{"beat":166.52083,"duration":0.45833,"midi":57,"velocity":84,"channel":5,"program":30},{"beat":166.52083,"duration":0.95833,"midi":57,"velocity":85,"channel":6,"program":29},{"beat":166.52083,"duration":1.45833,"midi":64,"velocity":87,"channel":12,"program":25},{"beat":166.54167,"duration":0.9375,"midi":64,"velocity":90,"channel":6,"program":29},{"beat":167.0,"duration":0.97917,"midi":38,"velocity":85,"channel":2,"program":33},{"beat":167.0,"duration":0.97917,"midi":50,"velocity":88,"channel":4,"program":29},{"beat":167.0,"duration":0.97917,"midi":50,"velocity":88,"channel":5,"program":30},{"beat":167.0,"duration":0.22917,"midi":69,"velocity":86,"channel":13,"program":81},{"beat":167.0,"duration":0.47917,"midi":74,"velocity":102,"channel":0,"program":22},{"beat":167.02083,"duration":0.95833,"midi":57,"velocity":89,"channel":4,"program":29},{"beat":167.02083,"duration":0.95833,"midi":57,"velocity":85,"channel":5,"program":30},{"beat":167.5,"duration":0.47917,"midi":50,"velocity":78,"channel":3,"program":27},{"beat":167.5,"duration":0.47917,"midi":55,"velocity":64,"channel":4,"program":29},{"beat":167.5,"duration":0.47917,"midi":55,"velocity":88,"channel":12,"program":25},{"beat":167.5,"duration":0.22917,"midi":69,"velocity":75,"channel":13,"program":81},{"beat":167.5,"duration":0.47917,"midi":71,"velocity":99,"channel":0,"program":22},{"beat":167.52083,"duration":0.45833,"midi":55,"velocity":86,"channel":6,"program":29},{"beat":167.52083,"duration":0.45833,"midi":62,"velocity":85,"channel":3,"program":27},{"beat":167.54167,"duration":0.4375,"midi":62,"velocity":90,"channel":6,"program":29},{"beat":168.0,"duration":0.64583,"midi":43,"velocity":70,"channel":2,"program":33},{"beat":168.0,"duration":3.97917,"midi":43,"velocity":89,"channel":3,"program":27},{"beat":168.0,"duration":3.97917,"midi":43,"velocity":67,"channel":6,"program":29},{"beat":168.0,"duration":6.0,"midi":43,"velocity":84,"channel":14,"program":26},{"beat":168.0,"duration":3.47917,"midi":50,"velocity":98,"channel":12,"program":25},{"beat":168.0,"duration":6.0,"midi":57,"velocity":55,"channel":11,"program":80},{"beat":168.0,"duration":0.89583,"midi":74,"velocity":102,"channel":0,"program":22},{"beat":168.02083,"duration":3.45833,"midi":55,"velocity":93,"channel":12,"program":25},{"beat":168.04167,"duration":3.4375,"midi":57,"velocity":92,"channel":12,"program":25},{"beat":168.5,"duration":1.47917,"midi":50,"velocity":77,"channel":3,"program":27},{"beat":168.5,"duration":1.47917,"midi":50,"velocity":66,"channel":6,"program":29},{"beat":168.5,"duration":0.97917,"midi":69,"velocity":86,"channel":4,"program":26},{"beat":169.0,"duration":1.47917,"midi":62,"velocity":86,"channel":3,"program":27},{"beat":169.0,"duration":6.0,"midi":62,"velocity":74,"channel":4,"program":26},{"beat":169.0,"duration":1.47917,"midi":62,"velocity":68,"channel":6,"program":29},{"beat":169.0,"duration":1.47917,"midi":74,"velocity":84,"channel":4,"program":26},{"beat":169.5,"duration":1.97917,"midi":57,"velocity":86,"channel":3,"program":27},{"beat":169.5,"duration":1.97917,"midi":57,"velocity":70,"channel":6,"program":29},{"beat":169.5,"duration":1.97917,"midi":69,"velocity":88,"channel":4,"program":26},{"beat":169.5,"duration":0.47917,"midi":71,"velocity":102,"channel":0,"program":22},{"beat":170.0,"duration":1.47917,"midi":50,"velocity":79,"channel":3,"program":27},{"beat":170.0,"duration":1.47917,"midi":50,"velocity":65,"channel":6,"program":29},{"beat":170.0,"duration":0.8125,"midi":74,"velocity":98,"channel":0,"program":22},{"beat":170.5,"duration":0.47917,"midi":64,"velocity":86,"channel":3,"program":27},{"beat":170.5,"duration":0.47917,"midi":64,"velocity":70,"channel":6,"program":29},{"beat":170.5,"duration":0.47917,"midi":76,"velocity":90,"channel":4,"program":26},{"beat":171.0,"duration":1.72917,"midi":62,"velocity":86,"channel":3,"program":27},{"beat":171.0,"duration":1.47917,"midi":62,"velocity":69,"channel":6,"program":29},{"beat":171.0,"duration":1.47917,"midi":74,"velocity":84,"channel":4,"program":26},{"beat":171.5,"duration":0.97917,"midi":50,"velocity":82,"channel":3,"program":27},{"beat":171.5,"duration":0.97917,"midi":50,"velocity":70,"channel":6,"program":29},{"beat":171.5,"duration":0.22917,"midi":50,"velocity":97,"channel":12,"program":25},{"beat":171.5,"duration":1.97917,"midi":57,"velocity":89,"channel":3,"program":27},{"beat":171.5,"duration":1.97917,"midi":57,"velocity":65,"channel":6,"program":29},{"beat":171.5,"duration":0.47917,"midi":69,"velocity":90,"channel":4,"program":26},{"beat":171.5,"duration":0.39583,"midi":71,"velocity":98,"channel":0,"program":22},{"beat":171.52083,"duration":0.20833,"midi":55,"velocity":96,"channel":12,"program":25},{"beat":171.54167,"duration":0.1875,"midi":57,"velocity":94,"channel":12,"program":25},{"beat":171.75,"duration":0.22917,"midi":50,"velocity":92,"channel":12,"program":25},{"beat":171.77083,"duration":0.20833,"midi":55,"velocity":95,"channel":12,"program":25},{"beat":171.79167,"duration":0.1875,"midi":57,"velocity":96,"channel":12,"program":25},{"beat":172.0,"duration":3.97917,"midi":43,"velocity":85,"channel":3,"program":27},{"beat":172.0,"duration":3.97917,"midi":43,"velocity":65,"channel":6,"program":29},{"beat":172.0,"duration":2.47917,"midi":50,"velocity":93,"channel":12,"program":25},{"beat":172.0,"duration":0.47917,"midi":74,"velocity":100,"channel":0,"program":22},{"beat":172.02083,"duration":2.45833,"midi":55,"velocity":98,"channel":12,"program":25},{"beat":172.04167,"duration":2.4375,"midi":57,"velocity":99,"channel":12,"program":25},{"beat":172.5,"duration":1.47917,"midi":50,"velocity":81,"channel":3,"program":27},{"beat":172.5,"duration":1.47917,"midi":50,"velocity":70,"channel":6,"program":29},{"beat":172.5,"duration":0.72917,"midi":69,"velocity":89,"channel":4,"program":26},{"beat":172.5,"duration":0.47917,"midi":74,"velocity":100,"channel":0,"program":22},{"beat":173.0,"duration":1.47917,"midi":62,"velocity":87,"channel":3,"program":27},{"beat":173.0,"duration":1.47917,"midi":62,"velocity":67,"channel":6,"program":29},{"beat":173.0,"duration":0.35417,"midi":74,"velocity":99,"channel":0,"program":22},{"beat":173.0,"duration":1.47917,"midi":74,"velocity":87,"channel":4,"program":26},{"beat":173.5,"duration":1.97917,"midi":57,"velocity":85,"channel":3,"program":27},{"beat":173.5,"duration":1.97917,"midi":57,"velocity":66,"channel":6,"program":29},{"beat":173.5,"duration":0.5625,"midi":67,"velocity":101,"channel":0,"program":22},{"beat":173.5,"duration":1.97917,"midi":69,"velocity":88,"channel":4,"program":26},{"beat":174.0,"duration":1.97917,"midi":50,"velocity":77,"channel":3,"program":27},{"beat":174.0,"duration":1.97917,"midi":50,"velocity":67,"channel":6,"program":29},{"beat":174.5,"duration":1.47917,"midi":50,"velocity":92,"channel":12,"program":25},{"beat":174.5,"duration":0.47917,"midi":64,"velocity":90,"channel":3,"program":27},{"beat":174.5,"duration":0.47917,"midi":64,"velocity":69,"channel":6,"program":29},{"beat":174.5,"duration":0.35417,"midi":74,"velocity":101,"channel":0,"program":22},{"beat":174.5,"duration":0.47917,"midi":76,"velocity":90,"channel":4,"program":26},{"beat":174.5,"duration":1.47917,"midi":76,"velocity":83,"channel":12,"program":25},{"beat":174.52083,"duration":1.45833,"midi":57,"velocity":93,"channel":12,"program":25},{"beat":174.54167,"duration":1.4375,"midi":62,"velocity":88,"channel":12,"program":25},{"beat":175.0,"duration":1.72917,"midi":62,"velocity":85,"channel":3,"program":27},{"beat":175.0,"duration":0.97917,"midi":62,"velocity":65,"channel":6,"program":29},{"beat":175.0,"duration":0.47917,"midi":74,"velocity":100,"channel":0,"program":22},{"beat":175.0,"duration":0.97917,"midi":74,"velocity":90,"channel":4,"program":26},{"beat":175.5,"duration":1.97917,"midi":57,"velocity":84,"channel":3,"program":27},{"beat":175.5,"duration":1.97917,"midi":57,"velocity":64,"channel":6,"program":29},{"beat":175.5,"duration":0.47917,"midi":69,"velocity":90,"channel":4,"program":26},{"beat":175.5,"duration":0.47917,"midi":71,"velocity":102,"channel":0,"program":22},{"beat":176.0,"duration":3.97917,"midi":42,"velocity":89,"channel":3,"program":27},{"beat":176.0,"duration":3.97917,"midi":42,"velocity":70,"channel":6,"program":29},{"beat":176.0,"duration":6.0,"midi":42,"velocity":87,"channel":14,"program":26},{"beat":176.0,"duration":3.47917,"midi":50,"velocity":99,"channel":12,"program":25},{"beat":176.0,"duration":6.0,"midi":57,"velocity":54,"channel":11,"program":80},{"beat":176.0,"duration":0.89583,"midi":74,"velocity":99,"channel":0,"program":22},{"beat":176.02083,"duration":3.45833,"midi":54,"velocity":97,"channel":12,"program":25},{"beat":176.04167,"duration":3.4375,"midi":57,"velocity":95,"channel":12,"program":25},{"beat":176.5,"duration":1.47917,"midi":50,"velocity":77,"channel":3,"program":27},{"beat":176.5,"duration":1.47917,"midi":50,"velocity":68,"channel":6,"program":29},{"beat":176.5,"duration":0.97917,"midi":69,"velocity":89,"channel":4,"program":26},{"beat":177.0,"duration":1.47917,"midi":62,"velocity":84,"channel":3,"program":27},{"beat":177.0,"duration":6.0,"midi":62,"velocity":70,"channel":4,"program":26},{"beat":177.0,"duration":1.47917,"midi":62,"velocity":65,"channel":6,"program":29},{"beat":177.0,"duration":0.97917,"midi":74,"velocity":88,"channel":4,"program":26},{"beat":177.5,"duration":1.97917,"midi":57,"velocity":85,"channel":3,"program":27},{"beat":177.5,"duration":1.97917,"midi":57,"velocity":68,"channel":6,"program":29},{"beat":177.5,"duration":1.97917,"midi":69,"velocity":89,"channel":4,"program":26},{"beat":177.5,"duration":0.47917,"midi":71,"velocity":99,"channel":0,"program":22},{"beat":178.0,"duration":1.47917,"midi":50,"velocity":80,"channel":3,"program":27},{"beat":178.0,"duration":1.47917,"midi":50,"velocity":69,"channel":6,"program":29},{"beat":178.0,"duration":0.89583,"midi":74,"velocity":101,"channel":0,"program":22},{"beat":178.5,"duration":0.47917,"midi":64,"velocity":86,"channel":3,"program":27},{"beat":178.5,"duration":0.47917,"midi":64,"velocity":68,"channel":6,"program":29},{"beat":178.5,"duration":0.47917,"midi":76,"velocity":85,"channel":4,"program":26},{"beat":179.0,"duration":1.72917,"midi":62,"velocity":85,"channel":3,"program":27},{"beat":179.0,"duration":1.97917,"midi":62,"velocity":65,"channel":6,"program":29},{"beat":179.0,"duration":1.47917,"midi":74,"velocity":90,"channel":4,"program":26},{"beat":179.5,"duration":0.97917,"midi":50,"velocity":79,"channel":3,"program":27},{"beat":179.5,"duration":0.97917,"midi":50,"velocity":68,"channel":6,"program":29},{"beat":179.5,"duration":0.22917,"midi":50,"velocity":94,"channel":12,"program":25},{"beat":179.5,"duration":1.97917,"midi":57,"velocity":88,"channel":3,"program":27},{"beat":179.5,"duration":1.97917,"midi":57,"velocity":65,"channel":6,"program":29},{"beat":179.5,"duration":0.97917,"midi":69,"velocity":88,"channel":4,"program":26},{"beat":179.5,"duration":0.47917,"midi":71,"velocity":102,"channel":0,"program":22},{"beat":179.52083,"duration":0.20833,"midi":54,"velocity":94,"channel":12,"program":25},{"beat":179.54167,"duration":0.1875,"midi":57,"velocity":94,"channel":12,"program":25},{"beat":179.75,"duration":0.22917,"midi":50,"velocity":98,"channel":12,"program":25},{"beat":179.77083,"duration":0.20833,"midi":54,"velocity":97,"channel":12,"program":25},{"beat":179.79167,"duration":0.1875,"midi":57,"velocity":97,"channel":12,"program":25},{"beat":180.0,"duration":3.97917,"midi":42,"velocity":84,"channel":3,"program":27},{"beat":180.0,"duration":3.97917,"midi":42,"velocity":66,"channel":6,"program":29},{"beat":180.0,"duration":2.47917,"midi":50,"velocity":93,"channel":12,"program":25},{"beat":180.0,"duration":0.47917,"midi":74,"velocity":101,"channel":0,"program":22},{"beat":180.02083,"duration":2.45833,"midi":54,"velocity":95,"channel":12,"program":25},{"beat":180.04167,"duration":2.4375,"midi":57,"velocity":95,"channel":12,"program":25},{"beat":180.5,"duration":1.47917,"midi":50,"velocity":82,"channel":3,"program":27},{"beat":180.5,"duration":1.47917,"midi":50,"velocity":66,"channel":6,"program":29},{"beat":180.5,"duration":0.97917,"midi":69,"velocity":85,"channel":4,"program":26},{"beat":180.5,"duration":0.89583,"midi":74,"velocity":102,"channel":0,"program":22},{"beat":181.0,"duration":1.47917,"midi":62,"velocity":89,"channel":3,"program":27},{"beat":181.0,"duration":1.47917,"midi":62,"velocity":64,"channel":6,"program":29},{"beat":181.0,"duration":1.47917,"midi":74,"velocity":85,"channel":4,"program":26},{"beat":181.5,"duration":1.97917,"midi":57,"velocity":85,"channel":3,"program":27},{"beat":181.5,"duration":1.97917,"midi":57,"velocity":69,"channel":6,"program":29},{"beat":181.5,"duration":0.5625,"midi":67,"velocity":102,"channel":0,"program":22},{"beat":181.5,"duration":1.97917,"midi":69,"velocity":86,"channel":4,"program":26},{"beat":182.0,"duration":1.97917,"midi":50,"velocity":77,"channel":3,"program":27},{"beat":182.0,"duration":1.97917,"midi":50,"velocity":68,"channel":6,"program":29},{"beat":182.5,"duration":1.47917,"midi":50,"velocity":94,"channel":12,"program":25},{"beat":182.5,"duration":1.47917,"midi":64,"velocity":84,"channel":3,"program":27},{"beat":182.5,"duration":1.22917,"midi":64,"velocity":70,"channel":6,"program":29},{"beat":182.5,"duration":0.47917,"midi":74,"velocity":100,"channel":0,"program":22},{"beat":182.5,"duration":0.47917,"midi":76,"velocity":88,"channel":4,"program":26},{"beat":182.52083,"duration":1.45833,"midi":54,"velocity":90,"channel":12,"program":25},{"beat":182.54167,"duration":1.4375,"midi":57,"velocity":88,"channel":12,"program":25},{"beat":183.0,"duration":0.97917,"midi":62,"velocity":86,"channel":3,"program":27},{"beat":183.0,"duration":0.97917,"midi":62,"velocity":65,"channel":6,"program":29},{"beat":183.0,"duration":0.47917,"midi":74,"velocity":99,"channel":0,"program":22},{"beat":183.0,"duration":0.97917,"midi":74,"velocity":90,"channel":4,"program":26},{"beat":183.5,"duration":0.47917,"midi":57,"velocity":85,"channel":3,"program":27},{"beat":183.5,"duration":0.47917,"midi":57,"velocity":70,"channel":6,"program":29},{"beat":183.5,"duration":0.47917,"midi":69,"velocity":88,"channel":4,"program":26},{"beat":183.5,"duration":0.47917,"midi":74,"velocity":101,"channel":0,"program":22},{"beat":184.0,"duration":3.97917,"midi":41,"velocity":89,"channel":3,"program":27},{"beat":184.0,"duration":3.97917,"midi":41,"velocity":69,"channel":6,"program":29},{"beat":184.0,"duration":3.97917,"midi":41,"velocity":87,"channel":14,"program":26},{"beat":184.0,"duration":3.47917,"midi":50,"velocity":95,"channel":12,"program":25},{"beat":184.0,"duration":6.0,"midi":53,"velocity":54,"channel":11,"program":80},{"beat":184.0,"duration":0.97917,"midi":76,"velocity":99,"channel":0,"program":22},{"beat":184.02083,"duration":3.45833,"midi":53,"velocity":96,"channel":12,"program":25},{"beat":184.04167,"duration":3.4375,"midi":57,"velocity":96,"channel":12,"program":25},{"beat":184.5,"duration":1.47917,"midi":53,"velocity":82,"channel":3,"program":27},{"beat":184.5,"duration":1.47917,"midi":53,"velocity":67,"channel":6,"program":29},{"beat":184.5,"duration":0.97917,"midi":69,"velocity":88,"channel":4,"program":26},{"beat":185.0,"duration":1.47917,"midi":62,"velocity":85,"channel":3,"program":27},{"beat":185.0,"duration":6.0,"midi":62,"velocity":70,"channel":4,"program":26},{"beat":185.0,"duration":1.47917,"midi":62,"velocity":66,"channel":6,"program":29},{"beat":185.0,"duration":0.97917,"midi":74,"velocity":89,"channel":4,"program":26},{"beat":185.0,"duration":0.47917,"midi":77,"velocity":102,"channel":0,"program":22},{"beat":185.5,"duration":1.97917,"midi":57,"velocity":90,"channel":3,"program":27},{"beat":185.5,"duration":1.97917,"midi":57,"velocity":69,"channel":6,"program":29},{"beat":185.5,"duration":1.97917,"midi":69,"velocity":89,"channel":4,"program":26},{"beat":185.5,"duration":0.47917,"midi":76,"velocity":101,"channel":0,"program":22},{"beat":186.0,"duration":1.97917,"midi":53,"velocity":79,"channel":3,"program":27},{"beat":186.0,"duration":1.97917,"midi":53,"velocity":68,"channel":6,"program":29},{"beat":186.0,"duration":0.47917,"midi":74,"velocity":101,"channel":0,"program":22},{"beat":186.5,"duration":0.47917,"midi":62,"velocity":79,"channel":1,"program":52},{"beat":186.5,"duration":1.47917,"midi":64,"velocity":87,"channel":3,"program":27},{"beat":186.5,"duration":1.47917,"midi":64,"velocity":68,"channel":6,"program":29},{"beat":186.5,"duration":0.47917,"midi":74,"velocity":101,"channel":0,"program":22},{"beat":186.5,"duration":0.47917,"midi":76,"velocity":87,"channel":4,"program":26},{"beat":187.0,"duration":0.47917,"midi":62,"velocity":79,"channel":1,"program":52},{"beat":187.0,"duration":1.72917,"midi":62,"velocity":90,"channel":3,"program":27},{"beat":187.0,"duration":1.72917,"midi":62,"velocity":66,"channel":6,"program":29},{"beat":187.0,"duration":0.97917,"midi":74,"velocity":100,"channel":0,"program":22},{"beat":187.0,"duration":0.97917,"midi":74,"velocity":88,"channel":4,"program":26},{"beat":187.5,"duration":0.22917,"midi":50,"velocity":93,"channel":12,"program":25},{"beat":187.5,"duration":1.47917,"midi":57,"velocity":89,"channel":3,"program":27},{"beat":187.5,"duration":1.97917,"midi":57,"velocity":64,"channel":6,"program":29},{"beat":187.5,"duration":0.47917,"midi":62,"velocity":77,"channel":1,"program":52},{"beat":187.5,"duration":0.47917,"midi":69,"velocity":89,"channel":4,"program":26},{"beat":187.52083,"duration":0.20833,"midi":53,"velocity":98,"channel":12,"program":25},{"beat":187.54167,"duration":0.1875,"midi":57,"velocity":94,"channel":12,"program":25},{"beat":187.75,"duration":0.22917,"midi":50,"velocity":91,"channel":12,"program":25},{"beat":187.77083,"duration":0.20833,"midi":53,"velocity":94,"channel":12,"program":25},{"beat":187.79167,"duration":0.1875,"midi":57,"velocity":95,"channel":12,"program":25},{"beat":188.0,"duration":3.97917,"midi":41,"velocity":88,"channel":3,"program":27},{"beat":188.0,"duration":3.97917,"midi":41,"velocity":66,"channel":6,"program":29},{"beat":188.0,"duration":3.97917,"midi":41,"velocity":80,"channel":14,"program":26},{"beat":188.0,"duration":2.47917,"midi":50,"velocity":91,"channel":12,"program":25},{"beat":188.0,"duration":0.97917,"midi":64,"velocity":79,"channel":1,"program":52},{"beat":188.02083,"duration":2.45833,"midi":53,"velocity":94,"channel":12,"program":25},{"beat":188.04167,"duration":2.4375,"midi":57,"velocity":96,"channel":12,"program":25},{"beat":188.5,"duration":1.47917,"midi":53,"velocity":79,"channel":3,"program":27},{"beat":188.5,"duration":1.47917,"midi":53,"velocity":67,"channel":6,"program":29},{"beat":188.5,"duration":0.97917,"midi":69,"velocity":87,"channel":4,"program":26},{"beat":189.0,"duration":1.47917,"midi":62,"velocity":89,"channel":3,"program":27},{"beat":189.0,"duration":1.47917,"midi":62,"velocity":69,"channel":6,"program":29},{"beat":189.0,"duration":0.47917,"midi":65,"velocity":78,"channel":1,"program":52},{"beat":189.0,"duration":1.47917,"midi":74,"velocity":87,"channel":4,"program":26},{"beat":189.5,"duration":1.97917,"midi":57,"velocity":89,"channel":3,"program":27},{"beat":189.5,"duration":1.97917,"midi":57,"velocity":65,"channel":6,"program":29},{"beat":189.5,"duration":0.72917,"midi":64,"velocity":78,"channel":1,"program":52},{"beat":189.5,"duration":1.97917,"midi":69,"velocity":89,"channel":4,"program":26},{"beat":190.0,"duration":1.97917,"midi":53,"velocity":78,"channel":3,"program":27},{"beat":190.0,"duration":0.47917,"midi":53,"velocity":67,"channel":6,"program":29},{"beat":190.5,"duration":1.47917,"midi":50,"velocity":96,"channel":12,"program":25},{"beat":190.5,"duration":1.47917,"midi":55,"velocity":77,"channel":3,"program":27},{"beat":190.5,"duration":1.47917,"midi":55,"velocity":65,"channel":6,"program":29},{"beat":190.5,"duration":0.47917,"midi":62,"velocity":80,"channel":1,"program":52},{"beat":190.5,"duration":0.47917,"midi":64,"velocity":87,"channel":3,"program":27},{"beat":190.5,"duration":1.22917,"midi":64,"velocity":70,"channel":6,"program":29},{"beat":190.5,"duration":0.47917,"midi":64,"velocity":96,"channel":12,"program":25},{"beat":190.5,"duration":0.39583,"midi":74,"velocity":100,"channel":0,"program":22},{"beat":190.5,"duration":0.47917,"midi":76,"velocity":90,"channel":4,"program":26},{"beat":190.5,"duration":0.47917,"midi":76,"velocity":64,"channel":12,"program":25},{"beat":190.52083,"duration":1.45833,"midi":55,"velocity":103,"channel":12,"program":25},{"beat":191.0,"duration":0.97917,"midi":62,"velocity":79,"channel":1,"program":52},{"beat":191.0,"duration":1.97917,"midi":62,"velocity":89,"channel":3,"program":27},{"beat":191.0,"duration":1.97917,"midi":62,"velocity":65,"channel":6,"program":29},{"beat":191.0,"duration":0.97917,"midi":62,"velocity":99,"channel":12,"program":25},{"beat":191.0,"duration":0.47917,"midi":74,"velocity":100,"channel":0,"program":22},{"beat":191.0,"duration":0.97917,"midi":74,"velocity":90,"channel":4,"program":26},{"beat":191.0,"duration":0.47917,"midi":74,"velocity":77,"channel":12,"program":25},{"beat":191.5,"duration":1.47917,"midi":57,"velocity":89,"channel":3,"program":27},{"beat":191.5,"duration":1.47917,"midi":57,"velocity":64,"channel":6,"program":29},{"beat":191.5,"duration":0.47917,"midi":69,"velocity":88,"channel":4,"program":26},{"beat":191.5,"duration":0.47917,"midi":69,"velocity":69,"channel":12,"program":25},{"beat":191.5,"duration":0.47917,"midi":74,"velocity":101,"channel":0,"program":22},{"beat":192.0,"duration":3.97917,"midi":42,"velocity":84,"channel":3,"program":27},{"beat":192.0,"duration":3.97917,"midi":42,"velocity":67,"channel":6,"program":29},{"beat":192.0,"duration":3.97917,"midi":42,"velocity":89,"channel":14,"program":26},{"beat":192.0,"duration":3.47917,"midi":50,"velocity":92,"channel":12,"program":25},{"beat":192.0,"duration":3.97917,"midi":57,"velocity":57,"channel":11,"program":80},{"beat":192.0,"duration":0.97917,"midi":62,"velocity":58,"channel":4,"program":26},{"beat":192.0,"duration":3.97917,"midi":69,"velocity":57,"channel":11,"program":80},{"beat":192.0,"duration":0.52083,"midi":81,"velocity":102,"channel":0,"program":22},{"beat":192.02083,"duration":3.45833,"midi":54,"velocity":97,"channel":12,"program":25},{"beat":192.04167,"duration":3.4375,"midi":57,"velocity":92,"channel":12,"program":25},{"beat":192.5,"duration":1.47917,"midi":50,"velocity":81,"channel":3,"program":27},{"beat":192.5,"duration":3.47917,"midi":50,"velocity":64,"channel":6,"program":29},{"beat":192.5,"duration":0.97917,"midi":69,"velocity":85,"channel":4,"program":26},{"beat":193.0,"duration":1.47917,"midi":62,"velocity":89,"channel":3,"program":27},{"beat":193.0,"duration":6.0,"midi":62,"velocity":70,"channel":4,"program":26},{"beat":193.0,"duration":1.47917,"midi":62,"velocity":65,"channel":6,"program":29},{"beat":193.0,"duration":1.47917,"midi":74,"velocity":88,"channel":4,"program":26},{"beat":193.0,"duration":0.35417,"midi":79,"velocity":102,"channel":0,"program":22},{"beat":193.5,"duration":1.97917,"midi":57,"velocity":86,"channel":3,"program":27},{"beat":193.5,"duration":2.47917,"midi":57,"velocity":67,"channel":6,"program":29},{"beat":193.5,"duration":1.97917,"midi":69,"velocity":90,"channel":4,"program":26},{"beat":193.5,"duration":0.97917,"midi":78,"velocity":102,"channel":0,"program":22},{"beat":194.0,"duration":1.97917,"midi":50,"velocity":78,"channel":3,"program":27},{"beat":194.5,"duration":0.39583,"midi":62,"velocity":80,"channel":1,"program":52},{"beat":194.5,"duration":0.47917,"midi":64,"velocity":86,"channel":3,"program":27},{"beat":194.5,"duration":1.47917,"midi":64,"velocity":66,"channel":6,"program":29},{"beat":194.5,"duration":0.47917,"midi":76,"velocity":87,"channel":4,"program":26},{"beat":194.5,"duration":0.47917,"midi":79,"velocity":100,"channel":0,"program":22},{"beat":195.0,"duration":0.47917,"midi":62,"velocity":79,"channel":1,"program":52},{"beat":195.0,"duration":0.97917,"midi":64,"velocity":87,"channel":3,"program":27},{"beat":195.0,"duration":0.97917,"midi":74,"velocity":90,"channel":4,"program":26},{"beat":195.0,"duration":0.97917,"midi":78,"velocity":101,"channel":0,"program":22},{"beat":195.5,"duration":0.22917,"midi":50,"velocity":92,"channel":12,"program":25},{"beat":195.5,"duration":0.47917,"midi":54,"velocity":90,"channel":3,"program":27},{"beat":195.5,"duration":0.47917,"midi":57,"velocity":70,"channel":4,"program":26},{"beat":195.5,"duration":0.47917,"midi":62,"velocity":78,"channel":1,"program":52},{"beat":195.5,"duration":0.97917,"midi":69,"velocity":87,"channel":4,"program":26},{"beat":195.52083,"duration":0.20833,"midi":54,"velocity":92,"channel":12,"program":25},{"beat":195.54167,"duration":0.1875,"midi":57,"velocity":96,"channel":12,"program":25},{"beat":195.75,"duration":0.22917,"midi":50,"velocity":90,"channel":12,"program":25},{"beat":195.77083,"duration":0.20833,"midi":54,"velocity":93,"channel":12,"program":25},{"beat":195.79167,"duration":0.1875,"midi":57,"velocity":97,"channel":12,"program":25},{"beat":196.0,"duration":3.97917,"midi":42,"velocity":78,"channel":3,"program":27},{"beat":196.0,"duration":1.47917,"midi":50,"velocity":69,"channel":3,"program":27},{"beat":196.0,"duration":2.47917,"midi":50,"velocity":92,"channel":12,"program":25},{"beat":196.0,"duration":2.47917,"midi":57,"velocity":79,"channel":4,"program":26},{"beat":196.0,"duration":2.47917,"midi":57,"velocity":70,"channel":11,"program":80},{"beat":196.0,"duration":0.52083,"midi":69,"velocity":79,"channel":1,"program":52},{"beat":196.0,"duration":2.47917,"midi":69,"velocity":64,"channel":11,"program":80},{"beat":196.0,"duration":0.47917,"midi":76,"velocity":102,"channel":0,"program":22},{"beat":196.02083,"duration":2.45833,"midi":54,"velocity":82,"channel":3,"program":27},{"beat":196.02083,"duration":2.45833,"midi":54,"velocity":96,"channel":12,"program":25},{"beat":196.04167,"duration":2.4375,"midi":57,"velocity":97,"channel":12,"program":25},{"beat":196.5,"duration":1.97917,"midi":69,"velocity":87,"channel":4,"program":26},{"beat":196.5,"duration":0.97917,"midi":71,"velocity":89,"channel":14,"program":31},{"beat":197.0,"duration":0.35417,"midi":67,"velocity":80,"channel":1,"program":52},{"beat":197.0,"duration":0.47917,"midi":74,"velocity":87,"channel":4,"program":26},{"beat":197.5,"duration":0.97917,"midi":50,"velocity":68,"channel":3,"program":27},{"beat":197.5,"duration":0.97917,"midi":66,"velocity":78,"channel":1,"program":52},{"beat":197.5,"duration":0.97917,"midi":66,"velocity":80,"channel":14,"program":31},{"beat":197.5,"duration":1.47917,"midi":74,"velocity":90,"channel":4,"program":26},{"beat":198.5,"duration":0.47917,"midi":49,"velocity":69,"channel":3,"program":27},{"beat":198.5,"duration":0.22917,"midi":50,"velocity":97,"channel":12,"program":25},{"beat":198.5,"duration":0.22917,"midi":54,"velocity":79,"channel":3,"program":27},{"beat":198.5,"duration":0.47917,"midi":54,"velocity":78,"channel":4,"program":26},{"beat":198.5,"duration":0.22917,"midi":54,"velocity":78,"channel":6,"program":29},{"beat":198.5,"duration":0.47917,"midi":54,"velocity":58,"channel":11,"program":80},{"beat":198.5,"duration":3.47917,"midi":62,"velocity":80,"channel":14,"program":31},{"beat":198.5,"duration":0.47917,"midi":66,"velocity":70,"channel":4,"program":26},{"beat":198.5,"duration":0.47917,"midi":66,"velocity":64,"channel":11,"program":80},{"beat":198.5,"duration":0.4375,"midi":67,"velocity":77,"channel":1,"program":52},{"beat":198.5,"duration":0.47917,"midi":69,"velocity":90,"channel":4,"program":26},{"beat":198.52083,"duration":0.20833,"midi":54,"velocity":95,"channel":12,"program":25},{"beat":198.52083,"duration":0.20833,"midi":57,"velocity":76,"channel":6,"program":29},{"beat":198.54167,"duration":0.1875,"midi":57,"velocity":92,"channel":12,"program":25},{"beat":198.75,"duration":0.22917,"midi":50,"velocity":94,"channel":12,"program":25},{"beat":198.75,"duration":0.22917,"midi":54,"velocity":79,"channel":3,"program":27},{"beat":198.75,"duration":0.22917,"midi":54,"velocity":80,"channel":6,"program":29},{"beat":198.77083,"duration":0.20833,"midi":54,"velocity":96,"channel":12,"program":25},{"beat":198.77083,"duration":0.20833,"midi":57,"velocity":75,"channel":6,"program":29},{"beat":198.79167,"duration":0.1875,"midi":57,"velocity":98,"channel":12,"program":25},{"beat":199.0,"duration":0.97917,"midi":35,"velocity":80,"channel":2,"program":33},{"beat":199.0,"duration":0.97917,"midi":50,"velocity":74,"channel":3,"program":27},{"beat":199.0,"duration":0.97917,"midi":50,"velocity":98,"channel":12,"program":25},{"beat":199.0,"duration":0.47917,"midi":54,"velocity":90,"channel":1,"program":52},{"beat":199.0,"duration":0.97917,"midi":54,"velocity":78,"channel":3,"program":27},{"beat":199.0,"duration":0.97917,"midi":54,"velocity":78,"channel":6,"program":29},{"beat":199.0,"duration":0.8125,"midi":57,"velocity":77,"channel":4,"program":26},{"beat":199.0,"duration":0.97917,"midi":57,"velocity":58,"channel":11,"program":80},{"beat":199.0,"duration":0.97917,"midi":66,"velocity":78,"channel":1,"program":52},{"beat":199.0,"duration":0.8125,"midi":69,"velocity":85,"channel":4,"program":26},{"beat":199.0,"duration":0.97917,"midi":69,"velocity":63,"channel":11,"program":80},{"beat":199.0,"duration":0.8125,"midi":74,"velocity":80,"channel":4,"program":26},{"beat":199.0,"duration":0.47917,"midi":78,"velocity":101,"channel":0,"program":22},{"beat":199.02083,"duration":0.95833,"midi":54,"velocity":95,"channel":12,"program":25},{"beat":199.02083,"duration":0.95833,"midi":57,"velocity":80,"channel":6,"program":29},{"beat":199.04167,"duration":0.9375,"midi":57,"velocity":94,"channel":12,"program":25},{"beat":199.5,"duration":0.39583,"midi":52,"velocity":90,"channel":1,"program":52},{"beat":199.5,"duration":0.39583,"midi":76,"velocity":102,"channel":0,"program":22},{"beat":200.0,"duration":6.0,"midi":40,"velocity":90,"channel":2,"program":33},{"beat":200.0,"duration":6.0,"midi":40,"velocity":86,"channel":3,"program":27},{"beat":200.0,"duration":6.0,"midi":40,"velocity":77,"channel":6,"program":29},{"beat":200.0,"duration":3.97917,"midi":52,"velocity":70,"channel":3,"program":27},{"beat":200.0,"duration":0.22917,"midi":52,"velocity":74,"channel":4,"program":28},{"beat":200.0,"duration":3.97917,"midi":52,"velocity":78,"channel":6,"program":29},{"beat":200.0,"duration":2.47917,"midi":52,"velocity":97,"channel":12,"program":25},{"beat":200.0,"duration":1.22917,"midi":54,"velocity":88,"channel":1,"program":52},{"beat":200.0,"duration":3.97917,"midi":55,"velocity":75,"channel":6,"program":29},{"beat":200.0,"duration":6.0,"midi":55,"velocity":79,"channel":11,"program":80},{"beat":200.0,"duration":6.0,"midi":59,"velocity":80,"channel":11,"program":80},{"beat":200.0,"duration":0.14583,"midi":59,"velocity":87,"channel":13,"program":81},{"beat":200.0,"duration":2.47917,"midi":62,"velocity":80,"channel":7,"program":51},{"beat":200.0,"duration":0.47917,"midi":64,"velocity":67,"channel":1,"program":52},{"beat":200.0,"duration":0.14583,"midi":64,"velocity":87,"channel":13,"program":81},{"beat":200.0,"duration":1.22917,"midi":78,"velocity":100,"channel":0,"program":22},{"beat":200.02083,"duration":3.95833,"midi":55,"velocity":84,"channel":3,"program":27},{"beat":200.02083,"duration":0.20833,"midi":55,"velocity":80,"channel":4,"program":28},{"beat":200.02083,"duration":3.45833,"midi":55,"velocity":91,"channel":12,"program":25},{"beat":200.02083,"duration":3.95833,"midi":59,"velocity":70,"channel":6,"program":29},{"beat":200.04167,"duration":0.9375,"midi":57,"velocity":97,"channel":12,"program":25},{"beat":200.04167,"duration":3.9375,"midi":59,"velocity":89,"channel":3,"program":27},{"beat":200.04167,"duration":0.1875,"midi":59,"velocity":69,"channel":4,"program":28},{"beat":200.04167,"duration":3.4375,"midi":64,"velocity":60,"channel":6,"program":29},{"beat":200.5,"duration":0.22917,"midi":52,"velocity":63,"channel":4,"program":28},{"beat":200.5,"duration":0.14583,"midi":59,"velocity":74,"channel":13,"program":81},{"beat":200.5,"duration":0.14583,"midi":64,"velocity":74,"channel":13,"program":81},{"beat":200.52083,"duration":0.20833,"midi":55,"velocity":64,"channel":4,"program":28},{"beat":200.54167,"duration":0.1875,"midi":59,"velocity":62,"channel":4,"program":28},{"beat":200.75,"duration":0.14583,"midi":64,"velocity":76,"channel":13,"program":81},{"beat":201.0,"duration":0.22917,"midi":52,"velocity":79,"channel":4,"program":28},{"beat":201.0,"duration":0.14583,"midi":59,"velocity":89,"channel":13,"program":81},{"beat":201.0,"duration":0.14583,"midi":64,"velocity":89,"channel":13,"program":81},{"beat":201.02083,"duration":0.20833,"midi":55,"velocity":81,"channel":4,"program":28},{"beat":201.02083,"duration":5.45833,"midi":59,"velocity":93,"channel":12,"program":25},{"beat":201.04167,"duration":0.1875,"midi":59,"velocity":72,"channel":4,"program":28},{"beat":201.04167,"duration":2.4375,"midi":62,"velocity":87,"channel":12,"program":25},{"beat":201.5,"duration":0.3125,"midi":52,"velocity":90,"channel":1,"program":52},{"beat":201.5,"duration":0.22917,"midi":52,"velocity":66,"channel":4,"program":28},{"beat":201.5,"duration":0.14583,"midi":59,"velocity":76,"channel":13,"program":81},{"beat":201.5,"duration":0.14583,"midi":64,"velocity":76,"channel":13,"program":81},{"beat":201.5,"duration":0.3125,"midi":76,"velocity":101,"channel":0,"program":22},{"beat":201.52083,"duration":0.20833,"midi":55,"velocity":65,"channel":4,"program":28},{"beat":201.54167,"duration":0.1875,"midi":59,"velocity":61,"channel":4,"program":28},{"beat":201.75,"duration":0.14583,"midi":64,"velocity":87,"channel":13,"program":81},{"beat":202.0,"duration":0.22917,"midi":52,"velocity":69,"channel":4,"program":28},{"beat":202.0,"duration":1.39583,"midi":54,"velocity":90,"channel":1,"program":52},{"beat":202.0,"duration":0.14583,"midi":59,"velocity":81,"channel":13,"program":81},{"beat":202.0,"duration":0.14583,"midi":64,"velocity":81,"channel":13,"program":81},{"beat":202.0,"duration":1.39583,"midi":78,"velocity":102,"channel":0,"program":22},{"beat":202.02083,"duration":0.20833,"midi":55,"velocity":69,"channel":4,"program":28},{"beat":202.04167,"duration":0.1875,"midi":59,"velocity":67,"channel":4,"program":28},{"beat":202.5,"duration":0.22917,"midi":52,"velocity":67,"channel":4,"program":28},{"beat":202.5,"duration":0.47917,"midi":52,"velocity":100,"channel":11,"program":80},{"beat":202.5,"duration":3.97917,"midi":52,"velocity":77,"channel":12,"program":25},{"beat":202.5,"duration":0.14583,"midi":59,"velocity":76,"channel":13,"program":81},{"beat":202.5,"duration":0.97917,"midi":64,"velocity":90,"channel":7,"program":51},{"beat":202.5,"duration":0.14583,"midi":64,"velocity":76,"channel":13,"program":81},{"beat":202.52083,"duration":0.20833,"midi":55,"velocity":68,"channel":4,"program":28},{"beat":202.54167,"duration":0.1875,"midi":59,"velocity":64,"channel":4,"program":28},{"beat":202.75,"duration":0.14583,"midi":64,"velocity":70,"channel":13,"program":81},{"beat":203.0,"duration":0.22917,"midi":52,"velocity":74,"channel":4,"program":28},{"beat":203.0,"duration":0.14583,"midi":59,"velocity":85,"channel":13,"program":81},{"beat":203.0,"duration":0.14583,"midi":64,"velocity":85,"channel":13,"program":81},{"beat":203.02083,"duration":0.20833,"midi":55,"velocity":77,"channel":4,"program":28},{"beat":203.04167,"duration":0.1875,"midi":59,"velocity":71,"channel":4,"program":28},{"beat":203.5,"duration":0.3125,"midi":52,"velocity":89,"channel":1,"program":52},{"beat":203.5,"duration":0.22917,"midi":52,"velocity":65,"channel":4,"program":28},{"beat":203.5,"duration":0.22917,"midi":55,"velocity":85,"channel":12,"program":25},{"beat":203.5,"duration":0.14583,"midi":59,"velocity":76,"channel":13,"program":81},{"beat":203.5,"duration":0.22917,"midi":62,"velocity":82,"channel":3,"program":27},{"beat":203.5,"duration":0.22917,"midi":62,"velocity":78,"channel":6,"program":29},{"beat":203.5,"duration":1.47917,"midi":62,"velocity":80,"channel":7,"program":51},{"beat":203.5,"duration":0.14583,"midi":62,"velocity":76,"channel":13,"program":81},{"beat":203.5,"duration":0.3125,"midi":76,"velocity":101,"channel":0,"program":22},{"beat":203.52083,"duration":0.20833,"midi":55,"velocity":64,"channel":4,"program":28},{"beat":203.52083,"duration":0.20833,"midi":62,"velocity":87,"channel":12,"program":25},{"beat":203.52083,"duration":0.20833,"midi":66,"velocity":50,"channel":3,"program":27},{"beat":203.54167,"duration":0.1875,"midi":59,"velocity":61,"channel":4,"program":28},{"beat":203.75,"duration":0.22917,"midi":55,"velocity":76,"channel":12,"program":25},{"beat":203.75,"duration":0.22917,"midi":62,"velocity":81,"channel":3,"program":27},{"beat":203.75,"duration":0.22917,"midi":62,"velocity":79,"channel":6,"program":29},{"beat":203.75,"duration":0.14583,"midi":62,"velocity":76,"channel":13,"program":81},{"beat":203.77083,"duration":0.20833,"midi":62,"velocity":78,"channel":12,"program":25},{"beat":203.77083,"duration":0.20833,"midi":66,"velocity":60,"channel":3,"program":27},{"beat":204.0,"duration":0.22917,"midi":52,"velocity":80,"channel":4,"program":28},{"beat":204.0,"duration":0.22917,"midi":55,"velocity":89,"channel":3,"program":27},{"beat":204.0,"duration":0.22917,"midi":55,"velocity":75,"channel":6,"program":29},{"beat":204.0,"duration":1.47917,"midi":55,"velocity":94,"channel":12,"program":25},{"beat":204.0,"duration":0.97917,"midi":57,"velocity":90,"channel":1,"program":52},{"beat":204.0,"duration":0.97917,"midi":62,"velocity":88,"channel":1,"program":52},{"beat":204.0,"duration":0.22917,"midi":62,"velocity":61,"channel":3,"program":27},{"beat":204.0,"duration":0.14583,"midi":62,"velocity":70,"channel":13,"program":81},{"beat":204.0,"duration":0.97917,"midi":67,"velocity":90,"channel":1,"program":52},{"beat":204.0,"duration":0.22917,"midi":67,"velocity":76,"channel":6,"program":29},{"beat":204.0,"duration":0.14583,"midi":67,"velocity":70,"channel":13,"program":81},{"beat":204.0,"duration":0.97917,"midi":74,"velocity":90,"channel":1,"program":52},{"beat":204.0,"duration":0.97917,"midi":81,"velocity":102,"channel":0,"program":22},{"beat":204.02083,"duration":0.20833,"midi":55,"velocity":79,"channel":4,"program":28},{"beat":204.02083,"duration":0.20833,"midi":67,"velocity":70,"channel":3,"program":27},{"beat":204.04167,"duration":0.1875,"midi":59,"velocity":72,"channel":4,"program":28},{"beat":204.04167,"duration":1.4375,"midi":62,"velocity":96,"channel":12,"program":25},{"beat":204.5,"duration":0.22917,"midi":52,"velocity":66,"channel":4,"program":28},{"beat":204.5,"duration":0.47917,"midi":55,"velocity":73,"channel":3,"program":27},{"beat":204.5,"duration":0.47917,"midi":55,"velocity":79,"channel":6,"program":29},{"beat":204.5,"duration":0.14583,"midi":62,"velocity":75,"channel":13,"program":81},{"beat":204.5,"duration":0.47917,"midi":67,"velocity":77,"channel":6,"program":29},{"beat":204.5,"duration":0.14583,"midi":67,"velocity":75,"channel":13,"program":81},{"beat":204.52083,"duration":0.20833,"midi":55,"velocity":65,"channel":4,"program":28},{"beat":204.52083,"duration":0.45833,"midi":59,"velocity":69,"channel":3,"program":27},{"beat":204.54167,"duration":0.1875,"midi":59,"velocity":60,"channel":4,"program":28},{"beat":204.54167,"duration":0.4375,"midi":67,"velocity":71,"channel":3,"program":27},{"beat":204.75,"duration":0.14583,"midi":62,"velocity":76,"channel":13,"program":81},{"beat":204.75,"duration":0.14583,"midi":67,"velocity":76,"channel":13,"program":81},{"beat":205.0,"duration":0.22917,"midi":52,"velocity":77,"channel":4,"program":28},{"beat":205.0,"duration":0.47917,"midi":55,"velocity":84,"channel":3,"program":27},{"beat":205.0,"duration":0.47917,"midi":59,"velocity":90,"channel":1,"program":52},{"beat":205.0,"duration":0.14583,"midi":62,"velocity":88,"channel":13,"program":81},{"beat":205.0,"duration":0.47917,"midi":64,"velocity":87,"channel":1,"program":52},{"beat":205.0,"duration":0.47917,"midi":67,"velocity":90,"channel":1,"program":52},{"beat":205.0,"duration":0.47917,"midi":67,"velocity":80,"channel":6,"program":29},{"beat":205.0,"duration":0.14583,"midi":67,"velocity":88,"channel":13,"program":81},{"beat":205.0,"duration":0.47917,"midi":76,"velocity":90,"channel":1,"program":52},{"beat":205.0,"duration":0.47917,"midi":83,"velocity":101,"channel":0,"program":22},{"beat":205.02083,"duration":0.20833,"midi":55,"velocity":79,"channel":4,"program":28},{"beat":205.02083,"duration":0.45833,"midi":59,"velocity":88,"channel":3,"program":27},{"beat":205.04167,"duration":0.1875,"midi":59,"velocity":75,"channel":4,"program":28},{"beat":205.04167,"duration":0.4375,"midi":67,"velocity":85,"channel":3,"program":27},{"beat":205.5,"duration":0.22917,"midi":52,"velocity":67,"channel":4,"program":28},{"beat":205.5,"duration":0.47917,"midi":55,"velocity":71,"channel":3,"program":27},{"beat":205.5,"duration":0.47917,"midi":55,"velocity":78,"channel":6,"program":29},{"beat":205.5,"duration":0.47917,"midi":55,"velocity":88,"channel":12,"program":25},{"beat":205.5,"duration":0.47917,"midi":57,"velocity":90,"channel":1,"program":52},{"beat":205.5,"duration":0.47917,"midi":62,"velocity":90,"channel":1,"program":52},{"beat":205.5,"duration":0.97917,"midi":62,"velocity":70,"channel":7,"program":51},{"beat":205.5,"duration":0.14583,"midi":62,"velocity":78,"channel":13,"program":81},{"beat":205.5,"duration":0.47917,"midi":67,"velocity":88,"channel":1,"program":52},{"beat":205.5,"duration":0.47917,"midi":67,"velocity":77,"channel":6,"program":29},{"beat":205.5,"duration":0.14583,"midi":67,"velocity":78,"channel":13,"program":81},{"beat":205.5,"duration":0.47917,"midi":74,"velocity":87,"channel":1,"program":52},{"beat":205.5,"duration":0.47917,"midi":81,"velocity":102,"channel":0,"program":22},{"beat":205.52083,"duration":0.20833,"midi":55,"velocity":68,"channel":4,"program":28},{"beat":205.52083,"duration":0.45833,"midi":59,"velocity":73,"channel":3,"program":27},{"beat":205.54167,"duration":0.1875,"midi":59,"velocity":61,"channel":4,"program":28},{"beat":205.54167,"duration":0.4375,"midi":62,"velocity":86,"channel":12,"program":25},{"beat":205.54167,"duration":0.4375,"midi":67,"velocity":74,"channel":3,"program":27},{"beat":205.75,"duration":0.14583,"midi":62,"velocity":86,"channel":13,"program":81},{"beat":205.75,"duration":0.14583,"midi":67,"velocity":86,"channel":13,"program":81},{"beat":206.0,"duration":0.22917,"midi":52,"velocity":72,"channel":4,"program":28},{"beat":206.0,"duration":0.97917,"midi":54,"velocity":77,"channel":3,"program":27},{"beat":206.0,"duration":1.47917,"midi":55,"velocity":96,"channel":12,"program":25},{"beat":206.0,"duration":0.14583,"midi":62,"velocity":83,"channel":13,"program":81},{"beat":206.0,"duration":0.72917,"midi":66,"velocity":77,"channel":6,"program":29},{"beat":206.0,"duration":0.14583,"midi":67,"velocity":83,"channel":13,"program":81},{"beat":206.02083,"duration":0.20833,"midi":55,"velocity":74,"channel":4,"program":28},{"beat":206.02083,"duration":1.95833,"midi":57,"velocity":80,"channel":3,"program":27},{"beat":206.04167,"duration":0.1875,"midi":59,"velocity":70,"channel":4,"program":28},{"beat":206.04167,"duration":1.9375,"midi":62,"velocity":92,"channel":12,"program":25},{"beat":206.04167,"duration":0.9375,"midi":66,"velocity":81,"channel":3,"program":27},{"beat":206.5,"duration":0.22917,"midi":52,"velocity":75,"channel":4,"program":28},{"beat":206.5,"duration":0.47917,"midi":52,"velocity":87,"channel":12,"program":25},{"beat":206.5,"duration":0.47917,"midi":54,"velocity":88,"channel":1,"program":52},{"beat":206.5,"duration":0.47917,"midi":55,"velocity":75,"channel":6,"program":29},{"beat":206.5,"duration":0.47917,"midi":57,"velocity":74,"channel":6,"program":29},{"beat":206.5,"duration":0.14583,"midi":62,"velocity":82,"channel":13,"program":81},{"beat":206.5,"duration":1.47917,"midi":64,"velocity":88,"channel":7,"program":51},{"beat":206.5,"duration":0.14583,"midi":67,"velocity":82,"channel":13,"program":81},{"beat":206.5,"duration":0.47917,"midi":78,"velocity":102,"channel":0,"program":22},{"beat":206.52083,"duration":0.20833,"midi":55,"velocity":74,"channel":4,"program":28},{"beat":206.52083,"duration":1.45833,"midi":57,"velocity":94,"channel":12,"program":25},{"beat":206.54167,"duration":0.1875,"midi":59,"velocity":66,"channel":4,"program":28},{"beat":206.75,"duration":0.14583,"midi":62,"velocity":91,"channel":13,"program":81},{"beat":206.75,"duration":0.14583,"midi":67,"velocity":91,"channel":13,"program":81},{"beat":207.0,"duration":0.22917,"midi":52,"velocity":83,"channel":4,"program":28},{"beat":207.0,"duration":0.97917,"midi":52,"velocity":79,"channel":12,"program":25},{"beat":207.0,"duration":0.47917,"midi":55,"velocity":83,"channel":3,"program":27},{"beat":207.0,"duration":0.47917,"midi":57,"velocity":76,"channel":6,"program":29},{"beat":207.0,"duration":0.14583,"midi":62,"velocity":91,"channel":13,"program":81},{"beat":207.0,"duration":0.47917,"midi":67,"velocity":77,"channel":6,"program":29},{"beat":207.0,"duration":0.14583,"midi":67,"velocity":91,"channel":13,"program":81},{"beat":207.02083,"duration":0.20833,"midi":55,"velocity":83,"channel":4,"program":28},{"beat":207.02083,"duration":0.45833,"midi":67,"velocity":84,"channel":3,"program":27},{"beat":207.04167,"duration":0.1875,"midi":59,"velocity":79,"channel":4,"program":28},{"beat":207.5,"duration":0.39583,"midi":52,"velocity":88,"channel":1,"program":52},{"beat":207.5,"duration":0.22917,"midi":52,"velocity":69,"channel":4,"program":28},{"beat":207.5,"duration":0.47917,"midi":55,"velocity":75,"channel":3,"program":27},{"beat":207.5,"duration":0.47917,"midi":55,"velocity":75,"channel":6,"program":29},{"beat":207.5,"duration":0.47917,"midi":55,"velocity":96,"channel":12,"program":25},{"beat":207.5,"duration":0.14583,"midi":62,"velocity":80,"channel":13,"program":81},{"beat":207.5,"duration":0.47917,"midi":67,"velocity":80,"channel":6,"program":29},{"beat":207.5,"duration":0.14583,"midi":67,"velocity":80,"channel":13,"program":81},{"beat":207.5,"duration":0.39583,"midi":76,"velocity":101,"channel":0,"program":22},{"beat":207.52083,"duration":0.20833,"midi":55,"velocity":69,"channel":4,"program":28},{"beat":207.52083,"duration":0.45833,"midi":67,"velocity":74,"channel":3,"program":27},{"beat":207.54167,"duration":0.1875,"midi":59,"velocity":67,"channel":4,"program":28},{"beat":207.75,"duration":0.14583,"midi":62,"velocity":79,"channel":13,"program":81},{"beat":207.75,"duration":0.14583,"midi":67,"velocity":79,"channel":13,"program":81},{"beat":208.0,"duration":6.0,"midi":42,"velocity":90,"channel":2,"program":33},{"beat":208.0,"duration":5.47917,"midi":42,"velocity":89,"channel":3,"program":27},{"beat":208.0,"duration":5.47917,"midi":42,"velocity":79,"channel":6,"program":29},{"beat":208.0,"duration":1.22917,"midi":54,"velocity":87,"channel":1,"program":52},{"beat":208.0,"duration":2.47917,"midi":54,"velocity":90,"channel":3,"program":27},{"beat":208.0,"duration":0.22917,"midi":54,"velocity":80,"channel":4,"program":28},{"beat":208.0,"duration":1.97917,"midi":54,"velocity":75,"channel":6,"program":29},{"beat":208.0,"duration":6.0,"midi":54,"velocity":77,"channel":11,"program":80},{"beat":208.0,"duration":1.97917,"midi":54,"velocity":91,"channel":12,"program":25},{"beat":208.0,"duration":2.47917,"midi":57,"velocity":80,"channel":3,"program":27},{"beat":208.0,"duration":1.97917,"midi":57,"velocity":80,"channel":6,"program":29},{"beat":208.0,"duration":6.0,"midi":57,"velocity":80,"channel":11,"program":80},{"beat":208.0,"duration":0.14583,"midi":62,"velocity":87,"channel":13,"program":81},{"beat":208.0,"duration":3.47917,"midi":66,"velocity":75,"channel":7,"program":51},{"beat":208.0,"duration":6.0,"midi":66,"velocity":75,"channel":11,"program":80},{"beat":208.0,"duration":0.14583,"midi":66,"velocity":87,"channel":13,"program":81},{"beat":208.0,"duration":1.22917,"midi":78,"velocity":101,"channel":0,"program":22},{"beat":208.02083,"duration":0.20833,"midi":57,"velocity":78,"channel":4,"program":28},{"beat":208.02083,"duration":1.95833,"midi":57,"velocity":97,"channel":12,"program":25},{"beat":208.02083,"duration":1.95833,"midi":62,"velocity":90,"channel":3,"program":27},{"beat":208.02083,"duration":1.95833,"midi":62,"velocity":76,"channel":6,"program":29},{"beat":208.04167,"duration":0.1875,"midi":62,"velocity":72,"channel":4,"program":28},{"beat":208.04167,"duration":1.9375,"midi":62,"velocity":89,"channel":12,"program":25},{"beat":208.04167,"duration":2.4375,"midi":66,"velocity":89,"channel":3,"program":27},{"beat":208.04167,"duration":1.9375,"midi":66,"velocity":78,"channel":6,"program":29},{"beat":208.5,"duration":0.22917,"midi":54,"velocity":67,"channel":4,"program":28},{"beat":208.5,"duration":0.14583,"midi":62,"velocity":74,"channel":13,"program":81},{"beat":208.5,"duration":0.14583,"midi":66,"velocity":74,"channel":13,"program":81},{"beat":208.52083,"duration":0.20833,"midi":57,"velocity":63,"channel":4,"program":28},{"beat":208.54167,"duration":0.1875,"midi":62,"velocity":59,"channel":4,"program":28},{"beat":208.75,"duration":0.14583,"midi":62,"velocity":76,"channel":13,"program":81},{"beat":208.75,"duration":0.14583,"midi":66,"velocity":76,"channel":13,"program":81},{"beat":209.0,"duration":0.22917,"midi":54,"velocity":77,"channel":4,"program":28},{"beat":209.0,"duration":0.14583,"midi":62,"velocity":89,"channel":13,"program":81},{"beat":209.0,"duration":0.14583,"midi":66,"velocity":89,"channel":13,"program":81},{"beat":209.02083,"duration":0.20833,"midi":57,"velocity":77,"channel":4,"program":28},{"beat":209.04167,"duration":0.1875,"midi":62,"velocity":74,"channel":4,"program":28},{"beat":209.5,"duration":0.47917,"midi":52,"velocity":90,"channel":1,"program":52},{"beat":209.5,"duration":0.22917,"midi":54,"velocity":64,"channel":4,"program":28},{"beat":209.5,"duration":0.14583,"midi":62,"velocity":76,"channel":13,"program":81},{"beat":209.5,"duration":0.14583,"midi":66,"velocity":76,"channel":13,"program":81},{"beat":209.5,"duration":0.47917,"midi":76,"velocity":102,"channel":0,"program":22},{"beat":209.52083,"duration":0.20833,"midi":57,"velocity":65,"channel":4,"program":28},{"beat":209.54167,"duration":0.1875,"midi":62,"velocity":62,"channel":4,"program":28},{"beat":209.75,"duration":0.14583,"midi":62,"velocity":87,"channel":13,"program":81},{"beat":209.75,"duration":0.14583,"midi":66,"velocity":87,"channel":13,"program":81},{"beat":210.0,"duration":0.47917,"midi":54,"velocity":89,"channel":1,"program":52},{"beat":210.0,"duration":0.22917,"midi":54,"velocity":74,"channel":4,"program":28},{"beat":210.0,"duration":0.22917,"midi":54,"velocity":98,"channel":12,"program":25},{"beat":210.0,"duration":0.47917,"midi":62,"velocity":73,"channel":3,"program":27},{"beat":210.0,"duration":0.08,"midi":62,"velocity":78,"channel":6,"program":29},{"beat":210.0,"duration":0.14583,"midi":62,"velocity":81,"channel":13,"program":81},{"beat":210.0,"duration":0.14583,"midi":66,"velocity":81,"channel":13,"program":81},{"beat":210.0,"duration":0.47917,"midi":78,"velocity":101,"channel":0,"program":22},{"beat":210.02083,"duration":0.20833,"midi":57,"velocity":71,"channel":4,"program":28},{"beat":210.02083,"duration":0.20833,"midi":57,"velocity":99,"channel":12,"program":25},{"beat":210.04167,"duration":0.1875,"midi":62,"velocity":67,"channel":4,"program":28},{"beat":210.04167,"duration":0.1875,"midi":62,"velocity":92,"channel":12,"program":25},{"beat":210.5,"duration":0.52083,"midi":52,"velocity":90,"channel":1,"program":52},{"beat":210.5,"duration":0.47917,"midi":54,"velocity":87,"channel":3,"program":27},{"beat":210.5,"duration":0.22917,"midi":54,"velocity":66,"channel":4,"program":28},{"beat":210.5,"duration":0.47917,"midi":54,"velocity":76,"channel":6,"program":29},{"beat":210.5,"duration":0.47917,"midi":54,"velocity":96,"channel":12,"program":25},{"beat":210.5,"duration":0.14583,"midi":62,"velocity":76,"channel":13,"program":81},{"beat":210.5,"duration":0.47917,"midi":66,"velocity":77,"channel":6,"program":29},{"beat":210.5,"duration":0.14583,"midi":66,"velocity":76,"channel":13,"program":81},{"beat":210.5,"duration":0.52083,"midi":76,"velocity":102,"channel":0,"program":22},{"beat":210.52083,"duration":0.20833,"midi":57,"velocity":66,"channel":4,"program":28},{"beat":210.52083,"duration":0.45833,"midi":57,"velocity":99,"channel":12,"program":25},{"beat":210.52083,"duration":0.45833,"midi":66,"velocity":86,"channel":3,"program":27},{"beat":210.54167,"duration":0.1875,"midi":62,"velocity":64,"channel":4,"program":28},{"beat":210.54167,"duration":0.4375,"midi":62,"velocity":95,"channel":12,"program":25},{"beat":210.75,"duration":0.14583,"midi":62,"velocity":70,"channel":13,"program":81},{"beat":210.75,"duration":0.14583,"midi":66,"velocity":70,"channel":13,"program":81},{"beat":211.0,"duration":0.22917,"midi":54,"velocity":78,"channel":4,"program":28},{"beat":211.0,"duration":0.14583,"midi":62,"velocity":85,"channel":13,"program":81},{"beat":211.0,"duration":0.14583,"midi":66,"velocity":85,"channel":13,"program":81},{"beat":211.02083,"duration":0.20833,"midi":57,"velocity":77,"channel":4,"program":28},{"beat":211.04167,"duration":0.1875,"midi":62,"velocity":68,"channel":4,"program":28},{"beat":211.5,"duration":0.39583,"midi":50,"velocity":87,"channel":1,"program":52},{"beat":211.5,"duration":0.22917,"midi":54,"velocity":64,"channel":4,"program":28},{"beat":211.5,"duration":0.47917,"midi":54,"velocity":97,"channel":12,"program":25},{"beat":211.5,"duration":0.47917,"midi":55,"velocity":89,"channel":3,"program":27},{"beat":211.5,"duration":0.47917,"midi":55,"velocity":77,"channel":6,"program":29},{"beat":211.5,"duration":0.14583,"midi":62,"velocity":76,"channel":13,"program":81},{"beat":211.5,"duration":0.97917,"midi":66,"velocity":85,"channel":7,"program":51},{"beat":211.5,"duration":0.14583,"midi":66,"velocity":76,"channel":13,"program":81},{"beat":211.5,"duration":0.47917,"midi":67,"velocity":87,"channel":3,"program":27},{"beat":211.5,"duration":0.47917,"midi":67,"velocity":75,"channel":6,"program":29},{"beat":211.5,"duration":0.39583,"midi":74,"velocity":102,"channel":0,"program":22},{"beat":211.52083,"duration":0.20833,"midi":57,"velocity":66,"channel":4,"program":28},{"beat":211.52083,"duration":0.45833,"midi":57,"velocity":99,"channel":12,"program":25},{"beat":211.54167,"duration":0.1875,"midi":62,"velocity":63,"channel":4,"program":28},{"beat":211.54167,"duration":0.4375,"midi":62,"velocity":95,"channel":12,"program":25},{"beat":211.75,"duration":0.14583,"midi":62,"velocity":76,"channel":13,"program":81},{"beat":211.75,"duration":0.14583,"midi":66,"velocity":76,"channel":13,"program":81},{"beat":212.0,"duration":0.22917,"midi":54,"velocity":77,"channel":4,"program":28},{"beat":212.0,"duration":0.47917,"midi":57,"velocity":89,"channel":1,"program":52},{"beat":212.0,"duration":0.47917,"midi":62,"velocity":86,"channel":1,"program":52},{"beat":212.0,"duration":0.14583,"midi":62,"velocity":70,"channel":13,"program":81},{"beat":212.0,"duration":0.47917,"midi":66,"velocity":90,"channel":1,"program":52},{"beat":212.0,"duration":0.14583,"midi":66,"velocity":70,"channel":13,"program":81},{"beat":212.0,"duration":0.47917,"midi":74,"velocity":90,"channel":1,"program":52},{"beat":212.0,"duration":0.47917,"midi":81,"velocity":100,"channel":0,"program":22},{"beat":212.02083,"duration":0.20833,"midi":57,"velocity":75,"channel":4,"program":28},{"beat":212.04167,"duration":0.1875,"midi":62,"velocity":70,"channel":4,"program":28},{"beat":212.5,"duration":0.22917,"midi":54,"velocity":67,"channel":4,"program":28},{"beat":212.5,"duration":0.47917,"midi":54,"velocity":97,"channel":12,"program":25},{"beat":212.5,"duration":0.47917,"midi":57,"velocity":89,"channel":1,"program":52},{"beat":212.5,"duration":0.47917,"midi":57,"velocity":86,"channel":3,"program":27},{"beat":212.5,"duration":0.47917,"midi":57,"velocity":70,"channel":6,"program":29},{"beat":212.5,"duration":0.47917,"midi":62,"velocity":88,"channel":1,"program":52},{"beat":212.5,"duration":0.97917,"midi":62,"velocity":85,"channel":7,"program":51},{"beat":212.5,"duration":0.14583,"midi":62,"velocity":75,"channel":13,"program":81},{"beat":212.5,"duration":0.47917,"midi":66,"velocity":90,"channel":1,"program":52},{"beat":212.5,"duration":0.14583,"midi":66,"velocity":75,"channel":13,"program":81},{"beat":212.5,"duration":0.47917,"midi":69,"velocity":85,"channel":3,"program":27},{"beat":212.5,"duration":0.47917,"midi":69,"velocity":75,"channel":6,"program":29},{"beat":212.5,"duration":0.47917,"midi":74,"velocity":90,"channel":1,"program":52},{"beat":212.5,"duration":0.47917,"midi":81,"velocity":101,"channel":0,"program":22},{"beat":212.52083,"duration":0.20833,"midi":57,"velocity":65,"channel":4,"program":28},{"beat":212.52083,"duration":0.45833,"midi":57,"velocity":97,"channel":12,"program":25},{"beat":212.52083,"duration":0.45833,"midi":74,"velocity":70,"channel":6,"program":29},{"beat":212.54167,"duration":0.1875,"midi":62,"velocity":59,"channel":4,"program":28},{"beat":212.54167,"duration":0.4375,"midi":62,"velocity":94,"channel":12,"program":25},{"beat":212.75,"duration":0.14583,"midi":62,"velocity":76,"channel":13,"program":81},{"beat":212.75,"duration":0.14583,"midi":66,"velocity":76,"channel":13,"program":81},{"beat":213.0,"duration":0.22917,"midi":54,"velocity":78,"channel":4,"program":28},{"beat":213.0,"duration":0.47917,"midi":59,"velocity":90,"channel":1,"program":52},{"beat":213.0,"duration":0.14583,"midi":62,"velocity":88,"channel":13,"program":81},{"beat":213.0,"duration":0.47917,"midi":64,"velocity":89,"channel":1,"program":52},{"beat":213.0,"duration":0.47917,"midi":66,"velocity":86,"channel":1,"program":52},{"beat":213.0,"duration":0.14583,"midi":66,"velocity":88,"channel":13,"program":81},{"beat":213.0,"duration":0.47917,"midi":76,"velocity":88,"channel":1,"program":52},{"beat":213.0,"duration":0.47917,"midi":83,"velocity":101,"channel":0,"program":22},{"beat":213.02083,"duration":0.20833,"midi":57,"velocity":78,"channel":4,"program":28},{"beat":213.04167,"duration":0.1875,"midi":62,"velocity":72,"channel":4,"program":28},{"beat":213.5,"duration":0.97917,"midi":54,"velocity":85,"channel":3,"program":27},{"beat":213.5,"duration":0.22917,"midi":54,"velocity":66,"channel":4,"program":28},{"beat":213.5,"duration":0.47917,"midi":54,"velocity":93,"channel":12,"program":25},{"beat":213.5,"duration":0.47917,"midi":57,"velocity":90,"channel":1,"program":52},{"beat":213.5,"duration":0.97917,"midi":57,"velocity":86,"channel":7,"program":51},{"beat":213.5,"duration":0.47917,"midi":62,"velocity":88,"channel":1,"program":52},{"beat":213.5,"duration":0.14583,"midi":62,"velocity":78,"channel":13,"program":81},{"beat":213.5,"duration":0.47917,"midi":66,"velocity":89,"channel":1,"program":52},{"beat":213.5,"duration":0.97917,"midi":66,"velocity":86,"channel":3,"program":27},{"beat":213.5,"duration":0.97917,"midi":66,"velocity":80,"channel":6,"program":29},{"beat":213.5,"duration":0.14583,"midi":66,"velocity":78,"channel":13,"program":81},{"beat":213.5,"duration":0.47917,"midi":74,"velocity":89,"channel":1,"program":52},{"beat":213.5,"duration":0.47917,"midi":81,"velocity":102,"channel":0,"program":22},{"beat":213.52083,"duration":0.20833,"midi":57,"velocity":67,"channel":4,"program":28},{"beat":213.52083,"duration":0.45833,"midi":57,"velocity":96,"channel":12,"program":25},{"beat":213.54167,"duration":0.1875,"midi":62,"velocity":64,"channel":4,"program":28},{"beat":213.54167,"duration":0.4375,"midi":62,"velocity":97,"channel":12,"program":25},{"beat":213.75,"duration":0.14583,"midi":62,"velocity":86,"channel":13,"program":81},{"beat":213.75,"duration":0.14583,"midi":66,"velocity":86,"channel":13,"program":81},{"beat":214.0,"duration":0.22917,"midi":54,"velocity":72,"channel":4,"program":28},{"beat":214.0,"duration":0.14583,"midi":62,"velocity":83,"channel":13,"program":81},{"beat":214.0,"duration":0.14583,"midi":66,"velocity":83,"channel":13,"program":81},{"beat":214.02083,"duration":0.20833,"midi":57,"velocity":73,"channel":4,"program":28},{"beat":214.04167,"duration":0.1875,"midi":62,"velocity":68,"channel":4,"program":28},{"beat":214.5,"duration":0.47917,"midi":54,"velocity":90,"channel":1,"program":52},{"beat":214.5,"duration":0.47917,"midi":54,"velocity":69,"channel":3,"program":27},{"beat":214.5,"duration":0.22917,"midi":54,"velocity":71,"channel":4,"program":28},{"beat":214.5,"duration":0.22917,"midi":54,"velocity":91,"channel":12,"program":25},{"beat":214.5,"duration":1.22917,"midi":57,"velocity":80,"channel":7,"program":51},{"beat":214.5,"duration":0.47917,"midi":62,"velocity":88,"channel":3,"program":27},{"beat":214.5,"duration":1.22917,"midi":62,"velocity":80,"channel":7,"program":51},{"beat":214.5,"duration":0.14583,"midi":62,"velocity":82,"channel":13,"program":81},{"beat":214.5,"duration":1.22917,"midi":66,"velocity":86,"channel":7,"program":51},{"beat":214.5,"duration":0.14583,"midi":66,"velocity":82,"channel":13,"program":81},{"beat":214.5,"duration":0.47917,"midi":74,"velocity":90,"channel":6,"program":29},{"beat":214.5,"duration":0.47917,"midi":78,"velocity":102,"channel":0,"program":22},{"beat":214.52083,"duration":0.20833,"midi":57,"velocity":72,"channel":4,"program":28},{"beat":214.52083,"duration":0.20833,"midi":57,"velocity":90,"channel":12,"program":25},{"beat":214.52083,"duration":0.45833,"midi":74,"velocity":90,"channel":3,"program":27},{"beat":214.54167,"duration":0.1875,"midi":62,"velocity":70,"channel":4,"program":28},{"beat":214.54167,"duration":0.1875,"midi":62,"velocity":97,"channel":12,"program":25},{"beat":214.75,"duration":0.22917,"midi":54,"velocity":87,"channel":12,"program":25},{"beat":214.75,"duration":0.14583,"midi":62,"velocity":91,"channel":13,"program":81},{"beat":214.75,"duration":0.14583,"midi":66,"velocity":91,"channel":13,"program":81},{"beat":214.77083,"duration":0.20833,"midi":57,"velocity":88,"channel":12,"program":25},{"beat":214.79167,"duration":0.1875,"midi":62,"velocity":89,"channel":12,"program":25},{"beat":215.0,"duration":0.97917,"midi":38,"velocity":80,"channel":2,"program":33},{"beat":215.0,"duration":0.47917,"midi":54,"velocity":89,"channel":1,"program":52},{"beat":215.0,"duration":0.97917,"midi":54,"velocity":56,"channel":3,"program":27},{"beat":215.0,"duration":0.22917,"midi":54,"velocity":82,"channel":4,"program":28},{"beat":215.0,"duration":0.47917,"midi":54,"velocity":95,"channel":12,"program":25},{"beat":215.0,"duration":0.97917,"midi":57,"velocity":88,"channel":3,"program":27},{"beat":215.0,"duration":0.14583,"midi":62,"velocity":91,"channel":13,"program":81},{"beat":215.0,"duration":0.14583,"midi":66,"velocity":91,"channel":13,"program":81},{"beat":215.0,"duration":0.95833,"midi":69,"velocity":79,"channel":6,"program":29},{"beat":215.0,"duration":0.47917,"midi":78,"velocity":98,"channel":0,"program":22},{"beat":215.02083,"duration":0.20833,"midi":57,"velocity":79,"channel":4,"program":28},{"beat":215.02083,"duration":0.45833,"midi":57,"velocity":95,"channel":12,"program":25},{"beat":215.02083,"duration":0.95833,"midi":69,"velocity":89,"channel":3,"program":27},{"beat":215.04167,"duration":0.1875,"midi":62,"velocity":77,"channel":4,"program":28},{"beat":215.04167,"duration":0.4375,"midi":62,"velocity":92,"channel":12,"program":25},{"beat":215.5,"duration":0.47917,"midi":52,"velocity":89,"channel":1,"program":52},{"beat":215.5,"duration":0.22917,"midi":54,"velocity":68,"channel":4,"program":28},{"beat":215.5,"duration":0.14583,"midi":62,"velocity":80,"channel":13,"program":81},{"beat":215.5,"duration":0.14583,"midi":66,"velocity":80,"channel":13,"program":81},{"beat":215.5,"duration":0.47917,"midi":76,"velocity":100,"channel":0,"program":22},{"beat":215.52083,"duration":0.20833,"midi":57,"velocity":68,"channel":4,"program":28},{"beat":215.54167,"duration":0.1875,"midi":62,"velocity":66,"channel":4,"program":28},{"beat":215.75,"duration":0.14583,"midi":62,"velocity":79,"channel":13,"program":81},{"beat":215.75,"duration":0.14583,"midi":66,"velocity":79,"channel":13,"program":81},{"beat":216.0,"duration":2.47917,"midi":43,"velocity":90,"channel":2,"program":33},{"beat":216.0,"duration":6.0,"midi":43,"velocity":84,"channel":3,"program":27},{"beat":216.0,"duration":6.0,"midi":43,"velocity":76,"channel":6,"program":29},{"beat":216.0,"duration":6.0,"midi":50,"velocity":76,"channel":11,"program":80},{"beat":216.0,"duration":3.97917,"midi":50,"velocity":95,"channel":12,"program":25},{"beat":216.0,"duration":0.97917,"midi":54,"velocity":87,"channel":1,"program":52},{"beat":216.0,"duration":0.22917,"midi":55,"velocity":80,"channel":4,"program":28},{"beat":216.0,"duration":6.0,"midi":55,"velocity":77,"channel":11,"program":80},{"beat":216.0,"duration":2.47917,"midi":62,"velocity":70,"channel":7,"program":51},{"beat":216.0,"duration":0.14583,"midi":62,"velocity":87,"channel":13,"program":81},{"beat":216.0,"duration":0.14583,"midi":67,"velocity":87,"channel":13,"program":81},{"beat":216.0,"duration":0.97917,"midi":78,"velocity":101,"channel":0,"program":22},{"beat":216.02083,"duration":0.95833,"midi":50,"velocity":70,"channel":3,"program":27},{"beat":216.02083,"duration":0.95833,"midi":50,"velocity":70,"channel":6,"program":29},{"beat":216.02083,"duration":0.95833,"midi":55,"velocity":93,"channel":12,"program":25},{"beat":216.02083,"duration":0.20833,"midi":59,"velocity":71,"channel":4,"program":28},{"beat":216.04167,"duration":0.1875,"midi":62,"velocity":64,"channel":4,"program":28},{"beat":216.5,"duration":0.22917,"midi":55,"velocity":66,"channel":4,"program":28},{"beat":216.5,"duration":0.14583,"midi":62,"velocity":74,"channel":13,"program":81},{"beat":216.5,"duration":0.14583,"midi":67,"velocity":74,"channel":13,"program":81},{"beat":216.52083,"duration":0.20833,"midi":59,"velocity":57,"channel":4,"program":28},{"beat":216.54167,"duration":0.1875,"midi":62,"velocity":52,"channel":4,"program":28},{"beat":216.75,"duration":0.14583,"midi":62,"velocity":76,"channel":13,"program":81},{"beat":216.75,"duration":0.14583,"midi":67,"velocity":76,"channel":13,"program":81},{"beat":217.0,"duration":1.47917,"midi":50,"velocity":87,"channel":3,"program":27},{"beat":217.0,"duration":1.47917,"midi":50,"velocity":80,"channel":6,"program":29},{"beat":217.0,"duration":0.22917,"midi":55,"velocity":79,"channel":4,"program":28},{"beat":217.0,"duration":2.47917,"midi":57,"velocity":94,"channel":12,"program":25},{"beat":217.0,"duration":0.14583,"midi":62,"velocity":89,"channel":13,"program":81},{"beat":217.0,"duration":0.14583,"midi":67,"velocity":89,"channel":13,"program":81},{"beat":217.02083,"duration":0.20833,"midi":59,"velocity":74,"channel":4,"program":28},{"beat":217.04167,"duration":0.1875,"midi":62,"velocity":66,"channel":4,"program":28},{"beat":217.5,"duration":0.39583,"midi":52,"velocity":89,"channel":1,"program":52},{"beat":217.5,"duration":0.22917,"midi":55,"velocity":66,"channel":4,"program":28},{"beat":217.5,"duration":0.97917,"midi":57,"velocity":100,"channel":3,"program":27},{"beat":217.5,"duration":1.97917,"midi":57,"velocity":74,"channel":6,"program":29},{"beat":217.5,"duration":0.14583,"midi":62,"velocity":76,"channel":13,"program":81},{"beat":217.5,"duration":0.14583,"midi":67,"velocity":76,"channel":13,"program":81},{"beat":217.5,"duration":0.39583,"midi":76,"velocity":100,"channel":0,"program":22},{"beat":217.52083,"duration":0.20833,"midi":59,"velocity":62,"channel":4,"program":28},{"beat":217.54167,"duration":0.1875,"midi":62,"velocity":53,"channel":4,"program":28},{"beat":217.75,"duration":0.14583,"midi":62,"velocity":87,"channel":13,"program":81},{"beat":217.75,"duration":0.14583,"midi":67,"velocity":87,"channel":13,"program":81},{"beat":218.0,"duration":0.89583,"midi":54,"velocity":88,"channel":1,"program":52},{"beat":218.0,"duration":0.22917,"midi":55,"velocity":71,"channel":4,"program":28},{"beat":218.0,"duration":0.14583,"midi":62,"velocity":81,"channel":13,"program":81},{"beat":218.0,"duration":0.14583,"midi":67,"velocity":81,"channel":13,"program":81},{"beat":218.0,"duration":0.89583,"midi":78,"velocity":100,"channel":0,"program":22},{"beat":218.02083,"duration":0.20833,"midi":59,"velocity":64,"channel":4,"program":28},{"beat":218.02083,"duration":0.45833,"midi":62,"velocity":80,"channel":12,"program":25},{"beat":218.04167,"duration":0.1875,"midi":62,"velocity":58,"channel":4,"program":28},{"beat":218.5,"duration":0.97917,"midi":43,"velocity":88,"channel":2,"program":33},{"beat":218.5,"duration":1.47917,"midi":50,"velocity":84,"channel":3,"program":27},{"beat":218.5,"duration":1.47917,"midi":50,"velocity":78,"channel":6,"program":29},{"beat":218.5,"duration":0.22917,"midi":55,"velocity":66,"channel":4,"program":28},{"beat":218.5,"duration":0.47917,"midi":59,"velocity":72,"channel":12,"program":25},{"beat":218.5,"duration":0.14583,"midi":62,"velocity":76,"channel":13,"program":81},{"beat":218.5,"duration":0.97917,"midi":69,"velocity":90,"channel":7,"program":51},{"beat":218.5,"duration":0.14583,"midi":69,"velocity":76,"channel":13,"program":81},{"beat":218.52083,"duration":0.95833,"midi":57,"velocity":88,"channel":3,"program":27},{"beat":218.52083,"duration":0.20833,"midi":59,"velocity":59,"channel":4,"program":28},{"beat":218.52083,"duration":0.20833,"midi":62,"velocity":87,"channel":12,"program":25},{"beat":218.54167,"duration":0.1875,"midi":62,"velocity":53,"channel":4,"program":28},{"beat":218.75,"duration":0.14583,"midi":62,"velocity":70,"channel":13,"program":81},{"beat":218.75,"duration":0.14583,"midi":69,"velocity":70,"channel":13,"program":81},{"beat":218.77083,"duration":0.20833,"midi":62,"velocity":79,"channel":12,"program":25},{"beat":219.0,"duration":0.22917,"midi":55,"velocity":78,"channel":4,"program":28},{"beat":219.0,"duration":0.47917,"midi":59,"velocity":73,"channel":12,"program":25},{"beat":219.0,"duration":0.14583,"midi":62,"velocity":85,"channel":13,"program":81},{"beat":219.0,"duration":0.14583,"midi":69,"velocity":85,"channel":13,"program":81},{"beat":219.02083,"duration":0.20833,"midi":59,"velocity":72,"channel":4,"program":28},{"beat":219.02083,"duration":0.45833,"midi":62,"velocity":80,"channel":12,"program":25},{"beat":219.04167,"duration":0.1875,"midi":62,"velocity":62,"channel":4,"program":28},{"beat":219.5,"duration":0.47917,"midi":43,"velocity":87,"channel":2,"program":33},{"beat":219.5,"duration":0.27083,"midi":50,"velocity":89,"channel":1,"program":52},{"beat":219.5,"duration":0.22917,"midi":55,"velocity":64,"channel":4,"program":28},{"beat":219.5,"duration":0.97917,"midi":59,"velocity":90,"channel":3,"program":27},{"beat":219.5,"duration":0.97917,"midi":59,"velocity":76,"channel":6,"program":29},{"beat":219.5,"duration":0.22917,"midi":59,"velocity":99,"channel":12,"program":25},{"beat":219.5,"duration":0.14583,"midi":62,"velocity":76,"channel":13,"program":81},{"beat":219.5,"duration":4.47917,"midi":67,"velocity":85,"channel":7,"program":51},{"beat":219.5,"duration":0.14583,"midi":67,"velocity":76,"channel":13,"program":81},{"beat":219.5,"duration":0.27083,"midi":74,"velocity":100,"channel":0,"program":22},{"beat":219.52083,"duration":0.20833,"midi":59,"velocity":63,"channel":4,"program":28},{"beat":219.52083,"duration":0.20833,"midi":62,"velocity":94,"channel":12,"program":25},{"beat":219.54167,"duration":0.1875,"midi":62,"velocity":49,"channel":4,"program":28},{"beat":219.54167,"duration":0.1875,"midi":67,"velocity":86,"channel":12,"program":25},{"beat":219.75,"duration":0.22917,"midi":59,"velocity":98,"channel":12,"program":25},{"beat":219.75,"duration":0.14583,"midi":62,"velocity":76,"channel":13,"program":81},{"beat":219.75,"duration":0.14583,"midi":67,"velocity":76,"channel":13,"program":81},{"beat":219.77083,"duration":0.20833,"midi":62,"velocity":96,"channel":12,"program":25},{"beat":219.79167,"duration":0.1875,"midi":67,"velocity":79,"channel":12,"program":25},{"beat":220.0,"duration":0.47917,"midi":43,"velocity":86,"channel":2,"program":33},{"beat":220.0,"duration":0.22917,"midi":55,"velocity":80,"channel":4,"program":28},{"beat":220.0,"duration":1.97917,"midi":59,"velocity":97,"channel":12,"program":25},{"beat":220.0,"duration":0.64583,"midi":62,"velocity":89,"channel":1,"program":52},{"beat":220.0,"duration":0.14583,"midi":62,"velocity":70,"channel":13,"program":81},{"beat":220.0,"duration":0.14583,"midi":67,"velocity":70,"channel":13,"program":81},{"beat":220.0,"duration":0.64583,"midi":86,"velocity":100,"channel":0,"program":22},{"beat":220.02083,"duration":0.20833,"midi":59,"velocity":74,"channel":4,"program":28},{"beat":220.02083,"duration":1.95833,"midi":62,"velocity":94,"channel":12,"program":25},{"beat":220.04167,"duration":0.1875,"midi":62,"velocity":61,"channel":4,"program":28},{"beat":220.04167,"duration":1.9375,"midi":67,"velocity":86,"channel":12,"program":25},{"beat":220.5,"duration":0.47917,"midi":38,"velocity":84,"channel":2,"program":33},{"beat":220.5,"duration":0.47917,"midi":50,"velocity":85,"channel":3,"program":27},{"beat":220.5,"duration":0.97917,"midi":50,"velocity":70,"channel":6,"program":29},{"beat":220.5,"duration":0.22917,"midi":55,"velocity":67,"channel":4,"program":28},{"beat":220.5,"duration":1.97917,"midi":57,"velocity":80,"channel":6,"program":29},{"beat":220.5,"duration":0.14583,"midi":62,"velocity":75,"channel":13,"program":81},{"beat":220.5,"duration":0.14583,"midi":67,"velocity":75,"channel":13,"program":81},{"beat":220.52083,"duration":3.45833,"midi":57,"velocity":89,"channel":3,"program":27},{"beat":220.52083,"duration":0.20833,"midi":59,"velocity":60,"channel":4,"program":28},{"beat":220.54167,"duration":0.1875,"midi":62,"velocity":50,"channel":4,"program":28},{"beat":220.75,"duration":0.14583,"midi":62,"velocity":76,"channel":13,"program":81},{"beat":220.75,"duration":0.14583,"midi":67,"velocity":76,"channel":13,"program":81},{"beat":221.0,"duration":0.47917,"midi":45,"velocity":91,"channel":2,"program":33},{"beat":221.0,"duration":0.22917,"midi":55,"velocity":80,"channel":4,"program":28},{"beat":221.0,"duration":0.64583,"midi":61,"velocity":90,"channel":1,"program":52},{"beat":221.0,"duration":0.14583,"midi":62,"velocity":88,"channel":13,"program":81},{"beat":221.0,"duration":0.14583,"midi":67,"velocity":88,"channel":13,"program":81},{"beat":221.0,"duration":0.64583,"midi":85,"velocity":101,"channel":0,"program":22},{"beat":221.02083,"duration":0.20833,"midi":59,"velocity":75,"channel":4,"program":28},{"beat":221.04167,"duration":0.1875,"midi":62,"velocity":61,"channel":4,"program":28},{"beat":221.5,"duration":0.97917,"midi":43,"velocity":86,"channel":2,"program":33},{"beat":221.5,"duration":0.97917,"midi":50,"velocity":87,"channel":3,"program":27},{"beat":221.5,"duration":0.97917,"midi":50,"velocity":80,"channel":6,"program":29},{"beat":221.5,"duration":0.22917,"midi":55,"velocity":70,"channel":4,"program":28},{"beat":221.5,"duration":0.14583,"midi":62,"velocity":78,"channel":13,"program":81},{"beat":221.5,"duration":0.14583,"midi":67,"velocity":78,"channel":13,"program":81},{"beat":221.52083,"duration":0.20833,"midi":59,"velocity":64,"channel":4,"program":28},{"beat":221.54167,"duration":0.1875,"midi":62,"velocity":55,"channel":4,"program":28},{"beat":221.75,"duration":0.14583,"midi":62,"velocity":70,"channel":13,"program":81},{"beat":221.75,"duration":0.14583,"midi":67,"velocity":70,"channel":13,"program":81},{"beat":222.0,"duration":0.22917,"midi":55,"velocity":74,"channel":4,"program":28},{"beat":222.0,"duration":0.97917,"midi":57,"velocity":90,"channel":1,"program":52},{"beat":222.0,"duration":0.14583,"midi":62,"velocity":83,"channel":13,"program":81},{"beat":222.0,"duration":0.14583,"midi":67,"velocity":83,"channel":13,"program":81},{"beat":222.0,"duration":0.97917,"midi":81,"velocity":101,"channel":0,"program":22},{"beat":222.02083,"duration":0.20833,"midi":59,"velocity":67,"channel":4,"program":28},{"beat":222.04167,"duration":0.1875,"midi":62,"velocity":60,"channel":4,"program":28},{"beat":222.5,"duration":1.47917,"midi":43,"velocity":80,"channel":2,"program":33},{"beat":222.5,"duration":0.47917,"midi":43,"velocity":90,"channel":3,"program":27},{"beat":222.5,"duration":0.47917,"midi":43,"velocity":75,"channel":6,"program":29},{"beat":222.5,"duration":0.47917,"midi":50,"velocity":87,"channel":3,"program":27},{"beat":222.5,"duration":0.47917,"midi":50,"velocity":79,"channel":6,"program":29},{"beat":222.5,"duration":0.22917,"midi":55,"velocity":71,"channel":4,"program":28},{"beat":222.5,"duration":0.22917,"midi":59,"velocity":97,"channel":12,"program":25},{"beat":222.5,"duration":0.14583,"midi":62,"velocity":82,"channel":13,"program":81},{"beat":222.5,"duration":0.14583,"midi":67,"velocity":82,"channel":13,"program":81},{"beat":222.5,"duration":0.47917,"midi":74,"velocity":70,"channel":7,"program":51},{"beat":222.52083,"duration":0.95833,"midi":55,"velocity":80,"channel":3,"program":27},{"beat":222.52083,"duration":0.95833,"midi":57,"velocity":80,"channel":6,"program":29},{"beat":222.52083,"duration":0.20833,"midi":59,"velocity":69,"channel":4,"program":28},{"beat":222.52083,"duration":0.20833,"midi":62,"velocity":93,"channel":12,"program":25},{"beat":222.54167,"duration":1.45833,"midi":59,"velocity":69,"channel":3,"program":27},{"beat":222.54167,"duration":0.1875,"midi":62,"velocity":59,"channel":4,"program":28},{"beat":222.54167,"duration":0.1875,"midi":67,"velocity":89,"channel":12,"program":25},{"beat":222.75,"duration":0.22917,"midi":59,"velocity":92,"channel":12,"program":25},{"beat":222.75,"duration":0.14583,"midi":62,"velocity":91,"channel":13,"program":81},{"beat":222.75,"duration":0.14583,"midi":67,"velocity":91,"channel":13,"program":81},{"beat":222.77083,"duration":0.20833,"midi":62,"velocity":85,"channel":12,"program":25},{"beat":222.79167,"duration":0.1875,"midi":67,"velocity":84,"channel":12,"program":25},{"beat":223.0,"duration":0.97917,"midi":43,"velocity":88,"channel":3,"program":27},{"beat":223.0,"duration":0.97917,"midi":43,"velocity":74,"channel":6,"program":29},{"beat":223.0,"duration":0.47917,"midi":50,"velocity":87,"channel":3,"program":27},{"beat":223.0,"duration":0.47917,"midi":50,"velocity":74,"channel":6,"program":29},{"beat":223.0,"duration":0.47917,"midi":54,"velocity":90,"channel":1,"program":52},{"beat":223.0,"duration":0.22917,"midi":55,"velocity":80,"channel":4,"program":28},{"beat":223.0,"duration":0.97917,"midi":59,"velocity":91,"channel":12,"program":25},{"beat":223.0,"duration":0.14583,"midi":62,"velocity":91,"channel":13,"program":81},{"beat":223.0,"duration":0.14583,"midi":67,"velocity":91,"channel":13,"program":81},{"beat":223.0,"duration":0.97917,"midi":74,"velocity":72,"channel":7,"program":51},{"beat":223.0,"duration":0.47917,"midi":78,"velocity":101,"channel":0,"program":22},{"beat":223.02083,"duration":0.20833,"midi":59,"velocity":75,"channel":4,"program":28},{"beat":223.02083,"duration":0.95833,"midi":62,"velocity":85,"channel":12,"program":25},{"beat":223.04167,"duration":0.1875,"midi":62,"velocity":64,"channel":4,"program":28},{"beat":223.04167,"duration":0.9375,"midi":67,"velocity":77,"channel":12,"program":25},{"beat":223.5,"duration":0.22917,"midi":50,"velocity":84,"channel":3,"program":27},{"beat":223.5,"duration":0.47917,"midi":50,"velocity":75,"channel":6,"program":29},{"beat":223.5,"duration":1.47917,"midi":52,"velocity":90,"channel":1,"program":52},{"beat":223.5,"duration":0.22917,"midi":55,"velocity":69,"channel":4,"program":28},{"beat":223.5,"duration":0.14583,"midi":62,"velocity":80,"channel":13,"program":81},{"beat":223.5,"duration":0.14583,"midi":67,"velocity":80,"channel":13,"program":81},{"beat":223.5,"duration":1.47917,"midi":76,"velocity":98,"channel":0,"program":22},{"beat":223.52083,"duration":0.20833,"midi":55,"velocity":89,"channel":3,"program":27},{"beat":223.52083,"duration":0.20833,"midi":59,"velocity":67,"channel":4,"program":28},{"beat":223.52083,"duration":0.45833,"midi":59,"velocity":75,"channel":6,"program":29},{"beat":223.54167,"duration":0.1875,"midi":62,"velocity":54,"channel":4,"program":28},{"beat":223.75,"duration":0.22917,"midi":50,"velocity":84,"channel":3,"program":27},{"beat":223.75,"duration":0.14583,"midi":62,"velocity":79,"channel":13,"program":81},{"beat":223.75,"duration":0.14583,"midi":67,"velocity":79,"channel":13,"program":81},{"beat":223.77083,"duration":0.20833,"midi":55,"velocity":89,"channel":3,"program":27},{"beat":224.0,"duration":0.47917,"midi":40,"velocity":87,"channel":2,"program":33},{"beat":224.0,"duration":0.97917,"midi":45,"velocity":88,"channel":3,"program":27},{"beat":224.0,"duration":0.47917,"midi":45,"velocity":74,"channel":6,"program":29},{"beat":224.0,"duration":0.22917,"midi":52,"velocity":76,"channel":4,"program":28},{"beat":224.0,"duration":3.97917,"midi":52,"velocity":76,"channel":11,"program":80},{"beat":224.0,"duration":3.97917,"midi":57,"velocity":90,"channel":11,"program":80},{"beat":224.0,"duration":0.97917,"midi":61,"velocity":93,"channel":12,"program":25},{"beat":224.0,"duration":3.47917,"midi":64,"velocity":85,"channel":7,"program":51},{"beat":224.0,"duration":3.97917,"midi":64,"velocity":90,"channel":11,"program":80},{"beat":224.0,"duration":0.14583,"midi":64,"velocity":87,"channel":13,"program":81},{"beat":224.0,"duration":0.14583,"midi":69,"velocity":87,"channel":13,"program":81},{"beat":224.0,"duration":3.47917,"midi":76,"velocity":100,"channel":7,"program":51},{"beat":224.02083,"duration":0.45833,"midi":52,"velocity":84,"channel":3,"program":27},{"beat":224.02083,"duration":0.45833,"midi":52,"velocity":75,"channel":6,"program":29},{"beat":224.02083,"duration":0.20833,"midi":57,"velocity":77,"channel":4,"program":28},{"beat":224.04167,"duration":0.45833,"midi":59,"velocity":78,"channel":6,"program":29},{"beat":224.04167,"duration":0.1875,"midi":61,"velocity":73,"channel":4,"program":28},{"beat":224.04167,"duration":0.9375,"midi":64,"velocity":97,"channel":12,"program":25},{"beat":224.04167,"duration":0.9375,"midi":69,"velocity":96,"channel":12,"program":25},{"beat":224.25,"duration":0.14583,"midi":64,"velocity":74,"channel":13,"program":81},{"beat":224.25,"duration":0.14583,"midi":69,"velocity":74,"channel":13,"program":81},{"beat":224.5,"duration":0.47917,"midi":45,"velocity":79,"channel":2,"program":33},{"beat":224.5,"duration":0.47917,"midi":45,"velocity":77,"channel":6,"program":29},{"beat":224.5,"duration":0.22917,"midi":52,"velocity":64,"channel":4,"program":28},{"beat":224.5,"duration":0.97917,"midi":57,"velocity":70,"channel":3,"program":27},{"beat":224.5,"duration":0.14583,"midi":64,"velocity":74,"channel":13,"program":81},{"beat":224.5,"duration":0.14583,"midi":69,"velocity":74,"channel":13,"program":81},{"beat":224.52083,"duration":0.95833,"midi":52,"velocity":86,"channel":3,"program":27},{"beat":224.52083,"duration":0.95833,"midi":52,"velocity":79,"channel":6,"program":29},{"beat":224.52083,"duration":0.20833,"midi":57,"velocity":66,"channel":4,"program":28},{"beat":224.54167,"duration":0.45833,"midi":59,"velocity":78,"channel":6,"program":29},{"beat":224.54167,"duration":0.1875,"midi":61,"velocity":62,"channel":4,"program":28},{"beat":225.0,"duration":0.47917,"midi":45,"velocity":90,"channel":2,"program":33},{"beat":225.0,"duration":0.97917,"midi":45,"velocity":90,"channel":3,"program":27},{"beat":225.0,"duration":0.97917,"midi":45,"velocity":79,"channel":6,"program":29},{"beat":225.0,"duration":0.22917,"midi":52,"velocity":79,"channel":4,"program":28},{"beat":225.0,"duration":0.97917,"midi":61,"velocity":85,"channel":12,"program":25},{"beat":225.0,"duration":0.14583,"midi":64,"velocity":89,"channel":13,"program":81},{"beat":225.0,"duration":0.14583,"midi":69,"velocity":89,"channel":13,"program":81},{"beat":225.02083,"duration":0.20833,"midi":57,"velocity":81,"channel":4,"program":28},{"beat":225.04167,"duration":0.1875,"midi":61,"velocity":74,"channel":4,"program":28},{"beat":225.04167,"duration":0.9375,"midi":64,"velocity":89,"channel":12,"program":25},{"beat":225.04167,"duration":0.9375,"midi":69,"velocity":83,"channel":12,"program":25},{"beat":225.5,"duration":0.47917,"midi":45,"velocity":81,"channel":2,"program":33},{"beat":225.5,"duration":0.22917,"midi":52,"velocity":67,"channel":4,"program":28},{"beat":225.5,"duration":0.27083,"midi":58,"velocity":48,"channel":3,"program":27},{"beat":225.5,"duration":0.52083,"midi":59,"velocity":90,"channel":14,"program":29},{"beat":225.5,"duration":0.14583,"midi":64,"velocity":76,"channel":13,"program":81},{"beat":225.5,"duration":0.14583,"midi":69,"velocity":76,"channel":13,"program":81},{"beat":225.5,"duration":0.35417,"midi":74,"velocity":101,"channel":0,"program":22},{"beat":225.52083,"duration":0.95833,"midi":52,"velocity":85,"channel":3,"program":27},{"beat":225.52083,"duration":0.95833,"midi":52,"velocity":77,"channel":6,"program":29},{"beat":225.52083,"duration":0.20833,"midi":57,"velocity":64,"channel":4,"program":28},{"beat":225.54167,"duration":0.1875,"midi":61,"velocity":62,"channel":4,"program":28},{"beat":225.75,"duration":0.27083,"midi":59,"velocity":70,"channel":3,"program":27},{"beat":225.75,"duration":0.14583,"midi":64,"velocity":87,"channel":13,"program":81},{"beat":225.75,"duration":0.14583,"midi":69,"velocity":87,"channel":13,"program":81},{"beat":226.0,"duration":0.47917,"midi":45,"velocity":89,"channel":2,"program":33},{"beat":226.0,"duration":0.47917,"midi":45,"velocity":87,"channel":3,"program":27},{"beat":226.0,"duration":0.47917,"midi":45,"velocity":75,"channel":6,"program":29},{"beat":226.0,"duration":0.22917,"midi":52,"velocity":70,"channel":4,"program":28},{"beat":226.0,"duration":0.47917,"midi":61,"velocity":90,"channel":3,"program":27},{"beat":226.0,"duration":0.47917,"midi":61,"velocity":87,"channel":12,"program":25},{"beat":226.0,"duration":0.47917,"midi":61,"velocity":85,"channel":14,"program":29},{"beat":226.0,"duration":0.14583,"midi":69,"velocity":81,"channel":13,"program":81},{"beat":226.0,"duration":0.14583,"midi":73,"velocity":81,"channel":13,"program":81},{"beat":226.0,"duration":0.39583,"midi":76,"velocity":101,"channel":0,"program":22},{"beat":226.02083,"duration":0.20833,"midi":57,"velocity":72,"channel":4,"program":28},{"beat":226.04167,"duration":0.1875,"midi":61,"velocity":67,"channel":4,"program":28},{"beat":226.04167,"duration":0.4375,"midi":64,"velocity":87,"channel":12,"program":25},{"beat":226.04167,"duration":0.4375,"midi":69,"velocity":90,"channel":12,"program":25},{"beat":226.5,"duration":0.47917,"midi":45,"velocity":81,"channel":2,"program":33},{"beat":226.5,"duration":0.47917,"midi":45,"velocity":88,"channel":3,"program":27},{"beat":226.5,"duration":0.47917,"midi":45,"velocity":75,"channel":6,"program":29},{"beat":226.5,"duration":0.22917,"midi":52,"velocity":67,"channel":4,"program":28},{"beat":226.5,"duration":0.97917,"midi":61,"velocity":93,"channel":12,"program":25},{"beat":226.5,"duration":0.97917,"midi":64,"velocity":88,"channel":3,"program":27},{"beat":226.5,"duration":0.97917,"midi":64,"velocity":88,"channel":14,"program":29},{"beat":226.5,"duration":0.14583,"midi":69,"velocity":76,"channel":13,"program":81},{"beat":226.5,"duration":0.14583,"midi":73,"velocity":76,"channel":13,"program":81},{"beat":226.5,"duration":0.8125,"midi":78,"velocity":101,"channel":0,"program":22},{"beat":226.52083,"duration":0.95833,"midi":52,"velocity":90,"channel":3,"program":27},{"beat":226.52083,"duration":0.95833,"midi":52,"velocity":74,"channel":6,"program":29},{"beat":226.52083,"duration":0.20833,"midi":57,"velocity":66,"channel":4,"program":28},{"beat":226.52083,"duration":0.95833,"midi":69,"velocity":75,"channel":3,"program":27},{"beat":226.54167,"duration":0.1875,"midi":61,"velocity":62,"channel":4,"program":28},{"beat":226.54167,"duration":0.9375,"midi":64,"velocity":91,"channel":12,"program":25},{"beat":226.54167,"duration":0.9375,"midi":69,"velocity":92,"channel":12,"program":25},{"beat":227.0,"duration":0.47917,"midi":45,"velocity":91,"channel":2,"program":33},{"beat":227.0,"duration":0.47917,"midi":45,"velocity":88,"channel":3,"program":27},{"beat":227.0,"duration":0.47917,"midi":45,"velocity":76,"channel":6,"program":29},{"beat":227.0,"duration":0.22917,"midi":52,"velocity":76,"channel":4,"program":28},{"beat":227.0,"duration":0.14583,"midi":69,"velocity":85,"channel":13,"program":81},{"beat":227.0,"duration":0.14583,"midi":73,"velocity":85,"channel":13,"program":81},{"beat":227.02083,"duration":0.20833,"midi":57,"velocity":77,"channel":4,"program":28},{"beat":227.04167,"duration":0.1875,"midi":61,"velocity":69,"channel":4,"program":28},{"beat":227.5,"duration":0.47917,"midi":45,"velocity":83,"channel":2,"program":33},{"beat":227.5,"duration":0.47917,"midi":45,"velocity":85,"channel":3,"program":27},{"beat":227.5,"duration":0.47917,"midi":45,"velocity":75,"channel":6,"program":29},{"beat":227.5,"duration":0.22917,"midi":52,"velocity":67,"channel":4,"program":28},{"beat":227.5,"duration":0.47917,"midi":61,"velocity":91,"channel":12,"program":25},{"beat":227.5,"duration":0.47917,"midi":64,"velocity":84,"channel":3,"program":27},{"beat":227.5,"duration":0.22917,"midi":64,"velocity":85,"channel":7,"program":51},{"beat":227.5,"duration":0.47917,"midi":64,"velocity":88,"channel":14,"program":29},{"beat":227.5,"duration":0.14583,"midi":69,"velocity":76,"channel":13,"program":81},{"beat":227.5,"duration":0.14583,"midi":73,"velocity":76,"channel":13,"program":81},{"beat":227.5,"duration":1.22917,"midi":76,"velocity":101,"channel":0,"program":22},{"beat":227.5,"duration":0.22917,"midi":76,"velocity":85,"channel":7,"program":51},{"beat":227.52083,"duration":0.45833,"midi":52,"velocity":84,"channel":3,"program":27},{"beat":227.52083,"duration":0.45833,"midi":52,"velocity":75,"channel":6,"program":29},{"beat":227.52083,"duration":0.20833,"midi":57,"velocity":68,"channel":4,"program":28},{"beat":227.52083,"duration":0.45833,"midi":69,"velocity":69,"channel":3,"program":27},{"beat":227.54167,"duration":0.1875,"midi":61,"velocity":62,"channel":4,"program":28},{"beat":227.54167,"duration":0.4375,"midi":64,"velocity":94,"channel":12,"program":25},{"beat":227.54167,"duration":0.4375,"midi":69,"velocity":98,"channel":12,"program":25},{"beat":227.75,"duration":0.22917,"midi":64,"velocity":90,"channel":7,"program":51},{"beat":227.75,"duration":0.14583,"midi":69,"velocity":76,"channel":13,"program":81},{"beat":227.75,"duration":0.14583,"midi":73,"velocity":76,"channel":13,"program":81},{"beat":227.75,"duration":0.22917,"midi":76,"velocity":84,"channel":7,"program":51},{"beat":228.0,"duration":1.97917,"midi":45,"velocity":80,"channel":2,"program":33},{"beat":228.0,"duration":2.0,"midi":45,"velocity":80,"channel":15,"program":41},{"beat":228.0,"duration":2.0,"midi":52,"velocity":85,"channel":15,"program":41},{"beat":228.0,"duration":2.0,"midi":57,"velocity":90,"channel":15,"program":41},{"beat":228.0,"duration":2.0,"midi":61,"velocity":80,"channel":15,"program":41},{"beat":228.0,"duration":2.0,"midi":64,"velocity":65,"channel":15,"program":41},{"beat":230.0,"duration":0.52083,"midi":78,"velocity":101,"channel":0,"program":22},{"beat":230.5,"duration":0.22917,"midi":38,"velocity":85,"channel":2,"program":33},{"beat":230.5,"duration":0.47917,"midi":45,"velocity":80,"channel":3,"program":27},{"beat":230.5,"duration":0.47917,"midi":45,"velocity":84,"channel":5,"program":30},{"beat":230.5,"duration":0.39583,"midi":45,"velocity":87,"channel":6,"program":29},{"beat":230.5,"duration":0.22917,"midi":50,"velocity":88,"channel":4,"program":29},{"beat":230.5,"duration":0.47917,"midi":69,"velocity":86,"channel":7,"program":51},{"beat":230.5,"duration":0.47917,"midi":81,"velocity":94,"channel":7,"program":51},{"beat":230.52083,"duration":0.45833,"midi":50,"velocity":88,"channel":5,"program":30},{"beat":230.52083,"duration":0.45833,"midi":55,"velocity":88,"channel":3,"program":27},{"beat":230.52083,"duration":0.20833,"midi":55,"velocity":87,"channel":4,"program":29},{"beat":230.52083,"duration":0.29167,"midi":55,"velocity":87,"channel":6,"program":29},{"beat":230.54167,"duration":0.1875,"midi":55,"velocity":89,"channel":5,"program":30},{"beat":230.54167,"duration":0.4375,"midi":59,"velocity":70,"channel":4,"program":29},{"beat":230.75,"duration":0.22917,"midi":45,"velocity":70,"channel":2,"program":33},{"beat":230.75,"duration":0.22917,"midi":50,"velocity":86,"channel":4,"program":29},{"beat":230.77083,"duration":0.20833,"midi":55,"velocity":88,"channel":4,"program":29},{"beat":230.79167,"duration":0.1875,"midi":55,"velocity":80,"channel":5,"program":30},{"beat":231.0,"duration":0.97917,"midi":38,"velocity":80,"channel":2,"program":33},{"beat":231.0,"duration":0.47917,"midi":45,"velocity":78,"channel":3,"program":27},{"beat":231.0,"duration":0.97917,"midi":45,"velocity":88,"channel":5,"program":30},{"beat":231.0,"duration":0.97917,"midi":45,"velocity":80,"channel":6,"program":29},{"beat":231.0,"duration":0.97917,"midi":50,"velocity":86,"channel":4,"program":29},{"beat":231.0,"duration":0.97917,"midi":69,"velocity":84,"channel":7,"program":51},{"beat":231.0,"duration":0.97917,"midi":78,"velocity":101,"channel":0,"program":22},{"beat":231.0,"duration":0.97917,"midi":81,"velocity":96,"channel":7,"program":51},{"beat":231.02083,"duration":0.95833,"midi":50,"velocity":89,"channel":5,"program":30},{"beat":231.02083,"duration":0.95833,"midi":55,"velocity":87,"channel":3,"program":27},{"beat":231.02083,"duration":0.45833,"midi":55,"velocity":89,"channel":4,"program":29},{"beat":231.02083,"duration":0.95833,"midi":55,"velocity":89,"channel":6,"program":29},{"beat":231.04167,"duration":0.4375,"midi":55,"velocity":84,"channel":5,"program":30},{"beat":231.04167,"duration":0.9375,"midi":59,"velocity":85,"channel":4,"program":29},{"beat":231.5,"duration":0.47917,"midi":47,"velocity":78,"channel":3,"program":27},{"beat":231.5,"duration":0.47917,"midi":55,"velocity":85,"channel":4,"program":29},{"beat":231.54167,"duration":0.4375,"midi":55,"velocity":89,"channel":5,"program":30},{"beat":232.0,"duration":0.97917,"midi":31,"velocity":96,"channel":2,"program":33},{"beat":232.0,"duration":0.97917,"midi":43,"velocity":90,"channel":5,"program":30},{"beat":232.0,"duration":0.97917,"midi":50,"velocity":90,"channel":1,"program":52},{"beat":232.0,"duration":0.97917,"midi":50,"velocity":85,"channel":3,"program":27},{"beat":232.0,"duration":0.97917,"midi":50,"velocity":86,"channel":4,"program":29},{"beat":232.0,"duration":0.97917,"midi":50,"velocity":87,"channel":6,"program":29},{"beat":232.0,"duration":0.97917,"midi":55,"velocity":93,"channel":12,"program":25},{"beat":232.0,"duration":0.97917,"midi":62,"velocity":89,"channel":1,"program":52},{"beat":232.0,"duration":0.22917,"midi":69,"velocity":82,"channel":13,"program":81},{"beat":232.0,"duration":0.97917,"midi":74,"velocity":100,"channel":0,"program":22},{"beat":232.0,"duration":3.97917,"midi":74,"velocity":88,"channel":7,"program":51},{"beat":232.0,"duration":3.97917,"midi":86,"velocity":77,"channel":7,"program":51},{"beat":232.02083,"duration":0.95833,"midi":50,"velocity":86,"channel":5,"program":30},{"beat":232.02083,"duration":0.95833,"midi":55,"velocity":88,"channel":3,"program":27},{"beat":232.02083,"duration":0.95833,"midi":55,"velocity":87,"channel":4,"program":29},{"beat":232.02083,"duration":0.95833,"midi":55,"velocity":88,"channel":6,"program":29},{"beat":232.04167,"duration":0.9375,"midi":55,"velocity":86,"channel":5,"program":30},{"beat":232.04167,"duration":0.9375,"midi":59,"velocity":86,"channel":4,"program":29},{"beat":232.04167,"duration":0.9375,"midi":59,"velocity":93,"channel":12,"program":25},{"beat":232.04167,"duration":0.9375,"midi":62,"velocity":87,"channel":3,"program":27},{"beat":232.04167,"duration":0.9375,"midi":67,"velocity":75,"channel":6,"program":29},{"beat":232.5,"duration":0.22917,"midi":69,"velocity":69,"channel":13,"program":81},{"beat":233.0,"duration":0.47917,"midi":31,"velocity":90,"channel":2,"program":33},{"beat":233.0,"duration":0.47917,"midi":43,"velocity":90,"channel":5,"program":30},{"beat":233.0,"duration":0.47917,"midi":50,"velocity":85,"channel":3,"program":27},{"beat":233.0,"duration":1.47917,"midi":50,"velocity":82,"channel":4,"program":29},{"beat":233.0,"duration":0.47917,"midi":50,"velocity":97,"channel":6,"program":29},{"beat":233.0,"duration":0.64583,"midi":52,"velocity":90,"channel":1,"program":52},{"beat":233.0,"duration":0.47917,"midi":55,"velocity":92,"channel":12,"program":25},{"beat":233.0,"duration":0.64583,"midi":62,"velocity":90,"channel":1,"program":52},{"beat":233.0,"duration":0.22917,"midi":69,"velocity":84,"channel":13,"program":81},{"beat":233.0,"duration":0.64583,"midi":76,"velocity":101,"channel":0,"program":22},{"beat":233.02083,"duration":0.45833,"midi":50,"velocity":80,"channel":5,"program":30},{"beat":233.02083,"duration":1.45833,"midi":55,"velocity":81,"channel":4,"program":29},{"beat":233.02083,"duration":0.45833,"midi":55,"velocity":97,"channel":6,"program":29},{"beat":233.02083,"duration":0.45833,"midi":57,"velocity":88,"channel":3,"program":27},{"beat":233.02083,"duration":0.45833,"midi":62,"velocity":93,"channel":6,"program":29},{"beat":233.04167,"duration":0.4375,"midi":55,"velocity":82,"channel":5,"program":30},{"beat":233.04167,"duration":1.4375,"midi":59,"velocity":87,"channel":4,"program":29},{"beat":233.04167,"duration":0.4375,"midi":62,"velocity":88,"channel":3,"program":27},{"beat":233.04167,"duration":0.4375,"midi":62,"velocity":94,"channel":12,"program":25},{"beat":233.04167,"duration":0.4375,"midi":67,"velocity":77,"channel":6,"program":29},{"beat":233.5,"duration":0.47917,"midi":31,"velocity":88,"channel":2,"program":33},{"beat":233.5,"duration":0.97917,"midi":43,"velocity":88,"channel":5,"program":30},{"beat":233.5,"duration":0.97917,"midi":50,"velocity":88,"channel":3,"program":27},{"beat":233.5,"duration":0.97917,"midi":50,"velocity":83,"channel":6,"program":29},{"beat":233.5,"duration":0.47917,"midi":55,"velocity":84,"channel":12,"program":25},{"beat":233.5,"duration":0.22917,"midi":69,"velocity":71,"channel":13,"program":81},{"beat":233.52083,"duration":0.95833,"midi":50,"velocity":90,"channel":5,"program":30},{"beat":233.52083,"duration":0.95833,"midi":55,"velocity":79,"channel":6,"program":29},{"beat":233.52083,"duration":0.95833,"midi":57,"velocity":85,"channel":3,"program":27},{"beat":233.52083,"duration":0.95833,"midi":59,"velocity":82,"channel":6,"program":29},{"beat":233.54167,"duration":0.9375,"midi":55,"velocity":86,"channel":5,"program":30},{"beat":233.54167,"duration":0.4375,"midi":59,"velocity":81,"channel":12,"program":25},{"beat":233.54167,"duration":0.9375,"midi":62,"velocity":85,"channel":3,"program":27},{"beat":233.54167,"duration":2.4375,"midi":67,"velocity":79,"channel":6,"program":29},{"beat":234.0,"duration":0.47917,"midi":31,"velocity":92,"channel":2,"program":33},{"beat":234.0,"duration":0.89583,"midi":54,"velocity":90,"channel":1,"program":52},{"beat":234.0,"duration":0.47917,"midi":55,"velocity":86,"channel":12,"program":25},{"beat":234.0,"duration":0.89583,"midi":62,"velocity":88,"channel":1,"program":52},{"beat":234.0,"duration":0.22917,"midi":69,"velocity":76,"channel":13,"program":81},{"beat":234.0,"duration":0.89583,"midi":78,"velocity":102,"channel":0,"program":22},{"beat":234.04167,"duration":0.4375,"midi":59,"velocity":89,"channel":12,"program":25},{"beat":234.5,"duration":0.97917,"midi":31,"velocity":91,"channel":2,"program":33},{"beat":234.5,"duration":0.47917,"midi":43,"velocity":85,"channel":5,"program":30},{"beat":234.5,"duration":1.47917,"midi":50,"velocity":90,"channel":3,"program":27},{"beat":234.5,"duration":0.47917,"midi":50,"velocity":82,"channel":4,"program":29},{"beat":234.5,"duration":0.97917,"midi":50,"velocity":81,"channel":6,"program":29},{"beat":234.5,"duration":0.97917,"midi":55,"velocity":85,"channel":12,"program":25},{"beat":234.5,"duration":0.22917,"midi":69,"velocity":71,"channel":13,"program":81},{"beat":234.52083,"duration":0.45833,"midi":50,"velocity":85,"channel":5,"program":30},{"beat":234.52083,"duration":0.20833,"midi":55,"velocity":82,"channel":4,"program":29},{"beat":234.52083,"duration":0.45833,"midi":55,"velocity":81,"channel":6,"program":29},{"beat":234.52083,"duration":1.45833,"midi":57,"velocity":89,"channel":3,"program":27},{"beat":234.52083,"duration":0.45833,"midi":62,"velocity":80,"channel":6,"program":29},{"beat":234.54167,"duration":0.4375,"midi":55,"velocity":77,"channel":5,"program":30},{"beat":234.54167,"duration":0.1875,"midi":59,"velocity":83,"channel":4,"program":29},{"beat":234.54167,"duration":1.4375,"midi":62,"velocity":87,"channel":3,"program":27},{"beat":234.54167,"duration":0.4375,"midi":62,"velocity":82,"channel":12,"program":25},{"beat":235.0,"duration":0.72917,"midi":43,"velocity":89,"channel":5,"program":30},{"beat":235.0,"duration":0.72917,"midi":50,"velocity":78,"channel":4,"program":29},{"beat":235.0,"duration":0.97917,"midi":55,"velocity":90,"channel":1,"program":52},{"beat":235.0,"duration":0.97917,"midi":62,"velocity":89,"channel":1,"program":52},{"beat":235.0,"duration":0.22917,"midi":69,"velocity":80,"channel":13,"program":81},{"beat":235.0,"duration":0.97917,"midi":79,"velocity":102,"channel":0,"program":22},{"beat":235.02083,"duration":0.70833,"midi":50,"velocity":88,"channel":5,"program":30},{"beat":235.02083,"duration":0.70833,"midi":57,"velocity":78,"channel":4,"program":29},{"beat":235.02083,"duration":0.95833,"midi":57,"velocity":89,"channel":6,"program":29},{"beat":235.04167,"duration":0.6875,"midi":55,"velocity":85,"channel":5,"program":30},{"beat":235.04167,"duration":0.9375,"midi":57,"velocity":93,"channel":12,"program":25},{"beat":235.5,"duration":0.47917,"midi":31,"velocity":87,"channel":2,"program":33},{"beat":235.5,"duration":0.22917,"midi":50,"velocity":81,"channel":6,"program":29},{"beat":235.5,"duration":0.22917,"midi":55,"velocity":81,"channel":12,"program":25},{"beat":235.5,"duration":0.22917,"midi":69,"velocity":71,"channel":13,"program":81},{"beat":235.75,"duration":0.22917,"midi":43,"velocity":81,"channel":5,"program":30},{"beat":235.75,"duration":0.22917,"midi":50,"velocity":81,"channel":6,"program":29},{"beat":235.75,"duration":0.22917,"midi":52,"velocity":82,"channel":4,"program":29},{"beat":235.75,"duration":0.22917,"midi":55,"velocity":82,"channel":12,"program":25},{"beat":235.77083,"duration":0.20833,"midi":50,"velocity":80,"channel":5,"program":30},{"beat":235.77083,"duration":0.20833,"midi":57,"velocity":82,"channel":4,"program":29},{"beat":235.79167,"duration":0.1875,"midi":55,"velocity":77,"channel":5,"program":30},{"beat":236.0,"duration":0.47917,"midi":33,"velocity":99,"channel":2,"program":33},{"beat":236.0,"duration":0.97917,"midi":45,"velocity":84,"channel":5,"program":30},{"beat":236.0,"duration":0.97917,"midi":52,"velocity":88,"channel":3,"program":27},{"beat":236.0,"duration":0.97917,"midi":52,"velocity":85,"channel":4,"program":29},{"beat":236.0,"duration":0.97917,"midi":52,"velocity":84,"channel":6,"program":29},{"beat":236.0,"duration":0.89583,"midi":57,"velocity":90,"channel":1,"program":52},{"beat":236.0,"duration":0.89583,"midi":61,"velocity":89,"channel":1,"program":52},{"beat":236.0,"duration":0.22917,"midi":69,"velocity":65,"channel":13,"program":81},{"beat":236.0,"duration":3.97917,"midi":73,"velocity":87,"channel":7,"program":51},{"beat":236.0,"duration":0.89583,"midi":81,"velocity":102,"channel":0,"program":22},{"beat":236.0,"duration":3.97917,"midi":85,"velocity":77,"channel":7,"program":51},{"beat":236.02083,"duration":0.95833,"midi":52,"velocity":88,"channel":5,"program":30},{"beat":236.02083,"duration":0.95833,"midi":57,"velocity":85,"channel":3,"program":27},{"beat":236.02083,"duration":0.95833,"midi":57,"velocity":88,"channel":4,"program":29},{"beat":236.02083,"duration":0.95833,"midi":57,"velocity":85,"channel":6,"program":29},{"beat":236.02083,"duration":0.95833,"midi":57,"velocity":96,"channel":12,"program":25},{"beat":236.04167,"duration":0.9375,"midi":57,"velocity":87,"channel":5,"program":30},{"beat":236.04167,"duration":0.9375,"midi":61,"velocity":90,"channel":3,"program":27},{"beat":236.04167,"duration":0.9375,"midi":61,"velocity":89,"channel":4,"program":29},{"beat":236.04167,"duration":0.9375,"midi":61,"velocity":92,"channel":12,"program":25},{"beat":236.04167,"duration":0.9375,"midi":69,"velocity":74,"channel":6,"program":29},{"beat":236.5,"duration":0.47917,"midi":33,"velocity":95,"channel":2,"program":33},{"beat":236.5,"duration":0.22917,"midi":69,"velocity":70,"channel":13,"program":81},{"beat":237.0,"duration":0.47917,"midi":33,"velocity":98,"channel":2,"program":33},{"beat":237.0,"duration":0.47917,"midi":45,"velocity":88,"channel":5,"program":30},{"beat":237.0,"duration":0.97917,"midi":50,"velocity":88,"channel":1,"program":52},{"beat":237.0,"duration":0.47917,"midi":52,"velocity":90,"channel":3,"program":27},{"beat":237.0,"duration":0.47917,"midi":52,"velocity":82,"channel":4,"program":29},{"beat":237.0,"duration":0.47917,"midi":52,"velocity":95,"channel":6,"program":29},{"beat":237.0,"duration":0.97917,"midi":57,"velocity":87,"channel":1,"program":52},{"beat":237.0,"duration":0.22917,"midi":69,"velocity":83,"channel":13,"program":81},{"beat":237.0,"duration":0.97917,"midi":74,"velocity":100,"channel":0,"program":22},{"beat":237.02083,"duration":0.45833,"midi":52,"velocity":86,"channel":5,"program":30},{"beat":237.02083,"duration":0.45833,"midi":57,"velocity":87,"channel":3,"program":27},{"beat":237.02083,"duration":0.45833,"midi":57,"velocity":78,"channel":4,"program":29},{"beat":237.02083,"duration":0.45833,"midi":57,"velocity":92,"channel":12,"program":25},{"beat":237.02083,"duration":0.45833,"midi":61,"velocity":91,"channel":6,"program":29},{"beat":237.04167,"duration":0.4375,"midi":57,"velocity":89,"channel":5,"program":30},{"beat":237.04167,"duration":0.4375,"midi":61,"velocity":97,"channel":12,"program":25},{"beat":237.04167,"duration":0.4375,"midi":64,"velocity":88,"channel":3,"program":27},{"beat":237.04167,"duration":0.4375,"midi":64,"velocity":82,"channel":4,"program":29},{"beat":237.04167,"duration":0.4375,"midi":64,"velocity":78,"channel":6,"program":29},{"beat":237.5,"duration":0.47917,"midi":33,"velocity":90,"channel":2,"program":33},{"beat":237.5,"duration":0.47917,"midi":45,"velocity":84,"channel":5,"program":30},{"beat":237.5,"duration":0.97917,"midi":52,"velocity":90,"channel":3,"program":27},{"beat":237.5,"duration":1.47917,"midi":52,"velocity":84,"channel":4,"program":29},{"beat":237.5,"duration":0.97917,"midi":52,"velocity":83,"channel":6,"program":29},{"beat":237.5,"duration":0.22917,"midi":69,"velocity":73,"channel":13,"program":81},{"beat":237.52083,"duration":0.45833,"midi":52,"velocity":85,"channel":5,"program":30},{"beat":237.52083,"duration":0.95833,"midi":57,"velocity":87,"channel":3,"program":27},{"beat":237.52083,"duration":1.45833,"midi":57,"velocity":89,"channel":4,"program":29},{"beat":237.52083,"duration":0.95833,"midi":57,"velocity":83,"channel":6,"program":29},{"beat":237.52083,"duration":0.20833,"midi":57,"velocity":84,"channel":12,"program":25},{"beat":237.54167,"duration":0.4375,"midi":57,"velocity":84,"channel":5,"program":30},{"beat":237.54167,"duration":0.4375,"midi":61,"velocity":87,"channel":12,"program":25},{"beat":237.54167,"duration":0.9375,"midi":64,"velocity":84,"channel":3,"program":27},{"beat":237.54167,"duration":1.4375,"midi":64,"velocity":86,"channel":4,"program":29},{"beat":237.54167,"duration":2.4375,"midi":64,"velocity":79,"channel":6,"program":29},{"beat":237.77083,"duration":0.20833,"midi":57,"velocity":90,"channel":12,"program":25},{"beat":238.0,"duration":0.47917,"midi":33,"velocity":96,"channel":2,"program":33},{"beat":238.0,"duration":0.47917,"midi":45,"velocity":88,"channel":5,"program":30},{"beat":238.0,"duration":1.22917,"midi":61,"velocity":89,"channel":1,"program":52},{"beat":238.0,"duration":1.22917,"midi":64,"velocity":88,"channel":1,"program":52},{"beat":238.0,"duration":0.22917,"midi":69,"velocity":78,"channel":13,"program":81},{"beat":238.0,"duration":1.22917,"midi":85,"velocity":98,"channel":0,"program":22},{"beat":238.02083,"duration":0.45833,"midi":52,"velocity":86,"channel":5,"program":30},{"beat":238.02083,"duration":0.45833,"midi":57,"velocity":87,"channel":12,"program":25},{"beat":238.04167,"duration":0.4375,"midi":57,"velocity":89,"channel":5,"program":30},{"beat":238.5,"duration":0.47917,"midi":33,"velocity":97,"channel":2,"program":33},{"beat":238.5,"duration":0.47917,"midi":45,"velocity":76,"channel":5,"program":30},{"beat":238.5,"duration":0.97917,"midi":52,"velocity":84,"channel":3,"program":27},{"beat":238.5,"duration":0.47917,"midi":52,"velocity":90,"channel":6,"program":29},{"beat":238.5,"duration":0.22917,"midi":69,"velocity":77,"channel":13,"program":81},{"beat":238.52083,"duration":0.45833,"midi":52,"velocity":77,"channel":5,"program":30},{"beat":238.52083,"duration":0.95833,"midi":57,"velocity":84,"channel":3,"program":27},{"beat":238.52083,"duration":0.45833,"midi":57,"velocity":88,"channel":12,"program":25},{"beat":238.52083,"duration":0.45833,"midi":61,"velocity":85,"channel":6,"program":29},{"beat":238.54167,"duration":0.4375,"midi":57,"velocity":76,"channel":5,"program":30},{"beat":238.54167,"duration":0.4375,"midi":61,"velocity":89,"channel":12,"program":25},{"beat":238.54167,"duration":1.4375,"midi":64,"velocity":70,"channel":3,"program":27},{"beat":239.0,"duration":0.47917,"midi":33,"velocity":104,"channel":2,"program":33},{"beat":239.0,"duration":0.47917,"midi":45,"velocity":84,"channel":5,"program":30},{"beat":239.0,"duration":0.47917,"midi":52,"velocity":81,"channel":4,"program":29},{"beat":239.0,"duration":0.47917,"midi":52,"velocity":95,"channel":6,"program":29},{"beat":239.0,"duration":0.22917,"midi":69,"velocity":86,"channel":13,"program":81},{"beat":239.02083,"duration":0.45833,"midi":52,"velocity":85,"channel":5,"program":30},{"beat":239.02083,"duration":0.45833,"midi":57,"velocity":79,"channel":4,"program":29},{"beat":239.02083,"duration":0.45833,"midi":57,"velocity":98,"channel":6,"program":29},{"beat":239.02083,"duration":0.45833,"midi":57,"velocity":98,"channel":12,"program":25},{"beat":239.04167,"duration":0.4375,"midi":57,"velocity":84,"channel":5,"program":30},{"beat":239.04167,"duration":0.4375,"midi":61,"velocity":100,"channel":12,"program":25},{"beat":239.04167,"duration":0.4375,"midi":64,"velocity":82,"channel":4,"program":29},{"beat":239.5,"duration":0.47917,"midi":33,"velocity":95,"channel":2,"program":33},{"beat":239.5,"duration":0.22917,"midi":45,"velocity":80,"channel":5,"program":30},{"beat":239.5,"duration":0.47917,"midi":50,"velocity":80,"channel":4,"program":29},{"beat":239.5,"duration":0.22917,"midi":52,"velocity":80,"channel":3,"program":27},{"beat":239.5,"duration":0.27083,"midi":55,"velocity":85,"channel":6,"program":29},{"beat":239.5,"duration":2.0625,"midi":62,"velocity":89,"channel":1,"program":52},{"beat":239.5,"duration":2.0625,"midi":66,"velocity":89,"channel":1,"program":52},{"beat":239.5,"duration":0.22917,"midi":69,"velocity":75,"channel":13,"program":81},{"beat":239.5,"duration":2.0625,"midi":86,"velocity":100,"channel":0,"program":22},{"beat":239.52083,"duration":0.20833,"midi":52,"velocity":80,"channel":5,"program":30},{"beat":239.52083,"duration":0.20833,"midi":57,"velocity":77,"channel":3,"program":27},{"beat":239.52083,"duration":0.45833,"midi":57,"velocity":78,"channel":4,"program":29},{"beat":239.52083,"duration":0.20833,"midi":57,"velocity":87,"channel":12,"program":25},{"beat":239.54167,"duration":0.1875,"midi":57,"velocity":81,"channel":5,"program":30},{"beat":239.54167,"duration":0.4375,"midi":62,"velocity":78,"channel":4,"program":29},{"beat":239.54167,"duration":0.1875,"midi":62,"velocity":88,"channel":12,"program":25},{"beat":239.75,"duration":0.22917,"midi":45,"velocity":78,"channel":5,"program":30},{"beat":239.75,"duration":0.22917,"midi":52,"velocity":81,"channel":3,"program":27},{"beat":239.77083,"duration":0.20833,"midi":52,"velocity":79,"channel":5,"program":30},{"beat":239.77083,"duration":0.20833,"midi":57,"velocity":77,"channel":3,"program":27},{"beat":239.77083,"duration":0.20833,"midi":57,"velocity":85,"channel":12,"program":25},{"beat":239.79167,"duration":0.1875,"midi":57,"velocity":76,"channel":5,"program":30},{"beat":239.79167,"duration":0.1875,"midi":62,"velocity":85,"channel":12,"program":25},{"beat":240.0,"duration":0.97917,"midi":35,"velocity":94,"channel":2,"program":33},{"beat":240.0,"duration":0.97917,"midi":47,"velocity":80,"channel":3,"program":27},{"beat":240.0,"duration":0.97917,"midi":47,"velocity":89,"channel":4,"program":29},{"beat":240.0,"duration":0.97917,"midi":47,"velocity":84,"channel":5,"program":30},{"beat":240.0,"duration":0.97917,"midi":47,"velocity":84,"channel":6,"program":29},{"beat":240.0,"duration":0.22917,"midi":69,"velocity":82,"channel":13,"program":81},{"beat":240.0,"duration":3.97917,"midi":74,"velocity":88,"channel":7,"program":51},{"beat":240.0,"duration":3.97917,"midi":86,"velocity":77,"channel":7,"program":51},{"beat":240.02083,"duration":0.95833,"midi":54,"velocity":84,"channel":4,"program":29},{"beat":240.02083,"duration":0.95833,"midi":54,"velocity":85,"channel":5,"program":30},{"beat":240.02083,"duration":0.95833,"midi":54,"velocity":86,"channel":6,"program":29},{"beat":240.02083,"duration":0.95833,"midi":57,"velocity":88,"channel":3,"program":27},{"beat":240.02083,"duration":0.95833,"midi":57,"velocity":92,"channel":12,"program":25},{"beat":240.04167,"duration":0.9375,"midi":57,"velocity":56,"channel":4,"program":29},{"beat":240.04167,"duration":0.9375,"midi":57,"velocity":85,"channel":5,"program":30},{"beat":240.04167,"duration":0.9375,"midi":62,"velocity":90,"channel":3,"program":27},{"beat":240.04167,"duration":0.9375,"midi":62,"velocity":77,"channel":6,"program":29},{"beat":240.04167,"duration":0.9375,"midi":62,"velocity":96,"channel":12,"program":25},{"beat":240.5,"duration":0.22917,"midi":69,"velocity":69,"channel":13,"program":81},{"beat":241.0,"duration":0.47917,"midi":47,"velocity":80,"channel":2,"program":33},{"beat":241.0,"duration":0.47917,"midi":47,"velocity":76,"channel":3,"program":27},{"beat":241.0,"duration":0.47917,"midi":47,"velocity":87,"channel":4,"program":29},{"beat":241.0,"duration":0.47917,"midi":47,"velocity":90,"channel":5,"program":30},{"beat":241.0,"duration":0.47917,"midi":47,"velocity":95,"channel":6,"program":29},{"beat":241.0,"duration":0.22917,"midi":69,"velocity":84,"channel":13,"program":81},{"beat":241.02083,"duration":0.45833,"midi":54,"velocity":86,"channel":4,"program":29},{"beat":241.02083,"duration":0.45833,"midi":54,"velocity":77,"channel":5,"program":30},{"beat":241.02083,"duration":0.45833,"midi":57,"velocity":86,"channel":3,"program":27},{"beat":241.02083,"duration":0.45833,"midi":57,"velocity":95,"channel":6,"program":29},{"beat":241.02083,"duration":0.45833,"midi":57,"velocity":99,"channel":12,"program":25},{"beat":241.04167,"duration":0.4375,"midi":57,"velocity":48,"channel":4,"program":29},{"beat":241.04167,"duration":0.4375,"midi":57,"velocity":79,"channel":5,"program":30},{"beat":241.04167,"duration":0.4375,"midi":62,"velocity":94,"channel":12,"program":25},{"beat":241.04167,"duration":0.4375,"midi":64,"velocity":85,"channel":3,"program":27},{"beat":241.04167,"duration":0.4375,"midi":64,"velocity":61,"channel":6,"program":29},{"beat":241.5,"duration":0.47917,"midi":35,"velocity":96,"channel":2,"program":33},{"beat":241.5,"duration":0.47917,"midi":47,"velocity":80,"channel":3,"program":27},{"beat":241.5,"duration":0.97917,"midi":47,"velocity":89,"channel":4,"program":29},{"beat":241.5,"duration":0.97917,"midi":47,"velocity":84,"channel":5,"program":30},{"beat":241.5,"duration":0.47917,"midi":47,"velocity":80,"channel":6,"program":29},{"beat":241.5,"duration":0.22917,"midi":69,"velocity":71,"channel":13,"program":81},{"beat":241.52083,"duration":0.95833,"midi":54,"velocity":89,"channel":4,"program":29},{"beat":241.52083,"duration":0.95833,"midi":54,"velocity":88,"channel":5,"program":30},{"beat":241.52083,"duration":0.45833,"midi":57,"velocity":85,"channel":3,"program":27},{"beat":241.52083,"duration":0.45833,"midi":57,"velocity":82,"channel":6,"program":29},{"beat":241.52083,"duration":0.45833,"midi":57,"velocity":84,"channel":12,"program":25},{"beat":241.54167,"duration":0.9375,"midi":57,"velocity":58,"channel":4,"program":29},{"beat":241.54167,"duration":0.9375,"midi":57,"velocity":84,"channel":5,"program":30},{"beat":241.54167,"duration":0.9375,"midi":62,"velocity":84,"channel":3,"program":27},{"beat":241.54167,"duration":0.4375,"midi":62,"velocity":54,"channel":6,"program":29},{"beat":241.54167,"duration":0.4375,"midi":62,"velocity":85,"channel":12,"program":25},{"beat":242.0,"duration":0.47917,"midi":35,"velocity":96,"channel":2,"program":33},{"beat":242.0,"duration":0.47917,"midi":47,"velocity":79,"channel":3,"program":27},{"beat":242.0,"duration":0.47917,"midi":47,"velocity":85,"channel":6,"program":29},{"beat":242.0,"duration":0.22917,"midi":69,"velocity":76,"channel":13,"program":81},{"beat":242.02083,"duration":0.45833,"midi":57,"velocity":88,"channel":3,"program":27},{"beat":242.02083,"duration":0.45833,"midi":57,"velocity":85,"channel":6,"program":29},{"beat":242.02083,"duration":0.45833,"midi":57,"velocity":85,"channel":12,"program":25},{"beat":242.5,"duration":0.47917,"midi":35,"velocity":100,"channel":2,"program":33},{"beat":242.5,"duration":0.97917,"midi":47,"velocity":78,"channel":3,"program":27},{"beat":242.5,"duration":0.97917,"midi":47,"velocity":89,"channel":4,"program":29},{"beat":242.5,"duration":0.97917,"midi":47,"velocity":86,"channel":5,"program":30},{"beat":242.5,"duration":0.97917,"midi":47,"velocity":80,"channel":6,"program":29},{"beat":242.5,"duration":0.22917,"midi":69,"velocity":71,"channel":13,"program":81},{"beat":242.52083,"duration":0.95833,"midi":54,"velocity":89,"channel":4,"program":29},{"beat":242.52083,"duration":0.95833,"midi":54,"velocity":86,"channel":5,"program":30},{"beat":242.52083,"duration":0.95833,"midi":54,"velocity":81,"channel":6,"program":29},{"beat":242.52083,"duration":0.95833,"midi":57,"velocity":88,"channel":3,"program":27},{"beat":242.52083,"duration":0.95833,"midi":57,"velocity":83,"channel":12,"program":25},{"beat":242.54167,"duration":0.4375,"midi":57,"velocity":58,"channel":4,"program":29},{"beat":242.54167,"duration":0.9375,"midi":57,"velocity":90,"channel":5,"program":30},{"beat":242.54167,"duration":1.4375,"midi":62,"velocity":61,"channel":6,"program":29},{"beat":242.54167,"duration":0.9375,"midi":62,"velocity":79,"channel":12,"program":25},{"beat":242.54167,"duration":0.4375,"midi":64,"velocity":88,"channel":3,"program":27},{"beat":243.0,"duration":0.47917,"midi":28,"velocity":100,"channel":2,"program":33},{"beat":243.0,"duration":0.4375,"midi":59,"velocity":88,"channel":1,"program":52},{"beat":243.0,"duration":0.22917,"midi":69,"velocity":80,"channel":13,"program":81},{"beat":243.0,"duration":0.4375,"midi":83,"velocity":101,"channel":0,"program":22},{"beat":243.04167,"duration":0.9375,"midi":57,"velocity":60,"channel":4,"program":29},{"beat":243.04167,"duration":0.4375,"midi":62,"velocity":89,"channel":3,"program":27},{"beat":243.5,"duration":0.47917,"midi":29,"velocity":95,"channel":2,"program":33},{"beat":243.5,"duration":0.22917,"midi":47,"velocity":70,"channel":3,"program":27},{"beat":243.5,"duration":0.22917,"midi":47,"velocity":77,"channel":4,"program":29},{"beat":243.5,"duration":0.22917,"midi":47,"velocity":77,"channel":5,"program":30},{"beat":243.5,"duration":0.22917,"midi":50,"velocity":82,"channel":6,"program":29},{"beat":243.5,"duration":1.22917,"midi":57,"velocity":87,"channel":1,"program":52},{"beat":243.5,"duration":0.22917,"midi":69,"velocity":71,"channel":13,"program":81},{"beat":243.5,"duration":1.22917,"midi":81,"velocity":101,"channel":0,"program":22},{"beat":243.52083,"duration":0.20833,"midi":54,"velocity":76,"channel":5,"program":30},{"beat":243.52083,"duration":0.45833,"midi":55,"velocity":83,"channel":4,"program":29},{"beat":243.52083,"duration":0.20833,"midi":57,"velocity":76,"channel":3,"program":27},{"beat":243.52083,"duration":0.20833,"midi":57,"velocity":82,"channel":6,"program":29},{"beat":243.52083,"duration":0.20833,"midi":57,"velocity":79,"channel":12,"program":25},{"beat":243.54167,"duration":0.1875,"midi":57,"velocity":79,"channel":5,"program":30},{"beat":243.54167,"duration":0.1875,"midi":62,"velocity":80,"channel":12,"program":25},{"beat":243.54167,"duration":0.1875,"midi":64,"velocity":82,"channel":3,"program":27},{"beat":243.75,"duration":0.22917,"midi":47,"velocity":72,"channel":3,"program":27},{"beat":243.75,"duration":0.22917,"midi":47,"velocity":78,"channel":4,"program":29},{"beat":243.75,"duration":0.22917,"midi":47,"velocity":79,"channel":5,"program":30},{"beat":243.75,"duration":0.22917,"midi":50,"velocity":83,"channel":6,"program":29},{"beat":243.77083,"duration":0.20833,"midi":54,"velocity":77,"channel":5,"program":30},{"beat":243.77083,"duration":0.20833,"midi":57,"velocity":77,"channel":3,"program":27},{"beat":243.77083,"duration":0.20833,"midi":57,"velocity":84,"channel":6,"program":29},{"beat":243.77083,"duration":0.20833,"midi":57,"velocity":82,"channel":12,"program":25},{"beat":243.79167,"duration":0.1875,"midi":57,"velocity":78,"channel":5,"program":30},{"beat":243.79167,"duration":0.1875,"midi":62,"velocity":83,"channel":12,"program":25},{"beat":243.79167,"duration":0.1875,"midi":64,"velocity":78,"channel":3,"program":27},{"beat":244.0,"duration":0.47917,"midi":30,"velocity":100,"channel":2,"program":33},{"beat":244.0,"duration":0.97917,"midi":50,"velocity":89,"channel":3,"program":27},{"beat":244.0,"duration":0.97917,"midi":50,"velocity":90,"channel":4,"program":29},{"beat":244.0,"duration":0.97917,"midi":50,"velocity":85,"channel":5,"program":30},{"beat":244.0,"duration":0.97917,"midi":52,"velocity":86,"channel":6,"program":29},{"beat":244.0,"duration":0.97917,"midi":54,"velocity":87,"channel":3,"program":27},{"beat":244.0,"duration":0.22917,"midi":69,"velocity":65,"channel":13,"program":81},{"beat":244.0,"duration":1.97917,"midi":76,"velocity":89,"channel":7,"program":51},{"beat":244.0,"duration":0.72917,"midi":76,"velocity":70,"channel":14,"program":29},{"beat":244.0,"duration":1.97917,"midi":88,"velocity":89,"channel":7,"program":51},{"beat":244.02083,"duration":0.95833,"midi":54,"velocity":89,"channel":4,"program":29},{"beat":244.02083,"duration":0.95833,"midi":57,"velocity":89,"channel":3,"program":27},{"beat":244.02083,"duration":0.95833,"midi":57,"velocity":86,"channel":6,"program":29},{"beat":244.02083,"duration":0.95833,"midi":57,"velocity":95,"channel":12,"program":25},{"beat":244.04167,"duration":0.9375,"midi":57,"velocity":89,"channel":4,"program":29},{"beat":244.04167,"duration":0.9375,"midi":57,"velocity":85,"channel":5,"program":30},{"beat":244.04167,"duration":0.9375,"midi":62,"velocity":92,"channel":12,"program":25},{"beat":244.04167,"duration":1.4375,"midi":64,"velocity":65,"channel":3,"program":27},{"beat":244.5,"duration":0.47917,"midi":30,"velocity":91,"channel":2,"program":33},{"beat":244.5,"duration":0.22917,"midi":69,"velocity":70,"channel":13,"program":81},{"beat":244.52083,"duration":0.95833,"midi":54,"velocity":89,"channel":5,"program":30},{"beat":245.0,"duration":0.47917,"midi":30,"velocity":97,"channel":2,"program":33},{"beat":245.0,"duration":0.47917,"midi":50,"velocity":84,"channel":3,"program":27},{"beat":245.0,"duration":0.97917,"midi":50,"velocity":83,"channel":4,"program":29},{"beat":245.0,"duration":0.47917,"midi":50,"velocity":84,"channel":5,"program":30},{"beat":245.0,"duration":0.4375,"midi":54,"velocity":90,"channel":1,"program":52},{"beat":245.0,"duration":0.47917,"midi":54,"velocity":90,"channel":3,"program":27},{"beat":245.0,"duration":0.47917,"midi":54,"velocity":95,"channel":6,"program":29},{"beat":245.0,"duration":0.22917,"midi":69,"velocity":83,"channel":13,"program":81},{"beat":245.0,"duration":0.97917,"midi":76,"velocity":79,"channel":14,"program":29},{"beat":245.0,"duration":0.4375,"midi":78,"velocity":102,"channel":0,"program":22},{"beat":245.02083,"duration":0.95833,"midi":54,"velocity":81,"channel":4,"program":29},{"beat":245.02083,"duration":0.45833,"midi":57,"velocity":85,"channel":3,"program":27},{"beat":245.02083,"duration":0.45833,"midi":57,"velocity":95,"channel":6,"program":29},{"beat":245.02083,"duration":0.45833,"midi":57,"velocity":93,"channel":12,"program":25},{"beat":245.04167,"duration":0.9375,"midi":57,"velocity":78,"channel":4,"program":29},{"beat":245.04167,"duration":0.4375,"midi":57,"velocity":78,"channel":5,"program":30},{"beat":245.04167,"duration":0.4375,"midi":62,"velocity":95,"channel":12,"program":25},{"beat":245.5,"duration":0.22917,"midi":40,"velocity":80,"channel":2,"program":33},{"beat":245.5,"duration":0.47917,"midi":50,"velocity":82,"channel":3,"program":27},{"beat":245.5,"duration":0.97917,"midi":50,"velocity":90,"channel":5,"program":30},{"beat":245.5,"duration":1.22917,"midi":52,"velocity":89,"channel":1,"program":52},{"beat":245.5,"duration":0.47917,"midi":52,"velocity":82,"channel":6,"program":29},{"beat":245.5,"duration":0.47917,"midi":54,"velocity":76,"channel":3,"program":27},{"beat":245.5,"duration":0.22917,"midi":69,"velocity":73,"channel":13,"program":81},{"beat":245.5,"duration":1.22917,"midi":76,"velocity":100,"channel":0,"program":22},{"beat":245.52083,"duration":0.45833,"midi":52,"velocity":86,"channel":5,"program":30},{"beat":245.52083,"duration":0.45833,"midi":57,"velocity":82,"channel":3,"program":27},{"beat":245.52083,"duration":0.45833,"midi":57,"velocity":85,"channel":6,"program":29},{"beat":245.52083,"duration":0.45833,"midi":57,"velocity":85,"channel":12,"program":25},{"beat":245.54167,"duration":0.9375,"midi":57,"velocity":85,"channel":5,"program":30},{"beat":245.54167,"duration":0.4375,"midi":61,"velocity":83,"channel":12,"program":25},{"beat":245.54167,"duration":0.4375,"midi":64,"velocity":72,"channel":3,"program":27},{"beat":245.75,"duration":0.22917,"midi":38,"velocity":70,"channel":2,"program":33},{"beat":246.0,"duration":0.47917,"midi":42,"velocity":94,"channel":2,"program":33},{"beat":246.0,"duration":0.47917,"midi":50,"velocity":88,"channel":3,"program":27},{"beat":246.0,"duration":0.47917,"midi":50,"velocity":90,"channel":4,"program":29},{"beat":246.0,"duration":0.22917,"midi":69,"velocity":78,"channel":13,"program":81},{"beat":246.0,"duration":1.97917,"midi":78,"velocity":85,"channel":7,"program":51},{"beat":246.0,"duration":1.97917,"midi":78,"velocity":70,"channel":14,"program":29},{"beat":246.0,"duration":1.97917,"midi":90,"velocity":85,"channel":7,"program":51},{"beat":246.02083,"duration":0.45833,"midi":54,"velocity":86,"channel":3,"program":27},{"beat":246.02083,"duration":0.45833,"midi":54,"velocity":84,"channel":4,"program":29},{"beat":246.02083,"duration":0.45833,"midi":57,"velocity":90,"channel":3,"program":27},{"beat":246.02083,"duration":0.45833,"midi":57,"velocity":86,"channel":12,"program":25},{"beat":246.04167,"duration":0.4375,"midi":57,"velocity":84,"channel":4,"program":29},{"beat":246.04167,"duration":0.4375,"midi":62,"velocity":88,"channel":12,"program":25},{"beat":246.5,"duration":0.47917,"midi":42,"velocity":100,"channel":2,"program":33},{"beat":246.5,"duration":0.97917,"midi":50,"velocity":89,"channel":3,"program":27},{"beat":246.5,"duration":0.47917,"midi":50,"velocity":81,"channel":4,"program":29},{"beat":246.5,"duration":0.47917,"midi":50,"velocity":81,"channel":5,"program":30},{"beat":246.5,"duration":0.47917,"midi":54,"velocity":86,"channel":6,"program":29},{"beat":246.5,"duration":0.22917,"midi":69,"velocity":77,"channel":13,"program":81},{"beat":246.52083,"duration":0.95833,"midi":54,"velocity":87,"channel":3,"program":27},{"beat":246.52083,"duration":0.45833,"midi":54,"velocity":82,"channel":4,"program":29},{"beat":246.52083,"duration":0.45833,"midi":54,"velocity":80,"channel":5,"program":30},{"beat":246.52083,"duration":0.45833,"midi":57,"velocity":86,"channel":6,"program":29},{"beat":246.52083,"duration":0.45833,"midi":57,"velocity":89,"channel":12,"program":25},{"beat":246.54167,"duration":0.4375,"midi":57,"velocity":82,"channel":4,"program":29},{"beat":246.54167,"duration":0.4375,"midi":57,"velocity":79,"channel":5,"program":30},{"beat":246.54167,"duration":0.9375,"midi":62,"velocity":84,"channel":3,"program":27},{"beat":246.54167,"duration":0.4375,"midi":62,"velocity":84,"channel":12,"program":25},{"beat":247.0,"duration":0.97917,"midi":40,"velocity":80,"channel":2,"program":33},{"beat":247.0,"duration":0.97917,"midi":50,"velocity":88,"channel":1,"program":52},{"beat":247.0,"duration":0.72917,"midi":50,"velocity":88,"channel":4,"program":29},{"beat":247.0,"duration":0.72917,"midi":50,"velocity":90,"channel":5,"program":30},{"beat":247.0,"duration":0.97917,"midi":54,"velocity":98,"channel":6,"program":29},{"beat":247.0,"duration":0.22917,"midi":69,"velocity":86,"channel":13,"program":81},{"beat":247.0,"duration":0.97917,"midi":74,"velocity":102,"channel":0,"program":22},{"beat":247.02083,"duration":0.70833,"midi":54,"velocity":85,"channel":4,"program":29},{"beat":247.02083,"duration":0.70833,"midi":54,"velocity":90,"channel":5,"program":30},{"beat":247.02083,"duration":0.95833,"midi":57,"velocity":96,"channel":6,"program":29},{"beat":247.02083,"duration":0.45833,"midi":57,"velocity":95,"channel":12,"program":25},{"beat":247.04167,"duration":0.6875,"midi":57,"velocity":90,"channel":4,"program":29},{"beat":247.04167,"duration":0.6875,"midi":57,"velocity":90,"channel":5,"program":30},{"beat":247.04167,"duration":0.4375,"midi":62,"velocity":94,"channel":12,"program":25},{"beat":247.5,"duration":0.47917,"midi":50,"velocity":80,"channel":3,"program":27},{"beat":247.5,"duration":0.22917,"midi":69,"velocity":75,"channel":13,"program":81},{"beat":247.52083,"duration":0.45833,"midi":54,"velocity":81,"channel":3,"program":27},{"beat":247.52083,"duration":0.45833,"midi":57,"velocity":82,"channel":3,"program":27},{"beat":247.52083,"duration":0.20833,"midi":57,"velocity":89,"channel":12,"program":25},{"beat":247.54167,"duration":0.1875,"midi":62,"velocity":89,"channel":12,"program":25},{"beat":247.75,"duration":0.22917,"midi":50,"velocity":82,"channel":4,"program":29},{"beat":247.75,"duration":0.22917,"midi":50,"velocity":80,"channel":5,"program":30},{"beat":247.77083,"duration":0.20833,"midi":54,"velocity":83,"channel":4,"program":29},{"beat":247.77083,"duration":0.20833,"midi":54,"velocity":81,"channel":5,"program":30},{"beat":247.77083,"duration":0.20833,"midi":57,"velocity":85,"channel":12,"program":25},{"beat":247.79167,"duration":0.1875,"midi":57,"velocity":78,"channel":4,"program":29},{"beat":247.79167,"duration":0.1875,"midi":57,"velocity":78,"channel":5,"program":30},{"beat":247.79167,"duration":0.1875,"midi":62,"velocity":82,"channel":12,"program":25},{"beat":248.0,"duration":0.97917,"midi":31,"velocity":99,"channel":2,"program":33},{"beat":248.0,"duration":0.97917,"midi":43,"velocity":89,"channel":3,"program":27},{"beat":248.0,"duration":0.97917,"midi":43,"velocity":87,"channel":4,"program":29},{"beat":248.0,"duration":0.97917,"midi":43,"velocity":90,"channel":5,"program":30},{"beat":248.0,"duration":0.72917,"midi":50,"velocity":90,"channel":1,"program":52},{"beat":248.0,"duration":0.97917,"midi":50,"velocity":90,"channel":6,"program":29},{"beat":248.0,"duration":0.22917,"midi":69,"velocity":82,"channel":13,"program":81},{"beat":248.0,"duration":0.72917,"midi":74,"velocity":99,"channel":0,"program":22},{"beat":248.0,"duration":3.97917,"midi":74,"velocity":89,"channel":7,"program":51},{"beat":248.0,"duration":3.97917,"midi":86,"velocity":75,"channel":7,"program":51},{"beat":248.02083,"duration":0.95833,"midi":50,"velocity":84,"channel":3,"program":27},{"beat":248.02083,"duration":0.95833,"midi":50,"velocity":89,"channel":4,"program":29},{"beat":248.02083,"duration":0.95833,"midi":50,"velocity":85,"channel":5,"program":30},{"beat":248.02083,"duration":0.95833,"midi":55,"velocity":90,"channel":6,"program":29},{"beat":248.02083,"duration":0.95833,"midi":57,"velocity":98,"channel":12,"program":25},{"beat":248.04167,"duration":0.9375,"midi":55,"velocity":86,"channel":3,"program":27},{"beat":248.04167,"duration":0.9375,"midi":55,"velocity":84,"channel":4,"program":29},{"beat":248.04167,"duration":0.9375,"midi":57,"velocity":84,"channel":5,"program":30},{"beat":248.04167,"duration":0.9375,"midi":62,"velocity":93,"channel":12,"program":25},{"beat":248.04167,"duration":0.9375,"midi":67,"velocity":65,"channel":6,"program":29},{"beat":248.5,"duration":0.22917,"midi":69,"velocity":69,"channel":13,"program":81},{"beat":249.0,"duration":0.47917,"midi":31,"velocity":100,"channel":2,"program":33},{"beat":249.0,"duration":0.47917,"midi":43,"velocity":89,"channel":3,"program":27},{"beat":249.0,"duration":0.47917,"midi":43,"velocity":82,"channel":4,"program":29},{"beat":249.0,"duration":0.47917,"midi":43,"velocity":85,"channel":5,"program":30},{"beat":249.0,"duration":0.47917,"midi":50,"velocity":92,"channel":6,"program":29},{"beat":249.0,"duration":0.97917,"midi":52,"velocity":89,"channel":1,"program":52},{"beat":249.0,"duration":0.22917,"midi":69,"velocity":84,"channel":13,"program":81},{"beat":249.0,"duration":0.97917,"midi":76,"velocity":100,"channel":0,"program":22},{"beat":249.02083,"duration":0.45833,"midi":50,"velocity":85,"channel":3,"program":27},{"beat":249.02083,"duration":0.45833,"midi":50,"velocity":77,"channel":4,"program":29},{"beat":249.02083,"duration":0.45833,"midi":50,"velocity":86,"channel":5,"program":30},{"beat":249.02083,"duration":0.45833,"midi":57,"velocity":96,"channel":6,"program":29},{"beat":249.02083,"duration":0.45833,"midi":57,"velocity":96,"channel":12,"program":25},{"beat":249.02083,"duration":0.45833,"midi":66,"velocity":70,"channel":3,"program":27},{"beat":249.04167,"duration":0.4375,"midi":55,"velocity":79,"channel":4,"program":29},{"beat":249.04167,"duration":0.4375,"midi":57,"velocity":85,"channel":3,"program":27},{"beat":249.04167,"duration":0.4375,"midi":57,"velocity":87,"channel":5,"program":30},{"beat":249.04167,"duration":0.4375,"midi":62,"velocity":94,"channel":12,"program":25},{"beat":249.5,"duration":0.47917,"midi":31,"velocity":86,"channel":2,"program":33},{"beat":249.5,"duration":0.47917,"midi":43,"velocity":89,"channel":3,"program":27},{"beat":249.5,"duration":2.47917,"midi":43,"velocity":79,"channel":4,"program":29},{"beat":249.5,"duration":0.97917,"midi":43,"velocity":90,"channel":5,"program":30},{"beat":249.5,"duration":0.97917,"midi":50,"velocity":82,"channel":6,"program":29},{"beat":249.5,"duration":0.22917,"midi":69,"velocity":71,"channel":13,"program":81},{"beat":249.52083,"duration":0.45833,"midi":50,"velocity":89,"channel":3,"program":27},{"beat":249.52083,"duration":1.95833,"midi":50,"velocity":89,"channel":4,"program":29},{"beat":249.52083,"duration":0.95833,"midi":50,"velocity":86,"channel":5,"program":30},{"beat":249.52083,"duration":0.95833,"midi":55,"velocity":70,"channel":3,"program":27},{"beat":249.52083,"duration":0.95833,"midi":55,"velocity":83,"channel":6,"program":29},{"beat":249.52083,"duration":0.45833,"midi":57,"velocity":80,"channel":12,"program":25},{"beat":249.52083,"duration":0.45833,"midi":66,"velocity":70,"channel":3,"program":27},{"beat":249.54167,"duration":0.9375,"midi":55,"velocity":84,"channel":4,"program":29},{"beat":249.54167,"duration":0.4375,"midi":57,"velocity":80,"channel":5,"program":30},{"beat":249.54167,"duration":0.4375,"midi":62,"velocity":80,"channel":12,"program":25},{"beat":249.54167,"duration":0.4375,"midi":66,"velocity":83,"channel":6,"program":29},{"beat":250.0,"duration":0.47917,"midi":31,"velocity":92,"channel":2,"program":33},{"beat":250.0,"duration":0.47917,"midi":43,"velocity":80,"channel":3,"program":27},{"beat":250.0,"duration":0.97917,"midi":54,"velocity":89,"channel":1,"program":52},{"beat":250.0,"duration":0.22917,"midi":69,"velocity":76,"channel":13,"program":81},{"beat":250.0,"duration":0.97917,"midi":78,"velocity":101,"channel":0,"program":22},{"beat":250.02083,"duration":0.45833,"midi":57,"velocity":86,"channel":12,"program":25},{"beat":250.04167,"duration":0.4375,"midi":55,"velocity":89,"channel":5,"program":30},{"beat":250.04167,"duration":0.4375,"midi":62,"velocity":86,"channel":12,"program":25},{"beat":250.5,"duration":0.47917,"midi":31,"velocity":91,"channel":2,"program":33},{"beat":250.5,"duration":0.97917,"midi":43,"velocity":89,"channel":3,"program":27},{"beat":250.5,"duration":0.47917,"midi":43,"velocity":88,"channel":5,"program":30},{"beat":250.5,"duration":0.47917,"midi":54,"velocity":81,"channel":6,"program":29},{"beat":250.5,"duration":0.22917,"midi":69,"velocity":71,"channel":13,"program":81},{"beat":250.52083,"duration":0.45833,"midi":50,"velocity":88,"channel":5,"program":30},{"beat":250.52083,"duration":0.45833,"midi":54,"velocity":82,"channel":3,"program":27},{"beat":250.52083,"duration":0.45833,"midi":54,"velocity":89,"channel":4,"program":29},{"beat":250.52083,"duration":0.95833,"midi":57,"velocity":89,"channel":3,"program":27},{"beat":250.52083,"duration":0.45833,"midi":57,"velocity":79,"channel":6,"program":29},{"beat":250.52083,"duration":0.95833,"midi":57,"velocity":79,"channel":12,"program":25},{"beat":250.54167,"duration":0.4375,"midi":54,"velocity":88,"channel":5,"program":30},{"beat":250.54167,"duration":0.9375,"midi":62,"velocity":83,"channel":12,"program":25},{"beat":250.54167,"duration":0.4375,"midi":66,"velocity":64,"channel":6,"program":29},{"beat":251.0,"duration":0.47917,"midi":31,"velocity":98,"channel":2,"program":33},{"beat":251.0,"duration":0.97917,"midi":43,"velocity":84,"channel":5,"program":30},{"beat":251.0,"duration":0.47917,"midi":50,"velocity":89,"channel":6,"program":29},{"beat":251.0,"duration":0.8125,"midi":55,"velocity":88,"channel":1,"program":52},{"beat":251.0,"duration":0.22917,"midi":69,"velocity":80,"channel":13,"program":81},{"beat":251.0,"duration":0.8125,"midi":79,"velocity":101,"channel":0,"program":22},{"beat":251.02083,"duration":0.45833,"midi":50,"velocity":88,"channel":3,"program":27},{"beat":251.02083,"duration":0.45833,"midi":50,"velocity":89,"channel":5,"program":30},{"beat":251.02083,"duration":0.45833,"midi":55,"velocity":89,"channel":4,"program":29},{"beat":251.02083,"duration":0.45833,"midi":55,"velocity":90,"channel":6,"program":29},{"beat":251.02083,"duration":0.45833,"midi":67,"velocity":65,"channel":6,"program":29},{"beat":251.04167,"duration":0.4375,"midi":55,"velocity":84,"channel":5,"program":30},{"beat":251.5,"duration":0.47917,"midi":31,"velocity":88,"channel":2,"program":33},{"beat":251.5,"duration":0.22917,"midi":45,"velocity":80,"channel":3,"program":27},{"beat":251.5,"duration":0.22917,"midi":50,"velocity":81,"channel":4,"program":29},{"beat":251.5,"duration":0.22917,"midi":52,"velocity":79,"channel":6,"program":29},{"beat":251.5,"duration":0.22917,"midi":69,"velocity":71,"channel":13,"program":81},{"beat":251.52083,"duration":0.20833,"midi":52,"velocity":76,"channel":3,"program":27},{"beat":251.52083,"duration":0.20833,"midi":52,"velocity":76,"channel":5,"program":30},{"beat":251.52083,"duration":0.45833,"midi":57,"velocity":81,"channel":4,"program":29},{"beat":251.52083,"duration":0.20833,"midi":57,"velocity":79,"channel":6,"program":29},{"beat":251.52083,"duration":0.20833,"midi":57,"velocity":81,"channel":12,"program":25},{"beat":251.54167,"duration":0.1875,"midi":57,"velocity":80,"channel":3,"program":27},{"beat":251.54167,"duration":0.1875,"midi":57,"velocity":82,"channel":5,"program":30},{"beat":251.54167,"duration":0.1875,"midi":62,"velocity":80,"channel":12,"program":25},{"beat":251.75,"duration":0.22917,"midi":45,"velocity":82,"channel":3,"program":27},{"beat":251.75,"duration":0.22917,"midi":50,"velocity":81,"channel":4,"program":29},{"beat":251.75,"duration":0.22917,"midi":52,"velocity":87,"channel":6,"program":29},{"beat":251.77083,"duration":0.20833,"midi":52,"velocity":77,"channel":3,"program":27},{"beat":251.77083,"duration":0.20833,"midi":52,"velocity":76,"channel":5,"program":30},{"beat":251.77083,"duration":0.20833,"midi":57,"velocity":88,"channel":6,"program":29},{"beat":251.77083,"duration":0.20833,"midi":57,"velocity":82,"channel":12,"program":25},{"beat":251.79167,"duration":0.1875,"midi":57,"velocity":80,"channel":3,"program":27},{"beat":251.79167,"duration":0.1875,"midi":57,"velocity":80,"channel":5,"program":30},{"beat":251.79167,"duration":0.1875,"midi":62,"velocity":85,"channel":12,"program":25},{"beat":252.0,"duration":0.47917,"midi":33,"velocity":83,"channel":2,"program":33},{"beat":252.0,"duration":0.97917,"midi":45,"velocity":84,"channel":3,"program":27},{"beat":252.0,"duration":0.97917,"midi":45,"velocity":85,"channel":4,"program":29},{"beat":252.0,"duration":0.97917,"midi":45,"velocity":85,"channel":5,"program":30},{"beat":252.0,"duration":0.97917,"midi":52,"velocity":87,"channel":6,"program":29},{"beat":252.0,"duration":0.5625,"midi":57,"velocity":89,"channel":1,"program":52},{"beat":252.0,"duration":0.22917,"midi":69,"velocity":65,"channel":13,"program":81},{"beat":252.0,"duration":3.97917,"midi":73,"velocity":84,"channel":7,"program":51},{"beat":252.0,"duration":0.5625,"midi":81,"velocity":100,"channel":0,"program":22},{"beat":252.0,"duration":3.97917,"midi":85,"velocity":77,"channel":7,"program":51},{"beat":252.02083,"duration":0.95833,"midi":52,"velocity":87,"channel":3,"program":27},{"beat":252.02083,"duration":0.95833,"midi":52,"velocity":88,"channel":4,"program":29},{"beat":252.02083,"duration":0.95833,"midi":52,"velocity":85,"channel":5,"program":30},{"beat":252.02083,"duration":0.95833,"midi":57,"velocity":99,"channel":12,"program":25},{"beat":252.02083,"duration":0.95833,"midi":61,"velocity":88,"channel":6,"program":29},{"beat":252.04167,"duration":0.9375,"midi":57,"velocity":89,"channel":3,"program":27},{"beat":252.04167,"duration":0.9375,"midi":57,"velocity":86,"channel":4,"program":29},{"beat":252.04167,"duration":0.9375,"midi":57,"velocity":85,"channel":5,"program":30},{"beat":252.04167,"duration":0.9375,"midi":61,"velocity":96,"channel":12,"program":25},{"beat":252.5,"duration":0.47917,"midi":33,"velocity":87,"channel":2,"program":33},{"beat":252.5,"duration":0.22917,"midi":69,"velocity":70,"channel":13,"program":81},{"beat":253.0,"duration":0.47917,"midi":33,"velocity":98,"channel":2,"program":33},{"beat":253.0,"duration":0.47917,"midi":45,"velocity":85,"channel":3,"program":27},{"beat":253.0,"duration":0.47917,"midi":45,"velocity":85,"channel":4,"program":29},{"beat":253.0,"duration":0.47917,"midi":45,"velocity":90,"channel":5,"program":30},{"beat":253.0,"duration":0.97917,"midi":50,"velocity":89,"channel":1,"program":52},{"beat":253.0,"duration":0.47917,"midi":52,"velocity":95,"channel":6,"program":29},{"beat":253.0,"duration":0.22917,"midi":69,"velocity":83,"channel":13,"program":81},{"beat":253.0,"duration":0.97917,"midi":74,"velocity":102,"channel":0,"program":22},{"beat":253.02083,"duration":0.45833,"midi":52,"velocity":85,"channel":3,"program":27},{"beat":253.02083,"duration":0.45833,"midi":52,"velocity":77,"channel":4,"program":29},{"beat":253.02083,"duration":0.45833,"midi":52,"velocity":87,"channel":5,"program":30},{"beat":253.02083,"duration":0.45833,"midi":57,"velocity":93,"channel":12,"program":25},{"beat":253.02083,"duration":0.45833,"midi":61,"velocity":91,"channel":6,"program":29},{"beat":253.04167,"duration":0.4375,"midi":57,"velocity":85,"channel":3,"program":27},{"beat":253.04167,"duration":0.4375,"midi":57,"velocity":79,"channel":4,"program":29},{"beat":253.04167,"duration":0.4375,"midi":57,"velocity":78,"channel":5,"program":30},{"beat":253.04167,"duration":0.4375,"midi":61,"velocity":94,"channel":12,"program":25},{"beat":253.5,"duration":0.47917,"midi":33,"velocity":89,"channel":2,"program":33},{"beat":253.5,"duration":0.97917,"midi":45,"velocity":89,"channel":3,"program":27},{"beat":253.5,"duration":0.97917,"midi":45,"velocity":89,"channel":4,"program":29},{"beat":253.5,"duration":0.97917,"midi":45,"velocity":84,"channel":5,"program":30},{"beat":253.5,"duration":0.97917,"midi":52,"velocity":81,"channel":6,"program":29},{"beat":253.5,"duration":0.22917,"midi":69,"velocity":73,"channel":13,"program":81},{"beat":253.52083,"duration":0.95833,"midi":52,"velocity":85,"channel":3,"program":27},{"beat":253.52083,"duration":0.95833,"midi":52,"velocity":86,"channel":4,"program":29},{"beat":253.52083,"duration":0.95833,"midi":52,"velocity":87,"channel":5,"program":30},{"beat":253.52083,"duration":0.45833,"midi":57,"velocity":84,"channel":12,"program":25},{"beat":253.52083,"duration":0.95833,"midi":61,"velocity":86,"channel":6,"program":29},{"beat":253.54167,"duration":0.9375,"midi":57,"velocity":90,"channel":3,"program":27},{"beat":253.54167,"duration":0.9375,"midi":57,"velocity":89,"channel":4,"program":29},{"beat":253.54167,"duration":0.9375,"midi":57,"velocity":88,"channel":5,"program":30},{"beat":253.54167,"duration":0.4375,"midi":61,"velocity":83,"channel":12,"program":25},{"beat":254.0,"duration":0.47917,"midi":33,"velocity":97,"channel":2,"program":33},{"beat":254.0,"duration":0.47917,"midi":54,"velocity":89,"channel":1,"program":52},{"beat":254.0,"duration":0.47917,"midi":61,"velocity":68,"channel":3,"program":27},{"beat":254.0,"duration":0.22917,"midi":69,"velocity":78,"channel":13,"program":81},{"beat":254.0,"duration":0.47917,"midi":78,"velocity":99,"channel":0,"program":22},{"beat":254.02083,"duration":0.45833,"midi":57,"velocity":90,"channel":12,"program":25},{"beat":254.04167,"duration":0.4375,"midi":61,"velocity":90,"channel":12,"program":25},{"beat":254.5,"duration":0.47917,"midi":37,"velocity":96,"channel":2,"program":33},{"beat":254.5,"duration":0.97917,"midi":45,"velocity":90,"channel":3,"program":27},{"beat":254.5,"duration":0.97917,"midi":45,"velocity":85,"channel":4,"program":29},{"beat":254.5,"duration":0.97917,"midi":45,"velocity":85,"channel":5,"program":30},{"beat":254.5,"duration":0.97917,"midi":52,"velocity":90,"channel":6,"program":29},{"beat":254.5,"duration":0.39583,"midi":55,"velocity":89,"channel":1,"program":52},{"beat":254.5,"duration":0.22917,"midi":69,"velocity":77,"channel":13,"program":81},{"beat":254.5,"duration":0.39583,"midi":79,"velocity":99,"channel":0,"program":22},{"beat":254.52083,"duration":0.95833,"midi":52,"velocity":86,"channel":3,"program":27},{"beat":254.52083,"duration":0.95833,"midi":52,"velocity":90,"channel":4,"program":29},{"beat":254.52083,"duration":0.95833,"midi":52,"velocity":89,"channel":5,"program":30},{"beat":254.52083,"duration":0.95833,"midi":57,"velocity":87,"channel":12,"program":25},{"beat":254.52083,"duration":0.95833,"midi":61,"velocity":88,"channel":6,"program":29},{"beat":254.54167,"duration":0.9375,"midi":57,"velocity":88,"channel":3,"program":27},{"beat":254.54167,"duration":0.9375,"midi":57,"velocity":82,"channel":4,"program":29},{"beat":254.54167,"duration":0.9375,"midi":57,"velocity":90,"channel":5,"program":30},{"beat":254.54167,"duration":0.9375,"midi":61,"velocity":91,"channel":12,"program":25},{"beat":255.0,"duration":0.47917,"midi":40,"velocity":98,"channel":2,"program":33},{"beat":255.0,"duration":1.47917,"midi":54,"velocity":89,"channel":1,"program":52},{"beat":255.0,"duration":0.22917,"midi":69,"velocity":86,"channel":13,"program":81},{"beat":255.0,"duration":1.47917,"midi":78,"velocity":101,"channel":0,"program":22},{"beat":255.5,"duration":0.47917,"midi":45,"velocity":80,"channel":2,"program":33},{"beat":255.5,"duration":0.22917,"midi":45,"velocity":79,"channel":3,"program":27},{"beat":255.5,"duration":0.22917,"midi":45,"velocity":82,"channel":4,"program":29},{"beat":255.5,"duration":0.22917,"midi":45,"velocity":82,"channel":5,"program":30},{"beat":255.5,"duration":0.22917,"midi":52,"velocity":87,"channel":6,"program":29},{"beat":255.5,"duration":0.22917,"midi":69,"velocity":75,"channel":13,"program":81},{"beat":255.52083,"duration":0.20833,"midi":52,"velocity":79,"channel":3,"program":27},{"beat":255.52083,"duration":0.20833,"midi":52,"velocity":79,"channel":4,"program":29},{"beat":255.52083,"duration":0.20833,"midi":52,"velocity":78,"channel":5,"program":30},{"beat":255.52083,"duration":0.20833,"midi":57,"velocity":88,"channel":12,"program":25},{"beat":255.52083,"duration":0.20833,"midi":61,"velocity":84,"channel":6,"program":29},{"beat":255.54167,"duration":0.1875,"midi":57,"velocity":82,"channel":3,"program":27},{"beat":255.54167,"duration":0.1875,"midi":57,"velocity":78,"channel":4,"program":29},{"beat":255.54167,"duration":0.1875,"midi":57,"velocity":76,"channel":5,"program":30},{"beat":255.54167,"duration":0.1875,"midi":61,"velocity":85,"channel":12,"program":25},{"beat":255.75,"duration":0.22917,"midi":45,"velocity":81,"channel":3,"program":27},{"beat":255.75,"duration":0.22917,"midi":45,"velocity":79,"channel":4,"program":29},{"beat":255.75,"duration":0.22917,"midi":45,"velocity":82,"channel":5,"program":30},{"beat":255.75,"duration":0.22917,"midi":52,"velocity":87,"channel":6,"program":29},{"beat":255.77083,"duration":0.20833,"midi":52,"velocity":82,"channel":3,"program":27},{"beat":255.77083,"duration":0.20833,"midi":52,"velocity":82,"channel":4,"program":29},{"beat":255.77083,"duration":0.20833,"midi":52,"velocity":77,"channel":5,"program":30},{"beat":255.77083,"duration":0.20833,"midi":57,"velocity":85,"channel":12,"program":25},{"beat":255.77083,"duration":0.20833,"midi":61,"velocity":85,"channel":6,"program":29},{"beat":255.79167,"duration":0.1875,"midi":57,"velocity":80,"channel":4,"program":29},{"beat":255.79167,"duration":0.1875,"midi":57,"velocity":81,"channel":5,"program":30},{"beat":255.79167,"duration":0.1875,"midi":61,"velocity":87,"channel":12,"program":25},{"beat":255.8125,"duration":0.16667,"midi":57,"velocity":76,"channel":3,"program":27},{"beat":256.0,"duration":0.47917,"midi":35,"velocity":100,"channel":2,"program":33},{"beat":256.0,"duration":0.97917,"midi":47,"velocity":87,"channel":3,"program":27},{"beat":256.0,"duration":0.97917,"midi":47,"velocity":87,"channel":4,"program":29},{"beat":256.0,"duration":0.97917,"midi":47,"velocity":90,"channel":5,"program":30},{"beat":256.0,"duration":0.97917,"midi":47,"velocity":85,"channel":6,"program":29},{"beat":256.0,"duration":0.22917,"midi":69,"velocity":82,"channel":13,"program":81},{"beat":256.0,"duration":3.97917,"midi":74,"velocity":88,"channel":7,"program":51},{"beat":256.0,"duration":3.97917,"midi":86,"velocity":80,"channel":7,"program":51},{"beat":256.02083,"duration":0.95833,"midi":54,"velocity":84,"channel":3,"program":27},{"beat":256.02083,"duration":0.95833,"midi":54,"velocity":85,"channel":4,"program":29},{"beat":256.02083,"duration":0.95833,"midi":54,"velocity":85,"channel":5,"program":30},{"beat":256.02083,"duration":0.95833,"midi":57,"velocity":85,"channel":6,"program":29},{"beat":256.02083,"duration":0.95833,"midi":59,"velocity":96,"channel":12,"program":25},{"beat":256.04167,"duration":0.9375,"midi":57,"velocity":84,"channel":3,"program":27},{"beat":256.04167,"duration":0.9375,"midi":57,"velocity":85,"channel":5,"program":30},{"beat":256.04167,"duration":0.9375,"midi":62,"velocity":95,"channel":12,"program":25},{"beat":256.5,"duration":0.47917,"midi":35,"velocity":88,"channel":2,"program":33},{"beat":256.5,"duration":0.47917,"midi":52,"velocity":90,"channel":1,"program":52},{"beat":256.5,"duration":0.22917,"midi":69,"velocity":69,"channel":13,"program":81},{"beat":256.5,"duration":0.47917,"midi":76,"velocity":99,"channel":0,"program":22},{"beat":257.0,"duration":0.47917,"midi":35,"velocity":103,"channel":2,"program":33},{"beat":257.0,"duration":0.47917,"midi":47,"velocity":76,"channel":3,"program":27},{"beat":257.0,"duration":0.47917,"midi":47,"velocity":86,"channel":4,"program":29},{"beat":257.0,"duration":0.47917,"midi":47,"velocity":87,"channel":5,"program":30},{"beat":257.0,"duration":0.47917,"midi":47,"velocity":94,"channel":6,"program":29},{"beat":257.0,"duration":1.97917,"midi":50,"velocity":88,"channel":1,"program":52},{"beat":257.0,"duration":0.22917,"midi":69,"velocity":84,"channel":13,"program":81},{"beat":257.0,"duration":1.97917,"midi":74,"velocity":101,"channel":0,"program":22},{"beat":257.02083,"duration":0.45833,"midi":54,"velocity":81,"channel":3,"program":27},{"beat":257.02083,"duration":0.45833,"midi":54,"velocity":83,"channel":4,"program":29},{"beat":257.02083,"duration":0.45833,"midi":54,"velocity":76,"channel":5,"program":30},{"beat":257.02083,"duration":0.45833,"midi":57,"velocity":94,"channel":6,"program":29},{"beat":257.02083,"duration":0.45833,"midi":59,"velocity":94,"channel":12,"program":25},{"beat":257.04167,"duration":0.4375,"midi":57,"velocity":77,"channel":3,"program":27},{"beat":257.04167,"duration":0.4375,"midi":57,"velocity":81,"channel":5,"program":30},{"beat":257.04167,"duration":0.4375,"midi":62,"velocity":94,"channel":12,"program":25},{"beat":257.5,"duration":0.47917,"midi":40,"velocity":91,"channel":2,"program":33},{"beat":257.5,"duration":0.97917,"midi":47,"velocity":87,"channel":3,"program":27},{"beat":257.5,"duration":0.97917,"midi":47,"velocity":87,"channel":4,"program":29},{"beat":257.5,"duration":0.97917,"midi":47,"velocity":90,"channel":5,"program":30},{"beat":257.5,"duration":0.97917,"midi":47,"velocity":79,"channel":6,"program":29},{"beat":257.5,"duration":0.47917,"midi":64,"velocity":77,"channel":3,"program":27},{"beat":257.5,"duration":0.22917,"midi":69,"velocity":71,"channel":13,"program":81},{"beat":257.52083,"duration":0.95833,"midi":54,"velocity":84,"channel":3,"program":27},{"beat":257.52083,"duration":0.95833,"midi":54,"velocity":90,"channel":4,"program":29},{"beat":257.52083,"duration":0.95833,"midi":54,"velocity":87,"channel":5,"program":30},{"beat":257.52083,"duration":0.95833,"midi":57,"velocity":79,"channel":6,"program":29},{"beat":257.52083,"duration":0.45833,"midi":59,"velocity":81,"channel":12,"program":25},{"beat":257.54167,"duration":0.9375,"midi":57,"velocity":84,"channel":3,"program":27},{"beat":257.54167,"duration":0.9375,"midi":57,"velocity":90,"channel":5,"program":30},{"beat":257.54167,"duration":0.4375,"midi":62,"velocity":82,"channel":12,"program":25},{"beat":258.0,"duration":0.47917,"midi":42,"velocity":93,"channel":2,"program":33},{"beat":258.0,"duration":0.22917,"midi":69,"velocity":76,"channel":13,"program":81},{"beat":258.02083,"duration":0.45833,"midi":59,"velocity":88,"channel":12,"program":25},{"beat":258.04167,"duration":0.4375,"midi":62,"velocity":86,"channel":12,"program":25},{"beat":258.5,"duration":0.47917,"midi":42,"velocity":87,"channel":2,"program":33},{"beat":258.5,"duration":0.47917,"midi":47,"velocity":80,"channel":3,"program":27},{"beat":258.5,"duration":0.47917,"midi":47,"velocity":87,"channel":4,"program":29},{"beat":258.5,"duration":0.97917,"midi":47,"velocity":90,"channel":5,"program":30},{"beat":258.5,"duration":0.47917,"midi":47,"velocity":79,"channel":6,"program":29},{"beat":258.5,"duration":0.47917,"midi":62,"velocity":89,"channel":3,"program":27},{"beat":258.5,"duration":0.4375,"midi":62,"velocity":86,"channel":14,"program":29},{"beat":258.5,"duration":0.22917,"midi":69,"velocity":71,"channel":13,"program":81},{"beat":258.52083,"duration":0.45833,"midi":54,"velocity":82,"channel":3,"program":27},{"beat":258.52083,"duration":0.45833,"midi":54,"velocity":79,"channel":4,"program":29},{"beat":258.52083,"duration":0.95833,"midi":54,"velocity":85,"channel":5,"program":30},{"beat":258.52083,"duration":0.45833,"midi":57,"velocity":79,"channel":6,"program":29},{"beat":258.52083,"duration":0.95833,"midi":59,"velocity":79,"channel":12,"program":25},{"beat":258.54167,"duration":0.4375,"midi":57,"velocity":80,"channel":3,"program":27},{"beat":258.54167,"duration":0.9375,"midi":57,"velocity":88,"channel":5,"program":30},{"beat":258.54167,"duration":0.9375,"midi":62,"velocity":79,"channel":12,"program":25},{"beat":259.0,"duration":0.47917,"midi":42,"velocity":97,"channel":2,"program":33},{"beat":259.0,"duration":0.47917,"midi":47,"velocity":87,"channel":3,"program":27},{"beat":259.0,"duration":0.72917,"midi":47,"velocity":90,"channel":4,"program":29},{"beat":259.0,"duration":0.97917,"midi":47,"velocity":92,"channel":6,"program":29},{"beat":259.0,"duration":0.47917,"midi":62,"velocity":89,"channel":3,"program":27},{"beat":259.0,"duration":0.52083,"midi":62,"velocity":86,"channel":14,"program":29},{"beat":259.0,"duration":0.22917,"midi":69,"velocity":80,"channel":13,"program":81},{"beat":259.02083,"duration":0.45833,"midi":54,"velocity":86,"channel":3,"program":27},{"beat":259.02083,"duration":0.70833,"midi":54,"velocity":89,"channel":4,"program":29},{"beat":259.02083,"duration":0.95833,"midi":57,"velocity":91,"channel":6,"program":29},{"beat":259.04167,"duration":0.4375,"midi":57,"velocity":84,"channel":3,"program":27},{"beat":259.5,"duration":0.47917,"midi":40,"velocity":91,"channel":2,"program":33},{"beat":259.5,"duration":0.47917,"midi":47,"velocity":82,"channel":3,"program":27},{"beat":259.5,"duration":0.22917,"midi":47,"velocity":78,"channel":5,"program":30},{"beat":259.5,"duration":0.47917,"midi":61,"velocity":87,"channel":3,"program":27},{"beat":259.5,"duration":0.47917,"midi":61,"velocity":88,"channel":14,"program":29},{"beat":259.5,"duration":0.22917,"midi":69,"velocity":71,"channel":13,"program":81},{"beat":259.52083,"duration":0.45833,"midi":54,"velocity":76,"channel":3,"program":27},{"beat":259.52083,"duration":0.20833,"midi":54,"velocity":82,"channel":5,"program":30},{"beat":259.52083,"duration":0.20833,"midi":59,"velocity":84,"channel":12,"program":25},{"beat":259.54167,"duration":0.4375,"midi":57,"velocity":81,"channel":3,"program":27},{"beat":259.54167,"duration":0.1875,"midi":57,"velocity":79,"channel":5,"program":30},{"beat":259.54167,"duration":0.1875,"midi":62,"velocity":80,"channel":12,"program":25},{"beat":259.75,"duration":0.22917,"midi":47,"velocity":84,"channel":4,"program":29},{"beat":259.75,"duration":0.22917,"midi":47,"velocity":82,"channel":5,"program":30},{"beat":259.77083,"duration":0.20833,"midi":54,"velocity":84,"channel":4,"program":29},{"beat":259.77083,"duration":0.20833,"midi":54,"velocity":82,"channel":5,"program":30},{"beat":259.77083,"duration":0.20833,"midi":59,"velocity":81,"channel":12,"program":25},{"beat":259.79167,"duration":0.1875,"midi":57,"velocity":76,"channel":5,"program":30},{"beat":259.79167,"duration":0.1875,"midi":62,"velocity":84,"channel":12,"program":25},{"beat":260.0,"duration":0.47917,"midi":38,"velocity":80,"channel":2,"program":33},{"beat":260.0,"duration":0.97917,"midi":50,"velocity":90,"channel":3,"program":27},{"beat":260.0,"duration":0.47917,"midi":50,"velocity":88,"channel":4,"program":29},{"beat":260.0,"duration":0.97917,"midi":50,"velocity":85,"channel":5,"program":30},{"beat":260.0,"duration":0.47917,"midi":50,"velocity":76,"channel":6,"program":29},{"beat":260.0,"duration":0.47917,"midi":62,"velocity":88,"channel":3,"program":27},{"beat":260.0,"duration":0.47917,"midi":62,"velocity":87,"channel":14,"program":29},{"beat":260.0,"duration":1.97917,"midi":64,"velocity":85,"channel":7,"program":51},{"beat":260.0,"duration":0.22917,"midi":69,"velocity":65,"channel":13,"program":81},{"beat":260.0,"duration":0.47917,"midi":69,"velocity":84,"channel":14,"program":29},{"beat":260.0,"duration":1.97917,"midi":83,"velocity":89,"channel":7,"program":51},{"beat":260.0,"duration":1.97917,"midi":95,"velocity":78,"channel":7,"program":51},{"beat":260.02083,"duration":0.95833,"midi":54,"velocity":84,"channel":3,"program":27},{"beat":260.02083,"duration":0.45833,"midi":57,"velocity":86,"channel":4,"program":29},{"beat":260.02083,"duration":0.45833,"midi":57,"velocity":89,"channel":5,"program":30},{"beat":260.02083,"duration":0.45833,"midi":57,"velocity":73,"channel":6,"program":29},{"beat":260.02083,"duration":0.45833,"midi":57,"velocity":96,"channel":12,"program":25},{"beat":260.04167,"duration":0.9375,"midi":57,"velocity":87,"channel":3,"program":27},{"beat":260.04167,"duration":0.4375,"midi":62,"velocity":78,"channel":5,"program":30},{"beat":260.04167,"duration":0.4375,"midi":62,"velocity":94,"channel":12,"program":25},{"beat":260.5,"duration":0.47917,"midi":38,"velocity":90,"channel":2,"program":33},{"beat":260.5,"duration":0.97917,"midi":50,"velocity":90,"channel":4,"program":29},{"beat":260.5,"duration":0.97917,"midi":50,"velocity":78,"channel":6,"program":29},{"beat":260.5,"duration":0.4375,"midi":54,"velocity":90,"channel":1,"program":52},{"beat":260.5,"duration":0.47917,"midi":62,"velocity":87,"channel":14,"program":29},{"beat":260.5,"duration":0.97917,"midi":64,"velocity":88,"channel":3,"program":27},{"beat":260.5,"duration":0.22917,"midi":69,"velocity":70,"channel":13,"program":81},{"beat":260.5,"duration":0.47917,"midi":69,"velocity":84,"channel":14,"program":29},{"beat":260.5,"duration":0.4375,"midi":78,"velocity":99,"channel":0,"program":22},{"beat":260.52083,"duration":0.95833,"midi":57,"velocity":86,"channel":4,"program":29},{"beat":260.52083,"duration":0.45833,"midi":57,"velocity":84,"channel":5,"program":30},{"beat":260.52083,"duration":0.95833,"midi":57,"velocity":82,"channel":6,"program":29},{"beat":260.52083,"duration":0.95833,"midi":57,"velocity":81,"channel":12,"program":25},{"beat":260.54167,"duration":0.9375,"midi":62,"velocity":81,"channel":12,"program":25},{"beat":260.54167,"duration":0.9375,"midi":64,"velocity":79,"channel":4,"program":29},{"beat":260.54167,"duration":0.4375,"midi":64,"velocity":80,"channel":5,"program":30},{"beat":261.0,"duration":0.47917,"midi":38,"velocity":96,"channel":2,"program":33},{"beat":261.0,"duration":0.47917,"midi":50,"velocity":90,"channel":3,"program":27},{"beat":261.0,"duration":0.47917,"midi":50,"velocity":85,"channel":5,"program":30},{"beat":261.0,"duration":0.47917,"midi":54,"velocity":88,"channel":1,"program":52},{"beat":261.0,"duration":0.22917,"midi":69,"velocity":83,"channel":13,"program":81},{"beat":261.0,"duration":0.47917,"midi":78,"velocity":100,"channel":0,"program":22},{"beat":261.02083,"duration":0.45833,"midi":54,"velocity":90,"channel":3,"program":27},{"beat":261.02083,"duration":0.45833,"midi":57,"velocity":88,"channel":5,"program":30},{"beat":261.04167,"duration":0.4375,"midi":57,"velocity":87,"channel":3,"program":27},{"beat":261.04167,"duration":0.4375,"midi":64,"velocity":78,"channel":5,"program":30},{"beat":261.5,"duration":0.47917,"midi":45,"velocity":80,"channel":2,"program":33},{"beat":261.5,"duration":0.97917,"midi":50,"velocity":86,"channel":3,"program":27},{"beat":261.5,"duration":0.97917,"midi":50,"velocity":89,"channel":4,"program":29},{"beat":261.5,"duration":0.97917,"midi":50,"velocity":88,"channel":5,"program":30},{"beat":261.5,"duration":0.47917,"midi":50,"velocity":83,"channel":6,"program":29},{"beat":261.5,"duration":0.47917,"midi":54,"velocity":90,"channel":1,"program":52},{"beat":261.5,"duration":0.47917,"midi":62,"velocity":84,"channel":14,"program":29},{"beat":261.5,"duration":0.97917,"midi":64,"velocity":84,"channel":3,"program":27},{"beat":261.5,"duration":0.22917,"midi":69,"velocity":73,"channel":13,"program":81},{"beat":261.5,"duration":0.47917,"midi":69,"velocity":84,"channel":14,"program":29},{"beat":261.5,"duration":0.47917,"midi":78,"velocity":102,"channel":0,"program":22},{"beat":261.52083,"duration":0.95833,"midi":54,"velocity":86,"channel":3,"program":27},{"beat":261.52083,"duration":0.95833,"midi":57,"velocity":85,"channel":4,"program":29},{"beat":261.52083,"duration":0.95833,"midi":57,"velocity":84,"channel":5,"program":30},{"beat":261.52083,"duration":0.45833,"midi":57,"velocity":86,"channel":6,"program":29},{"beat":261.52083,"duration":0.45833,"midi":57,"velocity":86,"channel":12,"program":25},{"beat":261.54167,"duration":0.9375,"midi":57,"velocity":84,"channel":3,"program":27},{"beat":261.54167,"duration":0.4375,"midi":62,"velocity":88,"channel":12,"program":25},{"beat":261.54167,"duration":0.4375,"midi":64,"velocity":77,"channel":4,"program":29},{"beat":261.54167,"duration":0.9375,"midi":64,"velocity":80,"channel":5,"program":30},{"beat":262.0,"duration":0.47917,"midi":50,"velocity":87,"channel":6,"program":29},{"beat":262.0,"duration":0.47917,"midi":52,"velocity":70,"channel":2,"program":33},{"beat":262.0,"duration":0.47917,"midi":54,"velocity":90,"channel":1,"program":52},{"beat":262.0,"duration":1.97917,"midi":66,"velocity":84,"channel":7,"program":51},{"beat":262.0,"duration":0.22917,"midi":69,"velocity":78,"channel":13,"program":81},{"beat":262.0,"duration":0.47917,"midi":78,"velocity":102,"channel":0,"program":22},{"beat":262.0,"duration":1.97917,"midi":81,"velocity":87,"channel":7,"program":51},{"beat":262.0,"duration":1.97917,"midi":93,"velocity":79,"channel":7,"program":51},{"beat":262.02083,"duration":0.45833,"midi":57,"velocity":87,"channel":6,"program":29},{"beat":262.02083,"duration":0.45833,"midi":57,"velocity":91,"channel":12,"program":25},{"beat":262.04167,"duration":0.4375,"midi":62,"velocity":87,"channel":12,"program":25},{"beat":262.5,"duration":0.47917,"midi":50,"velocity":70,"channel":2,"program":33},{"beat":262.5,"duration":0.47917,"midi":50,"velocity":86,"channel":3,"program":27},{"beat":262.5,"duration":0.47917,"midi":50,"velocity":84,"channel":4,"program":29},{"beat":262.5,"duration":0.47917,"midi":50,"velocity":84,"channel":5,"program":30},{"beat":262.5,"duration":0.47917,"midi":50,"velocity":88,"channel":6,"program":29},{"beat":262.5,"duration":0.47917,"midi":54,"velocity":90,"channel":1,"program":52},{"beat":262.5,"duration":0.47917,"midi":66,"velocity":87,"channel":3,"program":27},{"beat":262.5,"duration":0.22917,"midi":69,"velocity":77,"channel":13,"program":81},{"beat":262.5,"duration":0.47917,"midi":69,"velocity":90,"channel":14,"program":29},{"beat":262.5,"duration":0.47917,"midi":78,"velocity":99,"channel":0,"program":22},{"beat":262.52083,"duration":0.45833,"midi":54,"velocity":89,"channel":3,"program":27},{"beat":262.52083,"duration":0.45833,"midi":57,"velocity":88,"channel":4,"program":29},{"beat":262.52083,"duration":0.45833,"midi":57,"velocity":90,"channel":5,"program":30},{"beat":262.52083,"duration":0.45833,"midi":57,"velocity":89,"channel":6,"program":29},{"beat":262.52083,"duration":0.95833,"midi":57,"velocity":91,"channel":12,"program":25},{"beat":262.54167,"duration":0.4375,"midi":57,"velocity":89,"channel":3,"program":27},{"beat":262.54167,"duration":0.9375,"midi":62,"velocity":89,"channel":12,"program":25},{"beat":262.54167,"duration":0.4375,"midi":64,"velocity":81,"channel":4,"program":29},{"beat":262.54167,"duration":0.4375,"midi":66,"velocity":79,"channel":5,"program":30},{"beat":263.0,"duration":0.97917,"midi":47,"velocity":80,"channel":2,"program":33},{"beat":263.0,"duration":0.97917,"midi":50,"velocity":87,"channel":3,"program":27},{"beat":263.0,"duration":0.97917,"midi":50,"velocity":79,"channel":4,"program":29},{"beat":263.0,"duration":0.97917,"midi":50,"velocity":87,"channel":5,"program":30},{"beat":263.0,"duration":0.97917,"midi":50,"velocity":95,"channel":6,"program":29},{"beat":263.0,"duration":0.47917,"midi":52,"velocity":90,"channel":1,"program":52},{"beat":263.0,"duration":0.47917,"midi":62,"velocity":86,"channel":14,"program":29},{"beat":263.0,"duration":0.47917,"midi":66,"velocity":67,"channel":3,"program":27},{"beat":263.0,"duration":0.22917,"midi":69,"velocity":86,"channel":13,"program":81},{"beat":263.0,"duration":0.47917,"midi":76,"velocity":102,"channel":0,"program":22},{"beat":263.02083,"duration":0.95833,"midi":54,"velocity":86,"channel":3,"program":27},{"beat":263.02083,"duration":0.95833,"midi":57,"velocity":82,"channel":4,"program":29},{"beat":263.02083,"duration":0.95833,"midi":57,"velocity":90,"channel":5,"program":30},{"beat":263.02083,"duration":0.95833,"midi":57,"velocity":94,"channel":6,"program":29},{"beat":263.04167,"duration":0.9375,"midi":57,"velocity":85,"channel":3,"program":27},{"beat":263.04167,"duration":0.9375,"midi":62,"velocity":74,"channel":4,"program":29},{"beat":263.04167,"duration":0.9375,"midi":66,"velocity":79,"channel":5,"program":30},{"beat":263.5,"duration":0.47917,"midi":50,"velocity":89,"channel":1,"program":52},{"beat":263.5,"duration":0.47917,"midi":59,"velocity":84,"channel":14,"program":29},{"beat":263.5,"duration":0.47917,"midi":62,"velocity":79,"channel":3,"program":27},{"beat":263.5,"duration":0.22917,"midi":69,"velocity":75,"channel":13,"program":81},{"beat":263.5,"duration":0.47917,"midi":74,"velocity":101,"channel":0,"program":22},{"beat":263.52083,"duration":0.20833,"midi":57,"velocity":82,"channel":12,"program":25},{"beat":263.54167,"duration":0.1875,"midi":62,"velocity":88,"channel":12,"program":25},{"beat":263.77083,"duration":0.20833,"midi":57,"velocity":86,"channel":12,"program":25},{"beat":263.79167,"duration":0.1875,"midi":62,"velocity":86,"channel":12,"program":25},{"beat":264.0,"duration":0.97917,"midi":31,"velocity":99,"channel":2,"program":33},{"beat":264.0,"duration":0.97917,"midi":43,"velocity":88,"channel":4,"program":29},{"beat":264.0,"duration":0.97917,"midi":43,"velocity":89,"channel":5,"program":30},{"beat":264.0,"duration":0.72917,"midi":50,"velocity":89,"channel":1,"program":52},{"beat":264.0,"duration":0.97917,"midi":50,"velocity":89,"channel":3,"program":27},{"beat":264.0,"duration":0.97917,"midi":55,"velocity":87,"channel":6,"program":29},{"beat":264.0,"duration":0.72917,"midi":62,"velocity":89,"channel":1,"program":52},{"beat":264.0,"duration":0.22917,"midi":69,"velocity":82,"channel":13,"program":81},{"beat":264.0,"duration":0.72917,"midi":74,"velocity":100,"channel":0,"program":22},{"beat":264.0,"duration":3.97917,"midi":74,"velocity":88,"channel":7,"program":51},{"beat":264.0,"duration":3.97917,"midi":86,"velocity":78,"channel":7,"program":51},{"beat":264.02083,"duration":0.95833,"midi":50,"velocity":87,"channel":4,"program":29},{"beat":264.02083,"duration":0.95833,"midi":50,"velocity":89,"channel":5,"program":30},{"beat":264.02083,"duration":0.9375,"midi":55,"velocity":87,"channel":3,"program":27},{"beat":264.02083,"duration":0.95833,"midi":57,"velocity":96,"channel":12,"program":25},{"beat":264.02083,"duration":0.95833,"midi":62,"velocity":90,"channel":6,"program":29},{"beat":264.04167,"duration":0.9375,"midi":55,"velocity":89,"channel":4,"program":29},{"beat":264.04167,"duration":0.9375,"midi":57,"velocity":88,"channel":5,"program":30},{"beat":264.04167,"duration":0.9375,"midi":62,"velocity":86,"channel":3,"program":27},{"beat":264.04167,"duration":0.9375,"midi":62,"velocity":94,"channel":12,"program":25},{"beat":264.5,"duration":0.22917,"midi":69,"velocity":69,"channel":13,"program":81},{"beat":265.0,"duration":0.47917,"midi":31,"velocity":100,"channel":2,"program":33},{"beat":265.0,"duration":0.97917,"midi":43,"velocity":84,"channel":4,"program":29},{"beat":265.0,"duration":0.47917,"midi":43,"velocity":89,"channel":5,"program":30},{"beat":265.0,"duration":0.97917,"midi":50,"velocity":80,"channel":3,"program":27},{"beat":265.0,"duration":0.97917,"midi":52,"velocity":90,"channel":1,"program":52},{"beat":265.0,"duration":0.97917,"midi":55,"velocity":91,"channel":6,"program":29},{"beat":265.0,"duration":0.97917,"midi":62,"velocity":87,"channel":1,"program":52},{"beat":265.0,"duration":0.22917,"midi":69,"velocity":84,"channel":13,"program":81},{"beat":265.0,"duration":0.97917,"midi":76,"velocity":102,"channel":0,"program":22},{"beat":265.02083,"duration":0.95833,"midi":50,"velocity":77,"channel":4,"program":29},{"beat":265.02083,"duration":0.45833,"midi":50,"velocity":89,"channel":5,"program":30},{"beat":265.02083,"duration":0.95833,"midi":55,"velocity":78,"channel":3,"program":27},{"beat":265.02083,"duration":0.45833,"midi":57,"velocity":92,"channel":12,"program":25},{"beat":265.02083,"duration":0.95833,"midi":62,"velocity":87,"channel":6,"program":29},{"beat":265.04167,"duration":0.4375,"midi":54,"velocity":78,"channel":5,"program":30},{"beat":265.04167,"duration":0.9375,"midi":55,"velocity":79,"channel":4,"program":29},{"beat":265.04167,"duration":0.9375,"midi":62,"velocity":90,"channel":3,"program":27},{"beat":265.04167,"duration":0.4375,"midi":62,"velocity":98,"channel":12,"program":25},{"beat":265.04167,"duration":0.9375,"midi":66,"velocity":62,"channel":6,"program":29},{"beat":265.5,"duration":0.47917,"midi":31,"velocity":89,"channel":2,"program":33},{"beat":265.5,"duration":0.97917,"midi":43,"velocity":89,"channel":5,"program":30},{"beat":265.5,"duration":0.22917,"midi":69,"velocity":71,"channel":13,"program":81},{"beat":265.52083,"duration":0.95833,"midi":50,"velocity":86,"channel":5,"program":30},{"beat":265.52083,"duration":0.45833,"midi":57,"velocity":79,"channel":12,"program":25},{"beat":265.54167,"duration":0.9375,"midi":55,"velocity":79,"channel":5,"program":30},{"beat":265.54167,"duration":0.4375,"midi":62,"velocity":83,"channel":12,"program":25},{"beat":266.0,"duration":0.47917,"midi":31,"velocity":93,"channel":2,"program":33},{"beat":266.0,"duration":0.47917,"midi":43,"velocity":89,"channel":4,"program":29},{"beat":266.0,"duration":0.47917,"midi":50,"velocity":84,"channel":3,"program":27},{"beat":266.0,"duration":0.89583,"midi":54,"velocity":88,"channel":1,"program":52},{"beat":266.0,"duration":0.47917,"midi":55,"velocity":82,"channel":6,"program":29},{"beat":266.0,"duration":0.89583,"midi":62,"velocity":86,"channel":1,"program":52},{"beat":266.0,"duration":0.22917,"midi":69,"velocity":76,"channel":13,"program":81},{"beat":266.0,"duration":0.89583,"midi":78,"velocity":100,"channel":0,"program":22},{"beat":266.02083,"duration":0.45833,"midi":50,"velocity":85,"channel":4,"program":29},{"beat":266.02083,"duration":0.45833,"midi":55,"velocity":84,"channel":3,"program":27},{"beat":266.02083,"duration":0.45833,"midi":57,"velocity":89,"channel":12,"program":25},{"beat":266.02083,"duration":0.45833,"midi":62,"velocity":84,"channel":6,"program":29},{"beat":266.04167,"duration":0.4375,"midi":55,"velocity":84,"channel":4,"program":29},{"beat":266.04167,"duration":0.4375,"midi":62,"velocity":86,"channel":3,"program":27},{"beat":266.04167,"duration":0.4375,"midi":62,"velocity":87,"channel":12,"program":25},{"beat":266.5,"duration":0.47917,"midi":31,"velocity":88,"channel":2,"program":33},{"beat":266.5,"duration":0.47917,"midi":43,"velocity":87,"channel":4,"program":29},{"beat":266.5,"duration":0.47917,"midi":43,"velocity":88,"channel":5,"program":30},{"beat":266.5,"duration":0.97917,"midi":50,"velocity":86,"channel":3,"program":27},{"beat":266.5,"duration":0.97917,"midi":55,"velocity":75,"channel":6,"program":29},{"beat":266.5,"duration":0.22917,"midi":69,"velocity":71,"channel":13,"program":81},{"beat":266.52083,"duration":0.45833,"midi":50,"velocity":77,"channel":4,"program":29},{"beat":266.52083,"duration":0.45833,"midi":50,"velocity":87,"channel":5,"program":30},{"beat":266.52083,"duration":0.95833,"midi":55,"velocity":84,"channel":3,"program":27},{"beat":266.52083,"duration":0.95833,"midi":57,"velocity":86,"channel":12,"program":25},{"beat":266.52083,"duration":0.95833,"midi":62,"velocity":77,"channel":6,"program":29},{"beat":266.54167,"duration":0.4375,"midi":55,"velocity":81,"channel":4,"program":29},{"beat":266.54167,"duration":0.4375,"midi":55,"velocity":76,"channel":5,"program":30},{"beat":266.54167,"duration":0.9375,"midi":62,"velocity":87,"channel":3,"program":27},{"beat":266.54167,"duration":0.9375,"midi":62,"velocity":81,"channel":12,"program":25},{"beat":267.0,"duration":0.47917,"midi":31,"velocity":100,"channel":2,"program":33},{"beat":267.0,"duration":0.97917,"midi":43,"velocity":85,"channel":4,"program":29},{"beat":267.0,"duration":0.47917,"midi":43,"velocity":85,"channel":5,"program":30},{"beat":267.0,"duration":0.8125,"midi":55,"velocity":89,"channel":1,"program":52},{"beat":267.0,"duration":0.8125,"midi":62,"velocity":90,"channel":1,"program":52},{"beat":267.0,"duration":0.22917,"midi":69,"velocity":80,"channel":13,"program":81},{"beat":267.0,"duration":0.8125,"midi":79,"velocity":99,"channel":0,"program":22},{"beat":267.02083,"duration":0.45833,"midi":50,"velocity":88,"channel":4,"program":29},{"beat":267.02083,"duration":0.45833,"midi":50,"velocity":87,"channel":5,"program":30},{"beat":267.04167,"duration":0.4375,"midi":55,"velocity":87,"channel":4,"program":29},{"beat":267.04167,"duration":0.9375,"midi":55,"velocity":80,"channel":5,"program":30},{"beat":267.5,"duration":0.47917,"midi":31,"velocity":98,"channel":2,"program":33},{"beat":267.5,"duration":0.22917,"midi":43,"velocity":82,"channel":5,"program":30},{"beat":267.5,"duration":0.22917,"midi":52,"velocity":82,"channel":3,"program":27},{"beat":267.5,"duration":0.22917,"midi":57,"velocity":77,"channel":6,"program":29},{"beat":267.5,"duration":0.22917,"midi":69,"velocity":71,"channel":13,"program":81},{"beat":267.52083,"duration":0.20833,"midi":50,"velocity":80,"channel":5,"program":30},{"beat":267.52083,"duration":0.20833,"midi":52,"velocity":81,"channel":4,"program":29},{"beat":267.52083,"duration":0.20833,"midi":57,"velocity":79,"channel":3,"program":27},{"beat":267.52083,"duration":0.20833,"midi":57,"velocity":79,"channel":4,"program":29},{"beat":267.52083,"duration":0.20833,"midi":57,"velocity":82,"channel":12,"program":25},{"beat":267.52083,"duration":0.20833,"midi":64,"velocity":78,"channel":6,"program":29},{"beat":267.54167,"duration":0.1875,"midi":62,"velocity":81,"channel":12,"program":25},{"beat":267.54167,"duration":0.1875,"midi":64,"velocity":80,"channel":3,"program":27},{"beat":267.75,"duration":0.22917,"midi":43,"velocity":82,"channel":5,"program":30},{"beat":267.75,"duration":0.22917,"midi":52,"velocity":82,"channel":3,"program":27},{"beat":267.75,"duration":0.22917,"midi":57,"velocity":76,"channel":6,"program":29},{"beat":267.77083,"duration":0.20833,"midi":50,"velocity":82,"channel":5,"program":30},{"beat":267.77083,"duration":0.20833,"midi":52,"velocity":80,"channel":4,"program":29},{"beat":267.77083,"duration":0.20833,"midi":57,"velocity":77,"channel":3,"program":27},{"beat":267.77083,"duration":0.20833,"midi":57,"velocity":79,"channel":4,"program":29},{"beat":267.77083,"duration":0.20833,"midi":57,"velocity":82,"channel":12,"program":25},{"beat":267.77083,"duration":0.20833,"midi":64,"velocity":76,"channel":6,"program":29},{"beat":267.79167,"duration":0.1875,"midi":62,"velocity":85,"channel":12,"program":25},{"beat":267.79167,"duration":0.1875,"midi":64,"velocity":77,"channel":3,"program":27},{"beat":268.0,"duration":0.97917,"midi":33,"velocity":96,"channel":2,"program":33},{"beat":268.0,"duration":0.97917,"midi":45,"velocity":89,"channel":4,"program":29},{"beat":268.0,"duration":0.97917,"midi":45,"velocity":90,"channel":5,"program":30},{"beat":268.0,"duration":0.97917,"midi":52,"velocity":84,"channel":3,"program":27},{"beat":268.0,"duration":0.97917,"midi":52,"velocity":89,"channel":6,"program":29},{"beat":268.0,"duration":0.97917,"midi":57,"velocity":90,"channel":1,"program":52},{"beat":268.0,"duration":0.97917,"midi":61,"velocity":86,"channel":1,"program":52},{"beat":268.0,"duration":0.22917,"midi":69,"velocity":65,"channel":13,"program":81},{"beat":268.0,"duration":3.97917,"midi":73,"velocity":88,"channel":7,"program":51},{"beat":268.0,"duration":0.97917,"midi":81,"velocity":101,"channel":0,"program":22},{"beat":268.0,"duration":3.97917,"midi":85,"velocity":77,"channel":7,"program":51},{"beat":268.02083,"duration":0.95833,"midi":52,"velocity":85,"channel":4,"program":29},{"beat":268.02083,"duration":0.95833,"midi":52,"velocity":88,"channel":5,"program":30},{"beat":268.02083,"duration":0.95833,"midi":57,"velocity":89,"channel":3,"program":27},{"beat":268.02083,"duration":0.95833,"midi":57,"velocity":94,"channel":12,"program":25},{"beat":268.02083,"duration":0.95833,"midi":61,"velocity":89,"channel":6,"program":29},{"beat":268.04167,"duration":0.9375,"midi":57,"velocity":86,"channel":4,"program":29},{"beat":268.04167,"duration":0.9375,"midi":57,"velocity":84,"channel":5,"program":30},{"beat":268.04167,"duration":0.9375,"midi":61,"velocity":89,"channel":3,"program":27},{"beat":268.04167,"duration":0.9375,"midi":61,"velocity":98,"channel":12,"program":25},{"beat":268.5,"duration":0.22917,"midi":69,"velocity":70,"channel":13,"program":81},{"beat":269.0,"duration":0.47917,"midi":33,"velocity":102,"channel":2,"program":33},{"beat":269.0,"duration":0.47917,"midi":45,"velocity":90,"channel":4,"program":29},{"beat":269.0,"duration":0.47917,"midi":45,"velocity":87,"channel":5,"program":30},{"beat":269.0,"duration":0.97917,"midi":50,"velocity":87,"channel":1,"program":52},{"beat":269.0,"duration":0.47917,"midi":52,"velocity":88,"channel":3,"program":27},{"beat":269.0,"duration":0.47917,"midi":52,"velocity":90,"channel":6,"program":29},{"beat":269.0,"duration":0.97917,"midi":57,"velocity":87,"channel":1,"program":52},{"beat":269.0,"duration":0.22917,"midi":69,"velocity":83,"channel":13,"program":81},{"beat":269.0,"duration":0.97917,"midi":74,"velocity":102,"channel":0,"program":22},{"beat":269.02083,"duration":0.45833,"midi":52,"velocity":88,"channel":4,"program":29},{"beat":269.02083,"duration":0.45833,"midi":52,"velocity":89,"channel":5,"program":30},{"beat":269.02083,"duration":0.45833,"midi":57,"velocity":88,"channel":3,"program":27},{"beat":269.02083,"duration":0.45833,"midi":57,"velocity":96,"channel":12,"program":25},{"beat":269.02083,"duration":0.45833,"midi":61,"velocity":87,"channel":6,"program":29},{"beat":269.04167,"duration":0.4375,"midi":57,"velocity":84,"channel":4,"program":29},{"beat":269.04167,"duration":0.4375,"midi":57,"velocity":84,"channel":5,"program":30},{"beat":269.04167,"duration":0.4375,"midi":61,"velocity":90,"channel":3,"program":27},{"beat":269.04167,"duration":0.4375,"midi":61,"velocity":94,"channel":12,"program":25},{"beat":269.5,"duration":0.47917,"midi":33,"velocity":92,"channel":2,"program":33},{"beat":269.5,"duration":0.47917,"midi":45,"velocity":82,"channel":4,"program":29},{"beat":269.5,"duration":0.47917,"midi":45,"velocity":81,"channel":5,"program":30},{"beat":269.5,"duration":0.97917,"midi":52,"velocity":88,"channel":3,"program":27},{"beat":269.5,"duration":0.97917,"midi":52,"velocity":76,"channel":6,"program":29},{"beat":269.5,"duration":0.22917,"midi":69,"velocity":73,"channel":13,"program":81},{"beat":269.52083,"duration":0.45833,"midi":52,"velocity":82,"channel":4,"program":29},{"beat":269.52083,"duration":0.45833,"midi":52,"velocity":79,"channel":5,"program":30},{"beat":269.52083,"duration":0.95833,"midi":57,"velocity":87,"channel":3,"program":27},{"beat":269.52083,"duration":0.45833,"midi":57,"velocity":86,"channel":12,"program":25},{"beat":269.52083,"duration":0.95833,"midi":61,"velocity":81,"channel":6,"program":29},{"beat":269.54167,"duration":0.4375,"midi":57,"velocity":79,"channel":4,"program":29},{"beat":269.54167,"duration":0.4375,"midi":57,"velocity":82,"channel":5,"program":30},{"beat":269.54167,"duration":0.9375,"midi":61,"velocity":84,"channel":3,"program":27},{"beat":269.54167,"duration":0.4375,"midi":61,"velocity":86,"channel":12,"program":25},{"beat":270.0,"duration":0.47917,"midi":33,"velocity":94,"channel":2,"program":33},{"beat":270.0,"duration":0.97917,"midi":45,"velocity":85,"channel":4,"program":29},{"beat":270.0,"duration":0.47917,"midi":45,"velocity":84,"channel":5,"program":30},{"beat":270.0,"duration":1.22917,"midi":61,"velocity":88,"channel":1,"program":52},{"beat":270.0,"duration":1.22917,"midi":64,"velocity":88,"channel":1,"program":52},{"beat":270.0,"duration":0.22917,"midi":69,"velocity":78,"channel":13,"program":81},{"beat":270.0,"duration":1.22917,"midi":85,"velocity":101,"channel":0,"program":22},{"beat":270.02083,"duration":0.95833,"midi":52,"velocity":88,"channel":4,"program":29},{"beat":270.02083,"duration":0.45833,"midi":52,"velocity":88,"channel":5,"program":30},{"beat":270.02083,"duration":0.45833,"midi":57,"velocity":88,"channel":12,"program":25},{"beat":270.04167,"duration":0.9375,"midi":57,"velocity":90,"channel":4,"program":29},{"beat":270.04167,"duration":0.4375,"midi":57,"velocity":85,"channel":5,"program":30},{"beat":270.04167,"duration":0.4375,"midi":61,"velocity":89,"channel":12,"program":25},{"beat":270.5,"duration":0.47917,"midi":33,"velocity":95,"channel":2,"program":33},{"beat":270.5,"duration":0.47917,"midi":45,"velocity":77,"channel":5,"program":30},{"beat":270.5,"duration":0.97917,"midi":52,"velocity":88,"channel":3,"program":27},{"beat":270.5,"duration":0.97917,"midi":52,"velocity":82,"channel":6,"program":29},{"beat":270.5,"duration":0.22917,"midi":69,"velocity":77,"channel":13,"program":81},{"beat":270.52083,"duration":0.45833,"midi":52,"velocity":79,"channel":5,"program":30},{"beat":270.52083,"duration":0.95833,"midi":57,"velocity":85,"channel":3,"program":27},{"beat":270.52083,"duration":0.95833,"midi":57,"velocity":88,"channel":12,"program":25},{"beat":270.52083,"duration":0.95833,"midi":61,"velocity":81,"channel":6,"program":29},{"beat":270.54167,"duration":0.4375,"midi":57,"velocity":80,"channel":5,"program":30},{"beat":270.54167,"duration":0.9375,"midi":61,"velocity":88,"channel":3,"program":27},{"beat":270.54167,"duration":0.9375,"midi":61,"velocity":90,"channel":12,"program":25},{"beat":271.0,"duration":0.47917,"midi":33,"velocity":103,"channel":2,"program":33},{"beat":271.0,"duration":0.47917,"midi":45,"velocity":89,"channel":4,"program":29},{"beat":271.0,"duration":0.47917,"midi":45,"velocity":86,"channel":5,"program":30},{"beat":271.0,"duration":0.22917,"midi":69,"velocity":86,"channel":13,"program":81},{"beat":271.02083,"duration":0.45833,"midi":52,"velocity":89,"channel":4,"program":29},{"beat":271.02083,"duration":0.45833,"midi":52,"velocity":89,"channel":5,"program":30},{"beat":271.04167,"duration":0.4375,"midi":57,"velocity":89,"channel":4,"program":29},{"beat":271.04167,"duration":0.4375,"midi":57,"velocity":90,"channel":5,"program":30},{"beat":271.5,"duration":0.22917,"midi":38,"velocity":84,"channel":2,"program":33},{"beat":271.5,"duration":0.22917,"midi":45,"velocity":77,"channel":4,"program":29},{"beat":271.5,"duration":0.22917,"midi":45,"velocity":80,"channel":5,"program":30},{"beat":271.5,"duration":0.22917,"midi":52,"velocity":80,"channel":3,"program":27},{"beat":271.5,"duration":0.22917,"midi":52,"velocity":82,"channel":6,"program":29},{"beat":271.5,"duration":1.97917,"midi":62,"velocity":90,"channel":1,"program":52},{"beat":271.5,"duration":1.97917,"midi":66,"velocity":88,"channel":1,"program":52},{"beat":271.5,"duration":0.22917,"midi":69,"velocity":75,"channel":13,"program":81},{"beat":271.5,"duration":1.97917,"midi":86,"velocity":100,"channel":0,"program":22},{"beat":271.52083,"duration":0.20833,"midi":52,"velocity":78,"channel":4,"program":29},{"beat":271.52083,"duration":0.20833,"midi":52,"velocity":77,"channel":5,"program":30},{"beat":271.52083,"duration":0.20833,"midi":57,"velocity":85,"channel":12,"program":25},{"beat":271.52083,"duration":0.20833,"midi":59,"velocity":77,"channel":3,"program":27},{"beat":271.52083,"duration":0.20833,"midi":61,"velocity":82,"channel":6,"program":29},{"beat":271.54167,"duration":0.1875,"midi":57,"velocity":82,"channel":4,"program":29},{"beat":271.54167,"duration":0.1875,"midi":57,"velocity":79,"channel":5,"program":30},{"beat":271.54167,"duration":0.1875,"midi":61,"velocity":84,"channel":12,"program":25},{"beat":271.75,"duration":0.22917,"midi":37,"velocity":78,"channel":2,"program":33},{"beat":271.75,"duration":0.22917,"midi":45,"velocity":78,"channel":4,"program":29},{"beat":271.75,"duration":0.22917,"midi":45,"velocity":77,"channel":5,"program":30},{"beat":271.75,"duration":0.22917,"midi":52,"velocity":86,"channel":3,"program":27},{"beat":271.75,"duration":0.22917,"midi":52,"velocity":87,"channel":6,"program":29},{"beat":271.77083,"duration":0.20833,"midi":52,"velocity":78,"channel":4,"program":29},{"beat":271.77083,"duration":0.20833,"midi":52,"velocity":76,"channel":5,"program":30},{"beat":271.77083,"duration":0.20833,"midi":57,"velocity":87,"channel":12,"program":25},{"beat":271.77083,"duration":0.20833,"midi":59,"velocity":89,"channel":3,"program":27},{"beat":271.77083,"duration":0.20833,"midi":61,"velocity":84,"channel":6,"program":29},{"beat":271.79167,"duration":0.1875,"midi":57,"velocity":78,"channel":5,"program":30},{"beat":271.79167,"duration":0.1875,"midi":61,"velocity":83,"channel":12,"program":25},{"beat":271.8125,"duration":0.16667,"midi":57,"velocity":78,"channel":4,"program":29},{"beat":272.0,"duration":0.47917,"midi":35,"velocity":70,"channel":2,"program":33},{"beat":272.0,"duration":0.97917,"midi":47,"velocity":84,"channel":4,"program":29},{"beat":272.0,"duration":0.97917,"midi":47,"velocity":88,"channel":5,"program":30},{"beat":272.0,"duration":0.47917,"midi":54,"velocity":70,"channel":2,"program":33},{"beat":272.0,"duration":0.97917,"midi":54,"velocity":89,"channel":3,"program":27},{"beat":272.0,"duration":0.97917,"midi":54,"velocity":89,"channel":6,"program":29},{"beat":272.0,"duration":0.22917,"midi":69,"velocity":82,"channel":13,"program":81},{"beat":272.0,"duration":3.97917,"midi":74,"velocity":84,"channel":7,"program":51},{"beat":272.0,"duration":3.97917,"midi":86,"velocity":78,"channel":7,"program":51},{"beat":272.02083,"duration":0.95833,"midi":54,"velocity":86,"channel":4,"program":29},{"beat":272.02083,"duration":0.95833,"midi":54,"velocity":87,"channel":5,"program":30},{"beat":272.02083,"duration":0.95833,"midi":57,"velocity":88,"channel":3,"program":27},{"beat":272.02083,"duration":0.95833,"midi":57,"velocity":90,"channel":6,"program":29},{"beat":272.02083,"duration":0.95833,"midi":57,"velocity":96,"channel":12,"program":25},{"beat":272.04167,"duration":0.9375,"midi":57,"velocity":64,"channel":4,"program":29},{"beat":272.04167,"duration":0.9375,"midi":57,"velocity":86,"channel":5,"program":30},{"beat":272.04167,"duration":0.9375,"midi":62,"velocity":84,"channel":3,"program":27},{"beat":272.04167,"duration":0.9375,"midi":62,"velocity":96,"channel":12,"program":25},{"beat":272.5,"duration":0.47917,"midi":35,"velocity":80,"channel":2,"program":33},{"beat":272.5,"duration":0.22917,"midi":69,"velocity":69,"channel":13,"program":81},{"beat":273.0,"duration":0.47917,"midi":35,"velocity":98,"channel":2,"program":33},{"beat":273.0,"duration":0.47917,"midi":47,"velocity":86,"channel":4,"program":29},{"beat":273.0,"duration":0.47917,"midi":47,"velocity":85,"channel":5,"program":30},{"beat":273.0,"duration":0.47917,"midi":54,"velocity":78,"channel":3,"program":27},{"beat":273.0,"duration":0.47917,"midi":54,"velocity":89,"channel":6,"program":29},{"beat":273.0,"duration":0.22917,"midi":69,"velocity":84,"channel":13,"program":81},{"beat":273.02083,"duration":0.45833,"midi":54,"velocity":84,"channel":4,"program":29},{"beat":273.02083,"duration":0.45833,"midi":54,"velocity":85,"channel":5,"program":30},{"beat":273.02083,"duration":0.45833,"midi":57,"velocity":80,"channel":3,"program":27},{"beat":273.02083,"duration":0.45833,"midi":57,"velocity":95,"channel":12,"program":25},{"beat":273.02083,"duration":0.45833,"midi":62,"velocity":90,"channel":6,"program":29},{"beat":273.04167,"duration":0.4375,"midi":57,"velocity":58,"channel":4,"program":29},{"beat":273.04167,"duration":0.4375,"midi":57,"velocity":86,"channel":5,"program":30},{"beat":273.04167,"duration":0.4375,"midi":62,"velocity":76,"channel":3,"program":27},{"beat":273.04167,"duration":0.4375,"midi":62,"velocity":95,"channel":12,"program":25},{"beat":273.5,"duration":0.47917,"midi":38,"velocity":98,"channel":2,"program":33},{"beat":273.5,"duration":0.97917,"midi":47,"velocity":85,"channel":4,"program":29},{"beat":273.5,"duration":0.47917,"midi":47,"velocity":82,"channel":5,"program":30},{"beat":273.5,"duration":0.97917,"midi":54,"velocity":89,"channel":3,"program":27},{"beat":273.5,"duration":0.97917,"midi":54,"velocity":75,"channel":6,"program":29},{"beat":273.5,"duration":0.22917,"midi":69,"velocity":71,"channel":13,"program":81},{"beat":273.52083,"duration":0.95833,"midi":54,"velocity":86,"channel":4,"program":29},{"beat":273.52083,"duration":0.45833,"midi":54,"velocity":81,"channel":5,"program":30},{"beat":273.52083,"duration":0.95833,"midi":57,"velocity":87,"channel":3,"program":27},{"beat":273.52083,"duration":0.95833,"midi":57,"velocity":74,"channel":6,"program":29},{"beat":273.52083,"duration":0.20833,"midi":57,"velocity":81,"channel":12,"program":25},{"beat":273.54167,"duration":0.9375,"midi":57,"velocity":62,"channel":4,"program":29},{"beat":273.54167,"duration":0.4375,"midi":57,"velocity":78,"channel":5,"program":30},{"beat":273.54167,"duration":0.9375,"midi":62,"velocity":88,"channel":3,"program":27},{"beat":273.54167,"duration":0.1875,"midi":62,"velocity":83,"channel":12,"program":25},{"beat":273.77083,"duration":0.20833,"midi":57,"velocity":89,"channel":12,"program":25},{"beat":273.79167,"duration":0.1875,"midi":62,"velocity":94,"channel":12,"program":25},{"beat":274.0,"duration":0.47917,"midi":42,"velocity":95,"channel":2,"program":33},{"beat":274.0,"duration":0.47917,"midi":47,"velocity":84,"channel":5,"program":30},{"beat":274.0,"duration":0.22917,"midi":69,"velocity":76,"channel":13,"program":81},{"beat":274.02083,"duration":0.45833,"midi":54,"velocity":85,"channel":5,"program":30},{"beat":274.02083,"duration":0.45833,"midi":57,"velocity":85,"channel":12,"program":25},{"beat":274.04167,"duration":0.4375,"midi":57,"velocity":88,"channel":5,"program":30},{"beat":274.04167,"duration":0.4375,"midi":62,"velocity":90,"channel":12,"program":25},{"beat":274.5,"duration":0.47917,"midi":42,"velocity":92,"channel":2,"program":33},{"beat":274.5,"duration":0.47917,"midi":47,"velocity":86,"channel":4,"program":29},{"beat":274.5,"duration":0.47917,"midi":47,"velocity":77,"channel":5,"program":30},{"beat":274.5,"duration":0.97917,"midi":54,"velocity":85,"channel":3,"program":27},{"beat":274.5,"duration":0.97917,"midi":54,"velocity":79,"channel":6,"program":29},{"beat":274.5,"duration":0.22917,"midi":69,"velocity":71,"channel":13,"program":81},{"beat":274.52083,"duration":0.45833,"midi":54,"velocity":88,"channel":4,"program":29},{"beat":274.52083,"duration":0.45833,"midi":54,"velocity":78,"channel":5,"program":30},{"beat":274.52083,"duration":0.95833,"midi":57,"velocity":90,"channel":3,"program":27},{"beat":274.52083,"duration":0.95833,"midi":57,"velocity":85,"channel":12,"program":25},{"beat":274.52083,"duration":0.95833,"midi":62,"velocity":76,"channel":6,"program":29},{"beat":274.54167,"duration":0.4375,"midi":57,"velocity":56,"channel":4,"program":29},{"beat":274.54167,"duration":0.4375,"midi":57,"velocity":82,"channel":5,"program":30},{"beat":274.54167,"duration":0.9375,"midi":62,"velocity":89,"channel":3,"program":27},{"beat":274.54167,"duration":0.9375,"midi":62,"velocity":83,"channel":12,"program":25},{"beat":275.0,"duration":0.47917,"midi":42,"velocity":95,"channel":2,"program":33},{"beat":275.0,"duration":0.47917,"midi":47,"velocity":89,"channel":4,"program":29},{"beat":275.0,"duration":0.47917,"midi":47,"velocity":86,"channel":5,"program":30},{"beat":275.0,"duration":0.47917,"midi":59,"velocity":90,"channel":1,"program":52},{"beat":275.0,"duration":0.22917,"midi":69,"velocity":80,"channel":13,"program":81},{"beat":275.0,"duration":0.47917,"midi":83,"velocity":102,"channel":0,"program":22},{"beat":275.0,"duration":0.47917,"midi":83,"velocity":86,"channel":7,"program":51},{"beat":275.02083,"duration":0.45833,"midi":54,"velocity":89,"channel":4,"program":29},{"beat":275.02083,"duration":0.45833,"midi":54,"velocity":90,"channel":5,"program":30},{"beat":275.04167,"duration":0.9375,"midi":57,"velocity":60,"channel":4,"program":29},{"beat":275.04167,"duration":0.4375,"midi":57,"velocity":86,"channel":5,"program":30},{"beat":275.5,"duration":0.47917,"midi":35,"velocity":94,"channel":2,"program":33},{"beat":275.5,"duration":0.22917,"midi":45,"velocity":81,"channel":4,"program":29},{"beat":275.5,"duration":0.22917,"midi":47,"velocity":79,"channel":5,"program":30},{"beat":275.5,"duration":0.47917,"midi":52,"velocity":75,"channel":6,"program":29},{"beat":275.5,"duration":0.22917,"midi":54,"velocity":80,"channel":3,"program":27},{"beat":275.5,"duration":1.22917,"midi":57,"velocity":88,"channel":1,"program":52},{"beat":275.5,"duration":0.22917,"midi":69,"velocity":71,"channel":13,"program":81},{"beat":275.5,"duration":1.22917,"midi":81,"velocity":100,"channel":0,"program":22},{"beat":275.5,"duration":0.97917,"midi":81,"velocity":88,"channel":7,"program":51},{"beat":275.52083,"duration":0.20833,"midi":52,"velocity":79,"channel":4,"program":29},{"beat":275.52083,"duration":0.20833,"midi":54,"velocity":77,"channel":5,"program":30},{"beat":275.52083,"duration":0.20833,"midi":57,"velocity":82,"channel":3,"program":27},{"beat":275.52083,"duration":0.45833,"midi":57,"velocity":74,"channel":6,"program":29},{"beat":275.52083,"duration":0.20833,"midi":57,"velocity":82,"channel":12,"program":25},{"beat":275.54167,"duration":0.1875,"midi":57,"velocity":76,"channel":5,"program":30},{"beat":275.54167,"duration":0.1875,"midi":62,"velocity":77,"channel":3,"program":27},{"beat":275.54167,"duration":0.1875,"midi":62,"velocity":81,"channel":12,"program":25},{"beat":275.75,"duration":0.22917,"midi":45,"velocity":79,"channel":4,"program":29},{"beat":275.75,"duration":0.22917,"midi":47,"velocity":82,"channel":5,"program":30},{"beat":275.77083,"duration":0.20833,"midi":52,"velocity":77,"channel":4,"program":29},{"beat":275.77083,"duration":0.20833,"midi":54,"velocity":81,"channel":3,"program":27},{"beat":275.77083,"duration":0.20833,"midi":54,"velocity":82,"channel":5,"program":30},{"beat":275.77083,"duration":0.20833,"midi":57,"velocity":82,"channel":12,"program":25},{"beat":275.79167,"duration":0.1875,"midi":57,"velocity":82,"channel":5,"program":30},{"beat":275.79167,"duration":0.1875,"midi":62,"velocity":76,"channel":3,"program":27},{"beat":275.79167,"duration":0.1875,"midi":62,"velocity":82,"channel":12,"program":25},{"beat":275.8125,"duration":0.16667,"midi":57,"velocity":80,"channel":3,"program":27},{"beat":276.0,"duration":0.47917,"midi":30,"velocity":99,"channel":2,"program":33},{"beat":276.0,"duration":0.97917,"midi":50,"velocity":85,"channel":3,"program":27},{"beat":276.0,"duration":0.97917,"midi":50,"velocity":87,"channel":4,"program":29},{"beat":276.0,"duration":0.97917,"midi":50,"velocity":90,"channel":5,"program":30},{"beat":276.0,"duration":0.97917,"midi":52,"velocity":84,"channel":6,"program":29},{"beat":276.0,"duration":0.97917,"midi":64,"velocity":80,"channel":14,"program":29},{"beat":276.0,"duration":0.22917,"midi":69,"velocity":65,"channel":13,"program":81},{"beat":276.0,"duration":1.97917,"midi":76,"velocity":90,"channel":7,"program":51},{"beat":276.0,"duration":1.97917,"midi":88,"velocity":88,"channel":7,"program":51},{"beat":276.02083,"duration":0.95833,"midi":54,"velocity":84,"channel":3,"program":27},{"beat":276.02083,"duration":0.95833,"midi":54,"velocity":84,"channel":5,"program":30},{"beat":276.02083,"duration":0.95833,"midi":54,"velocity":94,"channel":12,"program":25},{"beat":276.02083,"duration":0.95833,"midi":57,"velocity":86,"channel":4,"program":29},{"beat":276.02083,"duration":0.95833,"midi":57,"velocity":85,"channel":6,"program":29},{"beat":276.04167,"duration":0.9375,"midi":57,"velocity":86,"channel":3,"program":27},{"beat":276.04167,"duration":0.9375,"midi":57,"velocity":88,"channel":5,"program":30},{"beat":276.04167,"duration":0.9375,"midi":57,"velocity":95,"channel":12,"program":25},{"beat":276.5,"duration":0.47917,"midi":30,"velocity":98,"channel":2,"program":33},{"beat":276.5,"duration":0.22917,"midi":69,"velocity":70,"channel":13,"program":81},{"beat":277.0,"duration":0.47917,"midi":42,"velocity":96,"channel":2,"program":33},{"beat":277.0,"duration":0.47917,"midi":50,"velocity":87,"channel":3,"program":27},{"beat":277.0,"duration":0.47917,"midi":50,"velocity":86,"channel":4,"program":29},{"beat":277.0,"duration":0.47917,"midi":50,"velocity":87,"channel":5,"program":30},{"beat":277.0,"duration":0.47917,"midi":52,"velocity":94,"channel":6,"program":29},{"beat":277.0,"duration":0.47917,"midi":54,"velocity":90,"channel":1,"program":52},{"beat":277.0,"duration":0.97917,"midi":64,"velocity":80,"channel":14,"program":29},{"beat":277.0,"duration":0.22917,"midi":69,"velocity":83,"channel":13,"program":81},{"beat":277.0,"duration":0.47917,"midi":78,"velocity":100,"channel":0,"program":22},{"beat":277.02083,"duration":0.45833,"midi":54,"velocity":85,"channel":3,"program":27},{"beat":277.02083,"duration":0.45833,"midi":54,"velocity":86,"channel":5,"program":30},{"beat":277.02083,"duration":0.45833,"midi":54,"velocity":93,"channel":12,"program":25},{"beat":277.02083,"duration":0.45833,"midi":57,"velocity":81,"channel":4,"program":29},{"beat":277.02083,"duration":0.45833,"midi":57,"velocity":96,"channel":6,"program":29},{"beat":277.04167,"duration":0.4375,"midi":57,"velocity":84,"channel":3,"program":27},{"beat":277.04167,"duration":0.4375,"midi":57,"velocity":84,"channel":5,"program":30},{"beat":277.04167,"duration":0.4375,"midi":57,"velocity":97,"channel":12,"program":25},{"beat":277.5,"duration":0.22917,"midi":38,"velocity":84,"channel":2,"program":33},{"beat":277.5,"duration":0.97917,"midi":50,"velocity":88,"channel":3,"program":27},{"beat":277.5,"duration":0.97917,"midi":50,"velocity":88,"channel":4,"program":29},{"beat":277.5,"duration":0.47917,"midi":50,"velocity":80,"channel":5,"program":30},{"beat":277.5,"duration":1.3125,"midi":52,"velocity":89,"channel":1,"program":52},{"beat":277.5,"duration":0.47917,"midi":52,"velocity":82,"channel":6,"program":29},{"beat":277.5,"duration":0.22917,"midi":69,"velocity":73,"channel":13,"program":81},{"beat":277.5,"duration":1.3125,"midi":76,"velocity":102,"channel":0,"program":22},{"beat":277.52083,"duration":0.95833,"midi":54,"velocity":88,"channel":3,"program":27},{"beat":277.52083,"duration":0.45833,"midi":54,"velocity":80,"channel":5,"program":30},{"beat":277.52083,"duration":0.45833,"midi":54,"velocity":83,"channel":12,"program":25},{"beat":277.52083,"duration":0.95833,"midi":57,"velocity":89,"channel":4,"program":29},{"beat":277.52083,"duration":0.45833,"midi":57,"velocity":83,"channel":6,"program":29},{"beat":277.54167,"duration":0.9375,"midi":57,"velocity":85,"channel":3,"program":27},{"beat":277.54167,"duration":0.4375,"midi":57,"velocity":81,"channel":5,"program":30},{"beat":277.54167,"duration":0.4375,"midi":57,"velocity":85,"channel":12,"program":25},{"beat":277.75,"duration":0.22917,"midi":42,"velocity":81,"channel":2,"program":33},{"beat":278.0,"duration":0.47917,"midi":42,"velocity":95,"channel":2,"program":33},{"beat":278.0,"duration":0.47917,"midi":50,"velocity":84,"channel":5,"program":30},{"beat":278.0,"duration":0.47917,"midi":50,"velocity":82,"channel":6,"program":29},{"beat":278.0,"duration":1.97917,"midi":66,"velocity":80,"channel":14,"program":29},{"beat":278.0,"duration":0.22917,"midi":69,"velocity":78,"channel":13,"program":81},{"beat":278.0,"duration":1.97917,"midi":78,"velocity":84,"channel":7,"program":51},{"beat":278.0,"duration":1.97917,"midi":90,"velocity":89,"channel":7,"program":51},{"beat":278.02083,"duration":0.45833,"midi":54,"velocity":89,"channel":5,"program":30},{"beat":278.02083,"duration":0.45833,"midi":54,"velocity":87,"channel":12,"program":25},{"beat":278.02083,"duration":0.45833,"midi":57,"velocity":80,"channel":6,"program":29},{"beat":278.04167,"duration":0.4375,"midi":57,"velocity":87,"channel":5,"program":30},{"beat":278.04167,"duration":0.4375,"midi":57,"velocity":86,"channel":12,"program":25},{"beat":278.5,"duration":0.47917,"midi":42,"velocity":93,"channel":2,"program":33},{"beat":278.5,"duration":0.97917,"midi":50,"velocity":86,"channel":3,"program":27},{"beat":278.5,"duration":0.97917,"midi":50,"velocity":89,"channel":4,"program":29},{"beat":278.5,"duration":0.97917,"midi":50,"velocity":87,"channel":5,"program":30},{"beat":278.5,"duration":0.47917,"midi":54,"velocity":81,"channel":6,"program":29},{"beat":278.5,"duration":0.22917,"midi":69,"velocity":77,"channel":13,"program":81},{"beat":278.52083,"duration":0.95833,"midi":54,"velocity":85,"channel":3,"program":27},{"beat":278.52083,"duration":0.95833,"midi":54,"velocity":87,"channel":5,"program":30},{"beat":278.52083,"duration":0.95833,"midi":54,"velocity":88,"channel":12,"program":25},{"beat":278.52083,"duration":0.95833,"midi":57,"velocity":86,"channel":4,"program":29},{"beat":278.52083,"duration":0.45833,"midi":57,"velocity":80,"channel":6,"program":29},{"beat":278.54167,"duration":0.9375,"midi":57,"velocity":84,"channel":3,"program":27},{"beat":278.54167,"duration":0.9375,"midi":57,"velocity":76,"channel":5,"program":30},{"beat":278.54167,"duration":0.9375,"midi":57,"velocity":90,"channel":12,"program":25},{"beat":279.0,"duration":0.47917,"midi":40,"velocity":92,"channel":2,"program":33},{"beat":279.0,"duration":0.9375,"midi":50,"velocity":90,"channel":1,"program":52},{"beat":279.0,"duration":0.97917,"midi":54,"velocity":90,"channel":6,"program":29},{"beat":279.0,"duration":0.22917,"midi":69,"velocity":86,"channel":13,"program":81},{"beat":279.0,"duration":0.9375,"midi":74,"velocity":98,"channel":0,"program":22},{"beat":279.02083,"duration":0.95833,"midi":57,"velocity":90,"channel":6,"program":29},{"beat":279.5,"duration":0.47917,"midi":37,"velocity":70,"channel":2,"program":33},{"beat":279.5,"duration":0.22917,"midi":50,"velocity":77,"channel":3,"program":27},{"beat":279.5,"duration":0.22917,"midi":50,"velocity":82,"channel":4,"program":29},{"beat":279.5,"duration":0.22917,"midi":50,"velocity":77,"channel":5,"program":30},{"beat":279.5,"duration":0.22917,"midi":69,"velocity":75,"channel":13,"program":81},{"beat":279.52083,"duration":0.20833,"midi":54,"velocity":79,"channel":3,"program":27},{"beat":279.52083,"duration":0.20833,"midi":54,"velocity":87,"channel":12,"program":25},{"beat":279.52083,"duration":0.45833,"midi":55,"velocity":83,"channel":4,"program":29},{"beat":279.52083,"duration":0.20833,"midi":55,"velocity":82,"channel":5,"program":30},{"beat":279.54167,"duration":0.1875,"midi":57,"velocity":82,"channel":3,"program":27},{"beat":279.54167,"duration":0.1875,"midi":57,"velocity":88,"channel":12,"program":25},{"beat":279.75,"duration":0.22917,"midi":50,"velocity":79,"channel":3,"program":27},{"beat":279.75,"duration":0.22917,"midi":50,"velocity":83,"channel":4,"program":29},{"beat":279.75,"duration":0.22917,"midi":50,"velocity":76,"channel":5,"program":30},{"beat":279.77083,"duration":0.20833,"midi":54,"velocity":80,"channel":3,"program":27},{"beat":279.77083,"duration":0.20833,"midi":54,"velocity":88,"channel":12,"program":25},{"beat":279.77083,"duration":0.20833,"midi":55,"velocity":82,"channel":5,"program":30},{"beat":279.79167,"duration":0.1875,"midi":57,"velocity":78,"channel":3,"program":27},{"beat":279.79167,"duration":0.1875,"midi":57,"velocity":82,"channel":12,"program":25},{"beat":280.0,"duration":0.97917,"midi":31,"velocity":100,"channel":2,"program":33},{"beat":280.0,"duration":0.97917,"midi":43,"velocity":89,"channel":3,"program":27},{"beat":280.0,"duration":0.97917,"midi":43,"velocity":90,"channel":4,"program":29},{"beat":280.0,"duration":0.97917,"midi":43,"velocity":84,"channel":5,"program":30},{"beat":280.0,"duration":0.72917,"midi":50,"velocity":89,"channel":1,"program":52},{"beat":280.0,"duration":0.97917,"midi":50,"velocity":85,"channel":6,"program":29},{"beat":280.0,"duration":0.22917,"midi":69,"velocity":82,"channel":13,"program":81},{"beat":280.0,"duration":0.72917,"midi":74,"velocity":101,"channel":0,"program":22},{"beat":280.0,"duration":3.97917,"midi":74,"velocity":85,"channel":7,"program":51},{"beat":280.0,"duration":3.97917,"midi":86,"velocity":78,"channel":7,"program":51},{"beat":280.02083,"duration":0.95833,"midi":50,"velocity":84,"channel":3,"program":27},{"beat":280.02083,"duration":0.95833,"midi":50,"velocity":90,"channel":4,"program":29},{"beat":280.02083,"duration":0.95833,"midi":50,"velocity":89,"channel":5,"program":30},{"beat":280.02083,"duration":0.95833,"midi":55,"velocity":87,"channel":6,"program":29},{"beat":280.02083,"duration":0.95833,"midi":59,"velocity":94,"channel":12,"program":25},{"beat":280.04167,"duration":0.9375,"midi":55,"velocity":88,"channel":3,"program":27},{"beat":280.04167,"duration":0.9375,"midi":55,"velocity":89,"channel":4,"program":29},{"beat":280.04167,"duration":0.9375,"midi":57,"velocity":89,"channel":5,"program":30},{"beat":280.04167,"duration":0.9375,"midi":62,"velocity":94,"channel":12,"program":25},{"beat":280.5,"duration":0.22917,"midi":69,"velocity":69,"channel":13,"program":81},{"beat":281.0,"duration":0.47917,"midi":31,"velocity":102,"channel":2,"program":33},{"beat":281.0,"duration":0.47917,"midi":43,"velocity":89,"channel":3,"program":27},{"beat":281.0,"duration":0.47917,"midi":43,"velocity":88,"channel":4,"program":29},{"beat":281.0,"duration":0.47917,"midi":43,"velocity":85,"channel":5,"program":30},{"beat":281.0,"duration":0.47917,"midi":50,"velocity":91,"channel":6,"program":29},{"beat":281.0,"duration":0.97917,"midi":52,"velocity":87,"channel":1,"program":52},{"beat":281.0,"duration":0.22917,"midi":69,"velocity":84,"channel":13,"program":81},{"beat":281.0,"duration":0.97917,"midi":76,"velocity":102,"channel":0,"program":22},{"beat":281.02083,"duration":0.45833,"midi":50,"velocity":90,"channel":3,"program":27},{"beat":281.02083,"duration":0.45833,"midi":50,"velocity":83,"channel":4,"program":29},{"beat":281.02083,"duration":0.45833,"midi":50,"velocity":78,"channel":5,"program":30},{"beat":281.02083,"duration":0.45833,"midi":57,"velocity":93,"channel":6,"program":29},{"beat":281.02083,"duration":0.45833,"midi":59,"velocity":97,"channel":12,"program":25},{"beat":281.02083,"duration":0.45833,"midi":66,"velocity":71,"channel":3,"program":27},{"beat":281.02083,"duration":0.95833,"midi":66,"velocity":54,"channel":6,"program":29},{"beat":281.04167,"duration":0.4375,"midi":55,"velocity":79,"channel":4,"program":29},{"beat":281.04167,"duration":0.4375,"midi":57,"velocity":88,"channel":3,"program":27},{"beat":281.04167,"duration":0.4375,"midi":57,"velocity":78,"channel":5,"program":30},{"beat":281.04167,"duration":0.4375,"midi":62,"velocity":93,"channel":12,"program":25},{"beat":281.5,"duration":0.47917,"midi":31,"velocity":91,"channel":2,"program":33},{"beat":281.5,"duration":0.97917,"midi":43,"velocity":84,"channel":3,"program":27},{"beat":281.5,"duration":0.97917,"midi":43,"velocity":84,"channel":4,"program":29},{"beat":281.5,"duration":0.97917,"midi":43,"velocity":90,"channel":5,"program":30},{"beat":281.5,"duration":0.97917,"midi":50,"velocity":83,"channel":6,"program":29},{"beat":281.5,"duration":0.22917,"midi":69,"velocity":71,"channel":13,"program":81},{"beat":281.52083,"duration":0.95833,"midi":50,"velocity":87,"channel":3,"program":27},{"beat":281.52083,"duration":0.95833,"midi":50,"velocity":84,"channel":4,"program":29},{"beat":281.52083,"duration":0.95833,"midi":50,"velocity":86,"channel":5,"program":30},{"beat":281.52083,"duration":0.95833,"midi":55,"velocity":83,"channel":6,"program":29},{"beat":281.52083,"duration":0.95833,"midi":59,"velocity":79,"channel":12,"program":25},{"beat":281.52083,"duration":0.45833,"midi":66,"velocity":62,"channel":3,"program":27},{"beat":281.54167,"duration":0.9375,"midi":55,"velocity":90,"channel":3,"program":27},{"beat":281.54167,"duration":0.9375,"midi":55,"velocity":86,"channel":4,"program":29},{"beat":281.54167,"duration":0.9375,"midi":57,"velocity":86,"channel":5,"program":30},{"beat":281.54167,"duration":0.9375,"midi":62,"velocity":82,"channel":12,"program":25},{"beat":282.0,"duration":0.47917,"midi":31,"velocity":96,"channel":2,"program":33},{"beat":282.0,"duration":0.89583,"midi":54,"velocity":90,"channel":1,"program":52},{"beat":282.0,"duration":0.22917,"midi":69,"velocity":76,"channel":13,"program":81},{"beat":282.0,"duration":0.89583,"midi":78,"velocity":100,"channel":0,"program":22},{"beat":282.5,"duration":0.97917,"midi":31,"velocity":88,"channel":2,"program":33},{"beat":282.5,"duration":0.47917,"midi":43,"velocity":90,"channel":3,"program":27},{"beat":282.5,"duration":0.47917,"midi":43,"velocity":85,"channel":4,"program":29},{"beat":282.5,"duration":0.97917,"midi":43,"velocity":90,"channel":5,"program":30},{"beat":282.5,"duration":0.97917,"midi":50,"velocity":88,"channel":6,"program":29},{"beat":282.5,"duration":0.97917,"midi":57,"velocity":82,"channel":12,"program":25},{"beat":282.5,"duration":0.22917,"midi":69,"velocity":71,"channel":13,"program":81},{"beat":282.52083,"duration":0.95833,"midi":50,"velocity":89,"channel":3,"program":27},{"beat":282.52083,"duration":0.95833,"midi":50,"velocity":89,"channel":4,"program":29},{"beat":282.52083,"duration":0.95833,"midi":50,"velocity":89,"channel":5,"program":30},{"beat":282.52083,"duration":0.70833,"midi":57,"velocity":85,"channel":6,"program":29},{"beat":282.52083,"duration":0.95833,"midi":62,"velocity":82,"channel":12,"program":25},{"beat":282.52083,"duration":0.45833,"midi":66,"velocity":66,"channel":3,"program":27},{"beat":282.52083,"duration":0.45833,"midi":66,"velocity":67,"channel":6,"program":29},{"beat":282.54167,"duration":0.9375,"midi":57,"velocity":87,"channel":3,"program":27},{"beat":282.54167,"duration":1.4375,"midi":57,"velocity":89,"channel":4,"program":29},{"beat":282.54167,"duration":1.4375,"midi":57,"velocity":88,"channel":5,"program":30},{"beat":283.0,"duration":0.97917,"midi":43,"velocity":89,"channel":3,"program":27},{"beat":283.0,"duration":0.47917,"midi":43,"velocity":82,"channel":4,"program":29},{"beat":283.0,"duration":0.97917,"midi":55,"velocity":90,"channel":1,"program":52},{"beat":283.0,"duration":0.22917,"midi":69,"velocity":80,"channel":13,"program":81},{"beat":283.0,"duration":0.97917,"midi":79,"velocity":102,"channel":0,"program":22},{"beat":283.02083,"duration":0.95833,"midi":66,"velocity":59,"channel":3,"program":27},{"beat":283.02083,"duration":0.95833,"midi":66,"velocity":58,"channel":6,"program":29},{"beat":283.5,"duration":0.47917,"midi":31,"velocity":90,"channel":2,"program":33},{"beat":283.5,"duration":0.22917,"midi":43,"velocity":78,"channel":4,"program":29},{"beat":283.5,"duration":0.22917,"midi":43,"velocity":80,"channel":5,"program":30},{"beat":283.5,"duration":0.22917,"midi":52,"velocity":87,"channel":6,"program":29},{"beat":283.5,"duration":0.22917,"midi":57,"velocity":81,"channel":12,"program":25},{"beat":283.5,"duration":0.22917,"midi":69,"velocity":71,"channel":13,"program":81},{"beat":283.52083,"duration":0.20833,"midi":50,"velocity":79,"channel":3,"program":27},{"beat":283.52083,"duration":0.20833,"midi":50,"velocity":77,"channel":4,"program":29},{"beat":283.52083,"duration":0.20833,"midi":50,"velocity":76,"channel":5,"program":30},{"beat":283.52083,"duration":0.20833,"midi":57,"velocity":80,"channel":3,"program":27},{"beat":283.52083,"duration":0.20833,"midi":57,"velocity":85,"channel":6,"program":29},{"beat":283.52083,"duration":0.20833,"midi":62,"velocity":81,"channel":12,"program":25},{"beat":283.75,"duration":0.22917,"midi":43,"velocity":80,"channel":4,"program":29},{"beat":283.75,"duration":0.22917,"midi":43,"velocity":80,"channel":5,"program":30},{"beat":283.75,"duration":0.22917,"midi":52,"velocity":84,"channel":6,"program":29},{"beat":283.75,"duration":0.22917,"midi":57,"velocity":83,"channel":12,"program":25},{"beat":283.77083,"duration":0.20833,"midi":50,"velocity":79,"channel":3,"program":27},{"beat":283.77083,"duration":0.20833,"midi":50,"velocity":77,"channel":4,"program":29},{"beat":283.77083,"duration":0.20833,"midi":50,"velocity":77,"channel":5,"program":30},{"beat":283.77083,"duration":0.20833,"midi":57,"velocity":79,"channel":3,"program":27},{"beat":283.77083,"duration":0.20833,"midi":57,"velocity":84,"channel":6,"program":29},{"beat":283.77083,"duration":0.20833,"midi":62,"velocity":86,"channel":12,"program":25},{"beat":284.0,"duration":0.47917,"midi":33,"velocity":81,"channel":2,"program":33},{"beat":284.0,"duration":0.97917,"midi":45,"velocity":84,"channel":3,"program":27},{"beat":284.0,"duration":1.47917,"midi":45,"velocity":90,"channel":4,"program":29},{"beat":284.0,"duration":0.97917,"midi":45,"velocity":89,"channel":5,"program":30},{"beat":284.0,"duration":0.97917,"midi":52,"velocity":90,"channel":6,"program":29},{"beat":284.0,"duration":0.97917,"midi":54,"velocity":88,"channel":1,"program":52},{"beat":284.0,"duration":0.22917,"midi":69,"velocity":65,"channel":13,"program":81},{"beat":284.0,"duration":3.97917,"midi":73,"velocity":89,"channel":7,"program":51},{"beat":284.0,"duration":0.97917,"midi":78,"velocity":101,"channel":0,"program":22},{"beat":284.0,"duration":3.97917,"midi":85,"velocity":76,"channel":7,"program":51},{"beat":284.02083,"duration":0.95833,"midi":52,"velocity":90,"channel":3,"program":27},{"beat":284.02083,"duration":1.45833,"midi":52,"velocity":86,"channel":4,"program":29},{"beat":284.02083,"duration":0.95833,"midi":52,"velocity":89,"channel":5,"program":30},{"beat":284.02083,"duration":0.95833,"midi":57,"velocity":85,"channel":3,"program":27},{"beat":284.02083,"duration":0.95833,"midi":57,"velocity":97,"channel":12,"program":25},{"beat":284.02083,"duration":0.95833,"midi":61,"velocity":84,"channel":6,"program":29},{"beat":284.04167,"duration":1.4375,"midi":57,"velocity":87,"channel":4,"program":29},{"beat":284.04167,"duration":0.9375,"midi":57,"velocity":85,"channel":5,"program":30},{"beat":284.04167,"duration":0.9375,"midi":61,"velocity":69,"channel":3,"program":27},{"beat":284.04167,"duration":0.9375,"midi":61,"velocity":96,"channel":12,"program":25},{"beat":284.5,"duration":0.47917,"midi":33,"velocity":86,"channel":2,"program":33},{"beat":284.5,"duration":0.22917,"midi":69,"velocity":70,"channel":13,"program":81},{"beat":285.0,"duration":0.47917,"midi":33,"velocity":103,"channel":2,"program":33},{"beat":285.0,"duration":0.47917,"midi":45,"velocity":89,"channel":3,"program":27},{"beat":285.0,"duration":0.47917,"midi":45,"velocity":89,"channel":5,"program":30},{"beat":285.0,"duration":0.64583,"midi":52,"velocity":89,"channel":1,"program":52},{"beat":285.0,"duration":0.47917,"midi":52,"velocity":92,"channel":6,"program":29},{"beat":285.0,"duration":0.47917,"midi":61,"velocity":96,"channel":6,"program":29},{"beat":285.0,"duration":0.22917,"midi":69,"velocity":83,"channel":13,"program":81},{"beat":285.0,"duration":0.64583,"midi":76,"velocity":102,"channel":0,"program":22},{"beat":285.02083,"duration":0.45833,"midi":52,"velocity":89,"channel":3,"program":27},{"beat":285.02083,"duration":0.45833,"midi":52,"velocity":90,"channel":5,"program":30},{"beat":285.02083,"duration":0.45833,"midi":57,"velocity":89,"channel":3,"program":27},{"beat":285.02083,"duration":0.45833,"midi":57,"velocity":94,"channel":12,"program":25},{"beat":285.02083,"duration":0.95833,"midi":64,"velocity":61,"channel":6,"program":29},{"beat":285.04167,"duration":0.4375,"midi":57,"velocity":79,"channel":5,"program":30},{"beat":285.04167,"duration":0.4375,"midi":61,"velocity":91,"channel":12,"program":25},{"beat":285.04167,"duration":0.4375,"midi":64,"velocity":56,"channel":3,"program":27},{"beat":285.5,"duration":0.47917,"midi":37,"velocity":80,"channel":2,"program":33},{"beat":285.5,"duration":0.47917,"midi":45,"velocity":76,"channel":3,"program":27},{"beat":285.5,"duration":1.47917,"midi":45,"velocity":85,"channel":4,"program":29},{"beat":285.5,"duration":0.97917,"midi":45,"velocity":90,"channel":5,"program":30},{"beat":285.5,"duration":0.47917,"midi":52,"velocity":80,"channel":6,"program":29},{"beat":285.5,"duration":0.97917,"midi":61,"velocity":82,"channel":6,"program":29},{"beat":285.5,"duration":0.22917,"midi":69,"velocity":73,"channel":13,"program":81},{"beat":285.52083,"duration":0.45833,"midi":52,"velocity":79,"channel":3,"program":27},{"beat":285.52083,"duration":1.45833,"midi":52,"velocity":88,"channel":4,"program":29},{"beat":285.52083,"duration":0.95833,"midi":52,"velocity":88,"channel":5,"program":30},{"beat":285.52083,"duration":0.45833,"midi":57,"velocity":77,"channel":3,"program":27},{"beat":285.52083,"duration":0.95833,"midi":57,"velocity":85,"channel":12,"program":25},{"beat":285.54167,"duration":1.4375,"midi":57,"velocity":84,"channel":4,"program":29},{"beat":285.54167,"duration":0.9375,"midi":57,"velocity":78,"channel":5,"program":30},{"beat":285.54167,"duration":0.4375,"midi":61,"velocity":52,"channel":3,"program":27},{"beat":285.54167,"duration":0.9375,"midi":61,"velocity":87,"channel":12,"program":25},{"beat":286.0,"duration":0.47917,"midi":45,"velocity":99,"channel":2,"program":33},{"beat":286.0,"duration":0.47917,"midi":45,"velocity":86,"channel":3,"program":27},{"beat":286.0,"duration":0.47917,"midi":50,"velocity":88,"channel":1,"program":52},{"beat":286.0,"duration":0.47917,"midi":52,"velocity":87,"channel":6,"program":29},{"beat":286.0,"duration":0.22917,"midi":69,"velocity":78,"channel":13,"program":81},{"beat":286.0,"duration":0.47917,"midi":74,"velocity":101,"channel":0,"program":22},{"beat":286.02083,"duration":0.45833,"midi":52,"velocity":90,"channel":3,"program":27},{"beat":286.02083,"duration":0.45833,"midi":57,"velocity":86,"channel":3,"program":27},{"beat":286.04167,"duration":0.4375,"midi":61,"velocity":59,"channel":3,"program":27},{"beat":286.5,"duration":0.47917,"midi":45,"velocity":87,"channel":2,"program":33},{"beat":286.5,"duration":0.97917,"midi":45,"velocity":89,"channel":3,"program":27},{"beat":286.5,"duration":0.97917,"midi":45,"velocity":85,"channel":5,"program":30},{"beat":286.5,"duration":0.47917,"midi":49,"velocity":89,"channel":1,"program":52},{"beat":286.5,"duration":0.97917,"midi":52,"velocity":83,"channel":6,"program":29},{"beat":286.5,"duration":0.97917,"midi":61,"velocity":81,"channel":6,"program":29},{"beat":286.5,"duration":0.22917,"midi":69,"velocity":77,"channel":13,"program":81},{"beat":286.5,"duration":0.47917,"midi":73,"velocity":102,"channel":0,"program":22},{"beat":286.52083,"duration":0.95833,"midi":52,"velocity":88,"channel":3,"program":27},{"beat":286.52083,"duration":0.95833,"midi":52,"velocity":86,"channel":5,"program":30},{"beat":286.52083,"duration":0.95833,"midi":57,"velocity":85,"channel":3,"program":27},{"beat":286.52083,"duration":0.95833,"midi":57,"velocity":92,"channel":12,"program":25},{"beat":286.52083,"duration":0.95833,"midi":64,"velocity":64,"channel":6,"program":29},{"beat":286.54167,"duration":0.9375,"midi":57,"velocity":82,"channel":5,"program":30},{"beat":286.54167,"duration":0.9375,"midi":61,"velocity":88,"channel":12,"program":25},{"beat":286.54167,"duration":0.9375,"midi":64,"velocity":72,"channel":3,"program":27},{"beat":287.0,"duration":0.97917,"midi":45,"velocity":86,"channel":2,"program":33},{"beat":287.0,"duration":0.97917,"midi":45,"velocity":83,"channel":4,"program":29},{"beat":287.0,"duration":1.22917,"midi":50,"velocity":89,"channel":1,"program":52},{"beat":287.0,"duration":0.22917,"midi":69,"velocity":86,"channel":13,"program":81},{"beat":287.0,"duration":2.97917,"midi":74,"velocity":101,"channel":0,"program":22},{"beat":287.02083,"duration":0.45833,"midi":52,"velocity":82,"channel":4,"program":29},{"beat":287.04167,"duration":0.4375,"midi":57,"velocity":80,"channel":4,"program":29},{"beat":287.5,"duration":0.22917,"midi":45,"velocity":85,"channel":5,"program":30},{"beat":287.5,"duration":0.22917,"midi":50,"velocity":78,"channel":3,"program":27},{"beat":287.5,"duration":0.47917,"midi":50,"velocity":78,"channel":4,"program":29},{"beat":287.5,"duration":0.22917,"midi":50,"velocity":79,"channel":6,"program":29},{"beat":287.5,"duration":0.22917,"midi":57,"velocity":80,"channel":6,"program":29},{"beat":287.5,"duration":0.22917,"midi":69,"velocity":75,"channel":13,"program":81},{"beat":287.52083,"duration":0.20833,"midi":52,"velocity":77,"channel":5,"program":30},{"beat":287.52083,"duration":0.20833,"midi":57,"velocity":76,"channel":3,"program":27},{"beat":287.52083,"duration":0.45833,"midi":57,"velocity":77,"channel":4,"program":29},{"beat":287.52083,"duration":0.20833,"midi":57,"velocity":88,"channel":12,"program":25},{"beat":287.52083,"duration":0.45833,"midi":62,"velocity":67,"channel":6,"program":29},{"beat":287.54167,"duration":0.1875,"midi":57,"velocity":77,"channel":5,"program":30},{"beat":287.54167,"duration":0.1875,"midi":61,"velocity":87,"channel":12,"program":25},{"beat":287.54167,"duration":0.1875,"midi":62,"velocity":73,"channel":3,"program":27},{"beat":287.75,"duration":0.22917,"midi":45,"velocity":85,"channel":5,"program":30},{"beat":287.75,"duration":0.22917,"midi":50,"velocity":77,"channel":3,"program":27},{"beat":287.75,"duration":0.22917,"midi":50,"velocity":83,"channel":6,"program":29},{"beat":287.75,"duration":0.22917,"midi":57,"velocity":70,"channel":6,"program":29},{"beat":287.77083,"duration":0.20833,"midi":52,"velocity":78,"channel":5,"program":30},{"beat":287.77083,"duration":0.20833,"midi":57,"velocity":79,"channel":3,"program":27},{"beat":287.77083,"duration":0.20833,"midi":57,"velocity":85,"channel":12,"program":25},{"beat":287.79167,"duration":0.1875,"midi":57,"velocity":76,"channel":5,"program":30},{"beat":287.79167,"duration":0.1875,"midi":61,"velocity":83,"channel":12,"program":25},{"beat":287.79167,"duration":0.1875,"midi":62,"velocity":73,"channel":3,"program":27},{"beat":288.0,"duration":0.47917,"midi":38,"velocity":99,"channel":2,"program":33},{"beat":288.0,"duration":0.47917,"midi":50,"velocity":85,"channel":3,"program":27},{"beat":288.0,"duration":0.97917,"midi":50,"velocity":90,"channel":5,"program":30},{"beat":288.0,"duration":0.97917,"midi":50,"velocity":86,"channel":6,"program":29},{"beat":288.0,"duration":0.22917,"midi":69,"velocity":82,"channel":13,"program":81},{"beat":288.0,"duration":3.97917,"midi":74,"velocity":86,"channel":7,"program":51},{"beat":288.0,"duration":3.97917,"midi":86,"velocity":74,"channel":7,"program":51},{"beat":288.02083,"duration":0.95833,"midi":50,"velocity":84,"channel":4,"program":29},{"beat":288.02083,"duration":0.95833,"midi":57,"velocity":90,"channel":3,"program":27},{"beat":288.02083,"duration":0.95833,"midi":57,"velocity":90,"channel":4,"program":29},{"beat":288.02083,"duration":0.95833,"midi":57,"velocity":86,"channel":5,"program":30},{"beat":288.02083,"duration":0.95833,"midi":57,"velocity":89,"channel":6,"program":29},{"beat":288.02083,"duration":0.95833,"midi":57,"velocity":97,"channel":12,"program":25},{"beat":288.04167,"duration":0.9375,"midi":62,"velocity":88,"channel":3,"program":27},{"beat":288.04167,"duration":0.9375,"midi":62,"velocity":91,"channel":12,"program":25},{"beat":288.5,"duration":0.47917,"midi":38,"velocity":86,"channel":2,"program":33},{"beat":288.5,"duration":0.97917,"midi":50,"velocity":88,"channel":3,"program":27},{"beat":288.5,"duration":0.47917,"midi":62,"velocity":80,"channel":6,"program":29},{"beat":288.5,"duration":0.22917,"midi":69,"velocity":69,"channel":13,"program":81},{"beat":289.0,"duration":0.47917,"midi":38,"velocity":102,"channel":2,"program":33},{"beat":289.0,"duration":0.47917,"midi":50,"velocity":89,"channel":5,"program":30},{"beat":289.0,"duration":0.47917,"midi":50,"velocity":95,"channel":6,"program":29},{"beat":289.0,"duration":0.22917,"midi":69,"velocity":84,"channel":13,"program":81},{"beat":289.02083,"duration":1.45833,"midi":50,"velocity":90,"channel":4,"program":29},{"beat":289.02083,"duration":1.45833,"midi":57,"velocity":86,"channel":4,"program":29},{"beat":289.02083,"duration":0.45833,"midi":57,"velocity":85,"channel":5,"program":30},{"beat":289.02083,"duration":0.45833,"midi":57,"velocity":91,"channel":12,"program":25},{"beat":289.02083,"duration":0.45833,"midi":59,"velocity":87,"channel":3,"program":27},{"beat":289.02083,"duration":0.95833,"midi":59,"velocity":80,"channel":6,"program":29},{"beat":289.04167,"duration":0.4375,"midi":62,"velocity":94,"channel":12,"program":25},{"beat":289.5,"duration":0.47917,"midi":38,"velocity":89,"channel":2,"program":33},{"beat":289.5,"duration":0.97917,"midi":50,"velocity":86,"channel":3,"program":27},{"beat":289.5,"duration":0.97917,"midi":50,"velocity":90,"channel":5,"program":30},{"beat":289.5,"duration":0.97917,"midi":50,"velocity":83,"channel":6,"program":29},{"beat":289.5,"duration":0.97917,"midi":64,"velocity":80,"channel":6,"program":29},{"beat":289.5,"duration":0.22917,"midi":69,"velocity":71,"channel":13,"program":81},{"beat":289.52083,"duration":0.95833,"midi":57,"velocity":89,"channel":3,"program":27},{"beat":289.52083,"duration":0.95833,"midi":57,"velocity":90,"channel":5,"program":30},{"beat":289.52083,"duration":0.95833,"midi":57,"velocity":83,"channel":12,"program":25},{"beat":289.54167,"duration":0.9375,"midi":62,"velocity":85,"channel":12,"program":25},{"beat":289.54167,"duration":0.9375,"midi":64,"velocity":90,"channel":3,"program":27},{"beat":290.0,"duration":0.47917,"midi":50,"velocity":95,"channel":2,"program":33},{"beat":290.0,"duration":0.22917,"midi":69,"velocity":76,"channel":13,"program":81},{"beat":290.5,"duration":0.47917,"midi":38,"velocity":85,"channel":2,"program":33},{"beat":290.5,"duration":0.97917,"midi":50,"velocity":76,"channel":3,"program":27},{"beat":290.5,"duration":0.47917,"midi":50,"velocity":86,"channel":5,"program":30},{"beat":290.5,"duration":0.47917,"midi":50,"velocity":89,"channel":6,"program":29},{"beat":290.5,"duration":0.97917,"midi":62,"velocity":58,"channel":6,"program":29},{"beat":290.5,"duration":0.22917,"midi":69,"velocity":71,"channel":13,"program":81},{"beat":290.52083,"duration":0.95833,"midi":50,"velocity":88,"channel":4,"program":29},{"beat":290.52083,"duration":0.95833,"midi":57,"velocity":76,"channel":3,"program":27},{"beat":290.52083,"duration":0.95833,"midi":57,"velocity":89,"channel":4,"program":29},{"beat":290.52083,"duration":0.45833,"midi":57,"velocity":84,"channel":5,"program":30},{"beat":290.52083,"duration":0.45833,"midi":57,"velocity":88,"channel":6,"program":29},{"beat":290.52083,"duration":0.95833,"midi":57,"velocity":83,"channel":12,"program":25},{"beat":290.54167,"duration":0.9375,"midi":62,"velocity":88,"channel":3,"program":27},{"beat":290.54167,"duration":0.9375,"midi":62,"velocity":81,"channel":12,"program":25},{"beat":291.0,"duration":0.47917,"midi":50,"velocity":89,"channel":2,"program":33},{"beat":291.0,"duration":0.47917,"midi":50,"velocity":85,"channel":5,"program":30},{"beat":291.0,"duration":0.97917,"midi":50,"velocity":95,"channel":6,"program":29},{"beat":291.0,"duration":0.22917,"midi":69,"velocity":80,"channel":13,"program":81},{"beat":291.02083,"duration":0.45833,"midi":57,"velocity":88,"channel":5,"program":30},{"beat":291.02083,"duration":0.95833,"midi":57,"velocity":94,"channel":6,"program":29},{"beat":291.5,"duration":0.47917,"midi":45,"velocity":71,"channel":2,"program":33},{"beat":291.5,"duration":0.97917,"midi":50,"velocity":84,"channel":3,"program":27},{"beat":291.5,"duration":0.22917,"midi":50,"velocity":84,"channel":5,"program":30},{"beat":291.5,"duration":0.97917,"midi":64,"velocity":80,"channel":6,"program":29},{"beat":291.5,"duration":0.22917,"midi":69,"velocity":71,"channel":13,"program":81},{"beat":291.52083,"duration":0.20833,"midi":50,"velocity":77,"channel":4,"program":29},{"beat":291.52083,"duration":0.95833,"midi":57,"velocity":89,"channel":3,"program":27},{"beat":291.52083,"duration":0.20833,"midi":57,"velocity":82,"channel":4,"program":29},{"beat":291.52083,"duration":0.20833,"midi":57,"velocity":87,"channel":5,"program":30},{"beat":291.52083,"duration":0.20833,"midi":57,"velocity":79,"channel":12,"program":25},{"beat":291.54167,"duration":0.1875,"midi":62,"velocity":78,"channel":12,"program":25},{"beat":291.54167,"duration":0.9375,"midi":64,"velocity":84,"channel":3,"program":27},{"beat":291.75,"duration":0.22917,"midi":50,"velocity":76,"channel":5,"program":30},{"beat":291.77083,"duration":0.20833,"midi":50,"velocity":82,"channel":4,"program":29},{"beat":291.77083,"duration":0.20833,"midi":57,"velocity":83,"channel":4,"program":29},{"beat":291.77083,"duration":0.20833,"midi":57,"velocity":79,"channel":5,"program":30},{"beat":291.77083,"duration":0.20833,"midi":57,"velocity":83,"channel":12,"program":25},{"beat":291.79167,"duration":0.1875,"midi":62,"velocity":84,"channel":12,"program":25},{"beat":292.0,"duration":0.47917,"midi":50,"velocity":102,"channel":2,"program":33},{"beat":292.0,"duration":0.47917,"midi":50,"velocity":87,"channel":5,"program":30},{"beat":292.0,"duration":0.47917,"midi":50,"velocity":93,"channel":6,"program":29},{"beat":292.0,"duration":1.97917,"midi":64,"velocity":80,"channel":7,"program":51},{"beat":292.0,"duration":0.22917,"midi":69,"velocity":65,"channel":13,"program":81},{"beat":292.0,"duration":1.97917,"midi":83,"velocity":90,"channel":7,"program":51},{"beat":292.0,"duration":1.97917,"midi":95,"velocity":70,"channel":7,"program":51},{"beat":292.02083,"duration":0.45833,"midi":50,"velocity":86,"channel":4,"program":29},{"beat":292.02083,"duration":0.45833,"midi":57,"velocity":86,"channel":4,"program":29},{"beat":292.02083,"duration":0.45833,"midi":57,"velocity":84,"channel":5,"program":30},{"beat":292.02083,"duration":0.45833,"midi":57,"velocity":93,"channel":6,"program":29},{"beat":292.02083,"duration":0.45833,"midi":57,"velocity":72,"channel":12,"program":25},{"beat":292.04167,"duration":0.4375,"midi":62,"velocity":75,"channel":12,"program":25},{"beat":292.5,"duration":0.47917,"midi":50,"velocity":85,"channel":2,"program":33},{"beat":292.5,"duration":0.97917,"midi":50,"velocity":82,"channel":3,"program":27},{"beat":292.5,"duration":0.47917,"midi":50,"velocity":88,"channel":5,"program":30},{"beat":292.5,"duration":0.47917,"midi":50,"velocity":80,"channel":6,"program":29},{"beat":292.5,"duration":0.97917,"midi":62,"velocity":61,"channel":6,"program":29},{"beat":292.5,"duration":0.22917,"midi":69,"velocity":70,"channel":13,"program":81},{"beat":292.52083,"duration":0.45833,"midi":50,"velocity":86,"channel":4,"program":29},{"beat":292.52083,"duration":0.95833,"midi":57,"velocity":80,"channel":3,"program":27},{"beat":292.52083,"duration":0.45833,"midi":57,"velocity":80,"channel":4,"program":29},{"beat":292.52083,"duration":0.45833,"midi":57,"velocity":90,"channel":5,"program":30},{"beat":292.52083,"duration":1.45833,"midi":57,"velocity":79,"channel":6,"program":29},{"beat":292.52083,"duration":0.95833,"midi":57,"velocity":81,"channel":12,"program":25},{"beat":292.54167,"duration":0.9375,"midi":62,"velocity":87,"channel":3,"program":27},{"beat":292.54167,"duration":1.4375,"midi":62,"velocity":70,"channel":4,"program":29},{"beat":292.54167,"duration":0.9375,"midi":62,"velocity":81,"channel":12,"program":25},{"beat":293.0,"duration":0.47917,"midi":50,"velocity":102,"channel":2,"program":33},{"beat":293.0,"duration":0.97917,"midi":50,"velocity":85,"channel":5,"program":30},{"beat":293.0,"duration":0.97917,"midi":50,"velocity":92,"channel":6,"program":29},{"beat":293.0,"duration":0.22917,"midi":69,"velocity":83,"channel":13,"program":81},{"beat":293.02083,"duration":0.95833,"midi":50,"velocity":85,"channel":4,"program":29},{"beat":293.02083,"duration":0.95833,"midi":57,"velocity":89,"channel":4,"program":29},{"beat":293.02083,"duration":0.95833,"midi":57,"velocity":90,"channel":5,"program":30},{"beat":293.5,"duration":0.47917,"midi":50,"velocity":88,"channel":2,"program":33},{"beat":293.5,"duration":0.97917,"midi":50,"velocity":86,"channel":3,"program":27},{"beat":293.5,"duration":0.97917,"midi":64,"velocity":54,"channel":6,"program":29},{"beat":293.5,"duration":0.22917,"midi":69,"velocity":73,"channel":13,"program":81},{"beat":293.52083,"duration":0.95833,"midi":57,"velocity":86,"channel":3,"program":27},{"beat":293.52083,"duration":0.45833,"midi":57,"velocity":86,"channel":12,"program":25},{"beat":293.54167,"duration":0.4375,"midi":62,"velocity":86,"channel":12,"program":25},{"beat":293.54167,"duration":0.9375,"midi":64,"velocity":84,"channel":3,"program":27},{"beat":294.0,"duration":0.47917,"midi":50,"velocity":94,"channel":2,"program":33},{"beat":294.0,"duration":0.47917,"midi":50,"velocity":87,"channel":5,"program":30},{"beat":294.0,"duration":0.47917,"midi":50,"velocity":84,"channel":6,"program":29},{"beat":294.0,"duration":1.97917,"midi":66,"velocity":80,"channel":7,"program":51},{"beat":294.0,"duration":0.22917,"midi":69,"velocity":78,"channel":13,"program":81},{"beat":294.0,"duration":1.97917,"midi":81,"velocity":87,"channel":7,"program":51},{"beat":294.0,"duration":1.97917,"midi":93,"velocity":76,"channel":7,"program":51},{"beat":294.02083,"duration":0.45833,"midi":50,"velocity":88,"channel":4,"program":29},{"beat":294.02083,"duration":0.45833,"midi":57,"velocity":86,"channel":4,"program":29},{"beat":294.02083,"duration":0.45833,"midi":57,"velocity":89,"channel":5,"program":30},{"beat":294.02083,"duration":0.45833,"midi":57,"velocity":85,"channel":6,"program":29},{"beat":294.02083,"duration":0.45833,"midi":57,"velocity":89,"channel":12,"program":25},{"beat":294.04167,"duration":0.47917,"midi":64,"velocity":64,"channel":4,"program":29},{"beat":294.04167,"duration":0.4375,"midi":64,"velocity":91,"channel":12,"program":25},{"beat":294.5,"duration":0.47917,"midi":50,"velocity":87,"channel":2,"program":33},{"beat":294.5,"duration":0.47917,"midi":50,"velocity":76,"channel":3,"program":27},{"beat":294.5,"duration":0.47917,"midi":50,"velocity":88,"channel":5,"program":30},{"beat":294.5,"duration":0.47917,"midi":50,"velocity":82,"channel":6,"program":29},{"beat":294.5,"duration":0.27083,"midi":57,"velocity":88,"channel":1,"program":52},{"beat":294.5,"duration":0.27083,"midi":62,"velocity":90,"channel":1,"program":52},{"beat":294.5,"duration":0.27083,"midi":66,"velocity":90,"channel":1,"program":52},{"beat":294.5,"duration":0.47917,"midi":66,"velocity":55,"channel":6,"program":29},{"beat":294.5,"duration":0.22917,"midi":69,"velocity":77,"channel":13,"program":81},{"beat":294.5,"duration":0.27083,"midi":81,"velocity":101,"channel":0,"program":22},{"beat":294.52083,"duration":0.45833,"midi":50,"velocity":83,"channel":4,"program":29},{"beat":294.52083,"duration":0.45833,"midi":57,"velocity":81,"channel":3,"program":27},{"beat":294.52083,"duration":0.45833,"midi":57,"velocity":78,"channel":4,"program":29},{"beat":294.52083,"duration":0.45833,"midi":57,"velocity":85,"channel":5,"program":30},{"beat":294.52083,"duration":0.45833,"midi":57,"velocity":79,"channel":6,"program":29},{"beat":294.52083,"duration":0.45833,"midi":57,"velocity":90,"channel":12,"program":25},{"beat":294.54167,"duration":1.4375,"midi":66,"velocity":70,"channel":3,"program":27},{"beat":294.54167,"duration":0.4375,"midi":66,"velocity":57,"channel":4,"program":29},{"beat":294.54167,"duration":0.4375,"midi":66,"velocity":92,"channel":12,"program":25},{"beat":295.0,"duration":0.47917,"midi":50,"velocity":96,"channel":2,"program":33},{"beat":295.0,"duration":0.97917,"midi":50,"velocity":81,"channel":3,"program":27},{"beat":295.0,"duration":0.97917,"midi":50,"velocity":84,"channel":5,"program":30},{"beat":295.0,"duration":0.97917,"midi":50,"velocity":89,"channel":6,"program":29},{"beat":295.0,"duration":0.39583,"midi":57,"velocity":90,"channel":1,"program":52},{"beat":295.0,"duration":0.39583,"midi":62,"velocity":87,"channel":1,"program":52},{"beat":295.0,"duration":0.39583,"midi":66,"velocity":87,"channel":1,"program":52},{"beat":295.0,"duration":0.97917,"midi":66,"velocity":50,"channel":6,"program":29},{"beat":295.0,"duration":0.22917,"midi":69,"velocity":86,"channel":13,"program":81},{"beat":295.0,"duration":0.39583,"midi":81,"velocity":100,"channel":0,"program":22},{"beat":295.02083,"duration":0.95833,"midi":50,"velocity":89,"channel":4,"program":29},{"beat":295.02083,"duration":0.95833,"midi":57,"velocity":77,"channel":3,"program":27},{"beat":295.02083,"duration":0.95833,"midi":57,"velocity":88,"channel":4,"program":29},{"beat":295.02083,"duration":0.95833,"midi":57,"velocity":88,"channel":5,"program":30},{"beat":295.02083,"duration":0.95833,"midi":57,"velocity":88,"channel":6,"program":29},{"beat":295.02083,"duration":0.95833,"midi":57,"velocity":98,"channel":12,"program":25},{"beat":295.04167,"duration":0.9375,"midi":66,"velocity":54,"channel":4,"program":29},{"beat":295.04167,"duration":0.9375,"midi":66,"velocity":95,"channel":12,"program":25},{"beat":295.5,"duration":0.47917,"midi":50,"velocity":86,"channel":2,"program":33},{"beat":295.5,"duration":0.47917,"midi":54,"velocity":89,"channel":1,"program":52},{"beat":295.5,"duration":0.47917,"midi":59,"velocity":90,"channel":1,"program":52},{"beat":295.5,"duration":0.47917,"midi":62,"velocity":88,"channel":1,"program":52},{"beat":295.5,"duration":0.22917,"midi":69,"velocity":75,"channel":13,"program":81},{"beat":295.5,"duration":0.47917,"midi":78,"velocity":99,"channel":0,"program":22},{"beat":296.0,"duration":0.22917,"midi":38,"velocity":57,"channel":14,"program":7},{"beat":296.0,"duration":0.97917,"midi":45,"velocity":80,"channel":2,"program":33},{"beat":296.0,"duration":0.97917,"midi":50,"velocity":65,"channel":11,"program":29},{"beat":296.0,"duration":1.47917,"midi":50,"velocity":91,"channel":12,"program":25},{"beat":296.0,"duration":0.97917,"midi":54,"velocity":88,"channel":12,"program":25},{"beat":296.0,"duration":0.72917,"midi":57,"velocity":89,"channel":1,"program":52},{"beat":296.0,"duration":3.97917,"midi":57,"velocity":40,"channel":7,"program":51},{"beat":296.0,"duration":0.72917,"midi":62,"velocity":90,"channel":1,"program":52},{"beat":296.0,"duration":3.97917,"midi":62,"velocity":51,"channel":7,"program":51},{"beat":296.0,"duration":0.72917,"midi":66,"velocity":87,"channel":1,"program":52},{"beat":296.0,"duration":3.97917,"midi":66,"velocity":51,"channel":7,"program":51},{"beat":296.0,"duration":0.72917,"midi":81,"velocity":102,"channel":0,"program":22},{"beat":296.02083,"duration":0.95833,"midi":54,"velocity":62,"channel":11,"program":29},{"beat":296.02083,"duration":0.95833,"midi":57,"velocity":88,"channel":12,"program":25},{"beat":296.04167,"duration":0.9375,"midi":57,"velocity":57,"channel":11,"program":29},{"beat":296.04167,"duration":0.9375,"midi":66,"velocity":84,"channel":12,"program":25},{"beat":296.25,"duration":0.22917,"midi":38,"velocity":43,"channel":14,"program":7},{"beat":296.5,"duration":0.22917,"midi":38,"velocity":57,"channel":14,"program":7},{"beat":296.75,"duration":0.22917,"midi":38,"velocity":71,"channel":14,"program":7},{"beat":297.0,"duration":0.22917,"midi":38,"velocity":54,"channel":14,"program":7},{"beat":297.0,"duration":0.47917,"midi":50,"velocity":68,"channel":11,"program":29},{"beat":297.0,"duration":1.47917,"midi":54,"velocity":89,"channel":12,"program":25},{"beat":297.02083,"duration":0.45833,"midi":54,"velocity":57,"channel":11,"program":29},{"beat":297.02083,"duration":1.45833,"midi":57,"velocity":91,"channel":12,"program":25},{"beat":297.02083,"duration":1.45833,"midi":59,"velocity":67,"channel":12,"program":25},{"beat":297.04167,"duration":0.4375,"midi":57,"velocity":63,"channel":11,"program":29},{"beat":297.04167,"duration":0.9375,"midi":64,"velocity":70,"channel":12,"program":25},{"beat":297.25,"duration":0.22917,"midi":50,"velocity":63,"channel":14,"program":7},{"beat":297.5,"duration":0.22917,"midi":38,"velocity":45,"channel":14,"program":7},{"beat":297.5,"duration":0.97917,"midi":50,"velocity":67,"channel":11,"program":29},{"beat":297.5,"duration":0.47917,"midi":50,"velocity":78,"channel":12,"program":25},{"beat":297.5,"duration":0.39583,"midi":57,"velocity":87,"channel":1,"program":52},{"beat":297.5,"duration":0.39583,"midi":62,"velocity":90,"channel":1,"program":52},{"beat":297.5,"duration":0.39583,"midi":66,"velocity":88,"channel":1,"program":52},{"beat":297.5,"duration":0.39583,"midi":81,"velocity":101,"channel":0,"program":22},{"beat":297.52083,"duration":0.95833,"midi":54,"velocity":58,"channel":11,"program":29},{"beat":297.54167,"duration":0.9375,"midi":57,"velocity":63,"channel":11,"program":29},{"beat":297.75,"duration":0.22917,"midi":38,"velocity":61,"channel":14,"program":7},{"beat":298.0,"duration":0.22917,"midi":38,"velocity":57,"channel":14,"program":7},{"beat":298.0,"duration":0.47917,"midi":50,"velocity":85,"channel":12,"program":25},{"beat":298.0,"duration":0.47917,"midi":57,"velocity":90,"channel":1,"program":52},{"beat":298.0,"duration":0.47917,"midi":62,"velocity":90,"channel":1,"program":52},{"beat":298.0,"duration":0.47917,"midi":66,"velocity":88,"channel":1,"program":52},{"beat":298.0,"duration":0.47917,"midi":81,"velocity":100,"channel":0,"program":22},{"beat":298.25,"duration":0.22917,"midi":38,"velocity":43,"channel":14,"program":7},{"beat":298.5,"duration":0.22917,"midi":38,"velocity":57,"channel":14,"program":7},{"beat":298.5,"duration":1.47917,"midi":47,"velocity":87,"channel":12,"program":25},{"beat":298.5,"duration":0.97917,"midi":50,"velocity":64,"channel":11,"program":29},{"beat":298.5,"duration":0.52083,"midi":54,"velocity":90,"channel":1,"program":52},{"beat":298.5,"duration":1.47917,"midi":54,"velocity":75,"channel":12,"program":25},{"beat":298.5,"duration":0.52083,"midi":59,"velocity":88,"channel":1,"program":52},{"beat":298.5,"duration":0.52083,"midi":62,"velocity":88,"channel":1,"program":52},{"beat":298.5,"duration":0.52083,"midi":78,"velocity":102,"channel":0,"program":22},{"beat":298.52083,"duration":0.95833,"midi":54,"velocity":62,"channel":11,"program":29},{"beat":298.52083,"duration":1.45833,"midi":57,"velocity":74,"channel":12,"program":25},{"beat":298.52083,"duration":0.95833,"midi":59,"velocity":62,"channel":12,"program":25},{"beat":298.54167,"duration":0.9375,"midi":57,"velocity":59,"channel":11,"program":29},{"beat":298.54167,"duration":1.4375,"midi":64,"velocity":74,"channel":12,"program":25},{"beat":298.75,"duration":0.22917,"midi":38,"velocity":71,"channel":14,"program":7},{"beat":299.0,"duration":0.22917,"midi":38,"velocity":54,"channel":14,"program":7},{"beat":299.25,"duration":0.22917,"midi":38,"velocity":63,"channel":14,"program":7},{"beat":299.5,"duration":0.22917,"midi":38,"velocity":45,"channel":14,"program":7},{"beat":299.5,"duration":0.47917,"midi":50,"velocity":57,"channel":11,"program":29},{"beat":299.5,"duration":0.72917,"midi":52,"velocity":87,"channel":1,"program":52},{"beat":299.5,"duration":0.72917,"midi":57,"velocity":88,"channel":1,"program":52},{"beat":299.5,"duration":0.72917,"midi":61,"velocity":89,"channel":1,"program":52},{"beat":299.5,"duration":0.47917,"midi":61,"velocity":69,"channel":12,"program":25},{"beat":299.5,"duration":0.72917,"midi":76,"velocity":99,"channel":0,"program":22},{"beat":299.52083,"duration":0.45833,"midi":54,"velocity":50,"channel":11,"program":29},{"beat":299.54167,"duration":0.4375,"midi":57,"velocity":56,"channel":11,"program":29},{"beat":299.75,"duration":0.22917,"midi":38,"velocity":61,"channel":14,"program":7},{"beat":300.0,"duration":0.22917,"midi":33,"velocity":57,"channel":14,"program":7},{"beat":300.0,"duration":0.97917,"midi":45,"velocity":66,"channel":11,"program":29},{"beat":300.0,"duration":0.97917,"midi":45,"velocity":86,"channel":12,"program":25},{"beat":300.0,"duration":0.97917,"midi":52,"velocity":66,"channel":11,"program":29},{"beat":300.0,"duration":0.97917,"midi":52,"velocity":90,"channel":12,"program":25},{"beat":300.0,"duration":3.97917,"midi":57,"velocity":42,"channel":7,"program":51},{"beat":300.0,"duration":3.97917,"midi":61,"velocity":51,"channel":7,"program":51},{"beat":300.0,"duration":3.97917,"midi":64,"velocity":48,"channel":7,"program":51},{"beat":300.02083,"duration":0.95833,"midi":57,"velocity":92,"channel":12,"program":25},{"beat":300.02083,"duration":0.95833,"midi":61,"velocity":70,"channel":12,"program":25},{"beat":300.02083,"duration":0.95833,"midi":64,"velocity":39,"channel":11,"program":29},{"beat":300.04167,"duration":0.9375,"midi":64,"velocity":87,"channel":12,"program":25},{"beat":300.25,"duration":0.22917,"midi":33,"velocity":43,"channel":14,"program":7},{"beat":300.5,"duration":0.22917,"midi":33,"velocity":57,"channel":14,"program":7},{"beat":300.5,"duration":0.9375,"midi":54,"velocity":90,"channel":1,"program":52},{"beat":300.5,"duration":0.9375,"midi":57,"velocity":87,"channel":1,"program":52},{"beat":300.5,"duration":0.9375,"midi":62,"velocity":90,"channel":1,"program":52},{"beat":300.5,"duration":0.9375,"midi":78,"velocity":102,"channel":0,"program":22},{"beat":300.75,"duration":0.22917,"midi":33,"velocity":71,"channel":14,"program":7},{"beat":301.0,"duration":0.22917,"midi":33,"velocity":54,"channel":14,"program":7},{"beat":301.0,"duration":0.47917,"midi":45,"velocity":68,"channel":11,"program":29},{"beat":301.0,"duration":0.47917,"midi":49,"velocity":91,"channel":12,"program":25},{"beat":301.0,"duration":0.47917,"midi":52,"velocity":88,"channel":12,"program":25},{"beat":301.0,"duration":0.47917,"midi":54,"velocity":70,"channel":11,"program":29},{"beat":301.02083,"duration":0.45833,"midi":57,"velocity":89,"channel":12,"program":25},{"beat":301.02083,"duration":1.45833,"midi":62,"velocity":79,"channel":12,"program":25},{"beat":301.02083,"duration":0.45833,"midi":66,"velocity":38,"channel":11,"program":29},{"beat":301.04167,"duration":2.9375,"midi":66,"velocity":89,"channel":12,"program":25},{"beat":301.25,"duration":0.22917,"midi":45,"velocity":63,"channel":14,"program":7},{"beat":301.5,"duration":0.22917,"midi":33,"velocity":45,"channel":14,"program":7},{"beat":301.5,"duration":0.97917,"midi":45,"velocity":68,"channel":11,"program":29},{"beat":301.5,"duration":0.97917,"midi":45,"velocity":82,"channel":12,"program":25},{"beat":301.5,"duration":0.97917,"midi":52,"velocity":76,"channel":12,"program":25},{"beat":301.5,"duration":0.47917,"midi":54,"velocity":90,"channel":1,"program":52},{"beat":301.5,"duration":0.97917,"midi":54,"velocity":64,"channel":11,"program":29},{"beat":301.5,"duration":0.47917,"midi":57,"velocity":89,"channel":1,"program":52},{"beat":301.5,"duration":0.47917,"midi":62,"velocity":89,"channel":1,"program":52},{"beat":301.5,"duration":0.47917,"midi":78,"velocity":102,"channel":0,"program":22},{"beat":301.52083,"duration":0.95833,"midi":57,"velocity":80,"channel":12,"program":25},{"beat":301.52083,"duration":0.95833,"midi":66,"velocity":42,"channel":11,"program":29},{"beat":301.75,"duration":0.22917,"midi":33,"velocity":61,"channel":14,"program":7},{"beat":302.0,"duration":0.22917,"midi":33,"velocity":57,"channel":14,"program":7},{"beat":302.25,"duration":0.22917,"midi":33,"velocity":43,"channel":14,"program":7},{"beat":302.5,"duration":0.22917,"midi":33,"velocity":57,"channel":14,"program":7},{"beat":302.5,"duration":0.47917,"midi":45,"velocity":59,"channel":11,"program":29},{"beat":302.5,"duration":0.47917,"midi":49,"velocity":81,"channel":12,"program":25},{"beat":302.5,"duration":0.47917,"midi":52,"velocity":83,"channel":12,"program":25},{"beat":302.5,"duration":0.47917,"midi":54,"velocity":58,"channel":11,"program":29},{"beat":302.5,"duration":0.27083,"midi":57,"velocity":90,"channel":1,"program":52},{"beat":302.5,"duration":0.27083,"midi":62,"velocity":87,"channel":1,"program":52},{"beat":302.5,"duration":0.27083,"midi":66,"velocity":90,"channel":1,"program":52},{"beat":302.5,"duration":0.27083,"midi":81,"velocity":100,"channel":0,"program":22},{"beat":302.52083,"duration":0.45833,"midi":57,"velocity":83,"channel":12,"program":25},{"beat":302.52083,"duration":1.45833,"midi":66,"velocity":37,"channel":11,"program":29},{"beat":302.75,"duration":0.22917,"midi":33,"velocity":71,"channel":14,"program":7},{"beat":303.0,"duration":0.22917,"midi":33,"velocity":54,"channel":14,"program":7},{"beat":303.0,"duration":0.97917,"midi":45,"velocity":59,"channel":11,"program":29},{"beat":303.0,"duration":0.97917,"midi":45,"velocity":91,"channel":12,"program":25},{"beat":303.0,"duration":0.97917,"midi":52,"velocity":91,"channel":12,"program":25},{"beat":303.0,"duration":0.97917,"midi":54,"velocity":61,"channel":11,"program":29},{"beat":303.0,"duration":0.3125,"midi":57,"velocity":88,"channel":1,"program":52},{"beat":303.0,"duration":0.3125,"midi":62,"velocity":86,"channel":1,"program":52},{"beat":303.0,"duration":0.3125,"midi":66,"velocity":89,"channel":1,"program":52},{"beat":303.0,"duration":0.3125,"midi":81,"velocity":99,"channel":0,"program":22},{"beat":303.02083,"duration":0.95833,"midi":57,"velocity":95,"channel":12,"program":25},{"beat":303.25,"duration":0.22917,"midi":33,"velocity":63,"channel":14,"program":7},{"beat":303.5,"duration":0.22917,"midi":33,"velocity":45,"channel":14,"program":7},{"beat":303.5,"duration":0.47917,"midi":54,"velocity":89,"channel":1,"program":52},{"beat":303.5,"duration":0.47917,"midi":59,"velocity":90,"channel":1,"program":52},{"beat":303.5,"duration":0.47917,"midi":62,"velocity":90,"channel":1,"program":52},{"beat":303.5,"duration":0.47917,"midi":78,"velocity":99,"channel":0,"program":22},{"beat":303.75,"duration":0.22917,"midi":33,"velocity":61,"channel":14,"program":7},{"beat":304.0,"duration":0.22917,"midi":35,"velocity":57,"channel":14,"program":7},{"beat":304.0,"duration":0.97917,"midi":47,"velocity":69,"channel":11,"program":29},{"beat":304.0,"duration":0.97917,"midi":47,"velocity":89,"channel":12,"program":25},{"beat":304.0,"duration":0.97917,"midi":54,"velocity":90,"channel":12,"program":25},{"beat":304.0,"duration":0.72917,"midi":57,"velocity":89,"channel":1,"program":52},{"beat":304.0,"duration":3.97917,"midi":59,"velocity":39,"channel":7,"program":51},{"beat":304.0,"duration":0.72917,"midi":62,"velocity":89,"channel":1,"program":52},{"beat":304.0,"duration":3.97917,"midi":62,"velocity":51,"channel":7,"program":51},{"beat":304.0,"duration":0.72917,"midi":66,"velocity":89,"channel":1,"program":52},{"beat":304.0,"duration":3.97917,"midi":66,"velocity":50,"channel":7,"program":51},{"beat":304.0,"duration":0.72917,"midi":81,"velocity":99,"channel":0,"program":22},{"beat":304.02083,"duration":0.95833,"midi":54,"velocity":66,"channel":11,"program":29},{"beat":304.02083,"duration":1.95833,"midi":57,"velocity":91,"channel":12,"program":25},{"beat":304.04167,"duration":0.9375,"midi":57,"velocity":55,"channel":11,"program":29},{"beat":304.04167,"duration":0.9375,"midi":66,"velocity":87,"channel":12,"program":25},{"beat":304.25,"duration":0.22917,"midi":35,"velocity":43,"channel":14,"program":7},{"beat":304.5,"duration":0.22917,"midi":35,"velocity":57,"channel":14,"program":7},{"beat":304.75,"duration":0.22917,"midi":35,"velocity":71,"channel":14,"program":7},{"beat":305.0,"duration":0.22917,"midi":35,"velocity":54,"channel":14,"program":7},{"beat":305.0,"duration":0.47917,"midi":47,"velocity":70,"channel":11,"program":29},{"beat":305.0,"duration":0.47917,"midi":50,"velocity":89,"channel":12,"program":25},{"beat":305.0,"duration":0.47917,"midi":54,"velocity":92,"channel":12,"program":25},{"beat":305.02083,"duration":0.45833,"midi":54,"velocity":66,"channel":11,"program":29},{"beat":305.04167,"duration":0.4375,"midi":57,"velocity":52,"channel":11,"program":29},{"beat":305.25,"duration":0.22917,"midi":47,"velocity":63,"channel":14,"program":7},{"beat":305.5,"duration":0.22917,"midi":35,"velocity":45,"channel":14,"program":7},{"beat":305.5,"duration":0.97917,"midi":47,"velocity":64,"channel":11,"program":29},{"beat":305.5,"duration":0.97917,"midi":47,"velocity":79,"channel":12,"program":25},{"beat":305.5,"duration":0.97917,"midi":54,"velocity":78,"channel":12,"program":25},{"beat":305.5,"duration":0.47917,"midi":57,"velocity":89,"channel":1,"program":52},{"beat":305.5,"duration":0.47917,"midi":62,"velocity":89,"channel":1,"program":52},{"beat":305.5,"duration":0.47917,"midi":66,"velocity":90,"channel":1,"program":52},{"beat":305.5,"duration":0.47917,"midi":81,"velocity":100,"channel":0,"program":22},{"beat":305.52083,"duration":0.95833,"midi":54,"velocity":66,"channel":11,"program":29},{"beat":305.54167,"duration":0.9375,"midi":57,"velocity":55,"channel":11,"program":29},{"beat":305.75,"duration":0.22917,"midi":35,"velocity":61,"channel":14,"program":7},{"beat":306.0,"duration":0.22917,"midi":35,"velocity":57,"channel":14,"program":7},{"beat":306.0,"duration":0.47917,"midi":57,"velocity":88,"channel":1,"program":52},{"beat":306.0,"duration":0.47917,"midi":62,"velocity":90,"channel":1,"program":52},{"beat":306.0,"duration":0.47917,"midi":66,"velocity":88,"channel":1,"program":52},{"beat":306.0,"duration":0.47917,"midi":81,"velocity":100,"channel":0,"program":22},{"beat":306.04167,"duration":1.9375,"midi":66,"velocity":83,"channel":12,"program":25},{"beat":306.25,"duration":0.22917,"midi":35,"velocity":43,"channel":14,"program":7},{"beat":306.5,"duration":0.22917,"midi":35,"velocity":57,"channel":14,"program":7},{"beat":306.5,"duration":0.97917,"midi":47,"velocity":69,"channel":11,"program":29},{"beat":306.5,"duration":0.47917,"midi":50,"velocity":79,"channel":12,"program":25},{"beat":306.5,"duration":0.47917,"midi":54,"velocity":90,"channel":1,"program":52},{"beat":306.5,"duration":0.47917,"midi":54,"velocity":75,"channel":12,"program":25},{"beat":306.5,"duration":0.47917,"midi":59,"velocity":89,"channel":1,"program":52},{"beat":306.5,"duration":0.47917,"midi":62,"velocity":89,"channel":1,"program":52},{"beat":306.5,"duration":0.47917,"midi":78,"velocity":101,"channel":0,"program":22},{"beat":306.52083,"duration":0.95833,"midi":54,"velocity":69,"channel":11,"program":29},{"beat":306.52083,"duration":1.45833,"midi":59,"velocity":75,"channel":12,"program":25},{"beat":306.54167,"duration":0.9375,"midi":57,"velocity":51,"channel":11,"program":29},{"beat":306.75,"duration":0.22917,"midi":35,"velocity":71,"channel":14,"program":7},{"beat":307.0,"duration":0.22917,"midi":35,"velocity":54,"channel":14,"program":7},{"beat":307.0,"duration":0.97917,"midi":47,"velocity":85,"channel":12,"program":25},{"beat":307.0,"duration":0.39583,"midi":54,"velocity":90,"channel":1,"program":52},{"beat":307.0,"duration":0.97917,"midi":54,"velocity":87,"channel":12,"program":25},{"beat":307.0,"duration":0.39583,"midi":59,"velocity":90,"channel":1,"program":52},{"beat":307.0,"duration":0.39583,"midi":62,"velocity":89,"channel":1,"program":52},{"beat":307.0,"duration":0.39583,"midi":78,"velocity":99,"channel":0,"program":22},{"beat":307.25,"duration":0.22917,"midi":35,"velocity":63,"channel":14,"program":7},{"beat":307.5,"duration":0.22917,"midi":35,"velocity":45,"channel":14,"program":7},{"beat":307.5,"duration":0.47917,"midi":47,"velocity":65,"channel":11,"program":29},{"beat":307.5,"duration":0.8125,"midi":52,"velocity":89,"channel":1,"program":52},{"beat":307.5,"duration":0.8125,"midi":57,"velocity":88,"channel":1,"program":52},{"beat":307.5,"duration":0.8125,"midi":61,"velocity":89,"channel":1,"program":52},{"beat":307.5,"duration":0.8125,"midi":76,"velocity":100,"channel":0,"program":22},{"beat":307.52083,"duration":0.45833,"midi":54,"velocity":66,"channel":11,"program":29},{"beat":307.54167,"duration":0.4375,"midi":57,"velocity":55,"channel":11,"program":29},{"beat":307.75,"duration":0.22917,"midi":35,"velocity":61,"channel":14,"program":7},{"beat":308.0,"duration":0.22917,"midi":33,"velocity":57,"channel":14,"program":7},{"beat":308.0,"duration":0.97917,"midi":42,"velocity":70,"channel":11,"program":29},{"beat":308.0,"duration":1.97917,"midi":42,"velocity":87,"channel":12,"program":25},{"beat":308.0,"duration":0.97917,"midi":52,"velocity":88,"channel":12,"program":25},{"beat":308.0,"duration":3.97917,"midi":57,"velocity":39,"channel":7,"program":51},{"beat":308.0,"duration":1.97917,"midi":57,"velocity":62,"channel":12,"program":25},{"beat":308.0,"duration":3.97917,"midi":62,"velocity":52,"channel":7,"program":51},{"beat":308.0,"duration":3.97917,"midi":66,"velocity":52,"channel":7,"program":51},{"beat":308.02083,"duration":0.95833,"midi":50,"velocity":65,"channel":11,"program":29},{"beat":308.02083,"duration":1.95833,"midi":61,"velocity":71,"channel":12,"program":25},{"beat":308.04167,"duration":0.9375,"midi":52,"velocity":69,"channel":11,"program":29},{"beat":308.04167,"duration":0.9375,"midi":64,"velocity":76,"channel":12,"program":25},{"beat":308.25,"duration":0.22917,"midi":33,"velocity":43,"channel":14,"program":7},{"beat":308.5,"duration":0.22917,"midi":33,"velocity":57,"channel":14,"program":7},{"beat":308.5,"duration":0.47917,"midi":52,"velocity":90,"channel":1,"program":52},{"beat":308.5,"duration":0.47917,"midi":57,"velocity":86,"channel":1,"program":52},{"beat":308.5,"duration":0.47917,"midi":61,"velocity":90,"channel":1,"program":52},{"beat":308.5,"duration":0.47917,"midi":76,"velocity":102,"channel":0,"program":22},{"beat":308.75,"duration":0.22917,"midi":33,"velocity":71,"channel":14,"program":7},{"beat":309.0,"duration":0.22917,"midi":33,"velocity":54,"channel":14,"program":7},{"beat":309.0,"duration":0.47917,"midi":42,"velocity":63,"channel":11,"program":29},{"beat":309.0,"duration":0.97917,"midi":52,"velocity":92,"channel":12,"program":25},{"beat":309.0,"duration":0.47917,"midi":54,"velocity":88,"channel":1,"program":52},{"beat":309.0,"duration":0.47917,"midi":57,"velocity":89,"channel":1,"program":52},{"beat":309.0,"duration":0.47917,"midi":62,"velocity":89,"channel":1,"program":52},{"beat":309.0,"duration":0.47917,"midi":78,"velocity":100,"channel":0,"program":22},{"beat":309.02083,"duration":0.45833,"midi":50,"velocity":60,"channel":11,"program":29},{"beat":309.02083,"duration":0.95833,"midi":62,"velocity":62,"channel":12,"program":25},{"beat":309.04167,"duration":0.9375,"midi":52,"velocity":60,"channel":11,"program":29},{"beat":309.04167,"duration":0.9375,"midi":64,"velocity":64,"channel":12,"program":25},{"beat":309.25,"duration":0.22917,"midi":33,"velocity":63,"channel":14,"program":7},{"beat":309.5,"duration":0.22917,"midi":33,"velocity":45,"channel":14,"program":7},{"beat":309.5,"duration":0.97917,"midi":42,"velocity":60,"channel":11,"program":29},{"beat":309.5,"duration":0.47917,"midi":50,"velocity":90,"channel":1,"program":52},{"beat":309.5,"duration":0.47917,"midi":57,"velocity":89,"channel":1,"program":52},{"beat":309.5,"duration":0.47917,"midi":62,"velocity":87,"channel":1,"program":52},{"beat":309.5,"duration":0.47917,"midi":74,"velocity":101,"channel":0,"program":22},{"beat":309.52083,"duration":0.95833,"midi":50,"velocity":63,"channel":11,"program":29},{"beat":309.75,"duration":0.22917,"midi":33,"velocity":61,"channel":14,"program":7},{"beat":310.0,"duration":1.97917,"midi":42,"velocity":83,"channel":12,"program":25},{"beat":310.0,"duration":1.97917,"midi":42,"velocity":77,"channel":14,"program":7},{"beat":310.0,"duration":0.47917,"midi":54,"velocity":81,"channel":12,"program":25},{"beat":310.02083,"duration":0.45833,"midi":62,"velocity":69,"channel":12,"program":25},{"beat":310.04167,"duration":0.4375,"midi":54,"velocity":75,"channel":11,"program":29},{"beat":310.04167,"duration":0.4375,"midi":66,"velocity":62,"channel":12,"program":25},{"beat":310.5,"duration":0.47917,"midi":42,"velocity":60,"channel":11,"program":29},{"beat":310.5,"duration":1.47917,"midi":54,"velocity":82,"channel":12,"program":25},{"beat":310.5,"duration":0.39583,"midi":57,"velocity":89,"channel":1,"program":52},{"beat":310.5,"duration":0.39583,"midi":62,"velocity":90,"channel":1,"program":52},{"beat":310.5,"duration":0.39583,"midi":66,"velocity":88,"channel":1,"program":52},{"beat":310.5,"duration":0.39583,"midi":81,"velocity":102,"channel":0,"program":22},{"beat":310.52083,"duration":0.45833,"midi":50,"velocity":50,"channel":11,"program":29},{"beat":310.52083,"duration":1.45833,"midi":62,"velocity":80,"channel":12,"program":25},{"beat":310.54167,"duration":1.4375,"midi":54,"velocity":70,"channel":11,"program":29},{"beat":310.54167,"duration":1.4375,"midi":66,"velocity":74,"channel":12,"program":25},{"beat":311.0,"duration":0.97917,"midi":42,"velocity":63,"channel":11,"program":29},{"beat":311.0,"duration":0.39583,"midi":57,"velocity":88,"channel":1,"program":52},{"beat":311.0,"duration":0.39583,"midi":62,"velocity":88,"channel":1,"program":52},{"beat":311.0,"duration":0.39583,"midi":66,"velocity":89,"channel":1,"program":52},{"beat":311.0,"duration":0.39583,"midi":81,"velocity":99,"channel":0,"program":22},{"beat":311.02083,"duration":0.95833,"midi":50,"velocity":60,"channel":11,"program":29},{"beat":311.5,"duration":0.39583,"midi":54,"velocity":90,"channel":1,"program":52},{"beat":311.5,"duration":0.39583,"midi":59,"velocity":87,"channel":1,"program":52},{"beat":311.5,"duration":0.39583,"midi":62,"velocity":90,"channel":1,"program":52},{"beat":311.5,"duration":0.39583,"midi":78,"velocity":101,"channel":0,"program":22},{"beat":312.0,"duration":1.47917,"midi":43,"velocity":70,"channel":11,"program":29},{"beat":312.0,"duration":3.97917,"midi":43,"velocity":89,"channel":12,"program":25},{"beat":312.0,"duration":0.22917,"midi":43,"velocity":57,"channel":14,"program":7},{"beat":312.0,"duration":1.47917,"midi":55,"velocity":86,"channel":12,"program":25},{"beat":312.0,"duration":0.72917,"midi":57,"velocity":87,"channel":1,"program":52},{"beat":312.0,"duration":3.97917,"midi":59,"velocity":40,"channel":7,"program":51},{"beat":312.0,"duration":0.72917,"midi":62,"velocity":89,"channel":1,"program":52},{"beat":312.0,"duration":3.97917,"midi":62,"velocity":49,"channel":7,"program":51},{"beat":312.0,"duration":4.0,"midi":65,"velocity":75,"channel":15,"program":126},{"beat":312.0,"duration":0.72917,"midi":66,"velocity":90,"channel":1,"program":52},{"beat":312.0,"duration":3.97917,"midi":67,"velocity":52,"channel":7,"program":51},{"beat":312.0,"duration":0.72917,"midi":81,"velocity":100,"channel":0,"program":22},{"beat":312.02083,"duration":1.45833,"midi":50,"velocity":65,"channel":11,"program":29},{"beat":312.02083,"duration":1.45833,"midi":59,"velocity":88,"channel":12,"program":25},{"beat":312.04167,"duration":1.4375,"midi":54,"velocity":68,"channel":11,"program":29},{"beat":312.04167,"duration":1.4375,"midi":62,"velocity":91,"channel":12,"program":25},{"beat":312.25,"duration":0.22917,"midi":43,"velocity":43,"channel":14,"program":7},{"beat":312.5,"duration":0.22917,"midi":43,"velocity":57,"channel":14,"program":7},{"beat":312.75,"duration":0.22917,"midi":43,"velocity":71,"channel":14,"program":7},{"beat":313.0,"duration":0.22917,"midi":43,"velocity":54,"channel":14,"program":7},{"beat":313.25,"duration":0.22917,"midi":55,"velocity":63,"channel":14,"program":7},{"beat":313.5,"duration":0.47917,"midi":43,"velocity":61,"channel":11,"program":29},{"beat":313.5,"duration":0.22917,"midi":43,"velocity":45,"channel":14,"program":7},{"beat":313.5,"duration":0.47917,"midi":55,"velocity":76,"channel":12,"program":25},{"beat":313.5,"duration":0.47917,"midi":57,"velocity":87,"channel":1,"program":52},{"beat":313.5,"duration":0.47917,"midi":62,"velocity":87,"channel":1,"program":52},{"beat":313.5,"duration":0.47917,"midi":66,"velocity":88,"channel":1,"program":52},{"beat":313.5,"duration":0.47917,"midi":81,"velocity":102,"channel":0,"program":22},{"beat":313.52083,"duration":0.45833,"midi":50,"velocity":62,"channel":11,"program":29},{"beat":313.52083,"duration":0.45833,"midi":59,"velocity":75,"channel":12,"program":25},{"beat":313.54167,"duration":0.4375,"midi":54,"velocity":60,"channel":11,"program":29},{"beat":313.54167,"duration":0.4375,"midi":62,"velocity":78,"channel":12,"program":25},{"beat":313.75,"duration":0.22917,"midi":43,"velocity":61,"channel":14,"program":7},{"beat":314.0,"duration":0.47917,"midi":43,"velocity":66,"channel":11,"program":29},{"beat":314.0,"duration":0.22917,"midi":43,"velocity":57,"channel":14,"program":7},{"beat":314.0,"duration":0.47917,"midi":55,"velocity":78,"channel":12,"program":25},{"beat":314.0,"duration":0.47917,"midi":57,"velocity":90,"channel":1,"program":52},{"beat":314.0,"duration":0.47917,"midi":62,"velocity":87,"channel":1,"program":52},{"beat":314.0,"duration":0.47917,"midi":66,"velocity":88,"channel":1,"program":52},{"beat":314.0,"duration":0.47917,"midi":81,"velocity":102,"channel":0,"program":22},{"beat":314.02083,"duration":0.45833,"midi":50,"velocity":66,"channel":11,"program":29},{"beat":314.02083,"duration":0.45833,"midi":59,"velocity":83,"channel":12,"program":25},{"beat":314.04167,"duration":0.4375,"midi":54,"velocity":65,"channel":11,"program":29},{"beat":314.04167,"duration":0.4375,"midi":62,"velocity":81,"channel":12,"program":25},{"beat":314.25,"duration":0.22917,"midi":43,"velocity":43,"channel":14,"program":7},{"beat":314.5,"duration":0.97917,"midi":43,"velocity":64,"channel":11,"program":29},{"beat":314.5,"duration":0.22917,"midi":43,"velocity":57,"channel":14,"program":7},{"beat":314.5,"duration":0.47917,"midi":54,"velocity":90,"channel":1,"program":52},{"beat":314.5,"duration":0.97917,"midi":55,"velocity":78,"channel":12,"program":25},{"beat":314.5,"duration":0.47917,"midi":59,"velocity":89,"channel":1,"program":52},{"beat":314.5,"duration":0.47917,"midi":62,"velocity":89,"channel":1,"program":52},{"beat":314.5,"duration":0.47917,"midi":78,"velocity":101,"channel":0,"program":22},{"beat":314.52083,"duration":0.95833,"midi":50,"velocity":64,"channel":11,"program":29},{"beat":314.52083,"duration":0.95833,"midi":59,"velocity":75,"channel":12,"program":25},{"beat":314.54167,"duration":0.9375,"midi":54,"velocity":67,"channel":11,"program":29},{"beat":314.54167,"duration":0.9375,"midi":62,"velocity":80,"channel":12,"program":25},{"beat":314.75,"duration":0.22917,"midi":43,"velocity":71,"channel":14,"program":7},{"beat":315.0,"duration":0.22917,"midi":43,"velocity":54,"channel":14,"program":7},{"beat":315.0,"duration":0.35417,"midi":54,"velocity":87,"channel":1,"program":52},{"beat":315.0,"duration":0.35417,"midi":59,"velocity":88,"channel":1,"program":52},{"beat":315.0,"duration":0.35417,"midi":62,"velocity":90,"channel":1,"program":52},{"beat":315.0,"duration":0.35417,"midi":78,"velocity":102,"channel":0,"program":22},{"beat":315.25,"duration":0.22917,"midi":43,"velocity":63,"channel":14,"program":7},{"beat":315.5,"duration":0.47917,"midi":43,"velocity":60,"channel":11,"program":29},{"beat":315.5,"duration":0.22917,"midi":43,"velocity":45,"channel":14,"program":7},{"beat":315.5,"duration":0.72917,"midi":52,"velocity":90,"channel":1,"program":52},{"beat":315.5,"duration":0.47917,"midi":55,"velocity":79,"channel":12,"program":25},{"beat":315.5,"duration":0.72917,"midi":57,"velocity":88,"channel":1,"program":52},{"beat":315.5,"duration":0.72917,"midi":69,"velocity":89,"channel":1,"program":52},{"beat":315.5,"duration":0.72917,"midi":76,"velocity":98,"channel":0,"program":22},{"beat":315.52083,"duration":0.45833,"midi":50,"velocity":61,"channel":11,"program":29},{"beat":315.52083,"duration":0.45833,"midi":59,"velocity":79,"channel":12,"program":25},{"beat":315.54167,"duration":0.4375,"midi":54,"velocity":60,"channel":11,"program":29},{"beat":315.54167,"duration":0.4375,"midi":62,"velocity":79,"channel":12,"program":25},{"beat":315.75,"duration":0.22917,"midi":43,"velocity":61,"channel":14,"program":7},{"beat":316.0,"duration":0.22917,"midi":33,"velocity":57,"channel":14,"program":7},{"beat":316.0,"duration":0.97917,"midi":45,"velocity":70,"channel":11,"program":29},{"beat":316.0,"duration":3.97917,"midi":45,"velocity":89,"channel":12,"program":25},{"beat":316.0,"duration":0.97917,"midi":52,"velocity":92,"channel":12,"program":25},{"beat":316.0,"duration":1.47917,"midi":55,"velocity":68,"channel":12,"program":25},{"beat":316.0,"duration":3.97917,"midi":57,"velocity":42,"channel":7,"program":51},{"beat":316.0,"duration":3.97917,"midi":61,"velocity":51,"channel":7,"program":51},{"beat":316.0,"duration":3.97917,"midi":64,"velocity":52,"channel":7,"program":51},{"beat":316.02083,"duration":1.95833,"midi":52,"velocity":67,"channel":11,"program":29},{"beat":316.02083,"duration":0.95833,"midi":57,"velocity":86,"channel":12,"program":25},{"beat":316.04167,"duration":1.9375,"midi":57,"velocity":56,"channel":11,"program":29},{"beat":316.04167,"duration":0.9375,"midi":61,"velocity":88,"channel":12,"program":25},{"beat":316.25,"duration":0.22917,"midi":33,"velocity":43,"channel":14,"program":7},{"beat":316.5,"duration":0.22917,"midi":33,"velocity":57,"channel":14,"program":7},{"beat":316.5,"duration":0.64583,"midi":54,"velocity":90,"channel":1,"program":52},{"beat":316.5,"duration":0.64583,"midi":57,"velocity":87,"channel":1,"program":52},{"beat":316.5,"duration":0.64583,"midi":69,"velocity":88,"channel":1,"program":52},{"beat":316.5,"duration":0.64583,"midi":78,"velocity":100,"channel":0,"program":22},{"beat":316.75,"duration":0.22917,"midi":33,"velocity":71,"channel":14,"program":7},{"beat":317.0,"duration":0.22917,"midi":33,"velocity":54,"channel":14,"program":7},{"beat":317.0,"duration":0.97917,"midi":45,"velocity":69,"channel":11,"program":29},{"beat":317.0,"duration":0.47917,"midi":54,"velocity":86,"channel":12,"program":25},{"beat":317.02083,"duration":1.45833,"midi":57,"velocity":91,"channel":12,"program":25},{"beat":317.04167,"duration":1.4375,"midi":61,"velocity":90,"channel":12,"program":25},{"beat":317.25,"duration":0.22917,"midi":45,"velocity":63,"channel":14,"program":7},{"beat":317.5,"duration":0.22917,"midi":33,"velocity":45,"channel":14,"program":7},{"beat":317.5,"duration":0.72917,"midi":52,"velocity":88,"channel":1,"program":52},{"beat":317.5,"duration":0.625,"midi":52,"velocity":88,"channel":12,"program":25},{"beat":317.5,"duration":2.47917,"midi":55,"velocity":65,"channel":12,"program":25},{"beat":317.5,"duration":0.72917,"midi":57,"velocity":88,"channel":1,"program":52},{"beat":317.5,"duration":0.72917,"midi":69,"velocity":86,"channel":1,"program":52},{"beat":317.5,"duration":0.72917,"midi":76,"velocity":102,"channel":0,"program":22},{"beat":317.75,"duration":0.22917,"midi":33,"velocity":61,"channel":14,"program":7},{"beat":318.0,"duration":0.22917,"midi":33,"velocity":57,"channel":14,"program":7},{"beat":318.0,"duration":0.47917,"midi":45,"velocity":64,"channel":11,"program":29},{"beat":318.02083,"duration":0.45833,"midi":52,"velocity":64,"channel":11,"program":29},{"beat":318.04167,"duration":0.4375,"midi":57,"velocity":50,"channel":11,"program":29},{"beat":318.25,"duration":0.22917,"midi":33,"velocity":43,"channel":14,"program":7},{"beat":318.5,"duration":0.22917,"midi":33,"velocity":57,"channel":14,"program":7},{"beat":318.5,"duration":0.97917,"midi":45,"velocity":66,"channel":11,"program":29},{"beat":318.5,"duration":0.47917,"midi":50,"velocity":89,"channel":1,"program":52},{"beat":318.5,"duration":0.47917,"midi":50,"velocity":83,"channel":12,"program":25},{"beat":318.5,"duration":0.47917,"midi":57,"velocity":90,"channel":1,"program":52},{"beat":318.5,"duration":0.47917,"midi":69,"velocity":90,"channel":1,"program":52},{"beat":318.5,"duration":0.47917,"midi":74,"velocity":101,"channel":0,"program":22},{"beat":318.52083,"duration":0.95833,"midi":52,"velocity":65,"channel":11,"program":29},{"beat":318.52083,"duration":0.45833,"midi":57,"velocity":85,"channel":12,"program":25},{"beat":318.54167,"duration":0.9375,"midi":57,"velocity":56,"channel":11,"program":29},{"beat":318.54167,"duration":0.4375,"midi":61,"velocity":79,"channel":12,"program":25},{"beat":318.75,"duration":0.22917,"midi":33,"velocity":71,"channel":14,"program":7},{"beat":319.0,"duration":0.22917,"midi":33,"velocity":54,"channel":14,"program":7},{"beat":319.0,"duration":0.47917,"midi":49,"velocity":86,"channel":1,"program":52},{"beat":319.0,"duration":0.97917,"midi":49,"velocity":94,"channel":12,"program":25},{"beat":319.0,"duration":0.47917,"midi":57,"velocity":89,"channel":1,"program":52},{"beat":319.0,"duration":0.47917,"midi":69,"velocity":90,"channel":1,"program":52},{"beat":319.0,"duration":0.47917,"midi":73,"velocity":100,"channel":0,"program":22},{"beat":319.02083,"duration":0.95833,"midi":57,"velocity":93,"channel":12,"program":25},{"beat":319.04167,"duration":0.9375,"midi":61,"velocity":93,"channel":12,"program":25},{"beat":319.25,"duration":0.22917,"midi":33,"velocity":63,"channel":14,"program":7},{"beat":319.5,"duration":0.22917,"midi":33,"velocity":45,"channel":14,"program":7},{"beat":319.5,"duration":0.47917,"midi":45,"velocity":59,"channel":11,"program":29},{"beat":319.5,"duration":0.72917,"midi":50,"velocity":90,"channel":1,"program":52},{"beat":319.5,"duration":0.72917,"midi":57,"velocity":89,"channel":1,"program":52},{"beat":319.5,"duration":0.72917,"midi":69,"velocity":88,"channel":1,"program":52},{"beat":319.5,"duration":0.72917,"midi":74,"velocity":99,"channel":0,"program":22},{"beat":319.52083,"duration":0.45833,"midi":52,"velocity":61,"channel":11,"program":29},{"beat":319.54167,"duration":0.4375,"midi":57,"velocity":56,"channel":11,"program":29},{"beat":319.75,"duration":0.22917,"midi":33,"velocity":61,"channel":14,"program":7},{"beat":320.0,"duration":0.47917,"midi":38,"velocity":69,"channel":11,"program":29},{"beat":320.0,"duration":0.47917,"midi":38,"velocity":91,"channel":12,"program":25},{"beat":320.0,"duration":0.22917,"midi":38,"velocity":62,"channel":14,"program":7},{"beat":320.0,"duration":0.47917,"midi":50,"velocity":66,"channel":11,"program":29},{"beat":320.0,"duration":0.47917,"midi":50,"velocity":85,"channel":12,"program":25},{"beat":320.02083,"duration":0.45833,"midi":45,"velocity":70,"channel":11,"program":29},{"beat":320.02083,"duration":0.95833,"midi":57,"velocity":89,"channel":12,"program":25},{"beat":320.02083,"duration":0.95833,"midi":62,"velocity":47,"channel":11,"program":29},{"beat":320.04167,"duration":0.9375,"midi":62,"velocity":80,"channel":12,"program":25},{"beat":320.25,"duration":0.22917,"midi":38,"velocity":48,"channel":14,"program":7},{"beat":320.5,"duration":0.47917,"midi":38,"velocity":64,"channel":11,"program":29},{"beat":320.5,"duration":0.47917,"midi":38,"velocity":87,"channel":12,"program":25},{"beat":320.5,"duration":0.22917,"midi":38,"velocity":62,"channel":14,"program":7},{"beat":320.5,"duration":0.47917,"midi":50,"velocity":67,"channel":11,"program":29},{"beat":320.5,"duration":0.47917,"midi":50,"velocity":91,"channel":12,"program":25},{"beat":320.52083,"duration":0.45833,"midi":45,"velocity":70,"channel":11,"program":29},{"beat":320.75,"duration":0.22917,"midi":38,"velocity":76,"channel":14,"program":7},{"beat":321.0,"duration":0.97917,"midi":38,"velocity":92,"channel":12,"program":25},{"beat":321.0,"duration":0.22917,"midi":38,"velocity":59,"channel":14,"program":7},{"beat":321.0,"duration":0.47917,"midi":42,"velocity":68,"channel":11,"program":29},{"beat":321.0,"duration":0.22917,"midi":50,"velocity":80,"channel":11,"program":29},{"beat":321.0,"duration":0.47917,"midi":50,"velocity":87,"channel":12,"program":25},{"beat":321.0,"duration":0.47917,"midi":54,"velocity":68,"channel":11,"program":29},{"beat":321.0,"duration":0.47917,"midi":54,"velocity":87,"channel":12,"program":25},{"beat":321.0,"duration":0.97917,"midi":57,"velocity":58,"channel":7,"program":51},{"beat":321.0,"duration":0.97917,"midi":62,"velocity":71,"channel":7,"program":51},{"beat":321.0,"duration":0.97917,"midi":66,"velocity":72,"channel":7,"program":51},{"beat":321.02083,"duration":0.95833,"midi":45,"velocity":68,"channel":11,"program":29},{"beat":321.02083,"duration":0.45833,"midi":57,"velocity":88,"channel":12,"program":25},{"beat":321.02083,"duration":0.45833,"midi":66,"velocity":40,"channel":11,"program":29},{"beat":321.04167,"duration":0.4375,"midi":66,"velocity":82,"channel":12,"program":25},{"beat":321.25,"duration":0.22917,"midi":38,"velocity":68,"channel":14,"program":7},{"beat":321.25,"duration":0.22917,"midi":50,"velocity":67,"channel":11,"program":29},{"beat":321.5,"duration":0.47917,"midi":38,"velocity":69,"channel":11,"program":29},{"beat":321.5,"duration":0.22917,"midi":38,"velocity":50,"channel":14,"program":7},{"beat":321.5,"duration":0.47917,"midi":50,"velocity":70,"channel":11,"program":29},{"beat":321.5,"duration":0.97917,"midi":50,"velocity":91,"channel":12,"program":25},{"beat":321.52083,"duration":0.95833,"midi":57,"velocity":88,"channel":12,"program":25},{"beat":321.52083,"duration":0.95833,"midi":62,"velocity":51,"channel":11,"program":29},{"beat":321.54167,"duration":0.9375,"midi":62,"velocity":83,"channel":12,"program":25},{"beat":321.75,"duration":0.22917,"midi":38,"velocity":66,"channel":14,"program":7},{"beat":322.0,"duration":0.22917,"midi":38,"velocity":65,"channel":11,"program":29},{"beat":322.0,"duration":0.47917,"midi":38,"velocity":90,"channel":12,"program":25},{"beat":322.0,"duration":0.22917,"midi":38,"velocity":62,"channel":14,"program":7},{"beat":322.0,"duration":0.22917,"midi":50,"velocity":67,"channel":11,"program":29},{"beat":322.25,"duration":0.22917,"midi":38,"velocity":48,"channel":14,"program":7},{"beat":322.25,"duration":0.22917,"midi":50,"velocity":80,"channel":11,"program":29},{"beat":322.5,"duration":0.97917,"midi":38,"velocity":65,"channel":11,"program":29},{"beat":322.5,"duration":0.97917,"midi":38,"velocity":91,"channel":12,"program":25},{"beat":322.5,"duration":0.22917,"midi":38,"velocity":62,"channel":14,"program":7},{"beat":322.5,"duration":0.97917,"midi":50,"velocity":66,"channel":11,"program":29},{"beat":322.5,"duration":0.97917,"midi":50,"velocity":91,"channel":12,"program":25},{"beat":322.5,"duration":1.47917,"midi":54,"velocity":69,"channel":11,"program":29},{"beat":322.5,"duration":1.47917,"midi":57,"velocity":61,"channel":7,"program":51},{"beat":322.5,"duration":1.47917,"midi":61,"velocity":69,"channel":7,"program":51},{"beat":322.5,"duration":1.47917,"midi":64,"velocity":72,"channel":7,"program":51},{"beat":322.52083,"duration":0.95833,"midi":45,"velocity":64,"channel":11,"program":29},{"beat":322.52083,"duration":0.95833,"midi":57,"velocity":91,"channel":12,"program":25},{"beat":322.52083,"duration":0.95833,"midi":62,"velocity":44,"channel":11,"program":29},{"beat":322.54167,"duration":0.9375,"midi":66,"velocity":85,"channel":12,"program":25},{"beat":322.75,"duration":0.22917,"midi":38,"velocity":76,"channel":14,"program":7},{"beat":323.0,"duration":0.22917,"midi":38,"velocity":59,"channel":14,"program":7},{"beat":323.25,"duration":0.22917,"midi":38,"velocity":68,"channel":14,"program":7},{"beat":323.5,"duration":0.22917,"midi":38,"velocity":64,"channel":11,"program":29},{"beat":323.5,"duration":0.47917,"midi":38,"velocity":89,"channel":12,"program":25},{"beat":323.5,"duration":0.22917,"midi":38,"velocity":50,"channel":14,"program":7},{"beat":323.5,"duration":0.22917,"midi":50,"velocity":64,"channel":11,"program":29},{"beat":323.5,"duration":0.22917,"midi":50,"velocity":87,"channel":12,"program":25},{"beat":323.52083,"duration":0.20833,"midi":45,"velocity":70,"channel":11,"program":29},{"beat":323.52083,"duration":0.20833,"midi":57,"velocity":88,"channel":12,"program":25},{"beat":323.54167,"duration":0.1875,"midi":62,"velocity":86,"channel":12,"program":25},{"beat":323.75,"duration":0.22917,"midi":38,"velocity":69,"channel":11,"program":29},{"beat":323.75,"duration":0.22917,"midi":38,"velocity":66,"channel":14,"program":7},{"beat":323.75,"duration":0.22917,"midi":50,"velocity":64,"channel":11,"program":29},{"beat":323.75,"duration":0.22917,"midi":50,"velocity":89,"channel":12,"program":25},{"beat":323.77083,"duration":0.20833,"midi":45,"velocity":64,"channel":11,"program":29},{"beat":323.77083,"duration":0.20833,"midi":57,"velocity":90,"channel":12,"program":25},{"beat":323.79167,"duration":0.1875,"midi":62,"velocity":86,"channel":12,"program":25},{"beat":324.0,"duration":0.47917,"midi":38,"velocity":68,"channel":11,"program":29},{"beat":324.0,"duration":1.97917,"midi":38,"velocity":92,"channel":12,"program":25},{"beat":324.0,"duration":0.22917,"midi":38,"velocity":62,"channel":14,"program":7},{"beat":324.0,"duration":0.47917,"midi":52,"velocity":88,"channel":12,"program":25},{"beat":324.0,"duration":1.97917,"midi":57,"velocity":60,"channel":7,"program":51},{"beat":324.0,"duration":1.97917,"midi":61,"velocity":70,"channel":7,"program":51},{"beat":324.0,"duration":1.97917,"midi":64,"velocity":71,"channel":7,"program":51},{"beat":324.02083,"duration":0.45833,"midi":45,"velocity":68,"channel":11,"program":29},{"beat":324.02083,"duration":0.45833,"midi":57,"velocity":92,"channel":12,"program":25},{"beat":324.04167,"duration":0.4375,"midi":52,"velocity":69,"channel":11,"program":29},{"beat":324.04167,"duration":0.4375,"midi":62,"velocity":82,"channel":12,"program":25},{"beat":324.25,"duration":0.22917,"midi":38,"velocity":48,"channel":14,"program":7},{"beat":324.5,"duration":1.47917,"midi":38,"velocity":69,"channel":11,"program":29},{"beat":324.5,"duration":0.22917,"midi":38,"velocity":62,"channel":14,"program":7},{"beat":324.5,"duration":0.47917,"midi":45,"velocity":87,"channel":2,"program":33},{"beat":324.5,"duration":1.47917,"midi":52,"velocity":89,"channel":12,"program":25},{"beat":324.52083,"duration":1.45833,"midi":45,"velocity":68,"channel":11,"program":29},{"beat":324.52083,"duration":1.45833,"midi":57,"velocity":93,"channel":12,"program":25},{"beat":324.54167,"duration":1.4375,"midi":52,"velocity":60,"channel":11,"program":29},{"beat":324.54167,"duration":1.4375,"midi":62,"velocity":83,"channel":12,"program":25},{"beat":324.75,"duration":0.22917,"midi":38,"velocity":76,"channel":14,"program":7},{"beat":325.0,"duration":0.22917,"midi":38,"velocity":59,"channel":14,"program":7},{"beat":325.0,"duration":0.47917,"midi":50,"velocity":103,"channel":2,"program":33},{"beat":325.25,"duration":0.22917,"midi":38,"velocity":68,"channel":14,"program":7},{"beat":325.5,"duration":0.22917,"midi":38,"velocity":50,"channel":14,"program":7},{"beat":325.5,"duration":0.47917,"midi":55,"velocity":86,"channel":2,"program":33},{"beat":325.75,"duration":0.22917,"midi":38,"velocity":66,"channel":14,"program":7},{"beat":326.0,"duration":1.47917,"midi":38,"velocity":65,"channel":11,"program":29},{"beat":326.0,"duration":1.97917,"midi":38,"velocity":90,"channel":12,"program":25},{"beat":326.0,"duration":0.22917,"midi":38,"velocity":62,"channel":14,"program":7},{"beat":326.0,"duration":0.47917,"midi":54,"velocity":94,"channel":2,"program":33},{"beat":326.0,"duration":0.47917,"midi":54,"velocity":94,"channel":12,"program":25},{"beat":326.0,"duration":1.97917,"midi":57,"velocity":61,"channel":7,"program":51},{"beat":326.0,"duration":1.97917,"midi":62,"velocity":72,"channel":7,"program":51},{"beat":326.0,"duration":1.97917,"midi":66,"velocity":69,"channel":7,"program":51},{"beat":326.02083,"duration":1.45833,"midi":45,"velocity":67,"channel":11,"program":29},{"beat":326.02083,"duration":1.95833,"midi":50,"velocity":67,"channel":11,"program":29},{"beat":326.02083,"duration":0.95833,"midi":57,"velocity":94,"channel":12,"program":25},{"beat":326.04167,"duration":1.9375,"midi":54,"velocity":69,"channel":11,"program":29},{"beat":326.04167,"duration":1.9375,"midi":64,"velocity":84,"channel":12,"program":25},{"beat":326.25,"duration":0.22917,"midi":38,"velocity":48,"channel":14,"program":7},{"beat":326.5,"duration":0.22917,"midi":38,"velocity":62,"channel":14,"program":7},{"beat":326.5,"duration":0.47917,"midi":50,"velocity":87,"channel":2,"program":33},{"beat":326.5,"duration":0.47917,"midi":54,"velocity":93,"channel":12,"program":25},{"beat":326.5,"duration":0.27083,"midi":57,"velocity":90,"channel":1,"program":52},{"beat":326.5,"duration":0.27083,"midi":62,"velocity":90,"channel":1,"program":52},{"beat":326.5,"duration":0.27083,"midi":66,"velocity":88,"channel":1,"program":52},{"beat":326.5,"duration":0.27083,"midi":81,"velocity":101,"channel":0,"program":22},{"beat":326.75,"duration":0.22917,"midi":38,"velocity":76,"channel":14,"program":7},{"beat":327.0,"duration":0.22917,"midi":38,"velocity":59,"channel":14,"program":7},{"beat":327.0,"duration":0.97917,"midi":45,"velocity":92,"channel":2,"program":33},{"beat":327.0,"duration":0.97917,"midi":50,"velocity":87,"channel":12,"program":25},{"beat":327.0,"duration":0.39583,"midi":57,"velocity":89,"channel":1,"program":52},{"beat":327.0,"duration":0.39583,"midi":62,"velocity":89,"channel":1,"program":52},{"beat":327.0,"duration":0.39583,"midi":66,"velocity":88,"channel":1,"program":52},{"beat":327.0,"duration":0.39583,"midi":81,"velocity":102,"channel":0,"program":22},{"beat":327.02083,"duration":0.95833,"midi":57,"velocity":87,"channel":12,"program":25},{"beat":327.25,"duration":0.22917,"midi":38,"velocity":68,"channel":14,"program":7},{"beat":327.5,"duration":0.47917,"midi":38,"velocity":68,"channel":11,"program":29},{"beat":327.5,"duration":0.22917,"midi":38,"velocity":50,"channel":14,"program":7},{"beat":327.5,"duration":0.47917,"midi":54,"velocity":89,"channel":1,"program":52},{"beat":327.5,"duration":0.47917,"midi":59,"velocity":90,"channel":1,"program":52},{"beat":327.5,"duration":0.47917,"midi":62,"velocity":89,"channel":1,"program":52},{"beat":327.5,"duration":0.47917,"midi":69,"velocity":108,"channel":6,"program":29},{"beat":327.5,"duration":0.47917,"midi":78,"velocity":102,"channel":0,"program":22},{"beat":327.52083,"duration":0.45833,"midi":45,"velocity":66,"channel":11,"program":29},{"beat":327.75,"duration":0.22917,"midi":38,"velocity":66,"channel":14,"program":7},{"beat":328.0,"duration":3.97917,"midi":43,"velocity":89,"channel":2,"program":33},{"beat":328.0,"duration":0.97917,"midi":43,"velocity":69,"channel":11,"program":29},{"beat":328.0,"duration":3.97917,"midi":43,"velocity":92,"channel":12,"program":25},{"beat":328.0,"duration":0.22917,"midi":43,"velocity":62,"channel":14,"program":7},{"beat":328.0,"duration":0.97917,"midi":50,"velocity":95,"channel":12,"program":25},{"beat":328.0,"duration":0.97917,"midi":55,"velocity":95,"channel":12,"program":25},{"beat":328.0,"duration":0.8125,"midi":57,"velocity":90,"channel":1,"program":52},{"beat":328.0,"duration":3.97917,"midi":59,"velocity":40,"channel":7,"program":51},{"beat":328.0,"duration":0.8125,"midi":62,"velocity":87,"channel":1,"program":52},{"beat":328.0,"duration":3.97917,"midi":62,"velocity":49,"channel":7,"program":51},{"beat":328.0,"duration":0.8125,"midi":66,"velocity":89,"channel":1,"program":52},{"beat":328.0,"duration":3.97917,"midi":67,"velocity":52,"channel":7,"program":51},{"beat":328.0,"duration":3.97917,"midi":69,"velocity":90,"channel":6,"program":29},{"beat":328.0,"duration":3.97917,"midi":74,"velocity":104,"channel":6,"program":29},{"beat":328.0,"duration":0.8125,"midi":81,"velocity":102,"channel":0,"program":22},{"beat":328.02083,"duration":0.95833,"midi":50,"velocity":68,"channel":11,"program":29},{"beat":328.02083,"duration":0.95833,"midi":57,"velocity":93,"channel":12,"program":25},{"beat":328.04167,"duration":0.9375,"midi":55,"velocity":70,"channel":11,"program":29},{"beat":328.04167,"duration":0.9375,"midi":62,"velocity":69,"channel":12,"program":25},{"beat":328.25,"duration":0.22917,"midi":43,"velocity":48,"channel":14,"program":7},{"beat":328.5,"duration":0.22917,"midi":43,"velocity":62,"channel":14,"program":7},{"beat":328.75,"duration":0.22917,"midi":43,"velocity":76,"channel":14,"program":7},{"beat":329.0,"duration":1.47917,"midi":43,"velocity":65,"channel":11,"program":29},{"beat":329.0,"duration":0.22917,"midi":43,"velocity":59,"channel":14,"program":7},{"beat":329.0,"duration":1.47917,"midi":50,"velocity":96,"channel":12,"program":25},{"beat":329.0,"duration":1.47917,"midi":55,"velocity":92,"channel":12,"program":25},{"beat":329.02083,"duration":1.45833,"midi":50,"velocity":64,"channel":11,"program":29},{"beat":329.02083,"duration":1.45833,"midi":57,"velocity":95,"channel":12,"program":25},{"beat":329.04167,"duration":1.4375,"midi":57,"velocity":68,"channel":11,"program":29},{"beat":329.04167,"duration":1.4375,"midi":62,"velocity":68,"channel":12,"program":25},{"beat":329.25,"duration":0.22917,"midi":55,"velocity":68,"channel":14,"program":7},{"beat":329.5,"duration":0.22917,"midi":43,"velocity":50,"channel":14,"program":7},{"beat":329.5,"duration":0.39583,"midi":57,"velocity":88,"channel":1,"program":52},{"beat":329.5,"duration":0.39583,"midi":62,"velocity":86,"channel":1,"program":52},{"beat":329.5,"duration":0.39583,"midi":66,"velocity":90,"channel":1,"program":52},{"beat":329.5,"duration":0.39583,"midi":81,"velocity":102,"channel":0,"program":22},{"beat":329.75,"duration":0.22917,"midi":43,"velocity":66,"channel":14,"program":7},{"beat":330.0,"duration":0.22917,"midi":43,"velocity":62,"channel":14,"program":7},{"beat":330.0,"duration":0.47917,"midi":57,"velocity":90,"channel":1,"program":52},{"beat":330.0,"duration":0.47917,"midi":62,"velocity":90,"channel":1,"program":52},{"beat":330.0,"duration":0.47917,"midi":66,"velocity":87,"channel":1,"program":52},{"beat":330.0,"duration":0.47917,"midi":81,"velocity":101,"channel":0,"program":22},{"beat":330.25,"duration":0.22917,"midi":43,"velocity":48,"channel":14,"program":7},{"beat":330.5,"duration":0.47917,"midi":43,"velocity":64,"channel":11,"program":29},{"beat":330.5,"duration":0.22917,"midi":43,"velocity":62,"channel":14,"program":7},{"beat":330.5,"duration":0.47917,"midi":50,"velocity":96,"channel":12,"program":25},{"beat":330.5,"duration":0.52083,"midi":54,"velocity":89,"channel":1,"program":52},{"beat":330.5,"duration":0.47917,"midi":55,"velocity":93,"channel":12,"program":25},{"beat":330.5,"duration":0.52083,"midi":59,"velocity":90,"channel":1,"program":52},{"beat":330.5,"duration":0.52083,"midi":62,"velocity":88,"channel":1,"program":52},{"beat":330.5,"duration":0.52083,"midi":78,"velocity":98,"channel":0,"program":22},{"beat":330.52083,"duration":0.45833,"midi":50,"velocity":68,"channel":11,"program":29},{"beat":330.52083,"duration":0.45833,"midi":57,"velocity":96,"channel":12,"program":25},{"beat":330.54167,"duration":0.4375,"midi":57,"velocity":70,"channel":11,"program":29},{"beat":330.54167,"duration":0.4375,"midi":62,"velocity":72,"channel":12,"program":25},{"beat":330.75,"duration":0.22917,"midi":43,"velocity":76,"channel":14,"program":7},{"beat":331.0,"duration":0.97917,"midi":43,"velocity":64,"channel":11,"program":29},{"beat":331.0,"duration":0.22917,"midi":43,"velocity":59,"channel":14,"program":7},{"beat":331.0,"duration":0.97917,"midi":50,"velocity":96,"channel":12,"program":25},{"beat":331.0,"duration":0.97917,"midi":55,"velocity":97,"channel":12,"program":25},{"beat":331.02083,"duration":0.95833,"midi":50,"velocity":67,"channel":11,"program":29},{"beat":331.02083,"duration":0.95833,"midi":57,"velocity":97,"channel":12,"program":25},{"beat":331.04167,"duration":0.9375,"midi":57,"velocity":68,"channel":11,"program":29},{"beat":331.04167,"duration":0.9375,"midi":62,"velocity":68,"channel":12,"program":25},{"beat":331.25,"duration":0.22917,"midi":43,"velocity":68,"channel":14,"program":7},{"beat":331.5,"duration":0.22917,"midi":43,"velocity":50,"channel":14,"program":7},{"beat":331.5,"duration":0.72917,"midi":52,"velocity":87,"channel":1,"program":52},{"beat":331.5,"duration":0.72917,"midi":57,"velocity":90,"channel":1,"program":52},{"beat":331.5,"duration":0.72917,"midi":61,"velocity":87,"channel":1,"program":52},{"beat":331.5,"duration":0.72917,"midi":76,"velocity":102,"channel":0,"program":22},{"beat":331.75,"duration":0.22917,"midi":43,"velocity":66,"channel":14,"program":7},{"beat":332.0,"duration":0.22917,"midi":33,"velocity":62,"channel":14,"program":7},{"beat":332.0,"duration":3.97917,"midi":45,"velocity":87,"channel":2,"program":33},{"beat":332.0,"duration":0.97917,"midi":45,"velocity":69,"channel":11,"program":29},{"beat":332.0,"duration":3.97917,"midi":45,"velocity":92,"channel":12,"program":25},{"beat":332.0,"duration":0.97917,"midi":52,"velocity":97,"channel":12,"program":25},{"beat":332.0,"duration":3.97917,"midi":57,"velocity":42,"channel":7,"program":51},{"beat":332.0,"duration":3.97917,"midi":61,"velocity":51,"channel":7,"program":51},{"beat":332.0,"duration":3.97917,"midi":64,"velocity":52,"channel":7,"program":51},{"beat":332.0,"duration":3.97917,"midi":69,"velocity":100,"channel":6,"program":29},{"beat":332.0,"duration":3.97917,"midi":73,"velocity":104,"channel":6,"program":29},{"beat":332.02083,"duration":0.20833,"midi":52,"velocity":67,"channel":11,"program":29},{"beat":332.02083,"duration":0.95833,"midi":57,"velocity":90,"channel":12,"program":25},{"beat":332.04167,"duration":0.9375,"midi":57,"velocity":64,"channel":11,"program":29},{"beat":332.04167,"duration":0.9375,"midi":61,"velocity":98,"channel":12,"program":25},{"beat":332.25,"duration":0.22917,"midi":33,"velocity":48,"channel":14,"program":7},{"beat":332.27083,"duration":0.20833,"midi":52,"velocity":80,"channel":11,"program":29},{"beat":332.5,"duration":0.22917,"midi":33,"velocity":62,"channel":14,"program":7},{"beat":332.5,"duration":0.9375,"midi":54,"velocity":87,"channel":1,"program":52},{"beat":332.5,"duration":0.9375,"midi":57,"velocity":90,"channel":1,"program":52},{"beat":332.5,"duration":0.9375,"midi":62,"velocity":88,"channel":1,"program":52},{"beat":332.5,"duration":0.9375,"midi":78,"velocity":102,"channel":0,"program":22},{"beat":332.52083,"duration":0.45833,"midi":52,"velocity":67,"channel":11,"program":29},{"beat":332.75,"duration":0.22917,"midi":33,"velocity":76,"channel":14,"program":7},{"beat":333.0,"duration":0.22917,"midi":33,"velocity":59,"channel":14,"program":7},{"beat":333.0,"duration":0.47917,"midi":45,"velocity":69,"channel":11,"program":29},{"beat":333.0,"duration":0.47917,"midi":52,"velocity":99,"channel":12,"program":25},{"beat":333.02083,"duration":0.45833,"midi":52,"velocity":68,"channel":11,"program":29},{"beat":333.02083,"duration":0.45833,"midi":57,"velocity":98,"channel":12,"program":25},{"beat":333.04167,"duration":0.4375,"midi":57,"velocity":70,"channel":11,"program":29},{"beat":333.04167,"duration":0.4375,"midi":61,"velocity":93,"channel":12,"program":25},{"beat":333.25,"duration":0.22917,"midi":45,"velocity":68,"channel":14,"program":7},{"beat":333.5,"duration":0.22917,"midi":33,"velocity":50,"channel":14,"program":7},{"beat":333.5,"duration":0.97917,"midi":45,"velocity":68,"channel":11,"program":29},{"beat":333.5,"duration":0.97917,"midi":52,"velocity":98,"channel":12,"program":25},{"beat":333.5,"duration":0.5625,"midi":54,"velocity":90,"channel":1,"program":52},{"beat":333.5,"duration":0.5625,"midi":57,"velocity":88,"channel":1,"program":52},{"beat":333.5,"duration":0.5625,"midi":62,"velocity":87,"channel":1,"program":52},{"beat":333.5,"duration":0.5625,"midi":78,"velocity":101,"channel":0,"program":22},{"beat":333.52083,"duration":0.95833,"midi":52,"velocity":69,"channel":11,"program":29},{"beat":333.52083,"duration":0.95833,"midi":57,"velocity":97,"channel":12,"program":25},{"beat":333.54167,"duration":0.9375,"midi":57,"velocity":70,"channel":11,"program":29},{"beat":333.54167,"duration":0.9375,"midi":61,"velocity":96,"channel":12,"program":25},{"beat":333.75,"duration":0.22917,"midi":33,"velocity":66,"channel":14,"program":7},{"beat":334.0,"duration":0.22917,"midi":33,"velocity":62,"channel":14,"program":7},{"beat":334.25,"duration":0.22917,"midi":33,"velocity":48,"channel":14,"program":7},{"beat":334.5,"duration":0.22917,"midi":33,"velocity":62,"channel":14,"program":7},{"beat":334.5,"duration":0.97917,"midi":45,"velocity":68,"channel":11,"program":29},{"beat":334.5,"duration":0.47917,"midi":52,"velocity":96,"channel":12,"program":25},{"beat":334.5,"duration":0.27083,"midi":57,"velocity":90,"channel":1,"program":52},{"beat":334.5,"duration":0.27083,"midi":62,"velocity":90,"channel":1,"program":52},{"beat":334.5,"duration":0.27083,"midi":66,"velocity":86,"channel":1,"program":52},{"beat":334.5,"duration":0.27083,"midi":81,"velocity":100,"channel":0,"program":22},{"beat":334.52083,"duration":0.95833,"midi":52,"velocity":65,"channel":11,"program":29},{"beat":334.52083,"duration":0.45833,"midi":57,"velocity":96,"channel":12,"program":25},{"beat":334.54167,"duration":0.9375,"midi":57,"velocity":66,"channel":11,"program":29},{"beat":334.54167,"duration":0.4375,"midi":61,"velocity":91,"channel":12,"program":25},{"beat":334.75,"duration":0.22917,"midi":33,"velocity":76,"channel":14,"program":7},{"beat":335.0,"duration":0.22917,"midi":33,"velocity":59,"channel":14,"program":7},{"beat":335.0,"duration":0.97917,"midi":52,"velocity":96,"channel":12,"program":25},{"beat":335.0,"duration":0.3125,"midi":57,"velocity":88,"channel":1,"program":52},{"beat":335.0,"duration":0.3125,"midi":62,"velocity":90,"channel":1,"program":52},{"beat":335.0,"duration":0.3125,"midi":66,"velocity":89,"channel":1,"program":52},{"beat":335.0,"duration":0.3125,"midi":81,"velocity":101,"channel":0,"program":22},{"beat":335.02083,"duration":0.95833,"midi":57,"velocity":92,"channel":12,"program":25},{"beat":335.04167,"duration":0.9375,"midi":61,"velocity":92,"channel":12,"program":25},{"beat":335.25,"duration":0.22917,"midi":33,"velocity":68,"channel":14,"program":7},{"beat":335.5,"duration":0.22917,"midi":33,"velocity":50,"channel":14,"program":7},{"beat":335.5,"duration":0.47917,"midi":45,"velocity":58,"channel":11,"program":29},{"beat":335.5,"duration":0.47917,"midi":54,"velocity":89,"channel":1,"program":52},{"beat":335.5,"duration":0.47917,"midi":59,"velocity":89,"channel":1,"program":52},{"beat":335.5,"duration":0.47917,"midi":62,"velocity":90,"channel":1,"program":52},{"beat":335.5,"duration":0.47917,"midi":78,"velocity":99,"channel":0,"program":22},{"beat":335.52083,"duration":0.45833,"midi":52,"velocity":61,"channel":11,"program":29},{"beat":335.54167,"duration":0.4375,"midi":57,"velocity":63,"channel":11,"program":29},{"beat":335.75,"duration":0.22917,"midi":33,"velocity":66,"channel":14,"program":7},{"beat":336.0,"duration":0.22917,"midi":35,"velocity":62,"channel":14,"program":7},{"beat":336.0,"duration":3.47917,"midi":47,"velocity":91,"channel":2,"program":33},{"beat":336.0,"duration":0.97917,"midi":47,"velocity":68,"channel":11,"program":29},{"beat":336.0,"duration":3.97917,"midi":47,"velocity":92,"channel":12,"program":25},{"beat":336.0,"duration":0.97917,"midi":50,"velocity":99,"channel":12,"program":25},{"beat":336.0,"duration":0.72917,"midi":57,"velocity":89,"channel":1,"program":52},{"beat":336.0,"duration":3.97917,"midi":59,"velocity":39,"channel":7,"program":51},{"beat":336.0,"duration":0.72917,"midi":62,"velocity":89,"channel":1,"program":52},{"beat":336.0,"duration":3.97917,"midi":62,"velocity":51,"channel":7,"program":51},{"beat":336.0,"duration":0.72917,"midi":66,"velocity":90,"channel":1,"program":52},{"beat":336.0,"duration":3.97917,"midi":66,"velocity":50,"channel":7,"program":51},{"beat":336.0,"duration":3.97917,"midi":69,"velocity":90,"channel":6,"program":29},{"beat":336.0,"duration":5.47917,"midi":74,"velocity":106,"channel":6,"program":29},{"beat":336.0,"duration":0.72917,"midi":81,"velocity":102,"channel":0,"program":22},{"beat":336.02083,"duration":1.95833,"midi":54,"velocity":70,"channel":11,"program":29},{"beat":336.02083,"duration":0.95833,"midi":54,"velocity":98,"channel":12,"program":25},{"beat":336.04167,"duration":0.9375,"midi":57,"velocity":95,"channel":12,"program":25},{"beat":336.25,"duration":0.22917,"midi":35,"velocity":48,"channel":14,"program":7},{"beat":336.5,"duration":0.22917,"midi":35,"velocity":62,"channel":14,"program":7},{"beat":336.75,"duration":0.22917,"midi":35,"velocity":76,"channel":14,"program":7},{"beat":337.0,"duration":0.22917,"midi":35,"velocity":59,"channel":14,"program":7},{"beat":337.0,"duration":0.97917,"midi":50,"velocity":67,"channel":11,"program":29},{"beat":337.0,"duration":0.47917,"midi":50,"velocity":95,"channel":12,"program":25},{"beat":337.02083,"duration":0.45833,"midi":54,"velocity":94,"channel":12,"program":25},{"beat":337.02083,"duration":0.95833,"midi":57,"velocity":51,"channel":11,"program":29},{"beat":337.04167,"duration":0.4375,"midi":57,"velocity":95,"channel":12,"program":25},{"beat":337.25,"duration":0.22917,"midi":47,"velocity":68,"channel":14,"program":7},{"beat":337.5,"duration":0.22917,"midi":35,"velocity":50,"channel":14,"program":7},{"beat":337.5,"duration":0.97917,"midi":50,"velocity":98,"channel":12,"program":25},{"beat":337.5,"duration":0.47917,"midi":57,"velocity":89,"channel":1,"program":52},{"beat":337.5,"duration":0.47917,"midi":62,"velocity":90,"channel":1,"program":52},{"beat":337.5,"duration":0.47917,"midi":66,"velocity":90,"channel":1,"program":52},{"beat":337.5,"duration":0.47917,"midi":81,"velocity":98,"channel":0,"program":22},{"beat":337.52083,"duration":0.95833,"midi":54,"velocity":95,"channel":12,"program":25},{"beat":337.54167,"duration":0.9375,"midi":57,"velocity":94,"channel":12,"program":25},{"beat":337.75,"duration":0.22917,"midi":35,"velocity":66,"channel":14,"program":7},{"beat":338.0,"duration":0.22917,"midi":35,"velocity":62,"channel":14,"program":7},{"beat":338.0,"duration":0.47917,"midi":47,"velocity":64,"channel":11,"program":29},{"beat":338.0,"duration":0.47917,"midi":57,"velocity":87,"channel":1,"program":52},{"beat":338.0,"duration":0.47917,"midi":62,"velocity":90,"channel":1,"program":52},{"beat":338.0,"duration":0.47917,"midi":66,"velocity":89,"channel":1,"program":52},{"beat":338.0,"duration":0.47917,"midi":81,"velocity":101,"channel":0,"program":22},{"beat":338.02083,"duration":0.45833,"midi":54,"velocity":70,"channel":11,"program":29},{"beat":338.25,"duration":0.22917,"midi":35,"velocity":48,"channel":14,"program":7},{"beat":338.5,"duration":0.22917,"midi":35,"velocity":62,"channel":14,"program":7},{"beat":338.5,"duration":0.97917,"midi":47,"velocity":64,"channel":11,"program":29},{"beat":338.5,"duration":0.97917,"midi":50,"velocity":97,"channel":12,"program":25},{"beat":338.5,"duration":0.47917,"midi":54,"velocity":89,"channel":1,"program":52},{"beat":338.5,"duration":0.47917,"midi":59,"velocity":89,"channel":1,"program":52},{"beat":338.5,"duration":0.47917,"midi":62,"velocity":89,"channel":1,"program":52},{"beat":338.5,"duration":0.47917,"midi":78,"velocity":102,"channel":0,"program":22},{"beat":338.52083,"duration":0.95833,"midi":54,"velocity":64,"channel":11,"program":29},{"beat":338.52083,"duration":0.95833,"midi":54,"velocity":95,"channel":12,"program":25},{"beat":338.54167,"duration":0.9375,"midi":57,"velocity":96,"channel":12,"program":25},{"beat":338.75,"duration":0.22917,"midi":35,"velocity":76,"channel":14,"program":7},{"beat":339.0,"duration":0.22917,"midi":35,"velocity":59,"channel":14,"program":7},{"beat":339.0,"duration":0.35417,"midi":54,"velocity":88,"channel":1,"program":52},{"beat":339.0,"duration":0.35417,"midi":59,"velocity":90,"channel":1,"program":52},{"beat":339.0,"duration":0.35417,"midi":62,"velocity":87,"channel":1,"program":52},{"beat":339.0,"duration":0.35417,"midi":78,"velocity":101,"channel":0,"program":22},{"beat":339.25,"duration":0.22917,"midi":35,"velocity":68,"channel":14,"program":7},{"beat":339.5,"duration":0.22917,"midi":35,"velocity":50,"channel":14,"program":7},{"beat":339.5,"duration":0.47917,"midi":45,"velocity":80,"channel":2,"program":33},{"beat":339.5,"duration":0.22917,"midi":47,"velocity":65,"channel":11,"program":29},{"beat":339.5,"duration":0.22917,"midi":50,"velocity":96,"channel":12,"program":25},{"beat":339.5,"duration":0.8125,"midi":52,"velocity":90,"channel":1,"program":52},{"beat":339.5,"duration":0.8125,"midi":57,"velocity":89,"channel":1,"program":52},{"beat":339.5,"duration":0.8125,"midi":61,"velocity":88,"channel":1,"program":52},{"beat":339.5,"duration":0.8125,"midi":76,"velocity":102,"channel":0,"program":22},{"beat":339.52083,"duration":0.20833,"midi":54,"velocity":64,"channel":11,"program":29},{"beat":339.52083,"duration":0.20833,"midi":54,"velocity":95,"channel":12,"program":25},{"beat":339.54167,"duration":0.1875,"midi":57,"velocity":94,"channel":12,"program":25},{"beat":339.75,"duration":0.22917,"midi":35,"velocity":66,"channel":14,"program":7},{"beat":339.75,"duration":0.22917,"midi":47,"velocity":65,"channel":11,"program":29},{"beat":339.75,"duration":0.22917,"midi":50,"velocity":98,"channel":12,"program":25},{"beat":339.77083,"duration":0.20833,"midi":54,"velocity":64,"channel":11,"program":29},{"beat":339.77083,"duration":0.20833,"midi":54,"velocity":93,"channel":12,"program":25},{"beat":339.79167,"duration":0.1875,"midi":57,"velocity":94,"channel":12,"program":25},{"beat":340.0,"duration":0.22917,"midi":30,"velocity":62,"channel":14,"program":7},{"beat":340.0,"duration":3.97917,"midi":42,"velocity":88,"channel":2,"program":33},{"beat":340.0,"duration":0.97917,"midi":42,"velocity":64,"channel":11,"program":29},{"beat":340.0,"duration":3.97917,"midi":42,"velocity":95,"channel":12,"program":25},{"beat":340.0,"duration":0.97917,"midi":50,"velocity":92,"channel":12,"program":25},{"beat":340.0,"duration":3.97917,"midi":57,"velocity":39,"channel":7,"program":51},{"beat":340.0,"duration":3.97917,"midi":62,"velocity":52,"channel":7,"program":51},{"beat":340.0,"duration":3.97917,"midi":66,"velocity":52,"channel":7,"program":51},{"beat":340.02083,"duration":1.95833,"midi":50,"velocity":69,"channel":11,"program":29},{"beat":340.02083,"duration":0.95833,"midi":54,"velocity":94,"channel":12,"program":25},{"beat":340.04167,"duration":0.9375,"midi":52,"velocity":69,"channel":11,"program":29},{"beat":340.04167,"duration":0.9375,"midi":57,"velocity":95,"channel":12,"program":25},{"beat":340.25,"duration":0.22917,"midi":30,"velocity":48,"channel":14,"program":7},{"beat":340.5,"duration":0.22917,"midi":30,"velocity":62,"channel":14,"program":7},{"beat":340.5,"duration":0.47917,"midi":52,"velocity":90,"channel":1,"program":52},{"beat":340.5,"duration":0.47917,"midi":57,"velocity":88,"channel":1,"program":52},{"beat":340.5,"duration":0.47917,"midi":61,"velocity":89,"channel":1,"program":52},{"beat":340.5,"duration":0.47917,"midi":76,"velocity":100,"channel":0,"program":22},{"beat":340.75,"duration":0.22917,"midi":30,"velocity":76,"channel":14,"program":7},{"beat":341.0,"duration":0.22917,"midi":30,"velocity":59,"channel":14,"program":7},{"beat":341.0,"duration":0.97917,"midi":42,"velocity":65,"channel":11,"program":29},{"beat":341.0,"duration":0.47917,"midi":50,"velocity":90,"channel":12,"program":25},{"beat":341.0,"duration":0.47917,"midi":54,"velocity":90,"channel":1,"program":52},{"beat":341.0,"duration":0.47917,"midi":57,"velocity":88,"channel":1,"program":52},{"beat":341.0,"duration":0.47917,"midi":62,"velocity":89,"channel":1,"program":52},{"beat":341.0,"duration":0.47917,"midi":78,"velocity":100,"channel":0,"program":22},{"beat":341.02083,"duration":0.95833,"midi":52,"velocity":69,"channel":11,"program":29},{"beat":341.02083,"duration":0.45833,"midi":54,"velocity":92,"channel":12,"program":25},{"beat":341.04167,"duration":0.4375,"midi":57,"velocity":94,"channel":12,"program":25},{"beat":341.25,"duration":0.22917,"midi":42,"velocity":68,"channel":14,"program":7},{"beat":341.5,"duration":0.22917,"midi":30,"velocity":50,"channel":14,"program":7},{"beat":341.5,"duration":0.72917,"midi":50,"velocity":88,"channel":1,"program":52},{"beat":341.5,"duration":0.97917,"midi":50,"velocity":94,"channel":12,"program":25},{"beat":341.5,"duration":0.72917,"midi":57,"velocity":89,"channel":1,"program":52},{"beat":341.5,"duration":0.72917,"midi":62,"velocity":89,"channel":1,"program":52},{"beat":341.5,"duration":0.72917,"midi":74,"velocity":101,"channel":0,"program":22},{"beat":341.5,"duration":0.29167,"midi":74,"velocity":108,"channel":6,"program":29},{"beat":341.52083,"duration":0.95833,"midi":54,"velocity":96,"channel":12,"program":25},{"beat":341.54167,"duration":0.9375,"midi":57,"velocity":98,"channel":12,"program":25},{"beat":341.75,"duration":0.22917,"midi":30,"velocity":66,"channel":14,"program":7},{"beat":341.75,"duration":2.22917,"midi":76,"velocity":106,"channel":6,"program":29},{"beat":342.0,"duration":0.22917,"midi":30,"velocity":62,"channel":14,"program":7},{"beat":342.0,"duration":0.47917,"midi":42,"velocity":68,"channel":11,"program":29},{"beat":342.02083,"duration":0.45833,"midi":50,"velocity":66,"channel":11,"program":29},{"beat":342.04167,"duration":0.4375,"midi":54,"velocity":69,"channel":11,"program":29},{"beat":342.25,"duration":0.22917,"midi":30,"velocity":48,"channel":14,"program":7},{"beat":342.5,"duration":0.22917,"midi":30,"velocity":62,"channel":14,"program":7},{"beat":342.5,"duration":0.47917,"midi":42,"velocity":70,"channel":11,"program":29},{"beat":342.5,"duration":0.47917,"midi":50,"velocity":90,"channel":12,"program":25},{"beat":342.5,"duration":0.47917,"midi":57,"velocity":86,"channel":1,"program":52},{"beat":342.5,"duration":0.47917,"midi":62,"velocity":87,"channel":1,"program":52},{"beat":342.5,"duration":0.47917,"midi":66,"velocity":87,"channel":1,"program":52},{"beat":342.5,"duration":1.47917,"midi":69,"velocity":109,"channel":6,"program":29},{"beat":342.5,"duration":0.47917,"midi":81,"velocity":102,"channel":0,"program":22},{"beat":342.52083,"duration":1.45833,"midi":50,"velocity":67,"channel":11,"program":29},{"beat":342.52083,"duration":0.45833,"midi":54,"velocity":92,"channel":12,"program":25},{"beat":342.54167,"duration":1.4375,"midi":54,"velocity":70,"channel":11,"program":29},{"beat":342.54167,"duration":0.4375,"midi":57,"velocity":94,"channel":12,"program":25},{"beat":342.75,"duration":0.22917,"midi":30,"velocity":76,"channel":14,"program":7},{"beat":343.0,"duration":0.22917,"midi":30,"velocity":59,"channel":14,"program":7},{"beat":343.0,"duration":0.97917,"midi":42,"velocity":70,"channel":11,"program":29},{"beat":343.0,"duration":0.97917,"midi":50,"velocity":92,"channel":12,"program":25},{"beat":343.0,"duration":0.39583,"midi":57,"velocity":87,"channel":1,"program":52},{"beat":343.0,"duration":0.39583,"midi":62,"velocity":90,"channel":1,"program":52},{"beat":343.0,"duration":0.39583,"midi":66,"velocity":89,"channel":1,"program":52},{"beat":343.0,"duration":0.39583,"midi":81,"velocity":102,"channel":0,"program":22},{"beat":343.02083,"duration":0.95833,"midi":54,"velocity":97,"channel":12,"program":25},{"beat":343.04167,"duration":0.9375,"midi":57,"velocity":97,"channel":12,"program":25},{"beat":343.25,"duration":0.22917,"midi":30,"velocity":68,"channel":14,"program":7},{"beat":343.5,"duration":0.22917,"midi":30,"velocity":50,"channel":14,"program":7},{"beat":343.5,"duration":0.39583,"midi":54,"velocity":88,"channel":1,"program":52},{"beat":343.5,"duration":0.39583,"midi":59,"velocity":90,"channel":1,"program":52},{"beat":343.5,"duration":0.39583,"midi":62,"velocity":87,"channel":1,"program":52},{"beat":343.5,"duration":0.39583,"midi":78,"velocity":101,"channel":0,"program":22},{"beat":343.75,"duration":0.22917,"midi":30,"velocity":66,"channel":14,"program":7},{"beat":344.0,"duration":3.97917,"midi":31,"velocity":80,"channel":2,"program":33},{"beat":344.0,"duration":0.97917,"midi":43,"velocity":70,"channel":11,"program":29},{"beat":344.0,"duration":3.97917,"midi":43,"velocity":95,"channel":12,"program":25},{"beat":344.0,"duration":0.22917,"midi":43,"velocity":62,"channel":14,"program":7},{"beat":344.0,"duration":0.97917,"midi":55,"velocity":93,"channel":12,"program":25},{"beat":344.0,"duration":0.72917,"midi":57,"velocity":88,"channel":1,"program":52},{"beat":344.0,"duration":3.97917,"midi":59,"velocity":40,"channel":7,"program":51},{"beat":344.0,"duration":0.72917,"midi":62,"velocity":89,"channel":1,"program":52},{"beat":344.0,"duration":3.97917,"midi":62,"velocity":49,"channel":7,"program":51},{"beat":344.0,"duration":0.72917,"midi":66,"velocity":89,"channel":1,"program":52},{"beat":344.0,"duration":3.97917,"midi":67,"velocity":52,"channel":7,"program":51},{"beat":344.0,"duration":3.47917,"midi":69,"velocity":105,"channel":6,"program":29},{"beat":344.0,"duration":3.47917,"midi":74,"velocity":107,"channel":6,"program":29},{"beat":344.0,"duration":0.72917,"midi":81,"velocity":102,"channel":0,"program":22},{"beat":344.02083,"duration":0.95833,"midi":50,"velocity":65,"channel":11,"program":29},{"beat":344.02083,"duration":0.95833,"midi":59,"velocity":91,"channel":12,"program":25},{"beat":344.04167,"duration":0.9375,"midi":55,"velocity":69,"channel":11,"program":29},{"beat":344.04167,"duration":0.9375,"midi":62,"velocity":96,"channel":12,"program":25},{"beat":344.25,"duration":0.22917,"midi":43,"velocity":48,"channel":14,"program":7},{"beat":344.5,"duration":0.22917,"midi":43,"velocity":62,"channel":14,"program":7},{"beat":344.75,"duration":0.22917,"midi":43,"velocity":76,"channel":14,"program":7},{"beat":345.0,"duration":0.47917,"midi":43,"velocity":70,"channel":11,"program":29},{"beat":345.0,"duration":0.22917,"midi":43,"velocity":59,"channel":14,"program":7},{"beat":345.0,"duration":0.47917,"midi":55,"velocity":88,"channel":12,"program":25},{"beat":345.02083,"duration":0.45833,"midi":50,"velocity":65,"channel":11,"program":29},{"beat":345.02083,"duration":0.45833,"midi":59,"velocity":90,"channel":12,"program":25},{"beat":345.04167,"duration":0.4375,"midi":62,"velocity":85,"channel":12,"program":25},{"beat":345.25,"duration":0.22917,"midi":43,"velocity":68,"channel":14,"program":7},{"beat":345.5,"duration":0.97917,"midi":43,"velocity":69,"channel":11,"program":29},{"beat":345.5,"duration":0.22917,"midi":43,"velocity":50,"channel":14,"program":7},{"beat":345.5,"duration":0.97917,"midi":55,"velocity":94,"channel":12,"program":25},{"beat":345.5,"duration":0.47917,"midi":57,"velocity":87,"channel":1,"program":52},{"beat":345.5,"duration":0.47917,"midi":62,"velocity":90,"channel":1,"program":52},{"beat":345.5,"duration":0.47917,"midi":66,"velocity":90,"channel":1,"program":52},{"beat":345.5,"duration":0.47917,"midi":81,"velocity":102,"channel":0,"program":22},{"beat":345.52083,"duration":0.95833,"midi":50,"velocity":70,"channel":11,"program":29},{"beat":345.52083,"duration":0.95833,"midi":59,"velocity":95,"channel":12,"program":25},{"beat":345.54167,"duration":0.9375,"midi":55,"velocity":68,"channel":11,"program":29},{"beat":345.54167,"duration":0.9375,"midi":62,"velocity":96,"channel":12,"program":25},{"beat":345.75,"duration":0.22917,"midi":43,"velocity":66,"channel":14,"program":7},{"beat":346.0,"duration":0.22917,"midi":43,"velocity":62,"channel":14,"program":7},{"beat":346.0,"duration":0.47917,"midi":57,"velocity":88,"channel":1,"program":52},{"beat":346.0,"duration":0.47917,"midi":62,"velocity":87,"channel":1,"program":52},{"beat":346.0,"duration":0.47917,"midi":66,"velocity":90,"channel":1,"program":52},{"beat":346.0,"duration":0.47917,"midi":81,"velocity":100,"channel":0,"program":22},{"beat":346.25,"duration":0.22917,"midi":43,"velocity":48,"channel":14,"program":7},{"beat":346.5,"duration":0.97917,"midi":43,"velocity":68,"channel":11,"program":29},{"beat":346.5,"duration":0.22917,"midi":43,"velocity":62,"channel":14,"program":7},{"beat":346.5,"duration":0.47917,"midi":54,"velocity":89,"channel":1,"program":52},{"beat":346.5,"duration":0.47917,"midi":55,"velocity":98,"channel":12,"program":25},{"beat":346.5,"duration":0.47917,"midi":59,"velocity":86,"channel":1,"program":52},{"beat":346.5,"duration":0.47917,"midi":62,"velocity":90,"channel":1,"program":52},{"beat":346.5,"duration":0.47917,"midi":78,"velocity":99,"channel":0,"program":22},{"beat":346.52083,"duration":0.95833,"midi":50,"velocity":69,"channel":11,"program":29},{"beat":346.52083,"duration":0.45833,"midi":59,"velocity":98,"channel":12,"program":25},{"beat":346.54167,"duration":0.9375,"midi":55,"velocity":68,"channel":11,"program":29},{"beat":346.54167,"duration":0.4375,"midi":62,"velocity":98,"channel":12,"program":25},{"beat":346.75,"duration":0.22917,"midi":43,"velocity":76,"channel":14,"program":7},{"beat":347.0,"duration":0.22917,"midi":43,"velocity":59,"channel":14,"program":7},{"beat":347.0,"duration":0.35417,"midi":54,"velocity":89,"channel":1,"program":52},{"beat":347.0,"duration":0.47917,"midi":55,"velocity":96,"channel":12,"program":25},{"beat":347.0,"duration":0.35417,"midi":59,"velocity":86,"channel":1,"program":52},{"beat":347.0,"duration":0.35417,"midi":62,"velocity":89,"channel":1,"program":52},{"beat":347.0,"duration":0.35417,"midi":78,"velocity":100,"channel":0,"program":22},{"beat":347.02083,"duration":0.45833,"midi":59,"velocity":98,"channel":12,"program":25},{"beat":347.04167,"duration":0.4375,"midi":62,"velocity":94,"channel":12,"program":25},{"beat":347.25,"duration":0.22917,"midi":43,"velocity":68,"channel":14,"program":7},{"beat":347.5,"duration":0.22917,"midi":43,"velocity":67,"channel":11,"program":29},{"beat":347.5,"duration":0.22917,"midi":43,"velocity":50,"channel":14,"program":7},{"beat":347.5,"duration":0.72917,"midi":52,"velocity":89,"channel":1,"program":52},{"beat":347.5,"duration":0.22917,"midi":55,"velocity":89,"channel":12,"program":25},{"beat":347.5,"duration":0.72917,"midi":57,"velocity":90,"channel":1,"program":52},{"beat":347.5,"duration":0.72917,"midi":69,"velocity":87,"channel":1,"program":52},{"beat":347.5,"duration":0.72917,"midi":76,"velocity":102,"channel":0,"program":22},{"beat":347.52083,"duration":0.20833,"midi":50,"velocity":68,"channel":11,"program":29},{"beat":347.52083,"duration":0.20833,"midi":59,"velocity":90,"channel":12,"program":25},{"beat":347.54167,"duration":0.1875,"midi":55,"velocity":68,"channel":11,"program":29},{"beat":347.54167,"duration":0.1875,"midi":62,"velocity":84,"channel":12,"program":25},{"beat":347.75,"duration":0.22917,"midi":43,"velocity":59,"channel":11,"program":29},{"beat":347.75,"duration":0.22917,"midi":43,"velocity":66,"channel":14,"program":7},{"beat":347.75,"duration":0.22917,"midi":55,"velocity":90,"channel":12,"program":25},{"beat":347.77083,"duration":0.20833,"midi":50,"velocity":60,"channel":11,"program":29},{"beat":347.77083,"duration":0.20833,"midi":59,"velocity":89,"channel":12,"program":25},{"beat":347.79167,"duration":0.1875,"midi":55,"velocity":57,"channel":11,"program":29},{"beat":347.79167,"duration":0.1875,"midi":62,"velocity":87,"channel":12,"program":25},{"beat":348.0,"duration":1.47917,"midi":33,"velocity":95,"channel":2,"program":33},{"beat":348.0,"duration":0.22917,"midi":33,"velocity":62,"channel":14,"program":7},{"beat":348.0,"duration":0.97917,"midi":45,"velocity":65,"channel":11,"program":29},{"beat":348.0,"duration":3.97917,"midi":45,"velocity":91,"channel":12,"program":25},{"beat":348.0,"duration":0.97917,"midi":52,"velocity":93,"channel":12,"program":25},{"beat":348.0,"duration":3.97917,"midi":57,"velocity":42,"channel":7,"program":51},{"beat":348.0,"duration":3.97917,"midi":61,"velocity":51,"channel":7,"program":51},{"beat":348.0,"duration":3.97917,"midi":64,"velocity":52,"channel":7,"program":51},{"beat":348.0,"duration":3.97917,"midi":69,"velocity":108,"channel":6,"program":29},{"beat":348.0,"duration":3.97917,"midi":73,"velocity":107,"channel":6,"program":29},{"beat":348.02083,"duration":0.95833,"midi":52,"velocity":67,"channel":11,"program":29},{"beat":348.02083,"duration":0.95833,"midi":57,"velocity":98,"channel":12,"program":25},{"beat":348.04167,"duration":0.9375,"midi":57,"velocity":66,"channel":11,"program":29},{"beat":348.04167,"duration":0.9375,"midi":61,"velocity":95,"channel":12,"program":25},{"beat":348.25,"duration":0.22917,"midi":33,"velocity":48,"channel":14,"program":7},{"beat":348.5,"duration":0.22917,"midi":33,"velocity":62,"channel":14,"program":7},{"beat":348.5,"duration":0.72917,"midi":54,"velocity":89,"channel":1,"program":52},{"beat":348.5,"duration":0.72917,"midi":57,"velocity":86,"channel":1,"program":52},{"beat":348.5,"duration":0.72917,"midi":69,"velocity":88,"channel":1,"program":52},{"beat":348.5,"duration":0.72917,"midi":78,"velocity":99,"channel":0,"program":22},{"beat":348.75,"duration":0.22917,"midi":33,"velocity":76,"channel":14,"program":7},{"beat":349.0,"duration":0.22917,"midi":33,"velocity":59,"channel":14,"program":7},{"beat":349.0,"duration":0.47917,"midi":45,"velocity":68,"channel":11,"program":29},{"beat":349.0,"duration":1.47917,"midi":52,"velocity":97,"channel":12,"program":25},{"beat":349.02083,"duration":0.45833,"midi":52,"velocity":69,"channel":11,"program":29},{"beat":349.02083,"duration":1.45833,"midi":57,"velocity":92,"channel":12,"program":25},{"beat":349.04167,"duration":0.4375,"midi":57,"velocity":50,"channel":11,"program":29},{"beat":349.04167,"duration":1.4375,"midi":61,"velocity":91,"channel":12,"program":25},{"beat":349.25,"duration":0.22917,"midi":33,"velocity":68,"channel":14,"program":7},{"beat":349.5,"duration":0.22917,"midi":33,"velocity":50,"channel":14,"program":7},{"beat":349.5,"duration":0.47917,"midi":37,"velocity":89,"channel":2,"program":33},{"beat":349.5,"duration":0.97917,"midi":45,"velocity":67,"channel":11,"program":29},{"beat":349.5,"duration":0.72917,"midi":52,"velocity":87,"channel":1,"program":52},{"beat":349.5,"duration":0.72917,"midi":57,"velocity":88,"channel":1,"program":52},{"beat":349.5,"duration":0.72917,"midi":69,"velocity":89,"channel":1,"program":52},{"beat":349.5,"duration":0.72917,"midi":76,"velocity":101,"channel":0,"program":22},{"beat":349.52083,"duration":0.95833,"midi":52,"velocity":68,"channel":11,"program":29},{"beat":349.54167,"duration":0.9375,"midi":57,"velocity":69,"channel":11,"program":29},{"beat":349.75,"duration":0.22917,"midi":33,"velocity":66,"channel":14,"program":7},{"beat":350.0,"duration":0.22917,"midi":33,"velocity":62,"channel":14,"program":7},{"beat":350.0,"duration":0.47917,"midi":40,"velocity":87,"channel":2,"program":33},{"beat":350.25,"duration":0.22917,"midi":33,"velocity":48,"channel":14,"program":7},{"beat":350.5,"duration":0.22917,"midi":33,"velocity":62,"channel":14,"program":7},{"beat":350.5,"duration":0.47917,"midi":45,"velocity":88,"channel":2,"program":33},{"beat":350.5,"duration":0.47917,"midi":45,"velocity":66,"channel":11,"program":29},{"beat":350.5,"duration":0.47917,"midi":50,"velocity":88,"channel":1,"program":52},{"beat":350.5,"duration":0.47917,"midi":52,"velocity":94,"channel":12,"program":25},{"beat":350.5,"duration":0.47917,"midi":57,"velocity":90,"channel":1,"program":52},{"beat":350.5,"duration":0.47917,"midi":69,"velocity":90,"channel":1,"program":52},{"beat":350.5,"duration":0.47917,"midi":74,"velocity":102,"channel":0,"program":22},{"beat":350.52083,"duration":0.45833,"midi":52,"velocity":70,"channel":11,"program":29},{"beat":350.52083,"duration":0.45833,"midi":57,"velocity":99,"channel":12,"program":25},{"beat":350.54167,"duration":0.4375,"midi":57,"velocity":67,"channel":11,"program":29},{"beat":350.54167,"duration":0.4375,"midi":61,"velocity":94,"channel":12,"program":25},{"beat":350.75,"duration":0.22917,"midi":33,"velocity":76,"channel":14,"program":7},{"beat":351.0,"duration":0.22917,"midi":33,"velocity":59,"channel":14,"program":7},{"beat":351.0,"duration":0.47917,"midi":40,"velocity":91,"channel":2,"program":33},{"beat":351.0,"duration":0.47917,"midi":45,"velocity":69,"channel":11,"program":29},{"beat":351.0,"duration":0.47917,"midi":49,"velocity":90,"channel":1,"program":52},{"beat":351.0,"duration":0.97917,"midi":52,"velocity":96,"channel":12,"program":25},{"beat":351.0,"duration":0.47917,"midi":57,"velocity":90,"channel":1,"program":52},{"beat":351.0,"duration":0.47917,"midi":69,"velocity":88,"channel":1,"program":52},{"beat":351.0,"duration":0.47917,"midi":73,"velocity":102,"channel":0,"program":22},{"beat":351.02083,"duration":0.45833,"midi":52,"velocity":68,"channel":11,"program":29},{"beat":351.02083,"duration":0.95833,"midi":57,"velocity":92,"channel":12,"program":25},{"beat":351.04167,"duration":0.9375,"midi":57,"velocity":64,"channel":11,"program":29},{"beat":351.04167,"duration":0.9375,"midi":61,"velocity":94,"channel":12,"program":25},{"beat":351.25,"duration":0.22917,"midi":33,"velocity":68,"channel":14,"program":7},{"beat":351.5,"duration":0.22917,"midi":33,"velocity":50,"channel":14,"program":7},{"beat":351.5,"duration":0.47917,"midi":37,"velocity":88,"channel":2,"program":33},{"beat":351.5,"duration":0.47917,"midi":45,"velocity":69,"channel":11,"program":29},{"beat":351.5,"duration":0.60417,"midi":50,"velocity":90,"channel":1,"program":52},{"beat":351.5,"duration":0.60417,"midi":57,"velocity":87,"channel":1,"program":52},{"beat":351.5,"duration":0.60417,"midi":69,"velocity":87,"channel":1,"program":52},{"beat":351.5,"duration":2.97917,"midi":74,"velocity":101,"channel":0,"program":22},{"beat":351.52083,"duration":0.45833,"midi":52,"velocity":68,"channel":11,"program":29},{"beat":351.75,"duration":0.22917,"midi":33,"velocity":66,"channel":14,"program":7},{"beat":352.0,"duration":0.47917,"midi":38,"velocity":99,"channel":2,"program":33},{"beat":352.0,"duration":0.22917,"midi":38,"velocity":62,"channel":14,"program":7},{"beat":352.0,"duration":1.47917,"midi":50,"velocity":70,"channel":5,"program":30},{"beat":352.0,"duration":1.47917,"midi":50,"velocity":93,"channel":12,"program":25},{"beat":352.0,"duration":3.97917,"midi":57,"velocity":40,"channel":7,"program":51},{"beat":352.0,"duration":2.47917,"midi":62,"velocity":89,"channel":3,"program":27},{"beat":352.0,"duration":0.97917,"midi":62,"velocity":90,"channel":6,"program":29},{"beat":352.0,"duration":3.97917,"midi":62,"velocity":51,"channel":7,"program":51},{"beat":352.0,"duration":3.97917,"midi":66,"velocity":51,"channel":7,"program":51},{"beat":352.02083,"duration":1.45833,"midi":54,"velocity":95,"channel":12,"program":25},{"beat":352.02083,"duration":1.45833,"midi":57,"velocity":58,"channel":5,"program":30},{"beat":352.04167,"duration":1.4375,"midi":57,"velocity":99,"channel":12,"program":25},{"beat":352.25,"duration":0.22917,"midi":38,"velocity":48,"channel":14,"program":7},{"beat":352.5,"duration":0.47917,"midi":38,"velocity":88,"channel":2,"program":33},{"beat":352.5,"duration":0.22917,"midi":38,"velocity":62,"channel":14,"program":7},{"beat":352.5,"duration":1.97917,"midi":69,"velocity":88,"channel":3,"program":27},{"beat":352.5,"duration":1.97917,"midi":69,"velocity":90,"channel":6,"program":29},{"beat":352.75,"duration":0.22917,"midi":38,"velocity":76,"channel":14,"program":7},{"beat":353.0,"duration":0.47917,"midi":38,"velocity":101,"channel":2,"program":33},{"beat":353.0,"duration":0.22917,"midi":38,"velocity":59,"channel":14,"program":7},{"beat":353.0,"duration":0.47917,"midi":62,"velocity":86,"channel":6,"program":29},{"beat":353.25,"duration":0.22917,"midi":38,"velocity":68,"channel":14,"program":7},{"beat":353.5,"duration":0.47917,"midi":38,"velocity":86,"channel":2,"program":33},{"beat":353.5,"duration":0.22917,"midi":38,"velocity":50,"channel":14,"program":7},{"beat":353.5,"duration":0.97917,"midi":50,"velocity":71,"channel":5,"program":30},{"beat":353.5,"duration":0.47917,"midi":50,"velocity":92,"channel":12,"program":25},{"beat":353.5,"duration":1.47917,"midi":64,"velocity":90,"channel":3,"program":27},{"beat":353.5,"duration":1.47917,"midi":64,"velocity":85,"channel":6,"program":29},{"beat":353.52083,"duration":0.45833,"midi":54,"velocity":95,"channel":12,"program":25},{"beat":353.52083,"duration":0.95833,"midi":57,"velocity":70,"channel":5,"program":30},{"beat":353.54167,"duration":0.4375,"midi":57,"velocity":93,"channel":12,"program":25},{"beat":353.75,"duration":0.22917,"midi":38,"velocity":66,"channel":14,"program":7},{"beat":354.0,"duration":0.47917,"midi":38,"velocity":93,"channel":2,"program":33},{"beat":354.0,"duration":0.22917,"midi":38,"velocity":62,"channel":14,"program":7},{"beat":354.0,"duration":0.47917,"midi":50,"velocity":97,"channel":12,"program":25},{"beat":354.02083,"duration":0.45833,"midi":54,"velocity":98,"channel":12,"program":25},{"beat":354.04167,"duration":0.4375,"midi":57,"velocity":96,"channel":12,"program":25},{"beat":354.25,"duration":0.22917,"midi":38,"velocity":48,"channel":14,"program":7},{"beat":354.5,"duration":0.47917,"midi":38,"velocity":89,"channel":2,"program":33},{"beat":354.5,"duration":0.22917,"midi":38,"velocity":62,"channel":14,"program":7},{"beat":354.5,"duration":0.47917,"midi":50,"velocity":75,"channel":5,"program":30},{"beat":354.5,"duration":0.47917,"midi":50,"velocity":96,"channel":12,"program":25},{"beat":354.5,"duration":0.97917,"midi":62,"velocity":89,"channel":3,"program":27},{"beat":354.5,"duration":0.97917,"midi":62,"velocity":89,"channel":6,"program":29},{"beat":354.52083,"duration":0.45833,"midi":54,"velocity":92,"channel":12,"program":25},{"beat":354.52083,"duration":0.45833,"midi":57,"velocity":68,"channel":5,"program":30},{"beat":354.54167,"duration":0.4375,"midi":57,"velocity":93,"channel":12,"program":25},{"beat":354.54167,"duration":0.4375,"midi":66,"velocity":53,"channel":5,"program":30},{"beat":354.75,"duration":0.22917,"midi":38,"velocity":76,"channel":14,"program":7},{"beat":355.0,"duration":0.47917,"midi":38,"velocity":97,"channel":2,"program":33},{"beat":355.0,"duration":0.22917,"midi":38,"velocity":59,"channel":14,"program":7},{"beat":355.0,"duration":0.47917,"midi":50,"velocity":85,"channel":5,"program":30},{"beat":355.0,"duration":0.47917,"midi":50,"velocity":94,"channel":12,"program":25},{"beat":355.0,"duration":0.47917,"midi":66,"velocity":89,"channel":6,"program":29},{"beat":355.0,"duration":0.47917,"midi":69,"velocity":87,"channel":3,"program":27},{"beat":355.0,"duration":0.47917,"midi":69,"velocity":87,"channel":6,"program":29},{"beat":355.02083,"duration":0.45833,"midi":54,"velocity":92,"channel":12,"program":25},{"beat":355.02083,"duration":0.45833,"midi":57,"velocity":88,"channel":5,"program":30},{"beat":355.04167,"duration":0.4375,"midi":57,"velocity":91,"channel":12,"program":25},{"beat":355.04167,"duration":0.4375,"midi":66,"velocity":63,"channel":5,"program":30},{"beat":355.25,"duration":0.22917,"midi":38,"velocity":68,"channel":14,"program":7},{"beat":355.5,"duration":0.47917,"midi":38,"velocity":98,"channel":2,"program":33},{"beat":355.5,"duration":0.22917,"midi":38,"velocity":50,"channel":14,"program":7},{"beat":355.5,"duration":0.47917,"midi":50,"velocity":84,"channel":5,"program":30},{"beat":355.5,"duration":0.47917,"midi":50,"velocity":92,"channel":12,"program":25},{"beat":355.5,"duration":0.47917,"midi":62,"velocity":87,"channel":3,"program":27},{"beat":355.5,"duration":0.47917,"midi":62,"velocity":90,"channel":6,"program":29},{"beat":355.5,"duration":0.47917,"midi":66,"velocity":85,"channel":6,"program":29},{"beat":355.5,"duration":0.47917,"midi":69,"velocity":86,"channel":6,"program":29},{"beat":355.52083,"duration":0.45833,"midi":54,"velocity":97,"channel":12,"program":25},{"beat":355.52083,"duration":0.45833,"midi":57,"velocity":88,"channel":5,"program":30},{"beat":355.52083,"duration":0.47917,"midi":69,"velocity":88,"channel":3,"program":27},{"beat":355.54167,"duration":0.4375,"midi":57,"velocity":109,"channel":12,"program":25},{"beat":355.54167,"duration":0.4375,"midi":66,"velocity":73,"channel":5,"program":30},{"beat":355.75,"duration":0.22917,"midi":38,"velocity":66,"channel":14,"program":7},{"beat":356.0,"duration":2.0,"midi":38,"velocity":90,"channel":15,"program":41},{"beat":356.0,"duration":1.97917,"midi":50,"velocity":70,"channel":2,"program":33},{"beat":356.0,"duration":2.0,"midi":50,"velocity":90,"channel":15,"program":41},{"beat":356.0,"duration":2.0,"midi":57,"velocity":90,"channel":15,"program":41},{"beat":356.0,"duration":2.0,"midi":62,"velocity":90,"channel":15,"program":41},{"beat":356.0,"duration":2.0,"midi":66,"velocity":90,"channel":15,"program":41},{"beat":357.0,"duration":0.89583,"midi":74,"velocity":102,"channel":0,"program":22},{"beat":358.0,"duration":0.5625,"midi":78,"velocity":101,"channel":0,"program":22},{"beat":358.5,"duration":0.22917,"midi":38,"velocity":88,"channel":2,"program":33},{"beat":358.5,"duration":0.47917,"midi":45,"velocity":82,"channel":4,"program":29},{"beat":358.5,"duration":0.47917,"midi":45,"velocity":89,"channel":5,"program":30},{"beat":358.52083,"duration":0.45833,"midi":52,"velocity":88,"channel":5,"program":30},{"beat":358.52083,"duration":0.45833,"midi":57,"velocity":90,"channel":4,"program":29},{"beat":358.54167,"duration":0.4375,"midi":57,"velocity":90,"channel":5,"program":30},{"beat":358.75,"duration":0.22917,"midi":45,"velocity":80,"channel":2,"program":33},{"beat":359.0,"duration":0.97917,"midi":38,"velocity":80,"channel":2,"program":33},{"beat":359.0,"duration":0.97917,"midi":45,"velocity":78,"channel":4,"program":29},{"beat":359.0,"duration":0.97917,"midi":45,"velocity":84,"channel":5,"program":30},{"beat":359.0,"duration":0.47917,"midi":54,"velocity":86,"channel":6,"program":29},{"beat":359.0,"duration":0.47917,"midi":76,"velocity":100,"channel":0,"program":22},{"beat":359.02083,"duration":0.95833,"midi":50,"velocity":90,"channel":4,"program":29},{"beat":359.02083,"duration":0.95833,"midi":52,"velocity":87,"channel":5,"program":30},{"beat":359.04167,"duration":0.9375,"midi":57,"velocity":84,"channel":5,"program":30},{"beat":359.5,"duration":0.47917,"midi":55,"velocity":87,"channel":6,"program":29},{"beat":359.5,"duration":0.47917,"midi":74,"velocity":102,"channel":0,"program":22},{"beat":360.0,"duration":0.97917,"midi":31,"velocity":98,"channel":2,"program":33},{"beat":360.0,"duration":0.97917,"midi":43,"velocity":89,"channel":5,"program":30},{"beat":360.0,"duration":0.97917,"midi":50,"velocity":86,"channel":1,"program":52},{"beat":360.0,"duration":0.97917,"midi":50,"velocity":88,"channel":3,"program":27},{"beat":360.0,"duration":0.97917,"midi":50,"velocity":86,"channel":4,"program":29},{"beat":360.0,"duration":0.47917,"midi":55,"velocity":86,"channel":6,"program":29},{"beat":360.0,"duration":0.97917,"midi":55,"velocity":95,"channel":12,"program":25},{"beat":360.0,"duration":0.97917,"midi":57,"velocity":90,"channel":1,"program":52},{"beat":360.0,"duration":0.97917,"midi":62,"velocity":90,"channel":1,"program":52},{"beat":360.0,"duration":0.22917,"midi":69,"velocity":82,"channel":13,"program":81},{"beat":360.0,"duration":0.97917,"midi":74,"velocity":99,"channel":0,"program":22},{"beat":360.0,"duration":3.97917,"midi":74,"velocity":85,"channel":7,"program":51},{"beat":360.0,"duration":3.97917,"midi":86,"velocity":77,"channel":7,"program":51},{"beat":360.02083,"duration":0.95833,"midi":50,"velocity":90,"channel":5,"program":30},{"beat":360.02083,"duration":0.45833,"midi":55,"velocity":88,"channel":4,"program":29},{"beat":360.02083,"duration":0.95833,"midi":57,"velocity":90,"channel":3,"program":27},{"beat":360.02083,"duration":0.95833,"midi":67,"velocity":87,"channel":6,"program":29},{"beat":360.04167,"duration":0.4375,"midi":55,"velocity":85,"channel":5,"program":30},{"beat":360.04167,"duration":0.9375,"midi":57,"velocity":94,"channel":12,"program":25},{"beat":360.04167,"duration":0.9375,"midi":62,"velocity":84,"channel":3,"program":27},{"beat":360.04167,"duration":0.9375,"midi":62,"velocity":82,"channel":4,"program":29},{"beat":360.5,"duration":0.47917,"midi":57,"velocity":82,"channel":5,"program":30},{"beat":360.5,"duration":0.47917,"midi":57,"velocity":86,"channel":6,"program":29},{"beat":360.5,"duration":0.22917,"midi":69,"velocity":69,"channel":13,"program":81},{"beat":360.52083,"duration":0.45833,"midi":57,"velocity":89,"channel":4,"program":29},{"beat":361.0,"duration":0.47917,"midi":31,"velocity":96,"channel":2,"program":33},{"beat":361.0,"duration":0.47917,"midi":43,"velocity":88,"channel":5,"program":30},{"beat":361.0,"duration":0.47917,"midi":50,"velocity":86,"channel":3,"program":27},{"beat":361.0,"duration":0.47917,"midi":50,"velocity":89,"channel":4,"program":29},{"beat":361.0,"duration":0.60417,"midi":52,"velocity":90,"channel":1,"program":52},{"beat":361.0,"duration":0.47917,"midi":55,"velocity":97,"channel":12,"program":25},{"beat":361.0,"duration":0.60417,"midi":57,"velocity":89,"channel":1,"program":52},{"beat":361.0,"duration":0.47917,"midi":57,"velocity":94,"channel":6,"program":29},{"beat":361.0,"duration":0.60417,"midi":62,"velocity":86,"channel":1,"program":52},{"beat":361.0,"duration":0.22917,"midi":69,"velocity":84,"channel":13,"program":81},{"beat":361.0,"duration":0.60417,"midi":76,"velocity":101,"channel":0,"program":22},{"beat":361.02083,"duration":0.45833,"midi":50,"velocity":89,"channel":5,"program":30},{"beat":361.02083,"duration":0.45833,"midi":57,"velocity":89,"channel":3,"program":27},{"beat":361.02083,"duration":0.45833,"midi":57,"velocity":90,"channel":4,"program":29},{"beat":361.02083,"duration":0.45833,"midi":66,"velocity":94,"channel":6,"program":29},{"beat":361.04167,"duration":0.4375,"midi":57,"velocity":90,"channel":5,"program":30},{"beat":361.04167,"duration":0.4375,"midi":57,"velocity":95,"channel":12,"program":25},{"beat":361.04167,"duration":0.4375,"midi":62,"velocity":86,"channel":3,"program":27},{"beat":361.04167,"duration":0.4375,"midi":62,"velocity":79,"channel":4,"program":29},{"beat":361.5,"duration":0.47917,"midi":31,"velocity":96,"channel":2,"program":33},{"beat":361.5,"duration":0.97917,"midi":43,"velocity":84,"channel":5,"program":30},{"beat":361.5,"duration":0.97917,"midi":50,"velocity":85,"channel":3,"program":27},{"beat":361.5,"duration":0.97917,"midi":50,"velocity":89,"channel":4,"program":29},{"beat":361.5,"duration":0.47917,"midi":55,"velocity":79,"channel":6,"program":29},{"beat":361.5,"duration":0.47917,"midi":55,"velocity":83,"channel":12,"program":25},{"beat":361.5,"duration":0.22917,"midi":69,"velocity":71,"channel":13,"program":81},{"beat":361.52083,"duration":0.95833,"midi":50,"velocity":87,"channel":5,"program":30},{"beat":361.52083,"duration":0.95833,"midi":57,"velocity":85,"channel":3,"program":27},{"beat":361.52083,"duration":0.95833,"midi":57,"velocity":90,"channel":4,"program":29},{"beat":361.52083,"duration":0.45833,"midi":67,"velocity":82,"channel":6,"program":29},{"beat":361.54167,"duration":0.9375,"midi":57,"velocity":86,"channel":5,"program":30},{"beat":361.54167,"duration":0.4375,"midi":57,"velocity":86,"channel":12,"program":25},{"beat":361.54167,"duration":0.9375,"midi":62,"velocity":89,"channel":3,"program":27},{"beat":361.54167,"duration":0.9375,"midi":62,"velocity":78,"channel":4,"program":29},{"beat":362.0,"duration":0.47917,"midi":31,"velocity":95,"channel":2,"program":33},{"beat":362.0,"duration":0.97917,"midi":54,"velocity":86,"channel":1,"program":52},{"beat":362.0,"duration":0.47917,"midi":55,"velocity":86,"channel":12,"program":25},{"beat":362.0,"duration":0.97917,"midi":57,"velocity":88,"channel":1,"program":52},{"beat":362.0,"duration":0.97917,"midi":62,"velocity":89,"channel":1,"program":52},{"beat":362.0,"duration":0.22917,"midi":69,"velocity":76,"channel":13,"program":81},{"beat":362.0,"duration":0.97917,"midi":78,"velocity":100,"channel":0,"program":22},{"beat":362.04167,"duration":0.4375,"midi":57,"velocity":89,"channel":12,"program":25},{"beat":362.5,"duration":0.47917,"midi":31,"velocity":98,"channel":2,"program":33},{"beat":362.5,"duration":0.47917,"midi":43,"velocity":90,"channel":5,"program":30},{"beat":362.5,"duration":0.97917,"midi":50,"velocity":87,"channel":3,"program":27},{"beat":362.5,"duration":0.47917,"midi":50,"velocity":88,"channel":4,"program":29},{"beat":362.5,"duration":0.97917,"midi":55,"velocity":84,"channel":12,"program":25},{"beat":362.5,"duration":0.47917,"midi":57,"velocity":83,"channel":6,"program":29},{"beat":362.5,"duration":0.22917,"midi":69,"velocity":71,"channel":13,"program":81},{"beat":362.52083,"duration":0.45833,"midi":50,"velocity":81,"channel":5,"program":30},{"beat":362.52083,"duration":0.95833,"midi":57,"velocity":84,"channel":3,"program":27},{"beat":362.52083,"duration":0.45833,"midi":57,"velocity":79,"channel":4,"program":29},{"beat":362.52083,"duration":0.45833,"midi":62,"velocity":79,"channel":6,"program":29},{"beat":362.54167,"duration":0.4375,"midi":57,"velocity":76,"channel":5,"program":30},{"beat":362.54167,"duration":0.9375,"midi":57,"velocity":81,"channel":12,"program":25},{"beat":362.54167,"duration":0.9375,"midi":62,"velocity":87,"channel":3,"program":27},{"beat":362.54167,"duration":0.4375,"midi":62,"velocity":81,"channel":4,"program":29},{"beat":363.0,"duration":0.47917,"midi":31,"velocity":95,"channel":2,"program":33},{"beat":363.0,"duration":0.97917,"midi":43,"velocity":85,"channel":5,"program":30},{"beat":363.0,"duration":0.97917,"midi":50,"velocity":84,"channel":4,"program":29},{"beat":363.0,"duration":0.97917,"midi":55,"velocity":90,"channel":1,"program":52},{"beat":363.0,"duration":0.97917,"midi":57,"velocity":89,"channel":1,"program":52},{"beat":363.0,"duration":0.47917,"midi":57,"velocity":91,"channel":6,"program":29},{"beat":363.0,"duration":0.97917,"midi":62,"velocity":87,"channel":1,"program":52},{"beat":363.0,"duration":0.22917,"midi":69,"velocity":80,"channel":13,"program":81},{"beat":363.0,"duration":0.97917,"midi":79,"velocity":101,"channel":0,"program":22},{"beat":363.02083,"duration":0.95833,"midi":50,"velocity":89,"channel":5,"program":30},{"beat":363.02083,"duration":0.95833,"midi":57,"velocity":87,"channel":4,"program":29},{"beat":363.02083,"duration":0.95833,"midi":66,"velocity":93,"channel":6,"program":29},{"beat":363.04167,"duration":0.9375,"midi":57,"velocity":80,"channel":5,"program":30},{"beat":363.04167,"duration":0.9375,"midi":62,"velocity":78,"channel":4,"program":29},{"beat":363.5,"duration":0.47917,"midi":31,"velocity":98,"channel":2,"program":33},{"beat":363.5,"duration":0.22917,"midi":50,"velocity":79,"channel":3,"program":27},{"beat":363.5,"duration":0.22917,"midi":55,"velocity":84,"channel":12,"program":25},{"beat":363.5,"duration":0.22917,"midi":57,"velocity":79,"channel":6,"program":29},{"beat":363.5,"duration":0.22917,"midi":69,"velocity":71,"channel":13,"program":81},{"beat":363.52083,"duration":0.20833,"midi":57,"velocity":76,"channel":3,"program":27},{"beat":363.54167,"duration":0.1875,"midi":57,"velocity":82,"channel":12,"program":25},{"beat":363.54167,"duration":0.1875,"midi":62,"velocity":79,"channel":3,"program":27},{"beat":363.75,"duration":0.22917,"midi":50,"velocity":71,"channel":3,"program":27},{"beat":363.75,"duration":0.22917,"midi":55,"velocity":84,"channel":12,"program":25},{"beat":363.75,"duration":0.22917,"midi":57,"velocity":81,"channel":6,"program":29},{"beat":363.77083,"duration":0.20833,"midi":57,"velocity":68,"channel":3,"program":27},{"beat":363.79167,"duration":0.1875,"midi":57,"velocity":84,"channel":12,"program":25},{"beat":363.79167,"duration":0.1875,"midi":62,"velocity":71,"channel":3,"program":27},{"beat":364.0,"duration":0.47917,"midi":33,"velocity":99,"channel":2,"program":33},{"beat":364.0,"duration":0.97917,"midi":45,"velocity":85,"channel":4,"program":29},{"beat":364.0,"duration":0.97917,"midi":45,"velocity":86,"channel":5,"program":30},{"beat":364.0,"duration":0.97917,"midi":52,"velocity":84,"channel":3,"program":27},{"beat":364.0,"duration":0.89583,"midi":57,"velocity":89,"channel":1,"program":52},{"beat":364.0,"duration":0.97917,"midi":57,"velocity":74,"channel":6,"program":29},{"beat":364.0,"duration":0.89583,"midi":61,"velocity":89,"channel":1,"program":52},{"beat":364.0,"duration":0.22917,"midi":69,"velocity":65,"channel":13,"program":81},{"beat":364.0,"duration":1.47917,"midi":73,"velocity":60,"channel":4,"program":29},{"beat":364.0,"duration":3.97917,"midi":73,"velocity":85,"channel":7,"program":51},{"beat":364.0,"duration":0.89583,"midi":81,"velocity":102,"channel":0,"program":22},{"beat":364.0,"duration":3.97917,"midi":85,"velocity":76,"channel":7,"program":51},{"beat":364.02083,"duration":0.95833,"midi":52,"velocity":87,"channel":4,"program":29},{"beat":364.02083,"duration":0.95833,"midi":52,"velocity":84,"channel":5,"program":30},{"beat":364.02083,"duration":0.95833,"midi":57,"velocity":85,"channel":3,"program":27},{"beat":364.02083,"duration":0.95833,"midi":57,"velocity":99,"channel":12,"program":25},{"beat":364.02083,"duration":0.95833,"midi":64,"velocity":75,"channel":6,"program":29},{"beat":364.04167,"duration":0.9375,"midi":57,"velocity":84,"channel":4,"program":29},{"beat":364.04167,"duration":0.9375,"midi":57,"velocity":86,"channel":5,"program":30},{"beat":364.04167,"duration":0.9375,"midi":61,"velocity":92,"channel":12,"program":25},{"beat":364.04167,"duration":0.9375,"midi":64,"velocity":88,"channel":3,"program":27},{"beat":364.5,"duration":0.47917,"midi":33,"velocity":95,"channel":2,"program":33},{"beat":364.5,"duration":0.22917,"midi":69,"velocity":70,"channel":13,"program":81},{"beat":365.0,"duration":0.97917,"midi":33,"velocity":97,"channel":2,"program":33},{"beat":365.0,"duration":0.47917,"midi":45,"velocity":86,"channel":4,"program":29},{"beat":365.0,"duration":0.47917,"midi":45,"velocity":86,"channel":5,"program":30},{"beat":365.0,"duration":0.97917,"midi":50,"velocity":90,"channel":1,"program":52},{"beat":365.0,"duration":0.47917,"midi":52,"velocity":86,"channel":3,"program":27},{"beat":365.0,"duration":0.97917,"midi":57,"velocity":90,"channel":1,"program":52},{"beat":365.0,"duration":0.47917,"midi":57,"velocity":93,"channel":6,"program":29},{"beat":365.0,"duration":0.22917,"midi":69,"velocity":83,"channel":13,"program":81},{"beat":365.0,"duration":0.97917,"midi":74,"velocity":101,"channel":0,"program":22},{"beat":365.02083,"duration":0.45833,"midi":52,"velocity":87,"channel":4,"program":29},{"beat":365.02083,"duration":0.45833,"midi":52,"velocity":79,"channel":5,"program":30},{"beat":365.02083,"duration":0.45833,"midi":57,"velocity":86,"channel":3,"program":27},{"beat":365.02083,"duration":0.45833,"midi":57,"velocity":96,"channel":12,"program":25},{"beat":365.02083,"duration":0.45833,"midi":64,"velocity":94,"channel":6,"program":29},{"beat":365.04167,"duration":0.4375,"midi":57,"velocity":81,"channel":4,"program":29},{"beat":365.04167,"duration":0.4375,"midi":57,"velocity":82,"channel":5,"program":30},{"beat":365.04167,"duration":0.4375,"midi":61,"velocity":94,"channel":12,"program":25},{"beat":365.04167,"duration":0.4375,"midi":64,"velocity":85,"channel":3,"program":27},{"beat":365.5,"duration":0.97917,"midi":45,"velocity":84,"channel":4,"program":29},{"beat":365.5,"duration":0.97917,"midi":45,"velocity":86,"channel":5,"program":30},{"beat":365.5,"duration":0.47917,"midi":52,"velocity":79,"channel":3,"program":27},{"beat":365.5,"duration":0.97917,"midi":57,"velocity":81,"channel":6,"program":29},{"beat":365.5,"duration":0.22917,"midi":69,"velocity":73,"channel":13,"program":81},{"beat":365.5,"duration":0.47917,"midi":71,"velocity":60,"channel":4,"program":29},{"beat":365.52083,"duration":0.95833,"midi":52,"velocity":85,"channel":4,"program":29},{"beat":365.52083,"duration":0.95833,"midi":52,"velocity":88,"channel":5,"program":30},{"beat":365.52083,"duration":0.45833,"midi":57,"velocity":78,"channel":3,"program":27},{"beat":365.52083,"duration":0.20833,"midi":57,"velocity":89,"channel":12,"program":25},{"beat":365.52083,"duration":0.95833,"midi":64,"velocity":86,"channel":6,"program":29},{"beat":365.54167,"duration":0.9375,"midi":57,"velocity":87,"channel":4,"program":29},{"beat":365.54167,"duration":0.9375,"midi":57,"velocity":85,"channel":5,"program":30},{"beat":365.54167,"duration":0.4375,"midi":59,"velocity":86,"channel":12,"program":25},{"beat":365.54167,"duration":0.4375,"midi":64,"velocity":78,"channel":3,"program":27},{"beat":365.77083,"duration":0.20833,"midi":57,"velocity":95,"channel":12,"program":25},{"beat":366.0,"duration":0.47917,"midi":33,"velocity":96,"channel":2,"program":33},{"beat":366.0,"duration":0.47917,"midi":52,"velocity":85,"channel":3,"program":27},{"beat":366.0,"duration":1.22917,"midi":61,"velocity":90,"channel":1,"program":52},{"beat":366.0,"duration":1.22917,"midi":64,"velocity":89,"channel":1,"program":52},{"beat":366.0,"duration":0.22917,"midi":69,"velocity":78,"channel":13,"program":81},{"beat":366.0,"duration":1.22917,"midi":85,"velocity":100,"channel":0,"program":22},{"beat":366.02083,"duration":0.45833,"midi":57,"velocity":90,"channel":3,"program":27},{"beat":366.02083,"duration":0.45833,"midi":57,"velocity":90,"channel":12,"program":25},{"beat":366.04167,"duration":0.4375,"midi":64,"velocity":90,"channel":3,"program":27},{"beat":366.5,"duration":0.47917,"midi":33,"velocity":96,"channel":2,"program":33},{"beat":366.5,"duration":0.47917,"midi":45,"velocity":87,"channel":4,"program":29},{"beat":366.5,"duration":0.97917,"midi":45,"velocity":85,"channel":5,"program":30},{"beat":366.5,"duration":0.97917,"midi":55,"velocity":89,"channel":3,"program":27},{"beat":366.5,"duration":0.47917,"midi":57,"velocity":85,"channel":6,"program":29},{"beat":366.5,"duration":0.22917,"midi":69,"velocity":77,"channel":13,"program":81},{"beat":366.52083,"duration":0.45833,"midi":52,"velocity":87,"channel":4,"program":29},{"beat":366.52083,"duration":0.95833,"midi":52,"velocity":86,"channel":5,"program":30},{"beat":366.52083,"duration":0.95833,"midi":57,"velocity":88,"channel":3,"program":27},{"beat":366.52083,"duration":0.45833,"midi":57,"velocity":86,"channel":12,"program":25},{"beat":366.52083,"duration":0.45833,"midi":64,"velocity":89,"channel":6,"program":29},{"beat":366.54167,"duration":0.4375,"midi":57,"velocity":81,"channel":4,"program":29},{"beat":366.54167,"duration":0.9375,"midi":57,"velocity":88,"channel":5,"program":30},{"beat":366.54167,"duration":0.9375,"midi":61,"velocity":91,"channel":12,"program":25},{"beat":366.54167,"duration":0.9375,"midi":64,"velocity":87,"channel":3,"program":27},{"beat":367.0,"duration":0.97917,"midi":33,"velocity":100,"channel":2,"program":33},{"beat":367.0,"duration":0.72917,"midi":45,"velocity":86,"channel":4,"program":29},{"beat":367.0,"duration":0.3125,"midi":52,"velocity":94,"channel":6,"program":29},{"beat":367.0,"duration":0.97917,"midi":57,"velocity":96,"channel":6,"program":29},{"beat":367.0,"duration":0.22917,"midi":69,"velocity":86,"channel":13,"program":81},{"beat":367.02083,"duration":0.70833,"midi":52,"velocity":89,"channel":4,"program":29},{"beat":367.02083,"duration":0.45833,"midi":57,"velocity":95,"channel":12,"program":25},{"beat":367.02083,"duration":0.95833,"midi":64,"velocity":99,"channel":6,"program":29},{"beat":367.04167,"duration":0.6875,"midi":57,"velocity":89,"channel":4,"program":29},{"beat":367.5,"duration":0.22917,"midi":45,"velocity":77,"channel":5,"program":30},{"beat":367.5,"duration":0.22917,"midi":52,"velocity":77,"channel":3,"program":27},{"beat":367.5,"duration":0.22917,"midi":54,"velocity":87,"channel":6,"program":29},{"beat":367.5,"duration":0.22917,"midi":54,"velocity":88,"channel":12,"program":25},{"beat":367.5,"duration":1.97917,"midi":62,"velocity":90,"channel":1,"program":52},{"beat":367.5,"duration":1.97917,"midi":66,"velocity":88,"channel":1,"program":52},{"beat":367.5,"duration":0.22917,"midi":69,"velocity":75,"channel":13,"program":81},{"beat":367.5,"duration":1.97917,"midi":86,"velocity":102,"channel":0,"program":22},{"beat":367.52083,"duration":0.20833,"midi":52,"velocity":80,"channel":5,"program":30},{"beat":367.52083,"duration":0.20833,"midi":57,"velocity":76,"channel":3,"program":27},{"beat":367.52083,"duration":0.1875,"midi":59,"velocity":89,"channel":12,"program":25},{"beat":367.54167,"duration":0.1875,"midi":57,"velocity":77,"channel":5,"program":30},{"beat":367.75,"duration":0.22917,"midi":45,"velocity":77,"channel":4,"program":29},{"beat":367.75,"duration":0.22917,"midi":45,"velocity":82,"channel":5,"program":30},{"beat":367.75,"duration":0.22917,"midi":52,"velocity":78,"channel":3,"program":27},{"beat":367.75,"duration":0.22917,"midi":54,"velocity":85,"channel":6,"program":29},{"beat":367.75,"duration":0.22917,"midi":54,"velocity":88,"channel":12,"program":25},{"beat":367.77083,"duration":0.20833,"midi":52,"velocity":81,"channel":4,"program":29},{"beat":367.77083,"duration":0.20833,"midi":52,"velocity":81,"channel":5,"program":30},{"beat":367.77083,"duration":0.20833,"midi":57,"velocity":81,"channel":3,"program":27},{"beat":367.77083,"duration":0.20833,"midi":59,"velocity":87,"channel":12,"program":25},{"beat":367.79167,"duration":0.1875,"midi":57,"velocity":74,"channel":4,"program":29},{"beat":367.79167,"duration":0.1875,"midi":57,"velocity":78,"channel":5,"program":30},{"beat":368.0,"duration":0.97917,"midi":35,"velocity":97,"channel":2,"program":33},{"beat":368.0,"duration":0.97917,"midi":47,"velocity":89,"channel":4,"program":29},{"beat":368.0,"duration":0.97917,"midi":47,"velocity":89,"channel":5,"program":30},{"beat":368.0,"duration":0.97917,"midi":54,"velocity":89,"channel":3,"program":27},{"beat":368.0,"duration":0.97917,"midi":54,"velocity":91,"channel":6,"program":29},{"beat":368.0,"duration":0.22917,"midi":69,"velocity":82,"channel":13,"program":81},{"beat":368.0,"duration":3.97917,"midi":74,"velocity":84,"channel":7,"program":51},{"beat":368.0,"duration":3.97917,"midi":86,"velocity":79,"channel":7,"program":51},{"beat":368.02083,"duration":0.95833,"midi":54,"velocity":90,"channel":4,"program":29},{"beat":368.02083,"duration":0.95833,"midi":54,"velocity":90,"channel":5,"program":30},{"beat":368.02083,"duration":0.95833,"midi":57,"velocity":85,"channel":3,"program":27},{"beat":368.02083,"duration":0.95833,"midi":57,"velocity":94,"channel":12,"program":25},{"beat":368.02083,"duration":0.95833,"midi":62,"velocity":91,"channel":6,"program":29},{"beat":368.04167,"duration":0.9375,"midi":57,"velocity":79,"channel":4,"program":29},{"beat":368.04167,"duration":0.9375,"midi":57,"velocity":84,"channel":5,"program":30},{"beat":368.04167,"duration":0.9375,"midi":62,"velocity":88,"channel":3,"program":27},{"beat":368.04167,"duration":0.9375,"midi":62,"velocity":94,"channel":12,"program":25},{"beat":368.5,"duration":0.22917,"midi":69,"velocity":69,"channel":13,"program":81},{"beat":369.0,"duration":0.47917,"midi":35,"velocity":95,"channel":2,"program":33},{"beat":369.0,"duration":1.47917,"midi":47,"velocity":86,"channel":4,"program":29},{"beat":369.0,"duration":0.47917,"midi":47,"velocity":88,"channel":5,"program":30},{"beat":369.0,"duration":0.97917,"midi":54,"velocity":76,"channel":3,"program":27},{"beat":369.0,"duration":0.97917,"midi":54,"velocity":95,"channel":6,"program":29},{"beat":369.0,"duration":0.47917,"midi":59,"velocity":75,"channel":6,"program":29},{"beat":369.0,"duration":0.22917,"midi":69,"velocity":84,"channel":13,"program":81},{"beat":369.02083,"duration":1.45833,"midi":54,"velocity":86,"channel":4,"program":29},{"beat":369.02083,"duration":0.45833,"midi":54,"velocity":77,"channel":5,"program":30},{"beat":369.02083,"duration":0.95833,"midi":57,"velocity":80,"channel":3,"program":27},{"beat":369.02083,"duration":0.45833,"midi":57,"velocity":96,"channel":12,"program":25},{"beat":369.02083,"duration":0.95833,"midi":62,"velocity":94,"channel":6,"program":29},{"beat":369.04167,"duration":0.4375,"midi":57,"velocity":68,"channel":4,"program":29},{"beat":369.04167,"duration":0.4375,"midi":57,"velocity":82,"channel":5,"program":30},{"beat":369.04167,"duration":0.9375,"midi":62,"velocity":82,"channel":3,"program":27},{"beat":369.04167,"duration":0.4375,"midi":62,"velocity":96,"channel":12,"program":25},{"beat":369.5,"duration":0.47917,"midi":35,"velocity":96,"channel":2,"program":33},{"beat":369.5,"duration":0.97917,"midi":47,"velocity":85,"channel":5,"program":30},{"beat":369.5,"duration":0.47917,"midi":57,"velocity":68,"channel":6,"program":29},{"beat":369.5,"duration":0.22917,"midi":69,"velocity":71,"channel":13,"program":81},{"beat":369.52083,"duration":0.95833,"midi":54,"velocity":88,"channel":5,"program":30},{"beat":369.52083,"duration":0.45833,"midi":57,"velocity":86,"channel":12,"program":25},{"beat":369.54167,"duration":0.9375,"midi":57,"velocity":67,"channel":4,"program":29},{"beat":369.54167,"duration":0.9375,"midi":57,"velocity":88,"channel":5,"program":30},{"beat":369.54167,"duration":0.4375,"midi":62,"velocity":81,"channel":12,"program":25},{"beat":370.0,"duration":0.97917,"midi":35,"velocity":96,"channel":2,"program":33},{"beat":370.0,"duration":0.47917,"midi":54,"velocity":89,"channel":3,"program":27},{"beat":370.0,"duration":0.47917,"midi":54,"velocity":89,"channel":6,"program":29},{"beat":370.0,"duration":0.22917,"midi":69,"velocity":76,"channel":13,"program":81},{"beat":370.02083,"duration":0.45833,"midi":57,"velocity":86,"channel":3,"program":27},{"beat":370.02083,"duration":0.45833,"midi":57,"velocity":89,"channel":12,"program":25},{"beat":370.02083,"duration":0.45833,"midi":62,"velocity":87,"channel":6,"program":29},{"beat":370.04167,"duration":0.4375,"midi":62,"velocity":87,"channel":3,"program":27},{"beat":370.04167,"duration":0.4375,"midi":62,"velocity":89,"channel":12,"program":25},{"beat":370.5,"duration":0.47917,"midi":47,"velocity":85,"channel":4,"program":29},{"beat":370.5,"duration":0.47917,"midi":47,"velocity":89,"channel":5,"program":30},{"beat":370.5,"duration":0.97917,"midi":54,"velocity":76,"channel":3,"program":27},{"beat":370.5,"duration":0.97917,"midi":54,"velocity":81,"channel":6,"program":29},{"beat":370.5,"duration":0.22917,"midi":69,"velocity":71,"channel":13,"program":81},{"beat":370.52083,"duration":0.45833,"midi":54,"velocity":88,"channel":4,"program":29},{"beat":370.52083,"duration":0.45833,"midi":54,"velocity":89,"channel":5,"program":30},{"beat":370.52083,"duration":0.95833,"midi":57,"velocity":79,"channel":3,"program":27},{"beat":370.52083,"duration":0.95833,"midi":57,"velocity":86,"channel":12,"program":25},{"beat":370.52083,"duration":1.45833,"midi":62,"velocity":81,"channel":6,"program":29},{"beat":370.54167,"duration":0.4375,"midi":59,"velocity":80,"channel":4,"program":29},{"beat":370.54167,"duration":0.4375,"midi":59,"velocity":84,"channel":5,"program":30},{"beat":370.54167,"duration":0.9375,"midi":62,"velocity":80,"channel":3,"program":27},{"beat":370.54167,"duration":0.9375,"midi":62,"velocity":84,"channel":12,"program":25},{"beat":371.0,"duration":0.47917,"midi":28,"velocity":95,"channel":2,"program":33},{"beat":371.0,"duration":0.97917,"midi":47,"velocity":89,"channel":4,"program":29},{"beat":371.0,"duration":0.97917,"midi":47,"velocity":85,"channel":5,"program":30},{"beat":371.0,"duration":0.4375,"midi":59,"velocity":90,"channel":1,"program":52},{"beat":371.0,"duration":0.22917,"midi":69,"velocity":80,"channel":13,"program":81},{"beat":371.0,"duration":0.4375,"midi":83,"velocity":102,"channel":0,"program":22},{"beat":371.02083,"duration":0.95833,"midi":54,"velocity":84,"channel":4,"program":29},{"beat":371.02083,"duration":0.95833,"midi":54,"velocity":85,"channel":5,"program":30},{"beat":371.04167,"duration":0.9375,"midi":57,"velocity":79,"channel":4,"program":29},{"beat":371.04167,"duration":0.9375,"midi":57,"velocity":82,"channel":5,"program":30},{"beat":371.5,"duration":0.47917,"midi":29,"velocity":98,"channel":2,"program":33},{"beat":371.5,"duration":0.47917,"midi":54,"velocity":79,"channel":3,"program":27},{"beat":371.5,"duration":1.22917,"midi":57,"velocity":87,"channel":1,"program":52},{"beat":371.5,"duration":0.47917,"midi":57,"velocity":79,"channel":6,"program":29},{"beat":371.5,"duration":0.22917,"midi":69,"velocity":71,"channel":13,"program":81},{"beat":371.5,"duration":1.22917,"midi":81,"velocity":101,"channel":0,"program":22},{"beat":371.52083,"duration":0.45833,"midi":57,"velocity":78,"channel":3,"program":27},{"beat":371.52083,"duration":0.20833,"midi":57,"velocity":82,"channel":12,"program":25},{"beat":371.54167,"duration":0.4375,"midi":62,"velocity":78,"channel":3,"program":27},{"beat":371.54167,"duration":0.1875,"midi":62,"velocity":82,"channel":12,"program":25},{"beat":371.77083,"duration":0.20833,"midi":57,"velocity":80,"channel":12,"program":25},{"beat":371.79167,"duration":0.1875,"midi":62,"velocity":85,"channel":12,"program":25},{"beat":372.0,"duration":0.47917,"midi":30,"velocity":100,"channel":2,"program":33},{"beat":372.0,"duration":0.97917,"midi":42,"velocity":84,"channel":4,"program":29},{"beat":372.0,"duration":0.97917,"midi":45,"velocity":90,"channel":5,"program":30},{"beat":372.0,"duration":0.97917,"midi":50,"velocity":84,"channel":5,"program":30},{"beat":372.0,"duration":0.97917,"midi":54,"velocity":89,"channel":3,"program":27},{"beat":372.0,"duration":0.47917,"midi":54,"velocity":74,"channel":6,"program":29},{"beat":372.0,"duration":0.22917,"midi":69,"velocity":65,"channel":13,"program":81},{"beat":372.0,"duration":1.97917,"midi":76,"velocity":89,"channel":7,"program":51},{"beat":372.0,"duration":1.97917,"midi":88,"velocity":89,"channel":7,"program":51},{"beat":372.02083,"duration":0.95833,"midi":50,"velocity":88,"channel":4,"program":29},{"beat":372.02083,"duration":1.45833,"midi":54,"velocity":87,"channel":5,"program":30},{"beat":372.02083,"duration":0.95833,"midi":57,"velocity":90,"channel":3,"program":27},{"beat":372.02083,"duration":0.45833,"midi":57,"velocity":75,"channel":6,"program":29},{"beat":372.02083,"duration":0.95833,"midi":62,"velocity":97,"channel":12,"program":25},{"beat":372.04167,"duration":0.4375,"midi":52,"velocity":89,"channel":4,"program":29},{"beat":372.04167,"duration":0.9375,"midi":57,"velocity":89,"channel":5,"program":30},{"beat":372.04167,"duration":0.9375,"midi":64,"velocity":90,"channel":3,"program":27},{"beat":372.04167,"duration":0.9375,"midi":64,"velocity":98,"channel":12,"program":25},{"beat":372.5,"duration":0.47917,"midi":30,"velocity":98,"channel":2,"program":33},{"beat":372.5,"duration":0.47917,"midi":54,"velocity":78,"channel":6,"program":29},{"beat":372.5,"duration":0.22917,"midi":69,"velocity":70,"channel":13,"program":81},{"beat":372.52083,"duration":0.45833,"midi":62,"velocity":81,"channel":6,"program":29},{"beat":372.54167,"duration":0.4375,"midi":54,"velocity":80,"channel":4,"program":29},{"beat":373.0,"duration":0.47917,"midi":42,"velocity":89,"channel":2,"program":33},{"beat":373.0,"duration":0.47917,"midi":42,"velocity":94,"channel":4,"program":29},{"beat":373.0,"duration":0.47917,"midi":45,"velocity":79,"channel":5,"program":30},{"beat":373.0,"duration":0.47917,"midi":50,"velocity":82,"channel":5,"program":30},{"beat":373.0,"duration":0.4375,"midi":54,"velocity":89,"channel":1,"program":52},{"beat":373.0,"duration":0.47917,"midi":54,"velocity":78,"channel":3,"program":27},{"beat":373.0,"duration":0.47917,"midi":54,"velocity":92,"channel":6,"program":29},{"beat":373.0,"duration":0.22917,"midi":69,"velocity":83,"channel":13,"program":81},{"beat":373.0,"duration":0.4375,"midi":78,"velocity":100,"channel":0,"program":22},{"beat":373.02083,"duration":0.45833,"midi":50,"velocity":97,"channel":4,"program":29},{"beat":373.02083,"duration":0.45833,"midi":57,"velocity":79,"channel":3,"program":27},{"beat":373.02083,"duration":0.45833,"midi":62,"velocity":95,"channel":6,"program":29},{"beat":373.02083,"duration":0.45833,"midi":62,"velocity":97,"channel":12,"program":25},{"beat":373.04167,"duration":0.4375,"midi":54,"velocity":92,"channel":4,"program":29},{"beat":373.04167,"duration":0.4375,"midi":64,"velocity":79,"channel":3,"program":27},{"beat":373.04167,"duration":0.4375,"midi":64,"velocity":95,"channel":12,"program":25},{"beat":373.5,"duration":0.47917,"midi":40,"velocity":92,"channel":2,"program":33},{"beat":373.5,"duration":0.97917,"midi":42,"velocity":79,"channel":4,"program":29},{"beat":373.5,"duration":0.97917,"midi":45,"velocity":87,"channel":5,"program":30},{"beat":373.5,"duration":0.97917,"midi":50,"velocity":84,"channel":5,"program":30},{"beat":373.5,"duration":1.22917,"midi":52,"velocity":89,"channel":1,"program":52},{"beat":373.5,"duration":0.47917,"midi":54,"velocity":78,"channel":3,"program":27},{"beat":373.5,"duration":0.97917,"midi":54,"velocity":82,"channel":6,"program":29},{"beat":373.5,"duration":0.22917,"midi":69,"velocity":73,"channel":13,"program":81},{"beat":373.5,"duration":1.22917,"midi":76,"velocity":100,"channel":0,"program":22},{"beat":373.52083,"duration":0.45833,"midi":49,"velocity":79,"channel":4,"program":29},{"beat":373.52083,"duration":0.95833,"midi":52,"velocity":84,"channel":5,"program":30},{"beat":373.52083,"duration":0.95833,"midi":57,"velocity":79,"channel":3,"program":27},{"beat":373.52083,"duration":0.95833,"midi":57,"velocity":83,"channel":6,"program":29},{"beat":373.52083,"duration":0.45833,"midi":62,"velocity":86,"channel":12,"program":25},{"beat":373.54167,"duration":0.4375,"midi":52,"velocity":82,"channel":4,"program":29},{"beat":373.54167,"duration":0.9375,"midi":57,"velocity":86,"channel":5,"program":30},{"beat":373.54167,"duration":0.4375,"midi":64,"velocity":76,"channel":3,"program":27},{"beat":373.54167,"duration":0.4375,"midi":64,"velocity":83,"channel":12,"program":25},{"beat":374.0,"duration":0.47917,"midi":42,"velocity":89,"channel":2,"program":33},{"beat":374.0,"duration":0.47917,"midi":54,"velocity":87,"channel":3,"program":27},{"beat":374.0,"duration":0.22917,"midi":69,"velocity":78,"channel":13,"program":81},{"beat":374.0,"duration":1.97917,"midi":78,"velocity":87,"channel":7,"program":51},{"beat":374.0,"duration":1.97917,"midi":90,"velocity":85,"channel":7,"program":51},{"beat":374.5,"duration":0.47917,"midi":42,"velocity":89,"channel":2,"program":33},{"beat":374.5,"duration":0.47917,"midi":42,"velocity":81,"channel":4,"program":29},{"beat":374.5,"duration":0.47917,"midi":45,"velocity":78,"channel":5,"program":30},{"beat":374.5,"duration":0.47917,"midi":50,"velocity":80,"channel":5,"program":30},{"beat":374.5,"duration":1.47917,"midi":54,"velocity":89,"channel":3,"program":27},{"beat":374.5,"duration":0.47917,"midi":54,"velocity":85,"channel":6,"program":29},{"beat":374.5,"duration":0.22917,"midi":69,"velocity":77,"channel":13,"program":81},{"beat":374.52083,"duration":0.45833,"midi":50,"velocity":82,"channel":4,"program":29},{"beat":374.52083,"duration":0.45833,"midi":54,"velocity":78,"channel":5,"program":30},{"beat":374.52083,"duration":1.45833,"midi":57,"velocity":85,"channel":3,"program":27},{"beat":374.52083,"duration":0.45833,"midi":62,"velocity":85,"channel":6,"program":29},{"beat":374.52083,"duration":0.45833,"midi":62,"velocity":90,"channel":12,"program":25},{"beat":374.54167,"duration":0.4375,"midi":54,"velocity":80,"channel":4,"program":29},{"beat":374.54167,"duration":0.4375,"midi":57,"velocity":78,"channel":5,"program":30},{"beat":374.54167,"duration":1.4375,"midi":62,"velocity":86,"channel":3,"program":27},{"beat":374.54167,"duration":0.4375,"midi":66,"velocity":88,"channel":12,"program":25},{"beat":375.0,"duration":0.97917,"midi":40,"velocity":87,"channel":2,"program":33},{"beat":375.0,"duration":0.72917,"midi":42,"velocity":88,"channel":4,"program":29},{"beat":375.0,"duration":0.97917,"midi":45,"velocity":88,"channel":5,"program":30},{"beat":375.0,"duration":0.97917,"midi":50,"velocity":89,"channel":1,"program":52},{"beat":375.0,"duration":0.47917,"midi":50,"velocity":89,"channel":5,"program":30},{"beat":375.0,"duration":0.97917,"midi":54,"velocity":96,"channel":6,"program":29},{"beat":375.0,"duration":0.22917,"midi":69,"velocity":86,"channel":13,"program":81},{"beat":375.0,"duration":0.97917,"midi":74,"velocity":102,"channel":0,"program":22},{"beat":375.02083,"duration":0.70833,"midi":50,"velocity":89,"channel":4,"program":29},{"beat":375.02083,"duration":0.45833,"midi":54,"velocity":85,"channel":5,"program":30},{"beat":375.02083,"duration":0.95833,"midi":62,"velocity":95,"channel":6,"program":29},{"beat":375.02083,"duration":0.95833,"midi":62,"velocity":96,"channel":12,"program":25},{"beat":375.04167,"duration":0.6875,"midi":54,"velocity":90,"channel":4,"program":29},{"beat":375.04167,"duration":0.6875,"midi":57,"velocity":89,"channel":5,"program":30},{"beat":375.04167,"duration":0.9375,"midi":66,"velocity":99,"channel":12,"program":25},{"beat":375.5,"duration":0.22917,"midi":50,"velocity":82,"channel":5,"program":30},{"beat":375.5,"duration":0.22917,"midi":69,"velocity":75,"channel":13,"program":81},{"beat":375.52083,"duration":0.20833,"midi":54,"velocity":77,"channel":5,"program":30},{"beat":375.75,"duration":0.22917,"midi":42,"velocity":80,"channel":4,"program":29},{"beat":375.75,"duration":0.22917,"midi":50,"velocity":80,"channel":5,"program":30},{"beat":375.77083,"duration":0.20833,"midi":50,"velocity":79,"channel":4,"program":29},{"beat":375.77083,"duration":0.20833,"midi":54,"velocity":78,"channel":5,"program":30},{"beat":375.79167,"duration":0.1875,"midi":54,"velocity":82,"channel":4,"program":29},{"beat":375.79167,"duration":0.1875,"midi":57,"velocity":81,"channel":5,"program":30},{"beat":376.0,"duration":0.97917,"midi":31,"velocity":96,"channel":2,"program":33},{"beat":376.0,"duration":0.97917,"midi":43,"velocity":86,"channel":4,"program":29},{"beat":376.0,"duration":0.97917,"midi":43,"velocity":84,"channel":5,"program":30},{"beat":376.0,"duration":0.72917,"midi":50,"velocity":86,"channel":1,"program":52},{"beat":376.0,"duration":0.97917,"midi":50,"velocity":87,"channel":3,"program":27},{"beat":376.0,"duration":0.97917,"midi":50,"velocity":91,"channel":6,"program":29},{"beat":376.0,"duration":0.72917,"midi":59,"velocity":60,"channel":1,"program":52},{"beat":376.0,"duration":0.22917,"midi":69,"velocity":82,"channel":13,"program":81},{"beat":376.0,"duration":0.72917,"midi":74,"velocity":98,"channel":0,"program":22},{"beat":376.0,"duration":3.97917,"midi":74,"velocity":88,"channel":7,"program":51},{"beat":376.0,"duration":3.97917,"midi":86,"velocity":75,"channel":7,"program":51},{"beat":376.02083,"duration":0.95833,"midi":50,"velocity":86,"channel":4,"program":29},{"beat":376.02083,"duration":0.95833,"midi":50,"velocity":88,"channel":5,"program":30},{"beat":376.02083,"duration":0.95833,"midi":55,"velocity":89,"channel":3,"program":27},{"beat":376.02083,"duration":0.95833,"midi":55,"velocity":92,"channel":6,"program":29},{"beat":376.02083,"duration":0.95833,"midi":57,"velocity":93,"channel":12,"program":25},{"beat":376.04167,"duration":0.9375,"midi":55,"velocity":90,"channel":4,"program":29},{"beat":376.04167,"duration":0.9375,"midi":55,"velocity":89,"channel":5,"program":30},{"beat":376.04167,"duration":0.4375,"midi":62,"velocity":87,"channel":3,"program":27},{"beat":376.04167,"duration":0.9375,"midi":62,"velocity":91,"channel":12,"program":25},{"beat":376.5,"duration":0.22917,"midi":69,"velocity":69,"channel":13,"program":81},{"beat":376.52083,"duration":0.95833,"midi":62,"velocity":85,"channel":3,"program":27},{"beat":377.0,"duration":0.47917,"midi":31,"velocity":98,"channel":2,"program":33},{"beat":377.0,"duration":0.47917,"midi":43,"velocity":87,"channel":4,"program":29},{"beat":377.0,"duration":0.47917,"midi":43,"velocity":85,"channel":5,"program":30},{"beat":377.0,"duration":0.97917,"midi":52,"velocity":89,"channel":1,"program":52},{"beat":377.0,"duration":0.47917,"midi":52,"velocity":92,"channel":6,"program":29},{"beat":377.0,"duration":0.47917,"midi":57,"velocity":82,"channel":3,"program":27},{"beat":377.0,"duration":0.97917,"midi":59,"velocity":60,"channel":1,"program":52},{"beat":377.0,"duration":0.22917,"midi":69,"velocity":84,"channel":13,"program":81},{"beat":377.0,"duration":0.97917,"midi":76,"velocity":102,"channel":0,"program":22},{"beat":377.02083,"duration":0.45833,"midi":50,"velocity":80,"channel":4,"program":29},{"beat":377.02083,"duration":0.45833,"midi":52,"velocity":80,"channel":5,"program":30},{"beat":377.02083,"duration":0.45833,"midi":57,"velocity":96,"channel":6,"program":29},{"beat":377.02083,"duration":0.95833,"midi":57,"velocity":96,"channel":12,"program":25},{"beat":377.04167,"duration":0.4375,"midi":55,"velocity":78,"channel":4,"program":29},{"beat":377.04167,"duration":0.4375,"midi":57,"velocity":80,"channel":5,"program":30},{"beat":377.04167,"duration":0.9375,"midi":62,"velocity":95,"channel":12,"program":25},{"beat":377.5,"duration":0.47917,"midi":31,"velocity":99,"channel":2,"program":33},{"beat":377.5,"duration":1.47917,"midi":43,"velocity":87,"channel":4,"program":29},{"beat":377.5,"duration":0.97917,"midi":43,"velocity":84,"channel":5,"program":30},{"beat":377.5,"duration":0.47917,"midi":50,"velocity":77,"channel":3,"program":27},{"beat":377.5,"duration":0.97917,"midi":50,"velocity":82,"channel":6,"program":29},{"beat":377.5,"duration":0.22917,"midi":69,"velocity":71,"channel":13,"program":81},{"beat":377.52083,"duration":0.95833,"midi":50,"velocity":89,"channel":4,"program":29},{"beat":377.52083,"duration":0.95833,"midi":50,"velocity":90,"channel":5,"program":30},{"beat":377.52083,"duration":0.45833,"midi":55,"velocity":81,"channel":3,"program":27},{"beat":377.52083,"duration":0.95833,"midi":55,"velocity":79,"channel":6,"program":29},{"beat":377.52083,"duration":0.45833,"midi":62,"velocity":77,"channel":3,"program":27},{"beat":377.54167,"duration":0.9375,"midi":55,"velocity":84,"channel":4,"program":29},{"beat":377.54167,"duration":0.9375,"midi":55,"velocity":86,"channel":5,"program":30},{"beat":378.0,"duration":0.47917,"midi":31,"velocity":95,"channel":2,"program":33},{"beat":378.0,"duration":0.47917,"midi":50,"velocity":86,"channel":3,"program":27},{"beat":378.0,"duration":0.97917,"midi":54,"velocity":90,"channel":1,"program":52},{"beat":378.0,"duration":0.97917,"midi":59,"velocity":59,"channel":1,"program":52},{"beat":378.0,"duration":0.22917,"midi":69,"velocity":76,"channel":13,"program":81},{"beat":378.0,"duration":0.97917,"midi":78,"velocity":99,"channel":0,"program":22},{"beat":378.02083,"duration":0.45833,"midi":55,"velocity":85,"channel":3,"program":27},{"beat":378.02083,"duration":0.45833,"midi":57,"velocity":92,"channel":12,"program":25},{"beat":378.04167,"duration":0.4375,"midi":62,"velocity":86,"channel":12,"program":25},{"beat":378.5,"duration":0.47917,"midi":31,"velocity":99,"channel":2,"program":33},{"beat":378.5,"duration":0.47917,"midi":43,"velocity":84,"channel":5,"program":30},{"beat":378.5,"duration":0.97917,"midi":50,"velocity":86,"channel":3,"program":27},{"beat":378.5,"duration":0.47917,"midi":54,"velocity":80,"channel":6,"program":29},{"beat":378.5,"duration":0.22917,"midi":69,"velocity":71,"channel":13,"program":81},{"beat":378.52083,"duration":0.45833,"midi":50,"velocity":88,"channel":4,"program":29},{"beat":378.52083,"duration":1.45833,"midi":50,"velocity":88,"channel":5,"program":30},{"beat":378.52083,"duration":0.95833,"midi":54,"velocity":86,"channel":3,"program":27},{"beat":378.52083,"duration":0.45833,"midi":57,"velocity":81,"channel":6,"program":29},{"beat":378.52083,"duration":0.95833,"midi":57,"velocity":84,"channel":12,"program":25},{"beat":378.54167,"duration":0.4375,"midi":54,"velocity":89,"channel":4,"program":29},{"beat":378.54167,"duration":0.9375,"midi":55,"velocity":84,"channel":5,"program":30},{"beat":378.54167,"duration":1.4375,"midi":57,"velocity":89,"channel":3,"program":27},{"beat":378.54167,"duration":0.9375,"midi":62,"velocity":84,"channel":12,"program":25},{"beat":379.0,"duration":0.97917,"midi":31,"velocity":96,"channel":2,"program":33},{"beat":379.0,"duration":0.97917,"midi":43,"velocity":84,"channel":4,"program":29},{"beat":379.0,"duration":0.97917,"midi":43,"velocity":89,"channel":5,"program":30},{"beat":379.0,"duration":0.97917,"midi":54,"velocity":91,"channel":6,"program":29},{"beat":379.0,"duration":0.8125,"midi":55,"velocity":86,"channel":1,"program":52},{"beat":379.0,"duration":0.8125,"midi":59,"velocity":59,"channel":1,"program":52},{"beat":379.0,"duration":0.22917,"midi":69,"velocity":80,"channel":13,"program":81},{"beat":379.0,"duration":0.8125,"midi":79,"velocity":100,"channel":0,"program":22},{"beat":379.02083,"duration":0.95833,"midi":50,"velocity":80,"channel":4,"program":29},{"beat":379.02083,"duration":0.95833,"midi":57,"velocity":91,"channel":6,"program":29},{"beat":379.04167,"duration":0.9375,"midi":55,"velocity":89,"channel":4,"program":29},{"beat":379.5,"duration":0.47917,"midi":50,"velocity":81,"channel":3,"program":27},{"beat":379.5,"duration":0.47917,"midi":57,"velocity":81,"channel":5,"program":30},{"beat":379.5,"duration":0.22917,"midi":69,"velocity":71,"channel":13,"program":81},{"beat":379.52083,"duration":0.20833,"midi":57,"velocity":86,"channel":12,"program":25},{"beat":379.54167,"duration":0.1875,"midi":62,"velocity":79,"channel":12,"program":25},{"beat":379.77083,"duration":0.20833,"midi":57,"velocity":86,"channel":12,"program":25},{"beat":379.79167,"duration":0.1875,"midi":62,"velocity":83,"channel":12,"program":25},{"beat":380.0,"duration":0.47917,"midi":33,"velocity":95,"channel":2,"program":33},{"beat":380.0,"duration":0.47917,"midi":45,"velocity":90,"channel":3,"program":27},{"beat":380.0,"duration":0.47917,"midi":45,"velocity":86,"channel":4,"program":29},{"beat":380.0,"duration":0.97917,"midi":45,"velocity":90,"channel":5,"program":30},{"beat":380.0,"duration":0.5625,"midi":57,"velocity":90,"channel":1,"program":52},{"beat":380.0,"duration":0.47917,"midi":57,"velocity":73,"channel":6,"program":29},{"beat":380.0,"duration":0.5625,"midi":64,"velocity":58,"channel":1,"program":52},{"beat":380.0,"duration":0.22917,"midi":69,"velocity":65,"channel":13,"program":81},{"beat":380.0,"duration":3.97917,"midi":73,"velocity":89,"channel":7,"program":51},{"beat":380.0,"duration":0.5625,"midi":81,"velocity":102,"channel":0,"program":22},{"beat":380.0,"duration":3.97917,"midi":85,"velocity":77,"channel":7,"program":51},{"beat":380.02083,"duration":0.45833,"midi":52,"velocity":85,"channel":3,"program":27},{"beat":380.02083,"duration":0.45833,"midi":52,"velocity":88,"channel":4,"program":29},{"beat":380.02083,"duration":0.95833,"midi":52,"velocity":84,"channel":5,"program":30},{"beat":380.02083,"duration":0.95833,"midi":57,"velocity":98,"channel":12,"program":25},{"beat":380.02083,"duration":0.95833,"midi":61,"velocity":76,"channel":6,"program":29},{"beat":380.04167,"duration":0.4375,"midi":57,"velocity":86,"channel":4,"program":29},{"beat":380.04167,"duration":0.9375,"midi":57,"velocity":84,"channel":5,"program":30},{"beat":380.04167,"duration":0.9375,"midi":61,"velocity":96,"channel":12,"program":25},{"beat":380.5,"duration":0.47917,"midi":40,"velocity":86,"channel":2,"program":33},{"beat":380.5,"duration":0.97917,"midi":45,"velocity":86,"channel":3,"program":27},{"beat":380.5,"duration":0.47917,"midi":45,"velocity":78,"channel":4,"program":29},{"beat":380.5,"duration":0.47917,"midi":57,"velocity":78,"channel":6,"program":29},{"beat":380.5,"duration":0.22917,"midi":69,"velocity":70,"channel":13,"program":81},{"beat":380.52083,"duration":0.95833,"midi":52,"velocity":88,"channel":3,"program":27},{"beat":380.52083,"duration":0.45833,"midi":52,"velocity":80,"channel":4,"program":29},{"beat":380.54167,"duration":0.9375,"midi":57,"velocity":86,"channel":3,"program":27},{"beat":380.54167,"duration":0.4375,"midi":57,"velocity":81,"channel":4,"program":29},{"beat":381.0,"duration":0.47917,"midi":45,"velocity":80,"channel":4,"program":29},{"beat":381.0,"duration":0.47917,"midi":45,"velocity":78,"channel":5,"program":30},{"beat":381.0,"duration":0.47917,"midi":47,"velocity":92,"channel":2,"program":33},{"beat":381.0,"duration":0.89583,"midi":50,"velocity":90,"channel":1,"program":52},{"beat":381.0,"duration":0.97917,"midi":57,"velocity":57,"channel":1,"program":52},{"beat":381.0,"duration":0.47917,"midi":57,"velocity":94,"channel":6,"program":29},{"beat":381.0,"duration":0.22917,"midi":69,"velocity":83,"channel":13,"program":81},{"beat":381.0,"duration":0.89583,"midi":74,"velocity":98,"channel":0,"program":22},{"beat":381.02083,"duration":0.45833,"midi":52,"velocity":81,"channel":4,"program":29},{"beat":381.02083,"duration":0.45833,"midi":52,"velocity":76,"channel":5,"program":30},{"beat":381.02083,"duration":0.45833,"midi":57,"velocity":98,"channel":12,"program":25},{"beat":381.02083,"duration":0.45833,"midi":61,"velocity":91,"channel":6,"program":29},{"beat":381.04167,"duration":0.4375,"midi":57,"velocity":80,"channel":4,"program":29},{"beat":381.04167,"duration":0.4375,"midi":57,"velocity":79,"channel":5,"program":30},{"beat":381.04167,"duration":0.4375,"midi":61,"velocity":95,"channel":12,"program":25},{"beat":381.5,"duration":0.97917,"midi":45,"velocity":92,"channel":2,"program":33},{"beat":381.5,"duration":0.97917,"midi":45,"velocity":86,"channel":3,"program":27},{"beat":381.5,"duration":0.97917,"midi":45,"velocity":84,"channel":4,"program":29},{"beat":381.5,"duration":0.97917,"midi":45,"velocity":88,"channel":5,"program":30},{"beat":381.5,"duration":0.97917,"midi":57,"velocity":85,"channel":6,"program":29},{"beat":381.5,"duration":0.22917,"midi":69,"velocity":73,"channel":13,"program":81},{"beat":381.52083,"duration":0.95833,"midi":52,"velocity":90,"channel":3,"program":27},{"beat":381.52083,"duration":0.95833,"midi":52,"velocity":88,"channel":4,"program":29},{"beat":381.52083,"duration":0.95833,"midi":52,"velocity":86,"channel":5,"program":30},{"beat":381.52083,"duration":0.95833,"midi":57,"velocity":87,"channel":12,"program":25},{"beat":381.52083,"duration":0.95833,"midi":61,"velocity":84,"channel":6,"program":29},{"beat":381.54167,"duration":0.9375,"midi":57,"velocity":90,"channel":3,"program":27},{"beat":381.54167,"duration":0.9375,"midi":57,"velocity":87,"channel":4,"program":29},{"beat":381.54167,"duration":0.9375,"midi":57,"velocity":86,"channel":5,"program":30},{"beat":381.54167,"duration":0.9375,"midi":61,"velocity":84,"channel":12,"program":25},{"beat":382.0,"duration":0.72917,"midi":55,"velocity":88,"channel":1,"program":52},{"beat":382.0,"duration":0.72917,"midi":61,"velocity":69,"channel":1,"program":52},{"beat":382.0,"duration":0.22917,"midi":69,"velocity":78,"channel":13,"program":81},{"beat":382.0,"duration":0.72917,"midi":79,"velocity":101,"channel":0,"program":22},{"beat":382.5,"duration":0.47917,"midi":42,"velocity":88,"channel":2,"program":33},{"beat":382.5,"duration":0.97917,"midi":45,"velocity":90,"channel":3,"program":27},{"beat":382.5,"duration":0.47917,"midi":45,"velocity":79,"channel":4,"program":29},{"beat":382.5,"duration":0.47917,"midi":45,"velocity":90,"channel":5,"program":30},{"beat":382.5,"duration":0.47917,"midi":57,"velocity":86,"channel":6,"program":29},{"beat":382.5,"duration":0.22917,"midi":69,"velocity":77,"channel":13,"program":81},{"beat":382.52083,"duration":0.95833,"midi":52,"velocity":84,"channel":3,"program":27},{"beat":382.52083,"duration":0.45833,"midi":52,"velocity":78,"channel":4,"program":29},{"beat":382.52083,"duration":0.45833,"midi":52,"velocity":80,"channel":5,"program":30},{"beat":382.52083,"duration":0.45833,"midi":57,"velocity":91,"channel":12,"program":25},{"beat":382.52083,"duration":0.45833,"midi":61,"velocity":85,"channel":6,"program":29},{"beat":382.54167,"duration":0.9375,"midi":57,"velocity":88,"channel":3,"program":27},{"beat":382.54167,"duration":0.4375,"midi":57,"velocity":82,"channel":4,"program":29},{"beat":382.54167,"duration":0.4375,"midi":57,"velocity":79,"channel":5,"program":30},{"beat":382.54167,"duration":0.4375,"midi":61,"velocity":89,"channel":12,"program":25},{"beat":383.0,"duration":0.97917,"midi":40,"velocity":91,"channel":2,"program":33},{"beat":383.0,"duration":0.97917,"midi":45,"velocity":83,"channel":4,"program":29},{"beat":383.0,"duration":0.47917,"midi":45,"velocity":84,"channel":5,"program":30},{"beat":383.0,"duration":1.47917,"midi":54,"velocity":87,"channel":1,"program":52},{"beat":383.0,"duration":0.47917,"midi":57,"velocity":95,"channel":6,"program":29},{"beat":383.0,"duration":1.47917,"midi":62,"velocity":69,"channel":1,"program":52},{"beat":383.0,"duration":0.22917,"midi":69,"velocity":86,"channel":13,"program":81},{"beat":383.0,"duration":1.47917,"midi":78,"velocity":102,"channel":0,"program":22},{"beat":383.02083,"duration":0.95833,"midi":52,"velocity":80,"channel":4,"program":29},{"beat":383.02083,"duration":0.95833,"midi":52,"velocity":88,"channel":5,"program":30},{"beat":383.02083,"duration":0.45833,"midi":57,"velocity":101,"channel":12,"program":25},{"beat":383.02083,"duration":0.45833,"midi":61,"velocity":95,"channel":6,"program":29},{"beat":383.04167,"duration":0.9375,"midi":57,"velocity":80,"channel":4,"program":29},{"beat":383.04167,"duration":0.9375,"midi":57,"velocity":87,"channel":5,"program":30},{"beat":383.04167,"duration":0.4375,"midi":61,"velocity":101,"channel":12,"program":25},{"beat":383.5,"duration":0.22917,"midi":45,"velocity":76,"channel":3,"program":27},{"beat":383.5,"duration":0.47917,"midi":45,"velocity":84,"channel":5,"program":30},{"beat":383.5,"duration":0.22917,"midi":57,"velocity":86,"channel":6,"program":29},{"beat":383.5,"duration":0.22917,"midi":69,"velocity":75,"channel":13,"program":81},{"beat":383.52083,"duration":0.20833,"midi":52,"velocity":80,"channel":3,"program":27},{"beat":383.52083,"duration":0.20833,"midi":57,"velocity":86,"channel":12,"program":25},{"beat":383.52083,"duration":0.45833,"midi":62,"velocity":84,"channel":6,"program":29},{"beat":383.54167,"duration":0.1875,"midi":57,"velocity":80,"channel":3,"program":27},{"beat":383.54167,"duration":0.1875,"midi":61,"velocity":88,"channel":12,"program":25},{"beat":383.75,"duration":0.22917,"midi":45,"velocity":79,"channel":3,"program":27},{"beat":383.75,"duration":0.22917,"midi":57,"velocity":85,"channel":6,"program":29},{"beat":383.77083,"duration":0.20833,"midi":52,"velocity":77,"channel":3,"program":27},{"beat":383.77083,"duration":0.20833,"midi":57,"velocity":87,"channel":12,"program":25},{"beat":383.79167,"duration":0.1875,"midi":57,"velocity":76,"channel":3,"program":27},{"beat":383.79167,"duration":0.1875,"midi":61,"velocity":87,"channel":12,"program":25},{"beat":384.0,"duration":0.47917,"midi":35,"velocity":96,"channel":2,"program":33},{"beat":384.0,"duration":0.97917,"midi":47,"velocity":85,"channel":3,"program":27},{"beat":384.0,"duration":0.97917,"midi":47,"velocity":85,"channel":4,"program":29},{"beat":384.0,"duration":0.97917,"midi":47,"velocity":89,"channel":5,"program":30},{"beat":384.0,"duration":0.97917,"midi":54,"velocity":86,"channel":6,"program":29},{"beat":384.0,"duration":0.22917,"midi":69,"velocity":82,"channel":13,"program":81},{"beat":384.0,"duration":3.97917,"midi":74,"velocity":84,"channel":7,"program":51},{"beat":384.0,"duration":3.97917,"midi":86,"velocity":80,"channel":7,"program":51},{"beat":384.02083,"duration":0.95833,"midi":54,"velocity":85,"channel":3,"program":27},{"beat":384.02083,"duration":0.95833,"midi":54,"velocity":86,"channel":4,"program":29},{"beat":384.02083,"duration":0.95833,"midi":54,"velocity":84,"channel":5,"program":30},{"beat":384.02083,"duration":0.95833,"midi":57,"velocity":84,"channel":6,"program":29},{"beat":384.02083,"duration":0.95833,"midi":59,"velocity":96,"channel":12,"program":25},{"beat":384.04167,"duration":0.9375,"midi":57,"velocity":86,"channel":3,"program":27},{"beat":384.04167,"duration":1.4375,"midi":57,"velocity":56,"channel":4,"program":29},{"beat":384.04167,"duration":0.9375,"midi":57,"velocity":90,"channel":5,"program":30},{"beat":384.04167,"duration":0.9375,"midi":62,"velocity":98,"channel":12,"program":25},{"beat":384.5,"duration":0.47917,"midi":35,"velocity":95,"channel":2,"program":33},{"beat":384.5,"duration":0.47917,"midi":52,"velocity":90,"channel":1,"program":52},{"beat":384.5,"duration":0.47917,"midi":59,"velocity":68,"channel":1,"program":52},{"beat":384.5,"duration":0.22917,"midi":69,"velocity":69,"channel":13,"program":81},{"beat":384.5,"duration":0.47917,"midi":76,"velocity":98,"channel":0,"program":22},{"beat":385.0,"duration":0.47917,"midi":35,"velocity":96,"channel":2,"program":33},{"beat":385.0,"duration":0.47917,"midi":47,"velocity":86,"channel":3,"program":27},{"beat":385.0,"duration":0.47917,"midi":47,"velocity":90,"channel":4,"program":29},{"beat":385.0,"duration":0.47917,"midi":47,"velocity":84,"channel":5,"program":30},{"beat":385.0,"duration":1.97917,"midi":50,"velocity":89,"channel":1,"program":52},{"beat":385.0,"duration":0.47917,"midi":55,"velocity":77,"channel":6,"program":29},{"beat":385.0,"duration":1.97917,"midi":59,"velocity":69,"channel":1,"program":52},{"beat":385.0,"duration":0.97917,"midi":62,"velocity":76,"channel":3,"program":27},{"beat":385.0,"duration":0.22917,"midi":69,"velocity":84,"channel":13,"program":81},{"beat":385.0,"duration":1.97917,"midi":74,"velocity":102,"channel":0,"program":22},{"beat":385.02083,"duration":0.45833,"midi":54,"velocity":86,"channel":3,"program":27},{"beat":385.02083,"duration":0.45833,"midi":54,"velocity":87,"channel":4,"program":29},{"beat":385.02083,"duration":0.45833,"midi":54,"velocity":86,"channel":5,"program":30},{"beat":385.02083,"duration":0.45833,"midi":59,"velocity":88,"channel":6,"program":29},{"beat":385.02083,"duration":0.45833,"midi":59,"velocity":94,"channel":12,"program":25},{"beat":385.04167,"duration":0.4375,"midi":57,"velocity":84,"channel":3,"program":27},{"beat":385.04167,"duration":0.4375,"midi":57,"velocity":81,"channel":5,"program":30},{"beat":385.04167,"duration":0.4375,"midi":62,"velocity":98,"channel":12,"program":25},{"beat":385.5,"duration":0.47917,"midi":38,"velocity":97,"channel":2,"program":33},{"beat":385.5,"duration":0.47917,"midi":47,"velocity":79,"channel":3,"program":27},{"beat":385.5,"duration":0.97917,"midi":47,"velocity":89,"channel":4,"program":29},{"beat":385.5,"duration":0.97917,"midi":47,"velocity":85,"channel":5,"program":30},{"beat":385.5,"duration":0.97917,"midi":54,"velocity":78,"channel":6,"program":29},{"beat":385.5,"duration":0.22917,"midi":69,"velocity":71,"channel":13,"program":81},{"beat":385.52083,"duration":0.45833,"midi":54,"velocity":78,"channel":3,"program":27},{"beat":385.52083,"duration":0.95833,"midi":54,"velocity":90,"channel":4,"program":29},{"beat":385.52083,"duration":0.95833,"midi":54,"velocity":87,"channel":5,"program":30},{"beat":385.52083,"duration":0.95833,"midi":57,"velocity":84,"channel":6,"program":29},{"beat":385.52083,"duration":0.45833,"midi":59,"velocity":82,"channel":12,"program":25},{"beat":385.54167,"duration":0.4375,"midi":57,"velocity":78,"channel":3,"program":27},{"beat":385.54167,"duration":1.9375,"midi":57,"velocity":57,"channel":4,"program":29},{"beat":385.54167,"duration":0.9375,"midi":57,"velocity":86,"channel":5,"program":30},{"beat":385.54167,"duration":0.4375,"midi":62,"velocity":81,"channel":12,"program":25},{"beat":386.0,"duration":0.47917,"midi":42,"velocity":97,"channel":2,"program":33},{"beat":386.0,"duration":0.47917,"midi":47,"velocity":87,"channel":3,"program":27},{"beat":386.0,"duration":0.22917,"midi":69,"velocity":76,"channel":13,"program":81},{"beat":386.02083,"duration":0.45833,"midi":54,"velocity":88,"channel":3,"program":27},{"beat":386.02083,"duration":0.45833,"midi":59,"velocity":92,"channel":12,"program":25},{"beat":386.04167,"duration":0.4375,"midi":57,"velocity":86,"channel":3,"program":27},{"beat":386.04167,"duration":0.4375,"midi":62,"velocity":87,"channel":12,"program":25},{"beat":386.5,"duration":0.47917,"midi":42,"velocity":99,"channel":2,"program":33},{"beat":386.5,"duration":0.97917,"midi":47,"velocity":87,"channel":3,"program":27},{"beat":386.5,"duration":0.47917,"midi":47,"velocity":87,"channel":4,"program":29},{"beat":386.5,"duration":0.47917,"midi":47,"velocity":89,"channel":5,"program":30},{"beat":386.5,"duration":1.47917,"midi":54,"velocity":65,"channel":6,"program":29},{"beat":386.5,"duration":0.97917,"midi":64,"velocity":71,"channel":3,"program":27},{"beat":386.5,"duration":0.47917,"midi":64,"velocity":73,"channel":14,"program":29},{"beat":386.5,"duration":0.22917,"midi":69,"velocity":71,"channel":13,"program":81},{"beat":386.52083,"duration":0.95833,"midi":54,"velocity":87,"channel":3,"program":27},{"beat":386.52083,"duration":0.45833,"midi":54,"velocity":83,"channel":4,"program":29},{"beat":386.52083,"duration":0.45833,"midi":54,"velocity":86,"channel":5,"program":30},{"beat":386.52083,"duration":0.45833,"midi":57,"velocity":84,"channel":6,"program":29},{"beat":386.52083,"duration":0.95833,"midi":59,"velocity":81,"channel":12,"program":25},{"beat":386.54167,"duration":0.9375,"midi":57,"velocity":86,"channel":3,"program":27},{"beat":386.54167,"duration":0.4375,"midi":57,"velocity":82,"channel":5,"program":30},{"beat":386.54167,"duration":0.9375,"midi":62,"velocity":82,"channel":12,"program":25},{"beat":387.0,"duration":0.39583,"midi":42,"velocity":98,"channel":2,"program":33},{"beat":387.0,"duration":0.72917,"midi":47,"velocity":89,"channel":4,"program":29},{"beat":387.0,"duration":0.47917,"midi":47,"velocity":90,"channel":5,"program":30},{"beat":387.0,"duration":0.47917,"midi":64,"velocity":88,"channel":14,"program":29},{"beat":387.0,"duration":0.22917,"midi":69,"velocity":80,"channel":13,"program":81},{"beat":387.02083,"duration":0.70833,"midi":54,"velocity":88,"channel":4,"program":29},{"beat":387.02083,"duration":0.45833,"midi":54,"velocity":90,"channel":5,"program":30},{"beat":387.02083,"duration":0.95833,"midi":57,"velocity":84,"channel":6,"program":29},{"beat":387.04167,"duration":0.4375,"midi":57,"velocity":87,"channel":5,"program":30},{"beat":387.5,"duration":0.47917,"midi":35,"velocity":89,"channel":2,"program":33},{"beat":387.5,"duration":0.47917,"midi":47,"velocity":76,"channel":3,"program":27},{"beat":387.5,"duration":0.22917,"midi":47,"velocity":80,"channel":5,"program":30},{"beat":387.5,"duration":0.47917,"midi":62,"velocity":75,"channel":3,"program":27},{"beat":387.5,"duration":0.47917,"midi":62,"velocity":89,"channel":14,"program":29},{"beat":387.5,"duration":0.22917,"midi":69,"velocity":71,"channel":13,"program":81},{"beat":387.52083,"duration":0.45833,"midi":54,"velocity":76,"channel":3,"program":27},{"beat":387.52083,"duration":0.20833,"midi":54,"velocity":79,"channel":5,"program":30},{"beat":387.52083,"duration":0.20833,"midi":59,"velocity":83,"channel":12,"program":25},{"beat":387.54167,"duration":0.4375,"midi":57,"velocity":76,"channel":3,"program":27},{"beat":387.54167,"duration":0.1875,"midi":57,"velocity":82,"channel":5,"program":30},{"beat":387.54167,"duration":0.1875,"midi":62,"velocity":80,"channel":12,"program":25},{"beat":387.75,"duration":0.22917,"midi":47,"velocity":78,"channel":4,"program":29},{"beat":387.75,"duration":0.22917,"midi":47,"velocity":80,"channel":5,"program":30},{"beat":387.77083,"duration":0.20833,"midi":54,"velocity":79,"channel":4,"program":29},{"beat":387.77083,"duration":0.20833,"midi":54,"velocity":79,"channel":5,"program":30},{"beat":387.77083,"duration":0.20833,"midi":59,"velocity":83,"channel":12,"program":25},{"beat":387.79167,"duration":0.1875,"midi":57,"velocity":80,"channel":5,"program":30},{"beat":387.79167,"duration":0.1875,"midi":62,"velocity":83,"channel":12,"program":25},{"beat":388.0,"duration":0.47917,"midi":38,"velocity":97,"channel":2,"program":33},{"beat":388.0,"duration":0.97917,"midi":50,"velocity":89,"channel":3,"program":27},{"beat":388.0,"duration":0.97917,"midi":50,"velocity":86,"channel":4,"program":29},{"beat":388.0,"duration":0.47917,"midi":50,"velocity":87,"channel":5,"program":30},{"beat":388.0,"duration":0.97917,"midi":50,"velocity":87,"channel":6,"program":29},{"beat":388.0,"duration":0.97917,"midi":64,"velocity":65,"channel":3,"program":27},{"beat":388.0,"duration":1.97917,"midi":64,"velocity":88,"channel":7,"program":51},{"beat":388.0,"duration":0.47917,"midi":64,"velocity":84,"channel":14,"program":29},{"beat":388.0,"duration":0.22917,"midi":69,"velocity":65,"channel":13,"program":81},{"beat":388.0,"duration":1.97917,"midi":83,"velocity":89,"channel":7,"program":51},{"beat":388.0,"duration":1.97917,"midi":95,"velocity":77,"channel":7,"program":51},{"beat":388.02083,"duration":0.95833,"midi":57,"velocity":84,"channel":3,"program":27},{"beat":388.02083,"duration":0.95833,"midi":57,"velocity":87,"channel":4,"program":29},{"beat":388.02083,"duration":0.45833,"midi":57,"velocity":87,"channel":5,"program":30},{"beat":388.02083,"duration":0.45833,"midi":57,"velocity":89,"channel":6,"program":29},{"beat":388.02083,"duration":0.95833,"midi":57,"velocity":92,"channel":12,"program":25},{"beat":388.04167,"duration":0.9375,"midi":62,"velocity":85,"channel":3,"program":27},{"beat":388.04167,"duration":0.9375,"midi":62,"velocity":94,"channel":12,"program":25},{"beat":388.04167,"duration":0.4375,"midi":66,"velocity":77,"channel":5,"program":30},{"beat":388.5,"duration":0.47917,"midi":38,"velocity":99,"channel":2,"program":33},{"beat":388.5,"duration":0.47917,"midi":50,"velocity":85,"channel":5,"program":30},{"beat":388.5,"duration":0.47917,"midi":54,"velocity":90,"channel":1,"program":52},{"beat":388.5,"duration":0.47917,"midi":62,"velocity":57,"channel":1,"program":52},{"beat":388.5,"duration":0.47917,"midi":64,"velocity":77,"channel":4,"program":29},{"beat":388.5,"duration":0.47917,"midi":66,"velocity":85,"channel":14,"program":29},{"beat":388.5,"duration":0.47917,"midi":69,"velocity":89,"channel":1,"program":52},{"beat":388.5,"duration":0.22917,"midi":69,"velocity":70,"channel":13,"program":81},{"beat":388.5,"duration":0.47917,"midi":78,"velocity":102,"channel":0,"program":22},{"beat":388.52083,"duration":0.45833,"midi":57,"velocity":89,"channel":5,"program":30},{"beat":388.52083,"duration":0.45833,"midi":57,"velocity":88,"channel":6,"program":29},{"beat":388.54167,"duration":0.4375,"midi":66,"velocity":76,"channel":5,"program":30},{"beat":389.0,"duration":0.47917,"midi":38,"velocity":94,"channel":2,"program":33},{"beat":389.0,"duration":0.47917,"midi":50,"velocity":89,"channel":4,"program":29},{"beat":389.0,"duration":0.97917,"midi":50,"velocity":84,"channel":5,"program":30},{"beat":389.0,"duration":0.47917,"midi":52,"velocity":86,"channel":6,"program":29},{"beat":389.0,"duration":0.47917,"midi":54,"velocity":90,"channel":1,"program":52},{"beat":389.0,"duration":0.47917,"midi":62,"velocity":59,"channel":1,"program":52},{"beat":389.0,"duration":0.97917,"midi":64,"velocity":62,"channel":3,"program":27},{"beat":389.0,"duration":0.47917,"midi":69,"velocity":89,"channel":1,"program":52},{"beat":389.0,"duration":0.22917,"midi":69,"velocity":83,"channel":13,"program":81},{"beat":389.0,"duration":0.47917,"midi":78,"velocity":102,"channel":0,"program":22},{"beat":389.02083,"duration":0.45833,"midi":57,"velocity":86,"channel":3,"program":27},{"beat":389.02083,"duration":0.45833,"midi":57,"velocity":86,"channel":4,"program":29},{"beat":389.02083,"duration":0.95833,"midi":57,"velocity":88,"channel":5,"program":30},{"beat":389.02083,"duration":0.95833,"midi":57,"velocity":90,"channel":6,"program":29},{"beat":389.02083,"duration":0.45833,"midi":57,"velocity":96,"channel":12,"program":25},{"beat":389.02083,"duration":0.95833,"midi":64,"velocity":69,"channel":4,"program":29},{"beat":389.04167,"duration":0.4375,"midi":62,"velocity":88,"channel":3,"program":27},{"beat":389.04167,"duration":0.4375,"midi":62,"velocity":95,"channel":12,"program":25},{"beat":389.04167,"duration":1.4375,"midi":64,"velocity":77,"channel":5,"program":30},{"beat":389.5,"duration":0.47917,"midi":50,"velocity":86,"channel":2,"program":33},{"beat":389.5,"duration":0.97917,"midi":50,"velocity":89,"channel":4,"program":29},{"beat":389.5,"duration":0.97917,"midi":50,"velocity":86,"channel":6,"program":29},{"beat":389.5,"duration":0.47917,"midi":54,"velocity":90,"channel":1,"program":52},{"beat":389.5,"duration":0.47917,"midi":62,"velocity":59,"channel":1,"program":52},{"beat":389.5,"duration":0.47917,"midi":64,"velocity":89,"channel":14,"program":29},{"beat":389.5,"duration":0.47917,"midi":69,"velocity":90,"channel":1,"program":52},{"beat":389.5,"duration":0.22917,"midi":69,"velocity":73,"channel":13,"program":81},{"beat":389.5,"duration":0.47917,"midi":78,"velocity":100,"channel":0,"program":22},{"beat":389.52083,"duration":0.45833,"midi":57,"velocity":76,"channel":3,"program":27},{"beat":389.52083,"duration":0.95833,"midi":57,"velocity":86,"channel":4,"program":29},{"beat":389.52083,"duration":0.45833,"midi":57,"velocity":86,"channel":12,"program":25},{"beat":389.54167,"duration":0.4375,"midi":62,"velocity":82,"channel":3,"program":27},{"beat":389.54167,"duration":0.4375,"midi":62,"velocity":86,"channel":12,"program":25},{"beat":390.0,"duration":0.47917,"midi":50,"velocity":91,"channel":2,"program":33},{"beat":390.0,"duration":0.47917,"midi":50,"velocity":88,"channel":5,"program":30},{"beat":390.0,"duration":0.60417,"midi":54,"velocity":90,"channel":1,"program":52},{"beat":390.0,"duration":0.60417,"midi":62,"velocity":59,"channel":1,"program":52},{"beat":390.0,"duration":0.47917,"midi":64,"velocity":64,"channel":3,"program":27},{"beat":390.0,"duration":1.97917,"midi":66,"velocity":89,"channel":7,"program":51},{"beat":390.0,"duration":0.60417,"midi":69,"velocity":88,"channel":1,"program":52},{"beat":390.0,"duration":0.22917,"midi":69,"velocity":78,"channel":13,"program":81},{"beat":390.0,"duration":0.60417,"midi":78,"velocity":101,"channel":0,"program":22},{"beat":390.0,"duration":1.97917,"midi":81,"velocity":89,"channel":7,"program":51},{"beat":390.0,"duration":1.97917,"midi":93,"velocity":75,"channel":7,"program":51},{"beat":390.02083,"duration":0.45833,"midi":57,"velocity":85,"channel":3,"program":27},{"beat":390.02083,"duration":0.45833,"midi":57,"velocity":86,"channel":5,"program":30},{"beat":390.02083,"duration":0.45833,"midi":57,"velocity":84,"channel":6,"program":29},{"beat":390.02083,"duration":0.45833,"midi":57,"velocity":93,"channel":12,"program":25},{"beat":390.02083,"duration":1.95833,"midi":66,"velocity":45,"channel":4,"program":29},{"beat":390.04167,"duration":0.4375,"midi":62,"velocity":86,"channel":3,"program":27},{"beat":390.04167,"duration":0.4375,"midi":62,"velocity":89,"channel":12,"program":25},{"beat":390.5,"duration":0.47917,"midi":50,"velocity":83,"channel":2,"program":33},{"beat":390.5,"duration":0.97917,"midi":50,"velocity":86,"channel":4,"program":29},{"beat":390.5,"duration":0.47917,"midi":50,"velocity":90,"channel":5,"program":30},{"beat":390.5,"duration":0.47917,"midi":50,"velocity":87,"channel":6,"program":29},{"beat":390.5,"duration":1.47917,"midi":66,"velocity":72,"channel":3,"program":27},{"beat":390.5,"duration":1.47917,"midi":66,"velocity":80,"channel":14,"program":29},{"beat":390.5,"duration":0.22917,"midi":69,"velocity":77,"channel":13,"program":81},{"beat":390.52083,"duration":0.45833,"midi":57,"velocity":76,"channel":3,"program":27},{"beat":390.52083,"duration":0.95833,"midi":57,"velocity":86,"channel":4,"program":29},{"beat":390.52083,"duration":0.45833,"midi":57,"velocity":84,"channel":5,"program":30},{"beat":390.52083,"duration":0.45833,"midi":57,"velocity":88,"channel":6,"program":29},{"beat":390.52083,"duration":0.95833,"midi":57,"velocity":88,"channel":12,"program":25},{"beat":390.54167,"duration":0.4375,"midi":62,"velocity":82,"channel":3,"program":27},{"beat":390.54167,"duration":0.9375,"midi":62,"velocity":91,"channel":12,"program":25},{"beat":390.54167,"duration":1.4375,"midi":66,"velocity":78,"channel":5,"program":30},{"beat":391.0,"duration":0.97917,"midi":50,"velocity":85,"channel":2,"program":33},{"beat":391.0,"duration":0.97917,"midi":50,"velocity":89,"channel":5,"program":30},{"beat":391.0,"duration":0.47917,"midi":50,"velocity":87,"channel":6,"program":29},{"beat":391.0,"duration":0.47917,"midi":52,"velocity":87,"channel":1,"program":52},{"beat":391.0,"duration":0.47917,"midi":59,"velocity":59,"channel":1,"program":52},{"beat":391.0,"duration":0.47917,"midi":67,"velocity":88,"channel":1,"program":52},{"beat":391.0,"duration":0.22917,"midi":69,"velocity":86,"channel":13,"program":81},{"beat":391.0,"duration":0.47917,"midi":76,"velocity":101,"channel":0,"program":22},{"beat":391.02083,"duration":0.95833,"midi":57,"velocity":79,"channel":3,"program":27},{"beat":391.02083,"duration":0.95833,"midi":57,"velocity":85,"channel":5,"program":30},{"beat":391.02083,"duration":0.45833,"midi":57,"velocity":89,"channel":6,"program":29},{"beat":391.04167,"duration":0.9375,"midi":62,"velocity":82,"channel":3,"program":27},{"beat":391.5,"duration":0.47917,"midi":50,"velocity":89,"channel":1,"program":52},{"beat":391.5,"duration":0.47917,"midi":50,"velocity":89,"channel":4,"program":29},{"beat":391.5,"duration":0.22917,"midi":50,"velocity":87,"channel":6,"program":29},{"beat":391.5,"duration":0.47917,"midi":57,"velocity":60,"channel":1,"program":52},{"beat":391.5,"duration":0.47917,"midi":66,"velocity":90,"channel":1,"program":52},{"beat":391.5,"duration":0.22917,"midi":69,"velocity":75,"channel":13,"program":81},{"beat":391.5,"duration":0.47917,"midi":74,"velocity":101,"channel":0,"program":22},{"beat":391.52083,"duration":0.45833,"midi":57,"velocity":90,"channel":4,"program":29},{"beat":391.52083,"duration":0.20833,"midi":57,"velocity":84,"channel":6,"program":29},{"beat":391.52083,"duration":0.20833,"midi":57,"velocity":85,"channel":12,"program":25},{"beat":391.54167,"duration":0.1875,"midi":62,"velocity":87,"channel":12,"program":25},{"beat":391.75,"duration":0.22917,"midi":50,"velocity":90,"channel":6,"program":29},{"beat":391.77083,"duration":0.20833,"midi":57,"velocity":88,"channel":6,"program":29},{"beat":391.77083,"duration":0.20833,"midi":57,"velocity":87,"channel":12,"program":25},{"beat":391.79167,"duration":0.1875,"midi":62,"velocity":86,"channel":12,"program":25},{"beat":392.0,"duration":0.97917,"midi":43,"velocity":96,"channel":2,"program":33},{"beat":392.0,"duration":0.97917,"midi":43,"velocity":89,"channel":4,"program":29},{"beat":392.0,"duration":0.97917,"midi":43,"velocity":89,"channel":5,"program":30},{"beat":392.0,"duration":0.97917,"midi":50,"velocity":87,"channel":1,"program":52},{"beat":392.0,"duration":0.97917,"midi":50,"velocity":90,"channel":3,"program":27},{"beat":392.0,"duration":0.97917,"midi":50,"velocity":84,"channel":6,"program":29},{"beat":392.0,"duration":0.97917,"midi":57,"velocity":87,"channel":1,"program":52},{"beat":392.0,"duration":0.97917,"midi":62,"velocity":89,"channel":1,"program":52},{"beat":392.0,"duration":0.22917,"midi":69,"velocity":82,"channel":13,"program":81},{"beat":392.0,"duration":0.97917,"midi":74,"velocity":101,"channel":0,"program":22},{"beat":392.0,"duration":3.97917,"midi":74,"velocity":85,"channel":7,"program":51},{"beat":392.0,"duration":3.97917,"midi":86,"velocity":76,"channel":7,"program":51},{"beat":392.02083,"duration":0.95833,"midi":50,"velocity":90,"channel":4,"program":29},{"beat":392.02083,"duration":0.95833,"midi":50,"velocity":88,"channel":5,"program":30},{"beat":392.02083,"duration":0.95833,"midi":55,"velocity":84,"channel":3,"program":27},{"beat":392.02083,"duration":0.95833,"midi":55,"velocity":90,"channel":6,"program":29},{"beat":392.02083,"duration":0.95833,"midi":57,"velocity":97,"channel":12,"program":25},{"beat":392.04167,"duration":0.9375,"midi":55,"velocity":88,"channel":4,"program":29},{"beat":392.04167,"duration":0.9375,"midi":57,"velocity":87,"channel":5,"program":30},{"beat":392.04167,"duration":0.9375,"midi":62,"velocity":84,"channel":3,"program":27},{"beat":392.04167,"duration":0.9375,"midi":62,"velocity":97,"channel":12,"program":25},{"beat":392.04167,"duration":0.9375,"midi":67,"velocity":72,"channel":6,"program":29},{"beat":392.5,"duration":0.22917,"midi":69,"velocity":69,"channel":13,"program":81},{"beat":393.0,"duration":0.97917,"midi":43,"velocity":92,"channel":2,"program":33},{"beat":393.0,"duration":0.97917,"midi":43,"velocity":89,"channel":4,"program":29},{"beat":393.0,"duration":0.47917,"midi":43,"velocity":89,"channel":5,"program":30},{"beat":393.0,"duration":1.47917,"midi":50,"velocity":85,"channel":3,"program":27},{"beat":393.0,"duration":0.47917,"midi":50,"velocity":94,"channel":6,"program":29},{"beat":393.0,"duration":0.97917,"midi":52,"velocity":88,"channel":1,"program":52},{"beat":393.0,"duration":0.97917,"midi":57,"velocity":87,"channel":1,"program":52},{"beat":393.0,"duration":0.97917,"midi":62,"velocity":89,"channel":1,"program":52},{"beat":393.0,"duration":0.22917,"midi":69,"velocity":84,"channel":13,"program":81},{"beat":393.0,"duration":0.97917,"midi":76,"velocity":102,"channel":0,"program":22},{"beat":393.02083,"duration":0.95833,"midi":50,"velocity":83,"channel":4,"program":29},{"beat":393.02083,"duration":0.45833,"midi":50,"velocity":89,"channel":5,"program":30},{"beat":393.02083,"duration":1.45833,"midi":55,"velocity":86,"channel":3,"program":27},{"beat":393.02083,"duration":0.45833,"midi":57,"velocity":92,"channel":6,"program":29},{"beat":393.02083,"duration":0.45833,"midi":57,"velocity":99,"channel":12,"program":25},{"beat":393.04167,"duration":0.9375,"midi":55,"velocity":82,"channel":4,"program":29},{"beat":393.04167,"duration":0.9375,"midi":59,"velocity":80,"channel":5,"program":30},{"beat":393.04167,"duration":1.4375,"midi":62,"velocity":88,"channel":3,"program":27},{"beat":393.04167,"duration":0.4375,"midi":62,"velocity":99,"channel":12,"program":25},{"beat":393.04167,"duration":0.9375,"midi":66,"velocity":60,"channel":6,"program":29},{"beat":393.5,"duration":0.97917,"midi":43,"velocity":86,"channel":5,"program":30},{"beat":393.5,"duration":0.97917,"midi":50,"velocity":79,"channel":6,"program":29},{"beat":393.5,"duration":0.22917,"midi":69,"velocity":71,"channel":13,"program":81},{"beat":393.52083,"duration":0.95833,"midi":50,"velocity":88,"channel":5,"program":30},{"beat":393.52083,"duration":0.95833,"midi":55,"velocity":81,"channel":6,"program":29},{"beat":393.52083,"duration":0.45833,"midi":57,"velocity":84,"channel":12,"program":25},{"beat":393.54167,"duration":0.4375,"midi":62,"velocity":86,"channel":12,"program":25},{"beat":394.0,"duration":0.47917,"midi":43,"velocity":91,"channel":2,"program":33},{"beat":394.0,"duration":0.47917,"midi":43,"velocity":84,"channel":4,"program":29},{"beat":394.0,"duration":0.97917,"midi":54,"velocity":89,"channel":1,"program":52},{"beat":394.0,"duration":0.97917,"midi":57,"velocity":89,"channel":1,"program":52},{"beat":394.0,"duration":0.97917,"midi":62,"velocity":89,"channel":1,"program":52},{"beat":394.0,"duration":0.22917,"midi":69,"velocity":76,"channel":13,"program":81},{"beat":394.0,"duration":0.97917,"midi":78,"velocity":100,"channel":0,"program":22},{"beat":394.02083,"duration":0.45833,"midi":50,"velocity":90,"channel":4,"program":29},{"beat":394.02083,"duration":0.45833,"midi":57,"velocity":89,"channel":12,"program":25},{"beat":394.04167,"duration":0.4375,"midi":55,"velocity":90,"channel":4,"program":29},{"beat":394.04167,"duration":0.4375,"midi":62,"velocity":85,"channel":12,"program":25},{"beat":394.04167,"duration":0.9375,"midi":67,"velocity":61,"channel":6,"program":29},{"beat":394.5,"duration":0.47917,"midi":43,"velocity":93,"channel":2,"program":33},{"beat":394.5,"duration":0.47917,"midi":43,"velocity":85,"channel":4,"program":29},{"beat":394.5,"duration":0.47917,"midi":43,"velocity":84,"channel":5,"program":30},{"beat":394.5,"duration":0.47917,"midi":50,"velocity":80,"channel":3,"program":27},{"beat":394.5,"duration":0.47917,"midi":50,"velocity":80,"channel":6,"program":29},{"beat":394.5,"duration":0.22917,"midi":69,"velocity":71,"channel":13,"program":81},{"beat":394.52083,"duration":0.45833,"midi":50,"velocity":81,"channel":4,"program":29},{"beat":394.52083,"duration":0.45833,"midi":50,"velocity":86,"channel":5,"program":30},{"beat":394.52083,"duration":1.45833,"midi":55,"velocity":77,"channel":3,"program":27},{"beat":394.52083,"duration":0.45833,"midi":57,"velocity":82,"channel":6,"program":29},{"beat":394.52083,"duration":0.95833,"midi":57,"velocity":86,"channel":12,"program":25},{"beat":394.54167,"duration":0.4375,"midi":57,"velocity":79,"channel":4,"program":29},{"beat":394.54167,"duration":0.4375,"midi":57,"velocity":76,"channel":5,"program":30},{"beat":394.54167,"duration":1.4375,"midi":62,"velocity":79,"channel":3,"program":27},{"beat":394.54167,"duration":0.9375,"midi":62,"velocity":83,"channel":12,"program":25},{"beat":395.0,"duration":0.97917,"midi":43,"velocity":89,"channel":2,"program":33},{"beat":395.0,"duration":0.97917,"midi":43,"velocity":86,"channel":4,"program":29},{"beat":395.0,"duration":0.72917,"midi":43,"velocity":84,"channel":5,"program":30},{"beat":395.0,"duration":0.97917,"midi":50,"velocity":81,"channel":3,"program":27},{"beat":395.0,"duration":0.47917,"midi":50,"velocity":91,"channel":6,"program":29},{"beat":395.0,"duration":0.8125,"midi":55,"velocity":89,"channel":1,"program":52},{"beat":395.0,"duration":0.8125,"midi":57,"velocity":88,"channel":1,"program":52},{"beat":395.0,"duration":0.8125,"midi":62,"velocity":89,"channel":1,"program":52},{"beat":395.0,"duration":0.22917,"midi":69,"velocity":80,"channel":13,"program":81},{"beat":395.0,"duration":0.8125,"midi":79,"velocity":101,"channel":0,"program":22},{"beat":395.02083,"duration":0.95833,"midi":50,"velocity":83,"channel":4,"program":29},{"beat":395.02083,"duration":0.70833,"midi":50,"velocity":90,"channel":5,"program":30},{"beat":395.02083,"duration":0.95833,"midi":57,"velocity":76,"channel":3,"program":27},{"beat":395.02083,"duration":0.95833,"midi":57,"velocity":91,"channel":6,"program":29},{"beat":395.04167,"duration":0.9375,"midi":57,"velocity":83,"channel":4,"program":29},{"beat":395.04167,"duration":0.9375,"midi":57,"velocity":78,"channel":5,"program":30},{"beat":395.04167,"duration":0.9375,"midi":69,"velocity":68,"channel":6,"program":29},{"beat":395.5,"duration":0.47917,"midi":52,"velocity":83,"channel":6,"program":29},{"beat":395.5,"duration":0.22917,"midi":69,"velocity":71,"channel":13,"program":81},{"beat":395.52083,"duration":0.20833,"midi":57,"velocity":82,"channel":12,"program":25},{"beat":395.54167,"duration":0.1875,"midi":62,"velocity":85,"channel":12,"program":25},{"beat":395.75,"duration":0.22917,"midi":43,"velocity":82,"channel":5,"program":30},{"beat":395.77083,"duration":0.20833,"midi":50,"velocity":76,"channel":5,"program":30},{"beat":395.77083,"duration":0.20833,"midi":57,"velocity":84,"channel":12,"program":25},{"beat":395.79167,"duration":0.1875,"midi":62,"velocity":85,"channel":12,"program":25},{"beat":396.0,"duration":0.47917,"midi":33,"velocity":95,"channel":2,"program":33},{"beat":396.0,"duration":0.97917,"midi":45,"velocity":86,"channel":4,"program":29},{"beat":396.0,"duration":0.97917,"midi":45,"velocity":89,"channel":5,"program":30},{"beat":396.0,"duration":0.97917,"midi":52,"velocity":87,"channel":3,"program":27},{"beat":396.0,"duration":0.97917,"midi":52,"velocity":76,"channel":6,"program":29},{"beat":396.0,"duration":0.97917,"midi":57,"velocity":88,"channel":1,"program":52},{"beat":396.0,"duration":0.97917,"midi":61,"velocity":78,"channel":1,"program":52},{"beat":396.0,"duration":0.22917,"midi":69,"velocity":65,"channel":13,"program":81},{"beat":396.0,"duration":3.97917,"midi":73,"velocity":85,"channel":7,"program":51},{"beat":396.0,"duration":0.97917,"midi":81,"velocity":101,"channel":0,"program":22},{"beat":396.0,"duration":3.97917,"midi":85,"velocity":77,"channel":7,"program":51},{"beat":396.02083,"duration":0.95833,"midi":52,"velocity":90,"channel":4,"program":29},{"beat":396.02083,"duration":0.95833,"midi":52,"velocity":89,"channel":5,"program":30},{"beat":396.02083,"duration":0.95833,"midi":57,"velocity":86,"channel":3,"program":27},{"beat":396.02083,"duration":0.95833,"midi":57,"velocity":73,"channel":6,"program":29},{"beat":396.02083,"duration":0.95833,"midi":57,"velocity":91,"channel":12,"program":25},{"beat":396.04167,"duration":0.9375,"midi":57,"velocity":84,"channel":4,"program":29},{"beat":396.04167,"duration":0.9375,"midi":57,"velocity":88,"channel":5,"program":30},{"beat":396.04167,"duration":0.9375,"midi":61,"velocity":88,"channel":3,"program":27},{"beat":396.04167,"duration":0.9375,"midi":61,"velocity":94,"channel":12,"program":25},{"beat":396.04167,"duration":1.4375,"midi":64,"velocity":64,"channel":6,"program":29},{"beat":396.5,"duration":0.47917,"midi":33,"velocity":95,"channel":2,"program":33},{"beat":396.5,"duration":0.22917,"midi":69,"velocity":70,"channel":13,"program":81},{"beat":397.0,"duration":0.47917,"midi":33,"velocity":94,"channel":2,"program":33},{"beat":397.0,"duration":0.47917,"midi":45,"velocity":85,"channel":4,"program":29},{"beat":397.0,"duration":0.97917,"midi":45,"velocity":88,"channel":5,"program":30},{"beat":397.0,"duration":0.97917,"midi":50,"velocity":90,"channel":1,"program":52},{"beat":397.0,"duration":0.47917,"midi":52,"velocity":79,"channel":3,"program":27},{"beat":397.0,"duration":0.47917,"midi":52,"velocity":94,"channel":6,"program":29},{"beat":397.0,"duration":0.97917,"midi":57,"velocity":88,"channel":1,"program":52},{"beat":397.0,"duration":0.22917,"midi":69,"velocity":83,"channel":13,"program":81},{"beat":397.0,"duration":0.97917,"midi":74,"velocity":101,"channel":0,"program":22},{"beat":397.02083,"duration":0.45833,"midi":52,"velocity":81,"channel":4,"program":29},{"beat":397.02083,"duration":0.95833,"midi":52,"velocity":88,"channel":5,"program":30},{"beat":397.02083,"duration":0.45833,"midi":57,"velocity":79,"channel":3,"program":27},{"beat":397.02083,"duration":0.45833,"midi":57,"velocity":91,"channel":6,"program":29},{"beat":397.02083,"duration":0.45833,"midi":57,"velocity":98,"channel":12,"program":25},{"beat":397.04167,"duration":0.4375,"midi":57,"velocity":78,"channel":4,"program":29},{"beat":397.04167,"duration":0.9375,"midi":57,"velocity":90,"channel":5,"program":30},{"beat":397.04167,"duration":0.4375,"midi":61,"velocity":77,"channel":3,"program":27},{"beat":397.04167,"duration":0.4375,"midi":61,"velocity":94,"channel":12,"program":25},{"beat":397.5,"duration":0.47917,"midi":35,"velocity":90,"channel":2,"program":33},{"beat":397.5,"duration":0.97917,"midi":45,"velocity":89,"channel":4,"program":29},{"beat":397.5,"duration":0.97917,"midi":52,"velocity":90,"channel":3,"program":27},{"beat":397.5,"duration":0.97917,"midi":52,"velocity":81,"channel":6,"program":29},{"beat":397.5,"duration":0.22917,"midi":69,"velocity":73,"channel":13,"program":81},{"beat":397.52083,"duration":0.95833,"midi":52,"velocity":85,"channel":4,"program":29},{"beat":397.52083,"duration":0.95833,"midi":57,"velocity":86,"channel":3,"program":27},{"beat":397.52083,"duration":0.95833,"midi":57,"velocity":84,"channel":6,"program":29},{"beat":397.52083,"duration":0.45833,"midi":57,"velocity":82,"channel":12,"program":25},{"beat":397.54167,"duration":0.9375,"midi":57,"velocity":86,"channel":4,"program":29},{"beat":397.54167,"duration":0.9375,"midi":61,"velocity":88,"channel":3,"program":27},{"beat":397.54167,"duration":0.4375,"midi":61,"velocity":89,"channel":12,"program":25},{"beat":397.54167,"duration":0.4375,"midi":64,"velocity":71,"channel":6,"program":29},{"beat":398.0,"duration":0.97917,"midi":40,"velocity":95,"channel":2,"program":33},{"beat":398.0,"duration":0.47917,"midi":45,"velocity":88,"channel":5,"program":30},{"beat":398.0,"duration":1.22917,"midi":55,"velocity":89,"channel":1,"program":52},{"beat":398.0,"duration":1.22917,"midi":61,"velocity":89,"channel":1,"program":52},{"beat":398.0,"duration":1.22917,"midi":64,"velocity":90,"channel":1,"program":52},{"beat":398.0,"duration":0.22917,"midi":69,"velocity":78,"channel":13,"program":81},{"beat":398.0,"duration":1.22917,"midi":85,"velocity":100,"channel":0,"program":22},{"beat":398.02083,"duration":0.45833,"midi":52,"velocity":84,"channel":5,"program":30},{"beat":398.02083,"duration":0.45833,"midi":57,"velocity":92,"channel":12,"program":25},{"beat":398.5,"duration":0.47917,"midi":45,"velocity":89,"channel":4,"program":29},{"beat":398.5,"duration":0.47917,"midi":45,"velocity":89,"channel":5,"program":30},{"beat":398.5,"duration":0.97917,"midi":52,"velocity":82,"channel":3,"program":27},{"beat":398.5,"duration":0.47917,"midi":52,"velocity":86,"channel":6,"program":29},{"beat":398.5,"duration":0.22917,"midi":69,"velocity":77,"channel":13,"program":81},{"beat":398.52083,"duration":0.45833,"midi":52,"velocity":86,"channel":4,"program":29},{"beat":398.52083,"duration":0.45833,"midi":52,"velocity":90,"channel":5,"program":30},{"beat":398.52083,"duration":0.95833,"midi":57,"velocity":77,"channel":3,"program":27},{"beat":398.52083,"duration":0.45833,"midi":57,"velocity":89,"channel":6,"program":29},{"beat":398.52083,"duration":0.95833,"midi":57,"velocity":87,"channel":12,"program":25},{"beat":398.54167,"duration":0.4375,"midi":57,"velocity":80,"channel":4,"program":29},{"beat":398.54167,"duration":0.4375,"midi":57,"velocity":70,"channel":5,"program":30},{"beat":398.54167,"duration":0.4375,"midi":61,"velocity":77,"channel":3,"program":27},{"beat":398.54167,"duration":0.9375,"midi":61,"velocity":93,"channel":12,"program":25},{"beat":398.54167,"duration":0.4375,"midi":64,"velocity":68,"channel":6,"program":29},{"beat":399.0,"duration":0.3125,"midi":33,"velocity":89,"channel":2,"program":33},{"beat":399.0,"duration":0.47917,"midi":45,"velocity":88,"channel":4,"program":29},{"beat":399.0,"duration":0.47917,"midi":45,"velocity":90,"channel":5,"program":30},{"beat":399.0,"duration":0.97917,"midi":52,"velocity":95,"channel":6,"program":29},{"beat":399.0,"duration":0.22917,"midi":69,"velocity":86,"channel":13,"program":81},{"beat":399.02083,"duration":0.45833,"midi":52,"velocity":90,"channel":4,"program":29},{"beat":399.02083,"duration":0.45833,"midi":52,"velocity":87,"channel":5,"program":30},{"beat":399.02083,"duration":0.95833,"midi":57,"velocity":95,"channel":6,"program":29},{"beat":399.04167,"duration":0.4375,"midi":57,"velocity":85,"channel":4,"program":29},{"beat":399.04167,"duration":0.4375,"midi":57,"velocity":87,"channel":5,"program":30},{"beat":399.04167,"duration":0.4375,"midi":62,"velocity":76,"channel":3,"program":27},{"beat":399.04167,"duration":0.9375,"midi":64,"velocity":64,"channel":6,"program":29},{"beat":399.5,"duration":0.47917,"midi":33,"velocity":88,"channel":2,"program":33},{"beat":399.5,"duration":0.22917,"midi":45,"velocity":79,"channel":4,"program":29},{"beat":399.5,"duration":0.22917,"midi":45,"velocity":79,"channel":5,"program":30},{"beat":399.5,"duration":0.22917,"midi":52,"velocity":77,"channel":3,"program":27},{"beat":399.5,"duration":2.22917,"midi":54,"velocity":90,"channel":1,"program":52},{"beat":399.5,"duration":2.22917,"midi":62,"velocity":88,"channel":1,"program":52},{"beat":399.5,"duration":2.22917,"midi":66,"velocity":89,"channel":1,"program":52},{"beat":399.5,"duration":0.22917,"midi":69,"velocity":75,"channel":13,"program":81},{"beat":399.5,"duration":2.22917,"midi":86,"velocity":101,"channel":0,"program":22},{"beat":399.52083,"duration":0.20833,"midi":52,"velocity":81,"channel":4,"program":29},{"beat":399.52083,"duration":0.20833,"midi":52,"velocity":77,"channel":5,"program":30},{"beat":399.52083,"duration":0.20833,"midi":57,"velocity":80,"channel":3,"program":27},{"beat":399.52083,"duration":0.20833,"midi":57,"velocity":84,"channel":12,"program":25},{"beat":399.54167,"duration":0.1875,"midi":57,"velocity":77,"channel":4,"program":29},{"beat":399.54167,"duration":0.1875,"midi":57,"velocity":79,"channel":5,"program":30},{"beat":399.54167,"duration":0.4375,"midi":61,"velocity":79,"channel":3,"program":27},{"beat":399.54167,"duration":0.1875,"midi":61,"velocity":87,"channel":12,"program":25},{"beat":399.75,"duration":0.22917,"midi":45,"velocity":80,"channel":4,"program":29},{"beat":399.75,"duration":0.22917,"midi":45,"velocity":86,"channel":5,"program":30},{"beat":399.75,"duration":0.22917,"midi":52,"velocity":70,"channel":3,"program":27},{"beat":399.77083,"duration":0.20833,"midi":52,"velocity":81,"channel":4,"program":29},{"beat":399.77083,"duration":0.20833,"midi":52,"velocity":89,"channel":5,"program":30},{"beat":399.77083,"duration":0.20833,"midi":57,"velocity":86,"channel":12,"program":25},{"beat":399.79167,"duration":0.1875,"midi":57,"velocity":81,"channel":3,"program":27},{"beat":399.79167,"duration":0.1875,"midi":57,"velocity":77,"channel":4,"program":29},{"beat":399.79167,"duration":0.1875,"midi":57,"velocity":86,"channel":5,"program":30},{"beat":399.79167,"duration":0.1875,"midi":61,"velocity":84,"channel":12,"program":25},{"beat":400.0,"duration":0.97917,"midi":35,"velocity":95,"channel":2,"program":33},{"beat":400.0,"duration":0.97917,"midi":47,"velocity":89,"channel":3,"program":27},{"beat":400.0,"duration":0.97917,"midi":47,"velocity":89,"channel":4,"program":29},{"beat":400.0,"duration":0.97917,"midi":47,"velocity":89,"channel":5,"program":30},{"beat":400.0,"duration":0.97917,"midi":50,"velocity":90,"channel":6,"program":29},{"beat":400.0,"duration":0.22917,"midi":69,"velocity":82,"channel":13,"program":81},{"beat":400.0,"duration":3.97917,"midi":74,"velocity":86,"channel":7,"program":51},{"beat":400.0,"duration":3.97917,"midi":86,"velocity":78,"channel":7,"program":51},{"beat":400.02083,"duration":0.95833,"midi":54,"velocity":87,"channel":4,"program":29},{"beat":400.02083,"duration":0.95833,"midi":54,"velocity":84,"channel":5,"program":30},{"beat":400.02083,"duration":0.95833,"midi":57,"velocity":87,"channel":3,"program":27},{"beat":400.02083,"duration":0.95833,"midi":57,"velocity":90,"channel":6,"program":29},{"beat":400.02083,"duration":0.95833,"midi":57,"velocity":96,"channel":12,"program":25},{"beat":400.04167,"duration":0.9375,"midi":57,"velocity":87,"channel":4,"program":29},{"beat":400.04167,"duration":0.9375,"midi":57,"velocity":88,"channel":5,"program":30},{"beat":400.04167,"duration":0.9375,"midi":62,"velocity":88,"channel":3,"program":27},{"beat":400.04167,"duration":0.9375,"midi":62,"velocity":61,"channel":6,"program":29},{"beat":400.04167,"duration":0.9375,"midi":62,"velocity":95,"channel":12,"program":25},{"beat":400.5,"duration":0.22917,"midi":69,"velocity":69,"channel":13,"program":81},{"beat":401.0,"duration":0.47917,"midi":35,"velocity":97,"channel":2,"program":33},{"beat":401.0,"duration":0.97917,"midi":47,"velocity":79,"channel":3,"program":27},{"beat":401.0,"duration":0.47917,"midi":47,"velocity":86,"channel":4,"program":29},{"beat":401.0,"duration":0.97917,"midi":47,"velocity":90,"channel":5,"program":30},{"beat":401.0,"duration":0.97917,"midi":50,"velocity":94,"channel":6,"program":29},{"beat":401.0,"duration":0.22917,"midi":69,"velocity":84,"channel":13,"program":81},{"beat":401.02083,"duration":0.45833,"midi":54,"velocity":77,"channel":4,"program":29},{"beat":401.02083,"duration":0.95833,"midi":54,"velocity":86,"channel":5,"program":30},{"beat":401.02083,"duration":0.45833,"midi":57,"velocity":85,"channel":3,"program":27},{"beat":401.02083,"duration":0.95833,"midi":57,"velocity":96,"channel":6,"program":29},{"beat":401.02083,"duration":0.45833,"midi":57,"velocity":94,"channel":12,"program":25},{"beat":401.04167,"duration":0.4375,"midi":57,"velocity":80,"channel":4,"program":29},{"beat":401.04167,"duration":0.9375,"midi":57,"velocity":90,"channel":5,"program":30},{"beat":401.04167,"duration":0.4375,"midi":64,"velocity":89,"channel":3,"program":27},{"beat":401.04167,"duration":0.9375,"midi":64,"velocity":71,"channel":6,"program":29},{"beat":401.04167,"duration":0.9375,"midi":64,"velocity":100,"channel":12,"program":25},{"beat":401.5,"duration":0.47917,"midi":35,"velocity":88,"channel":2,"program":33},{"beat":401.5,"duration":0.97917,"midi":47,"velocity":90,"channel":4,"program":29},{"beat":401.5,"duration":0.22917,"midi":69,"velocity":71,"channel":13,"program":81},{"beat":401.52083,"duration":0.95833,"midi":54,"velocity":87,"channel":4,"program":29},{"beat":401.52083,"duration":0.45833,"midi":57,"velocity":80,"channel":3,"program":27},{"beat":401.52083,"duration":0.45833,"midi":57,"velocity":82,"channel":12,"program":25},{"beat":401.54167,"duration":0.9375,"midi":57,"velocity":84,"channel":4,"program":29},{"beat":401.54167,"duration":0.4375,"midi":62,"velocity":80,"channel":3,"program":27},{"beat":402.0,"duration":0.47917,"midi":35,"velocity":97,"channel":2,"program":33},{"beat":402.0,"duration":0.47917,"midi":47,"velocity":80,"channel":3,"program":27},{"beat":402.0,"duration":0.47917,"midi":47,"velocity":87,"channel":5,"program":30},{"beat":402.0,"duration":0.47917,"midi":50,"velocity":87,"channel":6,"program":29},{"beat":402.0,"duration":0.22917,"midi":69,"velocity":76,"channel":13,"program":81},{"beat":402.02083,"duration":0.45833,"midi":54,"velocity":85,"channel":5,"program":30},{"beat":402.02083,"duration":0.45833,"midi":57,"velocity":86,"channel":3,"program":27},{"beat":402.02083,"duration":0.45833,"midi":57,"velocity":86,"channel":6,"program":29},{"beat":402.02083,"duration":0.20833,"midi":57,"velocity":89,"channel":12,"program":25},{"beat":402.04167,"duration":0.4375,"midi":57,"velocity":88,"channel":5,"program":30},{"beat":402.04167,"duration":0.4375,"midi":62,"velocity":85,"channel":3,"program":27},{"beat":402.04167,"duration":0.4375,"midi":62,"velocity":67,"channel":6,"program":29},{"beat":402.5,"duration":0.47917,"midi":35,"velocity":95,"channel":2,"program":33},{"beat":402.5,"duration":0.97917,"midi":47,"velocity":76,"channel":3,"program":27},{"beat":402.5,"duration":0.47917,"midi":47,"velocity":90,"channel":4,"program":29},{"beat":402.5,"duration":0.47917,"midi":47,"velocity":90,"channel":5,"program":30},{"beat":402.5,"duration":0.97917,"midi":50,"velocity":83,"channel":6,"program":29},{"beat":402.5,"duration":0.22917,"midi":69,"velocity":71,"channel":13,"program":81},{"beat":402.52083,"duration":0.45833,"midi":54,"velocity":86,"channel":4,"program":29},{"beat":402.52083,"duration":0.45833,"midi":54,"velocity":87,"channel":5,"program":30},{"beat":402.52083,"duration":0.95833,"midi":57,"velocity":87,"channel":3,"program":27},{"beat":402.52083,"duration":0.95833,"midi":57,"velocity":83,"channel":6,"program":29},{"beat":402.52083,"duration":0.95833,"midi":57,"velocity":87,"channel":12,"program":25},{"beat":402.54167,"duration":0.4375,"midi":57,"velocity":77,"channel":4,"program":29},{"beat":402.54167,"duration":0.4375,"midi":57,"velocity":90,"channel":5,"program":30},{"beat":402.54167,"duration":0.9375,"midi":62,"velocity":90,"channel":3,"program":27},{"beat":402.54167,"duration":0.4375,"midi":62,"velocity":64,"channel":6,"program":29},{"beat":402.54167,"duration":0.9375,"midi":62,"velocity":83,"channel":12,"program":25},{"beat":403.0,"duration":0.47917,"midi":28,"velocity":96,"channel":2,"program":33},{"beat":403.0,"duration":0.97917,"midi":47,"velocity":87,"channel":4,"program":29},{"beat":403.0,"duration":0.47917,"midi":47,"velocity":84,"channel":5,"program":30},{"beat":403.0,"duration":0.47917,"midi":59,"velocity":90,"channel":1,"program":52},{"beat":403.0,"duration":0.22917,"midi":69,"velocity":80,"channel":13,"program":81},{"beat":403.0,"duration":0.47917,"midi":83,"velocity":100,"channel":0,"program":22},{"beat":403.0,"duration":0.47917,"midi":83,"velocity":86,"channel":7,"program":51},{"beat":403.02083,"duration":0.45833,"midi":54,"velocity":90,"channel":4,"program":29},{"beat":403.02083,"duration":0.45833,"midi":54,"velocity":87,"channel":5,"program":30},{"beat":403.04167,"duration":0.9375,"midi":57,"velocity":90,"channel":4,"program":29},{"beat":403.04167,"duration":0.4375,"midi":57,"velocity":86,"channel":5,"program":30},{"beat":403.04167,"duration":0.9375,"midi":62,"velocity":64,"channel":6,"program":29},{"beat":403.5,"duration":0.47917,"midi":29,"velocity":98,"channel":2,"program":33},{"beat":403.5,"duration":0.47917,"midi":47,"velocity":82,"channel":3,"program":27},{"beat":403.5,"duration":0.47917,"midi":47,"velocity":81,"channel":5,"program":30},{"beat":403.5,"duration":0.47917,"midi":50,"velocity":81,"channel":6,"program":29},{"beat":403.5,"duration":0.22917,"midi":52,"velocity":77,"channel":4,"program":29},{"beat":403.5,"duration":1.22917,"midi":57,"velocity":90,"channel":1,"program":52},{"beat":403.5,"duration":0.22917,"midi":69,"velocity":71,"channel":13,"program":81},{"beat":403.5,"duration":1.22917,"midi":81,"velocity":102,"channel":0,"program":22},{"beat":403.5,"duration":1.22917,"midi":81,"velocity":90,"channel":7,"program":51},{"beat":403.52083,"duration":0.20833,"midi":54,"velocity":80,"channel":5,"program":30},{"beat":403.52083,"duration":0.45833,"midi":55,"velocity":77,"channel":3,"program":27},{"beat":403.52083,"duration":0.20833,"midi":57,"velocity":80,"channel":12,"program":25},{"beat":403.52083,"duration":0.45833,"midi":59,"velocity":81,"channel":6,"program":29},{"beat":403.54167,"duration":0.1875,"midi":57,"velocity":81,"channel":5,"program":30},{"beat":403.54167,"duration":0.4375,"midi":62,"velocity":82,"channel":3,"program":27},{"beat":403.54167,"duration":0.4375,"midi":62,"velocity":83,"channel":12,"program":25},{"beat":403.75,"duration":0.22917,"midi":52,"velocity":81,"channel":4,"program":29},{"beat":403.77083,"duration":0.20833,"midi":54,"velocity":77,"channel":5,"program":30},{"beat":403.77083,"duration":0.20833,"midi":57,"velocity":81,"channel":12,"program":25},{"beat":403.79167,"duration":0.1875,"midi":57,"velocity":79,"channel":5,"program":30},{"beat":404.0,"duration":0.47917,"midi":30,"velocity":97,"channel":2,"program":33},{"beat":404.0,"duration":0.47917,"midi":42,"velocity":90,"channel":5,"program":30},{"beat":404.0,"duration":0.97917,"midi":50,"velocity":86,"channel":3,"program":27},{"beat":404.0,"duration":0.97917,"midi":50,"velocity":84,"channel":4,"program":29},{"beat":404.0,"duration":0.97917,"midi":50,"velocity":73,"channel":6,"program":29},{"beat":404.0,"duration":1.97917,"midi":64,"velocity":80,"channel":14,"program":29},{"beat":404.0,"duration":0.22917,"midi":69,"velocity":65,"channel":13,"program":81},{"beat":404.0,"duration":1.97917,"midi":76,"velocity":87,"channel":7,"program":51},{"beat":404.0,"duration":1.97917,"midi":88,"velocity":86,"channel":7,"program":51},{"beat":404.02083,"duration":0.45833,"midi":50,"velocity":87,"channel":5,"program":30},{"beat":404.02083,"duration":0.95833,"midi":54,"velocity":93,"channel":12,"program":25},{"beat":404.02083,"duration":0.95833,"midi":57,"velocity":85,"channel":3,"program":27},{"beat":404.02083,"duration":0.95833,"midi":57,"velocity":90,"channel":4,"program":29},{"beat":404.02083,"duration":0.95833,"midi":57,"velocity":73,"channel":6,"program":29},{"beat":404.04167,"duration":0.4375,"midi":57,"velocity":77,"channel":5,"program":30},{"beat":404.04167,"duration":0.9375,"midi":57,"velocity":96,"channel":12,"program":25},{"beat":404.04167,"duration":0.9375,"midi":64,"velocity":90,"channel":3,"program":27},{"beat":404.5,"duration":0.47917,"midi":30,"velocity":94,"channel":2,"program":33},{"beat":404.5,"duration":0.47917,"midi":42,"velocity":89,"channel":5,"program":30},{"beat":404.5,"duration":0.22917,"midi":69,"velocity":70,"channel":13,"program":81},{"beat":404.52083,"duration":0.45833,"midi":50,"velocity":86,"channel":5,"program":30},{"beat":404.54167,"duration":0.4375,"midi":57,"velocity":79,"channel":5,"program":30},{"beat":405.0,"duration":0.47917,"midi":42,"velocity":90,"channel":2,"program":33},{"beat":405.0,"duration":0.97917,"midi":42,"velocity":90,"channel":5,"program":30},{"beat":405.0,"duration":0.47917,"midi":50,"velocity":78,"channel":3,"program":27},{"beat":405.0,"duration":0.47917,"midi":50,"velocity":79,"channel":4,"program":29},{"beat":405.0,"duration":0.97917,"midi":50,"velocity":99,"channel":6,"program":29},{"beat":405.0,"duration":0.4375,"midi":53,"velocity":86,"channel":1,"program":52},{"beat":405.0,"duration":0.22917,"midi":69,"velocity":83,"channel":13,"program":81},{"beat":405.0,"duration":0.4375,"midi":77,"velocity":101,"channel":0,"program":22},{"beat":405.02083,"duration":0.95833,"midi":50,"velocity":89,"channel":5,"program":30},{"beat":405.02083,"duration":0.45833,"midi":54,"velocity":98,"channel":12,"program":25},{"beat":405.02083,"duration":0.45833,"midi":57,"velocity":78,"channel":3,"program":27},{"beat":405.02083,"duration":0.45833,"midi":57,"velocity":83,"channel":4,"program":29},{"beat":405.02083,"duration":0.95833,"midi":57,"velocity":90,"channel":6,"program":29},{"beat":405.04167,"duration":0.9375,"midi":57,"velocity":80,"channel":5,"program":30},{"beat":405.04167,"duration":0.4375,"midi":57,"velocity":94,"channel":12,"program":25},{"beat":405.04167,"duration":0.4375,"midi":69,"velocity":80,"channel":3,"program":27},{"beat":405.5,"duration":0.47917,"midi":40,"velocity":80,"channel":2,"program":33},{"beat":405.5,"duration":0.47917,"midi":50,"velocity":82,"channel":3,"program":27},{"beat":405.5,"duration":0.97917,"midi":50,"velocity":86,"channel":4,"program":29},{"beat":405.5,"duration":1.22917,"midi":52,"velocity":88,"channel":1,"program":52},{"beat":405.5,"duration":0.22917,"midi":69,"velocity":73,"channel":13,"program":81},{"beat":405.5,"duration":1.22917,"midi":76,"velocity":101,"channel":0,"program":22},{"beat":405.52083,"duration":0.45833,"midi":54,"velocity":85,"channel":12,"program":25},{"beat":405.52083,"duration":0.45833,"midi":57,"velocity":80,"channel":3,"program":27},{"beat":405.52083,"duration":0.95833,"midi":57,"velocity":87,"channel":4,"program":29},{"beat":405.54167,"duration":0.4375,"midi":57,"velocity":89,"channel":12,"program":25},{"beat":405.54167,"duration":0.9375,"midi":64,"velocity":80,"channel":3,"program":27},{"beat":406.0,"duration":0.47917,"midi":42,"velocity":87,"channel":2,"program":33},{"beat":406.0,"duration":0.47917,"midi":42,"velocity":88,"channel":5,"program":30},{"beat":406.0,"duration":0.47917,"midi":50,"velocity":87,"channel":3,"program":27},{"beat":406.0,"duration":0.47917,"midi":50,"velocity":87,"channel":6,"program":29},{"beat":406.0,"duration":1.97917,"midi":66,"velocity":80,"channel":14,"program":29},{"beat":406.0,"duration":0.22917,"midi":69,"velocity":78,"channel":13,"program":81},{"beat":406.0,"duration":1.97917,"midi":78,"velocity":86,"channel":7,"program":51},{"beat":406.0,"duration":1.97917,"midi":90,"velocity":89,"channel":7,"program":51},{"beat":406.02083,"duration":0.45833,"midi":50,"velocity":88,"channel":5,"program":30},{"beat":406.02083,"duration":0.45833,"midi":54,"velocity":93,"channel":12,"program":25},{"beat":406.02083,"duration":0.45833,"midi":57,"velocity":85,"channel":3,"program":27},{"beat":406.02083,"duration":0.45833,"midi":57,"velocity":86,"channel":6,"program":29},{"beat":406.04167,"duration":0.4375,"midi":57,"velocity":78,"channel":5,"program":30},{"beat":406.04167,"duration":0.4375,"midi":57,"velocity":87,"channel":12,"program":25},{"beat":406.5,"duration":0.47917,"midi":42,"velocity":90,"channel":2,"program":33},{"beat":406.5,"duration":0.47917,"midi":42,"velocity":88,"channel":5,"program":30},{"beat":406.5,"duration":0.97917,"midi":50,"velocity":77,"channel":3,"program":27},{"beat":406.5,"duration":0.47917,"midi":50,"velocity":89,"channel":4,"program":29},{"beat":406.5,"duration":0.97917,"midi":50,"velocity":84,"channel":6,"program":29},{"beat":406.5,"duration":0.22917,"midi":69,"velocity":77,"channel":13,"program":81},{"beat":406.52083,"duration":0.45833,"midi":50,"velocity":88,"channel":5,"program":30},{"beat":406.52083,"duration":0.95833,"midi":54,"velocity":90,"channel":12,"program":25},{"beat":406.52083,"duration":0.95833,"midi":57,"velocity":79,"channel":3,"program":27},{"beat":406.52083,"duration":0.45833,"midi":57,"velocity":90,"channel":4,"program":29},{"beat":406.52083,"duration":0.95833,"midi":57,"velocity":83,"channel":6,"program":29},{"beat":406.54167,"duration":0.4375,"midi":57,"velocity":78,"channel":5,"program":30},{"beat":406.54167,"duration":0.9375,"midi":57,"velocity":93,"channel":12,"program":25},{"beat":406.54167,"duration":0.4375,"midi":69,"velocity":79,"channel":3,"program":27},{"beat":407.0,"duration":0.97917,"midi":40,"velocity":89,"channel":2,"program":33},{"beat":407.0,"duration":0.47917,"midi":42,"velocity":84,"channel":5,"program":30},{"beat":407.0,"duration":0.97917,"midi":50,"velocity":90,"channel":1,"program":52},{"beat":407.0,"duration":0.47917,"midi":50,"velocity":90,"channel":4,"program":29},{"beat":407.0,"duration":0.22917,"midi":69,"velocity":86,"channel":13,"program":81},{"beat":407.0,"duration":0.97917,"midi":74,"velocity":101,"channel":0,"program":22},{"beat":407.02083,"duration":0.45833,"midi":50,"velocity":84,"channel":5,"program":30},{"beat":407.02083,"duration":0.45833,"midi":57,"velocity":84,"channel":4,"program":29},{"beat":407.04167,"duration":0.4375,"midi":57,"velocity":78,"channel":5,"program":30},{"beat":407.04167,"duration":0.9375,"midi":64,"velocity":82,"channel":3,"program":27},{"beat":407.5,"duration":0.22917,"midi":42,"velocity":84,"channel":5,"program":30},{"beat":407.5,"duration":0.22917,"midi":50,"velocity":77,"channel":3,"program":27},{"beat":407.5,"duration":0.22917,"midi":50,"velocity":80,"channel":4,"program":29},{"beat":407.5,"duration":0.47917,"midi":50,"velocity":82,"channel":6,"program":29},{"beat":407.5,"duration":0.22917,"midi":69,"velocity":75,"channel":13,"program":81},{"beat":407.52083,"duration":0.20833,"midi":50,"velocity":87,"channel":5,"program":30},{"beat":407.52083,"duration":0.20833,"midi":54,"velocity":82,"channel":12,"program":25},{"beat":407.52083,"duration":0.45833,"midi":55,"velocity":82,"channel":6,"program":29},{"beat":407.52083,"duration":0.20833,"midi":57,"velocity":81,"channel":3,"program":27},{"beat":407.52083,"duration":0.20833,"midi":57,"velocity":83,"channel":4,"program":29},{"beat":407.54167,"duration":0.1875,"midi":57,"velocity":78,"channel":5,"program":30},{"beat":407.54167,"duration":0.1875,"midi":57,"velocity":85,"channel":12,"program":25},{"beat":407.75,"duration":0.22917,"midi":42,"velocity":79,"channel":5,"program":30},{"beat":407.75,"duration":0.22917,"midi":50,"velocity":78,"channel":3,"program":27},{"beat":407.75,"duration":0.22917,"midi":50,"velocity":80,"channel":4,"program":29},{"beat":407.77083,"duration":0.20833,"midi":50,"velocity":76,"channel":5,"program":30},{"beat":407.77083,"duration":0.20833,"midi":54,"velocity":88,"channel":12,"program":25},{"beat":407.77083,"duration":0.20833,"midi":57,"velocity":77,"channel":3,"program":27},{"beat":407.77083,"duration":0.20833,"midi":57,"velocity":79,"channel":4,"program":29},{"beat":407.79167,"duration":0.1875,"midi":57,"velocity":76,"channel":5,"program":30},{"beat":407.79167,"duration":0.1875,"midi":57,"velocity":86,"channel":12,"program":25},{"beat":408.0,"duration":0.97917,"midi":31,"velocity":97,"channel":2,"program":33},{"beat":408.0,"duration":0.97917,"midi":43,"velocity":85,"channel":4,"program":29},{"beat":408.0,"duration":0.97917,"midi":43,"velocity":84,"channel":5,"program":30},{"beat":408.0,"duration":0.72917,"midi":50,"velocity":90,"channel":1,"program":52},{"beat":408.0,"duration":0.97917,"midi":50,"velocity":88,"channel":3,"program":27},{"beat":408.0,"duration":0.97917,"midi":50,"velocity":75,"channel":6,"program":29},{"beat":408.0,"duration":0.72917,"midi":59,"velocity":86,"channel":1,"program":52},{"beat":408.0,"duration":0.22917,"midi":69,"velocity":82,"channel":13,"program":81},{"beat":408.0,"duration":0.72917,"midi":74,"velocity":101,"channel":0,"program":22},{"beat":408.0,"duration":3.97917,"midi":74,"velocity":84,"channel":7,"program":51},{"beat":408.0,"duration":3.97917,"midi":86,"velocity":76,"channel":7,"program":51},{"beat":408.02083,"duration":0.95833,"midi":50,"velocity":84,"channel":4,"program":29},{"beat":408.02083,"duration":0.95833,"midi":50,"velocity":90,"channel":5,"program":30},{"beat":408.02083,"duration":0.95833,"midi":55,"velocity":89,"channel":3,"program":27},{"beat":408.02083,"duration":0.95833,"midi":55,"velocity":76,"channel":6,"program":29},{"beat":408.02083,"duration":0.95833,"midi":55,"velocity":96,"channel":12,"program":25},{"beat":408.02083,"duration":0.95833,"midi":59,"velocity":81,"channel":5,"program":30},{"beat":408.02083,"duration":0.45833,"midi":66,"velocity":65,"channel":3,"program":27},{"beat":408.04167,"duration":0.9375,"midi":55,"velocity":84,"channel":4,"program":29},{"beat":408.04167,"duration":0.9375,"midi":55,"velocity":80,"channel":5,"program":30},{"beat":408.04167,"duration":0.9375,"midi":59,"velocity":84,"channel":3,"program":27},{"beat":408.04167,"duration":0.9375,"midi":59,"velocity":93,"channel":12,"program":25},{"beat":408.04167,"duration":0.9375,"midi":67,"velocity":65,"channel":6,"program":29},{"beat":408.5,"duration":0.22917,"midi":69,"velocity":69,"channel":13,"program":81},{"beat":408.52083,"duration":0.45833,"midi":64,"velocity":68,"channel":3,"program":27},{"beat":409.0,"duration":0.47917,"midi":31,"velocity":96,"channel":2,"program":33},{"beat":409.0,"duration":0.47917,"midi":43,"velocity":89,"channel":4,"program":29},{"beat":409.0,"duration":0.47917,"midi":43,"velocity":84,"channel":5,"program":30},{"beat":409.0,"duration":0.47917,"midi":50,"velocity":84,"channel":3,"program":27},{"beat":409.0,"duration":0.97917,"midi":50,"velocity":92,"channel":6,"program":29},{"beat":409.0,"duration":0.97917,"midi":52,"velocity":88,"channel":1,"program":52},{"beat":409.0,"duration":0.97917,"midi":57,"velocity":58,"channel":1,"program":52},{"beat":409.0,"duration":0.47917,"midi":62,"velocity":76,"channel":5,"program":30},{"beat":409.0,"duration":0.22917,"midi":69,"velocity":84,"channel":13,"program":81},{"beat":409.0,"duration":0.97917,"midi":76,"velocity":100,"channel":0,"program":22},{"beat":409.02083,"duration":0.45833,"midi":50,"velocity":93,"channel":4,"program":29},{"beat":409.02083,"duration":0.45833,"midi":50,"velocity":87,"channel":5,"program":30},{"beat":409.02083,"duration":0.45833,"midi":55,"velocity":84,"channel":3,"program":27},{"beat":409.02083,"duration":0.45833,"midi":57,"velocity":95,"channel":6,"program":29},{"beat":409.02083,"duration":0.45833,"midi":57,"velocity":95,"channel":12,"program":25},{"beat":409.04167,"duration":0.4375,"midi":55,"velocity":95,"channel":4,"program":29},{"beat":409.04167,"duration":0.4375,"midi":55,"velocity":80,"channel":5,"program":30},{"beat":409.04167,"duration":0.4375,"midi":59,"velocity":90,"channel":3,"program":27},{"beat":409.04167,"duration":0.4375,"midi":62,"velocity":94,"channel":12,"program":25},{"beat":409.04167,"duration":0.4375,"midi":66,"velocity":65,"channel":6,"program":29},{"beat":409.5,"duration":0.47917,"midi":31,"velocity":89,"channel":2,"program":33},{"beat":409.5,"duration":0.97917,"midi":43,"velocity":85,"channel":4,"program":29},{"beat":409.5,"duration":0.97917,"midi":43,"velocity":90,"channel":5,"program":30},{"beat":409.5,"duration":0.97917,"midi":50,"velocity":84,"channel":3,"program":27},{"beat":409.5,"duration":0.22917,"midi":69,"velocity":71,"channel":13,"program":81},{"beat":409.52083,"duration":0.95833,"midi":50,"velocity":90,"channel":4,"program":29},{"beat":409.52083,"duration":0.95833,"midi":50,"velocity":87,"channel":5,"program":30},{"beat":409.52083,"duration":0.95833,"midi":55,"velocity":84,"channel":3,"program":27},{"beat":409.52083,"duration":0.45833,"midi":55,"velocity":86,"channel":6,"program":29},{"beat":409.52083,"duration":0.45833,"midi":55,"velocity":84,"channel":12,"program":25},{"beat":409.52083,"duration":0.95833,"midi":59,"velocity":77,"channel":5,"program":30},{"beat":409.52083,"duration":1.45833,"midi":62,"velocity":69,"channel":3,"program":27},{"beat":409.54167,"duration":0.9375,"midi":55,"velocity":86,"channel":4,"program":29},{"beat":409.54167,"duration":0.9375,"midi":55,"velocity":78,"channel":5,"program":30},{"beat":409.54167,"duration":0.9375,"midi":59,"velocity":84,"channel":3,"program":27},{"beat":409.54167,"duration":0.9375,"midi":59,"velocity":82,"channel":12,"program":25},{"beat":409.54167,"duration":0.9375,"midi":67,"velocity":71,"channel":6,"program":29},{"beat":410.0,"duration":0.47917,"midi":31,"velocity":99,"channel":2,"program":33},{"beat":410.0,"duration":0.47917,"midi":50,"velocity":89,"channel":6,"program":29},{"beat":410.0,"duration":0.97917,"midi":54,"velocity":89,"channel":1,"program":52},{"beat":410.0,"duration":0.97917,"midi":62,"velocity":58,"channel":1,"program":52},{"beat":410.0,"duration":0.22917,"midi":69,"velocity":76,"channel":13,"program":81},{"beat":410.0,"duration":0.97917,"midi":78,"velocity":102,"channel":0,"program":22},{"beat":410.02083,"duration":0.45833,"midi":55,"velocity":87,"channel":6,"program":29},{"beat":410.02083,"duration":0.45833,"midi":55,"velocity":91,"channel":12,"program":25},{"beat":410.5,"duration":0.47917,"midi":31,"velocity":95,"channel":2,"program":33},{"beat":410.5,"duration":0.47917,"midi":43,"velocity":80,"channel":4,"program":29},{"beat":410.5,"duration":0.97917,"midi":43,"velocity":88,"channel":5,"program":30},{"beat":410.5,"duration":0.47917,"midi":50,"velocity":78,"channel":3,"program":27},{"beat":410.5,"duration":0.47917,"midi":54,"velocity":88,"channel":6,"program":29},{"beat":410.5,"duration":0.22917,"midi":69,"velocity":71,"channel":13,"program":81},{"beat":410.52083,"duration":0.45833,"midi":50,"velocity":80,"channel":4,"program":29},{"beat":410.52083,"duration":0.95833,"midi":50,"velocity":85,"channel":5,"program":30},{"beat":410.52083,"duration":0.45833,"midi":55,"velocity":76,"channel":3,"program":27},{"beat":410.52083,"duration":0.95833,"midi":55,"velocity":81,"channel":12,"program":25},{"beat":410.52083,"duration":0.95833,"midi":57,"velocity":90,"channel":6,"program":29},{"beat":410.54167,"duration":0.4375,"midi":55,"velocity":81,"channel":4,"program":29},{"beat":410.54167,"duration":1.4375,"midi":55,"velocity":80,"channel":5,"program":30},{"beat":410.54167,"duration":0.4375,"midi":59,"velocity":82,"channel":3,"program":27},{"beat":410.54167,"duration":0.9375,"midi":62,"velocity":83,"channel":12,"program":25},{"beat":410.54167,"duration":0.4375,"midi":66,"velocity":83,"channel":6,"program":29},{"beat":411.0,"duration":0.47917,"midi":31,"velocity":96,"channel":2,"program":33},{"beat":411.0,"duration":0.47917,"midi":43,"velocity":88,"channel":4,"program":29},{"beat":411.0,"duration":0.97917,"midi":50,"velocity":81,"channel":3,"program":27},{"beat":411.0,"duration":0.97917,"midi":50,"velocity":86,"channel":6,"program":29},{"beat":411.0,"duration":0.97917,"midi":55,"velocity":60,"channel":1,"program":52},{"beat":411.0,"duration":0.97917,"midi":64,"velocity":59,"channel":1,"program":52},{"beat":411.0,"duration":0.22917,"midi":69,"velocity":80,"channel":13,"program":81},{"beat":411.0,"duration":0.97917,"midi":79,"velocity":102,"channel":0,"program":22},{"beat":411.02083,"duration":0.45833,"midi":50,"velocity":90,"channel":4,"program":29},{"beat":411.02083,"duration":0.95833,"midi":55,"velocity":78,"channel":3,"program":27},{"beat":411.04167,"duration":0.4375,"midi":55,"velocity":88,"channel":4,"program":29},{"beat":411.04167,"duration":0.9375,"midi":59,"velocity":82,"channel":3,"program":27},{"beat":411.5,"duration":0.47917,"midi":31,"velocity":100,"channel":2,"program":33},{"beat":411.5,"duration":0.22917,"midi":43,"velocity":79,"channel":4,"program":29},{"beat":411.5,"duration":0.22917,"midi":43,"velocity":81,"channel":5,"program":30},{"beat":411.5,"duration":0.22917,"midi":69,"velocity":71,"channel":13,"program":81},{"beat":411.52083,"duration":0.20833,"midi":50,"velocity":82,"channel":4,"program":29},{"beat":411.52083,"duration":0.20833,"midi":50,"velocity":78,"channel":5,"program":30},{"beat":411.52083,"duration":0.20833,"midi":55,"velocity":81,"channel":12,"program":25},{"beat":411.52083,"duration":0.45833,"midi":57,"velocity":85,"channel":6,"program":29},{"beat":411.54167,"duration":0.1875,"midi":55,"velocity":79,"channel":4,"program":29},{"beat":411.54167,"duration":0.1875,"midi":62,"velocity":83,"channel":12,"program":25},{"beat":411.75,"duration":0.22917,"midi":43,"velocity":81,"channel":4,"program":29},{"beat":411.75,"duration":0.22917,"midi":43,"velocity":82,"channel":5,"program":30},{"beat":411.77083,"duration":0.20833,"midi":50,"velocity":81,"channel":4,"program":29},{"beat":411.77083,"duration":0.20833,"midi":50,"velocity":77,"channel":5,"program":30},{"beat":411.77083,"duration":0.20833,"midi":55,"velocity":82,"channel":12,"program":25},{"beat":411.79167,"duration":0.1875,"midi":55,"velocity":82,"channel":4,"program":29},{"beat":411.79167,"duration":0.1875,"midi":62,"velocity":86,"channel":12,"program":25},{"beat":412.0,"duration":0.97917,"midi":33,"velocity":95,"channel":2,"program":33},{"beat":412.0,"duration":0.97917,"midi":45,"velocity":87,"channel":4,"program":29},{"beat":412.0,"duration":0.97917,"midi":45,"velocity":87,"channel":5,"program":30},{"beat":412.0,"duration":0.97917,"midi":52,"velocity":85,"channel":3,"program":27},{"beat":412.0,"duration":0.97917,"midi":52,"velocity":93,"channel":6,"program":29},{"beat":412.0,"duration":0.97917,"midi":54,"velocity":90,"channel":1,"program":52},{"beat":412.0,"duration":0.97917,"midi":61,"velocity":60,"channel":1,"program":52},{"beat":412.0,"duration":0.22917,"midi":69,"velocity":65,"channel":13,"program":81},{"beat":412.0,"duration":3.97917,"midi":73,"velocity":87,"channel":7,"program":51},{"beat":412.0,"duration":0.97917,"midi":78,"velocity":101,"channel":0,"program":22},{"beat":412.0,"duration":3.97917,"midi":85,"velocity":74,"channel":7,"program":51},{"beat":412.02083,"duration":0.95833,"midi":52,"velocity":87,"channel":4,"program":29},{"beat":412.02083,"duration":0.95833,"midi":52,"velocity":84,"channel":5,"program":30},{"beat":412.02083,"duration":0.95833,"midi":57,"velocity":86,"channel":3,"program":27},{"beat":412.02083,"duration":0.95833,"midi":57,"velocity":92,"channel":12,"program":25},{"beat":412.02083,"duration":0.95833,"midi":61,"velocity":92,"channel":6,"program":29},{"beat":412.04167,"duration":0.9375,"midi":57,"velocity":89,"channel":4,"program":29},{"beat":412.04167,"duration":0.9375,"midi":57,"velocity":87,"channel":5,"program":30},{"beat":412.04167,"duration":0.9375,"midi":61,"velocity":87,"channel":3,"program":27},{"beat":412.04167,"duration":0.9375,"midi":61,"velocity":93,"channel":12,"program":25},{"beat":412.5,"duration":0.22917,"midi":69,"velocity":70,"channel":13,"program":81},{"beat":413.0,"duration":0.47917,"midi":33,"velocity":97,"channel":2,"program":33},{"beat":413.0,"duration":0.47917,"midi":45,"velocity":90,"channel":4,"program":29},{"beat":413.0,"duration":0.97917,"midi":45,"velocity":87,"channel":5,"program":30},{"beat":413.0,"duration":0.72917,"midi":52,"velocity":87,"channel":1,"program":52},{"beat":413.0,"duration":0.97917,"midi":52,"velocity":89,"channel":3,"program":27},{"beat":413.0,"duration":1.47917,"midi":52,"velocity":97,"channel":6,"program":29},{"beat":413.0,"duration":0.72917,"midi":57,"velocity":60,"channel":1,"program":52},{"beat":413.0,"duration":0.22917,"midi":69,"velocity":83,"channel":13,"program":81},{"beat":413.0,"duration":0.72917,"midi":76,"velocity":101,"channel":0,"program":22},{"beat":413.02083,"duration":0.45833,"midi":52,"velocity":80,"channel":4,"program":29},{"beat":413.02083,"duration":0.95833,"midi":52,"velocity":86,"channel":5,"program":30},{"beat":413.02083,"duration":0.95833,"midi":57,"velocity":87,"channel":3,"program":27},{"beat":413.02083,"duration":0.45833,"midi":57,"velocity":93,"channel":12,"program":25},{"beat":413.02083,"duration":1.45833,"midi":61,"velocity":96,"channel":6,"program":29},{"beat":413.04167,"duration":0.4375,"midi":57,"velocity":78,"channel":4,"program":29},{"beat":413.04167,"duration":0.9375,"midi":57,"velocity":77,"channel":5,"program":30},{"beat":413.04167,"duration":0.9375,"midi":61,"velocity":89,"channel":3,"program":27},{"beat":413.04167,"duration":0.4375,"midi":61,"velocity":98,"channel":12,"program":25},{"beat":413.5,"duration":0.47917,"midi":37,"velocity":80,"channel":2,"program":33},{"beat":413.5,"duration":0.97917,"midi":45,"velocity":90,"channel":4,"program":29},{"beat":413.5,"duration":0.22917,"midi":69,"velocity":73,"channel":13,"program":81},{"beat":413.52083,"duration":0.95833,"midi":52,"velocity":88,"channel":4,"program":29},{"beat":413.52083,"duration":0.95833,"midi":57,"velocity":86,"channel":12,"program":25},{"beat":413.54167,"duration":0.9375,"midi":57,"velocity":90,"channel":4,"program":29},{"beat":413.54167,"duration":0.9375,"midi":61,"velocity":88,"channel":12,"program":25},{"beat":414.0,"duration":0.47917,"midi":45,"velocity":88,"channel":2,"program":33},{"beat":414.0,"duration":0.47917,"midi":45,"velocity":87,"channel":5,"program":30},{"beat":414.0,"duration":0.47917,"midi":50,"velocity":89,"channel":1,"program":52},{"beat":414.0,"duration":0.47917,"midi":52,"velocity":88,"channel":3,"program":27},{"beat":414.0,"duration":0.47917,"midi":57,"velocity":60,"channel":1,"program":52},{"beat":414.0,"duration":0.22917,"midi":69,"velocity":78,"channel":13,"program":81},{"beat":414.0,"duration":0.47917,"midi":74,"velocity":102,"channel":0,"program":22},{"beat":414.02083,"duration":0.45833,"midi":52,"velocity":84,"channel":5,"program":30},{"beat":414.02083,"duration":0.45833,"midi":57,"velocity":86,"channel":3,"program":27},{"beat":414.04167,"duration":0.4375,"midi":57,"velocity":85,"channel":5,"program":30},{"beat":414.04167,"duration":0.4375,"midi":61,"velocity":89,"channel":3,"program":27},{"beat":414.5,"duration":0.47917,"midi":45,"velocity":92,"channel":2,"program":33},{"beat":414.5,"duration":0.47917,"midi":45,"velocity":84,"channel":4,"program":29},{"beat":414.5,"duration":0.47917,"midi":45,"velocity":82,"channel":5,"program":30},{"beat":414.5,"duration":0.47917,"midi":49,"velocity":90,"channel":1,"program":52},{"beat":414.5,"duration":0.47917,"midi":52,"velocity":79,"channel":3,"program":27},{"beat":414.5,"duration":0.47917,"midi":52,"velocity":82,"channel":6,"program":29},{"beat":414.5,"duration":0.47917,"midi":57,"velocity":60,"channel":1,"program":52},{"beat":414.5,"duration":0.22917,"midi":69,"velocity":77,"channel":13,"program":81},{"beat":414.5,"duration":0.47917,"midi":73,"velocity":99,"channel":0,"program":22},{"beat":414.52083,"duration":0.45833,"midi":52,"velocity":79,"channel":4,"program":29},{"beat":414.52083,"duration":0.45833,"midi":52,"velocity":80,"channel":5,"program":30},{"beat":414.52083,"duration":0.45833,"midi":57,"velocity":80,"channel":3,"program":27},{"beat":414.52083,"duration":0.95833,"midi":57,"velocity":93,"channel":12,"program":25},{"beat":414.52083,"duration":0.45833,"midi":61,"velocity":80,"channel":6,"program":29},{"beat":414.54167,"duration":0.4375,"midi":57,"velocity":77,"channel":4,"program":29},{"beat":414.54167,"duration":0.4375,"midi":57,"velocity":81,"channel":5,"program":30},{"beat":414.54167,"duration":0.4375,"midi":61,"velocity":76,"channel":3,"program":27},{"beat":414.54167,"duration":0.9375,"midi":61,"velocity":86,"channel":12,"program":25},{"beat":415.0,"duration":0.47917,"midi":45,"velocity":94,"channel":2,"program":33},{"beat":415.0,"duration":0.97917,"midi":45,"velocity":89,"channel":4,"program":29},{"beat":415.0,"duration":0.97917,"midi":45,"velocity":79,"channel":5,"program":30},{"beat":415.0,"duration":2.97917,"midi":50,"velocity":89,"channel":1,"program":52},{"beat":415.0,"duration":0.47917,"midi":52,"velocity":76,"channel":3,"program":27},{"beat":415.0,"duration":0.97917,"midi":52,"velocity":91,"channel":6,"program":29},{"beat":415.0,"duration":2.97917,"midi":57,"velocity":59,"channel":1,"program":52},{"beat":415.0,"duration":0.22917,"midi":69,"velocity":86,"channel":13,"program":81},{"beat":415.0,"duration":2.97917,"midi":74,"velocity":101,"channel":0,"program":22},{"beat":415.02083,"duration":0.95833,"midi":52,"velocity":87,"channel":4,"program":29},{"beat":415.02083,"duration":0.95833,"midi":52,"velocity":81,"channel":5,"program":30},{"beat":415.02083,"duration":0.45833,"midi":57,"velocity":82,"channel":3,"program":27},{"beat":415.02083,"duration":0.95833,"midi":61,"velocity":93,"channel":6,"program":29},{"beat":415.04167,"duration":0.9375,"midi":57,"velocity":88,"channel":4,"program":29},{"beat":415.04167,"duration":0.9375,"midi":57,"velocity":76,"channel":5,"program":30},{"beat":415.04167,"duration":0.9375,"midi":61,"velocity":79,"channel":3,"program":27},{"beat":415.5,"duration":0.47917,"midi":45,"velocity":89,"channel":2,"program":33},{"beat":415.5,"duration":0.47917,"midi":52,"velocity":81,"channel":3,"program":27},{"beat":415.5,"duration":0.22917,"midi":69,"velocity":75,"channel":13,"program":81},{"beat":415.5,"duration":0.52083,"midi":91,"velocity":87,"channel":7,"program":29},{"beat":415.52083,"duration":0.45833,"midi":57,"velocity":82,"channel":3,"program":27},{"beat":415.52083,"duration":0.20833,"midi":57,"velocity":87,"channel":12,"program":25},{"beat":415.54167,"duration":0.1875,"midi":61,"velocity":87,"channel":12,"program":25},{"beat":415.77083,"duration":0.20833,"midi":57,"velocity":87,"channel":12,"program":25},{"beat":415.79167,"duration":0.1875,"midi":61,"velocity":89,"channel":12,"program":25},{"beat":416.0,"duration":0.47917,"midi":38,"velocity":94,"channel":2,"program":33},{"beat":416.0,"duration":0.47917,"midi":50,"velocity":88,"channel":3,"program":27},{"beat":416.0,"duration":0.97917,"midi":50,"velocity":87,"channel":4,"program":29},{"beat":416.0,"duration":0.47917,"midi":50,"velocity":84,"channel":5,"program":30},{"beat":416.0,"duration":0.47917,"midi":57,"velocity":73,"channel":6,"program":29},{"beat":416.0,"duration":0.22917,"midi":69,"velocity":82,"channel":13,"program":81},{"beat":416.0,"duration":3.97917,"midi":74,"velocity":86,"channel":7,"program":51},{"beat":416.0,"duration":3.97917,"midi":86,"velocity":77,"channel":7,"program":51},{"beat":416.0,"duration":2.35417,"midi":93,"velocity":89,"channel":7,"program":29},{"beat":416.02083,"duration":0.45833,"midi":57,"velocity":85,"channel":3,"program":27},{"beat":416.02083,"duration":0.95833,"midi":57,"velocity":85,"channel":4,"program":29},{"beat":416.02083,"duration":0.45833,"midi":57,"velocity":85,"channel":5,"program":30},{"beat":416.02083,"duration":0.45833,"midi":57,"velocity":98,"channel":12,"program":25},{"beat":416.02083,"duration":0.45833,"midi":66,"velocity":74,"channel":6,"program":29},{"beat":416.04167,"duration":0.4375,"midi":62,"velocity":97,"channel":12,"program":25},{"beat":416.04167,"duration":0.4375,"midi":64,"velocity":84,"channel":3,"program":27},{"beat":416.5,"duration":0.47917,"midi":38,"velocity":98,"channel":2,"program":33},{"beat":416.5,"duration":0.47917,"midi":50,"velocity":90,"channel":3,"program":27},{"beat":416.5,"duration":0.47917,"midi":50,"velocity":88,"channel":5,"program":30},{"beat":416.5,"duration":0.47917,"midi":57,"velocity":81,"channel":6,"program":29},{"beat":416.5,"duration":0.22917,"midi":69,"velocity":69,"channel":13,"program":81},{"beat":416.52083,"duration":0.45833,"midi":57,"velocity":89,"channel":3,"program":27},{"beat":416.52083,"duration":0.45833,"midi":57,"velocity":84,"channel":5,"program":30},{"beat":416.52083,"duration":0.45833,"midi":57,"velocity":77,"channel":12,"program":25},{"beat":416.52083,"duration":0.45833,"midi":66,"velocity":80,"channel":6,"program":29},{"beat":416.54167,"duration":0.4375,"midi":62,"velocity":81,"channel":12,"program":25},{"beat":416.54167,"duration":0.4375,"midi":64,"velocity":90,"channel":3,"program":27},{"beat":417.0,"duration":0.47917,"midi":38,"velocity":98,"channel":2,"program":33},{"beat":417.0,"duration":0.47917,"midi":50,"velocity":87,"channel":3,"program":27},{"beat":417.0,"duration":0.47917,"midi":50,"velocity":80,"channel":4,"program":29},{"beat":417.0,"duration":0.97917,"midi":50,"velocity":86,"channel":5,"program":30},{"beat":417.0,"duration":0.97917,"midi":59,"velocity":93,"channel":6,"program":29},{"beat":417.0,"duration":0.22917,"midi":69,"velocity":84,"channel":13,"program":81},{"beat":417.02083,"duration":0.45833,"midi":57,"velocity":86,"channel":3,"program":27},{"beat":417.02083,"duration":0.95833,"midi":57,"velocity":87,"channel":5,"program":30},{"beat":417.02083,"duration":0.45833,"midi":59,"velocity":78,"channel":4,"program":29},{"beat":417.02083,"duration":0.45833,"midi":59,"velocity":93,"channel":12,"program":25},{"beat":417.02083,"duration":0.45833,"midi":66,"velocity":95,"channel":6,"program":29},{"beat":417.04167,"duration":0.9375,"midi":62,"velocity":81,"channel":5,"program":30},{"beat":417.04167,"duration":0.4375,"midi":64,"velocity":85,"channel":3,"program":27},{"beat":417.04167,"duration":0.4375,"midi":64,"velocity":97,"channel":12,"program":25},{"beat":417.5,"duration":0.47917,"midi":38,"velocity":99,"channel":2,"program":33},{"beat":417.5,"duration":0.47917,"midi":50,"velocity":79,"channel":3,"program":27},{"beat":417.5,"duration":0.97917,"midi":50,"velocity":90,"channel":4,"program":29},{"beat":417.5,"duration":0.22917,"midi":69,"velocity":71,"channel":13,"program":81},{"beat":417.52083,"duration":0.45833,"midi":57,"velocity":82,"channel":3,"program":27},{"beat":417.52083,"duration":0.95833,"midi":57,"velocity":85,"channel":4,"program":29},{"beat":417.52083,"duration":0.45833,"midi":57,"velocity":82,"channel":12,"program":25},{"beat":417.52083,"duration":0.45833,"midi":66,"velocity":84,"channel":6,"program":29},{"beat":417.54167,"duration":0.4375,"midi":62,"velocity":81,"channel":12,"program":25},{"beat":417.54167,"duration":0.9375,"midi":66,"velocity":81,"channel":3,"program":27},{"beat":418.0,"duration":0.47917,"midi":38,"velocity":97,"channel":2,"program":33},{"beat":418.0,"duration":0.47917,"midi":50,"velocity":84,"channel":3,"program":27},{"beat":418.0,"duration":0.47917,"midi":50,"velocity":90,"channel":5,"program":30},{"beat":418.0,"duration":0.47917,"midi":57,"velocity":87,"channel":6,"program":29},{"beat":418.0,"duration":0.22917,"midi":69,"velocity":76,"channel":13,"program":81},{"beat":418.02083,"duration":0.45833,"midi":57,"velocity":90,"channel":3,"program":27},{"beat":418.02083,"duration":0.45833,"midi":57,"velocity":89,"channel":5,"program":30},{"beat":418.02083,"duration":0.45833,"midi":57,"velocity":92,"channel":12,"program":25},{"beat":418.02083,"duration":0.45833,"midi":66,"velocity":87,"channel":6,"program":29},{"beat":418.04167,"duration":0.4375,"midi":62,"velocity":80,"channel":5,"program":30},{"beat":418.04167,"duration":0.4375,"midi":62,"velocity":90,"channel":12,"program":25},{"beat":418.5,"duration":0.47917,"midi":38,"velocity":100,"channel":2,"program":33},{"beat":418.5,"duration":0.47917,"midi":50,"velocity":87,"channel":3,"program":27},{"beat":418.5,"duration":0.47917,"midi":50,"velocity":85,"channel":4,"program":29},{"beat":418.5,"duration":0.47917,"midi":50,"velocity":86,"channel":5,"program":30},{"beat":418.5,"duration":0.47917,"midi":57,"velocity":86,"channel":6,"program":29},{"beat":418.5,"duration":0.22917,"midi":69,"velocity":71,"channel":13,"program":81},{"beat":418.52083,"duration":0.45833,"midi":57,"velocity":87,"channel":3,"program":27},{"beat":418.52083,"duration":0.45833,"midi":57,"velocity":82,"channel":4,"program":29},{"beat":418.52083,"duration":0.45833,"midi":57,"velocity":87,"channel":5,"program":30},{"beat":418.52083,"duration":0.95833,"midi":57,"velocity":86,"channel":12,"program":25},{"beat":418.52083,"duration":0.45833,"midi":66,"velocity":86,"channel":6,"program":29},{"beat":418.54167,"duration":0.4375,"midi":64,"velocity":80,"channel":4,"program":29},{"beat":418.54167,"duration":0.4375,"midi":64,"velocity":79,"channel":5,"program":30},{"beat":418.54167,"duration":0.9375,"midi":64,"velocity":86,"channel":12,"program":25},{"beat":418.54167,"duration":0.4375,"midi":66,"velocity":71,"channel":3,"program":27},{"beat":419.0,"duration":0.47917,"midi":50,"velocity":87,"channel":3,"program":27},{"beat":419.0,"duration":0.97917,"midi":50,"velocity":87,"channel":4,"program":29},{"beat":419.0,"duration":0.97917,"midi":50,"velocity":87,"channel":5,"program":30},{"beat":419.0,"duration":0.47917,"midi":52,"velocity":80,"channel":2,"program":33},{"beat":419.0,"duration":0.47917,"midi":59,"velocity":98,"channel":6,"program":29},{"beat":419.0,"duration":0.22917,"midi":69,"velocity":80,"channel":13,"program":81},{"beat":419.0,"duration":0.22917,"midi":95,"velocity":70,"channel":7,"program":29},{"beat":419.02083,"duration":0.45833,"midi":57,"velocity":88,"channel":3,"program":27},{"beat":419.02083,"duration":0.95833,"midi":57,"velocity":87,"channel":4,"program":29},{"beat":419.02083,"duration":0.95833,"midi":57,"velocity":86,"channel":5,"program":30},{"beat":419.02083,"duration":0.45833,"midi":66,"velocity":99,"channel":6,"program":29},{"beat":419.04167,"duration":0.9375,"midi":64,"velocity":80,"channel":4,"program":29},{"beat":419.04167,"duration":0.9375,"midi":64,"velocity":82,"channel":5,"program":30},{"beat":419.04167,"duration":0.4375,"midi":66,"velocity":77,"channel":3,"program":27},{"beat":419.5,"duration":0.47917,"midi":45,"velocity":90,"channel":2,"program":33},{"beat":419.5,"duration":0.47917,"midi":50,"velocity":76,"channel":3,"program":27},{"beat":419.5,"duration":0.47917,"midi":57,"velocity":85,"channel":6,"program":29},{"beat":419.5,"duration":0.22917,"midi":69,"velocity":71,"channel":13,"program":81},{"beat":419.52083,"duration":0.45833,"midi":57,"velocity":81,"channel":3,"program":27},{"beat":419.52083,"duration":0.20833,"midi":57,"velocity":85,"channel":12,"program":25},{"beat":419.52083,"duration":0.45833,"midi":66,"velocity":84,"channel":6,"program":29},{"beat":419.54167,"duration":0.1875,"midi":64,"velocity":83,"channel":12,"program":25},{"beat":419.54167,"duration":0.4375,"midi":66,"velocity":70,"channel":3,"program":27},{"beat":419.77083,"duration":0.20833,"midi":57,"velocity":85,"channel":12,"program":25},{"beat":419.79167,"duration":0.1875,"midi":64,"velocity":84,"channel":12,"program":25},{"beat":420.0,"duration":0.47917,"midi":50,"velocity":82,"channel":2,"program":33},{"beat":420.0,"duration":0.47917,"midi":50,"velocity":90,"channel":3,"program":27},{"beat":420.0,"duration":0.47917,"midi":50,"velocity":85,"channel":4,"program":29},{"beat":420.0,"duration":0.47917,"midi":50,"velocity":90,"channel":5,"program":30},{"beat":420.0,"duration":1.97917,"midi":57,"velocity":93,"channel":6,"program":29},{"beat":420.0,"duration":1.97917,"midi":64,"velocity":89,"channel":7,"program":51},{"beat":420.0,"duration":0.22917,"midi":69,"velocity":65,"channel":13,"program":81},{"beat":420.0,"duration":1.97917,"midi":83,"velocity":89,"channel":7,"program":51},{"beat":420.0,"duration":1.97917,"midi":95,"velocity":78,"channel":7,"program":51},{"beat":420.02083,"duration":0.45833,"midi":57,"velocity":85,"channel":3,"program":27},{"beat":420.02083,"duration":0.45833,"midi":57,"velocity":85,"channel":4,"program":29},{"beat":420.02083,"duration":0.45833,"midi":57,"velocity":85,"channel":5,"program":30},{"beat":420.02083,"duration":0.45833,"midi":57,"velocity":97,"channel":12,"program":25},{"beat":420.02083,"duration":1.95833,"midi":64,"velocity":93,"channel":6,"program":29},{"beat":420.02083,"duration":0.45833,"midi":69,"velocity":79,"channel":3,"program":27},{"beat":420.04167,"duration":0.4375,"midi":62,"velocity":94,"channel":12,"program":25},{"beat":420.04167,"duration":0.4375,"midi":64,"velocity":89,"channel":3,"program":27},{"beat":420.04167,"duration":0.4375,"midi":64,"velocity":80,"channel":5,"program":30},{"beat":420.04167,"duration":1.9375,"midi":69,"velocity":80,"channel":6,"program":29},{"beat":420.5,"duration":0.47917,"midi":50,"velocity":81,"channel":2,"program":33},{"beat":420.5,"duration":0.47917,"midi":50,"velocity":82,"channel":3,"program":27},{"beat":420.5,"duration":0.97917,"midi":50,"velocity":86,"channel":4,"program":29},{"beat":420.5,"duration":0.47917,"midi":50,"velocity":89,"channel":5,"program":30},{"beat":420.5,"duration":0.22917,"midi":69,"velocity":70,"channel":13,"program":81},{"beat":420.52083,"duration":0.45833,"midi":57,"velocity":79,"channel":3,"program":27},{"beat":420.52083,"duration":0.95833,"midi":57,"velocity":87,"channel":4,"program":29},{"beat":420.52083,"duration":0.45833,"midi":57,"velocity":88,"channel":5,"program":30},{"beat":420.52083,"duration":0.45833,"midi":57,"velocity":82,"channel":12,"program":25},{"beat":420.54167,"duration":0.4375,"midi":62,"velocity":84,"channel":12,"program":25},{"beat":420.54167,"duration":1.4375,"midi":64,"velocity":90,"channel":3,"program":27},{"beat":420.54167,"duration":0.4375,"midi":64,"velocity":77,"channel":5,"program":30},{"beat":421.0,"duration":0.8125,"midi":50,"velocity":90,"channel":1,"program":52},{"beat":421.0,"duration":0.47917,"midi":50,"velocity":92,"channel":2,"program":33},{"beat":421.0,"duration":0.47917,"midi":50,"velocity":87,"channel":3,"program":27},{"beat":421.0,"duration":0.97917,"midi":50,"velocity":90,"channel":5,"program":30},{"beat":421.0,"duration":0.47917,"midi":67,"velocity":99,"channel":10,"program":52},{"beat":421.0,"duration":0.22917,"midi":69,"velocity":83,"channel":13,"program":81},{"beat":421.0,"duration":0.8125,"midi":74,"velocity":101,"channel":0,"program":22},{"beat":421.02083,"duration":0.45833,"midi":57,"velocity":87,"channel":3,"program":27},{"beat":421.02083,"duration":0.95833,"midi":57,"velocity":86,"channel":5,"program":30},{"beat":421.02083,"duration":0.45833,"midi":57,"velocity":94,"channel":12,"program":25},{"beat":421.04167,"duration":0.4375,"midi":62,"velocity":97,"channel":12,"program":25},{"beat":421.04167,"duration":0.9375,"midi":64,"velocity":79,"channel":5,"program":30},{"beat":421.5,"duration":0.47917,"midi":50,"velocity":83,"channel":2,"program":33},{"beat":421.5,"duration":0.47917,"midi":50,"velocity":80,"channel":3,"program":27},{"beat":421.5,"duration":0.47917,"midi":50,"velocity":90,"channel":4,"program":29},{"beat":421.5,"duration":1.47917,"midi":64,"velocity":99,"channel":10,"program":52},{"beat":421.5,"duration":0.22917,"midi":69,"velocity":73,"channel":13,"program":81},{"beat":421.52083,"duration":0.45833,"midi":57,"velocity":82,"channel":3,"program":27},{"beat":421.52083,"duration":0.45833,"midi":57,"velocity":84,"channel":4,"program":29},{"beat":421.52083,"duration":0.45833,"midi":57,"velocity":86,"channel":12,"program":25},{"beat":421.54167,"duration":0.4375,"midi":62,"velocity":86,"channel":12,"program":25},{"beat":422.0,"duration":0.47917,"midi":50,"velocity":89,"channel":2,"program":33},{"beat":422.0,"duration":0.47917,"midi":50,"velocity":84,"channel":3,"program":27},{"beat":422.0,"duration":0.47917,"midi":50,"velocity":89,"channel":4,"program":29},{"beat":422.0,"duration":0.47917,"midi":50,"velocity":84,"channel":5,"program":30},{"beat":422.0,"duration":0.72917,"midi":54,"velocity":87,"channel":1,"program":52},{"beat":422.0,"duration":0.97917,"midi":54,"velocity":86,"channel":6,"program":29},{"beat":422.0,"duration":1.97917,"midi":66,"velocity":90,"channel":7,"program":51},{"beat":422.0,"duration":0.22917,"midi":69,"velocity":78,"channel":13,"program":81},{"beat":422.0,"duration":0.72917,"midi":78,"velocity":102,"channel":0,"program":22},{"beat":422.0,"duration":1.97917,"midi":81,"velocity":86,"channel":7,"program":51},{"beat":422.0,"duration":1.97917,"midi":93,"velocity":78,"channel":7,"program":51},{"beat":422.02083,"duration":0.45833,"midi":57,"velocity":85,"channel":3,"program":27},{"beat":422.02083,"duration":0.45833,"midi":57,"velocity":84,"channel":4,"program":29},{"beat":422.02083,"duration":0.45833,"midi":57,"velocity":84,"channel":5,"program":30},{"beat":422.02083,"duration":0.45833,"midi":57,"velocity":92,"channel":12,"program":25},{"beat":422.02083,"duration":1.95833,"midi":62,"velocity":87,"channel":6,"program":29},{"beat":422.04167,"duration":0.4375,"midi":62,"velocity":85,"channel":3,"program":27},{"beat":422.04167,"duration":0.4375,"midi":62,"velocity":79,"channel":5,"program":30},{"beat":422.04167,"duration":0.4375,"midi":62,"velocity":89,"channel":12,"program":25},{"beat":422.04167,"duration":1.9375,"midi":69,"velocity":80,"channel":6,"program":29},{"beat":422.5,"duration":0.47917,"midi":50,"velocity":88,"channel":2,"program":33},{"beat":422.5,"duration":0.47917,"midi":50,"velocity":78,"channel":3,"program":27},{"beat":422.5,"duration":0.97917,"midi":50,"velocity":89,"channel":4,"program":29},{"beat":422.5,"duration":0.97917,"midi":50,"velocity":90,"channel":5,"program":30},{"beat":422.5,"duration":0.47917,"midi":54,"velocity":87,"channel":5,"program":30},{"beat":422.5,"duration":0.22917,"midi":69,"velocity":77,"channel":13,"program":81},{"beat":422.52083,"duration":0.45833,"midi":57,"velocity":81,"channel":3,"program":27},{"beat":422.52083,"duration":0.95833,"midi":57,"velocity":86,"channel":4,"program":29},{"beat":422.52083,"duration":0.95833,"midi":57,"velocity":84,"channel":5,"program":30},{"beat":422.52083,"duration":0.45833,"midi":57,"velocity":87,"channel":12,"program":25},{"beat":422.54167,"duration":0.4375,"midi":62,"velocity":81,"channel":3,"program":27},{"beat":422.54167,"duration":0.9375,"midi":62,"velocity":80,"channel":5,"program":30},{"beat":422.54167,"duration":0.4375,"midi":62,"velocity":88,"channel":12,"program":25},{"beat":423.0,"duration":0.97917,"midi":50,"velocity":74,"channel":2,"program":33},{"beat":423.0,"duration":0.97917,"midi":50,"velocity":82,"channel":3,"program":27},{"beat":423.0,"duration":0.47917,"midi":52,"velocity":88,"channel":1,"program":52},{"beat":423.0,"duration":0.47917,"midi":55,"velocity":86,"channel":5,"program":30},{"beat":423.0,"duration":0.97917,"midi":55,"velocity":89,"channel":6,"program":29},{"beat":423.0,"duration":0.97917,"midi":62,"velocity":87,"channel":10,"program":52},{"beat":423.0,"duration":0.47917,"midi":69,"velocity":70,"channel":7,"program":29},{"beat":423.0,"duration":0.22917,"midi":69,"velocity":86,"channel":13,"program":81},{"beat":423.0,"duration":0.47917,"midi":76,"velocity":102,"channel":0,"program":22},{"beat":423.02083,"duration":0.95833,"midi":57,"velocity":78,"channel":3,"program":27},{"beat":423.02083,"duration":0.95833,"midi":57,"velocity":98,"channel":12,"program":25},{"beat":423.04167,"duration":0.9375,"midi":62,"velocity":80,"channel":3,"program":27},{"beat":423.04167,"duration":0.9375,"midi":62,"velocity":98,"channel":12,"program":25},{"beat":423.5,"duration":0.47917,"midi":50,"velocity":87,"channel":1,"program":52},{"beat":423.5,"duration":0.47917,"midi":50,"velocity":79,"channel":4,"program":29},{"beat":423.5,"duration":0.47917,"midi":50,"velocity":82,"channel":5,"program":30},{"beat":423.5,"duration":0.47917,"midi":54,"velocity":78,"channel":5,"program":30},{"beat":423.5,"duration":0.47917,"midi":69,"velocity":70,"channel":7,"program":29},{"beat":423.5,"duration":0.22917,"midi":69,"velocity":75,"channel":13,"program":81},{"beat":423.5,"duration":0.47917,"midi":74,"velocity":99,"channel":0,"program":22},{"beat":423.52083,"duration":0.45833,"midi":57,"velocity":83,"channel":4,"program":29},{"beat":423.52083,"duration":0.45833,"midi":57,"velocity":78,"channel":5,"program":30},{"beat":423.54167,"duration":0.4375,"midi":62,"velocity":80,"channel":5,"program":30},{"beat":424.0,"duration":0.97917,"midi":31,"velocity":96,"channel":2,"program":33},{"beat":424.0,"duration":0.97917,"midi":43,"velocity":89,"channel":4,"program":29},{"beat":424.0,"duration":0.97917,"midi":43,"velocity":86,"channel":5,"program":30},{"beat":424.0,"duration":0.97917,"midi":50,"velocity":85,"channel":3,"program":27},{"beat":424.0,"duration":0.97917,"midi":55,"velocity":89,"channel":6,"program":29},{"beat":424.0,"duration":0.47917,"midi":57,"velocity":88,"channel":1,"program":52},{"beat":424.0,"duration":0.47917,"midi":62,"velocity":90,"channel":1,"program":52},{"beat":424.0,"duration":0.47917,"midi":66,"velocity":88,"channel":1,"program":52},{"beat":424.0,"duration":0.47917,"midi":69,"velocity":90,"channel":1,"program":52},{"beat":424.0,"duration":0.47917,"midi":69,"velocity":70,"channel":7,"program":29},{"beat":424.0,"duration":0.22917,"midi":69,"velocity":82,"channel":13,"program":81},{"beat":424.0,"duration":3.97917,"midi":74,"velocity":89,"channel":7,"program":51},{"beat":424.0,"duration":0.47917,"midi":81,"velocity":101,"channel":0,"program":22},{"beat":424.0,"duration":3.97917,"midi":86,"velocity":74,"channel":7,"program":51},{"beat":424.02083,"duration":0.95833,"midi":50,"velocity":84,"channel":4,"program":29},{"beat":424.02083,"duration":0.95833,"midi":50,"velocity":87,"channel":5,"program":30},{"beat":424.02083,"duration":0.95833,"midi":55,"velocity":86,"channel":3,"program":27},{"beat":424.02083,"duration":0.95833,"midi":57,"velocity":93,"channel":12,"program":25},{"beat":424.02083,"duration":0.95833,"midi":62,"velocity":88,"channel":6,"program":29},{"beat":424.04167,"duration":0.9375,"midi":55,"velocity":88,"channel":5,"program":30},{"beat":424.04167,"duration":0.9375,"midi":62,"velocity":90,"channel":3,"program":27},{"beat":424.04167,"duration":0.9375,"midi":62,"velocity":92,"channel":12,"program":25},{"beat":424.04167,"duration":0.9375,"midi":66,"velocity":87,"channel":6,"program":29},{"beat":424.5,"duration":0.47917,"midi":57,"velocity":87,"channel":1,"program":52},{"beat":424.5,"duration":0.47917,"midi":62,"velocity":87,"channel":1,"program":52},{"beat":424.5,"duration":0.47917,"midi":66,"velocity":90,"channel":1,"program":52},{"beat":424.5,"duration":0.47917,"midi":69,"velocity":89,"channel":1,"program":52},{"beat":424.5,"duration":0.22917,"midi":69,"velocity":69,"channel":13,"program":81},{"beat":424.5,"duration":0.47917,"midi":81,"velocity":102,"channel":0,"program":22},{"beat":425.0,"duration":0.47917,"midi":31,"velocity":95,"channel":2,"program":33},{"beat":425.0,"duration":0.47917,"midi":43,"velocity":88,"channel":4,"program":29},{"beat":425.0,"duration":0.97917,"midi":43,"velocity":88,"channel":5,"program":30},{"beat":425.0,"duration":0.47917,"midi":50,"velocity":81,"channel":3,"program":27},{"beat":425.0,"duration":0.47917,"midi":55,"velocity":85,"channel":6,"program":29},{"beat":425.0,"duration":0.47917,"midi":57,"velocity":90,"channel":1,"program":52},{"beat":425.0,"duration":0.47917,"midi":62,"velocity":89,"channel":1,"program":52},{"beat":425.0,"duration":0.47917,"midi":66,"velocity":88,"channel":1,"program":52},{"beat":425.0,"duration":0.47917,"midi":69,"velocity":87,"channel":1,"program":52},{"beat":425.0,"duration":0.22917,"midi":69,"velocity":84,"channel":13,"program":81},{"beat":425.0,"duration":0.47917,"midi":81,"velocity":102,"channel":0,"program":22},{"beat":425.02083,"duration":0.45833,"midi":50,"velocity":86,"channel":4,"program":29},{"beat":425.02083,"duration":0.95833,"midi":50,"velocity":85,"channel":5,"program":30},{"beat":425.02083,"duration":0.45833,"midi":55,"velocity":81,"channel":3,"program":27},{"beat":425.02083,"duration":0.95833,"midi":57,"velocity":99,"channel":12,"program":25},{"beat":425.02083,"duration":0.45833,"midi":62,"velocity":88,"channel":6,"program":29},{"beat":425.04167,"duration":0.9375,"midi":55,"velocity":82,"channel":5,"program":30},{"beat":425.04167,"duration":0.9375,"midi":62,"velocity":95,"channel":12,"program":25},{"beat":425.04167,"duration":0.4375,"midi":66,"velocity":81,"channel":3,"program":27},{"beat":425.04167,"duration":0.4375,"midi":66,"velocity":90,"channel":6,"program":29},{"beat":425.5,"duration":0.47917,"midi":31,"velocity":98,"channel":2,"program":33},{"beat":425.5,"duration":0.47917,"midi":43,"velocity":80,"channel":4,"program":29},{"beat":425.5,"duration":0.97917,"midi":50,"velocity":90,"channel":3,"program":27},{"beat":425.5,"duration":0.97917,"midi":55,"velocity":81,"channel":6,"program":29},{"beat":425.5,"duration":0.47917,"midi":57,"velocity":90,"channel":1,"program":52},{"beat":425.5,"duration":0.47917,"midi":62,"velocity":88,"channel":1,"program":52},{"beat":425.5,"duration":0.47917,"midi":66,"velocity":89,"channel":1,"program":52},{"beat":425.5,"duration":0.47917,"midi":69,"velocity":87,"channel":1,"program":52},{"beat":425.5,"duration":0.47917,"midi":69,"velocity":77,"channel":7,"program":29},{"beat":425.5,"duration":0.22917,"midi":69,"velocity":71,"channel":13,"program":81},{"beat":425.5,"duration":0.47917,"midi":81,"velocity":101,"channel":0,"program":22},{"beat":425.52083,"duration":0.45833,"midi":50,"velocity":80,"channel":4,"program":29},{"beat":425.52083,"duration":0.95833,"midi":55,"velocity":86,"channel":3,"program":27},{"beat":425.52083,"duration":0.95833,"midi":62,"velocity":83,"channel":6,"program":29},{"beat":425.54167,"duration":0.9375,"midi":66,"velocity":84,"channel":3,"program":27},{"beat":425.54167,"duration":0.9375,"midi":66,"velocity":82,"channel":6,"program":29},{"beat":426.0,"duration":0.47917,"midi":31,"velocity":95,"channel":2,"program":33},{"beat":426.0,"duration":0.47917,"midi":43,"velocity":90,"channel":4,"program":29},{"beat":426.0,"duration":0.47917,"midi":43,"velocity":84,"channel":5,"program":30},{"beat":426.0,"duration":0.47917,"midi":57,"velocity":89,"channel":1,"program":52},{"beat":426.0,"duration":0.47917,"midi":62,"velocity":90,"channel":1,"program":52},{"beat":426.0,"duration":0.47917,"midi":66,"velocity":87,"channel":1,"program":52},{"beat":426.0,"duration":0.47917,"midi":69,"velocity":90,"channel":1,"program":52},{"beat":426.0,"duration":0.47917,"midi":69,"velocity":73,"channel":7,"program":29},{"beat":426.0,"duration":0.22917,"midi":69,"velocity":76,"channel":13,"program":81},{"beat":426.0,"duration":0.47917,"midi":81,"velocity":102,"channel":0,"program":22},{"beat":426.02083,"duration":0.45833,"midi":50,"velocity":90,"channel":4,"program":29},{"beat":426.02083,"duration":0.45833,"midi":50,"velocity":90,"channel":5,"program":30},{"beat":426.02083,"duration":0.95833,"midi":57,"velocity":87,"channel":12,"program":25},{"beat":426.04167,"duration":0.4375,"midi":55,"velocity":89,"channel":5,"program":30},{"beat":426.04167,"duration":0.9375,"midi":62,"velocity":87,"channel":12,"program":25},{"beat":426.5,"duration":0.47917,"midi":31,"velocity":95,"channel":2,"program":33},{"beat":426.5,"duration":0.97917,"midi":43,"velocity":85,"channel":4,"program":29},{"beat":426.5,"duration":0.97917,"midi":43,"velocity":84,"channel":5,"program":30},{"beat":426.5,"duration":0.47917,"midi":52,"velocity":81,"channel":3,"program":27},{"beat":426.5,"duration":0.47917,"midi":55,"velocity":81,"channel":6,"program":29},{"beat":426.5,"duration":0.47917,"midi":59,"velocity":87,"channel":1,"program":52},{"beat":426.5,"duration":0.47917,"midi":64,"velocity":87,"channel":1,"program":52},{"beat":426.5,"duration":0.47917,"midi":67,"velocity":89,"channel":1,"program":52},{"beat":426.5,"duration":0.22917,"midi":69,"velocity":71,"channel":13,"program":81},{"beat":426.5,"duration":0.47917,"midi":71,"velocity":86,"channel":1,"program":52},{"beat":426.5,"duration":0.47917,"midi":71,"velocity":53,"channel":7,"program":29},{"beat":426.5,"duration":0.47917,"midi":83,"velocity":102,"channel":0,"program":22},{"beat":426.52083,"duration":0.95833,"midi":50,"velocity":89,"channel":4,"program":29},{"beat":426.52083,"duration":0.95833,"midi":50,"velocity":86,"channel":5,"program":30},{"beat":426.52083,"duration":0.95833,"midi":55,"velocity":79,"channel":3,"program":27},{"beat":426.52083,"duration":0.45833,"midi":62,"velocity":83,"channel":6,"program":29},{"beat":426.54167,"duration":0.9375,"midi":55,"velocity":76,"channel":5,"program":30},{"beat":426.54167,"duration":1.4375,"midi":66,"velocity":81,"channel":3,"program":27},{"beat":426.54167,"duration":0.4375,"midi":69,"velocity":80,"channel":6,"program":29},{"beat":427.0,"duration":0.47917,"midi":31,"velocity":99,"channel":2,"program":33},{"beat":427.0,"duration":0.97917,"midi":50,"velocity":78,"channel":3,"program":27},{"beat":427.0,"duration":0.97917,"midi":55,"velocity":93,"channel":6,"program":29},{"beat":427.0,"duration":0.47917,"midi":57,"velocity":87,"channel":1,"program":52},{"beat":427.0,"duration":0.47917,"midi":62,"velocity":90,"channel":1,"program":52},{"beat":427.0,"duration":0.47917,"midi":66,"velocity":86,"channel":1,"program":52},{"beat":427.0,"duration":0.47917,"midi":69,"velocity":89,"channel":1,"program":52},{"beat":427.0,"duration":0.97917,"midi":69,"velocity":61,"channel":7,"program":29},{"beat":427.0,"duration":0.22917,"midi":69,"velocity":80,"channel":13,"program":81},{"beat":427.0,"duration":0.47917,"midi":81,"velocity":99,"channel":0,"program":22},{"beat":427.02083,"duration":0.45833,"midi":57,"velocity":89,"channel":12,"program":25},{"beat":427.02083,"duration":0.95833,"midi":62,"velocity":90,"channel":6,"program":29},{"beat":427.04167,"duration":0.4375,"midi":62,"velocity":93,"channel":12,"program":25},{"beat":427.04167,"duration":0.9375,"midi":66,"velocity":90,"channel":6,"program":29},{"beat":427.5,"duration":0.47917,"midi":31,"velocity":98,"channel":2,"program":33},{"beat":427.5,"duration":0.22917,"midi":43,"velocity":81,"channel":4,"program":29},{"beat":427.5,"duration":0.22917,"midi":43,"velocity":79,"channel":5,"program":30},{"beat":427.5,"duration":0.47917,"midi":57,"velocity":90,"channel":1,"program":52},{"beat":427.5,"duration":0.47917,"midi":62,"velocity":89,"channel":1,"program":52},{"beat":427.5,"duration":0.47917,"midi":66,"velocity":89,"channel":1,"program":52},{"beat":427.5,"duration":0.47917,"midi":69,"velocity":89,"channel":1,"program":52},{"beat":427.5,"duration":0.22917,"midi":69,"velocity":71,"channel":13,"program":81},{"beat":427.5,"duration":0.47917,"midi":81,"velocity":101,"channel":0,"program":22},{"beat":427.52083,"duration":0.20833,"midi":50,"velocity":80,"channel":4,"program":29},{"beat":427.52083,"duration":0.20833,"midi":50,"velocity":80,"channel":5,"program":30},{"beat":427.52083,"duration":0.45833,"midi":55,"velocity":81,"channel":3,"program":27},{"beat":427.52083,"duration":0.45833,"midi":57,"velocity":80,"channel":12,"program":25},{"beat":427.54167,"duration":0.1875,"midi":55,"velocity":76,"channel":5,"program":30},{"beat":427.54167,"duration":0.4375,"midi":62,"velocity":84,"channel":12,"program":25},{"beat":427.75,"duration":0.22917,"midi":43,"velocity":78,"channel":4,"program":29},{"beat":427.75,"duration":0.22917,"midi":43,"velocity":79,"channel":5,"program":30},{"beat":427.77083,"duration":0.20833,"midi":50,"velocity":77,"channel":4,"program":29},{"beat":427.77083,"duration":0.20833,"midi":50,"velocity":79,"channel":5,"program":30},{"beat":427.79167,"duration":0.1875,"midi":55,"velocity":82,"channel":5,"program":30},{"beat":428.0,"duration":0.97917,"midi":45,"velocity":80,"channel":2,"program":33},{"beat":428.0,"duration":0.97917,"midi":45,"velocity":86,"channel":4,"program":29},{"beat":428.0,"duration":0.97917,"midi":45,"velocity":90,"channel":5,"program":30},{"beat":428.0,"duration":0.97917,"midi":52,"velocity":88,"channel":3,"program":27},{"beat":428.0,"duration":0.97917,"midi":57,"velocity":75,"channel":6,"program":29},{"beat":428.0,"duration":0.22917,"midi":69,"velocity":65,"channel":13,"program":81},{"beat":428.0,"duration":3.97917,"midi":73,"velocity":89,"channel":7,"program":51},{"beat":428.0,"duration":3.97917,"midi":85,"velocity":74,"channel":7,"program":51},{"beat":428.02083,"duration":0.95833,"midi":52,"velocity":86,"channel":4,"program":29},{"beat":428.02083,"duration":0.95833,"midi":52,"velocity":89,"channel":5,"program":30},{"beat":428.02083,"duration":0.95833,"midi":57,"velocity":86,"channel":3,"program":27},{"beat":428.02083,"duration":0.95833,"midi":61,"velocity":74,"channel":6,"program":29},{"beat":428.02083,"duration":0.95833,"midi":61,"velocity":90,"channel":12,"program":25},{"beat":428.04167,"duration":0.9375,"midi":57,"velocity":84,"channel":5,"program":30},{"beat":428.04167,"duration":0.9375,"midi":61,"velocity":88,"channel":3,"program":27},{"beat":428.04167,"duration":0.9375,"midi":64,"velocity":98,"channel":12,"program":25},{"beat":428.5,"duration":0.47917,"midi":50,"velocity":88,"channel":1,"program":52},{"beat":428.5,"duration":1.47917,"midi":69,"velocity":90,"channel":7,"program":29},{"beat":428.5,"duration":0.22917,"midi":69,"velocity":70,"channel":13,"program":81},{"beat":428.5,"duration":0.47917,"midi":74,"velocity":102,"channel":0,"program":22},{"beat":429.0,"duration":0.97917,"midi":37,"velocity":89,"channel":2,"program":33},{"beat":429.0,"duration":0.47917,"midi":45,"velocity":88,"channel":4,"program":29},{"beat":429.0,"duration":0.47917,"midi":45,"velocity":90,"channel":5,"program":30},{"beat":429.0,"duration":0.47917,"midi":50,"velocity":87,"channel":1,"program":52},{"beat":429.0,"duration":0.47917,"midi":52,"velocity":80,"channel":3,"program":27},{"beat":429.0,"duration":0.47917,"midi":57,"velocity":93,"channel":6,"program":29},{"beat":429.0,"duration":0.22917,"midi":69,"velocity":83,"channel":13,"program":81},{"beat":429.0,"duration":0.47917,"midi":74,"velocity":102,"channel":0,"program":22},{"beat":429.02083,"duration":0.45833,"midi":52,"velocity":85,"channel":4,"program":29},{"beat":429.02083,"duration":0.45833,"midi":52,"velocity":80,"channel":5,"program":30},{"beat":429.02083,"duration":0.45833,"midi":57,"velocity":81,"channel":3,"program":27},{"beat":429.02083,"duration":0.45833,"midi":61,"velocity":93,"channel":6,"program":29},{"beat":429.02083,"duration":0.45833,"midi":61,"velocity":92,"channel":12,"program":25},{"beat":429.04167,"duration":0.4375,"midi":57,"velocity":77,"channel":5,"program":30},{"beat":429.04167,"duration":0.4375,"midi":61,"velocity":80,"channel":3,"program":27},{"beat":429.04167,"duration":0.4375,"midi":64,"velocity":97,"channel":12,"program":25},{"beat":429.5,"duration":0.47917,"midi":45,"velocity":83,"channel":4,"program":29},{"beat":429.5,"duration":0.97917,"midi":45,"velocity":89,"channel":5,"program":30},{"beat":429.5,"duration":0.47917,"midi":50,"velocity":87,"channel":1,"program":52},{"beat":429.5,"duration":0.97917,"midi":52,"velocity":90,"channel":3,"program":27},{"beat":429.5,"duration":0.97917,"midi":57,"velocity":82,"channel":6,"program":29},{"beat":429.5,"duration":0.22917,"midi":69,"velocity":73,"channel":13,"program":81},{"beat":429.5,"duration":0.47917,"midi":74,"velocity":101,"channel":0,"program":22},{"beat":429.52083,"duration":0.45833,"midi":52,"velocity":78,"channel":4,"program":29},{"beat":429.52083,"duration":0.95833,"midi":52,"velocity":87,"channel":5,"program":30},{"beat":429.52083,"duration":0.95833,"midi":57,"velocity":84,"channel":3,"program":27},{"beat":429.52083,"duration":0.95833,"midi":61,"velocity":83,"channel":6,"program":29},{"beat":429.52083,"duration":0.95833,"midi":61,"velocity":85,"channel":12,"program":25},{"beat":429.54167,"duration":0.9375,"midi":57,"velocity":84,"channel":5,"program":30},{"beat":429.54167,"duration":0.9375,"midi":61,"velocity":90,"channel":3,"program":27},{"beat":429.54167,"duration":0.9375,"midi":64,"velocity":87,"channel":12,"program":25},{"beat":430.0,"duration":0.47917,"midi":45,"velocity":94,"channel":2,"program":33},{"beat":430.0,"duration":0.47917,"midi":45,"velocity":90,"channel":4,"program":29},{"beat":430.0,"duration":0.72917,"midi":54,"velocity":89,"channel":1,"program":52},{"beat":430.0,"duration":0.52083,"midi":69,"velocity":90,"channel":7,"program":29},{"beat":430.0,"duration":0.22917,"midi":69,"velocity":78,"channel":13,"program":81},{"beat":430.0,"duration":0.72917,"midi":78,"velocity":101,"channel":0,"program":22},{"beat":430.02083,"duration":0.45833,"midi":52,"velocity":84,"channel":4,"program":29},{"beat":430.5,"duration":0.47917,"midi":45,"velocity":81,"channel":2,"program":33},{"beat":430.5,"duration":0.97917,"midi":45,"velocity":85,"channel":4,"program":29},{"beat":430.5,"duration":0.97917,"midi":45,"velocity":89,"channel":5,"program":30},{"beat":430.5,"duration":0.47917,"midi":52,"velocity":82,"channel":3,"program":27},{"beat":430.5,"duration":0.47917,"midi":57,"velocity":87,"channel":6,"program":29},{"beat":430.5,"duration":0.22917,"midi":69,"velocity":77,"channel":13,"program":81},{"beat":430.52083,"duration":0.95833,"midi":52,"velocity":88,"channel":4,"program":29},{"beat":430.52083,"duration":0.95833,"midi":52,"velocity":86,"channel":5,"program":30},{"beat":430.52083,"duration":0.45833,"midi":57,"velocity":76,"channel":3,"program":27},{"beat":430.52083,"duration":0.45833,"midi":61,"velocity":88,"channel":6,"program":29},{"beat":430.52083,"duration":0.45833,"midi":61,"velocity":88,"channel":12,"program":25},{"beat":430.54167,"duration":0.9375,"midi":57,"velocity":89,"channel":5,"program":30},{"beat":430.54167,"duration":0.4375,"midi":61,"velocity":80,"channel":3,"program":27},{"beat":430.54167,"duration":0.4375,"midi":64,"velocity":87,"channel":12,"program":25},{"beat":431.0,"duration":0.97917,"midi":45,"velocity":86,"channel":2,"program":33},{"beat":431.0,"duration":0.47917,"midi":52,"velocity":89,"channel":1,"program":52},{"beat":431.0,"duration":0.97917,"midi":52,"velocity":78,"channel":3,"program":27},{"beat":431.0,"duration":0.47917,"midi":52,"velocity":71,"channel":6,"program":29},{"beat":431.0,"duration":0.97917,"midi":57,"velocity":97,"channel":6,"program":29},{"beat":431.0,"duration":0.22917,"midi":69,"velocity":86,"channel":13,"program":81},{"beat":431.0,"duration":0.97917,"midi":71,"velocity":70,"channel":7,"program":29},{"beat":431.0,"duration":0.47917,"midi":76,"velocity":101,"channel":0,"program":22},{"beat":431.02083,"duration":0.95833,"midi":57,"velocity":79,"channel":3,"program":27},{"beat":431.02083,"duration":0.95833,"midi":61,"velocity":94,"channel":6,"program":29},{"beat":431.02083,"duration":0.95833,"midi":61,"velocity":98,"channel":12,"program":25},{"beat":431.04167,"duration":0.9375,"midi":61,"velocity":79,"channel":3,"program":27},{"beat":431.04167,"duration":0.9375,"midi":64,"velocity":100,"channel":12,"program":25},{"beat":431.5,"duration":0.47917,"midi":45,"velocity":78,"channel":4,"program":29},{"beat":431.5,"duration":0.22917,"midi":45,"velocity":77,"channel":5,"program":30},{"beat":431.5,"duration":0.47917,"midi":50,"velocity":90,"channel":1,"program":52},{"beat":431.5,"duration":0.22917,"midi":55,"velocity":84,"channel":6,"program":29},{"beat":431.5,"duration":0.22917,"midi":69,"velocity":75,"channel":13,"program":81},{"beat":431.5,"duration":0.47917,"midi":74,"velocity":98,"channel":0,"program":22},{"beat":431.52083,"duration":0.45833,"midi":52,"velocity":80,"channel":4,"program":29},{"beat":431.52083,"duration":0.20833,"midi":52,"velocity":80,"channel":5,"program":30},{"beat":431.54167,"duration":0.1875,"midi":57,"velocity":80,"channel":5,"program":30},{"beat":431.75,"duration":0.22917,"midi":45,"velocity":77,"channel":5,"program":30},{"beat":431.75,"duration":0.22917,"midi":55,"velocity":84,"channel":6,"program":29},{"beat":431.77083,"duration":0.20833,"midi":52,"velocity":80,"channel":5,"program":30},{"beat":431.79167,"duration":0.1875,"midi":57,"velocity":80,"channel":5,"program":30},{"beat":432.0,"duration":0.97917,"midi":35,"velocity":100,"channel":2,"program":33},{"beat":432.0,"duration":0.47917,"midi":47,"velocity":90,"channel":4,"program":29},{"beat":432.0,"duration":0.97917,"midi":47,"velocity":88,"channel":5,"program":30},{"beat":432.0,"duration":0.97917,"midi":54,"velocity":85,"channel":3,"program":27},{"beat":432.0,"duration":0.47917,"midi":57,"velocity":90,"channel":1,"program":52},{"beat":432.0,"duration":0.97917,"midi":57,"velocity":94,"channel":6,"program":29},{"beat":432.0,"duration":0.47917,"midi":62,"velocity":88,"channel":1,"program":52},{"beat":432.0,"duration":0.47917,"midi":66,"velocity":90,"channel":1,"program":52},{"beat":432.0,"duration":0.47917,"midi":69,"velocity":88,"channel":1,"program":52},{"beat":432.0,"duration":0.72917,"midi":69,"velocity":70,"channel":7,"program":29},{"beat":432.0,"duration":0.22917,"midi":69,"velocity":82,"channel":13,"program":81},{"beat":432.0,"duration":3.97917,"midi":74,"velocity":85,"channel":7,"program":51},{"beat":432.0,"duration":0.47917,"midi":81,"velocity":102,"channel":0,"program":22},{"beat":432.0,"duration":3.97917,"midi":86,"velocity":80,"channel":7,"program":51},{"beat":432.02083,"duration":0.45833,"midi":54,"velocity":87,"channel":4,"program":29},{"beat":432.02083,"duration":0.95833,"midi":54,"velocity":85,"channel":5,"program":30},{"beat":432.02083,"duration":0.45833,"midi":57,"velocity":89,"channel":3,"program":27},{"beat":432.02083,"duration":0.95833,"midi":57,"velocity":97,"channel":12,"program":25},{"beat":432.02083,"duration":1.45833,"midi":62,"velocity":90,"channel":6,"program":29},{"beat":432.02083,"duration":0.72917,"midi":74,"velocity":60,"channel":7,"program":29},{"beat":432.04167,"duration":0.4375,"midi":57,"velocity":85,"channel":5,"program":30},{"beat":432.04167,"duration":0.9375,"midi":62,"velocity":96,"channel":12,"program":25},{"beat":432.04167,"duration":0.9375,"midi":66,"velocity":84,"channel":3,"program":27},{"beat":432.5,"duration":0.47917,"midi":47,"velocity":78,"channel":4,"program":29},{"beat":432.5,"duration":0.47917,"midi":57,"velocity":89,"channel":1,"program":52},{"beat":432.5,"duration":0.47917,"midi":62,"velocity":89,"channel":1,"program":52},{"beat":432.5,"duration":0.47917,"midi":66,"velocity":88,"channel":1,"program":52},{"beat":432.5,"duration":0.47917,"midi":69,"velocity":87,"channel":1,"program":52},{"beat":432.5,"duration":0.22917,"midi":69,"velocity":69,"channel":13,"program":81},{"beat":432.5,"duration":0.47917,"midi":81,"velocity":102,"channel":0,"program":22},{"beat":432.52083,"duration":0.45833,"midi":54,"velocity":78,"channel":4,"program":29},{"beat":432.52083,"duration":0.45833,"midi":59,"velocity":88,"channel":3,"program":27},{"beat":432.54167,"duration":0.4375,"midi":57,"velocity":88,"channel":5,"program":30},{"beat":433.0,"duration":0.47917,"midi":35,"velocity":96,"channel":2,"program":33},{"beat":433.0,"duration":0.97917,"midi":47,"velocity":85,"channel":4,"program":29},{"beat":433.0,"duration":0.97917,"midi":47,"velocity":89,"channel":5,"program":30},{"beat":433.0,"duration":0.97917,"midi":54,"velocity":78,"channel":3,"program":27},{"beat":433.0,"duration":0.47917,"midi":57,"velocity":90,"channel":1,"program":52},{"beat":433.0,"duration":0.47917,"midi":59,"velocity":94,"channel":6,"program":29},{"beat":433.0,"duration":0.47917,"midi":62,"velocity":88,"channel":1,"program":52},{"beat":433.0,"duration":0.47917,"midi":66,"velocity":89,"channel":1,"program":52},{"beat":433.0,"duration":0.47917,"midi":69,"velocity":90,"channel":1,"program":52},{"beat":433.0,"duration":0.22917,"midi":69,"velocity":84,"channel":13,"program":81},{"beat":433.0,"duration":0.47917,"midi":81,"velocity":102,"channel":0,"program":22},{"beat":433.02083,"duration":0.95833,"midi":54,"velocity":87,"channel":4,"program":29},{"beat":433.02083,"duration":0.95833,"midi":54,"velocity":89,"channel":5,"program":30},{"beat":433.02083,"duration":0.95833,"midi":57,"velocity":76,"channel":3,"program":27},{"beat":433.02083,"duration":0.45833,"midi":57,"velocity":95,"channel":12,"program":25},{"beat":433.04167,"duration":0.9375,"midi":57,"velocity":88,"channel":5,"program":30},{"beat":433.04167,"duration":0.4375,"midi":62,"velocity":91,"channel":12,"program":25},{"beat":433.04167,"duration":0.9375,"midi":66,"velocity":76,"channel":3,"program":27},{"beat":433.5,"duration":0.47917,"midi":35,"velocity":96,"channel":2,"program":33},{"beat":433.5,"duration":0.47917,"midi":57,"velocity":89,"channel":1,"program":52},{"beat":433.5,"duration":0.97917,"midi":57,"velocity":83,"channel":6,"program":29},{"beat":433.5,"duration":0.47917,"midi":62,"velocity":88,"channel":1,"program":52},{"beat":433.5,"duration":0.47917,"midi":66,"velocity":90,"channel":1,"program":52},{"beat":433.5,"duration":0.47917,"midi":69,"velocity":90,"channel":1,"program":52},{"beat":433.5,"duration":0.22917,"midi":69,"velocity":71,"channel":13,"program":81},{"beat":433.5,"duration":0.47917,"midi":81,"velocity":102,"channel":0,"program":22},{"beat":433.52083,"duration":0.45833,"midi":57,"velocity":83,"channel":12,"program":25},{"beat":433.52083,"duration":2.45833,"midi":62,"velocity":79,"channel":6,"program":29},{"beat":433.54167,"duration":0.4375,"midi":62,"velocity":82,"channel":12,"program":25},{"beat":434.0,"duration":0.47917,"midi":35,"velocity":95,"channel":2,"program":33},{"beat":434.0,"duration":0.47917,"midi":47,"velocity":84,"channel":4,"program":29},{"beat":434.0,"duration":0.47917,"midi":47,"velocity":89,"channel":5,"program":30},{"beat":434.0,"duration":0.47917,"midi":54,"velocity":89,"channel":3,"program":27},{"beat":434.0,"duration":0.47917,"midi":57,"velocity":89,"channel":1,"program":52},{"beat":434.0,"duration":0.47917,"midi":62,"velocity":90,"channel":1,"program":52},{"beat":434.0,"duration":0.47917,"midi":66,"velocity":89,"channel":1,"program":52},{"beat":434.0,"duration":0.47917,"midi":69,"velocity":86,"channel":1,"program":52},{"beat":434.0,"duration":0.52083,"midi":69,"velocity":88,"channel":7,"program":29},{"beat":434.0,"duration":0.22917,"midi":69,"velocity":76,"channel":13,"program":81},{"beat":434.0,"duration":0.47917,"midi":81,"velocity":102,"channel":0,"program":22},{"beat":434.02083,"duration":0.45833,"midi":54,"velocity":87,"channel":4,"program":29},{"beat":434.02083,"duration":0.45833,"midi":54,"velocity":90,"channel":5,"program":30},{"beat":434.02083,"duration":0.95833,"midi":57,"velocity":88,"channel":12,"program":25},{"beat":434.02083,"duration":0.45833,"midi":62,"velocity":88,"channel":3,"program":27},{"beat":434.04167,"duration":0.4375,"midi":57,"velocity":87,"channel":5,"program":30},{"beat":434.04167,"duration":0.9375,"midi":62,"velocity":91,"channel":12,"program":25},{"beat":434.04167,"duration":0.4375,"midi":69,"velocity":88,"channel":3,"program":27},{"beat":434.5,"duration":0.47917,"midi":35,"velocity":97,"channel":2,"program":33},{"beat":434.5,"duration":0.97917,"midi":47,"velocity":90,"channel":4,"program":29},{"beat":434.5,"duration":0.47917,"midi":47,"velocity":81,"channel":5,"program":30},{"beat":434.5,"duration":0.47917,"midi":54,"velocity":79,"channel":3,"program":27},{"beat":434.5,"duration":0.47917,"midi":59,"velocity":90,"channel":1,"program":52},{"beat":434.5,"duration":0.47917,"midi":59,"velocity":80,"channel":6,"program":29},{"beat":434.5,"duration":0.47917,"midi":64,"velocity":88,"channel":1,"program":52},{"beat":434.5,"duration":0.47917,"midi":67,"velocity":88,"channel":1,"program":52},{"beat":434.5,"duration":0.22917,"midi":69,"velocity":71,"channel":13,"program":81},{"beat":434.5,"duration":0.47917,"midi":71,"velocity":89,"channel":1,"program":52},{"beat":434.5,"duration":0.47917,"midi":71,"velocity":84,"channel":7,"program":29},{"beat":434.5,"duration":0.47917,"midi":83,"velocity":101,"channel":0,"program":22},{"beat":434.52083,"duration":0.95833,"midi":54,"velocity":84,"channel":4,"program":29},{"beat":434.52083,"duration":0.45833,"midi":54,"velocity":82,"channel":5,"program":30},{"beat":434.52083,"duration":0.45833,"midi":59,"velocity":81,"channel":3,"program":27},{"beat":434.54167,"duration":0.4375,"midi":57,"velocity":81,"channel":5,"program":30},{"beat":434.54167,"duration":0.4375,"midi":66,"velocity":80,"channel":3,"program":27},{"beat":435.0,"duration":0.47917,"midi":28,"velocity":97,"channel":2,"program":33},{"beat":435.0,"duration":0.72917,"midi":47,"velocity":85,"channel":5,"program":30},{"beat":435.0,"duration":0.97917,"midi":54,"velocity":80,"channel":3,"program":27},{"beat":435.0,"duration":0.47917,"midi":57,"velocity":89,"channel":1,"program":52},{"beat":435.0,"duration":0.97917,"midi":59,"velocity":92,"channel":6,"program":29},{"beat":435.0,"duration":0.47917,"midi":62,"velocity":87,"channel":1,"program":52},{"beat":435.0,"duration":0.47917,"midi":66,"velocity":90,"channel":1,"program":52},{"beat":435.0,"duration":0.47917,"midi":69,"velocity":90,"channel":1,"program":52},{"beat":435.0,"duration":0.22917,"midi":69,"velocity":86,"channel":7,"program":29},{"beat":435.0,"duration":0.22917,"midi":69,"velocity":80,"channel":13,"program":81},{"beat":435.0,"duration":0.47917,"midi":81,"velocity":102,"channel":0,"program":22},{"beat":435.02083,"duration":0.70833,"midi":54,"velocity":84,"channel":5,"program":30},{"beat":435.02083,"duration":0.45833,"midi":57,"velocity":92,"channel":12,"program":25},{"beat":435.02083,"duration":0.95833,"midi":59,"velocity":78,"channel":3,"program":27},{"beat":435.04167,"duration":0.6875,"midi":57,"velocity":84,"channel":5,"program":30},{"beat":435.04167,"duration":0.4375,"midi":62,"velocity":92,"channel":12,"program":25},{"beat":435.04167,"duration":0.4375,"midi":66,"velocity":79,"channel":3,"program":27},{"beat":435.5,"duration":0.47917,"midi":29,"velocity":96,"channel":2,"program":33},{"beat":435.5,"duration":0.47917,"midi":47,"velocity":80,"channel":4,"program":29},{"beat":435.5,"duration":0.47917,"midi":57,"velocity":90,"channel":1,"program":52},{"beat":435.5,"duration":0.47917,"midi":62,"velocity":89,"channel":1,"program":52},{"beat":435.5,"duration":0.47917,"midi":66,"velocity":88,"channel":1,"program":52},{"beat":435.5,"duration":0.22917,"midi":66,"velocity":79,"channel":3,"program":27},{"beat":435.5,"duration":0.5625,"midi":66,"velocity":85,"channel":7,"program":29},{"beat":435.5,"duration":0.47917,"midi":69,"velocity":89,"channel":1,"program":52},{"beat":435.5,"duration":0.22917,"midi":69,"velocity":71,"channel":13,"program":81},{"beat":435.5,"duration":0.47917,"midi":81,"velocity":101,"channel":0,"program":22},{"beat":435.52083,"duration":0.45833,"midi":54,"velocity":77,"channel":4,"program":29},{"beat":435.52083,"duration":0.45833,"midi":57,"velocity":81,"channel":12,"program":25},{"beat":435.54167,"duration":0.4375,"midi":62,"velocity":82,"channel":12,"program":25},{"beat":435.75,"duration":0.22917,"midi":47,"velocity":88,"channel":5,"program":30},{"beat":435.75,"duration":0.22917,"midi":66,"velocity":70,"channel":3,"program":27},{"beat":435.77083,"duration":0.20833,"midi":54,"velocity":90,"channel":5,"program":30},{"beat":435.79167,"duration":0.1875,"midi":57,"velocity":90,"channel":5,"program":30},{"beat":436.0,"duration":0.47917,"midi":30,"velocity":95,"channel":2,"program":33},{"beat":436.0,"duration":0.97917,"midi":42,"velocity":85,"channel":4,"program":29},{"beat":436.0,"duration":0.47917,"midi":42,"velocity":85,"channel":5,"program":30},{"beat":436.0,"duration":0.97917,"midi":50,"velocity":85,"channel":3,"program":27},{"beat":436.0,"duration":0.72917,"midi":50,"velocity":74,"channel":6,"program":29},{"beat":436.0,"duration":0.22917,"midi":69,"velocity":65,"channel":13,"program":81},{"beat":436.0,"duration":1.97917,"midi":76,"velocity":89,"channel":7,"program":51},{"beat":436.0,"duration":1.97917,"midi":88,"velocity":88,"channel":7,"program":51},{"beat":436.02083,"duration":0.95833,"midi":50,"velocity":85,"channel":4,"program":29},{"beat":436.02083,"duration":0.45833,"midi":50,"velocity":84,"channel":5,"program":30},{"beat":436.02083,"duration":0.95833,"midi":57,"velocity":84,"channel":3,"program":27},{"beat":436.02083,"duration":0.70833,"midi":57,"velocity":76,"channel":6,"program":29},{"beat":436.02083,"duration":0.95833,"midi":57,"velocity":94,"channel":12,"program":25},{"beat":436.04167,"duration":0.9375,"midi":54,"velocity":86,"channel":4,"program":29},{"beat":436.04167,"duration":0.4375,"midi":54,"velocity":89,"channel":5,"program":30},{"beat":436.04167,"duration":0.9375,"midi":62,"velocity":89,"channel":3,"program":27},{"beat":436.04167,"duration":0.9375,"midi":62,"velocity":93,"channel":12,"program":25},{"beat":436.5,"duration":0.47917,"midi":30,"velocity":96,"channel":2,"program":33},{"beat":436.5,"duration":0.47917,"midi":42,"velocity":88,"channel":5,"program":30},{"beat":436.5,"duration":0.47917,"midi":50,"velocity":88,"channel":1,"program":52},{"beat":436.5,"duration":0.22917,"midi":69,"velocity":70,"channel":13,"program":81},{"beat":436.5,"duration":0.47917,"midi":74,"velocity":100,"channel":0,"program":22},{"beat":436.52083,"duration":0.45833,"midi":50,"velocity":82,"channel":5,"program":30},{"beat":436.54167,"duration":0.4375,"midi":54,"velocity":76,"channel":5,"program":30},{"beat":437.0,"duration":0.47917,"midi":42,"velocity":95,"channel":2,"program":33},{"beat":437.0,"duration":1.47917,"midi":42,"velocity":84,"channel":4,"program":29},{"beat":437.0,"duration":0.97917,"midi":42,"velocity":85,"channel":5,"program":30},{"beat":437.0,"duration":0.47917,"midi":50,"velocity":90,"channel":1,"program":52},{"beat":437.0,"duration":0.97917,"midi":50,"velocity":77,"channel":3,"program":27},{"beat":437.0,"duration":1.47917,"midi":50,"velocity":94,"channel":6,"program":29},{"beat":437.0,"duration":0.22917,"midi":69,"velocity":83,"channel":13,"program":81},{"beat":437.0,"duration":0.47917,"midi":74,"velocity":100,"channel":0,"program":22},{"beat":437.02083,"duration":1.45833,"midi":50,"velocity":90,"channel":4,"program":29},{"beat":437.02083,"duration":0.95833,"midi":50,"velocity":89,"channel":5,"program":30},{"beat":437.02083,"duration":0.95833,"midi":57,"velocity":77,"channel":3,"program":27},{"beat":437.02083,"duration":1.45833,"midi":57,"velocity":95,"channel":6,"program":29},{"beat":437.02083,"duration":0.45833,"midi":57,"velocity":95,"channel":12,"program":25},{"beat":437.04167,"duration":1.4375,"midi":54,"velocity":90,"channel":4,"program":29},{"beat":437.04167,"duration":0.9375,"midi":54,"velocity":85,"channel":5,"program":30},{"beat":437.04167,"duration":0.9375,"midi":62,"velocity":81,"channel":3,"program":27},{"beat":437.04167,"duration":0.4375,"midi":62,"velocity":94,"channel":12,"program":25},{"beat":437.5,"duration":0.22917,"midi":38,"velocity":97,"channel":2,"program":33},{"beat":437.5,"duration":0.47917,"midi":50,"velocity":89,"channel":1,"program":52},{"beat":437.5,"duration":0.22917,"midi":69,"velocity":73,"channel":13,"program":81},{"beat":437.5,"duration":0.47917,"midi":74,"velocity":102,"channel":0,"program":22},{"beat":437.5,"duration":2.47917,"midi":78,"velocity":80,"channel":7,"program":29},{"beat":437.52083,"duration":0.45833,"midi":57,"velocity":89,"channel":12,"program":25},{"beat":437.54167,"duration":0.4375,"midi":62,"velocity":82,"channel":12,"program":25},{"beat":437.75,"duration":0.22917,"midi":42,"velocity":91,"channel":2,"program":33},{"beat":438.0,"duration":0.47917,"midi":42,"velocity":95,"channel":2,"program":33},{"beat":438.0,"duration":0.47917,"midi":42,"velocity":85,"channel":5,"program":30},{"beat":438.0,"duration":0.47917,"midi":50,"velocity":90,"channel":3,"program":27},{"beat":438.0,"duration":0.60417,"midi":54,"velocity":87,"channel":1,"program":52},{"beat":438.0,"duration":0.22917,"midi":69,"velocity":78,"channel":13,"program":81},{"beat":438.0,"duration":0.60417,"midi":78,"velocity":101,"channel":0,"program":22},{"beat":438.0,"duration":1.97917,"midi":78,"velocity":87,"channel":7,"program":51},{"beat":438.0,"duration":1.97917,"midi":90,"velocity":90,"channel":7,"program":51},{"beat":438.02083,"duration":0.45833,"midi":50,"velocity":88,"channel":5,"program":30},{"beat":438.02083,"duration":0.45833,"midi":57,"velocity":88,"channel":3,"program":27},{"beat":438.02083,"duration":0.45833,"midi":57,"velocity":89,"channel":12,"program":25},{"beat":438.04167,"duration":0.4375,"midi":62,"velocity":88,"channel":3,"program":27},{"beat":438.04167,"duration":0.4375,"midi":62,"velocity":93,"channel":12,"program":25},{"beat":438.5,"duration":0.47917,"midi":42,"velocity":91,"channel":2,"program":33},{"beat":438.5,"duration":0.47917,"midi":42,"velocity":85,"channel":4,"program":29},{"beat":438.5,"duration":0.47917,"midi":42,"velocity":88,"channel":5,"program":30},{"beat":438.5,"duration":0.47917,"midi":50,"velocity":82,"channel":3,"program":27},{"beat":438.5,"duration":0.47917,"midi":50,"velocity":88,"channel":6,"program":29},{"beat":438.5,"duration":0.22917,"midi":69,"velocity":77,"channel":13,"program":81},{"beat":438.52083,"duration":0.45833,"midi":50,"velocity":77,"channel":4,"program":29},{"beat":438.52083,"duration":0.45833,"midi":50,"velocity":88,"channel":5,"program":30},{"beat":438.52083,"duration":0.45833,"midi":57,"velocity":76,"channel":3,"program":27},{"beat":438.52083,"duration":0.95833,"midi":57,"velocity":89,"channel":12,"program":25},{"beat":438.52083,"duration":0.45833,"midi":62,"velocity":85,"channel":6,"program":29},{"beat":438.54167,"duration":0.4375,"midi":54,"velocity":80,"channel":4,"program":29},{"beat":438.54167,"duration":0.4375,"midi":54,"velocity":86,"channel":5,"program":30},{"beat":438.54167,"duration":0.4375,"midi":62,"velocity":78,"channel":3,"program":27},{"beat":438.54167,"duration":0.9375,"midi":62,"velocity":89,"channel":12,"program":25},{"beat":439.0,"duration":0.97917,"midi":40,"velocity":97,"channel":2,"program":33},{"beat":439.0,"duration":0.47917,"midi":42,"velocity":84,"channel":4,"program":29},{"beat":439.0,"duration":0.97917,"midi":42,"velocity":84,"channel":5,"program":30},{"beat":439.0,"duration":0.97917,"midi":50,"velocity":77,"channel":3,"program":27},{"beat":439.0,"duration":0.97917,"midi":50,"velocity":99,"channel":6,"program":29},{"beat":439.0,"duration":0.47917,"midi":52,"velocity":90,"channel":1,"program":52},{"beat":439.0,"duration":0.22917,"midi":69,"velocity":86,"channel":13,"program":81},{"beat":439.0,"duration":0.47917,"midi":76,"velocity":100,"channel":0,"program":22},{"beat":439.02083,"duration":0.45833,"midi":50,"velocity":87,"channel":4,"program":29},{"beat":439.02083,"duration":0.95833,"midi":50,"velocity":80,"channel":5,"program":30},{"beat":439.02083,"duration":0.95833,"midi":57,"velocity":78,"channel":3,"program":27},{"beat":439.02083,"duration":0.95833,"midi":62,"velocity":94,"channel":6,"program":29},{"beat":439.04167,"duration":0.4375,"midi":54,"velocity":89,"channel":4,"program":29},{"beat":439.04167,"duration":0.9375,"midi":54,"velocity":79,"channel":5,"program":30},{"beat":439.04167,"duration":0.9375,"midi":62,"velocity":76,"channel":3,"program":27},{"beat":439.5,"duration":0.47917,"midi":42,"velocity":81,"channel":4,"program":29},{"beat":439.5,"duration":0.47917,"midi":50,"velocity":90,"channel":1,"program":52},{"beat":439.5,"duration":0.22917,"midi":69,"velocity":75,"channel":13,"program":81},{"beat":439.5,"duration":0.47917,"midi":74,"velocity":99,"channel":0,"program":22},{"beat":439.52083,"duration":0.45833,"midi":50,"velocity":83,"channel":4,"program":29},{"beat":439.52083,"duration":0.45833,"midi":57,"velocity":84,"channel":12,"program":25},{"beat":439.54167,"duration":0.4375,"midi":54,"velocity":82,"channel":4,"program":29},{"beat":439.54167,"duration":0.4375,"midi":62,"velocity":88,"channel":12,"program":25},{"beat":440.0,"duration":0.97917,"midi":31,"velocity":95,"channel":2,"program":33},{"beat":440.0,"duration":0.97917,"midi":43,"velocity":87,"channel":4,"program":29},{"beat":440.0,"duration":0.47917,"midi":43,"velocity":87,"channel":5,"program":30},{"beat":440.0,"duration":0.97917,"midi":50,"velocity":88,"channel":3,"program":27},{"beat":440.0,"duration":0.97917,"midi":54,"velocity":90,"channel":6,"program":29},{"beat":440.0,"duration":0.47917,"midi":57,"velocity":89,"channel":1,"program":52},{"beat":440.0,"duration":0.47917,"midi":62,"velocity":90,"channel":1,"program":52},{"beat":440.0,"duration":0.47917,"midi":66,"velocity":89,"channel":1,"program":52},{"beat":440.0,"duration":0.47917,"midi":69,"velocity":90,"channel":1,"program":52},{"beat":440.0,"duration":0.22917,"midi":69,"velocity":82,"channel":13,"program":81},{"beat":440.0,"duration":3.97917,"midi":74,"velocity":88,"channel":7,"program":51},{"beat":440.0,"duration":2.47917,"midi":74,"velocity":60,"channel":7,"program":29},{"beat":440.0,"duration":0.47917,"midi":81,"velocity":102,"channel":0,"program":22},{"beat":440.0,"duration":3.97917,"midi":86,"velocity":74,"channel":7,"program":51},{"beat":440.02083,"duration":0.95833,"midi":50,"velocity":88,"channel":4,"program":29},{"beat":440.02083,"duration":0.45833,"midi":50,"velocity":84,"channel":5,"program":30},{"beat":440.02083,"duration":0.95833,"midi":57,"velocity":88,"channel":3,"program":27},{"beat":440.02083,"duration":0.95833,"midi":57,"velocity":90,"channel":6,"program":29},{"beat":440.02083,"duration":0.95833,"midi":57,"velocity":95,"channel":12,"program":25},{"beat":440.04167,"duration":0.9375,"midi":55,"velocity":88,"channel":4,"program":29},{"beat":440.04167,"duration":0.4375,"midi":55,"velocity":86,"channel":5,"program":30},{"beat":440.04167,"duration":0.9375,"midi":62,"velocity":92,"channel":12,"program":25},{"beat":440.04167,"duration":0.9375,"midi":69,"velocity":85,"channel":3,"program":27},{"beat":440.5,"duration":0.47917,"midi":43,"velocity":88,"channel":5,"program":30},{"beat":440.5,"duration":0.47917,"midi":57,"velocity":88,"channel":1,"program":52},{"beat":440.5,"duration":0.47917,"midi":62,"velocity":89,"channel":1,"program":52},{"beat":440.5,"duration":0.47917,"midi":66,"velocity":87,"channel":1,"program":52},{"beat":440.5,"duration":0.47917,"midi":69,"velocity":88,"channel":1,"program":52},{"beat":440.5,"duration":0.22917,"midi":69,"velocity":69,"channel":13,"program":81},{"beat":440.5,"duration":0.47917,"midi":81,"velocity":102,"channel":0,"program":22},{"beat":440.52083,"duration":0.45833,"midi":50,"velocity":77,"channel":5,"program":30},{"beat":440.54167,"duration":0.4375,"midi":55,"velocity":82,"channel":5,"program":30},{"beat":441.0,"duration":0.47917,"midi":31,"velocity":94,"channel":2,"program":33},{"beat":441.0,"duration":0.47917,"midi":43,"velocity":85,"channel":4,"program":29},{"beat":441.0,"duration":0.97917,"midi":43,"velocity":85,"channel":5,"program":30},{"beat":441.0,"duration":0.97917,"midi":50,"velocity":82,"channel":3,"program":27},{"beat":441.0,"duration":0.47917,"midi":54,"velocity":94,"channel":6,"program":29},{"beat":441.0,"duration":0.47917,"midi":57,"velocity":87,"channel":1,"program":52},{"beat":441.0,"duration":0.47917,"midi":62,"velocity":90,"channel":1,"program":52},{"beat":441.0,"duration":0.47917,"midi":66,"velocity":90,"channel":1,"program":52},{"beat":441.0,"duration":0.47917,"midi":69,"velocity":90,"channel":1,"program":52},{"beat":441.0,"duration":0.22917,"midi":69,"velocity":84,"channel":13,"program":81},{"beat":441.0,"duration":0.47917,"midi":81,"velocity":100,"channel":0,"program":22},{"beat":441.02083,"duration":0.45833,"midi":50,"velocity":78,"channel":4,"program":29},{"beat":441.02083,"duration":0.95833,"midi":50,"velocity":86,"channel":5,"program":30},{"beat":441.02083,"duration":0.95833,"midi":57,"velocity":77,"channel":3,"program":27},{"beat":441.02083,"duration":0.45833,"midi":57,"velocity":96,"channel":12,"program":25},{"beat":441.02083,"duration":0.45833,"midi":59,"velocity":94,"channel":6,"program":29},{"beat":441.04167,"duration":0.4375,"midi":55,"velocity":83,"channel":4,"program":29},{"beat":441.04167,"duration":0.9375,"midi":55,"velocity":85,"channel":5,"program":30},{"beat":441.04167,"duration":0.4375,"midi":62,"velocity":97,"channel":12,"program":25},{"beat":441.04167,"duration":0.9375,"midi":66,"velocity":80,"channel":3,"program":27},{"beat":441.5,"duration":0.47917,"midi":31,"velocity":94,"channel":2,"program":33},{"beat":441.5,"duration":0.97917,"midi":43,"velocity":86,"channel":4,"program":29},{"beat":441.5,"duration":0.97917,"midi":54,"velocity":81,"channel":6,"program":29},{"beat":441.5,"duration":0.47917,"midi":57,"velocity":89,"channel":1,"program":52},{"beat":441.5,"duration":0.47917,"midi":62,"velocity":90,"channel":1,"program":52},{"beat":441.5,"duration":0.47917,"midi":66,"velocity":87,"channel":1,"program":52},{"beat":441.5,"duration":0.47917,"midi":69,"velocity":90,"channel":1,"program":52},{"beat":441.5,"duration":0.22917,"midi":69,"velocity":71,"channel":13,"program":81},{"beat":441.5,"duration":0.47917,"midi":81,"velocity":102,"channel":0,"program":22},{"beat":441.52083,"duration":0.95833,"midi":50,"velocity":86,"channel":4,"program":29},{"beat":441.52083,"duration":0.95833,"midi":57,"velocity":82,"channel":6,"program":29},{"beat":441.52083,"duration":0.95833,"midi":57,"velocity":85,"channel":12,"program":25},{"beat":441.54167,"duration":0.9375,"midi":55,"velocity":88,"channel":4,"program":29},{"beat":441.54167,"duration":0.9375,"midi":62,"velocity":84,"channel":12,"program":25},{"beat":442.0,"duration":0.47917,"midi":31,"velocity":96,"channel":2,"program":33},{"beat":442.0,"duration":0.47917,"midi":43,"velocity":87,"channel":5,"program":30},{"beat":442.0,"duration":0.47917,"midi":50,"velocity":89,"channel":3,"program":27},{"beat":442.0,"duration":0.47917,"midi":57,"velocity":90,"channel":1,"program":52},{"beat":442.0,"duration":0.47917,"midi":62,"velocity":87,"channel":1,"program":52},{"beat":442.0,"duration":0.47917,"midi":66,"velocity":87,"channel":1,"program":52},{"beat":442.0,"duration":0.47917,"midi":69,"velocity":88,"channel":1,"program":52},{"beat":442.0,"duration":0.22917,"midi":69,"velocity":76,"channel":13,"program":81},{"beat":442.0,"duration":0.47917,"midi":81,"velocity":99,"channel":0,"program":22},{"beat":442.02083,"duration":0.45833,"midi":50,"velocity":87,"channel":5,"program":30},{"beat":442.02083,"duration":0.45833,"midi":57,"velocity":88,"channel":3,"program":27},{"beat":442.04167,"duration":0.4375,"midi":55,"velocity":89,"channel":5,"program":30},{"beat":442.04167,"duration":0.4375,"midi":69,"velocity":88,"channel":3,"program":27},{"beat":442.5,"duration":0.47917,"midi":31,"velocity":95,"channel":2,"program":33},{"beat":442.5,"duration":0.97917,"midi":43,"velocity":86,"channel":4,"program":29},{"beat":442.5,"duration":0.47917,"midi":43,"velocity":90,"channel":5,"program":30},{"beat":442.5,"duration":0.47917,"midi":50,"velocity":81,"channel":3,"program":27},{"beat":442.5,"duration":0.97917,"midi":54,"velocity":79,"channel":6,"program":29},{"beat":442.5,"duration":0.47917,"midi":59,"velocity":88,"channel":1,"program":52},{"beat":442.5,"duration":0.47917,"midi":64,"velocity":90,"channel":1,"program":52},{"beat":442.5,"duration":0.47917,"midi":67,"velocity":88,"channel":1,"program":52},{"beat":442.5,"duration":0.22917,"midi":69,"velocity":71,"channel":13,"program":81},{"beat":442.5,"duration":0.47917,"midi":71,"velocity":87,"channel":1,"program":52},{"beat":442.5,"duration":1.02083,"midi":74,"velocity":75,"channel":7,"program":29},{"beat":442.5,"duration":0.47917,"midi":83,"velocity":102,"channel":0,"program":22},{"beat":442.52083,"duration":0.95833,"midi":50,"velocity":90,"channel":4,"program":29},{"beat":442.52083,"duration":0.45833,"midi":50,"velocity":76,"channel":5,"program":30},{"beat":442.52083,"duration":0.45833,"midi":57,"velocity":82,"channel":3,"program":27},{"beat":442.52083,"duration":0.45833,"midi":57,"velocity":80,"channel":6,"program":29},{"beat":442.52083,"duration":0.95833,"midi":57,"velocity":81,"channel":12,"program":25},{"beat":442.54167,"duration":0.9375,"midi":55,"velocity":80,"channel":4,"program":29},{"beat":442.54167,"duration":0.4375,"midi":55,"velocity":79,"channel":5,"program":30},{"beat":442.54167,"duration":0.9375,"midi":62,"velocity":86,"channel":12,"program":25},{"beat":442.54167,"duration":0.4375,"midi":69,"velocity":80,"channel":3,"program":27},{"beat":443.0,"duration":0.47917,"midi":31,"velocity":97,"channel":2,"program":33},{"beat":443.0,"duration":0.97917,"midi":43,"velocity":88,"channel":5,"program":30},{"beat":443.0,"duration":0.97917,"midi":50,"velocity":82,"channel":3,"program":27},{"beat":443.0,"duration":0.47917,"midi":57,"velocity":87,"channel":1,"program":52},{"beat":443.0,"duration":0.47917,"midi":62,"velocity":87,"channel":1,"program":52},{"beat":443.0,"duration":0.47917,"midi":66,"velocity":88,"channel":1,"program":52},{"beat":443.0,"duration":0.47917,"midi":69,"velocity":90,"channel":1,"program":52},{"beat":443.0,"duration":0.22917,"midi":69,"velocity":80,"channel":13,"program":81},{"beat":443.0,"duration":0.47917,"midi":81,"velocity":101,"channel":0,"program":22},{"beat":443.02083,"duration":0.95833,"midi":50,"velocity":86,"channel":5,"program":30},{"beat":443.02083,"duration":0.95833,"midi":57,"velocity":78,"channel":3,"program":27},{"beat":443.02083,"duration":0.45833,"midi":57,"velocity":92,"channel":6,"program":29},{"beat":443.04167,"duration":0.9375,"midi":55,"velocity":90,"channel":5,"program":30},{"beat":443.04167,"duration":0.9375,"midi":66,"velocity":78,"channel":3,"program":27},{"beat":443.5,"duration":0.47917,"midi":31,"velocity":99,"channel":2,"program":33},{"beat":443.5,"duration":0.47917,"midi":43,"velocity":80,"channel":4,"program":29},{"beat":443.5,"duration":0.47917,"midi":54,"velocity":83,"channel":6,"program":29},{"beat":443.5,"duration":0.47917,"midi":57,"velocity":86,"channel":1,"program":52},{"beat":443.5,"duration":0.47917,"midi":62,"velocity":90,"channel":1,"program":52},{"beat":443.5,"duration":0.47917,"midi":66,"velocity":88,"channel":1,"program":52},{"beat":443.5,"duration":0.47917,"midi":69,"velocity":90,"channel":1,"program":52},{"beat":443.5,"duration":0.22917,"midi":69,"velocity":71,"channel":13,"program":81},{"beat":443.5,"duration":0.47917,"midi":73,"velocity":83,"channel":7,"program":29},{"beat":443.5,"duration":0.47917,"midi":81,"velocity":100,"channel":0,"program":22},{"beat":443.52083,"duration":0.45833,"midi":50,"velocity":79,"channel":4,"program":29},{"beat":443.52083,"duration":0.45833,"midi":57,"velocity":82,"channel":6,"program":29},{"beat":443.52083,"duration":0.45833,"midi":57,"velocity":82,"channel":12,"program":25},{"beat":443.54167,"duration":0.4375,"midi":55,"velocity":77,"channel":4,"program":29},{"beat":443.54167,"duration":0.4375,"midi":62,"velocity":84,"channel":12,"program":25},{"beat":444.0,"duration":0.47917,"midi":33,"velocity":98,"channel":2,"program":33},{"beat":444.0,"duration":0.97917,"midi":45,"velocity":90,"channel":4,"program":29},{"beat":444.0,"duration":0.97917,"midi":45,"velocity":87,"channel":5,"program":30},{"beat":444.0,"duration":0.97917,"midi":52,"velocity":88,"channel":3,"program":27},{"beat":444.0,"duration":0.97917,"midi":52,"velocity":89,"channel":6,"program":29},{"beat":444.0,"duration":0.22917,"midi":69,"velocity":65,"channel":13,"program":81},{"beat":444.0,"duration":3.97917,"midi":73,"velocity":84,"channel":7,"program":51},{"beat":444.0,"duration":0.52083,"midi":73,"velocity":60,"channel":7,"program":29},{"beat":444.0,"duration":3.97917,"midi":85,"velocity":78,"channel":7,"program":51},{"beat":444.02083,"duration":0.95833,"midi":52,"velocity":89,"channel":4,"program":29},{"beat":444.02083,"duration":0.95833,"midi":52,"velocity":89,"channel":5,"program":30},{"beat":444.02083,"duration":0.95833,"midi":57,"velocity":87,"channel":3,"program":27},{"beat":444.02083,"duration":0.95833,"midi":57,"velocity":90,"channel":6,"program":29},{"beat":444.02083,"duration":0.95833,"midi":61,"velocity":94,"channel":12,"program":25},{"beat":444.04167,"duration":0.9375,"midi":57,"velocity":85,"channel":4,"program":29},{"beat":444.04167,"duration":0.9375,"midi":57,"velocity":90,"channel":5,"program":30},{"beat":444.04167,"duration":0.9375,"midi":61,"velocity":89,"channel":3,"program":27},{"beat":444.04167,"duration":0.9375,"midi":64,"velocity":98,"channel":12,"program":25},{"beat":444.5,"duration":0.47917,"midi":37,"velocity":96,"channel":2,"program":33},{"beat":444.5,"duration":0.89583,"midi":50,"velocity":90,"channel":1,"program":52},{"beat":444.5,"duration":0.22917,"midi":69,"velocity":70,"channel":13,"program":81},{"beat":444.5,"duration":0.89583,"midi":74,"velocity":102,"channel":0,"program":22},{"beat":445.0,"duration":0.47917,"midi":45,"velocity":95,"channel":2,"program":33},{"beat":445.0,"duration":0.47917,"midi":45,"velocity":85,"channel":4,"program":29},{"beat":445.0,"duration":0.47917,"midi":45,"velocity":89,"channel":5,"program":30},{"beat":445.0,"duration":0.47917,"midi":52,"velocity":77,"channel":3,"program":27},{"beat":445.0,"duration":0.47917,"midi":52,"velocity":86,"channel":6,"program":29},{"beat":445.0,"duration":0.22917,"midi":69,"velocity":83,"channel":13,"program":81},{"beat":445.0,"duration":0.72917,"midi":73,"velocity":60,"channel":7,"program":29},{"beat":445.02083,"duration":0.45833,"midi":52,"velocity":90,"channel":4,"program":29},{"beat":445.02083,"duration":0.45833,"midi":52,"velocity":82,"channel":5,"program":30},{"beat":445.02083,"duration":0.45833,"midi":57,"velocity":78,"channel":3,"program":27},{"beat":445.02083,"duration":0.45833,"midi":61,"velocity":88,"channel":6,"program":29},{"beat":445.02083,"duration":0.95833,"midi":61,"velocity":93,"channel":12,"program":25},{"beat":445.04167,"duration":0.4375,"midi":57,"velocity":81,"channel":4,"program":29},{"beat":445.04167,"duration":0.4375,"midi":57,"velocity":77,"channel":5,"program":30},{"beat":445.04167,"duration":0.4375,"midi":61,"velocity":81,"channel":3,"program":27},{"beat":445.04167,"duration":0.9375,"midi":64,"velocity":96,"channel":12,"program":25},{"beat":445.5,"duration":0.47917,"midi":45,"velocity":94,"channel":2,"program":33},{"beat":445.5,"duration":0.97917,"midi":45,"velocity":86,"channel":4,"program":29},{"beat":445.5,"duration":0.97917,"midi":45,"velocity":89,"channel":5,"program":30},{"beat":445.5,"duration":0.47917,"midi":50,"velocity":89,"channel":1,"program":52},{"beat":445.5,"duration":0.97917,"midi":52,"velocity":90,"channel":3,"program":27},{"beat":445.5,"duration":0.97917,"midi":52,"velocity":89,"channel":6,"program":29},{"beat":445.5,"duration":0.22917,"midi":69,"velocity":73,"channel":13,"program":81},{"beat":445.5,"duration":0.47917,"midi":74,"velocity":102,"channel":0,"program":22},{"beat":445.52083,"duration":0.95833,"midi":52,"velocity":89,"channel":4,"program":29},{"beat":445.52083,"duration":0.95833,"midi":52,"velocity":89,"channel":5,"program":30},{"beat":445.52083,"duration":0.95833,"midi":57,"velocity":86,"channel":3,"program":27},{"beat":445.52083,"duration":0.95833,"midi":57,"velocity":84,"channel":6,"program":29},{"beat":445.54167,"duration":0.9375,"midi":57,"velocity":85,"channel":4,"program":29},{"beat":445.54167,"duration":0.9375,"midi":57,"velocity":85,"channel":5,"program":30},{"beat":445.54167,"duration":0.9375,"midi":61,"velocity":90,"channel":3,"program":27},{"beat":446.0,"duration":0.47917,"midi":45,"velocity":91,"channel":2,"program":33},{"beat":446.0,"duration":0.47917,"midi":53,"velocity":89,"channel":1,"program":52},{"beat":446.0,"duration":0.22917,"midi":69,"velocity":78,"channel":13,"program":81},{"beat":446.0,"duration":0.52083,"midi":73,"velocity":70,"channel":7,"program":29},{"beat":446.0,"duration":0.47917,"midi":77,"velocity":102,"channel":0,"program":22},{"beat":446.02083,"duration":0.45833,"midi":61,"velocity":89,"channel":12,"program":25},{"beat":446.04167,"duration":0.4375,"midi":64,"velocity":92,"channel":12,"program":25},{"beat":446.5,"duration":0.47917,"midi":45,"velocity":93,"channel":2,"program":33},{"beat":446.5,"duration":0.97917,"midi":45,"velocity":84,"channel":4,"program":29},{"beat":446.5,"duration":1.47917,"midi":45,"velocity":84,"channel":5,"program":30},{"beat":446.5,"duration":0.47917,"midi":52,"velocity":87,"channel":1,"program":52},{"beat":446.5,"duration":0.47917,"midi":52,"velocity":78,"channel":3,"program":27},{"beat":446.5,"duration":1.47917,"midi":52,"velocity":87,"channel":6,"program":29},{"beat":446.5,"duration":0.22917,"midi":69,"velocity":77,"channel":13,"program":81},{"beat":446.5,"duration":0.52083,"midi":71,"velocity":65,"channel":7,"program":29},{"beat":446.5,"duration":0.47917,"midi":76,"velocity":102,"channel":0,"program":22},{"beat":446.52083,"duration":0.95833,"midi":52,"velocity":84,"channel":4,"program":29},{"beat":446.52083,"duration":1.45833,"midi":52,"velocity":87,"channel":5,"program":30},{"beat":446.52083,"duration":0.45833,"midi":57,"velocity":82,"channel":3,"program":27},{"beat":446.52083,"duration":0.45833,"midi":61,"velocity":76,"channel":6,"program":29},{"beat":446.52083,"duration":0.95833,"midi":61,"velocity":85,"channel":12,"program":25},{"beat":446.54167,"duration":0.9375,"midi":57,"velocity":84,"channel":4,"program":29},{"beat":446.54167,"duration":1.4375,"midi":57,"velocity":86,"channel":5,"program":30},{"beat":446.54167,"duration":0.4375,"midi":61,"velocity":79,"channel":3,"program":27},{"beat":446.54167,"duration":0.9375,"midi":64,"velocity":88,"channel":12,"program":25},{"beat":447.0,"duration":0.22917,"midi":49,"velocity":81,"channel":2,"program":33},{"beat":447.0,"duration":0.8125,"midi":50,"velocity":87,"channel":1,"program":52},{"beat":447.0,"duration":0.47917,"midi":52,"velocity":76,"channel":3,"program":27},{"beat":447.0,"duration":0.72917,"midi":69,"velocity":60,"channel":7,"program":29},{"beat":447.0,"duration":0.22917,"midi":69,"velocity":86,"channel":13,"program":81},{"beat":447.0,"duration":0.8125,"midi":74,"velocity":100,"channel":0,"program":22},{"beat":447.02083,"duration":0.45833,"midi":57,"velocity":81,"channel":3,"program":27},{"beat":447.02083,"duration":0.95833,"midi":57,"velocity":75,"channel":6,"program":29},{"beat":447.04167,"duration":0.9375,"midi":61,"velocity":79,"channel":3,"program":27},{"beat":447.25,"duration":0.72917,"midi":45,"velocity":84,"channel":2,"program":33},{"beat":447.5,"duration":0.47917,"midi":45,"velocity":83,"channel":4,"program":29},{"beat":447.5,"duration":0.47917,"midi":52,"velocity":82,"channel":3,"program":27},{"beat":447.5,"duration":0.22917,"midi":69,"velocity":75,"channel":13,"program":81},{"beat":447.52083,"duration":0.45833,"midi":52,"velocity":78,"channel":4,"program":29},{"beat":447.52083,"duration":0.45833,"midi":57,"velocity":80,"channel":3,"program":27},{"beat":447.52083,"duration":0.20833,"midi":61,"velocity":86,"channel":12,"program":25},{"beat":447.54167,"duration":0.4375,"midi":57,"velocity":77,"channel":4,"program":29},{"beat":447.54167,"duration":0.1875,"midi":64,"velocity":87,"channel":12,"program":25},{"beat":447.79167,"duration":0.1875,"midi":61,"velocity":90,"channel":12,"program":25},{"beat":447.8125,"duration":0.16667,"midi":64,"velocity":87,"channel":12,"program":25},{"beat":448.0,"duration":0.47917,"midi":35,"velocity":97,"channel":2,"program":33},{"beat":448.0,"duration":0.97917,"midi":47,"velocity":86,"channel":3,"program":27},{"beat":448.0,"duration":0.97917,"midi":47,"velocity":90,"channel":4,"program":29},{"beat":448.0,"duration":0.47917,"midi":47,"velocity":85,"channel":5,"program":30},{"beat":448.0,"duration":0.47917,"midi":54,"velocity":66,"channel":6,"program":29},{"beat":448.0,"duration":0.22917,"midi":69,"velocity":82,"channel":13,"program":81},{"beat":448.0,"duration":3.97917,"midi":74,"velocity":86,"channel":7,"program":51},{"beat":448.0,"duration":0.97917,"midi":86,"velocity":102,"channel":0,"program":22},{"beat":448.0,"duration":3.97917,"midi":86,"velocity":78,"channel":7,"program":51},{"beat":448.02083,"duration":0.95833,"midi":54,"velocity":90,"channel":3,"program":27},{"beat":448.02083,"duration":0.95833,"midi":54,"velocity":90,"channel":4,"program":29},{"beat":448.02083,"duration":0.45833,"midi":54,"velocity":85,"channel":5,"program":30},{"beat":448.02083,"duration":0.95833,"midi":57,"velocity":79,"channel":6,"program":29},{"beat":448.02083,"duration":0.95833,"midi":59,"velocity":91,"channel":12,"program":25},{"beat":448.04167,"duration":0.9375,"midi":57,"velocity":90,"channel":4,"program":29},{"beat":448.04167,"duration":0.9375,"midi":59,"velocity":87,"channel":3,"program":27},{"beat":448.04167,"duration":0.4375,"midi":59,"velocity":89,"channel":5,"program":30},{"beat":448.04167,"duration":0.9375,"midi":62,"velocity":95,"channel":12,"program":25},{"beat":448.04167,"duration":0.4375,"midi":64,"velocity":72,"channel":6,"program":29},{"beat":448.5,"duration":0.47917,"midi":35,"velocity":95,"channel":2,"program":33},{"beat":448.5,"duration":0.47917,"midi":47,"velocity":87,"channel":5,"program":30},{"beat":448.5,"duration":0.47917,"midi":54,"velocity":48,"channel":6,"program":29},{"beat":448.5,"duration":0.22917,"midi":69,"velocity":69,"channel":13,"program":81},{"beat":448.52083,"duration":0.45833,"midi":54,"velocity":89,"channel":5,"program":30},{"beat":448.54167,"duration":0.4375,"midi":57,"velocity":82,"channel":5,"program":30},{"beat":448.54167,"duration":0.4375,"midi":64,"velocity":72,"channel":6,"program":29},{"beat":449.0,"duration":0.47917,"midi":35,"velocity":98,"channel":2,"program":33},{"beat":449.0,"duration":0.47917,"midi":47,"velocity":76,"channel":3,"program":27},{"beat":449.0,"duration":0.47917,"midi":47,"velocity":77,"channel":4,"program":29},{"beat":449.0,"duration":0.97917,"midi":47,"velocity":87,"channel":5,"program":30},{"beat":449.0,"duration":0.97917,"midi":54,"velocity":64,"channel":6,"program":29},{"beat":449.0,"duration":0.22917,"midi":69,"velocity":84,"channel":13,"program":81},{"beat":449.0,"duration":0.8125,"midi":85,"velocity":101,"channel":0,"program":22},{"beat":449.02083,"duration":0.45833,"midi":54,"velocity":79,"channel":3,"program":27},{"beat":449.02083,"duration":0.45833,"midi":54,"velocity":77,"channel":4,"program":29},{"beat":449.02083,"duration":0.95833,"midi":54,"velocity":89,"channel":5,"program":30},{"beat":449.02083,"duration":0.95833,"midi":57,"velocity":71,"channel":6,"program":29},{"beat":449.02083,"duration":0.95833,"midi":59,"velocity":95,"channel":12,"program":25},{"beat":449.04167,"duration":0.4375,"midi":57,"velocity":83,"channel":4,"program":29},{"beat":449.04167,"duration":0.4375,"midi":57,"velocity":89,"channel":5,"program":30},{"beat":449.04167,"duration":0.4375,"midi":59,"velocity":80,"channel":3,"program":27},{"beat":449.04167,"duration":0.9375,"midi":62,"velocity":67,"channel":6,"program":29},{"beat":449.04167,"duration":0.9375,"midi":62,"velocity":98,"channel":12,"program":25},{"beat":449.5,"duration":0.47917,"midi":35,"velocity":98,"channel":2,"program":33},{"beat":449.5,"duration":0.97917,"midi":47,"velocity":89,"channel":3,"program":27},{"beat":449.5,"duration":0.97917,"midi":47,"velocity":90,"channel":4,"program":29},{"beat":449.5,"duration":0.22917,"midi":69,"velocity":71,"channel":13,"program":81},{"beat":449.52083,"duration":0.95833,"midi":54,"velocity":84,"channel":3,"program":27},{"beat":449.52083,"duration":0.95833,"midi":54,"velocity":86,"channel":4,"program":29},{"beat":449.54167,"duration":0.9375,"midi":59,"velocity":87,"channel":3,"program":27},{"beat":449.54167,"duration":0.9375,"midi":59,"velocity":87,"channel":4,"program":29},{"beat":449.54167,"duration":0.4375,"midi":59,"velocity":78,"channel":5,"program":30},{"beat":450.0,"duration":0.47917,"midi":35,"velocity":100,"channel":2,"program":33},{"beat":450.0,"duration":0.47917,"midi":47,"velocity":90,"channel":5,"program":30},{"beat":450.0,"duration":0.47917,"midi":54,"velocity":58,"channel":6,"program":29},{"beat":450.0,"duration":0.22917,"midi":69,"velocity":76,"channel":13,"program":81},{"beat":450.0,"duration":0.47917,"midi":81,"velocity":102,"channel":0,"program":22},{"beat":450.02083,"duration":0.45833,"midi":54,"velocity":84,"channel":5,"program":30},{"beat":450.02083,"duration":0.45833,"midi":59,"velocity":75,"channel":6,"program":29},{"beat":450.02083,"duration":0.45833,"midi":59,"velocity":93,"channel":12,"program":25},{"beat":450.04167,"duration":0.4375,"midi":59,"velocity":84,"channel":5,"program":30},{"beat":450.04167,"duration":0.4375,"midi":61,"velocity":64,"channel":6,"program":29},{"beat":450.04167,"duration":0.4375,"midi":62,"velocity":94,"channel":12,"program":25},{"beat":450.5,"duration":0.47917,"midi":35,"velocity":95,"channel":2,"program":33},{"beat":450.5,"duration":0.47917,"midi":47,"velocity":76,"channel":3,"program":27},{"beat":450.5,"duration":0.97917,"midi":47,"velocity":86,"channel":4,"program":29},{"beat":450.5,"duration":0.97917,"midi":47,"velocity":89,"channel":5,"program":30},{"beat":450.5,"duration":0.47917,"midi":54,"velocity":55,"channel":6,"program":29},{"beat":450.5,"duration":0.22917,"midi":69,"velocity":71,"channel":13,"program":81},{"beat":450.5,"duration":0.47917,"midi":78,"velocity":99,"channel":0,"program":22},{"beat":450.52083,"duration":0.45833,"midi":54,"velocity":77,"channel":3,"program":27},{"beat":450.52083,"duration":0.95833,"midi":54,"velocity":85,"channel":4,"program":29},{"beat":450.52083,"duration":0.95833,"midi":54,"velocity":89,"channel":5,"program":30},{"beat":450.52083,"duration":0.45833,"midi":57,"velocity":67,"channel":6,"program":29},{"beat":450.52083,"duration":0.95833,"midi":59,"velocity":88,"channel":12,"program":25},{"beat":450.54167,"duration":0.9375,"midi":57,"velocity":89,"channel":4,"program":29},{"beat":450.54167,"duration":0.9375,"midi":57,"velocity":87,"channel":5,"program":30},{"beat":450.54167,"duration":0.4375,"midi":59,"velocity":76,"channel":3,"program":27},{"beat":450.54167,"duration":0.9375,"midi":62,"velocity":69,"channel":6,"program":29},{"beat":450.54167,"duration":0.9375,"midi":62,"velocity":91,"channel":12,"program":25},{"beat":451.0,"duration":0.47917,"midi":38,"velocity":93,"channel":2,"program":33},{"beat":451.0,"duration":0.97917,"midi":47,"velocity":81,"channel":3,"program":27},{"beat":451.0,"duration":0.97917,"midi":54,"velocity":73,"channel":6,"program":29},{"beat":451.0,"duration":0.22917,"midi":69,"velocity":80,"channel":13,"program":81},{"beat":451.0,"duration":0.97917,"midi":78,"velocity":101,"channel":0,"program":22},{"beat":451.02083,"duration":0.95833,"midi":54,"velocity":81,"channel":3,"program":27},{"beat":451.02083,"duration":0.95833,"midi":57,"velocity":71,"channel":6,"program":29},{"beat":451.04167,"duration":0.9375,"midi":59,"velocity":82,"channel":3,"program":27},{"beat":451.5,"duration":0.47917,"midi":38,"velocity":80,"channel":2,"program":33},{"beat":451.5,"duration":0.47917,"midi":47,"velocity":77,"channel":4,"program":29},{"beat":451.5,"duration":0.22917,"midi":47,"velocity":89,"channel":5,"program":30},{"beat":451.5,"duration":0.22917,"midi":69,"velocity":71,"channel":13,"program":81},{"beat":451.52083,"duration":0.45833,"midi":54,"velocity":79,"channel":4,"program":29},{"beat":451.52083,"duration":0.20833,"midi":54,"velocity":89,"channel":5,"program":30},{"beat":451.52083,"duration":0.20833,"midi":59,"velocity":79,"channel":12,"program":25},{"beat":451.54167,"duration":0.4375,"midi":57,"velocity":77,"channel":4,"program":29},{"beat":451.54167,"duration":0.4375,"midi":57,"velocity":78,"channel":5,"program":30},{"beat":451.54167,"duration":0.4375,"midi":62,"velocity":69,"channel":6,"program":29},{"beat":451.54167,"duration":0.1875,"midi":62,"velocity":80,"channel":12,"program":25},{"beat":451.75,"duration":0.22917,"midi":47,"velocity":89,"channel":5,"program":30},{"beat":451.77083,"duration":0.20833,"midi":54,"velocity":89,"channel":5,"program":30},{"beat":451.77083,"duration":0.20833,"midi":59,"velocity":83,"channel":12,"program":25},{"beat":451.79167,"duration":0.1875,"midi":62,"velocity":81,"channel":12,"program":25},{"beat":452.0,"duration":0.27083,"midi":38,"velocity":82,"channel":2,"program":33},{"beat":452.0,"duration":0.47917,"midi":50,"velocity":85,"channel":3,"program":27},{"beat":452.0,"duration":0.47917,"midi":50,"velocity":88,"channel":4,"program":29},{"beat":452.0,"duration":0.47917,"midi":50,"velocity":87,"channel":5,"program":30},{"beat":452.0,"duration":0.47917,"midi":57,"velocity":89,"channel":6,"program":29},{"beat":452.0,"duration":0.47917,"midi":64,"velocity":90,"channel":7,"program":51},{"beat":452.0,"duration":0.22917,"midi":69,"velocity":65,"channel":13,"program":81},{"beat":452.0,"duration":0.97917,"midi":78,"velocity":101,"channel":0,"program":22},{"beat":452.0,"duration":1.97917,"midi":83,"velocity":90,"channel":7,"program":51},{"beat":452.0,"duration":1.97917,"midi":95,"velocity":79,"channel":7,"program":51},{"beat":452.02083,"duration":0.45833,"midi":57,"velocity":86,"channel":3,"program":27},{"beat":452.02083,"duration":0.45833,"midi":57,"velocity":87,"channel":5,"program":30},{"beat":452.02083,"duration":0.45833,"midi":57,"velocity":86,"channel":12,"program":25},{"beat":452.02083,"duration":0.45833,"midi":62,"velocity":85,"channel":5,"program":30},{"beat":452.02083,"duration":0.45833,"midi":62,"velocity":71,"channel":6,"program":29},{"beat":452.04167,"duration":0.4375,"midi":57,"velocity":86,"channel":4,"program":29},{"beat":452.04167,"duration":0.4375,"midi":62,"velocity":82,"channel":12,"program":25},{"beat":452.04167,"duration":0.4375,"midi":64,"velocity":88,"channel":3,"program":27},{"beat":452.5,"duration":0.47917,"midi":38,"velocity":92,"channel":2,"program":33},{"beat":452.5,"duration":0.47917,"midi":50,"velocity":82,"channel":3,"program":27},{"beat":452.5,"duration":0.47917,"midi":50,"velocity":78,"channel":4,"program":29},{"beat":452.5,"duration":0.47917,"midi":50,"velocity":85,"channel":5,"program":30},{"beat":452.5,"duration":0.47917,"midi":57,"velocity":86,"channel":6,"program":29},{"beat":452.5,"duration":0.47917,"midi":64,"velocity":84,"channel":7,"program":51},{"beat":452.5,"duration":0.22917,"midi":69,"velocity":70,"channel":13,"program":81},{"beat":452.52083,"duration":0.45833,"midi":57,"velocity":80,"channel":3,"program":27},{"beat":452.52083,"duration":0.45833,"midi":57,"velocity":85,"channel":5,"program":30},{"beat":452.52083,"duration":0.45833,"midi":57,"velocity":91,"channel":12,"program":25},{"beat":452.52083,"duration":0.45833,"midi":64,"velocity":80,"channel":6,"program":29},{"beat":452.54167,"duration":0.4375,"midi":57,"velocity":81,"channel":4,"program":29},{"beat":452.54167,"duration":0.4375,"midi":64,"velocity":76,"channel":3,"program":27},{"beat":452.54167,"duration":0.4375,"midi":64,"velocity":90,"channel":5,"program":30},{"beat":452.54167,"duration":0.4375,"midi":64,"velocity":90,"channel":12,"program":25},{"beat":453.0,"duration":0.47917,"midi":45,"velocity":80,"channel":2,"program":33},{"beat":453.0,"duration":0.97917,"midi":50,"velocity":80,"channel":3,"program":27},{"beat":453.0,"duration":0.97917,"midi":50,"velocity":90,"channel":4,"program":29},{"beat":453.0,"duration":0.97917,"midi":50,"velocity":85,"channel":5,"program":30},{"beat":453.0,"duration":0.97917,"midi":57,"velocity":84,"channel":6,"program":29},{"beat":453.0,"duration":0.97917,"midi":64,"velocity":85,"channel":7,"program":51},{"beat":453.0,"duration":0.22917,"midi":69,"velocity":83,"channel":13,"program":81},{"beat":453.02083,"duration":0.95833,"midi":57,"velocity":77,"channel":3,"program":27},{"beat":453.02083,"duration":0.95833,"midi":57,"velocity":88,"channel":5,"program":30},{"beat":453.02083,"duration":0.95833,"midi":57,"velocity":100,"channel":12,"program":25},{"beat":453.02083,"duration":0.95833,"midi":64,"velocity":76,"channel":6,"program":29},{"beat":453.04167,"duration":0.9375,"midi":57,"velocity":84,"channel":4,"program":29},{"beat":453.04167,"duration":0.9375,"midi":64,"velocity":82,"channel":3,"program":27},{"beat":453.04167,"duration":0.9375,"midi":64,"velocity":85,"channel":5,"program":30},{"beat":453.04167,"duration":0.9375,"midi":64,"velocity":97,"channel":12,"program":25},{"beat":453.5,"duration":0.97917,"midi":50,"velocity":88,"channel":2,"program":33},{"beat":453.5,"duration":0.22917,"midi":69,"velocity":73,"channel":13,"program":81},{"beat":454.0,"duration":0.47917,"midi":50,"velocity":89,"channel":3,"program":27},{"beat":454.0,"duration":0.47917,"midi":50,"velocity":88,"channel":4,"program":29},{"beat":454.0,"duration":0.47917,"midi":50,"velocity":88,"channel":5,"program":30},{"beat":454.0,"duration":0.47917,"midi":57,"velocity":86,"channel":6,"program":29},{"beat":454.0,"duration":0.47917,"midi":66,"velocity":84,"channel":7,"program":51},{"beat":454.0,"duration":0.22917,"midi":69,"velocity":78,"channel":13,"program":81},{"beat":454.0,"duration":0.47917,"midi":76,"velocity":102,"channel":0,"program":22},{"beat":454.0,"duration":1.97917,"midi":81,"velocity":90,"channel":7,"program":51},{"beat":454.0,"duration":1.97917,"midi":93,"velocity":78,"channel":7,"program":51},{"beat":454.02083,"duration":0.45833,"midi":57,"velocity":85,"channel":3,"program":27},{"beat":454.02083,"duration":0.45833,"midi":57,"velocity":89,"channel":5,"program":30},{"beat":454.02083,"duration":0.45833,"midi":66,"velocity":66,"channel":6,"program":29},{"beat":454.04167,"duration":0.4375,"midi":57,"velocity":85,"channel":4,"program":29},{"beat":454.04167,"duration":0.4375,"midi":66,"velocity":86,"channel":3,"program":27},{"beat":454.5,"duration":0.47917,"midi":50,"velocity":88,"channel":2,"program":33},{"beat":454.5,"duration":0.47917,"midi":50,"velocity":80,"channel":3,"program":27},{"beat":454.5,"duration":0.47917,"midi":50,"velocity":81,"channel":4,"program":29},{"beat":454.5,"duration":0.47917,"midi":50,"velocity":89,"channel":5,"program":30},{"beat":454.5,"duration":0.47917,"midi":57,"velocity":89,"channel":6,"program":29},{"beat":454.5,"duration":0.47917,"midi":66,"velocity":84,"channel":7,"program":51},{"beat":454.5,"duration":0.22917,"midi":69,"velocity":77,"channel":13,"program":81},{"beat":454.5,"duration":0.47917,"midi":78,"velocity":99,"channel":0,"program":22},{"beat":454.52083,"duration":0.45833,"midi":57,"velocity":80,"channel":3,"program":27},{"beat":454.52083,"duration":0.45833,"midi":57,"velocity":85,"channel":5,"program":30},{"beat":454.52083,"duration":0.45833,"midi":57,"velocity":95,"channel":12,"program":25},{"beat":454.52083,"duration":0.45833,"midi":66,"velocity":60,"channel":6,"program":29},{"beat":454.54167,"duration":0.4375,"midi":57,"velocity":83,"channel":4,"program":29},{"beat":454.54167,"duration":0.4375,"midi":66,"velocity":80,"channel":3,"program":27},{"beat":454.54167,"duration":0.4375,"midi":66,"velocity":87,"channel":5,"program":30},{"beat":454.54167,"duration":0.4375,"midi":66,"velocity":94,"channel":12,"program":25},{"beat":455.0,"duration":0.47917,"midi":50,"velocity":89,"channel":2,"program":33},{"beat":455.0,"duration":0.97917,"midi":50,"velocity":77,"channel":3,"program":27},{"beat":455.0,"duration":0.97917,"midi":50,"velocity":87,"channel":4,"program":29},{"beat":455.0,"duration":0.47917,"midi":50,"velocity":84,"channel":5,"program":30},{"beat":455.0,"duration":0.97917,"midi":57,"velocity":89,"channel":6,"program":29},{"beat":455.0,"duration":0.97917,"midi":66,"velocity":90,"channel":7,"program":51},{"beat":455.0,"duration":0.22917,"midi":69,"velocity":86,"channel":13,"program":81},{"beat":455.0,"duration":0.47917,"midi":76,"velocity":101,"channel":0,"program":22},{"beat":455.02083,"duration":0.95833,"midi":57,"velocity":81,"channel":3,"program":27},{"beat":455.02083,"duration":0.45833,"midi":57,"velocity":90,"channel":5,"program":30},{"beat":455.02083,"duration":0.95833,"midi":57,"velocity":104,"channel":12,"program":25},{"beat":455.02083,"duration":0.95833,"midi":66,"velocity":70,"channel":6,"program":29},{"beat":455.04167,"duration":0.9375,"midi":57,"velocity":89,"channel":4,"program":29},{"beat":455.04167,"duration":0.4375,"midi":66,"velocity":82,"channel":3,"program":27},{"beat":455.04167,"duration":0.4375,"midi":66,"velocity":89,"channel":5,"program":30},{"beat":455.04167,"duration":0.9375,"midi":66,"velocity":107,"channel":12,"program":25},{"beat":455.5,"duration":0.47917,"midi":45,"velocity":80,"channel":2,"program":33},{"beat":455.5,"duration":0.22917,"midi":50,"velocity":81,"channel":5,"program":30},{"beat":455.5,"duration":0.22917,"midi":69,"velocity":75,"channel":13,"program":81},{"beat":455.5,"duration":0.47917,"midi":74,"velocity":102,"channel":0,"program":22},{"beat":455.52083,"duration":0.20833,"midi":57,"velocity":80,"channel":5,"program":30},{"beat":455.54167,"duration":0.4375,"midi":66,"velocity":78,"channel":3,"program":27},{"beat":455.54167,"duration":0.4375,"midi":66,"velocity":82,"channel":5,"program":30},{"beat":455.75,"duration":0.22917,"midi":50,"velocity":81,"channel":5,"program":30},{"beat":455.77083,"duration":0.20833,"midi":57,"velocity":78,"channel":5,"program":30},{"beat":456.0,"duration":0.97917,"midi":31,"velocity":94,"channel":2,"program":33},{"beat":456.0,"duration":0.97917,"midi":43,"velocity":86,"channel":4,"program":29},{"beat":456.0,"duration":0.47917,"midi":43,"velocity":88,"channel":5,"program":30},{"beat":456.0,"duration":0.97917,"midi":50,"velocity":86,"channel":3,"program":27},{"beat":456.0,"duration":0.47917,"midi":57,"velocity":90,"channel":1,"program":52},{"beat":456.0,"duration":0.97917,"midi":57,"velocity":88,"channel":6,"program":29},{"beat":456.0,"duration":0.47917,"midi":62,"velocity":90,"channel":1,"program":52},{"beat":456.0,"duration":0.47917,"midi":66,"velocity":88,"channel":1,"program":52},{"beat":456.0,"duration":0.47917,"midi":69,"velocity":90,"channel":1,"program":52},{"beat":456.0,"duration":0.22917,"midi":69,"velocity":82,"channel":13,"program":81},{"beat":456.0,"duration":0.47917,"midi":74,"velocity":86,"channel":7,"program":29},{"beat":456.0,"duration":3.97917,"midi":74,"velocity":86,"channel":7,"program":51},{"beat":456.0,"duration":0.47917,"midi":81,"velocity":101,"channel":0,"program":22},{"beat":456.0,"duration":3.97917,"midi":86,"velocity":78,"channel":7,"program":51},{"beat":456.02083,"duration":0.95833,"midi":50,"velocity":87,"channel":4,"program":29},{"beat":456.02083,"duration":0.45833,"midi":50,"velocity":87,"channel":5,"program":30},{"beat":456.02083,"duration":0.95833,"midi":57,"velocity":85,"channel":3,"program":27},{"beat":456.02083,"duration":0.95833,"midi":57,"velocity":97,"channel":12,"program":25},{"beat":456.02083,"duration":0.95833,"midi":62,"velocity":64,"channel":6,"program":29},{"beat":456.04167,"duration":0.4375,"midi":55,"velocity":89,"channel":5,"program":30},{"beat":456.04167,"duration":0.9375,"midi":57,"velocity":89,"channel":4,"program":29},{"beat":456.04167,"duration":0.9375,"midi":62,"velocity":88,"channel":3,"program":27},{"beat":456.04167,"duration":0.9375,"midi":62,"velocity":98,"channel":12,"program":25},{"beat":456.5,"duration":0.47917,"midi":43,"velocity":88,"channel":5,"program":30},{"beat":456.5,"duration":0.47917,"midi":57,"velocity":88,"channel":1,"program":52},{"beat":456.5,"duration":0.47917,"midi":62,"velocity":87,"channel":1,"program":52},{"beat":456.5,"duration":0.47917,"midi":66,"velocity":90,"channel":1,"program":52},{"beat":456.5,"duration":0.47917,"midi":69,"velocity":90,"channel":1,"program":52},{"beat":456.5,"duration":0.22917,"midi":69,"velocity":69,"channel":13,"program":81},{"beat":456.5,"duration":0.47917,"midi":74,"velocity":80,"channel":7,"program":29},{"beat":456.5,"duration":0.47917,"midi":81,"velocity":102,"channel":0,"program":22},{"beat":456.52083,"duration":0.45833,"midi":50,"velocity":87,"channel":5,"program":30},{"beat":456.54167,"duration":0.4375,"midi":55,"velocity":81,"channel":5,"program":30},{"beat":457.0,"duration":0.47917,"midi":31,"velocity":95,"channel":2,"program":33},{"beat":457.0,"duration":0.97917,"midi":43,"velocity":84,"channel":4,"program":29},{"beat":457.0,"duration":0.97917,"midi":43,"velocity":90,"channel":5,"program":30},{"beat":457.0,"duration":0.97917,"midi":50,"velocity":77,"channel":3,"program":27},{"beat":457.0,"duration":0.47917,"midi":57,"velocity":89,"channel":1,"program":52},{"beat":457.0,"duration":0.47917,"midi":57,"velocity":86,"channel":6,"program":29},{"beat":457.0,"duration":0.47917,"midi":62,"velocity":90,"channel":1,"program":52},{"beat":457.0,"duration":0.47917,"midi":66,"velocity":87,"channel":1,"program":52},{"beat":457.0,"duration":0.47917,"midi":69,"velocity":86,"channel":1,"program":52},{"beat":457.0,"duration":0.22917,"midi":69,"velocity":84,"channel":13,"program":81},{"beat":457.0,"duration":0.47917,"midi":74,"velocity":80,"channel":7,"program":29},{"beat":457.0,"duration":0.47917,"midi":81,"velocity":101,"channel":0,"program":22},{"beat":457.02083,"duration":0.95833,"midi":50,"velocity":90,"channel":4,"program":29},{"beat":457.02083,"duration":0.95833,"midi":50,"velocity":88,"channel":5,"program":30},{"beat":457.02083,"duration":0.95833,"midi":57,"velocity":77,"channel":3,"program":27},{"beat":457.02083,"duration":0.45833,"midi":57,"velocity":92,"channel":12,"program":25},{"beat":457.02083,"duration":0.45833,"midi":64,"velocity":72,"channel":6,"program":29},{"beat":457.04167,"duration":0.9375,"midi":55,"velocity":84,"channel":5,"program":30},{"beat":457.04167,"duration":0.9375,"midi":57,"velocity":79,"channel":4,"program":29},{"beat":457.04167,"duration":0.9375,"midi":62,"velocity":80,"channel":3,"program":27},{"beat":457.04167,"duration":0.4375,"midi":62,"velocity":96,"channel":12,"program":25},{"beat":457.5,"duration":0.47917,"midi":31,"velocity":98,"channel":2,"program":33},{"beat":457.5,"duration":0.47917,"midi":57,"velocity":90,"channel":1,"program":52},{"beat":457.5,"duration":0.97917,"midi":57,"velocity":88,"channel":6,"program":29},{"beat":457.5,"duration":0.47917,"midi":62,"velocity":88,"channel":1,"program":52},{"beat":457.5,"duration":0.47917,"midi":66,"velocity":88,"channel":1,"program":52},{"beat":457.5,"duration":0.47917,"midi":69,"velocity":89,"channel":1,"program":52},{"beat":457.5,"duration":0.22917,"midi":69,"velocity":71,"channel":13,"program":81},{"beat":457.5,"duration":0.47917,"midi":81,"velocity":102,"channel":0,"program":22},{"beat":457.52083,"duration":0.45833,"midi":57,"velocity":85,"channel":12,"program":25},{"beat":457.52083,"duration":0.95833,"midi":62,"velocity":69,"channel":6,"program":29},{"beat":457.54167,"duration":0.4375,"midi":62,"velocity":81,"channel":12,"program":25},{"beat":458.0,"duration":0.47917,"midi":31,"velocity":96,"channel":2,"program":33},{"beat":458.0,"duration":0.47917,"midi":43,"velocity":84,"channel":4,"program":29},{"beat":458.0,"duration":0.47917,"midi":43,"velocity":90,"channel":5,"program":30},{"beat":458.0,"duration":0.47917,"midi":50,"velocity":86,"channel":3,"program":27},{"beat":458.0,"duration":0.47917,"midi":57,"velocity":90,"channel":1,"program":52},{"beat":458.0,"duration":0.47917,"midi":62,"velocity":88,"channel":1,"program":52},{"beat":458.0,"duration":0.47917,"midi":66,"velocity":89,"channel":1,"program":52},{"beat":458.0,"duration":0.47917,"midi":69,"velocity":89,"channel":1,"program":52},{"beat":458.0,"duration":0.22917,"midi":69,"velocity":76,"channel":13,"program":81},{"beat":458.0,"duration":0.47917,"midi":81,"velocity":102,"channel":0,"program":22},{"beat":458.02083,"duration":0.45833,"midi":50,"velocity":86,"channel":4,"program":29},{"beat":458.02083,"duration":0.45833,"midi":50,"velocity":89,"channel":5,"program":30},{"beat":458.02083,"duration":0.45833,"midi":57,"velocity":90,"channel":3,"program":27},{"beat":458.02083,"duration":0.45833,"midi":57,"velocity":87,"channel":12,"program":25},{"beat":458.04167,"duration":0.4375,"midi":55,"velocity":85,"channel":5,"program":30},{"beat":458.04167,"duration":0.4375,"midi":57,"velocity":88,"channel":4,"program":29},{"beat":458.04167,"duration":0.4375,"midi":62,"velocity":89,"channel":3,"program":27},{"beat":458.04167,"duration":0.4375,"midi":62,"velocity":87,"channel":12,"program":25},{"beat":458.5,"duration":0.47917,"midi":31,"velocity":99,"channel":2,"program":33},{"beat":458.5,"duration":0.97917,"midi":43,"velocity":88,"channel":4,"program":29},{"beat":458.5,"duration":0.97917,"midi":43,"velocity":88,"channel":5,"program":30},{"beat":458.5,"duration":0.97917,"midi":50,"velocity":78,"channel":3,"program":27},{"beat":458.5,"duration":0.47917,"midi":57,"velocity":84,"channel":6,"program":29},{"beat":458.5,"duration":0.47917,"midi":59,"velocity":87,"channel":1,"program":52},{"beat":458.5,"duration":0.47917,"midi":64,"velocity":89,"channel":1,"program":52},{"beat":458.5,"duration":0.47917,"midi":67,"velocity":90,"channel":1,"program":52},{"beat":458.5,"duration":0.22917,"midi":69,"velocity":71,"channel":13,"program":81},{"beat":458.5,"duration":0.47917,"midi":71,"velocity":88,"channel":1,"program":52},{"beat":458.5,"duration":0.47917,"midi":83,"velocity":101,"channel":0,"program":22},{"beat":458.52083,"duration":0.95833,"midi":50,"velocity":87,"channel":4,"program":29},{"beat":458.52083,"duration":0.95833,"midi":50,"velocity":85,"channel":5,"program":30},{"beat":458.52083,"duration":0.95833,"midi":57,"velocity":76,"channel":3,"program":27},{"beat":458.52083,"duration":0.95833,"midi":57,"velocity":81,"channel":12,"program":25},{"beat":458.52083,"duration":0.45833,"midi":64,"velocity":64,"channel":6,"program":29},{"beat":458.54167,"duration":0.9375,"midi":55,"velocity":84,"channel":5,"program":30},{"beat":458.54167,"duration":0.9375,"midi":57,"velocity":80,"channel":4,"program":29},{"beat":458.54167,"duration":0.9375,"midi":62,"velocity":80,"channel":3,"program":27},{"beat":458.54167,"duration":0.9375,"midi":62,"velocity":84,"channel":12,"program":25},{"beat":459.0,"duration":0.97917,"midi":31,"velocity":94,"channel":2,"program":33},{"beat":459.0,"duration":0.47917,"midi":57,"velocity":89,"channel":1,"program":52},{"beat":459.0,"duration":0.97917,"midi":57,"velocity":88,"channel":6,"program":29},{"beat":459.0,"duration":0.47917,"midi":62,"velocity":90,"channel":1,"program":52},{"beat":459.0,"duration":0.47917,"midi":66,"velocity":90,"channel":1,"program":52},{"beat":459.0,"duration":0.47917,"midi":69,"velocity":90,"channel":1,"program":52},{"beat":459.0,"duration":0.22917,"midi":69,"velocity":80,"channel":13,"program":81},{"beat":459.0,"duration":0.47917,"midi":81,"velocity":101,"channel":0,"program":22},{"beat":459.02083,"duration":0.95833,"midi":62,"velocity":71,"channel":6,"program":29},{"beat":459.5,"duration":0.47917,"midi":43,"velocity":77,"channel":4,"program":29},{"beat":459.5,"duration":0.22917,"midi":43,"velocity":80,"channel":5,"program":30},{"beat":459.5,"duration":0.47917,"midi":50,"velocity":81,"channel":3,"program":27},{"beat":459.5,"duration":0.47917,"midi":57,"velocity":87,"channel":1,"program":52},{"beat":459.5,"duration":0.47917,"midi":62,"velocity":88,"channel":1,"program":52},{"beat":459.5,"duration":0.47917,"midi":66,"velocity":89,"channel":1,"program":52},{"beat":459.5,"duration":0.47917,"midi":69,"velocity":90,"channel":1,"program":52},{"beat":459.5,"duration":0.22917,"midi":69,"velocity":71,"channel":13,"program":81},{"beat":459.5,"duration":0.47917,"midi":81,"velocity":102,"channel":0,"program":22},{"beat":459.52083,"duration":0.45833,"midi":50,"velocity":82,"channel":4,"program":29},{"beat":459.52083,"duration":0.20833,"midi":50,"velocity":79,"channel":5,"program":30},{"beat":459.52083,"duration":0.45833,"midi":57,"velocity":76,"channel":3,"program":27},{"beat":459.52083,"duration":0.45833,"midi":57,"velocity":82,"channel":12,"program":25},{"beat":459.54167,"duration":0.1875,"midi":55,"velocity":77,"channel":5,"program":30},{"beat":459.54167,"duration":0.4375,"midi":57,"velocity":82,"channel":4,"program":29},{"beat":459.54167,"duration":0.4375,"midi":62,"velocity":78,"channel":3,"program":27},{"beat":459.54167,"duration":0.4375,"midi":62,"velocity":83,"channel":12,"program":25},{"beat":459.75,"duration":0.22917,"midi":43,"velocity":81,"channel":5,"program":30},{"beat":459.77083,"duration":0.20833,"midi":50,"velocity":82,"channel":5,"program":30},{"beat":459.79167,"duration":0.1875,"midi":55,"velocity":76,"channel":5,"program":30},{"beat":460.0,"duration":0.97917,"midi":33,"velocity":99,"channel":2,"program":33},{"beat":460.0,"duration":0.97917,"midi":45,"velocity":90,"channel":4,"program":29},{"beat":460.0,"duration":0.97917,"midi":45,"velocity":88,"channel":5,"program":30},{"beat":460.0,"duration":0.97917,"midi":52,"velocity":85,"channel":3,"program":27},{"beat":460.0,"duration":0.97917,"midi":52,"velocity":86,"channel":6,"program":29},{"beat":460.0,"duration":0.97917,"midi":57,"velocity":86,"channel":6,"program":29},{"beat":460.0,"duration":0.22917,"midi":69,"velocity":65,"channel":13,"program":81},{"beat":460.0,"duration":3.97917,"midi":73,"velocity":89,"channel":7,"program":51},{"beat":460.0,"duration":0.47917,"midi":73,"velocity":70,"channel":7,"program":29},{"beat":460.0,"duration":3.97917,"midi":85,"velocity":80,"channel":7,"program":51},{"beat":460.02083,"duration":0.95833,"midi":52,"velocity":88,"channel":4,"program":29},{"beat":460.02083,"duration":0.95833,"midi":52,"velocity":84,"channel":5,"program":30},{"beat":460.02083,"duration":0.95833,"midi":57,"velocity":86,"channel":3,"program":27},{"beat":460.02083,"duration":0.95833,"midi":57,"velocity":98,"channel":12,"program":25},{"beat":460.04167,"duration":0.9375,"midi":57,"velocity":85,"channel":4,"program":29},{"beat":460.04167,"duration":0.9375,"midi":57,"velocity":88,"channel":5,"program":30},{"beat":460.04167,"duration":0.9375,"midi":61,"velocity":87,"channel":3,"program":27},{"beat":460.04167,"duration":0.9375,"midi":61,"velocity":92,"channel":12,"program":25},{"beat":460.5,"duration":0.47917,"midi":50,"velocity":89,"channel":1,"program":52},{"beat":460.5,"duration":0.22917,"midi":69,"velocity":70,"channel":13,"program":81},{"beat":460.5,"duration":0.47917,"midi":74,"velocity":101,"channel":0,"program":22},{"beat":461.0,"duration":0.47917,"midi":33,"velocity":97,"channel":2,"program":33},{"beat":461.0,"duration":0.97917,"midi":45,"velocity":89,"channel":4,"program":29},{"beat":461.0,"duration":0.47917,"midi":45,"velocity":90,"channel":5,"program":30},{"beat":461.0,"duration":0.47917,"midi":50,"velocity":89,"channel":1,"program":52},{"beat":461.0,"duration":0.97917,"midi":52,"velocity":76,"channel":3,"program":27},{"beat":461.0,"duration":0.47917,"midi":52,"velocity":86,"channel":6,"program":29},{"beat":461.0,"duration":0.27083,"midi":69,"velocity":86,"channel":7,"program":29},{"beat":461.0,"duration":0.22917,"midi":69,"velocity":83,"channel":13,"program":81},{"beat":461.0,"duration":0.47917,"midi":74,"velocity":102,"channel":0,"program":22},{"beat":461.02083,"duration":0.95833,"midi":52,"velocity":89,"channel":4,"program":29},{"beat":461.02083,"duration":0.45833,"midi":52,"velocity":90,"channel":5,"program":30},{"beat":461.02083,"duration":0.95833,"midi":57,"velocity":79,"channel":3,"program":27},{"beat":461.02083,"duration":0.45833,"midi":57,"velocity":91,"channel":12,"program":25},{"beat":461.02083,"duration":0.45833,"midi":61,"velocity":86,"channel":6,"program":29},{"beat":461.04167,"duration":0.9375,"midi":57,"velocity":70,"channel":4,"program":29},{"beat":461.04167,"duration":0.4375,"midi":57,"velocity":84,"channel":5,"program":30},{"beat":461.04167,"duration":0.9375,"midi":61,"velocity":76,"channel":3,"program":27},{"beat":461.04167,"duration":0.4375,"midi":61,"velocity":96,"channel":12,"program":25},{"beat":461.25,"duration":0.22917,"midi":71,"velocity":86,"channel":7,"program":29},{"beat":461.5,"duration":0.47917,"midi":37,"velocity":94,"channel":2,"program":33},{"beat":461.5,"duration":0.97917,"midi":45,"velocity":87,"channel":5,"program":30},{"beat":461.5,"duration":0.47917,"midi":50,"velocity":88,"channel":1,"program":52},{"beat":461.5,"duration":0.47917,"midi":52,"velocity":88,"channel":6,"program":29},{"beat":461.5,"duration":0.22917,"midi":69,"velocity":73,"channel":13,"program":81},{"beat":461.5,"duration":0.52083,"midi":71,"velocity":80,"channel":7,"program":29},{"beat":461.5,"duration":0.47917,"midi":74,"velocity":102,"channel":0,"program":22},{"beat":461.52083,"duration":0.95833,"midi":52,"velocity":89,"channel":5,"program":30},{"beat":461.52083,"duration":0.95833,"midi":57,"velocity":89,"channel":6,"program":29},{"beat":461.52083,"duration":0.95833,"midi":57,"velocity":86,"channel":12,"program":25},{"beat":461.54167,"duration":0.9375,"midi":57,"velocity":85,"channel":5,"program":30},{"beat":461.54167,"duration":0.9375,"midi":61,"velocity":84,"channel":12,"program":25},{"beat":462.0,"duration":1.47917,"midi":40,"velocity":98,"channel":2,"program":33},{"beat":462.0,"duration":0.47917,"midi":45,"velocity":89,"channel":4,"program":29},{"beat":462.0,"duration":0.47917,"midi":52,"velocity":85,"channel":3,"program":27},{"beat":462.0,"duration":0.47917,"midi":52,"velocity":88,"channel":6,"program":29},{"beat":462.0,"duration":0.72917,"midi":54,"velocity":90,"channel":1,"program":52},{"beat":462.0,"duration":0.22917,"midi":69,"velocity":78,"channel":13,"program":81},{"beat":462.0,"duration":0.72917,"midi":78,"velocity":100,"channel":0,"program":22},{"beat":462.02083,"duration":0.45833,"midi":52,"velocity":85,"channel":4,"program":29},{"beat":462.02083,"duration":0.45833,"midi":57,"velocity":85,"channel":3,"program":27},{"beat":462.04167,"duration":0.4375,"midi":61,"velocity":87,"channel":3,"program":27},{"beat":462.5,"duration":0.97917,"midi":45,"velocity":86,"channel":4,"program":29},{"beat":462.5,"duration":0.97917,"midi":45,"velocity":89,"channel":5,"program":30},{"beat":462.5,"duration":0.97917,"midi":52,"velocity":80,"channel":3,"program":27},{"beat":462.5,"duration":0.97917,"midi":52,"velocity":88,"channel":6,"program":29},{"beat":462.5,"duration":0.22917,"midi":69,"velocity":77,"channel":13,"program":81},{"beat":462.52083,"duration":0.95833,"midi":52,"velocity":84,"channel":4,"program":29},{"beat":462.52083,"duration":0.95833,"midi":52,"velocity":85,"channel":5,"program":30},{"beat":462.52083,"duration":0.95833,"midi":57,"velocity":80,"channel":3,"program":27},{"beat":462.52083,"duration":0.95833,"midi":57,"velocity":88,"channel":6,"program":29},{"beat":462.52083,"duration":0.95833,"midi":57,"velocity":91,"channel":12,"program":25},{"beat":462.54167,"duration":0.9375,"midi":57,"velocity":90,"channel":4,"program":29},{"beat":462.54167,"duration":0.9375,"midi":57,"velocity":85,"channel":5,"program":30},{"beat":462.54167,"duration":0.9375,"midi":61,"velocity":80,"channel":3,"program":27},{"beat":462.54167,"duration":0.9375,"midi":61,"velocity":86,"channel":12,"program":25},{"beat":463.0,"duration":0.47917,"midi":52,"velocity":90,"channel":1,"program":52},{"beat":463.0,"duration":0.47917,"midi":69,"velocity":89,"channel":7,"program":29},{"beat":463.0,"duration":0.22917,"midi":69,"velocity":86,"channel":13,"program":81},{"beat":463.0,"duration":0.47917,"midi":76,"velocity":101,"channel":0,"program":22},{"beat":463.5,"duration":0.47917,"midi":33,"velocity":90,"channel":2,"program":33},{"beat":463.5,"duration":0.22917,"midi":45,"velocity":82,"channel":4,"program":29},{"beat":463.5,"duration":0.22917,"midi":45,"velocity":86,"channel":5,"program":30},{"beat":463.5,"duration":0.47917,"midi":50,"velocity":88,"channel":1,"program":52},{"beat":463.5,"duration":0.47917,"midi":50,"velocity":87,"channel":6,"program":29},{"beat":463.5,"duration":0.47917,"midi":52,"velocity":76,"channel":3,"program":27},{"beat":463.5,"duration":0.27083,"midi":66,"velocity":89,"channel":7,"program":29},{"beat":463.5,"duration":0.22917,"midi":69,"velocity":75,"channel":13,"program":81},{"beat":463.5,"duration":0.47917,"midi":74,"velocity":99,"channel":0,"program":22},{"beat":463.52083,"duration":0.20833,"midi":52,"velocity":78,"channel":4,"program":29},{"beat":463.52083,"duration":0.20833,"midi":52,"velocity":89,"channel":5,"program":30},{"beat":463.52083,"duration":0.45833,"midi":57,"velocity":78,"channel":3,"program":27},{"beat":463.52083,"duration":0.45833,"midi":57,"velocity":86,"channel":12,"program":25},{"beat":463.52083,"duration":0.45833,"midi":59,"velocity":88,"channel":6,"program":29},{"beat":463.54167,"duration":0.1875,"midi":57,"velocity":77,"channel":4,"program":29},{"beat":463.54167,"duration":0.1875,"midi":57,"velocity":86,"channel":5,"program":30},{"beat":463.54167,"duration":0.4375,"midi":61,"velocity":81,"channel":3,"program":27},{"beat":463.54167,"duration":0.4375,"midi":62,"velocity":89,"channel":12,"program":25},{"beat":463.75,"duration":0.22917,"midi":45,"velocity":82,"channel":4,"program":29},{"beat":463.75,"duration":0.22917,"midi":45,"velocity":86,"channel":5,"program":30},{"beat":463.75,"duration":0.22917,"midi":69,"velocity":80,"channel":7,"program":29},{"beat":463.77083,"duration":0.20833,"midi":52,"velocity":78,"channel":4,"program":29},{"beat":463.77083,"duration":0.20833,"midi":52,"velocity":89,"channel":5,"program":30},{"beat":463.79167,"duration":0.1875,"midi":57,"velocity":77,"channel":4,"program":29},{"beat":463.79167,"duration":0.1875,"midi":57,"velocity":86,"channel":5,"program":30},{"beat":464.0,"duration":0.47917,"midi":35,"velocity":94,"channel":2,"program":33},{"beat":464.0,"duration":0.47917,"midi":47,"velocity":90,"channel":4,"program":29},{"beat":464.0,"duration":0.97917,"midi":47,"velocity":85,"channel":5,"program":30},{"beat":464.0,"duration":0.97917,"midi":50,"velocity":87,"channel":6,"program":29},{"beat":464.0,"duration":0.97917,"midi":54,"velocity":89,"channel":3,"program":27},{"beat":464.0,"duration":0.47917,"midi":57,"velocity":86,"channel":1,"program":52},{"beat":464.0,"duration":0.47917,"midi":62,"velocity":89,"channel":1,"program":52},{"beat":464.0,"duration":0.47917,"midi":66,"velocity":89,"channel":1,"program":52},{"beat":464.0,"duration":0.47917,"midi":69,"velocity":88,"channel":1,"program":52},{"beat":464.0,"duration":0.47917,"midi":69,"velocity":85,"channel":7,"program":29},{"beat":464.0,"duration":0.22917,"midi":69,"velocity":82,"channel":13,"program":81},{"beat":464.0,"duration":3.97917,"midi":74,"velocity":86,"channel":7,"program":51},{"beat":464.0,"duration":0.47917,"midi":81,"velocity":102,"channel":0,"program":22},{"beat":464.0,"duration":3.97917,"midi":86,"velocity":80,"channel":7,"program":51},{"beat":464.02083,"duration":0.45833,"midi":54,"velocity":86,"channel":4,"program":29},{"beat":464.02083,"duration":0.95833,"midi":54,"velocity":88,"channel":5,"program":30},{"beat":464.02083,"duration":0.95833,"midi":57,"velocity":86,"channel":3,"program":27},{"beat":464.02083,"duration":0.95833,"midi":57,"velocity":86,"channel":6,"program":29},{"beat":464.02083,"duration":0.95833,"midi":57,"velocity":93,"channel":12,"program":25},{"beat":464.04167,"duration":0.4375,"midi":57,"velocity":87,"channel":4,"program":29},{"beat":464.04167,"duration":0.4375,"midi":57,"velocity":88,"channel":5,"program":30},{"beat":464.04167,"duration":0.9375,"midi":62,"velocity":86,"channel":3,"program":27},{"beat":464.04167,"duration":0.9375,"midi":62,"velocity":92,"channel":12,"program":25},{"beat":464.5,"duration":0.47917,"midi":35,"velocity":100,"channel":2,"program":33},{"beat":464.5,"duration":0.47917,"midi":47,"velocity":89,"channel":4,"program":29},{"beat":464.5,"duration":0.47917,"midi":57,"velocity":90,"channel":1,"program":52},{"beat":464.5,"duration":0.47917,"midi":62,"velocity":90,"channel":1,"program":52},{"beat":464.5,"duration":0.47917,"midi":66,"velocity":90,"channel":1,"program":52},{"beat":464.5,"duration":0.47917,"midi":69,"velocity":89,"channel":1,"program":52},{"beat":464.5,"duration":0.47917,"midi":69,"velocity":88,"channel":7,"program":29},{"beat":464.5,"duration":0.22917,"midi":69,"velocity":69,"channel":13,"program":81},{"beat":464.5,"duration":0.47917,"midi":81,"velocity":100,"channel":0,"program":22},{"beat":464.52083,"duration":0.45833,"midi":54,"velocity":77,"channel":4,"program":29},{"beat":464.54167,"duration":0.4375,"midi":57,"velocity":83,"channel":4,"program":29},{"beat":464.54167,"duration":0.4375,"midi":57,"velocity":84,"channel":5,"program":30},{"beat":465.0,"duration":0.47917,"midi":35,"velocity":96,"channel":2,"program":33},{"beat":465.0,"duration":0.97917,"midi":47,"velocity":85,"channel":4,"program":29},{"beat":465.0,"duration":0.97917,"midi":47,"velocity":87,"channel":5,"program":30},{"beat":465.0,"duration":0.47917,"midi":50,"velocity":88,"channel":6,"program":29},{"beat":465.0,"duration":0.97917,"midi":54,"velocity":80,"channel":3,"program":27},{"beat":465.0,"duration":0.47917,"midi":57,"velocity":90,"channel":1,"program":52},{"beat":465.0,"duration":0.47917,"midi":62,"velocity":90,"channel":1,"program":52},{"beat":465.0,"duration":0.47917,"midi":66,"velocity":89,"channel":1,"program":52},{"beat":465.0,"duration":0.47917,"midi":69,"velocity":90,"channel":1,"program":52},{"beat":465.0,"duration":0.47917,"midi":69,"velocity":84,"channel":7,"program":29},{"beat":465.0,"duration":0.22917,"midi":69,"velocity":84,"channel":13,"program":81},{"beat":465.0,"duration":0.47917,"midi":81,"velocity":99,"channel":0,"program":22},{"beat":465.02083,"duration":0.95833,"midi":54,"velocity":87,"channel":4,"program":29},{"beat":465.02083,"duration":0.95833,"midi":54,"velocity":84,"channel":5,"program":30},{"beat":465.02083,"duration":0.95833,"midi":57,"velocity":79,"channel":3,"program":27},{"beat":465.02083,"duration":0.95833,"midi":57,"velocity":97,"channel":12,"program":25},{"beat":465.02083,"duration":0.45833,"midi":59,"velocity":88,"channel":6,"program":29},{"beat":465.04167,"duration":0.9375,"midi":57,"velocity":90,"channel":4,"program":29},{"beat":465.04167,"duration":0.9375,"midi":57,"velocity":86,"channel":5,"program":30},{"beat":465.04167,"duration":0.9375,"midi":62,"velocity":76,"channel":3,"program":27},{"beat":465.04167,"duration":0.9375,"midi":64,"velocity":97,"channel":12,"program":25},{"beat":465.5,"duration":0.47917,"midi":35,"velocity":96,"channel":2,"program":33},{"beat":465.5,"duration":0.47917,"midi":50,"velocity":89,"channel":6,"program":29},{"beat":465.5,"duration":0.47917,"midi":57,"velocity":87,"channel":1,"program":52},{"beat":465.5,"duration":0.47917,"midi":62,"velocity":90,"channel":1,"program":52},{"beat":465.5,"duration":0.47917,"midi":66,"velocity":90,"channel":1,"program":52},{"beat":465.5,"duration":0.47917,"midi":66,"velocity":80,"channel":7,"program":29},{"beat":465.5,"duration":0.47917,"midi":69,"velocity":88,"channel":1,"program":52},{"beat":465.5,"duration":0.22917,"midi":69,"velocity":71,"channel":13,"program":81},{"beat":465.5,"duration":0.47917,"midi":81,"velocity":102,"channel":0,"program":22},{"beat":465.52083,"duration":0.45833,"midi":57,"velocity":90,"channel":6,"program":29},{"beat":466.0,"duration":0.97917,"midi":35,"velocity":96,"channel":2,"program":33},{"beat":466.0,"duration":0.47917,"midi":47,"velocity":90,"channel":4,"program":29},{"beat":466.0,"duration":0.47917,"midi":47,"velocity":85,"channel":5,"program":30},{"beat":466.0,"duration":0.97917,"midi":50,"velocity":89,"channel":6,"program":29},{"beat":466.0,"duration":0.47917,"midi":54,"velocity":84,"channel":3,"program":27},{"beat":466.0,"duration":0.47917,"midi":57,"velocity":90,"channel":1,"program":52},{"beat":466.0,"duration":0.47917,"midi":62,"velocity":90,"channel":1,"program":52},{"beat":466.0,"duration":0.47917,"midi":66,"velocity":88,"channel":1,"program":52},{"beat":466.0,"duration":0.47917,"midi":66,"velocity":68,"channel":3,"program":27},{"beat":466.0,"duration":0.47917,"midi":69,"velocity":89,"channel":1,"program":52},{"beat":466.0,"duration":0.47917,"midi":69,"velocity":85,"channel":7,"program":29},{"beat":466.0,"duration":0.22917,"midi":69,"velocity":76,"channel":13,"program":81},{"beat":466.0,"duration":0.47917,"midi":81,"velocity":102,"channel":0,"program":22},{"beat":466.02083,"duration":0.45833,"midi":54,"velocity":89,"channel":4,"program":29},{"beat":466.02083,"duration":0.45833,"midi":54,"velocity":90,"channel":5,"program":30},{"beat":466.02083,"duration":0.45833,"midi":57,"velocity":89,"channel":3,"program":27},{"beat":466.02083,"duration":0.95833,"midi":57,"velocity":84,"channel":6,"program":29},{"beat":466.02083,"duration":0.45833,"midi":57,"velocity":86,"channel":12,"program":25},{"beat":466.04167,"duration":0.4375,"midi":57,"velocity":88,"channel":4,"program":29},{"beat":466.04167,"duration":0.4375,"midi":57,"velocity":87,"channel":5,"program":30},{"beat":466.04167,"duration":0.4375,"midi":62,"velocity":85,"channel":3,"program":27},{"beat":466.04167,"duration":0.4375,"midi":62,"velocity":87,"channel":12,"program":25},{"beat":466.5,"duration":0.97917,"midi":47,"velocity":86,"channel":4,"program":29},{"beat":466.5,"duration":0.97917,"midi":47,"velocity":87,"channel":5,"program":30},{"beat":466.5,"duration":0.97917,"midi":54,"velocity":76,"channel":3,"program":27},{"beat":466.5,"duration":0.47917,"midi":59,"velocity":90,"channel":1,"program":52},{"beat":466.5,"duration":0.47917,"midi":64,"velocity":89,"channel":1,"program":52},{"beat":466.5,"duration":0.47917,"midi":67,"velocity":90,"channel":1,"program":52},{"beat":466.5,"duration":0.22917,"midi":69,"velocity":71,"channel":13,"program":81},{"beat":466.5,"duration":0.47917,"midi":71,"velocity":88,"channel":1,"program":52},{"beat":466.5,"duration":0.47917,"midi":71,"velocity":82,"channel":3,"program":27},{"beat":466.5,"duration":0.27083,"midi":71,"velocity":84,"channel":7,"program":29},{"beat":466.5,"duration":0.47917,"midi":83,"velocity":102,"channel":0,"program":22},{"beat":466.52083,"duration":0.95833,"midi":54,"velocity":88,"channel":4,"program":29},{"beat":466.52083,"duration":0.95833,"midi":54,"velocity":90,"channel":5,"program":30},{"beat":466.52083,"duration":0.95833,"midi":57,"velocity":81,"channel":3,"program":27},{"beat":466.52083,"duration":0.95833,"midi":57,"velocity":87,"channel":12,"program":25},{"beat":466.54167,"duration":0.9375,"midi":57,"velocity":89,"channel":4,"program":29},{"beat":466.54167,"duration":0.9375,"midi":57,"velocity":90,"channel":5,"program":30},{"beat":466.54167,"duration":0.9375,"midi":62,"velocity":77,"channel":3,"program":27},{"beat":466.54167,"duration":0.9375,"midi":62,"velocity":82,"channel":12,"program":25},{"beat":466.75,"duration":0.72917,"midi":69,"velocity":90,"channel":7,"program":29},{"beat":467.0,"duration":0.47917,"midi":28,"velocity":98,"channel":2,"program":33},{"beat":467.0,"duration":0.47917,"midi":50,"velocity":89,"channel":6,"program":29},{"beat":467.0,"duration":0.47917,"midi":57,"velocity":89,"channel":1,"program":52},{"beat":467.0,"duration":0.47917,"midi":62,"velocity":90,"channel":1,"program":52},{"beat":467.0,"duration":0.47917,"midi":66,"velocity":89,"channel":1,"program":52},{"beat":467.0,"duration":0.47917,"midi":69,"velocity":90,"channel":1,"program":52},{"beat":467.0,"duration":0.22917,"midi":69,"velocity":80,"channel":13,"program":81},{"beat":467.0,"duration":0.47917,"midi":81,"velocity":98,"channel":0,"program":22},{"beat":467.02083,"duration":0.45833,"midi":57,"velocity":89,"channel":6,"program":29},{"beat":467.5,"duration":0.47917,"midi":29,"velocity":94,"channel":2,"program":33},{"beat":467.5,"duration":0.47917,"midi":47,"velocity":83,"channel":4,"program":29},{"beat":467.5,"duration":0.47917,"midi":47,"velocity":81,"channel":5,"program":30},{"beat":467.5,"duration":0.47917,"midi":50,"velocity":86,"channel":6,"program":29},{"beat":467.5,"duration":0.47917,"midi":54,"velocity":80,"channel":3,"program":27},{"beat":467.5,"duration":0.47917,"midi":57,"velocity":90,"channel":1,"program":52},{"beat":467.5,"duration":0.47917,"midi":62,"velocity":88,"channel":1,"program":52},{"beat":467.5,"duration":0.47917,"midi":66,"velocity":89,"channel":1,"program":52},{"beat":467.5,"duration":0.47917,"midi":66,"velocity":72,"channel":3,"program":27},{"beat":467.5,"duration":0.27083,"midi":66,"velocity":90,"channel":7,"program":29},{"beat":467.5,"duration":0.47917,"midi":69,"velocity":90,"channel":1,"program":52},{"beat":467.5,"duration":0.22917,"midi":69,"velocity":71,"channel":13,"program":81},{"beat":467.5,"duration":0.47917,"midi":81,"velocity":100,"channel":0,"program":22},{"beat":467.52083,"duration":0.45833,"midi":54,"velocity":83,"channel":4,"program":29},{"beat":467.52083,"duration":0.45833,"midi":54,"velocity":80,"channel":5,"program":30},{"beat":467.52083,"duration":0.45833,"midi":57,"velocity":80,"channel":3,"program":27},{"beat":467.52083,"duration":0.45833,"midi":57,"velocity":84,"channel":6,"program":29},{"beat":467.52083,"duration":0.45833,"midi":57,"velocity":85,"channel":12,"program":25},{"beat":467.54167,"duration":0.4375,"midi":57,"velocity":81,"channel":4,"program":29},{"beat":467.54167,"duration":0.4375,"midi":57,"velocity":77,"channel":5,"program":30},{"beat":467.54167,"duration":0.4375,"midi":62,"velocity":77,"channel":3,"program":27},{"beat":467.54167,"duration":0.4375,"midi":62,"velocity":82,"channel":12,"program":25},{"beat":467.75,"duration":0.22917,"midi":71,"velocity":86,"channel":7,"program":29},{"beat":468.0,"duration":0.47917,"midi":30,"velocity":97,"channel":2,"program":33},{"beat":468.0,"duration":0.47917,"midi":42,"velocity":84,"channel":5,"program":30},{"beat":468.0,"duration":0.97917,"midi":50,"velocity":88,"channel":3,"program":27},{"beat":468.0,"duration":0.47917,"midi":50,"velocity":86,"channel":4,"program":29},{"beat":468.0,"duration":0.97917,"midi":50,"velocity":90,"channel":6,"program":29},{"beat":468.0,"duration":0.47917,"midi":64,"velocity":75,"channel":14,"program":29},{"beat":468.0,"duration":0.22917,"midi":69,"velocity":65,"channel":13,"program":81},{"beat":468.0,"duration":0.72917,"midi":74,"velocity":86,"channel":7,"program":29},{"beat":468.0,"duration":1.97917,"midi":76,"velocity":85,"channel":7,"program":51},{"beat":468.0,"duration":0.47917,"midi":76,"velocity":55,"channel":14,"program":29},{"beat":468.0,"duration":1.97917,"midi":88,"velocity":85,"channel":7,"program":51},{"beat":468.02083,"duration":0.45833,"midi":52,"velocity":90,"channel":5,"program":30},{"beat":468.02083,"duration":0.95833,"midi":54,"velocity":84,"channel":3,"program":27},{"beat":468.02083,"duration":0.45833,"midi":54,"velocity":87,"channel":4,"program":29},{"beat":468.02083,"duration":0.95833,"midi":57,"velocity":87,"channel":6,"program":29},{"beat":468.02083,"duration":0.95833,"midi":57,"velocity":94,"channel":12,"program":25},{"beat":468.02083,"duration":0.95833,"midi":76,"velocity":84,"channel":3,"program":27},{"beat":468.04167,"duration":0.9375,"midi":57,"velocity":85,"channel":3,"program":27},{"beat":468.04167,"duration":0.4375,"midi":57,"velocity":90,"channel":4,"program":29},{"beat":468.04167,"duration":0.4375,"midi":57,"velocity":84,"channel":5,"program":30},{"beat":468.04167,"duration":0.9375,"midi":62,"velocity":94,"channel":12,"program":25},{"beat":468.5,"duration":0.47917,"midi":30,"velocity":98,"channel":2,"program":33},{"beat":468.5,"duration":0.47917,"midi":42,"velocity":86,"channel":5,"program":30},{"beat":468.5,"duration":0.47917,"midi":50,"velocity":89,"channel":1,"program":52},{"beat":468.5,"duration":0.47917,"midi":50,"velocity":83,"channel":4,"program":29},{"beat":468.5,"duration":0.22917,"midi":69,"velocity":70,"channel":13,"program":81},{"beat":468.5,"duration":0.47917,"midi":74,"velocity":99,"channel":0,"program":22},{"beat":468.52083,"duration":0.45833,"midi":52,"velocity":85,"channel":5,"program":30},{"beat":468.52083,"duration":0.45833,"midi":54,"velocity":77,"channel":4,"program":29},{"beat":468.54167,"duration":0.4375,"midi":57,"velocity":81,"channel":4,"program":29},{"beat":468.54167,"duration":0.4375,"midi":57,"velocity":88,"channel":5,"program":30},{"beat":469.0,"duration":0.47917,"midi":30,"velocity":97,"channel":2,"program":33},{"beat":469.0,"duration":0.97917,"midi":42,"velocity":89,"channel":5,"program":30},{"beat":469.0,"duration":0.47917,"midi":50,"velocity":86,"channel":1,"program":52},{"beat":469.0,"duration":0.97917,"midi":50,"velocity":76,"channel":3,"program":27},{"beat":469.0,"duration":0.97917,"midi":50,"velocity":85,"channel":4,"program":29},{"beat":469.0,"duration":0.97917,"midi":50,"velocity":87,"channel":6,"program":29},{"beat":469.0,"duration":0.97917,"midi":64,"velocity":75,"channel":14,"program":29},{"beat":469.0,"duration":0.22917,"midi":69,"velocity":83,"channel":13,"program":81},{"beat":469.0,"duration":0.47917,"midi":74,"velocity":100,"channel":0,"program":22},{"beat":469.0,"duration":0.47917,"midi":74,"velocity":80,"channel":7,"program":29},{"beat":469.0,"duration":0.97917,"midi":76,"velocity":61,"channel":14,"program":29},{"beat":469.02083,"duration":0.95833,"midi":52,"velocity":87,"channel":5,"program":30},{"beat":469.02083,"duration":0.95833,"midi":54,"velocity":80,"channel":3,"program":27},{"beat":469.02083,"duration":0.95833,"midi":54,"velocity":85,"channel":4,"program":29},{"beat":469.02083,"duration":0.95833,"midi":57,"velocity":89,"channel":6,"program":29},{"beat":469.02083,"duration":0.45833,"midi":57,"velocity":92,"channel":12,"program":25},{"beat":469.02083,"duration":0.95833,"midi":76,"velocity":80,"channel":3,"program":27},{"beat":469.04167,"duration":0.9375,"midi":57,"velocity":81,"channel":3,"program":27},{"beat":469.04167,"duration":0.9375,"midi":57,"velocity":84,"channel":4,"program":29},{"beat":469.04167,"duration":0.9375,"midi":57,"velocity":88,"channel":5,"program":30},{"beat":469.04167,"duration":0.4375,"midi":62,"velocity":98,"channel":12,"program":25},{"beat":469.5,"duration":0.47917,"midi":42,"velocity":97,"channel":2,"program":33},{"beat":469.5,"duration":0.47917,"midi":50,"velocity":86,"channel":1,"program":52},{"beat":469.5,"duration":0.22917,"midi":69,"velocity":73,"channel":13,"program":81},{"beat":469.5,"duration":0.47917,"midi":74,"velocity":102,"channel":0,"program":22},{"beat":469.5,"duration":0.47917,"midi":74,"velocity":80,"channel":7,"program":29},{"beat":469.52083,"duration":0.95833,"midi":57,"velocity":83,"channel":12,"program":25},{"beat":469.54167,"duration":0.9375,"midi":62,"velocity":86,"channel":12,"program":25},{"beat":470.0,"duration":0.97917,"midi":42,"velocity":97,"channel":2,"program":33},{"beat":470.0,"duration":0.47917,"midi":42,"velocity":85,"channel":5,"program":30},{"beat":470.0,"duration":0.47917,"midi":50,"velocity":87,"channel":3,"program":27},{"beat":470.0,"duration":0.47917,"midi":50,"velocity":85,"channel":4,"program":29},{"beat":470.0,"duration":0.60417,"midi":54,"velocity":90,"channel":1,"program":52},{"beat":470.0,"duration":0.47917,"midi":66,"velocity":80,"channel":14,"program":29},{"beat":470.0,"duration":0.52083,"midi":69,"velocity":87,"channel":7,"program":29},{"beat":470.0,"duration":0.22917,"midi":69,"velocity":78,"channel":13,"program":81},{"beat":470.0,"duration":0.60417,"midi":78,"velocity":100,"channel":0,"program":22},{"beat":470.0,"duration":1.97917,"midi":78,"velocity":86,"channel":7,"program":51},{"beat":470.0,"duration":0.47917,"midi":78,"velocity":57,"channel":14,"program":29},{"beat":470.0,"duration":1.97917,"midi":90,"velocity":87,"channel":7,"program":51},{"beat":470.02083,"duration":0.45833,"midi":50,"velocity":87,"channel":5,"program":30},{"beat":470.02083,"duration":0.45833,"midi":54,"velocity":89,"channel":3,"program":27},{"beat":470.02083,"duration":0.45833,"midi":54,"velocity":85,"channel":4,"program":29},{"beat":470.02083,"duration":0.45833,"midi":78,"velocity":88,"channel":3,"program":27},{"beat":470.04167,"duration":0.4375,"midi":57,"velocity":89,"channel":3,"program":27},{"beat":470.04167,"duration":0.4375,"midi":57,"velocity":84,"channel":4,"program":29},{"beat":470.5,"duration":0.47917,"midi":42,"velocity":86,"channel":5,"program":30},{"beat":470.5,"duration":0.97917,"midi":50,"velocity":78,"channel":3,"program":27},{"beat":470.5,"duration":0.97917,"midi":50,"velocity":90,"channel":4,"program":29},{"beat":470.5,"duration":0.97917,"midi":50,"velocity":88,"channel":6,"program":29},{"beat":470.5,"duration":0.47917,"midi":66,"velocity":80,"channel":14,"program":29},{"beat":470.5,"duration":0.22917,"midi":69,"velocity":77,"channel":13,"program":81},{"beat":470.5,"duration":0.47917,"midi":74,"velocity":89,"channel":7,"program":29},{"beat":470.5,"duration":0.47917,"midi":78,"velocity":53,"channel":14,"program":29},{"beat":470.52083,"duration":0.45833,"midi":50,"velocity":90,"channel":5,"program":30},{"beat":470.52083,"duration":0.95833,"midi":54,"velocity":79,"channel":3,"program":27},{"beat":470.52083,"duration":0.95833,"midi":54,"velocity":88,"channel":4,"program":29},{"beat":470.52083,"duration":0.95833,"midi":57,"velocity":87,"channel":6,"program":29},{"beat":470.52083,"duration":0.45833,"midi":57,"velocity":87,"channel":12,"program":25},{"beat":470.52083,"duration":0.45833,"midi":78,"velocity":76,"channel":3,"program":27},{"beat":470.54167,"duration":0.9375,"midi":57,"velocity":82,"channel":3,"program":27},{"beat":470.54167,"duration":0.9375,"midi":57,"velocity":84,"channel":4,"program":29},{"beat":470.54167,"duration":0.4375,"midi":57,"velocity":88,"channel":5,"program":30},{"beat":470.54167,"duration":0.4375,"midi":62,"velocity":90,"channel":12,"program":25},{"beat":471.0,"duration":0.97917,"midi":40,"velocity":94,"channel":2,"program":33},{"beat":471.0,"duration":0.97917,"midi":42,"velocity":85,"channel":5,"program":30},{"beat":471.0,"duration":0.47917,"midi":52,"velocity":90,"channel":1,"program":52},{"beat":471.0,"duration":0.97917,"midi":66,"velocity":79,"channel":14,"program":29},{"beat":471.0,"duration":0.22917,"midi":69,"velocity":86,"channel":13,"program":81},{"beat":471.0,"duration":0.47917,"midi":74,"velocity":84,"channel":7,"program":29},{"beat":471.0,"duration":0.47917,"midi":76,"velocity":101,"channel":0,"program":22},{"beat":471.0,"duration":0.97917,"midi":78,"velocity":60,"channel":14,"program":29},{"beat":471.02083,"duration":0.95833,"midi":50,"velocity":86,"channel":5,"program":30},{"beat":471.02083,"duration":0.45833,"midi":57,"velocity":99,"channel":12,"program":25},{"beat":471.02083,"duration":0.95833,"midi":78,"velocity":89,"channel":3,"program":27},{"beat":471.04167,"duration":0.9375,"midi":57,"velocity":88,"channel":5,"program":30},{"beat":471.04167,"duration":0.4375,"midi":62,"velocity":101,"channel":12,"program":25},{"beat":471.5,"duration":0.47917,"midi":50,"velocity":90,"channel":1,"program":52},{"beat":471.5,"duration":0.47917,"midi":50,"velocity":79,"channel":3,"program":27},{"beat":471.5,"duration":0.47917,"midi":50,"velocity":81,"channel":4,"program":29},{"beat":471.5,"duration":0.47917,"midi":50,"velocity":89,"channel":6,"program":29},{"beat":471.5,"duration":0.22917,"midi":69,"velocity":75,"channel":13,"program":81},{"beat":471.5,"duration":0.27083,"midi":71,"velocity":80,"channel":7,"program":29},{"beat":471.5,"duration":0.47917,"midi":74,"velocity":98,"channel":0,"program":22},{"beat":471.52083,"duration":0.45833,"midi":54,"velocity":81,"channel":3,"program":27},{"beat":471.52083,"duration":0.45833,"midi":54,"velocity":80,"channel":4,"program":29},{"beat":471.52083,"duration":0.45833,"midi":57,"velocity":88,"channel":6,"program":29},{"beat":471.52083,"duration":0.45833,"midi":57,"velocity":86,"channel":12,"program":25},{"beat":471.54167,"duration":0.4375,"midi":57,"velocity":82,"channel":3,"program":27},{"beat":471.54167,"duration":0.4375,"midi":57,"velocity":83,"channel":4,"program":29},{"beat":471.54167,"duration":0.4375,"midi":62,"velocity":83,"channel":12,"program":25},{"beat":471.75,"duration":0.27083,"midi":69,"velocity":70,"channel":7,"program":29},{"beat":472.0,"duration":0.47917,"midi":31,"velocity":97,"channel":2,"program":33},{"beat":472.0,"duration":0.97917,"midi":43,"velocity":88,"channel":4,"program":29},{"beat":472.0,"duration":0.47917,"midi":43,"velocity":88,"channel":5,"program":30},{"beat":472.0,"duration":0.97917,"midi":50,"velocity":86,"channel":3,"program":27},{"beat":472.0,"duration":0.97917,"midi":50,"velocity":90,"channel":6,"program":29},{"beat":472.0,"duration":0.47917,"midi":57,"velocity":86,"channel":1,"program":52},{"beat":472.0,"duration":0.47917,"midi":62,"velocity":88,"channel":1,"program":52},{"beat":472.0,"duration":0.47917,"midi":66,"velocity":86,"channel":1,"program":52},{"beat":472.0,"duration":0.47917,"midi":69,"velocity":88,"channel":1,"program":52},{"beat":472.0,"duration":0.22917,"midi":69,"velocity":82,"channel":13,"program":81},{"beat":472.0,"duration":3.97917,"midi":74,"velocity":86,"channel":7,"program":51},{"beat":472.0,"duration":0.47917,"midi":81,"velocity":102,"channel":0,"program":22},{"beat":472.0,"duration":3.97917,"midi":86,"velocity":76,"channel":7,"program":51},{"beat":472.02083,"duration":0.95833,"midi":50,"velocity":89,"channel":4,"program":29},{"beat":472.02083,"duration":0.45833,"midi":50,"velocity":85,"channel":5,"program":30},{"beat":472.02083,"duration":0.45833,"midi":57,"velocity":85,"channel":3,"program":27},{"beat":472.02083,"duration":0.95833,"midi":57,"velocity":84,"channel":6,"program":29},{"beat":472.02083,"duration":0.95833,"midi":57,"velocity":92,"channel":12,"program":25},{"beat":472.04167,"duration":0.9375,"midi":55,"velocity":87,"channel":4,"program":29},{"beat":472.04167,"duration":0.4375,"midi":57,"velocity":88,"channel":5,"program":30},{"beat":472.04167,"duration":0.9375,"midi":62,"velocity":87,"channel":3,"program":27},{"beat":472.04167,"duration":0.9375,"midi":62,"velocity":95,"channel":12,"program":25},{"beat":472.5,"duration":0.47917,"midi":31,"velocity":94,"channel":2,"program":33},{"beat":472.5,"duration":0.47917,"midi":43,"velocity":87,"channel":5,"program":30},{"beat":472.5,"duration":0.47917,"midi":57,"velocity":90,"channel":1,"program":52},{"beat":472.5,"duration":0.47917,"midi":62,"velocity":90,"channel":1,"program":52},{"beat":472.5,"duration":0.47917,"midi":66,"velocity":90,"channel":1,"program":52},{"beat":472.5,"duration":0.47917,"midi":69,"velocity":89,"channel":1,"program":52},{"beat":472.5,"duration":0.47917,"midi":69,"velocity":89,"channel":7,"program":29},{"beat":472.5,"duration":0.22917,"midi":69,"velocity":69,"channel":13,"program":81},{"beat":472.5,"duration":0.47917,"midi":81,"velocity":102,"channel":0,"program":22},{"beat":472.52083,"duration":0.45833,"midi":50,"velocity":85,"channel":5,"program":30},{"beat":472.52083,"duration":0.45833,"midi":55,"velocity":82,"channel":3,"program":27},{"beat":472.54167,"duration":0.4375,"midi":55,"velocity":89,"channel":5,"program":30},{"beat":473.0,"duration":0.47917,"midi":31,"velocity":100,"channel":2,"program":33},{"beat":473.0,"duration":0.47917,"midi":43,"velocity":87,"channel":4,"program":29},{"beat":473.0,"duration":0.47917,"midi":43,"velocity":89,"channel":5,"program":30},{"beat":473.0,"duration":0.47917,"midi":50,"velocity":81,"channel":3,"program":27},{"beat":473.0,"duration":0.47917,"midi":50,"velocity":84,"channel":6,"program":29},{"beat":473.0,"duration":0.47917,"midi":57,"velocity":90,"channel":1,"program":52},{"beat":473.0,"duration":0.47917,"midi":62,"velocity":89,"channel":1,"program":52},{"beat":473.0,"duration":0.47917,"midi":66,"velocity":89,"channel":1,"program":52},{"beat":473.0,"duration":0.47917,"midi":69,"velocity":90,"channel":1,"program":52},{"beat":473.0,"duration":0.47917,"midi":69,"velocity":89,"channel":7,"program":29},{"beat":473.0,"duration":0.22917,"midi":69,"velocity":84,"channel":13,"program":81},{"beat":473.0,"duration":0.47917,"midi":81,"velocity":99,"channel":0,"program":22},{"beat":473.02083,"duration":0.45833,"midi":50,"velocity":81,"channel":4,"program":29},{"beat":473.02083,"duration":0.45833,"midi":50,"velocity":85,"channel":5,"program":30},{"beat":473.02083,"duration":0.45833,"midi":54,"velocity":76,"channel":3,"program":27},{"beat":473.02083,"duration":0.45833,"midi":57,"velocity":84,"channel":6,"program":29},{"beat":473.02083,"duration":0.45833,"midi":57,"velocity":95,"channel":12,"program":25},{"beat":473.04167,"duration":0.4375,"midi":54,"velocity":86,"channel":5,"program":30},{"beat":473.04167,"duration":0.4375,"midi":55,"velocity":79,"channel":4,"program":29},{"beat":473.04167,"duration":1.4375,"midi":62,"velocity":79,"channel":3,"program":27},{"beat":473.04167,"duration":0.4375,"midi":62,"velocity":96,"channel":12,"program":25},{"beat":473.5,"duration":0.47917,"midi":38,"velocity":94,"channel":2,"program":33},{"beat":473.5,"duration":0.97917,"midi":43,"velocity":87,"channel":4,"program":29},{"beat":473.5,"duration":0.97917,"midi":43,"velocity":88,"channel":5,"program":30},{"beat":473.5,"duration":0.97917,"midi":50,"velocity":78,"channel":3,"program":27},{"beat":473.5,"duration":0.47917,"midi":50,"velocity":84,"channel":6,"program":29},{"beat":473.5,"duration":0.47917,"midi":57,"velocity":90,"channel":1,"program":52},{"beat":473.5,"duration":0.47917,"midi":62,"velocity":90,"channel":1,"program":52},{"beat":473.5,"duration":0.47917,"midi":66,"velocity":87,"channel":1,"program":52},{"beat":473.5,"duration":0.47917,"midi":69,"velocity":89,"channel":1,"program":52},{"beat":473.5,"duration":0.47917,"midi":69,"velocity":85,"channel":7,"program":29},{"beat":473.5,"duration":0.22917,"midi":69,"velocity":71,"channel":13,"program":81},{"beat":473.5,"duration":0.47917,"midi":81,"velocity":101,"channel":0,"program":22},{"beat":473.52083,"duration":0.95833,"midi":50,"velocity":86,"channel":4,"program":29},{"beat":473.52083,"duration":0.95833,"midi":50,"velocity":84,"channel":5,"program":30},{"beat":473.52083,"duration":0.70833,"midi":55,"velocity":80,"channel":3,"program":27},{"beat":473.52083,"duration":0.45833,"midi":57,"velocity":87,"channel":6,"program":29},{"beat":473.52083,"duration":0.95833,"midi":57,"velocity":82,"channel":12,"program":25},{"beat":473.54167,"duration":0.9375,"midi":55,"velocity":85,"channel":4,"program":29},{"beat":473.54167,"duration":0.9375,"midi":55,"velocity":90,"channel":5,"program":30},{"beat":473.54167,"duration":0.9375,"midi":62,"velocity":81,"channel":12,"program":25},{"beat":474.0,"duration":0.47917,"midi":43,"velocity":99,"channel":2,"program":33},{"beat":474.0,"duration":0.47917,"midi":50,"velocity":85,"channel":6,"program":29},{"beat":474.0,"duration":0.47917,"midi":57,"velocity":86,"channel":1,"program":52},{"beat":474.0,"duration":0.47917,"midi":62,"velocity":90,"channel":1,"program":52},{"beat":474.0,"duration":0.47917,"midi":66,"velocity":90,"channel":1,"program":52},{"beat":474.0,"duration":0.47917,"midi":69,"velocity":88,"channel":1,"program":52},{"beat":474.0,"duration":0.47917,"midi":69,"velocity":86,"channel":7,"program":29},{"beat":474.0,"duration":0.22917,"midi":69,"velocity":76,"channel":13,"program":81},{"beat":474.0,"duration":0.47917,"midi":81,"velocity":101,"channel":0,"program":22},{"beat":474.02083,"duration":0.45833,"midi":57,"velocity":90,"channel":6,"program":29},{"beat":474.5,"duration":0.47917,"midi":43,"velocity":90,"channel":2,"program":33},{"beat":474.5,"duration":0.97917,"midi":43,"velocity":87,"channel":4,"program":29},{"beat":474.5,"duration":0.47917,"midi":43,"velocity":85,"channel":5,"program":30},{"beat":474.5,"duration":0.47917,"midi":50,"velocity":77,"channel":3,"program":27},{"beat":474.5,"duration":0.47917,"midi":50,"velocity":90,"channel":6,"program":29},{"beat":474.5,"duration":0.47917,"midi":59,"velocity":89,"channel":1,"program":52},{"beat":474.5,"duration":0.47917,"midi":64,"velocity":89,"channel":1,"program":52},{"beat":474.5,"duration":0.47917,"midi":67,"velocity":89,"channel":1,"program":52},{"beat":474.5,"duration":0.22917,"midi":69,"velocity":71,"channel":13,"program":81},{"beat":474.5,"duration":0.47917,"midi":71,"velocity":90,"channel":1,"program":52},{"beat":474.5,"duration":0.22917,"midi":71,"velocity":85,"channel":7,"program":29},{"beat":474.5,"duration":0.47917,"midi":83,"velocity":98,"channel":0,"program":22},{"beat":474.52083,"duration":0.95833,"midi":50,"velocity":85,"channel":4,"program":29},{"beat":474.52083,"duration":0.45833,"midi":50,"velocity":78,"channel":5,"program":30},{"beat":474.52083,"duration":0.45833,"midi":57,"velocity":76,"channel":3,"program":27},{"beat":474.52083,"duration":0.45833,"midi":57,"velocity":90,"channel":6,"program":29},{"beat":474.52083,"duration":0.95833,"midi":57,"velocity":84,"channel":12,"program":25},{"beat":474.54167,"duration":0.9375,"midi":55,"velocity":89,"channel":4,"program":29},{"beat":474.54167,"duration":0.4375,"midi":55,"velocity":78,"channel":5,"program":30},{"beat":474.54167,"duration":0.4375,"midi":62,"velocity":82,"channel":3,"program":27},{"beat":474.54167,"duration":0.9375,"midi":62,"velocity":85,"channel":12,"program":25},{"beat":474.75,"duration":0.72917,"midi":69,"velocity":89,"channel":7,"program":29},{"beat":475.0,"duration":0.47917,"midi":43,"velocity":94,"channel":2,"program":33},{"beat":475.0,"duration":0.97917,"midi":43,"velocity":86,"channel":5,"program":30},{"beat":475.0,"duration":0.97917,"midi":50,"velocity":78,"channel":3,"program":27},{"beat":475.0,"duration":0.97917,"midi":50,"velocity":89,"channel":6,"program":29},{"beat":475.0,"duration":0.47917,"midi":57,"velocity":88,"channel":1,"program":52},{"beat":475.0,"duration":0.47917,"midi":62,"velocity":87,"channel":1,"program":52},{"beat":475.0,"duration":0.47917,"midi":66,"velocity":89,"channel":1,"program":52},{"beat":475.0,"duration":0.47917,"midi":69,"velocity":89,"channel":1,"program":52},{"beat":475.0,"duration":0.22917,"midi":69,"velocity":80,"channel":13,"program":81},{"beat":475.0,"duration":0.47917,"midi":81,"velocity":100,"channel":0,"program":22},{"beat":475.02083,"duration":0.95833,"midi":50,"velocity":88,"channel":5,"program":30},{"beat":475.02083,"duration":0.95833,"midi":55,"velocity":78,"channel":3,"program":27},{"beat":475.02083,"duration":0.95833,"midi":57,"velocity":84,"channel":6,"program":29},{"beat":475.04167,"duration":0.9375,"midi":55,"velocity":85,"channel":5,"program":30},{"beat":475.04167,"duration":0.9375,"midi":62,"velocity":82,"channel":3,"program":27},{"beat":475.5,"duration":0.47917,"midi":43,"velocity":89,"channel":2,"program":33},{"beat":475.5,"duration":0.47917,"midi":43,"velocity":80,"channel":4,"program":29},{"beat":475.5,"duration":0.47917,"midi":57,"velocity":87,"channel":1,"program":52},{"beat":475.5,"duration":0.47917,"midi":62,"velocity":88,"channel":1,"program":52},{"beat":475.5,"duration":0.47917,"midi":62,"velocity":77,"channel":7,"program":29},{"beat":475.5,"duration":0.47917,"midi":66,"velocity":90,"channel":1,"program":52},{"beat":475.5,"duration":0.47917,"midi":69,"velocity":88,"channel":1,"program":52},{"beat":475.5,"duration":0.22917,"midi":69,"velocity":71,"channel":13,"program":81},{"beat":475.5,"duration":0.47917,"midi":81,"velocity":100,"channel":0,"program":22},{"beat":475.52083,"duration":0.45833,"midi":50,"velocity":79,"channel":4,"program":29},{"beat":475.52083,"duration":0.45833,"midi":57,"velocity":84,"channel":12,"program":25},{"beat":475.54167,"duration":0.4375,"midi":55,"velocity":83,"channel":4,"program":29},{"beat":475.54167,"duration":0.4375,"midi":62,"velocity":81,"channel":12,"program":25},{"beat":476.0,"duration":0.97917,"midi":33,"velocity":94,"channel":2,"program":33},{"beat":476.0,"duration":0.97917,"midi":45,"velocity":90,"channel":4,"program":29},{"beat":476.0,"duration":0.97917,"midi":45,"velocity":84,"channel":5,"program":30},{"beat":476.0,"duration":0.97917,"midi":52,"velocity":88,"channel":3,"program":27},{"beat":476.0,"duration":0.97917,"midi":52,"velocity":71,"channel":6,"program":29},{"beat":476.0,"duration":0.52083,"midi":69,"velocity":85,"channel":7,"program":29},{"beat":476.0,"duration":0.22917,"midi":69,"velocity":65,"channel":13,"program":81},{"beat":476.0,"duration":3.97917,"midi":73,"velocity":87,"channel":7,"program":51},{"beat":476.0,"duration":3.97917,"midi":85,"velocity":77,"channel":7,"program":51},{"beat":476.02083,"duration":0.95833,"midi":52,"velocity":88,"channel":4,"program":29},{"beat":476.02083,"duration":0.95833,"midi":52,"velocity":85,"channel":5,"program":30},{"beat":476.02083,"duration":0.95833,"midi":57,"velocity":88,"channel":3,"program":27},{"beat":476.02083,"duration":0.95833,"midi":57,"velocity":97,"channel":12,"program":25},{"beat":476.02083,"duration":0.95833,"midi":61,"velocity":69,"channel":6,"program":29},{"beat":476.04167,"duration":0.9375,"midi":57,"velocity":84,"channel":4,"program":29},{"beat":476.04167,"duration":0.9375,"midi":57,"velocity":88,"channel":5,"program":30},{"beat":476.04167,"duration":0.9375,"midi":61,"velocity":87,"channel":3,"program":27},{"beat":476.04167,"duration":0.9375,"midi":61,"velocity":96,"channel":12,"program":25},{"beat":476.5,"duration":0.9375,"midi":50,"velocity":87,"channel":1,"program":52},{"beat":476.5,"duration":0.22917,"midi":69,"velocity":70,"channel":13,"program":81},{"beat":476.5,"duration":0.9375,"midi":74,"velocity":102,"channel":0,"program":22},{"beat":476.5,"duration":0.52083,"midi":74,"velocity":86,"channel":7,"program":29},{"beat":477.0,"duration":0.97917,"midi":33,"velocity":100,"channel":2,"program":33},{"beat":477.0,"duration":0.47917,"midi":45,"velocity":85,"channel":4,"program":29},{"beat":477.0,"duration":0.47917,"midi":45,"velocity":87,"channel":5,"program":30},{"beat":477.0,"duration":1.47917,"midi":52,"velocity":84,"channel":3,"program":27},{"beat":477.0,"duration":0.97917,"midi":57,"velocity":77,"channel":6,"program":29},{"beat":477.0,"duration":0.22917,"midi":69,"velocity":83,"channel":13,"program":81},{"beat":477.02083,"duration":0.45833,"midi":52,"velocity":81,"channel":4,"program":29},{"beat":477.02083,"duration":0.45833,"midi":52,"velocity":85,"channel":5,"program":30},{"beat":477.02083,"duration":1.45833,"midi":57,"velocity":86,"channel":3,"program":27},{"beat":477.02083,"duration":0.45833,"midi":57,"velocity":96,"channel":12,"program":25},{"beat":477.02083,"duration":0.95833,"midi":61,"velocity":57,"channel":6,"program":29},{"beat":477.04167,"duration":0.4375,"midi":57,"velocity":80,"channel":4,"program":29},{"beat":477.04167,"duration":0.4375,"midi":57,"velocity":80,"channel":5,"program":30},{"beat":477.04167,"duration":1.4375,"midi":61,"velocity":85,"channel":3,"program":27},{"beat":477.04167,"duration":0.4375,"midi":61,"velocity":91,"channel":12,"program":25},{"beat":477.5,"duration":0.97917,"midi":45,"velocity":86,"channel":4,"program":29},{"beat":477.5,"duration":0.97917,"midi":45,"velocity":87,"channel":5,"program":30},{"beat":477.5,"duration":0.47917,"midi":50,"velocity":88,"channel":1,"program":52},{"beat":477.5,"duration":0.22917,"midi":69,"velocity":73,"channel":13,"program":81},{"beat":477.5,"duration":0.47917,"midi":74,"velocity":102,"channel":0,"program":22},{"beat":477.5,"duration":0.52083,"midi":79,"velocity":85,"channel":7,"program":29},{"beat":477.52083,"duration":0.95833,"midi":52,"velocity":87,"channel":4,"program":29},{"beat":477.52083,"duration":0.95833,"midi":52,"velocity":90,"channel":5,"program":30},{"beat":477.52083,"duration":0.95833,"midi":57,"velocity":86,"channel":12,"program":25},{"beat":477.54167,"duration":0.9375,"midi":57,"velocity":88,"channel":4,"program":29},{"beat":477.54167,"duration":0.9375,"midi":57,"velocity":89,"channel":5,"program":30},{"beat":477.54167,"duration":0.9375,"midi":61,"velocity":85,"channel":12,"program":25},{"beat":478.0,"duration":0.47917,"midi":45,"velocity":92,"channel":2,"program":33},{"beat":478.0,"duration":0.47917,"midi":52,"velocity":72,"channel":6,"program":29},{"beat":478.0,"duration":0.47917,"midi":54,"velocity":88,"channel":1,"program":52},{"beat":478.0,"duration":0.22917,"midi":69,"velocity":78,"channel":13,"program":81},{"beat":478.0,"duration":0.47917,"midi":78,"velocity":101,"channel":0,"program":22},{"beat":478.0,"duration":0.52083,"midi":78,"velocity":86,"channel":7,"program":29},{"beat":478.02083,"duration":0.45833,"midi":61,"velocity":54,"channel":6,"program":29},{"beat":478.5,"duration":0.47917,"midi":45,"velocity":93,"channel":2,"program":33},{"beat":478.5,"duration":0.97917,"midi":45,"velocity":85,"channel":4,"program":29},{"beat":478.5,"duration":0.47917,"midi":45,"velocity":87,"channel":5,"program":30},{"beat":478.5,"duration":0.47917,"midi":52,"velocity":87,"channel":1,"program":52},{"beat":478.5,"duration":0.47917,"midi":52,"velocity":78,"channel":3,"program":27},{"beat":478.5,"duration":0.47917,"midi":57,"velocity":79,"channel":6,"program":29},{"beat":478.5,"duration":0.22917,"midi":69,"velocity":77,"channel":13,"program":81},{"beat":478.5,"duration":0.47917,"midi":73,"velocity":80,"channel":7,"program":29},{"beat":478.5,"duration":0.47917,"midi":76,"velocity":99,"channel":0,"program":22},{"beat":478.52083,"duration":0.95833,"midi":52,"velocity":85,"channel":4,"program":29},{"beat":478.52083,"duration":0.45833,"midi":52,"velocity":89,"channel":5,"program":30},{"beat":478.52083,"duration":0.45833,"midi":57,"velocity":79,"channel":3,"program":27},{"beat":478.52083,"duration":0.95833,"midi":57,"velocity":86,"channel":12,"program":25},{"beat":478.52083,"duration":0.45833,"midi":61,"velocity":54,"channel":6,"program":29},{"beat":478.54167,"duration":0.9375,"midi":57,"velocity":85,"channel":4,"program":29},{"beat":478.54167,"duration":0.4375,"midi":57,"velocity":80,"channel":5,"program":30},{"beat":478.54167,"duration":0.4375,"midi":61,"velocity":81,"channel":3,"program":27},{"beat":478.54167,"duration":0.9375,"midi":61,"velocity":89,"channel":12,"program":25},{"beat":479.0,"duration":0.97917,"midi":45,"velocity":90,"channel":2,"program":33},{"beat":479.0,"duration":0.97917,"midi":45,"velocity":87,"channel":5,"program":30},{"beat":479.0,"duration":0.47917,"midi":50,"velocity":90,"channel":1,"program":52},{"beat":479.0,"duration":0.97917,"midi":52,"velocity":78,"channel":3,"program":27},{"beat":479.0,"duration":0.97917,"midi":57,"velocity":79,"channel":6,"program":29},{"beat":479.0,"duration":0.22917,"midi":69,"velocity":86,"channel":13,"program":81},{"beat":479.0,"duration":0.47917,"midi":73,"velocity":84,"channel":7,"program":29},{"beat":479.0,"duration":0.47917,"midi":74,"velocity":100,"channel":0,"program":22},{"beat":479.02083,"duration":0.95833,"midi":52,"velocity":85,"channel":5,"program":30},{"beat":479.02083,"duration":0.95833,"midi":57,"velocity":82,"channel":3,"program":27},{"beat":479.02083,"duration":0.95833,"midi":61,"velocity":58,"channel":6,"program":29},{"beat":479.04167,"duration":0.9375,"midi":57,"velocity":84,"channel":5,"program":30},{"beat":479.04167,"duration":0.9375,"midi":61,"velocity":79,"channel":3,"program":27},{"beat":479.5,"duration":0.47917,"midi":45,"velocity":77,"channel":4,"program":29},{"beat":479.5,"duration":0.47917,"midi":47,"velocity":89,"channel":1,"program":52},{"beat":479.5,"duration":0.22917,"midi":69,"velocity":75,"channel":13,"program":81},{"beat":479.5,"duration":0.47917,"midi":71,"velocity":101,"channel":0,"program":22},{"beat":479.5,"duration":0.27083,"midi":73,"velocity":87,"channel":7,"program":29},{"beat":479.52083,"duration":0.45833,"midi":52,"velocity":80,"channel":4,"program":29},{"beat":479.52083,"duration":0.20833,"midi":57,"velocity":90,"channel":12,"program":25},{"beat":479.54167,"duration":0.4375,"midi":57,"velocity":80,"channel":4,"program":29},{"beat":479.54167,"duration":0.1875,"midi":61,"velocity":87,"channel":12,"program":25},{"beat":479.75,"duration":0.22917,"midi":74,"velocity":80,"channel":7,"program":29},{"beat":479.77083,"duration":0.20833,"midi":57,"velocity":87,"channel":12,"program":25},{"beat":479.79167,"duration":0.1875,"midi":61,"velocity":87,"channel":12,"program":25},{"beat":480.0,"duration":0.47917,"midi":38,"velocity":97,"channel":2,"program":33},{"beat":480.0,"duration":1.97917,"midi":50,"velocity":89,"channel":1,"program":52},{"beat":480.0,"duration":0.97917,"midi":50,"velocity":88,"channel":3,"program":27},{"beat":480.0,"duration":0.97917,"midi":50,"velocity":87,"channel":4,"program":29},{"beat":480.0,"duration":0.97917,"midi":50,"velocity":86,"channel":5,"program":30},{"beat":480.0,"duration":0.97917,"midi":50,"velocity":72,"channel":6,"program":29},{"beat":480.0,"duration":0.22917,"midi":69,"velocity":82,"channel":13,"program":81},{"beat":480.0,"duration":1.97917,"midi":74,"velocity":100,"channel":0,"program":22},{"beat":480.0,"duration":0.97917,"midi":74,"velocity":84,"channel":7,"program":29},{"beat":480.0,"duration":3.97917,"midi":74,"velocity":80,"channel":7,"program":51},{"beat":480.0,"duration":3.97917,"midi":86,"velocity":70,"channel":7,"program":51},{"beat":480.02083,"duration":0.95833,"midi":57,"velocity":85,"channel":3,"program":27},{"beat":480.02083,"duration":0.95833,"midi":57,"velocity":89,"channel":4,"program":29},{"beat":480.02083,"duration":0.95833,"midi":57,"velocity":84,"channel":5,"program":30},{"beat":480.02083,"duration":0.95833,"midi":57,"velocity":88,"channel":6,"program":29},{"beat":480.02083,"duration":0.95833,"midi":57,"velocity":95,"channel":12,"program":25},{"beat":480.04167,"duration":0.9375,"midi":62,"velocity":89,"channel":3,"program":27},{"beat":480.04167,"duration":0.9375,"midi":62,"velocity":80,"channel":5,"program":30},{"beat":480.04167,"duration":0.9375,"midi":62,"velocity":96,"channel":12,"program":25},{"beat":480.5,"duration":0.47917,"midi":38,"velocity":94,"channel":2,"program":33},{"beat":480.5,"duration":0.22917,"midi":69,"velocity":69,"channel":13,"program":81},{"beat":481.0,"duration":0.47917,"midi":38,"velocity":97,"channel":2,"program":33},{"beat":481.0,"duration":0.97917,"midi":50,"velocity":87,"channel":3,"program":27},{"beat":481.0,"duration":0.47917,"midi":50,"velocity":86,"channel":4,"program":29},{"beat":481.0,"duration":0.47917,"midi":50,"velocity":85,"channel":5,"program":30},{"beat":481.0,"duration":0.47917,"midi":50,"velocity":90,"channel":6,"program":29},{"beat":481.0,"duration":0.22917,"midi":69,"velocity":84,"channel":13,"program":81},{"beat":481.02083,"duration":0.95833,"midi":57,"velocity":90,"channel":3,"program":27},{"beat":481.02083,"duration":0.45833,"midi":57,"velocity":88,"channel":4,"program":29},{"beat":481.02083,"duration":0.45833,"midi":57,"velocity":87,"channel":5,"program":30},{"beat":481.02083,"duration":0.45833,"midi":57,"velocity":87,"channel":6,"program":29},{"beat":481.02083,"duration":0.45833,"midi":57,"velocity":91,"channel":12,"program":25},{"beat":481.04167,"duration":0.4375,"midi":62,"velocity":77,"channel":5,"program":30},{"beat":481.04167,"duration":0.4375,"midi":62,"velocity":84,"channel":6,"program":29},{"beat":481.04167,"duration":0.4375,"midi":64,"velocity":75,"channel":3,"program":27},{"beat":481.04167,"duration":0.4375,"midi":64,"velocity":94,"channel":12,"program":25},{"beat":481.5,"duration":0.47917,"midi":38,"velocity":97,"channel":2,"program":33},{"beat":481.5,"duration":0.47917,"midi":50,"velocity":80,"channel":4,"program":29},{"beat":481.5,"duration":0.47917,"midi":50,"velocity":88,"channel":5,"program":30},{"beat":481.5,"duration":0.97917,"midi":50,"velocity":85,"channel":6,"program":29},{"beat":481.5,"duration":0.22917,"midi":69,"velocity":71,"channel":13,"program":81},{"beat":481.52083,"duration":0.45833,"midi":57,"velocity":80,"channel":4,"program":29},{"beat":481.52083,"duration":0.45833,"midi":57,"velocity":81,"channel":5,"program":30},{"beat":481.52083,"duration":0.95833,"midi":57,"velocity":85,"channel":6,"program":29},{"beat":481.52083,"duration":0.45833,"midi":57,"velocity":82,"channel":12,"program":25},{"beat":481.54167,"duration":0.4375,"midi":62,"velocity":88,"channel":3,"program":27},{"beat":481.54167,"duration":0.4375,"midi":62,"velocity":81,"channel":5,"program":30},{"beat":481.54167,"duration":0.4375,"midi":62,"velocity":87,"channel":6,"program":29},{"beat":481.54167,"duration":0.4375,"midi":62,"velocity":84,"channel":12,"program":25},{"beat":482.0,"duration":0.47917,"midi":38,"velocity":95,"channel":2,"program":33},{"beat":482.0,"duration":0.47917,"midi":50,"velocity":89,"channel":3,"program":27},{"beat":482.0,"duration":0.47917,"midi":50,"velocity":90,"channel":4,"program":29},{"beat":482.0,"duration":0.47917,"midi":50,"velocity":88,"channel":5,"program":30},{"beat":482.0,"duration":0.52083,"midi":69,"velocity":65,"channel":7,"program":29},{"beat":482.0,"duration":0.22917,"midi":69,"velocity":76,"channel":13,"program":81},{"beat":482.02083,"duration":0.45833,"midi":57,"velocity":86,"channel":3,"program":27},{"beat":482.02083,"duration":0.45833,"midi":57,"velocity":86,"channel":4,"program":29},{"beat":482.02083,"duration":0.45833,"midi":57,"velocity":89,"channel":5,"program":30},{"beat":482.02083,"duration":0.45833,"midi":57,"velocity":89,"channel":12,"program":25},{"beat":482.04167,"duration":0.4375,"midi":62,"velocity":90,"channel":3,"program":27},{"beat":482.04167,"duration":0.4375,"midi":62,"velocity":81,"channel":5,"program":30},{"beat":482.04167,"duration":0.4375,"midi":62,"velocity":88,"channel":12,"program":25},{"beat":482.5,"duration":0.47917,"midi":50,"velocity":91,"channel":2,"program":33},{"beat":482.5,"duration":0.97917,"midi":50,"velocity":90,"channel":3,"program":27},{"beat":482.5,"duration":0.97917,"midi":50,"velocity":89,"channel":4,"program":29},{"beat":482.5,"duration":0.97917,"midi":50,"velocity":85,"channel":5,"program":30},{"beat":482.5,"duration":0.47917,"midi":50,"velocity":89,"channel":6,"program":29},{"beat":482.5,"duration":0.22917,"midi":69,"velocity":71,"channel":13,"program":81},{"beat":482.5,"duration":0.47917,"midi":74,"velocity":77,"channel":7,"program":29},{"beat":482.52083,"duration":0.95833,"midi":57,"velocity":84,"channel":3,"program":27},{"beat":482.52083,"duration":0.95833,"midi":57,"velocity":85,"channel":4,"program":29},{"beat":482.52083,"duration":0.95833,"midi":57,"velocity":89,"channel":5,"program":30},{"beat":482.52083,"duration":0.45833,"midi":57,"velocity":84,"channel":6,"program":29},{"beat":482.52083,"duration":0.95833,"midi":57,"velocity":81,"channel":12,"program":25},{"beat":482.54167,"duration":0.9375,"midi":62,"velocity":82,"channel":5,"program":30},{"beat":482.54167,"duration":1.4375,"midi":62,"velocity":89,"channel":6,"program":29},{"beat":482.54167,"duration":0.9375,"midi":62,"velocity":85,"channel":12,"program":25},{"beat":482.54167,"duration":1.4375,"midi":64,"velocity":89,"channel":3,"program":27},{"beat":483.0,"duration":0.97917,"midi":40,"velocity":80,"channel":2,"program":33},{"beat":483.0,"duration":0.47917,"midi":50,"velocity":88,"channel":6,"program":29},{"beat":483.0,"duration":0.89583,"midi":62,"velocity":87,"channel":1,"program":52},{"beat":483.0,"duration":0.22917,"midi":69,"velocity":80,"channel":13,"program":81},{"beat":483.0,"duration":0.89583,"midi":78,"velocity":102,"channel":0,"program":22},{"beat":483.02083,"duration":0.95833,"midi":57,"velocity":86,"channel":6,"program":29},{"beat":483.5,"duration":0.47917,"midi":50,"velocity":87,"channel":3,"program":27},{"beat":483.5,"duration":0.47917,"midi":50,"velocity":78,"channel":4,"program":29},{"beat":483.5,"duration":0.47917,"midi":50,"velocity":90,"channel":5,"program":30},{"beat":483.5,"duration":0.22917,"midi":50,"velocity":88,"channel":6,"program":29},{"beat":483.5,"duration":0.22917,"midi":69,"velocity":71,"channel":13,"program":81},{"beat":483.5,"duration":1.47917,"midi":81,"velocity":80,"channel":7,"program":29},{"beat":483.52083,"duration":0.45833,"midi":57,"velocity":85,"channel":3,"program":27},{"beat":483.52083,"duration":0.45833,"midi":57,"velocity":78,"channel":4,"program":29},{"beat":483.52083,"duration":0.45833,"midi":57,"velocity":78,"channel":5,"program":30},{"beat":483.52083,"duration":0.20833,"midi":57,"velocity":83,"channel":12,"program":25},{"beat":483.54167,"duration":0.4375,"midi":62,"velocity":80,"channel":5,"program":30},{"beat":483.54167,"duration":0.1875,"midi":62,"velocity":86,"channel":12,"program":25},{"beat":483.75,"duration":0.22917,"midi":50,"velocity":88,"channel":6,"program":29},{"beat":483.77083,"duration":0.20833,"midi":57,"velocity":84,"channel":12,"program":25},{"beat":483.79167,"duration":0.1875,"midi":62,"velocity":81,"channel":12,"program":25},{"beat":484.0,"duration":0.89583,"midi":50,"velocity":85,"channel":2,"program":33},{"beat":484.0,"duration":0.97917,"midi":50,"velocity":89,"channel":3,"program":27},{"beat":484.0,"duration":0.47917,"midi":50,"velocity":89,"channel":4,"program":29},{"beat":484.0,"duration":0.47917,"midi":50,"velocity":86,"channel":5,"program":30},{"beat":484.0,"duration":0.47917,"midi":50,"velocity":79,"channel":6,"program":29},{"beat":484.0,"duration":0.47917,"midi":62,"velocity":88,"channel":1,"program":52},{"beat":484.0,"duration":1.97917,"midi":64,"velocity":74,"channel":7,"program":51},{"beat":484.0,"duration":0.22917,"midi":69,"velocity":65,"channel":13,"program":81},{"beat":484.0,"duration":1.97917,"midi":76,"velocity":86,"channel":7,"program":51},{"beat":484.0,"duration":0.47917,"midi":78,"velocity":102,"channel":0,"program":22},{"beat":484.02083,"duration":0.95833,"midi":57,"velocity":86,"channel":3,"program":27},{"beat":484.02083,"duration":0.45833,"midi":57,"velocity":86,"channel":4,"program":29},{"beat":484.02083,"duration":0.45833,"midi":57,"velocity":84,"channel":5,"program":30},{"beat":484.02083,"duration":1.45833,"midi":57,"velocity":84,"channel":6,"program":29},{"beat":484.02083,"duration":0.95833,"midi":57,"velocity":95,"channel":12,"program":25},{"beat":484.04167,"duration":0.4375,"midi":62,"velocity":78,"channel":5,"program":30},{"beat":484.04167,"duration":0.9375,"midi":62,"velocity":93,"channel":12,"program":25},{"beat":484.04167,"duration":0.9375,"midi":64,"velocity":86,"channel":3,"program":27},{"beat":484.04167,"duration":0.4375,"midi":64,"velocity":86,"channel":6,"program":29},{"beat":484.5,"duration":0.97917,"midi":50,"velocity":86,"channel":4,"program":29},{"beat":484.5,"duration":0.97917,"midi":50,"velocity":90,"channel":5,"program":30},{"beat":484.5,"duration":0.97917,"midi":50,"velocity":77,"channel":6,"program":29},{"beat":484.5,"duration":0.47917,"midi":57,"velocity":90,"channel":1,"program":52},{"beat":484.5,"duration":0.22917,"midi":69,"velocity":70,"channel":13,"program":81},{"beat":484.5,"duration":0.47917,"midi":74,"velocity":99,"channel":0,"program":22},{"beat":484.52083,"duration":0.95833,"midi":57,"velocity":86,"channel":4,"program":29},{"beat":484.52083,"duration":0.95833,"midi":57,"velocity":89,"channel":5,"program":30},{"beat":484.52083,"duration":0.45833,"midi":64,"velocity":86,"channel":6,"program":29},{"beat":484.54167,"duration":0.9375,"midi":62,"velocity":78,"channel":5,"program":30},{"beat":485.0,"duration":0.47917,"midi":50,"velocity":90,"channel":3,"program":27},{"beat":485.0,"duration":0.47917,"midi":54,"velocity":82,"channel":2,"program":33},{"beat":485.0,"duration":0.97917,"midi":57,"velocity":89,"channel":1,"program":52},{"beat":485.0,"duration":0.22917,"midi":69,"velocity":83,"channel":13,"program":81},{"beat":485.0,"duration":0.97917,"midi":74,"velocity":102,"channel":0,"program":22},{"beat":485.0,"duration":0.97917,"midi":81,"velocity":85,"channel":7,"program":29},{"beat":485.02083,"duration":0.45833,"midi":57,"velocity":86,"channel":3,"program":27},{"beat":485.02083,"duration":0.45833,"midi":57,"velocity":92,"channel":12,"program":25},{"beat":485.02083,"duration":0.95833,"midi":64,"velocity":90,"channel":6,"program":29},{"beat":485.04167,"duration":0.4375,"midi":62,"velocity":94,"channel":12,"program":25},{"beat":485.04167,"duration":0.4375,"midi":64,"velocity":88,"channel":3,"program":27},{"beat":485.5,"duration":0.97917,"midi":50,"velocity":84,"channel":2,"program":33},{"beat":485.5,"duration":0.97917,"midi":50,"velocity":84,"channel":3,"program":27},{"beat":485.5,"duration":0.47917,"midi":50,"velocity":77,"channel":4,"program":29},{"beat":485.5,"duration":0.47917,"midi":50,"velocity":89,"channel":5,"program":30},{"beat":485.5,"duration":0.47917,"midi":50,"velocity":89,"channel":6,"program":29},{"beat":485.5,"duration":0.22917,"midi":69,"velocity":73,"channel":13,"program":81},{"beat":485.52083,"duration":0.95833,"midi":57,"velocity":85,"channel":3,"program":27},{"beat":485.52083,"duration":0.45833,"midi":57,"velocity":80,"channel":4,"program":29},{"beat":485.52083,"duration":0.45833,"midi":57,"velocity":80,"channel":5,"program":30},{"beat":485.52083,"duration":0.45833,"midi":57,"velocity":85,"channel":6,"program":29},{"beat":485.52083,"duration":0.45833,"midi":57,"velocity":85,"channel":12,"program":25},{"beat":485.54167,"duration":0.4375,"midi":62,"velocity":76,"channel":5,"program":30},{"beat":485.54167,"duration":0.4375,"midi":62,"velocity":87,"channel":12,"program":25},{"beat":485.54167,"duration":0.4375,"midi":64,"velocity":86,"channel":3,"program":27},{"beat":486.0,"duration":0.47917,"midi":50,"velocity":88,"channel":4,"program":29},{"beat":486.0,"duration":0.47917,"midi":50,"velocity":84,"channel":5,"program":30},{"beat":486.0,"duration":0.47917,"midi":50,"velocity":86,"channel":6,"program":29},{"beat":486.0,"duration":0.85417,"midi":64,"velocity":90,"channel":1,"program":52},{"beat":486.0,"duration":0.85417,"midi":66,"velocity":90,"channel":1,"program":52},{"beat":486.0,"duration":1.97917,"midi":66,"velocity":76,"channel":7,"program":51},{"beat":486.0,"duration":0.22917,"midi":69,"velocity":78,"channel":13,"program":81},{"beat":486.0,"duration":1.97917,"midi":78,"velocity":85,"channel":7,"program":51},{"beat":486.0,"duration":0.47917,"midi":81,"velocity":99,"channel":0,"program":22},{"beat":486.0,"duration":1.5625,"midi":83,"velocity":86,"channel":7,"program":29},{"beat":486.02083,"duration":0.45833,"midi":57,"velocity":87,"channel":5,"program":30},{"beat":486.02083,"duration":0.45833,"midi":57,"velocity":90,"channel":12,"program":25},{"beat":486.02083,"duration":0.29167,"midi":66,"velocity":60,"channel":6,"program":29},{"beat":486.04167,"duration":0.4375,"midi":62,"velocity":79,"channel":5,"program":30},{"beat":486.04167,"duration":0.4375,"midi":62,"velocity":87,"channel":12,"program":25},{"beat":486.5,"duration":0.47917,"midi":50,"velocity":85,"channel":3,"program":27},{"beat":486.5,"duration":0.47917,"midi":50,"velocity":90,"channel":5,"program":30},{"beat":486.5,"duration":0.97917,"midi":50,"velocity":87,"channel":6,"program":29},{"beat":486.5,"duration":0.47917,"midi":52,"velocity":90,"channel":4,"program":29},{"beat":486.5,"duration":0.47917,"midi":54,"velocity":83,"channel":2,"program":33},{"beat":486.5,"duration":0.35417,"midi":57,"velocity":86,"channel":10,"program":52},{"beat":486.5,"duration":0.97917,"midi":57,"velocity":87,"channel":12,"program":25},{"beat":486.5,"duration":0.35417,"midi":62,"velocity":88,"channel":10,"program":52},{"beat":486.5,"duration":0.35417,"midi":66,"velocity":86,"channel":10,"program":52},{"beat":486.5,"duration":0.39583,"midi":69,"velocity":108,"channel":10,"program":52},{"beat":486.5,"duration":0.22917,"midi":69,"velocity":77,"channel":13,"program":81},{"beat":486.5,"duration":0.39583,"midi":83,"velocity":100,"channel":0,"program":22},{"beat":486.52083,"duration":0.95833,"midi":54,"velocity":86,"channel":6,"program":29},{"beat":486.52083,"duration":0.45833,"midi":57,"velocity":87,"channel":3,"program":27},{"beat":486.52083,"duration":1.45833,"midi":57,"velocity":84,"channel":4,"program":29},{"beat":486.52083,"duration":0.45833,"midi":57,"velocity":86,"channel":5,"program":30},{"beat":486.52083,"duration":0.95833,"midi":62,"velocity":91,"channel":12,"program":25},{"beat":486.52083,"duration":0.20833,"midi":66,"velocity":58,"channel":6,"program":29},{"beat":486.54167,"duration":0.4375,"midi":62,"velocity":78,"channel":5,"program":30},{"beat":486.54167,"duration":0.4375,"midi":66,"velocity":80,"channel":3,"program":27},{"beat":487.0,"duration":0.97917,"midi":50,"velocity":86,"channel":2,"program":33},{"beat":487.0,"duration":0.97917,"midi":50,"velocity":88,"channel":3,"program":27},{"beat":487.0,"duration":0.97917,"midi":50,"velocity":84,"channel":4,"program":29},{"beat":487.0,"duration":0.97917,"midi":50,"velocity":88,"channel":5,"program":30},{"beat":487.0,"duration":0.47917,"midi":57,"velocity":89,"channel":10,"program":52},{"beat":487.0,"duration":0.47917,"midi":62,"velocity":89,"channel":10,"program":52},{"beat":487.0,"duration":0.97917,"midi":64,"velocity":90,"channel":1,"program":52},{"beat":487.0,"duration":0.47917,"midi":66,"velocity":88,"channel":10,"program":52},{"beat":487.0,"duration":0.97917,"midi":67,"velocity":88,"channel":1,"program":52},{"beat":487.0,"duration":0.47917,"midi":69,"velocity":107,"channel":10,"program":52},{"beat":487.0,"duration":0.22917,"midi":69,"velocity":86,"channel":13,"program":81},{"beat":487.0,"duration":0.97917,"midi":83,"velocity":99,"channel":0,"program":22},{"beat":487.02083,"duration":0.95833,"midi":57,"velocity":89,"channel":3,"program":27},{"beat":487.02083,"duration":0.95833,"midi":57,"velocity":84,"channel":5,"program":30},{"beat":487.02083,"duration":0.95833,"midi":66,"velocity":54,"channel":6,"program":29},{"beat":487.04167,"duration":0.9375,"midi":62,"velocity":82,"channel":5,"program":30},{"beat":487.04167,"duration":0.9375,"midi":66,"velocity":80,"channel":3,"program":27},{"beat":487.5,"duration":0.47917,"midi":50,"velocity":85,"channel":6,"program":29},{"beat":487.5,"duration":0.47917,"midi":54,"velocity":88,"channel":10,"program":52},{"beat":487.5,"duration":0.47917,"midi":55,"velocity":90,"channel":4,"program":29},{"beat":487.5,"duration":0.47917,"midi":57,"velocity":84,"channel":12,"program":25},{"beat":487.5,"duration":0.47917,"midi":59,"velocity":87,"channel":10,"program":52},{"beat":487.5,"duration":0.47917,"midi":62,"velocity":88,"channel":10,"program":52},{"beat":487.5,"duration":0.47917,"midi":66,"velocity":109,"channel":10,"program":52},{"beat":487.5,"duration":0.22917,"midi":69,"velocity":75,"channel":13,"program":81},{"beat":487.52083,"duration":0.45833,"midi":55,"velocity":88,"channel":6,"program":29},{"beat":487.52083,"duration":0.45833,"midi":62,"velocity":90,"channel":12,"program":25},{"beat":488.0,"duration":0.47917,"midi":43,"velocity":99,"channel":2,"program":33},{"beat":488.0,"duration":0.97917,"midi":43,"velocity":84,"channel":4,"program":29},{"beat":488.0,"duration":0.97917,"midi":43,"velocity":87,"channel":5,"program":30},{"beat":488.0,"duration":0.97917,"midi":50,"velocity":90,"channel":3,"program":27},{"beat":488.0,"duration":0.97917,"midi":57,"velocity":84,"channel":6,"program":29},{"beat":488.0,"duration":0.97917,"midi":57,"velocity":88,"channel":10,"program":52},{"beat":488.0,"duration":6.0,"midi":62,"velocity":89,"channel":1,"program":52},{"beat":488.0,"duration":0.97917,"midi":62,"velocity":89,"channel":10,"program":52},{"beat":488.0,"duration":6.0,"midi":66,"velocity":89,"channel":1,"program":52},{"beat":488.0,"duration":0.97917,"midi":66,"velocity":87,"channel":10,"program":52},{"beat":488.0,"duration":0.97917,"midi":69,"velocity":109,"channel":10,"program":52},{"beat":488.0,"duration":0.22917,"midi":69,"velocity":82,"channel":13,"program":81},{"beat":488.0,"duration":3.97917,"midi":74,"velocity":84,"channel":7,"program":51},{"beat":488.0,"duration":6.0,"midi":81,"velocity":101,"channel":0,"program":22},{"beat":488.0,"duration":3.97917,"midi":86,"velocity":76,"channel":7,"program":51},{"beat":488.02083,"duration":0.95833,"midi":50,"velocity":90,"channel":4,"program":29},{"beat":488.02083,"duration":0.95833,"midi":50,"velocity":84,"channel":5,"program":30},{"beat":488.02083,"duration":0.95833,"midi":55,"velocity":90,"channel":3,"program":27},{"beat":488.02083,"duration":0.95833,"midi":57,"velocity":97,"channel":12,"program":25},{"beat":488.02083,"duration":0.95833,"midi":62,"velocity":90,"channel":6,"program":29},{"beat":488.04167,"duration":0.9375,"midi":55,"velocity":85,"channel":5,"program":30},{"beat":488.04167,"duration":0.4375,"midi":57,"velocity":83,"channel":4,"program":29},{"beat":488.04167,"duration":0.9375,"midi":62,"velocity":85,"channel":3,"program":27},{"beat":488.04167,"duration":0.9375,"midi":62,"velocity":96,"channel":12,"program":25},{"beat":488.5,"duration":0.47917,"midi":43,"velocity":90,"channel":2,"program":33},{"beat":488.5,"duration":0.22917,"midi":69,"velocity":69,"channel":13,"program":81},{"beat":488.54167,"duration":0.9375,"midi":59,"velocity":83,"channel":4,"program":29},{"beat":489.0,"duration":0.47917,"midi":43,"velocity":100,"channel":2,"program":33},{"beat":489.0,"duration":0.47917,"midi":43,"velocity":84,"channel":4,"program":29},{"beat":489.0,"duration":0.47917,"midi":43,"velocity":88,"channel":5,"program":30},{"beat":489.0,"duration":0.47917,"midi":50,"velocity":86,"channel":3,"program":27},{"beat":489.0,"duration":0.47917,"midi":57,"velocity":86,"channel":6,"program":29},{"beat":489.0,"duration":0.22917,"midi":69,"velocity":84,"channel":13,"program":81},{"beat":489.02083,"duration":0.45833,"midi":50,"velocity":88,"channel":4,"program":29},{"beat":489.02083,"duration":0.45833,"midi":50,"velocity":80,"channel":5,"program":30},{"beat":489.02083,"duration":0.45833,"midi":55,"velocity":86,"channel":3,"program":27},{"beat":489.02083,"duration":0.45833,"midi":57,"velocity":99,"channel":12,"program":25},{"beat":489.02083,"duration":0.45833,"midi":62,"velocity":86,"channel":6,"program":29},{"beat":489.04167,"duration":0.4375,"midi":55,"velocity":77,"channel":5,"program":30},{"beat":489.04167,"duration":0.4375,"midi":62,"velocity":90,"channel":3,"program":27},{"beat":489.04167,"duration":0.4375,"midi":62,"velocity":95,"channel":12,"program":25},{"beat":489.5,"duration":0.47917,"midi":42,"velocity":91,"channel":2,"program":33},{"beat":489.5,"duration":0.97917,"midi":43,"velocity":85,"channel":4,"program":29},{"beat":489.5,"duration":0.97917,"midi":43,"velocity":85,"channel":5,"program":30},{"beat":489.5,"duration":0.97917,"midi":50,"velocity":88,"channel":3,"program":27},{"beat":489.5,"duration":0.97917,"midi":57,"velocity":89,"channel":6,"program":29},{"beat":489.5,"duration":0.39583,"midi":57,"velocity":88,"channel":10,"program":52},{"beat":489.5,"duration":0.39583,"midi":62,"velocity":88,"channel":10,"program":52},{"beat":489.5,"duration":0.39583,"midi":66,"velocity":89,"channel":10,"program":52},{"beat":489.5,"duration":0.39583,"midi":69,"velocity":109,"channel":10,"program":52},{"beat":489.5,"duration":0.22917,"midi":69,"velocity":71,"channel":13,"program":81},{"beat":489.52083,"duration":0.95833,"midi":50,"velocity":85,"channel":4,"program":29},{"beat":489.52083,"duration":0.95833,"midi":50,"velocity":90,"channel":5,"program":30},{"beat":489.52083,"duration":0.95833,"midi":55,"velocity":87,"channel":3,"program":27},{"beat":489.52083,"duration":0.45833,"midi":57,"velocity":82,"channel":12,"program":25},{"beat":489.52083,"duration":0.95833,"midi":62,"velocity":84,"channel":6,"program":29},{"beat":489.54167,"duration":0.9375,"midi":55,"velocity":84,"channel":5,"program":30},{"beat":489.54167,"duration":0.9375,"midi":57,"velocity":82,"channel":4,"program":29},{"beat":489.54167,"duration":0.9375,"midi":62,"velocity":87,"channel":3,"program":27},{"beat":489.54167,"duration":0.4375,"midi":62,"velocity":81,"channel":12,"program":25},{"beat":490.0,"duration":0.47917,"midi":42,"velocity":99,"channel":2,"program":33},{"beat":490.0,"duration":0.47917,"midi":57,"velocity":87,"channel":10,"program":52},{"beat":490.0,"duration":0.47917,"midi":62,"velocity":89,"channel":10,"program":52},{"beat":490.0,"duration":0.47917,"midi":66,"velocity":89,"channel":10,"program":52},{"beat":490.0,"duration":0.47917,"midi":69,"velocity":109,"channel":10,"program":52},{"beat":490.0,"duration":0.22917,"midi":69,"velocity":76,"channel":13,"program":81},{"beat":490.02083,"duration":0.45833,"midi":57,"velocity":88,"channel":12,"program":25},{"beat":490.04167,"duration":0.4375,"midi":62,"velocity":89,"channel":12,"program":25},{"beat":490.5,"duration":0.47917,"midi":42,"velocity":96,"channel":2,"program":33},{"beat":490.5,"duration":0.97917,"midi":43,"velocity":85,"channel":4,"program":29},{"beat":490.5,"duration":0.47917,"midi":43,"velocity":85,"channel":5,"program":30},{"beat":490.5,"duration":0.47917,"midi":50,"velocity":87,"channel":3,"program":27},{"beat":490.5,"duration":0.52083,"midi":54,"velocity":87,"channel":10,"program":52},{"beat":490.5,"duration":0.47917,"midi":57,"velocity":86,"channel":6,"program":29},{"beat":490.5,"duration":0.52083,"midi":59,"velocity":87,"channel":10,"program":52},{"beat":490.5,"duration":0.52083,"midi":62,"velocity":87,"channel":10,"program":52},{"beat":490.5,"duration":0.52083,"midi":66,"velocity":109,"channel":10,"program":52},{"beat":490.5,"duration":0.47917,"midi":66,"velocity":84,"channel":14,"program":29},{"beat":490.5,"duration":0.22917,"midi":69,"velocity":71,"channel":13,"program":81},{"beat":490.52083,"duration":0.95833,"midi":50,"velocity":86,"channel":4,"program":29},{"beat":490.52083,"duration":0.45833,"midi":50,"velocity":90,"channel":5,"program":30},{"beat":490.52083,"duration":0.45833,"midi":55,"velocity":84,"channel":3,"program":27},{"beat":490.52083,"duration":0.95833,"midi":57,"velocity":81,"channel":12,"program":25},{"beat":490.52083,"duration":0.45833,"midi":62,"velocity":90,"channel":6,"program":29},{"beat":490.54167,"duration":0.4375,"midi":55,"velocity":77,"channel":5,"program":30},{"beat":490.54167,"duration":1.4375,"midi":59,"velocity":77,"channel":4,"program":29},{"beat":490.54167,"duration":0.4375,"midi":62,"velocity":90,"channel":3,"program":27},{"beat":490.54167,"duration":0.9375,"midi":62,"velocity":84,"channel":12,"program":25},{"beat":491.0,"duration":0.47917,"midi":40,"velocity":97,"channel":2,"program":33},{"beat":491.0,"duration":0.97917,"midi":43,"velocity":88,"channel":5,"program":30},{"beat":491.0,"duration":0.97917,"midi":50,"velocity":85,"channel":3,"program":27},{"beat":491.0,"duration":0.97917,"midi":57,"velocity":85,"channel":6,"program":29},{"beat":491.0,"duration":0.47917,"midi":66,"velocity":84,"channel":14,"program":29},{"beat":491.0,"duration":0.22917,"midi":69,"velocity":80,"channel":13,"program":81},{"beat":491.02083,"duration":0.95833,"midi":50,"velocity":90,"channel":5,"program":30},{"beat":491.02083,"duration":0.95833,"midi":55,"velocity":87,"channel":3,"program":27},{"beat":491.02083,"duration":0.95833,"midi":62,"velocity":84,"channel":6,"program":29},{"beat":491.04167,"duration":0.9375,"midi":55,"velocity":77,"channel":5,"program":30},{"beat":491.04167,"duration":0.9375,"midi":62,"velocity":89,"channel":3,"program":27},{"beat":491.5,"duration":0.47917,"midi":38,"velocity":100,"channel":2,"program":33},{"beat":491.5,"duration":0.47917,"midi":43,"velocity":83,"channel":4,"program":29},{"beat":491.5,"duration":0.47917,"midi":49,"velocity":76,"channel":5,"program":30},{"beat":491.5,"duration":0.72917,"midi":52,"velocity":88,"channel":10,"program":52},{"beat":491.5,"duration":0.72917,"midi":57,"velocity":89,"channel":10,"program":52},{"beat":491.5,"duration":0.72917,"midi":61,"velocity":89,"channel":10,"program":52},{"beat":491.5,"duration":0.72917,"midi":64,"velocity":106,"channel":10,"program":52},{"beat":491.5,"duration":0.47917,"midi":64,"velocity":70,"channel":14,"program":29},{"beat":491.5,"duration":0.22917,"midi":69,"velocity":71,"channel":13,"program":81},{"beat":491.52083,"duration":0.45833,"midi":50,"velocity":79,"channel":4,"program":29},{"beat":491.52083,"duration":0.45833,"midi":57,"velocity":82,"channel":12,"program":25},{"beat":491.54167,"duration":0.4375,"midi":62,"velocity":82,"channel":12,"program":25},{"beat":492.0,"duration":0.47917,"midi":45,"velocity":96,"channel":2,"program":33},{"beat":492.0,"duration":0.97917,"midi":45,"velocity":88,"channel":4,"program":29},{"beat":492.0,"duration":0.97917,"midi":45,"velocity":86,"channel":5,"program":30},{"beat":492.0,"duration":0.47917,"midi":52,"velocity":89,"channel":3,"program":27},{"beat":492.0,"duration":0.97917,"midi":52,"velocity":87,"channel":6,"program":29},{"beat":492.0,"duration":0.97917,"midi":64,"velocity":89,"channel":14,"program":29},{"beat":492.0,"duration":0.22917,"midi":69,"velocity":65,"channel":13,"program":81},{"beat":492.0,"duration":3.97917,"midi":73,"velocity":86,"channel":7,"program":51},{"beat":492.0,"duration":3.97917,"midi":85,"velocity":79,"channel":7,"program":51},{"beat":492.02083,"duration":0.95833,"midi":52,"velocity":88,"channel":4,"program":29},{"beat":492.02083,"duration":0.95833,"midi":52,"velocity":84,"channel":5,"program":30},{"beat":492.02083,"duration":0.95833,"midi":57,"velocity":85,"channel":3,"program":27},{"beat":492.02083,"duration":0.95833,"midi":57,"velocity":97,"channel":12,"program":25},{"beat":492.02083,"duration":0.95833,"midi":61,"velocity":86,"channel":6,"program":29},{"beat":492.04167,"duration":0.9375,"midi":57,"velocity":85,"channel":4,"program":29},{"beat":492.04167,"duration":0.9375,"midi":57,"velocity":90,"channel":5,"program":30},{"beat":492.04167,"duration":0.9375,"midi":61,"velocity":88,"channel":3,"program":27},{"beat":492.04167,"duration":0.9375,"midi":61,"velocity":95,"channel":12,"program":25},{"beat":492.5,"duration":0.47917,"midi":45,"velocity":90,"channel":2,"program":33},{"beat":492.5,"duration":0.47917,"midi":52,"velocity":89,"channel":3,"program":27},{"beat":492.5,"duration":0.97917,"midi":54,"velocity":87,"channel":10,"program":52},{"beat":492.5,"duration":0.97917,"midi":57,"velocity":88,"channel":10,"program":52},{"beat":492.5,"duration":0.97917,"midi":62,"velocity":88,"channel":10,"program":52},{"beat":492.5,"duration":0.97917,"midi":66,"velocity":108,"channel":10,"program":52},{"beat":492.5,"duration":0.22917,"midi":69,"velocity":70,"channel":13,"program":81},{"beat":493.0,"duration":0.47917,"midi":45,"velocity":92,"channel":2,"program":33},{"beat":493.0,"duration":0.47917,"midi":45,"velocity":88,"channel":4,"program":29},{"beat":493.0,"duration":0.47917,"midi":45,"velocity":85,"channel":5,"program":30},{"beat":493.0,"duration":0.47917,"midi":52,"velocity":85,"channel":3,"program":27},{"beat":493.0,"duration":0.47917,"midi":52,"velocity":84,"channel":6,"program":29},{"beat":493.0,"duration":0.47917,"midi":64,"velocity":90,"channel":14,"program":29},{"beat":493.0,"duration":0.22917,"midi":69,"velocity":83,"channel":13,"program":81},{"beat":493.02083,"duration":0.45833,"midi":52,"velocity":78,"channel":4,"program":29},{"beat":493.02083,"duration":0.45833,"midi":52,"velocity":85,"channel":5,"program":30},{"beat":493.02083,"duration":0.45833,"midi":57,"velocity":87,"channel":3,"program":27},{"beat":493.02083,"duration":0.45833,"midi":57,"velocity":91,"channel":12,"program":25},{"beat":493.02083,"duration":0.45833,"midi":61,"velocity":84,"channel":6,"program":29},{"beat":493.04167,"duration":0.4375,"midi":57,"velocity":80,"channel":4,"program":29},{"beat":493.04167,"duration":0.4375,"midi":57,"velocity":70,"channel":5,"program":30},{"beat":493.04167,"duration":0.4375,"midi":61,"velocity":86,"channel":3,"program":27},{"beat":493.04167,"duration":0.4375,"midi":61,"velocity":94,"channel":12,"program":25},{"beat":493.5,"duration":0.47917,"midi":43,"velocity":94,"channel":2,"program":33},{"beat":493.5,"duration":0.97917,"midi":45,"velocity":84,"channel":4,"program":29},{"beat":493.5,"duration":0.97917,"midi":45,"velocity":88,"channel":5,"program":30},{"beat":493.5,"duration":0.97917,"midi":52,"velocity":84,"channel":3,"program":27},{"beat":493.5,"duration":0.97917,"midi":52,"velocity":85,"channel":6,"program":29},{"beat":493.5,"duration":0.47917,"midi":54,"velocity":89,"channel":10,"program":52},{"beat":493.5,"duration":0.47917,"midi":57,"velocity":88,"channel":10,"program":52},{"beat":493.5,"duration":0.47917,"midi":62,"velocity":88,"channel":10,"program":52},{"beat":493.5,"duration":0.97917,"midi":64,"velocity":89,"channel":14,"program":29},{"beat":493.5,"duration":0.47917,"midi":66,"velocity":108,"channel":10,"program":52},{"beat":493.5,"duration":0.22917,"midi":69,"velocity":73,"channel":13,"program":81},{"beat":493.52083,"duration":0.95833,"midi":52,"velocity":89,"channel":4,"program":29},{"beat":493.52083,"duration":0.95833,"midi":52,"velocity":84,"channel":5,"program":30},{"beat":493.52083,"duration":0.95833,"midi":57,"velocity":89,"channel":3,"program":27},{"beat":493.52083,"duration":0.45833,"midi":57,"velocity":82,"channel":12,"program":25},{"beat":493.52083,"duration":0.95833,"midi":61,"velocity":88,"channel":6,"program":29},{"beat":493.54167,"duration":0.9375,"midi":57,"velocity":86,"channel":4,"program":29},{"beat":493.54167,"duration":0.9375,"midi":57,"velocity":85,"channel":5,"program":30},{"beat":493.54167,"duration":0.9375,"midi":61,"velocity":86,"channel":3,"program":27},{"beat":493.54167,"duration":0.4375,"midi":61,"velocity":87,"channel":12,"program":25},{"beat":494.0,"duration":0.47917,"midi":43,"velocity":94,"channel":2,"program":33},{"beat":494.0,"duration":0.22917,"midi":69,"velocity":78,"channel":13,"program":81},{"beat":494.02083,"duration":0.45833,"midi":57,"velocity":89,"channel":12,"program":25},{"beat":494.04167,"duration":0.4375,"midi":61,"velocity":92,"channel":12,"program":25},{"beat":494.5,"duration":0.47917,"midi":43,"velocity":100,"channel":2,"program":33},{"beat":494.5,"duration":0.97917,"midi":45,"velocity":87,"channel":4,"program":29},{"beat":494.5,"duration":0.47917,"midi":45,"velocity":85,"channel":5,"program":30},{"beat":494.5,"duration":0.47917,"midi":52,"velocity":89,"channel":3,"program":27},{"beat":494.5,"duration":0.47917,"midi":52,"velocity":90,"channel":6,"program":29},{"beat":494.5,"duration":0.3125,"midi":57,"velocity":88,"channel":10,"program":52},{"beat":494.5,"duration":0.3125,"midi":62,"velocity":87,"channel":10,"program":52},{"beat":494.5,"duration":0.3125,"midi":66,"velocity":87,"channel":10,"program":52},{"beat":494.5,"duration":0.3125,"midi":69,"velocity":108,"channel":10,"program":52},{"beat":494.5,"duration":0.22917,"midi":69,"velocity":77,"channel":13,"program":81},{"beat":494.5,"duration":0.47917,"midi":69,"velocity":87,"channel":14,"program":29},{"beat":494.52083,"duration":0.95833,"midi":52,"velocity":85,"channel":4,"program":29},{"beat":494.52083,"duration":0.45833,"midi":52,"velocity":84,"channel":5,"program":30},{"beat":494.52083,"duration":0.45833,"midi":57,"velocity":89,"channel":3,"program":27},{"beat":494.52083,"duration":0.95833,"midi":57,"velocity":89,"channel":12,"program":25},{"beat":494.52083,"duration":0.45833,"midi":61,"velocity":87,"channel":6,"program":29},{"beat":494.54167,"duration":1.4375,"midi":57,"velocity":89,"channel":4,"program":29},{"beat":494.54167,"duration":0.4375,"midi":57,"velocity":87,"channel":5,"program":30},{"beat":494.54167,"duration":0.4375,"midi":61,"velocity":87,"channel":3,"program":27},{"beat":494.54167,"duration":0.9375,"midi":61,"velocity":92,"channel":12,"program":25},{"beat":495.0,"duration":0.47917,"midi":42,"velocity":94,"channel":2,"program":33},{"beat":495.0,"duration":0.97917,"midi":45,"velocity":87,"channel":5,"program":30},{"beat":495.0,"duration":0.97917,"midi":52,"velocity":84,"channel":3,"program":27},{"beat":495.0,"duration":0.97917,"midi":52,"velocity":90,"channel":6,"program":29},{"beat":495.0,"duration":0.35417,"midi":57,"velocity":88,"channel":10,"program":52},{"beat":495.0,"duration":0.35417,"midi":62,"velocity":89,"channel":10,"program":52},{"beat":495.0,"duration":0.35417,"midi":66,"velocity":86,"channel":10,"program":52},{"beat":495.0,"duration":0.35417,"midi":69,"velocity":106,"channel":10,"program":52},{"beat":495.0,"duration":0.22917,"midi":69,"velocity":86,"channel":13,"program":81},{"beat":495.0,"duration":0.47917,"midi":69,"velocity":88,"channel":14,"program":29},{"beat":495.02083,"duration":0.95833,"midi":52,"velocity":90,"channel":5,"program":30},{"beat":495.02083,"duration":0.95833,"midi":57,"velocity":87,"channel":3,"program":27},{"beat":495.02083,"duration":0.95833,"midi":61,"velocity":88,"channel":6,"program":29},{"beat":495.04167,"duration":0.9375,"midi":57,"velocity":85,"channel":5,"program":30},{"beat":495.04167,"duration":0.9375,"midi":61,"velocity":84,"channel":3,"program":27},{"beat":495.5,"duration":0.47917,"midi":40,"velocity":96,"channel":2,"program":33},{"beat":495.5,"duration":0.47917,"midi":45,"velocity":81,"channel":4,"program":29},{"beat":495.5,"duration":0.47917,"midi":54,"velocity":88,"channel":10,"program":52},{"beat":495.5,"duration":0.47917,"midi":59,"velocity":87,"channel":10,"program":52},{"beat":495.5,"duration":0.47917,"midi":62,"velocity":89,"channel":10,"program":52},{"beat":495.5,"duration":0.47917,"midi":66,"velocity":109,"channel":10,"program":52},{"beat":495.5,"duration":0.22917,"midi":69,"velocity":75,"channel":13,"program":81},{"beat":495.52083,"duration":0.45833,"midi":52,"velocity":77,"channel":4,"program":29},{"beat":495.52083,"duration":0.45833,"midi":57,"velocity":86,"channel":12,"program":25},{"beat":495.54167,"duration":0.4375,"midi":61,"velocity":86,"channel":12,"program":25},{"beat":496.0,"duration":0.47917,"midi":47,"velocity":100,"channel":2,"program":33},{"beat":496.0,"duration":0.97917,"midi":47,"velocity":86,"channel":3,"program":27},{"beat":496.0,"duration":0.97917,"midi":47,"velocity":89,"channel":4,"program":29},{"beat":496.0,"duration":0.97917,"midi":47,"velocity":87,"channel":5,"program":30},{"beat":496.0,"duration":0.97917,"midi":54,"velocity":90,"channel":6,"program":29},{"beat":496.0,"duration":0.8125,"midi":57,"velocity":89,"channel":10,"program":52},{"beat":496.0,"duration":0.8125,"midi":62,"velocity":86,"channel":10,"program":52},{"beat":496.0,"duration":0.72917,"midi":64,"velocity":83,"channel":14,"program":29},{"beat":496.0,"duration":0.8125,"midi":66,"velocity":88,"channel":10,"program":52},{"beat":496.0,"duration":0.8125,"midi":69,"velocity":107,"channel":10,"program":52},{"beat":496.0,"duration":0.22917,"midi":69,"velocity":82,"channel":13,"program":81},{"beat":496.0,"duration":3.97917,"midi":74,"velocity":84,"channel":7,"program":51},{"beat":496.0,"duration":3.97917,"midi":86,"velocity":75,"channel":7,"program":51},{"beat":496.02083,"duration":0.95833,"midi":54,"velocity":90,"channel":3,"program":27},{"beat":496.02083,"duration":0.95833,"midi":54,"velocity":85,"channel":4,"program":29},{"beat":496.02083,"duration":0.95833,"midi":54,"velocity":87,"channel":5,"program":30},{"beat":496.02083,"duration":0.95833,"midi":57,"velocity":97,"channel":12,"program":25},{"beat":496.02083,"duration":0.95833,"midi":62,"velocity":84,"channel":6,"program":29},{"beat":496.04167,"duration":0.9375,"midi":57,"velocity":89,"channel":4,"program":29},{"beat":496.04167,"duration":0.9375,"midi":59,"velocity":86,"channel":3,"program":27},{"beat":496.04167,"duration":0.9375,"midi":59,"velocity":90,"channel":5,"program":30},{"beat":496.04167,"duration":0.9375,"midi":62,"velocity":92,"channel":12,"program":25},{"beat":496.5,"duration":0.47917,"midi":47,"velocity":90,"channel":2,"program":33},{"beat":496.5,"duration":0.22917,"midi":69,"velocity":69,"channel":13,"program":81},{"beat":496.5,"duration":0.47917,"midi":74,"velocity":70,"channel":7,"program":29},{"beat":497.0,"duration":0.47917,"midi":47,"velocity":97,"channel":2,"program":33},{"beat":497.0,"duration":0.47917,"midi":47,"velocity":82,"channel":3,"program":27},{"beat":497.0,"duration":0.47917,"midi":47,"velocity":90,"channel":4,"program":29},{"beat":497.0,"duration":0.47917,"midi":47,"velocity":90,"channel":5,"program":30},{"beat":497.0,"duration":0.47917,"midi":54,"velocity":87,"channel":6,"program":29},{"beat":497.0,"duration":0.22917,"midi":69,"velocity":84,"channel":13,"program":81},{"beat":497.0,"duration":0.47917,"midi":71,"velocity":81,"channel":14,"program":29},{"beat":497.02083,"duration":0.45833,"midi":54,"velocity":80,"channel":3,"program":27},{"beat":497.02083,"duration":0.45833,"midi":54,"velocity":81,"channel":4,"program":29},{"beat":497.02083,"duration":0.45833,"midi":54,"velocity":87,"channel":5,"program":30},{"beat":497.02083,"duration":0.45833,"midi":57,"velocity":97,"channel":12,"program":25},{"beat":497.02083,"duration":0.45833,"midi":62,"velocity":88,"channel":6,"program":29},{"beat":497.04167,"duration":0.4375,"midi":57,"velocity":81,"channel":4,"program":29},{"beat":497.04167,"duration":0.4375,"midi":59,"velocity":82,"channel":3,"program":27},{"beat":497.04167,"duration":0.4375,"midi":59,"velocity":81,"channel":5,"program":30},{"beat":497.04167,"duration":0.4375,"midi":62,"velocity":94,"channel":12,"program":25},{"beat":497.5,"duration":0.97917,"midi":45,"velocity":99,"channel":2,"program":33},{"beat":497.5,"duration":0.97917,"midi":47,"velocity":88,"channel":3,"program":27},{"beat":497.5,"duration":0.97917,"midi":47,"velocity":87,"channel":4,"program":29},{"beat":497.5,"duration":0.97917,"midi":47,"velocity":90,"channel":5,"program":30},{"beat":497.5,"duration":0.97917,"midi":54,"velocity":87,"channel":6,"program":29},{"beat":497.5,"duration":0.47917,"midi":57,"velocity":89,"channel":10,"program":52},{"beat":497.5,"duration":0.47917,"midi":62,"velocity":87,"channel":10,"program":52},{"beat":497.5,"duration":0.52083,"midi":64,"velocity":65,"channel":7,"program":29},{"beat":497.5,"duration":0.47917,"midi":66,"velocity":89,"channel":10,"program":52},{"beat":497.5,"duration":0.97917,"midi":66,"velocity":78,"channel":14,"program":29},{"beat":497.5,"duration":0.47917,"midi":69,"velocity":108,"channel":10,"program":52},{"beat":497.5,"duration":0.22917,"midi":69,"velocity":71,"channel":13,"program":81},{"beat":497.52083,"duration":0.95833,"midi":54,"velocity":84,"channel":3,"program":27},{"beat":497.52083,"duration":0.95833,"midi":54,"velocity":88,"channel":4,"program":29},{"beat":497.52083,"duration":0.95833,"midi":54,"velocity":84,"channel":5,"program":30},{"beat":497.52083,"duration":0.45833,"midi":57,"velocity":82,"channel":12,"program":25},{"beat":497.52083,"duration":0.95833,"midi":62,"velocity":90,"channel":6,"program":29},{"beat":497.54167,"duration":0.9375,"midi":57,"velocity":84,"channel":4,"program":29},{"beat":497.54167,"duration":0.9375,"midi":59,"velocity":89,"channel":3,"program":27},{"beat":497.54167,"duration":0.9375,"midi":59,"velocity":86,"channel":5,"program":30},{"beat":497.54167,"duration":0.4375,"midi":62,"velocity":82,"channel":12,"program":25},{"beat":498.0,"duration":0.47917,"midi":57,"velocity":88,"channel":10,"program":52},{"beat":498.0,"duration":0.47917,"midi":62,"velocity":88,"channel":10,"program":52},{"beat":498.0,"duration":0.47917,"midi":66,"velocity":70,"channel":7,"program":29},{"beat":498.0,"duration":0.47917,"midi":66,"velocity":89,"channel":10,"program":52},{"beat":498.0,"duration":0.47917,"midi":69,"velocity":107,"channel":10,"program":52},{"beat":498.0,"duration":0.22917,"midi":69,"velocity":76,"channel":13,"program":81},{"beat":498.02083,"duration":0.45833,"midi":57,"velocity":89,"channel":12,"program":25},{"beat":498.04167,"duration":0.4375,"midi":62,"velocity":85,"channel":12,"program":25},{"beat":498.5,"duration":0.47917,"midi":43,"velocity":92,"channel":2,"program":33},{"beat":498.5,"duration":0.47917,"midi":47,"velocity":79,"channel":3,"program":27},{"beat":498.5,"duration":0.47917,"midi":47,"velocity":86,"channel":4,"program":29},{"beat":498.5,"duration":0.47917,"midi":47,"velocity":88,"channel":5,"program":30},{"beat":498.5,"duration":0.47917,"midi":54,"velocity":88,"channel":6,"program":29},{"beat":498.5,"duration":0.47917,"midi":54,"velocity":89,"channel":10,"program":52},{"beat":498.5,"duration":0.47917,"midi":59,"velocity":87,"channel":10,"program":52},{"beat":498.5,"duration":0.47917,"midi":62,"velocity":88,"channel":10,"program":52},{"beat":498.5,"duration":0.47917,"midi":66,"velocity":60,"channel":7,"program":29},{"beat":498.5,"duration":0.47917,"midi":66,"velocity":109,"channel":10,"program":52},{"beat":498.5,"duration":0.22917,"midi":69,"velocity":71,"channel":13,"program":81},{"beat":498.5,"duration":0.47917,"midi":71,"velocity":79,"channel":14,"program":29},{"beat":498.52083,"duration":0.45833,"midi":54,"velocity":77,"channel":3,"program":27},{"beat":498.52083,"duration":0.95833,"midi":54,"velocity":87,"channel":4,"program":29},{"beat":498.52083,"duration":0.45833,"midi":54,"velocity":87,"channel":5,"program":30},{"beat":498.52083,"duration":0.95833,"midi":57,"velocity":83,"channel":12,"program":25},{"beat":498.52083,"duration":0.45833,"midi":62,"velocity":88,"channel":6,"program":29},{"beat":498.54167,"duration":0.9375,"midi":57,"velocity":86,"channel":4,"program":29},{"beat":498.54167,"duration":0.4375,"midi":59,"velocity":77,"channel":3,"program":27},{"beat":498.54167,"duration":0.4375,"midi":59,"velocity":77,"channel":5,"program":30},{"beat":498.54167,"duration":0.9375,"midi":62,"velocity":85,"channel":12,"program":25},{"beat":499.0,"duration":0.47917,"midi":43,"velocity":94,"channel":2,"program":33},{"beat":499.0,"duration":0.97917,"midi":47,"velocity":81,"channel":3,"program":27},{"beat":499.0,"duration":0.47917,"midi":47,"velocity":86,"channel":4,"program":29},{"beat":499.0,"duration":0.97917,"midi":47,"velocity":84,"channel":5,"program":30},{"beat":499.0,"duration":0.97917,"midi":54,"velocity":90,"channel":6,"program":29},{"beat":499.0,"duration":0.39583,"midi":54,"velocity":89,"channel":10,"program":52},{"beat":499.0,"duration":0.39583,"midi":59,"velocity":89,"channel":10,"program":52},{"beat":499.0,"duration":0.39583,"midi":62,"velocity":88,"channel":10,"program":52},{"beat":499.0,"duration":0.47917,"midi":66,"velocity":70,"channel":7,"program":29},{"beat":499.0,"duration":0.39583,"midi":66,"velocity":109,"channel":10,"program":52},{"beat":499.0,"duration":0.97917,"midi":66,"velocity":82,"channel":14,"program":29},{"beat":499.0,"duration":0.22917,"midi":69,"velocity":80,"channel":13,"program":81},{"beat":499.02083,"duration":0.95833,"midi":54,"velocity":79,"channel":3,"program":27},{"beat":499.02083,"duration":0.95833,"midi":54,"velocity":86,"channel":5,"program":30},{"beat":499.02083,"duration":0.95833,"midi":62,"velocity":86,"channel":6,"program":29},{"beat":499.04167,"duration":0.9375,"midi":59,"velocity":81,"channel":3,"program":27},{"beat":499.04167,"duration":0.9375,"midi":59,"velocity":80,"channel":5,"program":30},{"beat":499.5,"duration":0.97917,"midi":42,"velocity":98,"channel":2,"program":33},{"beat":499.5,"duration":0.22917,"midi":47,"velocity":82,"channel":4,"program":29},{"beat":499.5,"duration":0.72917,"midi":52,"velocity":89,"channel":10,"program":52},{"beat":499.5,"duration":0.72917,"midi":57,"velocity":89,"channel":10,"program":52},{"beat":499.5,"duration":0.72917,"midi":61,"velocity":87,"channel":10,"program":52},{"beat":499.5,"duration":0.97917,"midi":64,"velocity":72,"channel":7,"program":29},{"beat":499.5,"duration":0.72917,"midi":64,"velocity":108,"channel":10,"program":52},{"beat":499.5,"duration":0.22917,"midi":69,"velocity":71,"channel":13,"program":81},{"beat":499.52083,"duration":0.20833,"midi":54,"velocity":77,"channel":4,"program":29},{"beat":499.52083,"duration":0.20833,"midi":57,"velocity":83,"channel":12,"program":25},{"beat":499.54167,"duration":0.1875,"midi":57,"velocity":82,"channel":4,"program":29},{"beat":499.54167,"duration":0.1875,"midi":62,"velocity":84,"channel":12,"program":25},{"beat":499.75,"duration":0.22917,"midi":47,"velocity":75,"channel":4,"program":29},{"beat":499.77083,"duration":0.20833,"midi":54,"velocity":75,"channel":4,"program":29},{"beat":499.77083,"duration":0.20833,"midi":57,"velocity":82,"channel":12,"program":25},{"beat":499.79167,"duration":0.1875,"midi":57,"velocity":71,"channel":4,"program":29},{"beat":499.79167,"duration":0.1875,"midi":62,"velocity":84,"channel":12,"program":25},{"beat":500.0,"duration":0.97917,"midi":42,"velocity":87,"channel":4,"program":29},{"beat":500.0,"duration":0.97917,"midi":50,"velocity":84,"channel":3,"program":27},{"beat":500.0,"duration":0.97917,"midi":50,"velocity":87,"channel":5,"program":30},{"beat":500.0,"duration":0.97917,"midi":50,"velocity":88,"channel":6,"program":29},{"beat":500.0,"duration":1.97917,"midi":64,"velocity":82,"channel":14,"program":29},{"beat":500.0,"duration":0.22917,"midi":69,"velocity":65,"channel":13,"program":81},{"beat":500.0,"duration":1.97917,"midi":76,"velocity":87,"channel":7,"program":51},{"beat":500.0,"duration":1.97917,"midi":88,"velocity":85,"channel":7,"program":51},{"beat":500.02083,"duration":0.95833,"midi":50,"velocity":88,"channel":4,"program":29},{"beat":500.02083,"duration":0.95833,"midi":57,"velocity":84,"channel":3,"program":27},{"beat":500.02083,"duration":0.95833,"midi":57,"velocity":87,"channel":5,"program":30},{"beat":500.02083,"duration":0.95833,"midi":57,"velocity":86,"channel":6,"program":29},{"beat":500.02083,"duration":0.95833,"midi":57,"velocity":95,"channel":12,"program":25},{"beat":500.02083,"duration":1.97917,"midi":76,"velocity":56,"channel":14,"program":29},{"beat":500.04167,"duration":0.9375,"midi":57,"velocity":89,"channel":4,"program":29},{"beat":500.04167,"duration":0.9375,"midi":61,"velocity":96,"channel":12,"program":25},{"beat":500.04167,"duration":0.9375,"midi":62,"velocity":85,"channel":3,"program":27},{"beat":500.04167,"duration":0.9375,"midi":62,"velocity":85,"channel":5,"program":30},{"beat":500.5,"duration":0.47917,"midi":42,"velocity":98,"channel":2,"program":33},{"beat":500.5,"duration":0.47917,"midi":52,"velocity":88,"channel":10,"program":52},{"beat":500.5,"duration":0.47917,"midi":57,"velocity":89,"channel":10,"program":52},{"beat":500.5,"duration":0.47917,"midi":61,"velocity":89,"channel":10,"program":52},{"beat":500.5,"duration":0.47917,"midi":64,"velocity":52,"channel":7,"program":29},{"beat":500.5,"duration":0.47917,"midi":64,"velocity":107,"channel":10,"program":52},{"beat":500.5,"duration":0.22917,"midi":69,"velocity":70,"channel":13,"program":81},{"beat":501.0,"duration":0.47917,"midi":40,"velocity":95,"channel":2,"program":33},{"beat":501.0,"duration":0.47917,"midi":42,"velocity":86,"channel":4,"program":29},{"beat":501.0,"duration":0.47917,"midi":50,"velocity":81,"channel":3,"program":27},{"beat":501.0,"duration":0.47917,"midi":50,"velocity":85,"channel":5,"program":30},{"beat":501.0,"duration":0.97917,"midi":50,"velocity":87,"channel":6,"program":29},{"beat":501.0,"duration":0.47917,"midi":54,"velocity":88,"channel":10,"program":52},{"beat":501.0,"duration":0.47917,"midi":57,"velocity":89,"channel":10,"program":52},{"beat":501.0,"duration":0.47917,"midi":62,"velocity":88,"channel":10,"program":52},{"beat":501.0,"duration":0.47917,"midi":66,"velocity":57,"channel":7,"program":29},{"beat":501.0,"duration":0.47917,"midi":66,"velocity":107,"channel":10,"program":52},{"beat":501.0,"duration":0.22917,"midi":69,"velocity":83,"channel":13,"program":81},{"beat":501.02083,"duration":0.45833,"midi":50,"velocity":83,"channel":4,"program":29},{"beat":501.02083,"duration":0.45833,"midi":57,"velocity":77,"channel":3,"program":27},{"beat":501.02083,"duration":0.45833,"midi":57,"velocity":88,"channel":5,"program":30},{"beat":501.02083,"duration":0.95833,"midi":57,"velocity":90,"channel":6,"program":29},{"beat":501.02083,"duration":0.45833,"midi":57,"velocity":94,"channel":12,"program":25},{"beat":501.04167,"duration":0.4375,"midi":57,"velocity":83,"channel":4,"program":29},{"beat":501.04167,"duration":0.4375,"midi":61,"velocity":96,"channel":12,"program":25},{"beat":501.04167,"duration":0.4375,"midi":62,"velocity":81,"channel":3,"program":27},{"beat":501.04167,"duration":0.4375,"midi":62,"velocity":90,"channel":5,"program":30},{"beat":501.5,"duration":0.47917,"midi":42,"velocity":100,"channel":2,"program":33},{"beat":501.5,"duration":0.97917,"midi":42,"velocity":89,"channel":4,"program":29},{"beat":501.5,"duration":0.97917,"midi":50,"velocity":89,"channel":3,"program":27},{"beat":501.5,"duration":0.97917,"midi":50,"velocity":88,"channel":5,"program":30},{"beat":501.5,"duration":0.60417,"midi":50,"velocity":88,"channel":10,"program":52},{"beat":501.5,"duration":0.60417,"midi":57,"velocity":88,"channel":10,"program":52},{"beat":501.5,"duration":0.47917,"midi":62,"velocity":52,"channel":7,"program":29},{"beat":501.5,"duration":0.60417,"midi":62,"velocity":107,"channel":10,"program":52},{"beat":501.5,"duration":0.22917,"midi":69,"velocity":73,"channel":13,"program":81},{"beat":501.52083,"duration":0.95833,"midi":50,"velocity":88,"channel":4,"program":29},{"beat":501.52083,"duration":0.95833,"midi":57,"velocity":84,"channel":3,"program":27},{"beat":501.52083,"duration":0.95833,"midi":57,"velocity":87,"channel":5,"program":30},{"beat":501.52083,"duration":0.45833,"midi":57,"velocity":85,"channel":12,"program":25},{"beat":501.54167,"duration":0.9375,"midi":57,"velocity":90,"channel":4,"program":29},{"beat":501.54167,"duration":0.4375,"midi":61,"velocity":86,"channel":12,"program":25},{"beat":501.54167,"duration":0.9375,"midi":62,"velocity":89,"channel":3,"program":27},{"beat":501.54167,"duration":0.9375,"midi":62,"velocity":84,"channel":5,"program":30},{"beat":502.0,"duration":0.47917,"midi":45,"velocity":93,"channel":2,"program":33},{"beat":502.0,"duration":0.97917,"midi":54,"velocity":85,"channel":6,"program":29},{"beat":502.0,"duration":0.97917,"midi":66,"velocity":61,"channel":7,"program":29},{"beat":502.0,"duration":1.97917,"midi":66,"velocity":79,"channel":14,"program":29},{"beat":502.0,"duration":0.22917,"midi":69,"velocity":78,"channel":13,"program":81},{"beat":502.0,"duration":1.97917,"midi":78,"velocity":90,"channel":7,"program":51},{"beat":502.0,"duration":1.97917,"midi":90,"velocity":90,"channel":7,"program":51},{"beat":502.02083,"duration":0.45833,"midi":57,"velocity":71,"channel":6,"program":29},{"beat":502.02083,"duration":0.45833,"midi":57,"velocity":87,"channel":12,"program":25},{"beat":502.02083,"duration":1.97917,"midi":78,"velocity":50,"channel":14,"program":29},{"beat":502.04167,"duration":0.4375,"midi":62,"velocity":87,"channel":12,"program":25},{"beat":502.5,"duration":0.47917,"midi":42,"velocity":96,"channel":2,"program":33},{"beat":502.5,"duration":0.97917,"midi":42,"velocity":87,"channel":4,"program":29},{"beat":502.5,"duration":0.47917,"midi":50,"velocity":79,"channel":3,"program":27},{"beat":502.5,"duration":0.47917,"midi":50,"velocity":90,"channel":5,"program":30},{"beat":502.5,"duration":0.47917,"midi":57,"velocity":89,"channel":10,"program":52},{"beat":502.5,"duration":0.47917,"midi":62,"velocity":86,"channel":10,"program":52},{"beat":502.5,"duration":0.47917,"midi":66,"velocity":88,"channel":10,"program":52},{"beat":502.5,"duration":0.47917,"midi":69,"velocity":107,"channel":10,"program":52},{"beat":502.5,"duration":0.22917,"midi":69,"velocity":77,"channel":13,"program":81},{"beat":502.52083,"duration":0.95833,"midi":50,"velocity":86,"channel":4,"program":29},{"beat":502.52083,"duration":0.45833,"midi":57,"velocity":80,"channel":3,"program":27},{"beat":502.52083,"duration":0.45833,"midi":57,"velocity":85,"channel":5,"program":30},{"beat":502.52083,"duration":0.45833,"midi":57,"velocity":67,"channel":6,"program":29},{"beat":502.52083,"duration":0.95833,"midi":57,"velocity":89,"channel":12,"program":25},{"beat":502.54167,"duration":0.9375,"midi":57,"velocity":88,"channel":4,"program":29},{"beat":502.54167,"duration":0.4375,"midi":62,"velocity":78,"channel":3,"program":27},{"beat":502.54167,"duration":0.4375,"midi":62,"velocity":85,"channel":5,"program":30},{"beat":502.54167,"duration":0.9375,"midi":62,"velocity":86,"channel":12,"program":25},{"beat":503.0,"duration":0.97917,"midi":40,"velocity":80,"channel":2,"program":33},{"beat":503.0,"duration":0.47917,"midi":50,"velocity":79,"channel":3,"program":27},{"beat":503.0,"duration":0.47917,"midi":50,"velocity":84,"channel":5,"program":30},{"beat":503.0,"duration":0.47917,"midi":52,"velocity":88,"channel":6,"program":29},{"beat":503.0,"duration":0.47917,"midi":57,"velocity":88,"channel":10,"program":52},{"beat":503.0,"duration":0.47917,"midi":62,"velocity":88,"channel":10,"program":52},{"beat":503.0,"duration":0.47917,"midi":66,"velocity":59,"channel":7,"program":29},{"beat":503.0,"duration":0.47917,"midi":66,"velocity":88,"channel":10,"program":52},{"beat":503.0,"duration":0.47917,"midi":69,"velocity":106,"channel":10,"program":52},{"beat":503.0,"duration":0.22917,"midi":69,"velocity":86,"channel":13,"program":81},{"beat":503.02083,"duration":0.45833,"midi":57,"velocity":77,"channel":3,"program":27},{"beat":503.02083,"duration":0.45833,"midi":57,"velocity":89,"channel":5,"program":30},{"beat":503.02083,"duration":0.95833,"midi":57,"velocity":72,"channel":6,"program":29},{"beat":503.04167,"duration":0.4375,"midi":62,"velocity":78,"channel":3,"program":27},{"beat":503.04167,"duration":0.4375,"midi":62,"velocity":85,"channel":5,"program":30},{"beat":503.5,"duration":0.22917,"midi":42,"velocity":80,"channel":4,"program":29},{"beat":503.5,"duration":0.47917,"midi":50,"velocity":77,"channel":3,"program":27},{"beat":503.5,"duration":0.47917,"midi":50,"velocity":82,"channel":5,"program":30},{"beat":503.5,"duration":0.47917,"midi":54,"velocity":90,"channel":6,"program":29},{"beat":503.5,"duration":0.47917,"midi":54,"velocity":87,"channel":10,"program":52},{"beat":503.5,"duration":0.47917,"midi":59,"velocity":89,"channel":10,"program":52},{"beat":503.5,"duration":0.47917,"midi":62,"velocity":88,"channel":10,"program":52},{"beat":503.5,"duration":0.47917,"midi":66,"velocity":54,"channel":7,"program":29},{"beat":503.5,"duration":0.47917,"midi":66,"velocity":106,"channel":10,"program":52},{"beat":503.5,"duration":0.22917,"midi":69,"velocity":75,"channel":13,"program":81},{"beat":503.52083,"duration":0.20833,"midi":50,"velocity":77,"channel":4,"program":29},{"beat":503.52083,"duration":0.45833,"midi":55,"velocity":81,"channel":3,"program":27},{"beat":503.52083,"duration":0.45833,"midi":57,"velocity":79,"channel":5,"program":30},{"beat":503.52083,"duration":0.20833,"midi":57,"velocity":87,"channel":12,"program":25},{"beat":503.54167,"duration":0.1875,"midi":54,"velocity":83,"channel":4,"program":29},{"beat":503.54167,"duration":0.4375,"midi":62,"velocity":79,"channel":3,"program":27},{"beat":503.54167,"duration":0.4375,"midi":62,"velocity":81,"channel":5,"program":30},{"beat":503.54167,"duration":0.1875,"midi":62,"velocity":85,"channel":12,"program":25},{"beat":503.75,"duration":0.22917,"midi":42,"velocity":80,"channel":4,"program":29},{"beat":503.77083,"duration":0.20833,"midi":50,"velocity":77,"channel":4,"program":29},{"beat":503.77083,"duration":0.20833,"midi":57,"velocity":87,"channel":12,"program":25},{"beat":503.79167,"duration":0.1875,"midi":54,"velocity":83,"channel":4,"program":29},{"beat":503.79167,"duration":0.1875,"midi":62,"velocity":85,"channel":12,"program":25},{"beat":504.0,"duration":0.47917,"midi":31,"velocity":98,"channel":2,"program":33},{"beat":504.0,"duration":0.97917,"midi":43,"velocity":87,"channel":4,"program":29},{"beat":504.0,"duration":0.97917,"midi":43,"velocity":86,"channel":5,"program":30},{"beat":504.0,"duration":0.97917,"midi":50,"velocity":85,"channel":3,"program":27},{"beat":504.0,"duration":0.97917,"midi":55,"velocity":84,"channel":6,"program":29},{"beat":504.0,"duration":0.64583,"midi":57,"velocity":86,"channel":10,"program":52},{"beat":504.0,"duration":0.64583,"midi":62,"velocity":89,"channel":10,"program":52},{"beat":504.0,"duration":0.64583,"midi":66,"velocity":89,"channel":10,"program":52},{"beat":504.0,"duration":0.64583,"midi":69,"velocity":109,"channel":10,"program":52},{"beat":504.0,"duration":0.22917,"midi":69,"velocity":82,"channel":13,"program":81},{"beat":504.0,"duration":3.97917,"midi":74,"velocity":89,"channel":7,"program":51},{"beat":504.0,"duration":3.97917,"midi":86,"velocity":77,"channel":7,"program":51},{"beat":504.02083,"duration":0.95833,"midi":50,"velocity":85,"channel":4,"program":29},{"beat":504.02083,"duration":0.95833,"midi":50,"velocity":84,"channel":5,"program":30},{"beat":504.02083,"duration":0.95833,"midi":55,"velocity":89,"channel":3,"program":27},{"beat":504.02083,"duration":0.95833,"midi":57,"velocity":98,"channel":12,"program":25},{"beat":504.02083,"duration":0.95833,"midi":62,"velocity":86,"channel":6,"program":29},{"beat":504.04167,"duration":0.9375,"midi":55,"velocity":86,"channel":4,"program":29},{"beat":504.04167,"duration":0.9375,"midi":55,"velocity":85,"channel":5,"program":30},{"beat":504.04167,"duration":0.9375,"midi":62,"velocity":85,"channel":3,"program":27},{"beat":504.04167,"duration":0.9375,"midi":62,"velocity":97,"channel":12,"program":25},{"beat":504.04167,"duration":0.9375,"midi":67,"velocity":88,"channel":6,"program":29},{"beat":504.5,"duration":0.47917,"midi":31,"velocity":98,"channel":2,"program":33},{"beat":504.5,"duration":0.22917,"midi":69,"velocity":69,"channel":13,"program":81},{"beat":505.0,"duration":0.97917,"midi":31,"velocity":100,"channel":2,"program":33},{"beat":505.0,"duration":0.47917,"midi":43,"velocity":89,"channel":4,"program":29},{"beat":505.0,"duration":0.47917,"midi":43,"velocity":90,"channel":5,"program":30},{"beat":505.0,"duration":0.47917,"midi":50,"velocity":81,"channel":3,"program":27},{"beat":505.0,"duration":0.47917,"midi":55,"velocity":85,"channel":6,"program":29},{"beat":505.0,"duration":0.22917,"midi":69,"velocity":84,"channel":13,"program":81},{"beat":505.02083,"duration":0.45833,"midi":50,"velocity":88,"channel":4,"program":29},{"beat":505.02083,"duration":0.45833,"midi":50,"velocity":90,"channel":5,"program":30},{"beat":505.02083,"duration":0.45833,"midi":57,"velocity":81,"channel":3,"program":27},{"beat":505.02083,"duration":0.45833,"midi":57,"velocity":87,"channel":4,"program":29},{"beat":505.02083,"duration":0.45833,"midi":57,"velocity":96,"channel":12,"program":25},{"beat":505.02083,"duration":0.45833,"midi":62,"velocity":89,"channel":6,"program":29},{"beat":505.04167,"duration":0.4375,"midi":57,"velocity":85,"channel":5,"program":30},{"beat":505.04167,"duration":0.4375,"midi":62,"velocity":82,"channel":3,"program":27},{"beat":505.04167,"duration":0.4375,"midi":62,"velocity":97,"channel":12,"program":25},{"beat":505.04167,"duration":0.27083,"midi":66,"velocity":85,"channel":6,"program":29},{"beat":505.5,"duration":0.97917,"midi":43,"velocity":86,"channel":4,"program":29},{"beat":505.5,"duration":0.97917,"midi":43,"velocity":85,"channel":5,"program":30},{"beat":505.5,"duration":0.97917,"midi":50,"velocity":85,"channel":3,"program":27},{"beat":505.5,"duration":0.97917,"midi":55,"velocity":84,"channel":6,"program":29},{"beat":505.5,"duration":0.47917,"midi":57,"velocity":89,"channel":10,"program":52},{"beat":505.5,"duration":0.47917,"midi":62,"velocity":88,"channel":10,"program":52},{"beat":505.5,"duration":0.47917,"midi":66,"velocity":89,"channel":10,"program":52},{"beat":505.5,"duration":0.47917,"midi":69,"velocity":109,"channel":10,"program":52},{"beat":505.5,"duration":0.22917,"midi":69,"velocity":71,"channel":13,"program":81},{"beat":505.52083,"duration":0.95833,"midi":50,"velocity":86,"channel":4,"program":29},{"beat":505.52083,"duration":0.95833,"midi":50,"velocity":89,"channel":5,"program":30},{"beat":505.52083,"duration":0.95833,"midi":57,"velocity":87,"channel":3,"program":27},{"beat":505.52083,"duration":0.45833,"midi":57,"velocity":85,"channel":12,"program":25},{"beat":505.52083,"duration":0.95833,"midi":62,"velocity":85,"channel":6,"program":29},{"beat":505.54167,"duration":0.9375,"midi":57,"velocity":84,"channel":4,"program":29},{"beat":505.54167,"duration":0.9375,"midi":57,"velocity":87,"channel":5,"program":30},{"beat":505.54167,"duration":0.9375,"midi":62,"velocity":87,"channel":3,"program":27},{"beat":505.54167,"duration":0.4375,"midi":62,"velocity":86,"channel":12,"program":25},{"beat":505.54167,"duration":0.9375,"midi":66,"velocity":69,"channel":6,"program":29},{"beat":506.0,"duration":0.47917,"midi":31,"velocity":95,"channel":2,"program":33},{"beat":506.0,"duration":0.47917,"midi":57,"velocity":89,"channel":10,"program":52},{"beat":506.0,"duration":0.47917,"midi":62,"velocity":89,"channel":10,"program":52},{"beat":506.0,"duration":0.47917,"midi":66,"velocity":88,"channel":10,"program":52},{"beat":506.0,"duration":0.47917,"midi":69,"velocity":106,"channel":10,"program":52},{"beat":506.0,"duration":0.22917,"midi":69,"velocity":76,"channel":13,"program":81},{"beat":506.02083,"duration":0.45833,"midi":57,"velocity":89,"channel":12,"program":25},{"beat":506.04167,"duration":0.4375,"midi":62,"velocity":91,"channel":12,"program":25},{"beat":506.5,"duration":0.47917,"midi":31,"velocity":100,"channel":2,"program":33},{"beat":506.5,"duration":0.97917,"midi":43,"velocity":85,"channel":4,"program":29},{"beat":506.5,"duration":0.47917,"midi":43,"velocity":87,"channel":5,"program":30},{"beat":506.5,"duration":0.47917,"midi":50,"velocity":79,"channel":3,"program":27},{"beat":506.5,"duration":0.47917,"midi":54,"velocity":89,"channel":10,"program":52},{"beat":506.5,"duration":0.47917,"midi":55,"velocity":90,"channel":6,"program":29},{"beat":506.5,"duration":0.47917,"midi":59,"velocity":88,"channel":10,"program":52},{"beat":506.5,"duration":0.47917,"midi":62,"velocity":87,"channel":10,"program":52},{"beat":506.5,"duration":0.47917,"midi":66,"velocity":109,"channel":10,"program":52},{"beat":506.5,"duration":0.22917,"midi":69,"velocity":71,"channel":13,"program":81},{"beat":506.52083,"duration":0.95833,"midi":50,"velocity":87,"channel":4,"program":29},{"beat":506.52083,"duration":0.45833,"midi":50,"velocity":84,"channel":5,"program":30},{"beat":506.52083,"duration":0.45833,"midi":57,"velocity":81,"channel":3,"program":27},{"beat":506.52083,"duration":0.95833,"midi":57,"velocity":84,"channel":12,"program":25},{"beat":506.52083,"duration":0.45833,"midi":62,"velocity":89,"channel":6,"program":29},{"beat":506.54167,"duration":0.4375,"midi":57,"velocity":77,"channel":5,"program":30},{"beat":506.54167,"duration":0.9375,"midi":59,"velocity":84,"channel":4,"program":29},{"beat":506.54167,"duration":0.4375,"midi":62,"velocity":78,"channel":3,"program":27},{"beat":506.54167,"duration":0.9375,"midi":62,"velocity":83,"channel":12,"program":25},{"beat":506.54167,"duration":0.4375,"midi":66,"velocity":53,"channel":6,"program":29},{"beat":507.0,"duration":0.97917,"midi":31,"velocity":96,"channel":2,"program":33},{"beat":507.0,"duration":0.97917,"midi":43,"velocity":85,"channel":5,"program":30},{"beat":507.0,"duration":0.97917,"midi":50,"velocity":76,"channel":3,"program":27},{"beat":507.0,"duration":0.35417,"midi":54,"velocity":89,"channel":10,"program":52},{"beat":507.0,"duration":0.47917,"midi":55,"velocity":85,"channel":6,"program":29},{"beat":507.0,"duration":0.35417,"midi":59,"velocity":88,"channel":10,"program":52},{"beat":507.0,"duration":0.35417,"midi":62,"velocity":88,"channel":10,"program":52},{"beat":507.0,"duration":0.35417,"midi":66,"velocity":108,"channel":10,"program":52},{"beat":507.0,"duration":0.22917,"midi":69,"velocity":80,"channel":13,"program":81},{"beat":507.02083,"duration":0.95833,"midi":50,"velocity":90,"channel":5,"program":30},{"beat":507.02083,"duration":0.95833,"midi":57,"velocity":78,"channel":3,"program":27},{"beat":507.02083,"duration":0.95833,"midi":62,"velocity":88,"channel":6,"program":29},{"beat":507.04167,"duration":0.9375,"midi":57,"velocity":87,"channel":5,"program":30},{"beat":507.04167,"duration":0.9375,"midi":62,"velocity":79,"channel":3,"program":27},{"beat":507.04167,"duration":0.9375,"midi":66,"velocity":55,"channel":6,"program":29},{"beat":507.5,"duration":0.22917,"midi":43,"velocity":82,"channel":4,"program":29},{"beat":507.5,"duration":0.8125,"midi":52,"velocity":87,"channel":10,"program":52},{"beat":507.5,"duration":0.47917,"midi":57,"velocity":86,"channel":6,"program":29},{"beat":507.5,"duration":0.8125,"midi":57,"velocity":89,"channel":10,"program":52},{"beat":507.5,"duration":0.8125,"midi":64,"velocity":108,"channel":10,"program":52},{"beat":507.5,"duration":0.8125,"midi":69,"velocity":89,"channel":10,"program":52},{"beat":507.5,"duration":0.22917,"midi":69,"velocity":71,"channel":13,"program":81},{"beat":507.5,"duration":0.52083,"midi":76,"velocity":70,"channel":7,"program":29},{"beat":507.52083,"duration":0.20833,"midi":50,"velocity":78,"channel":4,"program":29},{"beat":507.52083,"duration":0.20833,"midi":57,"velocity":81,"channel":12,"program":25},{"beat":507.54167,"duration":0.1875,"midi":57,"velocity":77,"channel":4,"program":29},{"beat":507.54167,"duration":0.1875,"midi":62,"velocity":83,"channel":12,"program":25},{"beat":507.75,"duration":0.22917,"midi":43,"velocity":77,"channel":4,"program":29},{"beat":507.77083,"duration":0.20833,"midi":50,"velocity":82,"channel":4,"program":29},{"beat":507.77083,"duration":0.20833,"midi":57,"velocity":86,"channel":12,"program":25},{"beat":507.79167,"duration":0.1875,"midi":57,"velocity":77,"channel":4,"program":29},{"beat":507.79167,"duration":0.1875,"midi":62,"velocity":82,"channel":12,"program":25},{"beat":508.0,"duration":0.47917,"midi":33,"velocity":98,"channel":2,"program":33},{"beat":508.0,"duration":0.97917,"midi":45,"velocity":87,"channel":4,"program":29},{"beat":508.0,"duration":0.97917,"midi":45,"velocity":86,"channel":5,"program":30},{"beat":508.0,"duration":0.97917,"midi":52,"velocity":88,"channel":3,"program":27},{"beat":508.0,"duration":0.97917,"midi":52,"velocity":85,"channel":6,"program":29},{"beat":508.0,"duration":0.22917,"midi":69,"velocity":65,"channel":13,"program":81},{"beat":508.0,"duration":3.97917,"midi":73,"velocity":84,"channel":7,"program":51},{"beat":508.0,"duration":0.47917,"midi":79,"velocity":70,"channel":7,"program":29},{"beat":508.0,"duration":3.97917,"midi":85,"velocity":74,"channel":7,"program":51},{"beat":508.02083,"duration":0.95833,"midi":52,"velocity":90,"channel":4,"program":29},{"beat":508.02083,"duration":0.95833,"midi":52,"velocity":84,"channel":5,"program":30},{"beat":508.02083,"duration":0.95833,"midi":57,"velocity":88,"channel":3,"program":27},{"beat":508.02083,"duration":0.95833,"midi":57,"velocity":84,"channel":6,"program":29},{"beat":508.02083,"duration":0.95833,"midi":61,"velocity":90,"channel":12,"program":25},{"beat":508.04167,"duration":0.9375,"midi":57,"velocity":90,"channel":4,"program":29},{"beat":508.04167,"duration":0.9375,"midi":57,"velocity":90,"channel":5,"program":30},{"beat":508.04167,"duration":0.9375,"midi":61,"velocity":85,"channel":3,"program":27},{"beat":508.04167,"duration":0.9375,"midi":64,"velocity":98,"channel":12,"program":25},{"beat":508.5,"duration":0.47917,"midi":33,"velocity":95,"channel":2,"program":33},{"beat":508.5,"duration":0.72917,"midi":54,"velocity":89,"channel":10,"program":52},{"beat":508.5,"duration":0.72917,"midi":57,"velocity":88,"channel":10,"program":52},{"beat":508.5,"duration":0.72917,"midi":66,"velocity":109,"channel":10,"program":52},{"beat":508.5,"duration":0.72917,"midi":69,"velocity":89,"channel":10,"program":52},{"beat":508.5,"duration":0.22917,"midi":69,"velocity":70,"channel":13,"program":81},{"beat":508.5,"duration":0.47917,"midi":81,"velocity":75,"channel":7,"program":29},{"beat":509.0,"duration":0.47917,"midi":33,"velocity":98,"channel":2,"program":33},{"beat":509.0,"duration":0.47917,"midi":45,"velocity":84,"channel":4,"program":29},{"beat":509.0,"duration":0.47917,"midi":45,"velocity":86,"channel":5,"program":30},{"beat":509.0,"duration":0.47917,"midi":52,"velocity":79,"channel":3,"program":27},{"beat":509.0,"duration":0.47917,"midi":52,"velocity":85,"channel":6,"program":29},{"beat":509.0,"duration":0.22917,"midi":69,"velocity":83,"channel":13,"program":81},{"beat":509.0,"duration":0.52083,"midi":81,"velocity":90,"channel":7,"program":29},{"beat":509.02083,"duration":0.45833,"midi":52,"velocity":86,"channel":4,"program":29},{"beat":509.02083,"duration":0.45833,"midi":52,"velocity":78,"channel":5,"program":30},{"beat":509.02083,"duration":0.45833,"midi":57,"velocity":80,"channel":3,"program":27},{"beat":509.02083,"duration":0.45833,"midi":57,"velocity":79,"channel":4,"program":29},{"beat":509.02083,"duration":0.45833,"midi":57,"velocity":86,"channel":6,"program":29},{"beat":509.02083,"duration":0.45833,"midi":61,"velocity":86,"channel":6,"program":29},{"beat":509.02083,"duration":0.45833,"midi":61,"velocity":94,"channel":12,"program":25},{"beat":509.04167,"duration":0.4375,"midi":57,"velocity":76,"channel":5,"program":30},{"beat":509.04167,"duration":0.4375,"midi":61,"velocity":77,"channel":3,"program":27},{"beat":509.04167,"duration":0.4375,"midi":64,"velocity":96,"channel":12,"program":25},{"beat":509.5,"duration":0.47917,"midi":40,"velocity":95,"channel":2,"program":33},{"beat":509.5,"duration":0.97917,"midi":45,"velocity":89,"channel":4,"program":29},{"beat":509.5,"duration":0.97917,"midi":45,"velocity":87,"channel":5,"program":30},{"beat":509.5,"duration":0.97917,"midi":52,"velocity":84,"channel":3,"program":27},{"beat":509.5,"duration":0.97917,"midi":52,"velocity":88,"channel":6,"program":29},{"beat":509.5,"duration":0.8125,"midi":52,"velocity":89,"channel":10,"program":52},{"beat":509.5,"duration":0.8125,"midi":57,"velocity":88,"channel":10,"program":52},{"beat":509.5,"duration":0.8125,"midi":64,"velocity":110,"channel":10,"program":52},{"beat":509.5,"duration":0.8125,"midi":69,"velocity":89,"channel":10,"program":52},{"beat":509.5,"duration":0.22917,"midi":69,"velocity":73,"channel":13,"program":81},{"beat":509.5,"duration":0.375,"midi":79,"velocity":80,"channel":7,"program":29},{"beat":509.52083,"duration":0.95833,"midi":52,"velocity":90,"channel":4,"program":29},{"beat":509.52083,"duration":0.95833,"midi":52,"velocity":90,"channel":5,"program":30},{"beat":509.52083,"duration":0.95833,"midi":57,"velocity":89,"channel":3,"program":27},{"beat":509.52083,"duration":0.95833,"midi":57,"velocity":86,"channel":6,"program":29},{"beat":509.52083,"duration":0.45833,"midi":61,"velocity":84,"channel":12,"program":25},{"beat":509.54167,"duration":0.9375,"midi":57,"velocity":82,"channel":4,"program":29},{"beat":509.54167,"duration":0.9375,"midi":61,"velocity":84,"channel":3,"program":27},{"beat":509.54167,"duration":0.9375,"midi":61,"velocity":77,"channel":5,"program":30},{"beat":509.54167,"duration":0.4375,"midi":64,"velocity":85,"channel":12,"program":25},{"beat":510.0,"duration":0.47917,"midi":45,"velocity":92,"channel":2,"program":33},{"beat":510.0,"duration":0.22917,"midi":69,"velocity":78,"channel":13,"program":81},{"beat":510.0,"duration":0.39583,"midi":76,"velocity":84,"channel":7,"program":29},{"beat":510.02083,"duration":0.45833,"midi":61,"velocity":90,"channel":12,"program":25},{"beat":510.04167,"duration":0.4375,"midi":64,"velocity":90,"channel":12,"program":25},{"beat":510.5,"duration":0.47917,"midi":45,"velocity":89,"channel":4,"program":29},{"beat":510.5,"duration":0.47917,"midi":45,"velocity":89,"channel":5,"program":30},{"beat":510.5,"duration":0.47917,"midi":50,"velocity":88,"channel":10,"program":52},{"beat":510.5,"duration":0.47917,"midi":52,"velocity":86,"channel":2,"program":33},{"beat":510.5,"duration":0.47917,"midi":52,"velocity":76,"channel":3,"program":27},{"beat":510.5,"duration":0.47917,"midi":52,"velocity":87,"channel":6,"program":29},{"beat":510.5,"duration":0.47917,"midi":57,"velocity":89,"channel":10,"program":52},{"beat":510.5,"duration":0.47917,"midi":62,"velocity":106,"channel":10,"program":52},{"beat":510.5,"duration":0.47917,"midi":69,"velocity":89,"channel":10,"program":52},{"beat":510.5,"duration":0.22917,"midi":69,"velocity":77,"channel":13,"program":81},{"beat":510.5,"duration":0.97917,"midi":73,"velocity":100,"channel":1,"program":52},{"beat":510.5,"duration":0.97917,"midi":76,"velocity":90,"channel":7,"program":29},{"beat":510.52083,"duration":0.45833,"midi":52,"velocity":89,"channel":4,"program":29},{"beat":510.52083,"duration":0.45833,"midi":52,"velocity":89,"channel":5,"program":30},{"beat":510.52083,"duration":0.45833,"midi":57,"velocity":80,"channel":3,"program":27},{"beat":510.52083,"duration":0.45833,"midi":57,"velocity":85,"channel":6,"program":29},{"beat":510.52083,"duration":0.95833,"midi":61,"velocity":87,"channel":12,"program":25},{"beat":510.54167,"duration":0.4375,"midi":57,"velocity":83,"channel":4,"program":29},{"beat":510.54167,"duration":0.4375,"midi":61,"velocity":79,"channel":3,"program":27},{"beat":510.54167,"duration":0.4375,"midi":61,"velocity":77,"channel":5,"program":30},{"beat":510.54167,"duration":0.9375,"midi":64,"velocity":90,"channel":12,"program":25},{"beat":511.0,"duration":0.97917,"midi":45,"velocity":88,"channel":4,"program":29},{"beat":511.0,"duration":0.97917,"midi":45,"velocity":84,"channel":5,"program":30},{"beat":511.0,"duration":0.97917,"midi":49,"velocity":85,"channel":2,"program":33},{"beat":511.0,"duration":0.47917,"midi":49,"velocity":89,"channel":10,"program":52},{"beat":511.0,"duration":0.97917,"midi":50,"velocity":85,"channel":6,"program":29},{"beat":511.0,"duration":0.47917,"midi":52,"velocity":76,"channel":3,"program":27},{"beat":511.0,"duration":0.47917,"midi":57,"velocity":89,"channel":10,"program":52},{"beat":511.0,"duration":0.47917,"midi":61,"velocity":109,"channel":10,"program":52},{"beat":511.0,"duration":0.47917,"midi":69,"velocity":89,"channel":10,"program":52},{"beat":511.0,"duration":0.22917,"midi":69,"velocity":86,"channel":13,"program":81},{"beat":511.02083,"duration":0.95833,"midi":52,"velocity":88,"channel":4,"program":29},{"beat":511.02083,"duration":0.95833,"midi":52,"velocity":85,"channel":5,"program":30},{"beat":511.02083,"duration":0.45833,"midi":57,"velocity":81,"channel":3,"program":27},{"beat":511.02083,"duration":0.95833,"midi":57,"velocity":89,"channel":6,"program":29},{"beat":511.04167,"duration":0.9375,"midi":57,"velocity":78,"channel":4,"program":29},{"beat":511.04167,"duration":0.9375,"midi":61,"velocity":78,"channel":5,"program":30},{"beat":511.04167,"duration":0.4375,"midi":62,"velocity":82,"channel":3,"program":27},{"beat":511.5,"duration":0.72917,"midi":50,"velocity":88,"channel":10,"program":52},{"beat":511.5,"duration":0.47917,"midi":52,"velocity":80,"channel":3,"program":27},{"beat":511.5,"duration":0.72917,"midi":57,"velocity":88,"channel":10,"program":52},{"beat":511.5,"duration":0.72917,"midi":62,"velocity":108,"channel":10,"program":52},{"beat":511.5,"duration":0.72917,"midi":69,"velocity":89,"channel":10,"program":52},{"beat":511.5,"duration":0.22917,"midi":69,"velocity":75,"channel":13,"program":81},{"beat":511.5,"duration":1.47917,"midi":74,"velocity":100,"channel":1,"program":52},{"beat":511.5,"duration":0.52083,"midi":81,"velocity":70,"channel":7,"program":29},{"beat":511.52083,"duration":0.45833,"midi":57,"velocity":80,"channel":3,"program":27},{"beat":511.52083,"duration":0.20833,"midi":61,"velocity":86,"channel":12,"program":25},{"beat":511.54167,"duration":0.4375,"midi":61,"velocity":81,"channel":3,"program":27},{"beat":511.54167,"duration":0.1875,"midi":64,"velocity":87,"channel":12,"program":25},{"beat":511.77083,"duration":0.20833,"midi":61,"velocity":89,"channel":12,"program":25},{"beat":511.79167,"duration":0.1875,"midi":64,"velocity":83,"channel":12,"program":25},{"beat":512.0,"duration":0.97917,"midi":35,"velocity":94,"channel":2,"program":33},{"beat":512.0,"duration":0.97917,"midi":47,"velocity":87,"channel":3,"program":27},{"beat":512.0,"duration":0.97917,"midi":47,"velocity":84,"channel":4,"program":29},{"beat":512.0,"duration":0.97917,"midi":47,"velocity":84,"channel":5,"program":30},{"beat":512.0,"duration":0.97917,"midi":50,"velocity":90,"channel":6,"program":29},{"beat":512.0,"duration":0.97917,"midi":54,"velocity":88,"channel":5,"program":30},{"beat":512.0,"duration":0.22917,"midi":69,"velocity":82,"channel":13,"program":81},{"beat":512.0,"duration":3.97917,"midi":74,"velocity":90,"channel":7,"program":51},{"beat":512.0,"duration":0.29167,"midi":83,"velocity":80,"channel":7,"program":29},{"beat":512.0,"duration":3.97917,"midi":86,"velocity":74,"channel":7,"program":51},{"beat":512.02083,"duration":0.95833,"midi":54,"velocity":84,"channel":4,"program":29},{"beat":512.02083,"duration":0.95833,"midi":57,"velocity":88,"channel":3,"program":27},{"beat":512.02083,"duration":0.95833,"midi":57,"velocity":82,"channel":5,"program":30},{"beat":512.02083,"duration":0.95833,"midi":57,"velocity":93,"channel":12,"program":25},{"beat":512.02083,"duration":0.95833,"midi":59,"velocity":79,"channel":6,"program":29},{"beat":512.04167,"duration":0.9375,"midi":57,"velocity":90,"channel":4,"program":29},{"beat":512.04167,"duration":0.9375,"midi":59,"velocity":67,"channel":5,"program":30},{"beat":512.04167,"duration":0.9375,"midi":62,"velocity":89,"channel":3,"program":27},{"beat":512.04167,"duration":0.9375,"midi":62,"velocity":97,"channel":12,"program":25},{"beat":512.5,"duration":0.22917,"midi":69,"velocity":69,"channel":13,"program":81},{"beat":512.5,"duration":0.27083,"midi":81,"velocity":80,"channel":7,"program":29},{"beat":513.0,"duration":0.47917,"midi":35,"velocity":97,"channel":2,"program":33},{"beat":513.0,"duration":0.47917,"midi":47,"velocity":85,"channel":3,"program":27},{"beat":513.0,"duration":0.47917,"midi":47,"velocity":90,"channel":4,"program":29},{"beat":513.0,"duration":0.47917,"midi":47,"velocity":86,"channel":5,"program":30},{"beat":513.0,"duration":0.47917,"midi":50,"velocity":85,"channel":6,"program":29},{"beat":513.0,"duration":0.47917,"midi":54,"velocity":84,"channel":5,"program":30},{"beat":513.0,"duration":0.97917,"midi":59,"velocity":99,"channel":1,"program":52},{"beat":513.0,"duration":0.22917,"midi":69,"velocity":84,"channel":13,"program":81},{"beat":513.0,"duration":0.22917,"midi":74,"velocity":70,"channel":7,"program":29},{"beat":513.02083,"duration":0.45833,"midi":54,"velocity":87,"channel":4,"program":29},{"beat":513.02083,"duration":0.45833,"midi":57,"velocity":86,"channel":3,"program":27},{"beat":513.02083,"duration":0.45833,"midi":57,"velocity":79,"channel":5,"program":30},{"beat":513.02083,"duration":0.45833,"midi":57,"velocity":97,"channel":12,"program":25},{"beat":513.02083,"duration":0.45833,"midi":61,"velocity":76,"channel":6,"program":29},{"beat":513.04167,"duration":0.4375,"midi":57,"velocity":80,"channel":4,"program":29},{"beat":513.04167,"duration":1.4375,"midi":59,"velocity":71,"channel":5,"program":30},{"beat":513.04167,"duration":0.4375,"midi":62,"velocity":88,"channel":3,"program":27},{"beat":513.04167,"duration":0.4375,"midi":62,"velocity":96,"channel":12,"program":25},{"beat":513.25,"duration":0.22917,"midi":74,"velocity":80,"channel":7,"program":29},{"beat":513.5,"duration":0.47917,"midi":38,"velocity":94,"channel":2,"program":33},{"beat":513.5,"duration":0.97917,"midi":47,"velocity":77,"channel":3,"program":27},{"beat":513.5,"duration":0.97917,"midi":47,"velocity":85,"channel":4,"program":29},{"beat":513.5,"duration":0.97917,"midi":47,"velocity":90,"channel":5,"program":30},{"beat":513.5,"duration":0.97917,"midi":50,"velocity":84,"channel":6,"program":29},{"beat":513.5,"duration":0.97917,"midi":54,"velocity":87,"channel":5,"program":30},{"beat":513.5,"duration":0.22917,"midi":69,"velocity":71,"channel":13,"program":81},{"beat":513.5,"duration":0.3125,"midi":74,"velocity":80,"channel":7,"program":29},{"beat":513.52083,"duration":0.95833,"midi":54,"velocity":82,"channel":3,"program":27},{"beat":513.52083,"duration":0.95833,"midi":54,"velocity":87,"channel":4,"program":29},{"beat":513.52083,"duration":0.95833,"midi":57,"velocity":78,"channel":5,"program":30},{"beat":513.52083,"duration":0.45833,"midi":57,"velocity":85,"channel":12,"program":25},{"beat":513.52083,"duration":0.95833,"midi":59,"velocity":84,"channel":6,"program":29},{"beat":513.54167,"duration":0.9375,"midi":57,"velocity":83,"channel":4,"program":29},{"beat":513.54167,"duration":0.9375,"midi":62,"velocity":76,"channel":3,"program":27},{"beat":513.54167,"duration":0.4375,"midi":62,"velocity":84,"channel":12,"program":25},{"beat":514.0,"duration":0.47917,"midi":42,"velocity":97,"channel":2,"program":33},{"beat":514.0,"duration":0.22917,"midi":69,"velocity":76,"channel":13,"program":81},{"beat":514.02083,"duration":0.45833,"midi":57,"velocity":90,"channel":12,"program":25},{"beat":514.04167,"duration":0.4375,"midi":62,"velocity":88,"channel":12,"program":25},{"beat":514.25,"duration":0.52083,"midi":78,"velocity":84,"channel":7,"program":29},{"beat":514.5,"duration":0.47917,"midi":42,"velocity":100,"channel":2,"program":33},{"beat":514.5,"duration":0.97917,"midi":47,"velocity":88,"channel":3,"program":27},{"beat":514.5,"duration":0.47917,"midi":47,"velocity":90,"channel":4,"program":29},{"beat":514.5,"duration":0.47917,"midi":47,"velocity":84,"channel":5,"program":30},{"beat":514.5,"duration":0.47917,"midi":50,"velocity":89,"channel":6,"program":29},{"beat":514.5,"duration":0.47917,"midi":54,"velocity":84,"channel":5,"program":30},{"beat":514.5,"duration":0.22917,"midi":69,"velocity":71,"channel":13,"program":81},{"beat":514.52083,"duration":0.45833,"midi":54,"velocity":85,"channel":4,"program":29},{"beat":514.52083,"duration":0.95833,"midi":57,"velocity":87,"channel":3,"program":27},{"beat":514.52083,"duration":0.45833,"midi":57,"velocity":81,"channel":5,"program":30},{"beat":514.52083,"duration":0.95833,"midi":57,"velocity":85,"channel":12,"program":25},{"beat":514.52083,"duration":0.45833,"midi":62,"velocity":88,"channel":6,"program":29},{"beat":514.54167,"duration":0.4375,"midi":57,"velocity":83,"channel":4,"program":29},{"beat":514.54167,"duration":0.9375,"midi":62,"velocity":89,"channel":3,"program":27},{"beat":514.54167,"duration":0.9375,"midi":62,"velocity":79,"channel":5,"program":30},{"beat":514.54167,"duration":0.9375,"midi":62,"velocity":80,"channel":12,"program":25},{"beat":514.75,"duration":0.22917,"midi":76,"velocity":70,"channel":7,"program":29},{"beat":515.0,"duration":0.97917,"midi":42,"velocity":100,"channel":2,"program":33},{"beat":515.0,"duration":0.97917,"midi":47,"velocity":84,"channel":4,"program":29},{"beat":515.0,"duration":0.47917,"midi":47,"velocity":84,"channel":5,"program":30},{"beat":515.0,"duration":0.97917,"midi":50,"velocity":90,"channel":6,"program":29},{"beat":515.0,"duration":0.47917,"midi":54,"velocity":88,"channel":5,"program":30},{"beat":515.0,"duration":0.22917,"midi":69,"velocity":80,"channel":13,"program":81},{"beat":515.0,"duration":0.27083,"midi":76,"velocity":85,"channel":7,"program":29},{"beat":515.02083,"duration":0.95833,"midi":54,"velocity":89,"channel":4,"program":29},{"beat":515.02083,"duration":0.95833,"midi":57,"velocity":77,"channel":5,"program":30},{"beat":515.02083,"duration":0.95833,"midi":62,"velocity":87,"channel":6,"program":29},{"beat":515.04167,"duration":0.9375,"midi":57,"velocity":82,"channel":4,"program":29},{"beat":515.25,"duration":0.52083,"midi":74,"velocity":90,"channel":7,"program":29},{"beat":515.5,"duration":0.47917,"midi":47,"velocity":77,"channel":3,"program":27},{"beat":515.5,"duration":0.22917,"midi":47,"velocity":84,"channel":5,"program":30},{"beat":515.5,"duration":0.22917,"midi":54,"velocity":88,"channel":5,"program":30},{"beat":515.5,"duration":0.22917,"midi":69,"velocity":71,"channel":13,"program":81},{"beat":515.52083,"duration":0.45833,"midi":57,"velocity":78,"channel":3,"program":27},{"beat":515.52083,"duration":0.20833,"midi":57,"velocity":84,"channel":12,"program":25},{"beat":515.54167,"duration":0.4375,"midi":62,"velocity":79,"channel":3,"program":27},{"beat":515.54167,"duration":0.4375,"midi":62,"velocity":68,"channel":5,"program":30},{"beat":515.54167,"duration":0.1875,"midi":62,"velocity":84,"channel":12,"program":25},{"beat":515.75,"duration":0.22917,"midi":47,"velocity":84,"channel":5,"program":30},{"beat":515.75,"duration":0.22917,"midi":54,"velocity":88,"channel":5,"program":30},{"beat":515.75,"duration":0.22917,"midi":73,"velocity":80,"channel":7,"program":29},{"beat":515.77083,"duration":0.20833,"midi":57,"velocity":86,"channel":12,"program":25},{"beat":515.79167,"duration":0.1875,"midi":62,"velocity":86,"channel":12,"program":25},{"beat":516.0,"duration":0.47917,"midi":38,"velocity":97,"channel":2,"program":33},{"beat":516.0,"duration":0.47917,"midi":50,"velocity":88,"channel":3,"program":27},{"beat":516.0,"duration":0.97917,"midi":50,"velocity":88,"channel":4,"program":29},{"beat":516.0,"duration":0.97917,"midi":50,"velocity":89,"channel":5,"program":30},{"beat":516.0,"duration":0.47917,"midi":50,"velocity":88,"channel":6,"program":29},{"beat":516.0,"duration":1.97917,"midi":66,"velocity":89,"channel":7,"program":51},{"beat":516.0,"duration":0.22917,"midi":69,"velocity":65,"channel":13,"program":81},{"beat":516.0,"duration":1.97917,"midi":71,"velocity":80,"channel":14,"program":29},{"beat":516.0,"duration":0.35417,"midi":76,"velocity":87,"channel":7,"program":29},{"beat":516.0,"duration":1.97917,"midi":83,"velocity":85,"channel":7,"program":51},{"beat":516.0,"duration":1.97917,"midi":95,"velocity":78,"channel":7,"program":51},{"beat":516.02083,"duration":0.45833,"midi":57,"velocity":84,"channel":3,"program":27},{"beat":516.02083,"duration":0.95833,"midi":57,"velocity":89,"channel":4,"program":29},{"beat":516.02083,"duration":0.95833,"midi":57,"velocity":89,"channel":5,"program":30},{"beat":516.02083,"duration":0.45833,"midi":57,"velocity":86,"channel":6,"program":29},{"beat":516.02083,"duration":0.95833,"midi":57,"velocity":99,"channel":12,"program":25},{"beat":516.02083,"duration":1.97917,"midi":83,"velocity":60,"channel":14,"program":29},{"beat":516.04167,"duration":0.9375,"midi":62,"velocity":90,"channel":5,"program":30},{"beat":516.04167,"duration":0.9375,"midi":62,"velocity":93,"channel":12,"program":25},{"beat":516.04167,"duration":0.4375,"midi":64,"velocity":84,"channel":3,"program":27},{"beat":516.5,"duration":0.47917,"midi":38,"velocity":100,"channel":2,"program":33},{"beat":516.5,"duration":0.72917,"midi":50,"velocity":88,"channel":3,"program":27},{"beat":516.5,"duration":0.97917,"midi":50,"velocity":88,"channel":6,"program":29},{"beat":516.5,"duration":0.22917,"midi":69,"velocity":70,"channel":13,"program":81},{"beat":516.5,"duration":0.27083,"midi":74,"velocity":86,"channel":7,"program":29},{"beat":516.52083,"duration":0.70833,"midi":57,"velocity":89,"channel":3,"program":27},{"beat":516.52083,"duration":0.95833,"midi":57,"velocity":90,"channel":6,"program":29},{"beat":516.54167,"duration":0.6875,"midi":64,"velocity":88,"channel":3,"program":27},{"beat":516.54167,"duration":0.4375,"midi":64,"velocity":86,"channel":6,"program":29},{"beat":516.75,"duration":0.22917,"midi":73,"velocity":86,"channel":7,"program":29},{"beat":517.0,"duration":0.47917,"midi":38,"velocity":96,"channel":2,"program":33},{"beat":517.0,"duration":0.47917,"midi":50,"velocity":84,"channel":4,"program":29},{"beat":517.0,"duration":0.47917,"midi":50,"velocity":86,"channel":5,"program":30},{"beat":517.0,"duration":0.22917,"midi":69,"velocity":83,"channel":13,"program":81},{"beat":517.0,"duration":0.27083,"midi":71,"velocity":88,"channel":7,"program":29},{"beat":517.02083,"duration":0.45833,"midi":57,"velocity":86,"channel":4,"program":29},{"beat":517.02083,"duration":0.45833,"midi":57,"velocity":89,"channel":5,"program":30},{"beat":517.02083,"duration":0.45833,"midi":57,"velocity":95,"channel":12,"program":25},{"beat":517.04167,"duration":0.4375,"midi":62,"velocity":70,"channel":5,"program":30},{"beat":517.04167,"duration":0.4375,"midi":62,"velocity":97,"channel":12,"program":25},{"beat":517.25,"duration":0.22917,"midi":73,"velocity":80,"channel":7,"program":29},{"beat":517.5,"duration":0.47917,"midi":45,"velocity":90,"channel":2,"program":33},{"beat":517.5,"duration":0.97917,"midi":50,"velocity":84,"channel":3,"program":27},{"beat":517.5,"duration":0.97917,"midi":50,"velocity":86,"channel":4,"program":29},{"beat":517.5,"duration":0.97917,"midi":50,"velocity":88,"channel":5,"program":30},{"beat":517.5,"duration":0.97917,"midi":50,"velocity":90,"channel":6,"program":29},{"beat":517.5,"duration":0.22917,"midi":69,"velocity":73,"channel":13,"program":81},{"beat":517.5,"duration":0.33333,"midi":71,"velocity":80,"channel":7,"program":29},{"beat":517.52083,"duration":0.95833,"midi":57,"velocity":86,"channel":3,"program":27},{"beat":517.52083,"duration":0.95833,"midi":57,"velocity":89,"channel":4,"program":29},{"beat":517.52083,"duration":0.95833,"midi":57,"velocity":85,"channel":5,"program":30},{"beat":517.52083,"duration":0.95833,"midi":57,"velocity":89,"channel":6,"program":29},{"beat":517.52083,"duration":0.95833,"midi":57,"velocity":85,"channel":12,"program":25},{"beat":517.54167,"duration":0.9375,"midi":62,"velocity":71,"channel":5,"program":30},{"beat":517.54167,"duration":0.9375,"midi":62,"velocity":82,"channel":12,"program":25},{"beat":517.54167,"duration":0.9375,"midi":64,"velocity":88,"channel":3,"program":27},{"beat":517.54167,"duration":0.4375,"midi":64,"velocity":89,"channel":6,"program":29},{"beat":517.75,"duration":0.25,"midi":66,"velocity":73,"channel":7,"program":29},{"beat":518.0,"duration":0.47917,"midi":45,"velocity":100,"channel":2,"program":33},{"beat":518.0,"duration":1.97917,"midi":66,"velocity":86,"channel":7,"program":51},{"beat":518.0,"duration":0.22917,"midi":69,"velocity":70,"channel":6,"program":29},{"beat":518.0,"duration":0.22917,"midi":69,"velocity":78,"channel":13,"program":81},{"beat":518.0,"duration":1.97917,"midi":69,"velocity":70,"channel":14,"program":29},{"beat":518.0,"duration":0.25,"midi":71,"velocity":73,"channel":7,"program":29},{"beat":518.0,"duration":1.97917,"midi":81,"velocity":89,"channel":7,"program":51},{"beat":518.0,"duration":1.97917,"midi":93,"velocity":78,"channel":7,"program":51},{"beat":518.02083,"duration":1.97917,"midi":81,"velocity":53,"channel":14,"program":29},{"beat":518.25,"duration":0.22917,"midi":69,"velocity":62,"channel":6,"program":29},{"beat":518.5,"duration":0.47917,"midi":50,"velocity":89,"channel":3,"program":27},{"beat":518.5,"duration":0.47917,"midi":50,"velocity":77,"channel":4,"program":29},{"beat":518.5,"duration":0.47917,"midi":50,"velocity":85,"channel":5,"program":30},{"beat":518.5,"duration":0.47917,"midi":50,"velocity":86,"channel":6,"program":29},{"beat":518.5,"duration":0.39583,"midi":57,"velocity":89,"channel":1,"program":52},{"beat":518.5,"duration":0.39583,"midi":62,"velocity":88,"channel":1,"program":52},{"beat":518.5,"duration":0.39583,"midi":66,"velocity":90,"channel":1,"program":52},{"beat":518.5,"duration":0.22917,"midi":69,"velocity":70,"channel":6,"program":29},{"beat":518.5,"duration":0.22917,"midi":69,"velocity":88,"channel":7,"program":29},{"beat":518.5,"duration":0.22917,"midi":69,"velocity":77,"channel":13,"program":81},{"beat":518.5,"duration":0.39583,"midi":81,"velocity":98,"channel":0,"program":22},{"beat":518.52083,"duration":0.45833,"midi":57,"velocity":89,"channel":3,"program":27},{"beat":518.52083,"duration":0.45833,"midi":57,"velocity":80,"channel":4,"program":29},{"beat":518.52083,"duration":0.45833,"midi":57,"velocity":86,"channel":5,"program":30},{"beat":518.52083,"duration":0.45833,"midi":57,"velocity":90,"channel":6,"program":29},{"beat":518.52083,"duration":0.95833,"midi":57,"velocity":88,"channel":12,"program":25},{"beat":518.54167,"duration":0.4375,"midi":62,"velocity":71,"channel":5,"program":30},{"beat":518.54167,"duration":0.9375,"midi":62,"velocity":86,"channel":12,"program":25},{"beat":518.54167,"duration":0.4375,"midi":66,"velocity":90,"channel":3,"program":27},{"beat":518.75,"duration":0.22917,"midi":69,"velocity":75,"channel":6,"program":29},{"beat":518.75,"duration":0.22917,"midi":69,"velocity":80,"channel":7,"program":29},{"beat":519.0,"duration":0.97917,"midi":47,"velocity":94,"channel":2,"program":33},{"beat":519.0,"duration":0.97917,"midi":50,"velocity":81,"channel":3,"program":27},{"beat":519.0,"duration":0.97917,"midi":50,"velocity":81,"channel":4,"program":29},{"beat":519.0,"duration":0.97917,"midi":50,"velocity":90,"channel":5,"program":30},{"beat":519.0,"duration":0.97917,"midi":50,"velocity":88,"channel":6,"program":29},{"beat":519.0,"duration":0.39583,"midi":57,"velocity":88,"channel":1,"program":52},{"beat":519.0,"duration":0.39583,"midi":62,"velocity":88,"channel":1,"program":52},{"beat":519.0,"duration":1.0,"midi":64,"velocity":80,"channel":7,"program":29},{"beat":519.0,"duration":0.39583,"midi":66,"velocity":88,"channel":1,"program":52},{"beat":519.0,"duration":0.97917,"midi":69,"velocity":60,"channel":6,"program":29},{"beat":519.0,"duration":0.47917,"midi":69,"velocity":80,"channel":7,"program":29},{"beat":519.0,"duration":0.22917,"midi":69,"velocity":86,"channel":13,"program":81},{"beat":519.0,"duration":0.39583,"midi":81,"velocity":100,"channel":0,"program":22},{"beat":519.02083,"duration":0.95833,"midi":57,"velocity":80,"channel":3,"program":27},{"beat":519.02083,"duration":0.95833,"midi":57,"velocity":80,"channel":4,"program":29},{"beat":519.02083,"duration":0.95833,"midi":57,"velocity":89,"channel":5,"program":30},{"beat":519.02083,"duration":0.95833,"midi":57,"velocity":90,"channel":6,"program":29},{"beat":519.04167,"duration":0.9375,"midi":62,"velocity":70,"channel":5,"program":30},{"beat":519.04167,"duration":0.9375,"midi":66,"velocity":77,"channel":3,"program":27},{"beat":519.5,"duration":0.47917,"midi":54,"velocity":88,"channel":1,"program":52},{"beat":519.5,"duration":0.47917,"midi":59,"velocity":89,"channel":1,"program":52},{"beat":519.5,"duration":0.47917,"midi":62,"velocity":90,"channel":1,"program":52},{"beat":519.5,"duration":0.22917,"midi":69,"velocity":75,"channel":13,"program":81},{"beat":519.5,"duration":0.47917,"midi":78,"velocity":102,"channel":0,"program":22},{"beat":519.52083,"duration":0.20833,"midi":57,"velocity":86,"channel":12,"program":25},{"beat":519.54167,"duration":0.1875,"midi":62,"velocity":87,"channel":12,"program":25},{"beat":519.77083,"duration":0.20833,"midi":57,"velocity":87,"channel":12,"program":25},{"beat":519.79167,"duration":0.1875,"midi":62,"velocity":85,"channel":12,"program":25},{"beat":520.0,"duration":0.97917,"midi":31,"velocity":98,"channel":2,"program":33},{"beat":520.0,"duration":0.97917,"midi":43,"velocity":88,"channel":4,"program":29},{"beat":520.0,"duration":0.97917,"midi":43,"velocity":89,"channel":5,"program":30},{"beat":520.0,"duration":0.97917,"midi":50,"velocity":90,"channel":6,"program":29},{"beat":520.0,"duration":0.97917,"midi":55,"velocity":84,"channel":3,"program":27},{"beat":520.0,"duration":0.97917,"midi":57,"velocity":87,"channel":1,"program":52},{"beat":520.0,"duration":0.97917,"midi":62,"velocity":88,"channel":1,"program":52},{"beat":520.0,"duration":0.97917,"midi":66,"velocity":90,"channel":1,"program":52},{"beat":520.0,"duration":0.22917,"midi":69,"velocity":82,"channel":13,"program":81},{"beat":520.0,"duration":3.97917,"midi":74,"velocity":86,"channel":7,"program":51},{"beat":520.0,"duration":0.97917,"midi":81,"velocity":101,"channel":0,"program":22},{"beat":520.0,"duration":3.97917,"midi":86,"velocity":75,"channel":7,"program":51},{"beat":520.02083,"duration":0.95833,"midi":50,"velocity":89,"channel":4,"program":29},{"beat":520.02083,"duration":0.95833,"midi":50,"velocity":87,"channel":5,"program":30},{"beat":520.02083,"duration":0.45833,"midi":55,"velocity":75,"channel":6,"program":29},{"beat":520.02083,"duration":0.95833,"midi":59,"velocity":88,"channel":3,"program":27},{"beat":520.02083,"duration":0.95833,"midi":59,"velocity":91,"channel":12,"program":25},{"beat":520.04167,"duration":0.9375,"midi":55,"velocity":86,"channel":5,"program":30},{"beat":520.04167,"duration":0.4375,"midi":57,"velocity":82,"channel":4,"program":29},{"beat":520.04167,"duration":0.9375,"midi":62,"velocity":86,"channel":3,"program":27},{"beat":520.04167,"duration":0.9375,"midi":62,"velocity":91,"channel":12,"program":25},{"beat":520.5,"duration":0.22917,"midi":69,"velocity":69,"channel":13,"program":81},{"beat":520.52083,"duration":0.45833,"midi":55,"velocity":76,"channel":6,"program":29},{"beat":520.52083,"duration":0.45833,"midi":59,"velocity":81,"channel":4,"program":29},{"beat":521.0,"duration":0.47917,"midi":31,"velocity":95,"channel":2,"program":33},{"beat":521.0,"duration":0.47917,"midi":43,"velocity":87,"channel":4,"program":29},{"beat":521.0,"duration":0.47917,"midi":43,"velocity":88,"channel":5,"program":30},{"beat":521.0,"duration":0.97917,"midi":50,"velocity":86,"channel":6,"program":29},{"beat":521.0,"duration":0.47917,"midi":55,"velocity":90,"channel":3,"program":27},{"beat":521.0,"duration":0.22917,"midi":69,"velocity":84,"channel":13,"program":81},{"beat":521.02083,"duration":0.45833,"midi":50,"velocity":90,"channel":4,"program":29},{"beat":521.02083,"duration":0.45833,"midi":50,"velocity":85,"channel":5,"program":30},{"beat":521.02083,"duration":0.95833,"midi":57,"velocity":89,"channel":6,"program":29},{"beat":521.02083,"duration":0.45833,"midi":59,"velocity":89,"channel":3,"program":27},{"beat":521.02083,"duration":0.45833,"midi":59,"velocity":96,"channel":12,"program":25},{"beat":521.02083,"duration":0.45833,"midi":69,"velocity":75,"channel":6,"program":29},{"beat":521.04167,"duration":0.4375,"midi":55,"velocity":85,"channel":5,"program":30},{"beat":521.04167,"duration":0.4375,"midi":57,"velocity":80,"channel":4,"program":29},{"beat":521.04167,"duration":0.4375,"midi":62,"velocity":90,"channel":3,"program":27},{"beat":521.04167,"duration":0.4375,"midi":62,"velocity":96,"channel":12,"program":25},{"beat":521.5,"duration":0.47917,"midi":31,"velocity":94,"channel":2,"program":33},{"beat":521.5,"duration":0.97917,"midi":43,"velocity":84,"channel":4,"program":29},{"beat":521.5,"duration":0.97917,"midi":43,"velocity":89,"channel":5,"program":30},{"beat":521.5,"duration":0.47917,"midi":55,"velocity":81,"channel":3,"program":27},{"beat":521.5,"duration":0.39583,"midi":57,"velocity":89,"channel":1,"program":52},{"beat":521.5,"duration":0.39583,"midi":62,"velocity":90,"channel":1,"program":52},{"beat":521.5,"duration":0.39583,"midi":66,"velocity":90,"channel":1,"program":52},{"beat":521.5,"duration":0.22917,"midi":69,"velocity":71,"channel":13,"program":81},{"beat":521.5,"duration":0.39583,"midi":81,"velocity":99,"channel":0,"program":22},{"beat":521.52083,"duration":0.95833,"midi":50,"velocity":88,"channel":4,"program":29},{"beat":521.52083,"duration":0.95833,"midi":50,"velocity":88,"channel":5,"program":30},{"beat":521.52083,"duration":0.45833,"midi":59,"velocity":76,"channel":3,"program":27},{"beat":521.52083,"duration":0.45833,"midi":59,"velocity":79,"channel":12,"program":25},{"beat":521.54167,"duration":0.9375,"midi":55,"velocity":84,"channel":5,"program":30},{"beat":521.54167,"duration":0.9375,"midi":57,"velocity":80,"channel":4,"program":29},{"beat":521.54167,"duration":0.4375,"midi":62,"velocity":78,"channel":3,"program":27},{"beat":521.54167,"duration":0.4375,"midi":62,"velocity":84,"channel":12,"program":25},{"beat":522.0,"duration":0.47917,"midi":31,"velocity":100,"channel":2,"program":33},{"beat":522.0,"duration":0.47917,"midi":50,"velocity":90,"channel":6,"program":29},{"beat":522.0,"duration":0.47917,"midi":55,"velocity":84,"channel":3,"program":27},{"beat":522.0,"duration":0.47917,"midi":57,"velocity":90,"channel":1,"program":52},{"beat":522.0,"duration":0.47917,"midi":62,"velocity":88,"channel":1,"program":52},{"beat":522.0,"duration":0.47917,"midi":66,"velocity":90,"channel":1,"program":52},{"beat":522.0,"duration":0.22917,"midi":69,"velocity":76,"channel":13,"program":81},{"beat":522.0,"duration":0.47917,"midi":81,"velocity":100,"channel":0,"program":22},{"beat":522.02083,"duration":0.45833,"midi":55,"velocity":84,"channel":6,"program":29},{"beat":522.02083,"duration":0.45833,"midi":59,"velocity":86,"channel":3,"program":27},{"beat":522.02083,"duration":0.45833,"midi":59,"velocity":89,"channel":12,"program":25},{"beat":522.04167,"duration":0.4375,"midi":62,"velocity":85,"channel":3,"program":27},{"beat":522.04167,"duration":0.4375,"midi":62,"velocity":87,"channel":12,"program":25},{"beat":522.5,"duration":0.47917,"midi":31,"velocity":95,"channel":2,"program":33},{"beat":522.5,"duration":0.97917,"midi":43,"velocity":87,"channel":4,"program":29},{"beat":522.5,"duration":0.47917,"midi":43,"velocity":87,"channel":5,"program":30},{"beat":522.5,"duration":0.97917,"midi":50,"velocity":86,"channel":6,"program":29},{"beat":522.5,"duration":0.52083,"midi":54,"velocity":89,"channel":1,"program":52},{"beat":522.5,"duration":0.47917,"midi":55,"velocity":82,"channel":3,"program":27},{"beat":522.5,"duration":0.52083,"midi":59,"velocity":89,"channel":1,"program":52},{"beat":522.5,"duration":0.52083,"midi":62,"velocity":90,"channel":1,"program":52},{"beat":522.5,"duration":0.22917,"midi":69,"velocity":71,"channel":13,"program":81},{"beat":522.5,"duration":0.52083,"midi":78,"velocity":100,"channel":0,"program":22},{"beat":522.52083,"duration":0.95833,"midi":50,"velocity":88,"channel":4,"program":29},{"beat":522.52083,"duration":0.45833,"midi":50,"velocity":84,"channel":5,"program":30},{"beat":522.52083,"duration":0.95833,"midi":55,"velocity":84,"channel":6,"program":29},{"beat":522.52083,"duration":0.45833,"midi":59,"velocity":76,"channel":3,"program":27},{"beat":522.52083,"duration":0.95833,"midi":59,"velocity":84,"channel":12,"program":25},{"beat":522.54167,"duration":0.4375,"midi":55,"velocity":86,"channel":5,"program":30},{"beat":522.54167,"duration":0.9375,"midi":57,"velocity":80,"channel":4,"program":29},{"beat":522.54167,"duration":0.4375,"midi":62,"velocity":81,"channel":3,"program":27},{"beat":522.54167,"duration":0.9375,"midi":62,"velocity":81,"channel":12,"program":25},{"beat":523.0,"duration":0.47917,"midi":31,"velocity":94,"channel":2,"program":33},{"beat":523.0,"duration":0.47917,"midi":43,"velocity":90,"channel":5,"program":30},{"beat":523.0,"duration":0.97917,"midi":55,"velocity":80,"channel":3,"program":27},{"beat":523.0,"duration":0.22917,"midi":69,"velocity":80,"channel":13,"program":81},{"beat":523.02083,"duration":0.45833,"midi":50,"velocity":84,"channel":5,"program":30},{"beat":523.02083,"duration":0.95833,"midi":59,"velocity":80,"channel":3,"program":27},{"beat":523.04167,"duration":0.4375,"midi":55,"velocity":84,"channel":5,"program":30},{"beat":523.04167,"duration":0.9375,"midi":62,"velocity":78,"channel":3,"program":27},{"beat":523.5,"duration":0.47917,"midi":35,"velocity":94,"channel":2,"program":33},{"beat":523.5,"duration":0.47917,"midi":43,"velocity":90,"channel":4,"program":29},{"beat":523.5,"duration":0.47917,"midi":43,"velocity":90,"channel":5,"program":30},{"beat":523.5,"duration":0.47917,"midi":50,"velocity":85,"channel":6,"program":29},{"beat":523.5,"duration":0.72917,"midi":52,"velocity":90,"channel":1,"program":52},{"beat":523.5,"duration":0.72917,"midi":57,"velocity":90,"channel":1,"program":52},{"beat":523.5,"duration":0.72917,"midi":61,"velocity":90,"channel":1,"program":52},{"beat":523.5,"duration":0.72917,"midi":64,"velocity":87,"channel":1,"program":52},{"beat":523.5,"duration":0.22917,"midi":69,"velocity":71,"channel":13,"program":81},{"beat":523.5,"duration":0.47917,"midi":73,"velocity":70,"channel":7,"program":29},{"beat":523.5,"duration":0.72917,"midi":76,"velocity":99,"channel":0,"program":22},{"beat":523.52083,"duration":0.45833,"midi":50,"velocity":86,"channel":4,"program":29},{"beat":523.52083,"duration":0.45833,"midi":50,"velocity":78,"channel":5,"program":30},{"beat":523.52083,"duration":0.45833,"midi":57,"velocity":85,"channel":6,"program":29},{"beat":523.52083,"duration":0.20833,"midi":59,"velocity":84,"channel":12,"program":25},{"beat":523.54167,"duration":0.4375,"midi":55,"velocity":82,"channel":5,"program":30},{"beat":523.54167,"duration":0.4375,"midi":57,"velocity":81,"channel":4,"program":29},{"beat":523.54167,"duration":0.1875,"midi":62,"velocity":82,"channel":12,"program":25},{"beat":523.77083,"duration":0.20833,"midi":59,"velocity":84,"channel":12,"program":25},{"beat":523.79167,"duration":0.1875,"midi":62,"velocity":84,"channel":12,"program":25},{"beat":524.0,"duration":0.47917,"midi":33,"velocity":98,"channel":2,"program":33},{"beat":524.0,"duration":0.97917,"midi":45,"velocity":84,"channel":4,"program":29},{"beat":524.0,"duration":0.97917,"midi":45,"velocity":84,"channel":5,"program":30},{"beat":524.0,"duration":0.97917,"midi":52,"velocity":89,"channel":6,"program":29},{"beat":524.0,"duration":0.97917,"midi":57,"velocity":87,"channel":3,"program":27},{"beat":524.0,"duration":0.22917,"midi":69,"velocity":65,"channel":13,"program":81},{"beat":524.0,"duration":3.97917,"midi":73,"velocity":87,"channel":7,"program":51},{"beat":524.0,"duration":3.97917,"midi":85,"velocity":78,"channel":7,"program":51},{"beat":524.02083,"duration":0.95833,"midi":52,"velocity":88,"channel":4,"program":29},{"beat":524.02083,"duration":0.95833,"midi":52,"velocity":87,"channel":5,"program":30},{"beat":524.02083,"duration":0.95833,"midi":57,"velocity":90,"channel":6,"program":29},{"beat":524.02083,"duration":0.95833,"midi":57,"velocity":96,"channel":12,"program":25},{"beat":524.02083,"duration":0.95833,"midi":61,"velocity":84,"channel":3,"program":27},{"beat":524.04167,"duration":0.9375,"midi":57,"velocity":82,"channel":4,"program":29},{"beat":524.04167,"duration":0.9375,"midi":57,"velocity":85,"channel":5,"program":30},{"beat":524.04167,"duration":0.9375,"midi":61,"velocity":93,"channel":12,"program":25},{"beat":524.04167,"duration":0.9375,"midi":64,"velocity":86,"channel":3,"program":27},{"beat":524.04167,"duration":0.9375,"midi":64,"velocity":86,"channel":6,"program":29},{"beat":524.5,"duration":0.47917,"midi":33,"velocity":100,"channel":2,"program":33},{"beat":524.5,"duration":0.97917,"midi":54,"velocity":88,"channel":1,"program":52},{"beat":524.5,"duration":0.97917,"midi":57,"velocity":87,"channel":1,"program":52},{"beat":524.5,"duration":0.97917,"midi":62,"velocity":90,"channel":1,"program":52},{"beat":524.5,"duration":0.97917,"midi":66,"velocity":90,"channel":1,"program":52},{"beat":524.5,"duration":0.22917,"midi":69,"velocity":70,"channel":13,"program":81},{"beat":524.5,"duration":0.97917,"midi":78,"velocity":102,"channel":0,"program":22},{"beat":525.0,"duration":0.47917,"midi":33,"velocity":96,"channel":2,"program":33},{"beat":525.0,"duration":0.47917,"midi":45,"velocity":88,"channel":4,"program":29},{"beat":525.0,"duration":0.47917,"midi":45,"velocity":89,"channel":5,"program":30},{"beat":525.0,"duration":0.47917,"midi":52,"velocity":86,"channel":6,"program":29},{"beat":525.0,"duration":0.47917,"midi":57,"velocity":87,"channel":3,"program":27},{"beat":525.0,"duration":0.22917,"midi":69,"velocity":83,"channel":13,"program":81},{"beat":525.02083,"duration":0.45833,"midi":52,"velocity":85,"channel":4,"program":29},{"beat":525.02083,"duration":0.45833,"midi":52,"velocity":87,"channel":5,"program":30},{"beat":525.02083,"duration":0.45833,"midi":57,"velocity":89,"channel":6,"program":29},{"beat":525.02083,"duration":0.45833,"midi":57,"velocity":96,"channel":12,"program":25},{"beat":525.02083,"duration":0.45833,"midi":61,"velocity":85,"channel":3,"program":27},{"beat":525.04167,"duration":0.4375,"midi":57,"velocity":81,"channel":4,"program":29},{"beat":525.04167,"duration":0.4375,"midi":57,"velocity":87,"channel":5,"program":30},{"beat":525.04167,"duration":0.4375,"midi":61,"velocity":96,"channel":12,"program":25},{"beat":525.04167,"duration":0.4375,"midi":64,"velocity":88,"channel":3,"program":27},{"beat":525.04167,"duration":0.4375,"midi":69,"velocity":80,"channel":6,"program":29},{"beat":525.5,"duration":0.47917,"midi":40,"velocity":95,"channel":2,"program":33},{"beat":525.5,"duration":0.97917,"midi":45,"velocity":86,"channel":4,"program":29},{"beat":525.5,"duration":0.97917,"midi":45,"velocity":89,"channel":5,"program":30},{"beat":525.5,"duration":0.97917,"midi":52,"velocity":89,"channel":6,"program":29},{"beat":525.5,"duration":0.47917,"midi":54,"velocity":89,"channel":1,"program":52},{"beat":525.5,"duration":0.47917,"midi":57,"velocity":90,"channel":1,"program":52},{"beat":525.5,"duration":0.47917,"midi":57,"velocity":78,"channel":3,"program":27},{"beat":525.5,"duration":0.47917,"midi":62,"velocity":89,"channel":1,"program":52},{"beat":525.5,"duration":0.47917,"midi":66,"velocity":89,"channel":1,"program":52},{"beat":525.5,"duration":0.22917,"midi":69,"velocity":73,"channel":13,"program":81},{"beat":525.5,"duration":0.47917,"midi":78,"velocity":100,"channel":0,"program":22},{"beat":525.52083,"duration":0.95833,"midi":52,"velocity":88,"channel":4,"program":29},{"beat":525.52083,"duration":0.95833,"midi":52,"velocity":84,"channel":5,"program":30},{"beat":525.52083,"duration":0.95833,"midi":57,"velocity":85,"channel":6,"program":29},{"beat":525.52083,"duration":0.45833,"midi":57,"velocity":86,"channel":12,"program":25},{"beat":525.52083,"duration":0.45833,"midi":61,"velocity":82,"channel":3,"program":27},{"beat":525.54167,"duration":0.9375,"midi":57,"velocity":83,"channel":4,"program":29},{"beat":525.54167,"duration":0.9375,"midi":57,"velocity":88,"channel":5,"program":30},{"beat":525.54167,"duration":0.4375,"midi":61,"velocity":85,"channel":12,"program":25},{"beat":525.54167,"duration":0.4375,"midi":64,"velocity":78,"channel":3,"program":27},{"beat":525.54167,"duration":0.9375,"midi":64,"velocity":90,"channel":6,"program":29},{"beat":526.0,"duration":0.47917,"midi":45,"velocity":93,"channel":2,"program":33},{"beat":526.0,"duration":0.47917,"midi":57,"velocity":89,"channel":3,"program":27},{"beat":526.0,"duration":0.22917,"midi":69,"velocity":78,"channel":13,"program":81},{"beat":526.02083,"duration":0.45833,"midi":57,"velocity":89,"channel":12,"program":25},{"beat":526.02083,"duration":0.45833,"midi":61,"velocity":87,"channel":3,"program":27},{"beat":526.04167,"duration":0.4375,"midi":61,"velocity":89,"channel":12,"program":25},{"beat":526.04167,"duration":0.4375,"midi":64,"velocity":89,"channel":3,"program":27},{"beat":526.5,"duration":0.47917,"midi":45,"velocity":89,"channel":2,"program":33},{"beat":526.5,"duration":1.47917,"midi":45,"velocity":90,"channel":4,"program":29},{"beat":526.5,"duration":0.47917,"midi":45,"velocity":87,"channel":5,"program":30},{"beat":526.5,"duration":1.47917,"midi":52,"velocity":90,"channel":6,"program":29},{"beat":526.5,"duration":0.39583,"midi":57,"velocity":87,"channel":1,"program":52},{"beat":526.5,"duration":0.47917,"midi":57,"velocity":78,"channel":3,"program":27},{"beat":526.5,"duration":0.39583,"midi":62,"velocity":87,"channel":1,"program":52},{"beat":526.5,"duration":0.39583,"midi":66,"velocity":86,"channel":1,"program":52},{"beat":526.5,"duration":0.22917,"midi":69,"velocity":77,"channel":13,"program":81},{"beat":526.5,"duration":0.39583,"midi":81,"velocity":102,"channel":0,"program":22},{"beat":526.52083,"duration":1.45833,"midi":52,"velocity":90,"channel":4,"program":29},{"beat":526.52083,"duration":0.45833,"midi":52,"velocity":90,"channel":5,"program":30},{"beat":526.52083,"duration":1.45833,"midi":57,"velocity":88,"channel":6,"program":29},{"beat":526.52083,"duration":0.95833,"midi":57,"velocity":90,"channel":12,"program":25},{"beat":526.52083,"duration":0.45833,"midi":61,"velocity":81,"channel":3,"program":27},{"beat":526.54167,"duration":1.4375,"midi":57,"velocity":81,"channel":4,"program":29},{"beat":526.54167,"duration":0.4375,"midi":57,"velocity":87,"channel":5,"program":30},{"beat":526.54167,"duration":0.9375,"midi":61,"velocity":89,"channel":12,"program":25},{"beat":526.54167,"duration":0.4375,"midi":64,"velocity":82,"channel":3,"program":27},{"beat":526.54167,"duration":1.4375,"midi":69,"velocity":88,"channel":6,"program":29},{"beat":527.0,"duration":0.97917,"midi":45,"velocity":90,"channel":2,"program":33},{"beat":527.0,"duration":0.97917,"midi":45,"velocity":87,"channel":5,"program":30},{"beat":527.0,"duration":0.39583,"midi":57,"velocity":89,"channel":1,"program":52},{"beat":527.0,"duration":0.97917,"midi":57,"velocity":80,"channel":3,"program":27},{"beat":527.0,"duration":0.39583,"midi":62,"velocity":89,"channel":1,"program":52},{"beat":527.0,"duration":0.39583,"midi":66,"velocity":89,"channel":1,"program":52},{"beat":527.0,"duration":0.47917,"midi":66,"velocity":88,"channel":7,"program":29},{"beat":527.0,"duration":0.22917,"midi":69,"velocity":86,"channel":13,"program":81},{"beat":527.0,"duration":0.39583,"midi":81,"velocity":98,"channel":0,"program":22},{"beat":527.02083,"duration":0.95833,"midi":52,"velocity":80,"channel":5,"program":30},{"beat":527.02083,"duration":0.95833,"midi":61,"velocity":79,"channel":3,"program":27},{"beat":527.04167,"duration":0.9375,"midi":57,"velocity":81,"channel":5,"program":30},{"beat":527.04167,"duration":0.9375,"midi":64,"velocity":81,"channel":3,"program":27},{"beat":527.5,"duration":0.47917,"midi":54,"velocity":90,"channel":1,"program":52},{"beat":527.5,"duration":0.47917,"midi":59,"velocity":90,"channel":1,"program":52},{"beat":527.5,"duration":0.47917,"midi":62,"velocity":90,"channel":1,"program":52},{"beat":527.5,"duration":0.22917,"midi":69,"velocity":75,"channel":13,"program":81},{"beat":527.5,"duration":0.47917,"midi":78,"velocity":102,"channel":0,"program":22},{"beat":527.52083,"duration":0.20833,"midi":57,"velocity":90,"channel":12,"program":25},{"beat":527.54167,"duration":0.1875,"midi":61,"velocity":86,"channel":12,"program":25},{"beat":527.75,"duration":0.27083,"midi":67,"velocity":70,"channel":7,"program":29},{"beat":527.77083,"duration":0.20833,"midi":57,"velocity":86,"channel":12,"program":25},{"beat":527.79167,"duration":0.1875,"midi":61,"velocity":85,"channel":12,"program":25},{"beat":528.0,"duration":0.97917,"midi":35,"velocity":97,"channel":2,"program":33},{"beat":528.0,"duration":0.97917,"midi":47,"velocity":86,"channel":4,"program":29},{"beat":528.0,"duration":0.97917,"midi":47,"velocity":84,"channel":5,"program":30},{"beat":528.0,"duration":0.97917,"midi":54,"velocity":88,"channel":3,"program":27},{"beat":528.0,"duration":0.8125,"midi":57,"velocity":90,"channel":1,"program":52},{"beat":528.0,"duration":0.97917,"midi":59,"velocity":84,"channel":6,"program":29},{"beat":528.0,"duration":0.8125,"midi":62,"velocity":90,"channel":1,"program":52},{"beat":528.0,"duration":0.8125,"midi":66,"velocity":90,"channel":1,"program":52},{"beat":528.0,"duration":0.47917,"midi":66,"velocity":88,"channel":7,"program":29},{"beat":528.0,"duration":0.22917,"midi":69,"velocity":82,"channel":13,"program":81},{"beat":528.0,"duration":3.97917,"midi":74,"velocity":84,"channel":7,"program":51},{"beat":528.0,"duration":0.8125,"midi":81,"velocity":100,"channel":0,"program":22},{"beat":528.0,"duration":3.97917,"midi":86,"velocity":78,"channel":7,"program":51},{"beat":528.02083,"duration":0.95833,"midi":54,"velocity":89,"channel":4,"program":29},{"beat":528.02083,"duration":0.95833,"midi":54,"velocity":90,"channel":5,"program":30},{"beat":528.02083,"duration":0.95833,"midi":57,"velocity":89,"channel":3,"program":27},{"beat":528.02083,"duration":0.95833,"midi":59,"velocity":93,"channel":12,"program":25},{"beat":528.02083,"duration":0.45833,"midi":66,"velocity":72,"channel":6,"program":29},{"beat":528.04167,"duration":0.9375,"midi":57,"velocity":85,"channel":5,"program":30},{"beat":528.04167,"duration":0.4375,"midi":62,"velocity":87,"channel":3,"program":27},{"beat":528.04167,"duration":0.9375,"midi":62,"velocity":98,"channel":12,"program":25},{"beat":528.5,"duration":0.27083,"midi":69,"velocity":86,"channel":7,"program":29},{"beat":528.5,"duration":0.22917,"midi":69,"velocity":69,"channel":13,"program":81},{"beat":528.52083,"duration":0.95833,"midi":71,"velocity":77,"channel":6,"program":29},{"beat":528.54167,"duration":0.4375,"midi":62,"velocity":80,"channel":3,"program":27},{"beat":528.75,"duration":0.27083,"midi":66,"velocity":88,"channel":7,"program":29},{"beat":529.0,"duration":0.47917,"midi":35,"velocity":97,"channel":2,"program":33},{"beat":529.0,"duration":0.47917,"midi":47,"velocity":84,"channel":4,"program":29},{"beat":529.0,"duration":0.47917,"midi":47,"velocity":89,"channel":5,"program":30},{"beat":529.0,"duration":0.47917,"midi":54,"velocity":76,"channel":3,"program":27},{"beat":529.0,"duration":0.47917,"midi":59,"velocity":86,"channel":6,"program":29},{"beat":529.0,"duration":0.97917,"midi":62,"velocity":90,"channel":7,"program":29},{"beat":529.0,"duration":0.47917,"midi":62,"velocity":80,"channel":14,"program":29},{"beat":529.0,"duration":0.22917,"midi":69,"velocity":84,"channel":13,"program":81},{"beat":529.02083,"duration":0.45833,"midi":54,"velocity":80,"channel":4,"program":29},{"beat":529.02083,"duration":0.45833,"midi":54,"velocity":87,"channel":5,"program":30},{"beat":529.02083,"duration":0.45833,"midi":57,"velocity":77,"channel":3,"program":27},{"beat":529.02083,"duration":0.45833,"midi":59,"velocity":96,"channel":12,"program":25},{"beat":529.04167,"duration":0.4375,"midi":57,"velocity":81,"channel":5,"program":30},{"beat":529.04167,"duration":0.4375,"midi":62,"velocity":81,"channel":3,"program":27},{"beat":529.04167,"duration":0.4375,"midi":62,"velocity":100,"channel":12,"program":25},{"beat":529.5,"duration":0.47917,"midi":35,"velocity":96,"channel":2,"program":33},{"beat":529.5,"duration":0.97917,"midi":47,"velocity":86,"channel":4,"program":29},{"beat":529.5,"duration":0.97917,"midi":47,"velocity":89,"channel":5,"program":30},{"beat":529.5,"duration":0.97917,"midi":54,"velocity":84,"channel":3,"program":27},{"beat":529.5,"duration":0.47917,"midi":57,"velocity":87,"channel":1,"program":52},{"beat":529.5,"duration":0.47917,"midi":59,"velocity":88,"channel":6,"program":29},{"beat":529.5,"duration":0.47917,"midi":62,"velocity":86,"channel":1,"program":52},{"beat":529.5,"duration":0.47917,"midi":66,"velocity":89,"channel":1,"program":52},{"beat":529.5,"duration":0.47917,"midi":66,"velocity":80,"channel":14,"program":29},{"beat":529.5,"duration":0.22917,"midi":69,"velocity":71,"channel":13,"program":81},{"beat":529.5,"duration":0.47917,"midi":81,"velocity":102,"channel":0,"program":22},{"beat":529.52083,"duration":0.95833,"midi":54,"velocity":90,"channel":4,"program":29},{"beat":529.52083,"duration":0.95833,"midi":54,"velocity":86,"channel":5,"program":30},{"beat":529.52083,"duration":0.95833,"midi":57,"velocity":86,"channel":3,"program":27},{"beat":529.52083,"duration":0.45833,"midi":59,"velocity":83,"channel":12,"program":25},{"beat":529.52083,"duration":0.45833,"midi":66,"velocity":86,"channel":6,"program":29},{"beat":529.54167,"duration":0.9375,"midi":57,"velocity":80,"channel":5,"program":30},{"beat":529.54167,"duration":0.9375,"midi":62,"velocity":88,"channel":3,"program":27},{"beat":529.54167,"duration":0.4375,"midi":62,"velocity":85,"channel":12,"program":25},{"beat":530.0,"duration":0.47917,"midi":35,"velocity":99,"channel":2,"program":33},{"beat":530.0,"duration":0.47917,"midi":57,"velocity":90,"channel":1,"program":52},{"beat":530.0,"duration":0.47917,"midi":62,"velocity":90,"channel":1,"program":52},{"beat":530.0,"duration":0.22917,"midi":62,"velocity":85,"channel":7,"program":29},{"beat":530.0,"duration":0.47917,"midi":66,"velocity":89,"channel":1,"program":52},{"beat":530.0,"duration":0.22917,"midi":69,"velocity":76,"channel":13,"program":81},{"beat":530.0,"duration":0.47917,"midi":81,"velocity":101,"channel":0,"program":22},{"beat":530.02083,"duration":0.45833,"midi":59,"velocity":89,"channel":12,"program":25},{"beat":530.04167,"duration":0.4375,"midi":62,"velocity":87,"channel":12,"program":25},{"beat":530.5,"duration":0.47917,"midi":35,"velocity":95,"channel":2,"program":33},{"beat":530.5,"duration":0.97917,"midi":47,"velocity":89,"channel":4,"program":29},{"beat":530.5,"duration":0.47917,"midi":47,"velocity":86,"channel":5,"program":30},{"beat":530.5,"duration":0.47917,"midi":54,"velocity":89,"channel":1,"program":52},{"beat":530.5,"duration":0.47917,"midi":54,"velocity":77,"channel":3,"program":27},{"beat":530.5,"duration":0.47917,"midi":59,"velocity":90,"channel":1,"program":52},{"beat":530.5,"duration":0.47917,"midi":59,"velocity":90,"channel":6,"program":29},{"beat":530.5,"duration":0.47917,"midi":62,"velocity":90,"channel":1,"program":52},{"beat":530.5,"duration":0.47917,"midi":62,"velocity":65,"channel":14,"program":29},{"beat":530.5,"duration":0.52083,"midi":66,"velocity":90,"channel":7,"program":29},{"beat":530.5,"duration":0.22917,"midi":69,"velocity":71,"channel":13,"program":81},{"beat":530.5,"duration":0.47917,"midi":78,"velocity":101,"channel":0,"program":22},{"beat":530.52083,"duration":0.95833,"midi":54,"velocity":84,"channel":4,"program":29},{"beat":530.52083,"duration":0.45833,"midi":54,"velocity":90,"channel":5,"program":30},{"beat":530.52083,"duration":0.45833,"midi":57,"velocity":81,"channel":3,"program":27},{"beat":530.52083,"duration":0.95833,"midi":59,"velocity":84,"channel":12,"program":25},{"beat":530.52083,"duration":0.45833,"midi":71,"velocity":88,"channel":6,"program":29},{"beat":530.54167,"duration":0.4375,"midi":59,"velocity":76,"channel":5,"program":30},{"beat":530.54167,"duration":0.4375,"midi":62,"velocity":79,"channel":3,"program":27},{"beat":530.54167,"duration":0.9375,"midi":62,"velocity":84,"channel":12,"program":25},{"beat":531.0,"duration":0.97917,"midi":35,"velocity":95,"channel":2,"program":33},{"beat":531.0,"duration":0.47917,"midi":47,"velocity":85,"channel":5,"program":30},{"beat":531.0,"duration":0.39583,"midi":54,"velocity":88,"channel":1,"program":52},{"beat":531.0,"duration":0.47917,"midi":54,"velocity":87,"channel":3,"program":27},{"beat":531.0,"duration":0.39583,"midi":59,"velocity":90,"channel":1,"program":52},{"beat":531.0,"duration":0.47917,"midi":59,"velocity":85,"channel":6,"program":29},{"beat":531.0,"duration":0.39583,"midi":62,"velocity":90,"channel":1,"program":52},{"beat":531.0,"duration":0.47917,"midi":62,"velocity":67,"channel":14,"program":29},{"beat":531.0,"duration":0.22917,"midi":69,"velocity":80,"channel":13,"program":81},{"beat":531.0,"duration":0.39583,"midi":78,"velocity":100,"channel":0,"program":22},{"beat":531.02083,"duration":0.45833,"midi":54,"velocity":88,"channel":5,"program":30},{"beat":531.02083,"duration":0.45833,"midi":57,"velocity":87,"channel":3,"program":27},{"beat":531.02083,"duration":0.45833,"midi":66,"velocity":78,"channel":6,"program":29},{"beat":531.04167,"duration":0.4375,"midi":59,"velocity":79,"channel":5,"program":30},{"beat":531.04167,"duration":0.4375,"midi":62,"velocity":87,"channel":3,"program":27},{"beat":531.5,"duration":0.47917,"midi":47,"velocity":79,"channel":4,"program":29},{"beat":531.5,"duration":0.47917,"midi":47,"velocity":85,"channel":5,"program":30},{"beat":531.5,"duration":0.72917,"midi":52,"velocity":89,"channel":1,"program":52},{"beat":531.5,"duration":0.47917,"midi":54,"velocity":79,"channel":3,"program":27},{"beat":531.5,"duration":0.72917,"midi":57,"velocity":88,"channel":1,"program":52},{"beat":531.5,"duration":0.47917,"midi":59,"velocity":84,"channel":6,"program":29},{"beat":531.5,"duration":0.72917,"midi":61,"velocity":88,"channel":1,"program":52},{"beat":531.5,"duration":0.52083,"midi":64,"velocity":80,"channel":7,"program":29},{"beat":531.5,"duration":0.47917,"midi":64,"velocity":71,"channel":14,"program":29},{"beat":531.5,"duration":0.22917,"midi":69,"velocity":71,"channel":13,"program":81},{"beat":531.5,"duration":0.72917,"midi":76,"velocity":100,"channel":0,"program":22},{"beat":531.52083,"duration":0.45833,"midi":54,"velocity":83,"channel":4,"program":29},{"beat":531.52083,"duration":0.45833,"midi":54,"velocity":80,"channel":5,"program":30},{"beat":531.52083,"duration":0.45833,"midi":57,"velocity":77,"channel":3,"program":27},{"beat":531.52083,"duration":0.45833,"midi":59,"velocity":84,"channel":12,"program":25},{"beat":531.52083,"duration":0.45833,"midi":64,"velocity":68,"channel":6,"program":29},{"beat":531.54167,"duration":0.4375,"midi":59,"velocity":79,"channel":5,"program":30},{"beat":531.54167,"duration":0.4375,"midi":62,"velocity":83,"channel":12,"program":25},{"beat":531.54167,"duration":0.4375,"midi":64,"velocity":80,"channel":3,"program":27},{"beat":532.0,"duration":0.47917,"midi":42,"velocity":98,"channel":2,"program":33},{"beat":532.0,"duration":0.97917,"midi":42,"velocity":89,"channel":4,"program":29},{"beat":532.0,"duration":0.47917,"midi":42,"velocity":88,"channel":5,"program":30},{"beat":532.0,"duration":0.47917,"midi":54,"velocity":90,"channel":3,"program":27},{"beat":532.0,"duration":0.97917,"midi":57,"velocity":87,"channel":6,"program":29},{"beat":532.0,"duration":0.22917,"midi":69,"velocity":65,"channel":13,"program":81},{"beat":532.0,"duration":1.97917,"midi":76,"velocity":86,"channel":7,"program":51},{"beat":532.0,"duration":1.97917,"midi":76,"velocity":85,"channel":14,"program":29},{"beat":532.0,"duration":1.97917,"midi":88,"velocity":84,"channel":7,"program":51},{"beat":532.02083,"duration":0.95833,"midi":50,"velocity":87,"channel":4,"program":29},{"beat":532.02083,"duration":0.45833,"midi":50,"velocity":89,"channel":5,"program":30},{"beat":532.02083,"duration":0.45833,"midi":57,"velocity":93,"channel":3,"program":27},{"beat":532.02083,"duration":0.95833,"midi":57,"velocity":96,"channel":12,"program":25},{"beat":532.02083,"duration":0.45833,"midi":62,"velocity":89,"channel":6,"program":29},{"beat":532.04167,"duration":0.4375,"midi":57,"velocity":83,"channel":4,"program":29},{"beat":532.04167,"duration":0.4375,"midi":57,"velocity":85,"channel":5,"program":30},{"beat":532.04167,"duration":0.4375,"midi":62,"velocity":93,"channel":3,"program":27},{"beat":532.04167,"duration":0.9375,"midi":62,"velocity":94,"channel":12,"program":25},{"beat":532.5,"duration":0.47917,"midi":42,"velocity":96,"channel":2,"program":33},{"beat":532.5,"duration":0.47917,"midi":42,"velocity":85,"channel":5,"program":30},{"beat":532.5,"duration":0.47917,"midi":52,"velocity":89,"channel":1,"program":52},{"beat":532.5,"duration":0.47917,"midi":54,"velocity":82,"channel":3,"program":27},{"beat":532.5,"duration":0.47917,"midi":57,"velocity":87,"channel":1,"program":52},{"beat":532.5,"duration":0.47917,"midi":61,"velocity":88,"channel":1,"program":52},{"beat":532.5,"duration":0.47917,"midi":69,"velocity":47,"channel":7,"program":29},{"beat":532.5,"duration":0.22917,"midi":69,"velocity":70,"channel":13,"program":81},{"beat":532.5,"duration":0.47917,"midi":76,"velocity":100,"channel":0,"program":22},{"beat":532.52083,"duration":0.45833,"midi":50,"velocity":88,"channel":5,"program":30},{"beat":532.52083,"duration":0.45833,"midi":57,"velocity":82,"channel":3,"program":27},{"beat":532.52083,"duration":0.45833,"midi":62,"velocity":84,"channel":6,"program":29},{"beat":532.54167,"duration":0.4375,"midi":57,"velocity":83,"channel":4,"program":29},{"beat":532.54167,"duration":0.4375,"midi":57,"velocity":80,"channel":5,"program":30},{"beat":532.54167,"duration":0.4375,"midi":62,"velocity":82,"channel":3,"program":27},{"beat":533.0,"duration":0.47917,"midi":42,"velocity":97,"channel":2,"program":33},{"beat":533.0,"duration":1.47917,"midi":42,"velocity":87,"channel":4,"program":29},{"beat":533.0,"duration":0.97917,"midi":42,"velocity":86,"channel":5,"program":30},{"beat":533.0,"duration":0.47917,"midi":54,"velocity":87,"channel":1,"program":52},{"beat":533.0,"duration":0.47917,"midi":54,"velocity":94,"channel":3,"program":27},{"beat":533.0,"duration":0.47917,"midi":57,"velocity":88,"channel":1,"program":52},{"beat":533.0,"duration":0.97917,"midi":57,"velocity":87,"channel":6,"program":29},{"beat":533.0,"duration":0.47917,"midi":62,"velocity":86,"channel":1,"program":52},{"beat":533.0,"duration":0.97917,"midi":69,"velocity":56,"channel":7,"program":29},{"beat":533.0,"duration":0.22917,"midi":69,"velocity":83,"channel":13,"program":81},{"beat":533.0,"duration":0.47917,"midi":69,"velocity":85,"channel":14,"program":29},{"beat":533.0,"duration":0.47917,"midi":78,"velocity":102,"channel":0,"program":22},{"beat":533.02083,"duration":1.45833,"midi":50,"velocity":87,"channel":4,"program":29},{"beat":533.02083,"duration":0.95833,"midi":50,"velocity":88,"channel":5,"program":30},{"beat":533.02083,"duration":0.45833,"midi":57,"velocity":93,"channel":3,"program":27},{"beat":533.02083,"duration":0.45833,"midi":57,"velocity":97,"channel":12,"program":25},{"beat":533.02083,"duration":0.95833,"midi":62,"velocity":87,"channel":6,"program":29},{"beat":533.04167,"duration":0.9375,"midi":57,"velocity":80,"channel":4,"program":29},{"beat":533.04167,"duration":0.4375,"midi":57,"velocity":78,"channel":5,"program":30},{"beat":533.04167,"duration":0.4375,"midi":62,"velocity":95,"channel":3,"program":27},{"beat":533.04167,"duration":0.4375,"midi":62,"velocity":93,"channel":12,"program":25},{"beat":533.04167,"duration":0.4375,"midi":69,"velocity":90,"channel":6,"program":29},{"beat":533.5,"duration":0.22917,"midi":40,"velocity":87,"channel":2,"program":33},{"beat":533.5,"duration":0.47917,"midi":50,"velocity":89,"channel":1,"program":52},{"beat":533.5,"duration":0.47917,"midi":54,"velocity":79,"channel":3,"program":27},{"beat":533.5,"duration":0.47917,"midi":57,"velocity":90,"channel":1,"program":52},{"beat":533.5,"duration":0.47917,"midi":62,"velocity":90,"channel":1,"program":52},{"beat":533.5,"duration":0.22917,"midi":69,"velocity":73,"channel":13,"program":81},{"beat":533.5,"duration":0.47917,"midi":74,"velocity":102,"channel":0,"program":22},{"beat":533.52083,"duration":0.45833,"midi":57,"velocity":79,"channel":3,"program":27},{"beat":533.52083,"duration":0.45833,"midi":57,"velocity":85,"channel":12,"program":25},{"beat":533.54167,"duration":0.4375,"midi":57,"velocity":82,"channel":5,"program":30},{"beat":533.54167,"duration":0.4375,"midi":62,"velocity":82,"channel":3,"program":27},{"beat":533.54167,"duration":0.4375,"midi":62,"velocity":85,"channel":12,"program":25},{"beat":533.75,"duration":0.22917,"midi":42,"velocity":80,"channel":2,"program":33},{"beat":534.0,"duration":0.47917,"midi":42,"velocity":97,"channel":2,"program":33},{"beat":534.0,"duration":0.47917,"midi":42,"velocity":84,"channel":5,"program":30},{"beat":534.0,"duration":0.47917,"midi":54,"velocity":88,"channel":3,"program":27},{"beat":534.0,"duration":0.22917,"midi":69,"velocity":78,"channel":13,"program":81},{"beat":534.0,"duration":0.47917,"midi":74,"velocity":57,"channel":7,"program":29},{"beat":534.0,"duration":1.97917,"midi":78,"velocity":84,"channel":7,"program":51},{"beat":534.0,"duration":1.97917,"midi":78,"velocity":88,"channel":14,"program":29},{"beat":534.0,"duration":1.97917,"midi":90,"velocity":88,"channel":7,"program":51},{"beat":534.02083,"duration":0.45833,"midi":50,"velocity":85,"channel":5,"program":30},{"beat":534.02083,"duration":0.45833,"midi":57,"velocity":84,"channel":3,"program":27},{"beat":534.02083,"duration":0.45833,"midi":57,"velocity":92,"channel":12,"program":25},{"beat":534.04167,"duration":0.4375,"midi":59,"velocity":84,"channel":4,"program":29},{"beat":534.04167,"duration":0.4375,"midi":59,"velocity":82,"channel":5,"program":30},{"beat":534.04167,"duration":0.4375,"midi":62,"velocity":84,"channel":3,"program":27},{"beat":534.04167,"duration":0.4375,"midi":62,"velocity":85,"channel":12,"program":25},{"beat":534.5,"duration":0.47917,"midi":42,"velocity":87,"channel":4,"program":29},{"beat":534.5,"duration":0.47917,"midi":42,"velocity":86,"channel":5,"program":30},{"beat":534.5,"duration":0.47917,"midi":54,"velocity":70,"channel":2,"program":33},{"beat":534.5,"duration":0.47917,"midi":54,"velocity":79,"channel":3,"program":27},{"beat":534.5,"duration":0.47917,"midi":57,"velocity":89,"channel":1,"program":52},{"beat":534.5,"duration":1.47917,"midi":57,"velocity":88,"channel":6,"program":29},{"beat":534.5,"duration":0.47917,"midi":62,"velocity":89,"channel":1,"program":52},{"beat":534.5,"duration":0.47917,"midi":66,"velocity":86,"channel":1,"program":52},{"beat":534.5,"duration":0.47917,"midi":69,"velocity":54,"channel":7,"program":29},{"beat":534.5,"duration":0.22917,"midi":69,"velocity":77,"channel":13,"program":81},{"beat":534.5,"duration":0.47917,"midi":69,"velocity":84,"channel":14,"program":29},{"beat":534.5,"duration":0.47917,"midi":81,"velocity":102,"channel":0,"program":22},{"beat":534.52083,"duration":0.45833,"midi":50,"velocity":88,"channel":4,"program":29},{"beat":534.52083,"duration":0.45833,"midi":50,"velocity":89,"channel":5,"program":30},{"beat":534.52083,"duration":0.45833,"midi":57,"velocity":84,"channel":3,"program":27},{"beat":534.52083,"duration":0.95833,"midi":57,"velocity":92,"channel":12,"program":25},{"beat":534.52083,"duration":0.45833,"midi":62,"velocity":89,"channel":6,"program":29},{"beat":534.54167,"duration":0.4375,"midi":57,"velocity":83,"channel":4,"program":29},{"beat":534.54167,"duration":0.4375,"midi":57,"velocity":81,"channel":5,"program":30},{"beat":534.54167,"duration":0.4375,"midi":62,"velocity":80,"channel":3,"program":27},{"beat":534.54167,"duration":0.9375,"midi":62,"velocity":93,"channel":12,"program":25},{"beat":534.54167,"duration":1.4375,"midi":69,"velocity":90,"channel":6,"program":29},{"beat":535.0,"duration":0.97917,"midi":40,"velocity":80,"channel":2,"program":33},{"beat":535.0,"duration":0.97917,"midi":42,"velocity":86,"channel":4,"program":29},{"beat":535.0,"duration":0.97917,"midi":42,"velocity":88,"channel":5,"program":30},{"beat":535.0,"duration":0.47917,"midi":54,"velocity":91,"channel":3,"program":27},{"beat":535.0,"duration":0.47917,"midi":57,"velocity":87,"channel":1,"program":52},{"beat":535.0,"duration":0.47917,"midi":62,"velocity":87,"channel":1,"program":52},{"beat":535.0,"duration":0.47917,"midi":66,"velocity":88,"channel":1,"program":52},{"beat":535.0,"duration":0.22917,"midi":69,"velocity":86,"channel":13,"program":81},{"beat":535.0,"duration":0.47917,"midi":74,"velocity":79,"channel":7,"program":29},{"beat":535.0,"duration":0.47917,"midi":81,"velocity":99,"channel":0,"program":22},{"beat":535.02083,"duration":0.95833,"midi":50,"velocity":85,"channel":4,"program":29},{"beat":535.02083,"duration":0.95833,"midi":50,"velocity":87,"channel":5,"program":30},{"beat":535.02083,"duration":0.45833,"midi":57,"velocity":90,"channel":3,"program":27},{"beat":535.02083,"duration":0.95833,"midi":62,"velocity":84,"channel":6,"program":29},{"beat":535.04167,"duration":0.4375,"midi":57,"velocity":82,"channel":4,"program":29},{"beat":535.04167,"duration":0.9375,"midi":57,"velocity":82,"channel":5,"program":30},{"beat":535.04167,"duration":0.4375,"midi":62,"velocity":91,"channel":3,"program":27},{"beat":535.5,"duration":0.47917,"midi":54,"velocity":88,"channel":1,"program":52},{"beat":535.5,"duration":0.47917,"midi":54,"velocity":79,"channel":3,"program":27},{"beat":535.5,"duration":0.47917,"midi":59,"velocity":90,"channel":1,"program":52},{"beat":535.5,"duration":0.47917,"midi":62,"velocity":90,"channel":1,"program":52},{"beat":535.5,"duration":0.22917,"midi":69,"velocity":86,"channel":7,"program":29},{"beat":535.5,"duration":0.22917,"midi":69,"velocity":75,"channel":13,"program":81},{"beat":535.5,"duration":0.47917,"midi":78,"velocity":99,"channel":0,"program":22},{"beat":535.52083,"duration":0.45833,"midi":57,"velocity":79,"channel":3,"program":27},{"beat":535.52083,"duration":0.20833,"midi":57,"velocity":89,"channel":12,"program":25},{"beat":535.54167,"duration":0.4375,"midi":57,"velocity":80,"channel":4,"program":29},{"beat":535.54167,"duration":0.4375,"midi":62,"velocity":82,"channel":3,"program":27},{"beat":535.54167,"duration":0.1875,"midi":62,"velocity":83,"channel":12,"program":25},{"beat":535.75,"duration":0.22917,"midi":69,"velocity":86,"channel":7,"program":29},{"beat":535.77083,"duration":0.20833,"midi":57,"velocity":86,"channel":12,"program":25},{"beat":535.79167,"duration":0.1875,"midi":62,"velocity":86,"channel":12,"program":25},{"beat":536.0,"duration":0.97917,"midi":31,"velocity":94,"channel":2,"program":33},{"beat":536.0,"duration":0.97917,"midi":43,"velocity":90,"channel":4,"program":29},{"beat":536.0,"duration":0.97917,"midi":43,"velocity":90,"channel":5,"program":30},{"beat":536.0,"duration":0.97917,"midi":50,"velocity":90,"channel":3,"program":27},{"beat":536.0,"duration":0.97917,"midi":50,"velocity":85,"channel":6,"program":29},{"beat":536.0,"duration":0.5625,"midi":57,"velocity":89,"channel":1,"program":52},{"beat":536.0,"duration":0.5625,"midi":62,"velocity":90,"channel":1,"program":52},{"beat":536.0,"duration":0.5625,"midi":66,"velocity":90,"channel":1,"program":52},{"beat":536.0,"duration":0.22917,"midi":69,"velocity":82,"channel":13,"program":81},{"beat":536.0,"duration":0.27083,"midi":74,"velocity":89,"channel":7,"program":29},{"beat":536.0,"duration":3.97917,"midi":74,"velocity":88,"channel":7,"program":51},{"beat":536.0,"duration":0.5625,"midi":81,"velocity":100,"channel":0,"program":22},{"beat":536.0,"duration":3.97917,"midi":86,"velocity":79,"channel":7,"program":51},{"beat":536.02083,"duration":0.95833,"midi":50,"velocity":86,"channel":4,"program":29},{"beat":536.02083,"duration":0.95833,"midi":50,"velocity":89,"channel":5,"program":30},{"beat":536.02083,"duration":0.95833,"midi":55,"velocity":89,"channel":3,"program":27},{"beat":536.02083,"duration":0.95833,"midi":59,"velocity":90,"channel":6,"program":29},{"beat":536.02083,"duration":0.95833,"midi":59,"velocity":94,"channel":12,"program":25},{"beat":536.04167,"duration":0.9375,"midi":55,"velocity":89,"channel":4,"program":29},{"beat":536.04167,"duration":0.9375,"midi":55,"velocity":85,"channel":5,"program":30},{"beat":536.04167,"duration":0.9375,"midi":62,"velocity":89,"channel":3,"program":27},{"beat":536.04167,"duration":0.9375,"midi":62,"velocity":93,"channel":12,"program":25},{"beat":536.04167,"duration":0.9375,"midi":71,"velocity":70,"channel":6,"program":29},{"beat":536.5,"duration":0.22917,"midi":69,"velocity":69,"channel":13,"program":81},{"beat":536.5,"duration":0.27083,"midi":71,"velocity":84,"channel":7,"program":29},{"beat":536.75,"duration":0.22917,"midi":74,"velocity":70,"channel":7,"program":29},{"beat":537.0,"duration":0.47917,"midi":31,"velocity":100,"channel":2,"program":33},{"beat":537.0,"duration":0.47917,"midi":43,"velocity":85,"channel":4,"program":29},{"beat":537.0,"duration":0.47917,"midi":43,"velocity":90,"channel":5,"program":30},{"beat":537.0,"duration":0.47917,"midi":50,"velocity":92,"channel":3,"program":27},{"beat":537.0,"duration":0.97917,"midi":50,"velocity":89,"channel":6,"program":29},{"beat":537.0,"duration":0.27083,"midi":69,"velocity":84,"channel":7,"program":29},{"beat":537.0,"duration":0.22917,"midi":69,"velocity":84,"channel":13,"program":81},{"beat":537.0,"duration":0.72917,"midi":74,"velocity":80,"channel":7,"program":29},{"beat":537.02083,"duration":0.45833,"midi":50,"velocity":86,"channel":4,"program":29},{"beat":537.02083,"duration":0.45833,"midi":50,"velocity":85,"channel":5,"program":30},{"beat":537.02083,"duration":0.45833,"midi":54,"velocity":94,"channel":3,"program":27},{"beat":537.02083,"duration":0.95833,"midi":59,"velocity":87,"channel":6,"program":29},{"beat":537.02083,"duration":0.45833,"midi":59,"velocity":94,"channel":12,"program":25},{"beat":537.04167,"duration":0.4375,"midi":55,"velocity":79,"channel":4,"program":29},{"beat":537.04167,"duration":0.4375,"midi":55,"velocity":81,"channel":5,"program":30},{"beat":537.04167,"duration":0.4375,"midi":62,"velocity":93,"channel":3,"program":27},{"beat":537.04167,"duration":0.4375,"midi":62,"velocity":96,"channel":12,"program":25},{"beat":537.04167,"duration":0.6875,"midi":74,"velocity":89,"channel":6,"program":29},{"beat":537.25,"duration":0.22917,"midi":66,"velocity":80,"channel":7,"program":29},{"beat":537.5,"duration":0.47917,"midi":38,"velocity":80,"channel":2,"program":33},{"beat":537.5,"duration":0.97917,"midi":43,"velocity":88,"channel":4,"program":29},{"beat":537.5,"duration":0.97917,"midi":43,"velocity":86,"channel":5,"program":30},{"beat":537.5,"duration":0.97917,"midi":50,"velocity":80,"channel":3,"program":27},{"beat":537.5,"duration":0.47917,"midi":57,"velocity":88,"channel":1,"program":52},{"beat":537.5,"duration":0.47917,"midi":62,"velocity":90,"channel":1,"program":52},{"beat":537.5,"duration":0.47917,"midi":66,"velocity":90,"channel":1,"program":52},{"beat":537.5,"duration":0.47917,"midi":66,"velocity":80,"channel":7,"program":29},{"beat":537.5,"duration":0.22917,"midi":69,"velocity":71,"channel":13,"program":81},{"beat":537.5,"duration":0.47917,"midi":81,"velocity":98,"channel":0,"program":22},{"beat":537.52083,"duration":0.95833,"midi":50,"velocity":89,"channel":4,"program":29},{"beat":537.52083,"duration":0.95833,"midi":50,"velocity":89,"channel":5,"program":30},{"beat":537.52083,"duration":0.95833,"midi":55,"velocity":79,"channel":3,"program":27},{"beat":537.52083,"duration":0.45833,"midi":59,"velocity":82,"channel":12,"program":25},{"beat":537.54167,"duration":0.9375,"midi":55,"velocity":78,"channel":4,"program":29},{"beat":537.54167,"duration":0.9375,"midi":55,"velocity":84,"channel":5,"program":30},{"beat":537.54167,"duration":0.9375,"midi":62,"velocity":80,"channel":3,"program":27},{"beat":537.54167,"duration":0.4375,"midi":62,"velocity":85,"channel":12,"program":25},{"beat":538.0,"duration":0.47917,"midi":45,"velocity":90,"channel":2,"program":33},{"beat":538.0,"duration":0.47917,"midi":50,"velocity":84,"channel":6,"program":29},{"beat":538.0,"duration":0.47917,"midi":57,"velocity":89,"channel":1,"program":52},{"beat":538.0,"duration":0.47917,"midi":62,"velocity":89,"channel":1,"program":52},{"beat":538.0,"duration":0.47917,"midi":66,"velocity":90,"channel":1,"program":52},{"beat":538.0,"duration":0.27083,"midi":69,"velocity":86,"channel":7,"program":29},{"beat":538.0,"duration":0.22917,"midi":69,"velocity":76,"channel":13,"program":81},{"beat":538.0,"duration":0.47917,"midi":81,"velocity":100,"channel":0,"program":22},{"beat":538.02083,"duration":0.45833,"midi":59,"velocity":84,"channel":12,"program":25},{"beat":538.04167,"duration":0.4375,"midi":62,"velocity":90,"channel":12,"program":25},{"beat":538.25,"duration":0.22917,"midi":71,"velocity":87,"channel":7,"program":29},{"beat":538.25,"duration":0.22917,"midi":74,"velocity":85,"channel":7,"program":29},{"beat":538.5,"duration":0.47917,"midi":43,"velocity":85,"channel":2,"program":33},{"beat":538.5,"duration":0.97917,"midi":43,"velocity":89,"channel":4,"program":29},{"beat":538.5,"duration":0.47917,"midi":43,"velocity":87,"channel":5,"program":30},{"beat":538.5,"duration":0.97917,"midi":50,"velocity":79,"channel":3,"program":27},{"beat":538.5,"duration":0.97917,"midi":50,"velocity":89,"channel":6,"program":29},{"beat":538.5,"duration":0.47917,"midi":54,"velocity":88,"channel":1,"program":52},{"beat":538.5,"duration":0.47917,"midi":59,"velocity":87,"channel":1,"program":52},{"beat":538.5,"duration":0.47917,"midi":62,"velocity":89,"channel":1,"program":52},{"beat":538.5,"duration":0.47917,"midi":66,"velocity":87,"channel":7,"program":29},{"beat":538.5,"duration":0.22917,"midi":69,"velocity":71,"channel":13,"program":81},{"beat":538.5,"duration":0.22917,"midi":74,"velocity":87,"channel":7,"program":29},{"beat":538.5,"duration":0.47917,"midi":78,"velocity":102,"channel":0,"program":22},{"beat":538.52083,"duration":0.95833,"midi":50,"velocity":90,"channel":4,"program":29},{"beat":538.52083,"duration":0.45833,"midi":50,"velocity":85,"channel":5,"program":30},{"beat":538.52083,"duration":0.45833,"midi":59,"velocity":80,"channel":3,"program":27},{"beat":538.52083,"duration":0.95833,"midi":59,"velocity":86,"channel":6,"program":29},{"beat":538.52083,"duration":0.95833,"midi":59,"velocity":81,"channel":12,"program":25},{"beat":538.54167,"duration":0.9375,"midi":55,"velocity":78,"channel":4,"program":29},{"beat":538.54167,"duration":0.4375,"midi":55,"velocity":78,"channel":5,"program":30},{"beat":538.54167,"duration":0.9375,"midi":62,"velocity":82,"channel":3,"program":27},{"beat":538.54167,"duration":0.9375,"midi":62,"velocity":87,"channel":12,"program":25},{"beat":538.54167,"duration":1.4375,"midi":74,"velocity":84,"channel":6,"program":29},{"beat":539.0,"duration":0.47917,"midi":40,"velocity":86,"channel":2,"program":33},{"beat":539.0,"duration":0.97917,"midi":43,"velocity":89,"channel":5,"program":30},{"beat":539.0,"duration":0.39583,"midi":54,"velocity":90,"channel":1,"program":52},{"beat":539.0,"duration":0.39583,"midi":59,"velocity":87,"channel":1,"program":52},{"beat":539.0,"duration":0.39583,"midi":62,"velocity":88,"channel":1,"program":52},{"beat":539.0,"duration":0.22917,"midi":69,"velocity":80,"channel":13,"program":81},{"beat":539.0,"duration":0.27083,"midi":74,"velocity":88,"channel":7,"program":29},{"beat":539.0,"duration":0.39583,"midi":78,"velocity":100,"channel":0,"program":22},{"beat":539.02083,"duration":0.95833,"midi":50,"velocity":85,"channel":5,"program":30},{"beat":539.02083,"duration":0.45833,"midi":57,"velocity":90,"channel":3,"program":27},{"beat":539.04167,"duration":0.9375,"midi":55,"velocity":79,"channel":5,"program":30},{"beat":539.5,"duration":0.47917,"midi":38,"velocity":72,"channel":2,"program":33},{"beat":539.5,"duration":0.22917,"midi":45,"velocity":90,"channel":4,"program":29},{"beat":539.5,"duration":0.47917,"midi":50,"velocity":79,"channel":3,"program":27},{"beat":539.5,"duration":0.47917,"midi":50,"velocity":89,"channel":6,"program":29},{"beat":539.5,"duration":0.8125,"midi":52,"velocity":90,"channel":1,"program":52},{"beat":539.5,"duration":0.8125,"midi":57,"velocity":89,"channel":1,"program":52},{"beat":539.5,"duration":0.8125,"midi":69,"velocity":88,"channel":1,"program":52},{"beat":539.5,"duration":0.22917,"midi":69,"velocity":71,"channel":13,"program":81},{"beat":539.5,"duration":0.22917,"midi":74,"velocity":89,"channel":7,"program":29},{"beat":539.5,"duration":0.8125,"midi":76,"velocity":99,"channel":0,"program":22},{"beat":539.52083,"duration":0.20833,"midi":52,"velocity":85,"channel":4,"program":29},{"beat":539.52083,"duration":0.45833,"midi":57,"velocity":79,"channel":3,"program":27},{"beat":539.52083,"duration":0.45833,"midi":57,"velocity":90,"channel":6,"program":29},{"beat":539.52083,"duration":0.20833,"midi":59,"velocity":86,"channel":12,"program":25},{"beat":539.54167,"duration":0.4375,"midi":62,"velocity":79,"channel":3,"program":27},{"beat":539.54167,"duration":0.1875,"midi":62,"velocity":82,"channel":12,"program":25},{"beat":539.75,"duration":0.22917,"midi":45,"velocity":90,"channel":4,"program":29},{"beat":539.75,"duration":0.22917,"midi":74,"velocity":88,"channel":7,"program":29},{"beat":539.77083,"duration":0.20833,"midi":52,"velocity":78,"channel":4,"program":29},{"beat":539.77083,"duration":0.20833,"midi":59,"velocity":84,"channel":12,"program":25},{"beat":539.79167,"duration":0.1875,"midi":62,"velocity":85,"channel":12,"program":25},{"beat":540.0,"duration":0.97917,"midi":33,"velocity":82,"channel":2,"program":33},{"beat":540.0,"duration":0.97917,"midi":45,"velocity":87,"channel":4,"program":29},{"beat":540.0,"duration":0.97917,"midi":45,"velocity":85,"channel":5,"program":30},{"beat":540.0,"duration":0.97917,"midi":52,"velocity":84,"channel":3,"program":27},{"beat":540.0,"duration":0.97917,"midi":57,"velocity":89,"channel":6,"program":29},{"beat":540.0,"duration":0.22917,"midi":69,"velocity":65,"channel":13,"program":81},{"beat":540.0,"duration":2.47917,"midi":73,"velocity":86,"channel":7,"program":51},{"beat":540.0,"duration":3.97917,"midi":85,"velocity":77,"channel":7,"program":51},{"beat":540.02083,"duration":0.95833,"midi":52,"velocity":84,"channel":4,"program":29},{"beat":540.02083,"duration":0.95833,"midi":52,"velocity":87,"channel":5,"program":30},{"beat":540.02083,"duration":0.95833,"midi":57,"velocity":85,"channel":3,"program":27},{"beat":540.02083,"duration":0.95833,"midi":57,"velocity":90,"channel":12,"program":25},{"beat":540.02083,"duration":0.95833,"midi":61,"velocity":88,"channel":6,"program":29},{"beat":540.04167,"duration":0.9375,"midi":57,"velocity":84,"channel":4,"program":29},{"beat":540.04167,"duration":0.9375,"midi":57,"velocity":88,"channel":5,"program":30},{"beat":540.04167,"duration":0.9375,"midi":61,"velocity":89,"channel":3,"program":27},{"beat":540.04167,"duration":0.9375,"midi":61,"velocity":96,"channel":12,"program":25},{"beat":540.25,"duration":0.22917,"midi":76,"velocity":89,"channel":7,"program":29},{"beat":540.5,"duration":0.72917,"midi":54,"velocity":89,"channel":1,"program":52},{"beat":540.5,"duration":0.72917,"midi":57,"velocity":88,"channel":1,"program":52},{"beat":540.5,"duration":0.72917,"midi":69,"velocity":87,"channel":1,"program":52},{"beat":540.5,"duration":0.22917,"midi":69,"velocity":70,"channel":13,"program":81},{"beat":540.5,"duration":0.27083,"midi":76,"velocity":84,"channel":7,"program":29},{"beat":540.5,"duration":0.72917,"midi":78,"velocity":99,"channel":0,"program":22},{"beat":540.75,"duration":0.27083,"midi":71,"velocity":80,"channel":7,"program":29},{"beat":541.0,"duration":0.47917,"midi":33,"velocity":102,"channel":2,"program":33},{"beat":541.0,"duration":0.47917,"midi":45,"velocity":87,"channel":4,"program":29},{"beat":541.0,"duration":0.47917,"midi":45,"velocity":88,"channel":5,"program":30},{"beat":541.0,"duration":0.47917,"midi":52,"velocity":94,"channel":3,"program":27},{"beat":541.0,"duration":0.47917,"midi":57,"velocity":92,"channel":6,"program":29},{"beat":541.0,"duration":0.22917,"midi":69,"velocity":83,"channel":13,"program":81},{"beat":541.0,"duration":0.22917,"midi":76,"velocity":84,"channel":7,"program":29},{"beat":541.02083,"duration":0.45833,"midi":52,"velocity":86,"channel":4,"program":29},{"beat":541.02083,"duration":0.45833,"midi":52,"velocity":86,"channel":5,"program":30},{"beat":541.02083,"duration":0.45833,"midi":57,"velocity":94,"channel":3,"program":27},{"beat":541.02083,"duration":0.45833,"midi":57,"velocity":97,"channel":12,"program":25},{"beat":541.02083,"duration":0.45833,"midi":61,"velocity":92,"channel":6,"program":29},{"beat":541.04167,"duration":0.4375,"midi":57,"velocity":79,"channel":4,"program":29},{"beat":541.04167,"duration":0.4375,"midi":57,"velocity":76,"channel":5,"program":30},{"beat":541.04167,"duration":0.4375,"midi":61,"velocity":96,"channel":3,"program":27},{"beat":541.04167,"duration":0.4375,"midi":61,"velocity":97,"channel":12,"program":25},{"beat":541.25,"duration":0.27083,"midi":76,"velocity":89,"channel":7,"program":29},{"beat":541.5,"duration":0.47917,"midi":40,"velocity":82,"channel":2,"program":33},{"beat":541.5,"duration":0.97917,"midi":45,"velocity":89,"channel":4,"program":29},{"beat":541.5,"duration":0.97917,"midi":45,"velocity":89,"channel":5,"program":30},{"beat":541.5,"duration":0.8125,"midi":52,"velocity":89,"channel":1,"program":52},{"beat":541.5,"duration":0.97917,"midi":52,"velocity":80,"channel":3,"program":27},{"beat":541.5,"duration":0.8125,"midi":57,"velocity":89,"channel":1,"program":52},{"beat":541.5,"duration":0.97917,"midi":57,"velocity":83,"channel":6,"program":29},{"beat":541.5,"duration":0.8125,"midi":69,"velocity":88,"channel":1,"program":52},{"beat":541.5,"duration":0.22917,"midi":69,"velocity":73,"channel":13,"program":81},{"beat":541.5,"duration":0.27083,"midi":71,"velocity":88,"channel":7,"program":29},{"beat":541.5,"duration":0.8125,"midi":76,"velocity":101,"channel":0,"program":22},{"beat":541.52083,"duration":0.95833,"midi":52,"velocity":86,"channel":4,"program":29},{"beat":541.52083,"duration":0.95833,"midi":52,"velocity":88,"channel":5,"program":30},{"beat":541.52083,"duration":0.95833,"midi":57,"velocity":82,"channel":3,"program":27},{"beat":541.52083,"duration":0.95833,"midi":57,"velocity":85,"channel":12,"program":25},{"beat":541.52083,"duration":0.95833,"midi":61,"velocity":81,"channel":6,"program":29},{"beat":541.54167,"duration":0.9375,"midi":57,"velocity":83,"channel":4,"program":29},{"beat":541.54167,"duration":0.9375,"midi":57,"velocity":78,"channel":5,"program":30},{"beat":541.54167,"duration":0.9375,"midi":61,"velocity":81,"channel":3,"program":27},{"beat":541.54167,"duration":0.9375,"midi":61,"velocity":99,"channel":12,"program":25},{"beat":541.75,"duration":0.22917,"midi":73,"velocity":86,"channel":7,"program":29},{"beat":542.0,"duration":0.47917,"midi":45,"velocity":88,"channel":2,"program":33},{"beat":542.0,"duration":0.22917,"midi":69,"velocity":78,"channel":13,"program":81},{"beat":542.0,"duration":0.22917,"midi":73,"velocity":86,"channel":7,"program":29},{"beat":542.5,"duration":0.47917,"midi":45,"velocity":88,"channel":2,"program":33},{"beat":542.5,"duration":1.47917,"midi":45,"velocity":86,"channel":4,"program":29},{"beat":542.5,"duration":0.47917,"midi":45,"velocity":86,"channel":5,"program":30},{"beat":542.5,"duration":0.47917,"midi":50,"velocity":89,"channel":1,"program":52},{"beat":542.5,"duration":0.47917,"midi":52,"velocity":81,"channel":3,"program":27},{"beat":542.5,"duration":0.47917,"midi":57,"velocity":88,"channel":1,"program":52},{"beat":542.5,"duration":1.22917,"midi":57,"velocity":83,"channel":6,"program":29},{"beat":542.5,"duration":0.47917,"midi":69,"velocity":88,"channel":1,"program":52},{"beat":542.5,"duration":0.47917,"midi":69,"velocity":84,"channel":7,"program":51},{"beat":542.5,"duration":0.22917,"midi":69,"velocity":77,"channel":13,"program":81},{"beat":542.5,"duration":0.47917,"midi":73,"velocity":88,"channel":7,"program":51},{"beat":542.5,"duration":0.47917,"midi":74,"velocity":102,"channel":0,"program":22},{"beat":542.5,"duration":0.47917,"midi":78,"velocity":85,"channel":7,"program":29},{"beat":542.52083,"duration":0.95833,"midi":52,"velocity":87,"channel":4,"program":29},{"beat":542.52083,"duration":0.45833,"midi":52,"velocity":87,"channel":5,"program":30},{"beat":542.52083,"duration":0.45833,"midi":57,"velocity":80,"channel":3,"program":27},{"beat":542.52083,"duration":0.95833,"midi":57,"velocity":89,"channel":12,"program":25},{"beat":542.52083,"duration":1.20833,"midi":61,"velocity":84,"channel":6,"program":29},{"beat":542.54167,"duration":1.4375,"midi":57,"velocity":83,"channel":4,"program":29},{"beat":542.54167,"duration":0.4375,"midi":57,"velocity":76,"channel":5,"program":30},{"beat":542.54167,"duration":0.4375,"midi":61,"velocity":79,"channel":3,"program":27},{"beat":542.54167,"duration":0.9375,"midi":61,"velocity":89,"channel":12,"program":25},{"beat":543.0,"duration":0.97917,"midi":45,"velocity":80,"channel":2,"program":33},{"beat":543.0,"duration":0.47917,"midi":45,"velocity":85,"channel":5,"program":30},{"beat":543.0,"duration":0.47917,"midi":49,"velocity":87,"channel":1,"program":52},{"beat":543.0,"duration":0.72917,"midi":52,"velocity":91,"channel":3,"program":27},{"beat":543.0,"duration":0.47917,"midi":57,"velocity":87,"channel":1,"program":52},{"beat":543.0,"duration":0.47917,"midi":69,"velocity":90,"channel":1,"program":52},{"beat":543.0,"duration":0.97917,"midi":69,"velocity":85,"channel":7,"program":51},{"beat":543.0,"duration":0.22917,"midi":69,"velocity":86,"channel":13,"program":81},{"beat":543.0,"duration":0.47917,"midi":73,"velocity":100,"channel":0,"program":22},{"beat":543.0,"duration":0.97917,"midi":73,"velocity":86,"channel":7,"program":51},{"beat":543.0,"duration":0.52083,"midi":73,"velocity":60,"channel":7,"program":29},{"beat":543.02083,"duration":0.45833,"midi":52,"velocity":86,"channel":5,"program":30},{"beat":543.02083,"duration":0.70833,"midi":57,"velocity":88,"channel":3,"program":27},{"beat":543.04167,"duration":0.9375,"midi":57,"velocity":77,"channel":5,"program":30},{"beat":543.04167,"duration":0.9375,"midi":61,"velocity":91,"channel":3,"program":27},{"beat":543.5,"duration":0.22917,"midi":45,"velocity":85,"channel":5,"program":30},{"beat":543.5,"duration":0.72917,"midi":50,"velocity":89,"channel":1,"program":52},{"beat":543.5,"duration":0.22917,"midi":52,"velocity":86,"channel":4,"program":29},{"beat":543.5,"duration":0.72917,"midi":57,"velocity":89,"channel":1,"program":52},{"beat":543.5,"duration":0.72917,"midi":69,"velocity":89,"channel":1,"program":52},{"beat":543.5,"duration":0.22917,"midi":69,"velocity":75,"channel":13,"program":81},{"beat":543.5,"duration":0.72917,"midi":74,"velocity":102,"channel":0,"program":22},{"beat":543.5,"duration":0.52083,"midi":74,"velocity":70,"channel":7,"program":29},{"beat":543.52083,"duration":0.20833,"midi":52,"velocity":86,"channel":5,"program":30},{"beat":543.52083,"duration":0.20833,"midi":57,"velocity":85,"channel":12,"program":25},{"beat":543.54167,"duration":0.1875,"midi":61,"velocity":88,"channel":12,"program":25},{"beat":543.75,"duration":0.22917,"midi":45,"velocity":85,"channel":5,"program":30},{"beat":543.75,"duration":0.22917,"midi":52,"velocity":79,"channel":3,"program":27},{"beat":543.75,"duration":0.22917,"midi":52,"velocity":80,"channel":4,"program":29},{"beat":543.75,"duration":0.22917,"midi":57,"velocity":80,"channel":6,"program":29},{"beat":543.77083,"duration":0.20833,"midi":52,"velocity":86,"channel":5,"program":30},{"beat":543.77083,"duration":0.20833,"midi":57,"velocity":85,"channel":12,"program":25},{"beat":543.77083,"duration":0.20833,"midi":61,"velocity":79,"channel":6,"program":29},{"beat":543.79167,"duration":0.1875,"midi":57,"velocity":79,"channel":3,"program":27},{"beat":543.79167,"duration":0.1875,"midi":61,"velocity":84,"channel":12,"program":25},{"beat":544.0,"duration":0.97917,"midi":38,"velocity":101,"channel":2,"program":33},{"beat":544.0,"duration":0.97917,"midi":50,"velocity":85,"channel":3,"program":27},{"beat":544.0,"duration":0.97917,"midi":50,"velocity":85,"channel":4,"program":29},{"beat":544.0,"duration":0.97917,"midi":50,"velocity":88,"channel":5,"program":30},{"beat":544.0,"duration":0.97917,"midi":57,"velocity":74,"channel":6,"program":29},{"beat":544.0,"duration":0.22917,"midi":69,"velocity":82,"channel":13,"program":81},{"beat":544.0,"duration":3.97917,"midi":74,"velocity":89,"channel":7,"program":51},{"beat":544.0,"duration":3.97917,"midi":74,"velocity":70,"channel":14,"program":29},{"beat":544.0,"duration":3.97917,"midi":86,"velocity":77,"channel":7,"program":51},{"beat":544.02083,"duration":0.95833,"midi":57,"velocity":85,"channel":3,"program":27},{"beat":544.02083,"duration":0.95833,"midi":57,"velocity":89,"channel":4,"program":29},{"beat":544.02083,"duration":0.95833,"midi":57,"velocity":87,"channel":5,"program":30},{"beat":544.02083,"duration":0.95833,"midi":57,"velocity":96,"channel":12,"program":25},{"beat":544.02083,"duration":0.95833,"midi":62,"velocity":88,"channel":3,"program":27},{"beat":544.02083,"duration":0.95833,"midi":62,"velocity":74,"channel":6,"program":29},{"beat":544.04167,"duration":0.9375,"midi":62,"velocity":81,"channel":5,"program":30},{"beat":544.04167,"duration":0.9375,"midi":62,"velocity":92,"channel":12,"program":25},{"beat":544.04167,"duration":0.9375,"midi":64,"velocity":72,"channel":3,"program":27},{"beat":544.04167,"duration":0.9375,"midi":64,"velocity":69,"channel":4,"program":29},{"beat":544.5,"duration":0.22917,"midi":69,"velocity":69,"channel":13,"program":81},{"beat":545.0,"duration":0.47917,"midi":50,"velocity":87,"channel":2,"program":33},{"beat":545.0,"duration":0.47917,"midi":50,"velocity":85,"channel":3,"program":27},{"beat":545.0,"duration":0.47917,"midi":50,"velocity":86,"channel":5,"program":30},{"beat":545.0,"duration":0.47917,"midi":52,"velocity":85,"channel":4,"program":29},{"beat":545.0,"duration":0.47917,"midi":57,"velocity":91,"channel":6,"program":29},{"beat":545.0,"duration":0.22917,"midi":69,"velocity":84,"channel":13,"program":81},{"beat":545.0,"duration":0.97917,"midi":83,"velocity":70,"channel":7,"program":51},{"beat":545.02083,"duration":0.45833,"midi":57,"velocity":89,"channel":3,"program":27},{"beat":545.02083,"duration":0.45833,"midi":57,"velocity":85,"channel":4,"program":29},{"beat":545.02083,"duration":0.45833,"midi":57,"velocity":84,"channel":5,"program":30},{"beat":545.02083,"duration":0.45833,"midi":57,"velocity":100,"channel":12,"program":25},{"beat":545.02083,"duration":0.45833,"midi":62,"velocity":88,"channel":3,"program":27},{"beat":545.02083,"duration":0.45833,"midi":62,"velocity":91,"channel":6,"program":29},{"beat":545.04167,"duration":0.4375,"midi":62,"velocity":79,"channel":5,"program":30},{"beat":545.04167,"duration":0.4375,"midi":62,"velocity":97,"channel":12,"program":25},{"beat":545.04167,"duration":0.4375,"midi":64,"velocity":65,"channel":3,"program":27},{"beat":545.04167,"duration":0.4375,"midi":64,"velocity":60,"channel":4,"program":29},{"beat":545.5,"duration":0.47917,"midi":38,"velocity":81,"channel":2,"program":33},{"beat":545.5,"duration":0.97917,"midi":50,"velocity":83,"channel":3,"program":27},{"beat":545.5,"duration":0.97917,"midi":50,"velocity":90,"channel":4,"program":29},{"beat":545.5,"duration":0.97917,"midi":50,"velocity":89,"channel":5,"program":30},{"beat":545.5,"duration":0.47917,"midi":57,"velocity":83,"channel":6,"program":29},{"beat":545.5,"duration":0.22917,"midi":69,"velocity":71,"channel":13,"program":81},{"beat":545.52083,"duration":0.95833,"midi":57,"velocity":81,"channel":3,"program":27},{"beat":545.52083,"duration":0.95833,"midi":57,"velocity":87,"channel":4,"program":29},{"beat":545.52083,"duration":0.95833,"midi":57,"velocity":84,"channel":5,"program":30},{"beat":545.52083,"duration":0.45833,"midi":57,"velocity":83,"channel":12,"program":25},{"beat":545.52083,"duration":0.95833,"midi":62,"velocity":79,"channel":3,"program":27},{"beat":545.52083,"duration":0.45833,"midi":62,"velocity":86,"channel":6,"program":29},{"beat":545.54167,"duration":0.9375,"midi":62,"velocity":79,"channel":5,"program":30},{"beat":545.54167,"duration":0.4375,"midi":62,"velocity":80,"channel":12,"program":25},{"beat":545.54167,"duration":0.9375,"midi":64,"velocity":69,"channel":3,"program":27},{"beat":545.54167,"duration":0.4375,"midi":64,"velocity":58,"channel":4,"program":29},{"beat":546.0,"duration":0.47917,"midi":38,"velocity":96,"channel":2,"program":33},{"beat":546.0,"duration":0.22917,"midi":69,"velocity":76,"channel":13,"program":81},{"beat":546.02083,"duration":0.45833,"midi":57,"velocity":88,"channel":12,"program":25},{"beat":546.04167,"duration":0.4375,"midi":62,"velocity":92,"channel":12,"program":25},{"beat":546.5,"duration":0.97917,"midi":38,"velocity":82,"channel":2,"program":33},{"beat":546.5,"duration":0.97917,"midi":50,"velocity":81,"channel":3,"program":27},{"beat":546.5,"duration":0.47917,"midi":50,"velocity":89,"channel":5,"program":30},{"beat":546.5,"duration":0.47917,"midi":52,"velocity":85,"channel":4,"program":29},{"beat":546.5,"duration":0.47917,"midi":57,"velocity":85,"channel":6,"program":29},{"beat":546.5,"duration":0.22917,"midi":69,"velocity":71,"channel":13,"program":81},{"beat":546.5,"duration":0.47917,"midi":83,"velocity":70,"channel":7,"program":51},{"beat":546.52083,"duration":0.95833,"midi":57,"velocity":82,"channel":3,"program":27},{"beat":546.52083,"duration":0.45833,"midi":57,"velocity":87,"channel":4,"program":29},{"beat":546.52083,"duration":0.45833,"midi":57,"velocity":90,"channel":5,"program":30},{"beat":546.52083,"duration":0.95833,"midi":57,"velocity":83,"channel":12,"program":25},{"beat":546.52083,"duration":0.95833,"midi":62,"velocity":80,"channel":3,"program":27},{"beat":546.52083,"duration":0.45833,"midi":62,"velocity":89,"channel":6,"program":29},{"beat":546.54167,"duration":0.4375,"midi":62,"velocity":76,"channel":5,"program":30},{"beat":546.54167,"duration":0.9375,"midi":62,"velocity":79,"channel":12,"program":25},{"beat":546.54167,"duration":0.4375,"midi":64,"velocity":69,"channel":3,"program":27},{"beat":546.54167,"duration":1.4375,"midi":64,"velocity":64,"channel":4,"program":29},{"beat":547.0,"duration":0.47917,"midi":50,"velocity":89,"channel":5,"program":30},{"beat":547.0,"duration":0.97917,"midi":52,"velocity":85,"channel":4,"program":29},{"beat":547.0,"duration":0.97917,"midi":57,"velocity":99,"channel":6,"program":29},{"beat":547.0,"duration":0.22917,"midi":69,"velocity":80,"channel":13,"program":81},{"beat":547.0,"duration":0.97917,"midi":83,"velocity":70,"channel":7,"program":51},{"beat":547.02083,"duration":0.95833,"midi":57,"velocity":86,"channel":4,"program":29},{"beat":547.02083,"duration":0.45833,"midi":57,"velocity":90,"channel":5,"program":30},{"beat":547.02083,"duration":0.95833,"midi":62,"velocity":99,"channel":6,"program":29},{"beat":547.04167,"duration":0.4375,"midi":62,"velocity":76,"channel":5,"program":30},{"beat":547.04167,"duration":0.4375,"midi":64,"velocity":64,"channel":3,"program":27},{"beat":547.5,"duration":0.47917,"midi":45,"velocity":84,"channel":2,"program":33},{"beat":547.5,"duration":0.47917,"midi":50,"velocity":80,"channel":3,"program":27},{"beat":547.5,"duration":0.47917,"midi":50,"velocity":81,"channel":5,"program":30},{"beat":547.5,"duration":0.22917,"midi":69,"velocity":71,"channel":13,"program":81},{"beat":547.52083,"duration":0.45833,"midi":57,"velocity":82,"channel":3,"program":27},{"beat":547.52083,"duration":0.45833,"midi":57,"velocity":82,"channel":5,"program":30},{"beat":547.52083,"duration":0.45833,"midi":57,"velocity":83,"channel":12,"program":25},{"beat":547.52083,"duration":0.45833,"midi":62,"velocity":79,"channel":3,"program":27},{"beat":547.54167,"duration":0.4375,"midi":62,"velocity":76,"channel":5,"program":30},{"beat":547.54167,"duration":0.4375,"midi":62,"velocity":82,"channel":12,"program":25},{"beat":547.54167,"duration":0.4375,"midi":64,"velocity":77,"channel":3,"program":27},{"beat":548.0,"duration":0.47917,"midi":50,"velocity":94,"channel":2,"program":33},{"beat":548.0,"duration":0.97917,"midi":50,"velocity":73,"channel":3,"program":27},{"beat":548.0,"duration":0.47917,"midi":50,"velocity":89,"channel":4,"program":29},{"beat":548.0,"duration":0.97917,"midi":50,"velocity":88,"channel":5,"program":30},{"beat":548.0,"duration":0.47917,"midi":57,"velocity":90,"channel":6,"program":29},{"beat":548.0,"duration":0.22917,"midi":69,"velocity":65,"channel":13,"program":81},{"beat":548.0,"duration":1.97917,"midi":76,"velocity":84,"channel":7,"program":51},{"beat":548.0,"duration":1.97917,"midi":76,"velocity":70,"channel":14,"program":29},{"beat":548.0,"duration":1.97917,"midi":83,"velocity":89,"channel":7,"program":51},{"beat":548.0,"duration":1.97917,"midi":95,"velocity":70,"channel":7,"program":51},{"beat":548.02083,"duration":0.95833,"midi":57,"velocity":74,"channel":3,"program":27},{"beat":548.02083,"duration":0.45833,"midi":57,"velocity":85,"channel":4,"program":29},{"beat":548.02083,"duration":0.95833,"midi":57,"velocity":84,"channel":5,"program":30},{"beat":548.02083,"duration":0.45833,"midi":57,"velocity":96,"channel":12,"program":25},{"beat":548.02083,"duration":0.95833,"midi":62,"velocity":77,"channel":3,"program":27},{"beat":548.02083,"duration":0.45833,"midi":64,"velocity":92,"channel":6,"program":29},{"beat":548.04167,"duration":0.9375,"midi":62,"velocity":81,"channel":5,"program":30},{"beat":548.04167,"duration":0.4375,"midi":62,"velocity":95,"channel":12,"program":25},{"beat":548.04167,"duration":0.4375,"midi":64,"velocity":62,"channel":3,"program":27},{"beat":548.04167,"duration":0.4375,"midi":64,"velocity":50,"channel":4,"program":29},{"beat":548.5,"duration":0.47917,"midi":50,"velocity":79,"channel":2,"program":33},{"beat":548.5,"duration":0.97917,"midi":50,"velocity":88,"channel":4,"program":29},{"beat":548.5,"duration":0.47917,"midi":57,"velocity":82,"channel":6,"program":29},{"beat":548.5,"duration":0.22917,"midi":69,"velocity":70,"channel":13,"program":81},{"beat":548.5,"duration":0.52083,"midi":83,"velocity":88,"channel":7,"program":29},{"beat":548.52083,"duration":0.95833,"midi":57,"velocity":90,"channel":4,"program":29},{"beat":548.52083,"duration":0.45833,"midi":57,"velocity":83,"channel":12,"program":25},{"beat":548.52083,"duration":0.45833,"midi":64,"velocity":82,"channel":6,"program":29},{"beat":548.54167,"duration":0.4375,"midi":62,"velocity":79,"channel":12,"program":25},{"beat":548.54167,"duration":0.4375,"midi":64,"velocity":67,"channel":3,"program":27},{"beat":548.54167,"duration":0.4375,"midi":64,"velocity":54,"channel":4,"program":29},{"beat":549.0,"duration":0.97917,"midi":50,"velocity":93,"channel":2,"program":33},{"beat":549.0,"duration":0.97917,"midi":50,"velocity":95,"channel":3,"program":27},{"beat":549.0,"duration":0.47917,"midi":50,"velocity":88,"channel":5,"program":30},{"beat":549.0,"duration":0.97917,"midi":57,"velocity":97,"channel":6,"program":29},{"beat":549.0,"duration":0.22917,"midi":69,"velocity":83,"channel":13,"program":81},{"beat":549.0,"duration":0.52083,"midi":81,"velocity":88,"channel":7,"program":29},{"beat":549.02083,"duration":0.95833,"midi":57,"velocity":95,"channel":3,"program":27},{"beat":549.02083,"duration":0.45833,"midi":57,"velocity":88,"channel":5,"program":30},{"beat":549.02083,"duration":0.45833,"midi":57,"velocity":95,"channel":12,"program":25},{"beat":549.02083,"duration":0.95833,"midi":62,"velocity":95,"channel":3,"program":27},{"beat":549.02083,"duration":0.95833,"midi":64,"velocity":94,"channel":6,"program":29},{"beat":549.04167,"duration":0.4375,"midi":62,"velocity":81,"channel":5,"program":30},{"beat":549.04167,"duration":0.4375,"midi":62,"velocity":95,"channel":12,"program":25},{"beat":549.04167,"duration":0.9375,"midi":64,"velocity":71,"channel":3,"program":27},{"beat":549.04167,"duration":0.4375,"midi":64,"velocity":50,"channel":4,"program":29},{"beat":549.5,"duration":0.47917,"midi":50,"velocity":87,"channel":4,"program":29},{"beat":549.5,"duration":0.47917,"midi":50,"velocity":89,"channel":5,"program":30},{"beat":549.5,"duration":0.22917,"midi":69,"velocity":73,"channel":13,"program":81},{"beat":549.5,"duration":0.27083,"midi":83,"velocity":86,"channel":7,"program":29},{"beat":549.52083,"duration":0.45833,"midi":57,"velocity":88,"channel":4,"program":29},{"beat":549.52083,"duration":0.45833,"midi":57,"velocity":88,"channel":5,"program":30},{"beat":549.52083,"duration":0.45833,"midi":57,"velocity":88,"channel":12,"program":25},{"beat":549.54167,"duration":0.4375,"midi":62,"velocity":79,"channel":5,"program":30},{"beat":549.54167,"duration":0.4375,"midi":62,"velocity":84,"channel":12,"program":25},{"beat":549.54167,"duration":0.4375,"midi":64,"velocity":58,"channel":4,"program":29},{"beat":549.75,"duration":0.27083,"midi":81,"velocity":90,"channel":7,"program":29},{"beat":550.0,"duration":0.47917,"midi":50,"velocity":85,"channel":2,"program":33},{"beat":550.0,"duration":0.47917,"midi":50,"velocity":90,"channel":3,"program":27},{"beat":550.0,"duration":0.97917,"midi":50,"velocity":89,"channel":4,"program":29},{"beat":550.0,"duration":0.47917,"midi":50,"velocity":85,"channel":5,"program":30},{"beat":550.0,"duration":0.47917,"midi":57,"velocity":85,"channel":6,"program":29},{"beat":550.0,"duration":0.22917,"midi":69,"velocity":78,"channel":13,"program":81},{"beat":550.0,"duration":1.97917,"midi":78,"velocity":84,"channel":7,"program":51},{"beat":550.0,"duration":1.97917,"midi":78,"velocity":70,"channel":14,"program":29},{"beat":550.0,"duration":1.97917,"midi":81,"velocity":84,"channel":7,"program":51},{"beat":550.0,"duration":1.97917,"midi":83,"velocity":84,"channel":7,"program":29},{"beat":550.0,"duration":1.97917,"midi":93,"velocity":70,"channel":7,"program":51},{"beat":550.02083,"duration":0.45833,"midi":57,"velocity":90,"channel":3,"program":27},{"beat":550.02083,"duration":0.95833,"midi":57,"velocity":85,"channel":4,"program":29},{"beat":550.02083,"duration":0.45833,"midi":57,"velocity":90,"channel":5,"program":30},{"beat":550.02083,"duration":0.45833,"midi":57,"velocity":90,"channel":12,"program":25},{"beat":550.02083,"duration":1.95833,"midi":62,"velocity":88,"channel":3,"program":27},{"beat":550.02083,"duration":0.45833,"midi":66,"velocity":87,"channel":6,"program":29},{"beat":550.04167,"duration":0.4375,"midi":62,"velocity":81,"channel":5,"program":30},{"beat":550.04167,"duration":0.4375,"midi":64,"velocity":87,"channel":12,"program":25},{"beat":550.04167,"duration":0.4375,"midi":66,"velocity":64,"channel":3,"program":27},{"beat":550.04167,"duration":0.4375,"midi":66,"velocity":60,"channel":4,"program":29},{"beat":550.5,"duration":0.47917,"midi":50,"velocity":82,"channel":2,"program":33},{"beat":550.5,"duration":0.47917,"midi":50,"velocity":86,"channel":3,"program":27},{"beat":550.5,"duration":0.47917,"midi":50,"velocity":85,"channel":5,"program":30},{"beat":550.5,"duration":0.47917,"midi":57,"velocity":79,"channel":6,"program":29},{"beat":550.5,"duration":0.22917,"midi":69,"velocity":77,"channel":13,"program":81},{"beat":550.52083,"duration":0.45833,"midi":57,"velocity":87,"channel":3,"program":27},{"beat":550.52083,"duration":0.45833,"midi":57,"velocity":89,"channel":5,"program":30},{"beat":550.52083,"duration":0.45833,"midi":57,"velocity":89,"channel":12,"program":25},{"beat":550.52083,"duration":0.45833,"midi":66,"velocity":83,"channel":6,"program":29},{"beat":550.54167,"duration":0.4375,"midi":62,"velocity":79,"channel":5,"program":30},{"beat":550.54167,"duration":0.4375,"midi":66,"velocity":56,"channel":3,"program":27},{"beat":550.54167,"duration":0.4375,"midi":66,"velocity":49,"channel":4,"program":29},{"beat":550.54167,"duration":0.4375,"midi":66,"velocity":90,"channel":12,"program":25},{"beat":551.0,"duration":0.47917,"midi":50,"velocity":89,"channel":2,"program":33},{"beat":551.0,"duration":0.47917,"midi":50,"velocity":98,"channel":3,"program":27},{"beat":551.0,"duration":0.47917,"midi":50,"velocity":84,"channel":4,"program":29},{"beat":551.0,"duration":0.47917,"midi":50,"velocity":90,"channel":5,"program":30},{"beat":551.0,"duration":6.0,"midi":53,"velocity":120,"channel":15,"program":116},{"beat":551.0,"duration":0.97917,"midi":57,"velocity":93,"channel":6,"program":29},{"beat":551.0,"duration":0.22917,"midi":69,"velocity":86,"channel":13,"program":81},{"beat":551.0,"duration":6.0,"midi":70,"velocity":120,"channel":15,"program":116},{"beat":551.02083,"duration":0.45833,"midi":57,"velocity":97,"channel":3,"program":27},{"beat":551.02083,"duration":0.45833,"midi":57,"velocity":90,"channel":4,"program":29},{"beat":551.02083,"duration":0.45833,"midi":57,"velocity":85,"channel":5,"program":30},{"beat":551.02083,"duration":0.45833,"midi":57,"velocity":94,"channel":12,"program":25},{"beat":551.02083,"duration":0.95833,"midi":66,"velocity":91,"channel":6,"program":29},{"beat":551.04167,"duration":0.4375,"midi":62,"velocity":82,"channel":5,"program":30},{"beat":551.04167,"duration":0.4375,"midi":66,"velocity":62,"channel":3,"program":27},{"beat":551.04167,"duration":0.4375,"midi":66,"velocity":60,"channel":4,"program":29},{"beat":551.04167,"duration":0.4375,"midi":66,"velocity":100,"channel":12,"program":25},{"beat":551.5,"duration":0.72917,"midi":50,"velocity":78,"channel":2,"program":33},{"beat":551.5,"duration":0.47917,"midi":50,"velocity":87,"channel":3,"program":27},{"beat":551.5,"duration":1.5625,"midi":50,"velocity":89,"channel":4,"program":29},{"beat":551.5,"duration":0.72917,"midi":50,"velocity":90,"channel":5,"program":30},{"beat":551.5,"duration":0.22917,"midi":69,"velocity":75,"channel":13,"program":81},{"beat":551.52083,"duration":0.45833,"midi":57,"velocity":87,"channel":3,"program":27},{"beat":551.52083,"duration":1.45833,"midi":57,"velocity":87,"channel":4,"program":29},{"beat":551.52083,"duration":0.70833,"midi":57,"velocity":84,"channel":5,"program":30},{"beat":551.52083,"duration":0.45833,"midi":57,"velocity":85,"channel":12,"program":25},{"beat":551.54167,"duration":0.64583,"midi":62,"velocity":76,"channel":5,"program":30},{"beat":551.54167,"duration":0.4375,"midi":66,"velocity":66,"channel":3,"program":27},{"beat":551.54167,"duration":0.4375,"midi":66,"velocity":70,"channel":4,"program":29},{"beat":551.54167,"duration":0.4375,"midi":66,"velocity":88,"channel":12,"program":25},{"beat":552.0,"duration":1.02083,"midi":93,"velocity":75,"channel":7,"program":29},{"beat":553.0,"duration":0.375,"midi":91,"velocity":75,"channel":7,"program":29}],"stats":{"easyNoteCount":1679,"fullNoteCount":3033,"backingNoteCount":12213}}